<svg xmlns="http://www.w3.org/2000/svg" width="300" height="300">
    <circle cx="150" cy="150" r="150" fill="#f4f4f4" />
    <path fill="#b6242b"
        d="M235.9 150c0-11.3-8.2-16.8-20.4-26-12-9-32.4-22.2-44.6-29.4-12.1-7.2-31.9-18.4-45.6-24.9-13.8-6.6-24.8-10.9-31.4-10.9-6.7 0-11.2 2.1-14.5 6.4S74.2 75.9 72.9 84c-1.3 8-2 17.8-2.4 28.9-.3 11.1-.4 37.2-.4 37.2l.4 37.2c.4 11.1 1 20.9 2.4 28.9 1.3 8.1 3.2 14.4 6.5 18.8s7.9 6.4 14.5 6.4c6.7 0 17.6-4.4 31.4-10.9 13.6-6.5 33.4-17.7 45.6-24.9 12.1-7.2 32.5-20.4 44.6-29.4 12.2-9.4 20.4-14.9 20.4-26.2" />
    <g fill="#dc2b26">
        <path
            d="M217.7 136.2h-2.6a2.22 2.22 0 0 0-2.2 2.2v23.2a2.22 2.22 0 0 0 2.2 2.2h2.6a2.22 2.22 0 0 0 2.2-2.2v-23.2a2.22 2.22 0 0 0-2.2-2.2m-78.4-6.9h2.6a2.22 2.22 0 0 0 2.2-2.2v-37a2.22 2.22 0 0 0-2.2-2.2h-2.6a2.22 2.22 0 0 0-2.2 2.2v37a2.22 2.22 0 0 0 2.2 2.2m23.2 62.1H160a2.22 2.22 0 0 0-2.2 2.2v2.5a2.22 2.22 0 0 0 2.2 2.2h2.5a2.22 2.22 0 0 0 2.2-2.2v-2.5a2.22 2.22 0 0 0-2.2-2.2m-53-96.6h-6.9V81h6.9v13.8zm-25.4 20.7h30.2a2.22 2.22 0 0 0 2.2-2.2v-11.6H128a2.22 2.22 0 0 0 2.2-2.2V83.2A2.22 2.22 0 0 0 128 81h-2.6a2.22 2.22 0 0 0-2.2 2.2v11.6h-6.9V76.3a2.22 2.22 0 0 0-2.2-2.2H97.9a2.22 2.22 0 0 0-2.2 2.2v23.3a2.22 2.22 0 0 0 2.2 2.2h11.6v6.9H88.8V83.2a2.22 2.22 0 0 0-2.2-2.2H84a2.22 2.22 0 0 0-2.2 2.2v30.1c.2 1.2 1.1 2.2 2.3 2.2zM203.9 129.3h-2.6a2.22 2.22 0 0 0-2.2 2.2v32.3h-11.6a2.22 2.22 0 0 0-2.2 2.2v11.6h-6.9V166a2.22 2.22 0 0 0-2.2-2.2h-23.3a2.22 2.22 0 0 0-2.2 2.2v2.6a2.22 2.22 0 0 0 2.2 2.2h18.5v6.9H144V157h18.5a2.22 2.22 0 0 0 2.2-2.2v-2.6a2.22 2.22 0 0 0-2.2-2.2h-23.2a2.22 2.22 0 0 0-2.2 2.2v30.1a2.22 2.22 0 0 0 2.2 2.2h32.3v4.7a2.22 2.22 0 0 0 2.2 2.2h2.6a2.22 2.22 0 0 0 2.2-2.2v-4.7h11.6a2.22 2.22 0 0 0 2.2-2.2v-11.6H204a2.22 2.22 0 0 0 2.2-2.2v-37c-.1-1.2-1.1-2.2-2.3-2.2m-55.2 62.1h-16.4a2.22 2.22 0 0 0-2.2 2.2v11.6H88.8v-6.9h32.3a2.22 2.22 0 0 0 2.2-2.2v-2.5a2.22 2.22 0 0 0-2.2-2.2h-37a2.22 2.22 0 0 0-2.2 2.2V210a2.22 2.22 0 0 0 2.2 2.2h50.8a2.22 2.22 0 0 0 2.2-2.2v-11.6h6.9v4.7c0 1.2 1 2.2 2.1 2.2h2.6a2.22 2.22 0 0 0 2.2-2.2v-9.5a2.22 2.22 0 0 0-2.2-2.2M93.5 219h-2.4a2.22 2.22 0 0 0-2.2 2.2v2.4a2.22 2.22 0 0 0 2.2 2.2h2.4a2.22 2.22 0 0 0 2.2-2.2v-2.4a2.22 2.22 0 0 0-2.2-2.2m13.8 0h-2.5a2.22 2.22 0 0 0-2.2 2.2v2.4a2.22 2.22 0 0 0 2.2 2.2h2.5a2.22 2.22 0 0 0 2.2-2.2v-2.4a2.22 2.22 0 0 0-2.2-2.2m-23.1-41.4a2.22 2.22 0 0 0-2.2 2.2v2.4a2.22 2.22 0 0 0 2.2 2.2h2.4a2.22 2.22 0 0 0 2.2-2.2v-2.4a2.22 2.22 0 0 0-2.2-2.2h-2.4zm13.8 0a2.22 2.22 0 0 0-2.2 2.2v2.4a2.22 2.22 0 0 0 2.2 2.2h2.4a2.22 2.22 0 0 0 2.2-2.2v-2.4a2.22 2.22 0 0 0-2.2-2.2H98z" />
        <path
            d="M109.5 179.8v2.4a2.22 2.22 0 0 0 2.2 2.2H128a2.22 2.22 0 0 0 2.2-2.2v-30.1a2.22 2.22 0 0 0-2.2-2.2h-2.6a2.22 2.22 0 0 0-2.2 2.2v25.4h-11.5c-1.2.1-2.2 1.1-2.2 2.3m64.3-29.8a2.22 2.22 0 0 0-2.2 2.2v2.4a2.22 2.22 0 0 0 2.2 2.2h2.4a2.22 2.22 0 0 0 2.2-2.2v-2.4a2.22 2.22 0 0 0-2.2-2.2h-2.4zm-6.9-41.4h2.5a2.22 2.22 0 0 0 2.2-2.2V104a2.22 2.22 0 0 0-2.2-2.2h-2.5a2.22 2.22 0 0 0-2.2 2.2v2.4a2.22 2.22 0 0 0 2.2 2.2" />
        <path
            d="M190 150h-2.4a2.22 2.22 0 0 0-2.2 2.2v2.4a2.22 2.22 0 0 0 2.2 2.2h2.4c1.3 0 2.2-1 2.2-2.2v-2.4c.1-1.2-.9-2.2-2.2-2.2m-32.2-20.7h20.7v-6.9h6.9v13.8h-27.6v-6.9zm-73.7 41.4h30.2a2.22 2.22 0 0 0 2.2-2.2v-16.3a2.22 2.22 0 0 0-2.2-2.2h-11.6v-20.7h20.7v11.6a2.22 2.22 0 0 0 2.2 2.2h64.6a2.22 2.22 0 0 0 2.2-2.2v-23.3a2.22 2.22 0 0 0-2.2-2.2h-16.3a2.22 2.22 0 0 0-2.2 2.2v4.7h-13.8V97a2.22 2.22 0 0 0-2.2-2.2h-2.6a2.22 2.22 0 0 0-2.2 2.2v39.2h-20.7v-11.6a2.22 2.22 0 0 0-2.2-2.2H97.9a2.22 2.22 0 0 0-2.2 2.2v30.2a2.22 2.22 0 0 0 2.2 2.2h11.6v6.9H88.8v-39.2a2.22 2.22 0 0 0-2.2-2.2H84a2.22 2.22 0 0 0-2.2 2.2v43.9c.2 1.1 1.1 2.1 2.3 2.1z" />
    </g>
</svg>