<svg xmlns="http://www.w3.org/2000/svg" viewBox="0 0 768 768">
  <rect fill="#fff" width="768" height="768" />
  <path fill="#252c58" d="M126.79 389.66c35.26 73.15 70.34 146.38 105.44 219.6-13.71-.01-27.42-.01-41.14 0-5.42-12.01-10.86-24.01-16.3-36.01-25.99-.01-51.98.02-77.97-.01 5.51-12.25 11.16-24.44 16.63-36.71 14.85-.08 29.7 0 44.54-.04-10.36-22.87-20.78-45.73-31.16-68.59-16.57 36.37-33.02 72.8-49.5 109.21-5.15 10.58-9.87 21.36-14.72 32.08-13.73.13-27.46.03-41.2.06 35.1-73.22 70.25-146.39 105.38-219.59zM240.25 390.26c45.06-.01 90.12-.02 135.17 0-5.56 12.25-11.16 24.48-16.72 36.73-27.23.02-54.47 0-81.7.01 0 18.17-.02 36.34.02 54.5H353v36.75c-25.33 0-50.66.01-75.99 0-.01 18.08-.03 36.17.01 54.26 32.8-.01 65.6-.03 98.4.01-5.44 12.28-11.15 24.44-16.63 36.71-39.51.05-79.03.01-118.54.02V390.26z"/>
  <path fill="#252c58" d="M463.97 391.03c8.29-1.08 16.66-.73 24.99-.78 17.7-.01 35.4.03 53.1-.02-5.46 12.26-11.22 24.39-16.58 36.7-17.52.25-35.05-.14-52.56.19-32.41 1.46-61.51 27.87-66.68 59.77-2.79 17.01-.15 35.21 8.97 50.01 10.19 16.5 26.63 29.53 45.73 33.83 10.17 2.57 20.71 1.59 31.08 1.77 16.7 0 33.4.01 50.11-.01-5.58 12.26-11.12 24.54-16.75 36.77-15.45-.02-30.91-.01-46.36-.01-17.99.42-36.16-3.61-52.05-12.14-14.96-7.98-27.84-19.6-37.97-33.14-11.27-15.05-18.18-33.25-19.95-51.96-1.73-17.83.17-36.2 6.85-52.9 7.31-18.67 20.42-34.72 36.15-46.99 14.92-11.66 33.11-19.01 51.92-21.09zM556.26 390.26c23.23-.02 46.47-.01 69.72-.01 5.97.05 12-.29 17.94.67 28.12 3.7 51.83 28.79 53.74 57.12 1.2 16.1-1.5 33.71-12.62 46.13 8.27 5.39 16.06 12.2 20.44 21.23 5.9 11.86 6.81 25.56 5.62 38.57-3.15 29.3-29.56 54.16-59.07 55.25-19.33.09-38.67-.01-58 .04 5.6-12.23 11.13-24.5 16.69-36.76 12.75 0 25.51 0 38.27.01 10.37-.05 19.86-7.24 23.87-16.61 2-4.7 2.25-9.95 1.66-14.96-1.79-12.22-13.05-22.53-25.5-22.69H593c0 17.6-.01 35.2.01 52.81.14 1.92-.81 3.64-1.56 5.34-5.07 10.96-9.88 22.03-15.07 32.93-6.71-.17-13.42-.03-20.13-.08 0-73-.01-146 .01-218.99M593.01 427c-.01 18.17-.03 36.34.01 54.5 10.64 0 21.28.01 31.92 0 6.96-.05 14.38.61 20.8-2.68 10.28-4.89 16.92-16.56 15.25-27.91-1.22-12.91-13.02-23.8-26-23.9-14-.02-27.99-.01-41.98-.01z"/>
  <path fill="#f49624" d="M205.14 200c36.37-36.48 72.99-72.73 109.11-109.46 17.17-.07 34.35-.07 51.52 0-36.34 36.52-72.86 72.87-109.26 109.34 36.23 36.58 72.71 72.93 109.1 109.36-17.13-.02-34.26.1-51.38-.05-36.28-36.49-72.75-72.77-109.09-109.19zM416.65 90.5h51.23c36.44 36.47 72.94 72.88 109.35 109.39-36.43 36.47-72.9 72.91-109.34 109.36-17.08-.01-34.15.03-51.22-.02 36.38-36.43 72.81-72.81 109.2-109.23-36.37-36.54-72.74-73.06-109.22-109.5z"/>
</svg>
