<svg xmlns="http://www.w3.org/2000/svg" xml:space="preserve" viewBox="0 0 300 300">
    <circle cx="150" cy="150" r="150" fill="#337ab7" />
    <path fill="#fff" d="M 146.1 84 c 8.4 6 30 9.3 42.9 3 C 209.1 77.4 186.9 62.4 165.9 60.9 C 216 72.6 177.9 95.4 146.1 84 z m 3 40.2 C 218.1 138.6 252 102 219.3 82.2 c 19.8 17.4 -9 48 -70.8 42 z M 156.9 45 a 107.4 107.4 90 0 0 -107.1 103.5 c 3 2.4 7.5 4.5 11.4 6.6 L 61.2 147 A 96.3 96.3 90 0 1 243.6 103.5 C 259.8 134.7 208.2 175.8 110.4 152.7 C 178.8 180 240 163.8 252.9 133.2 a 103.2 103.2 90 0 1 0.6 10.5 C 254.1 184.5 134.1 234 6 124.8 C 109.8 228 213 211.2 249 177.9 l -1.2 3 C 228.6 222.6 153.9 235.8 93.6 207.6 A 132.3 132.3 90 0 0 225 215.7 A 96 96 90 0 1 66.6 179.1 C 61.8 176.1 56.1 173.1 51.6 169.8 A 107.1 107.1 90 1 0 157.5 45 z" />
</svg>