<svg xmlns="http://www.w3.org/2000/svg" viewBox="0 0 1000 1000">
    <rect width="1000" height="1000" fill="#000" />
    <path fill="#fff" d="M 595.613281 769.136719 L 611.289063 769.136719 L 611.289063 714.175781 L 595.613281 714.175781 Z M 595.613281 769.136719 "/>
    <path fill="#fff" d="M 316.21875 761.121094 L 280.4375 761.121094 L 280.4375 745.664063 L 320.550781 745.664063 L 320.550781 737.648438 L 280.4375 737.648438 L 280.4375 722.191406 L 316.21875 722.191406 L 323.988281 714.175781 L 264.765625 714.175781 L 264.765625 769.136719 L 323.988281 769.136719 "/>
    <path fill="#fff" d="M 800.300781 722.191406 L 826.523438 722.191406 L 834.296875 714.175781 L 775.074219 714.175781 L 775.074219 769.136719 L 790.746094 769.136719 L 790.746094 741.65625 L 824.230469 741.65625 L 832.007813 733.640625 L 790.746094 733.640625 L 790.746094 722.191406 "/>
    <path fill="#fff" d="M 749.828125 761.40625 L 734.71875 761.40625 L 720.90625 747.664063 L 720.90625 722.933594 L 749.828125 722.933594 Z M 761.714844 713.933594 L 705.246094 713.933594 L 705.246094 750.347656 L 718.710938 763.878906 L 724.207031 769.304688 L 724.273438 769.375 L 765.496094 769.375 L 765.496094 724.171875 L 765.382813 724.171875 C 765.410156 723.980469 765.496094 723.808594 765.496094 723.613281 L 765.496094 717.714844 C 765.496094 715.628906 763.804688 713.933594 761.714844 713.933594 "/>
    <path fill="#fff" d="M 646.285156 722.191406 L 672.503906 722.191406 L 680.28125 714.175781 L 620.195313 714.175781 L 620.195313 769.136719 L 672.503906 769.136719 L 680.28125 761.121094 L 635.871094 761.121094 L 635.871094 722.191406 "/>
    <path fill="#fff" d="M 348.203125 722.261719 L 373.664063 722.261719 C 374.230469 722.261719 374.691406 722.722656 374.691406 723.289063 L 374.691406 743.144531 L 348.203125 743.144531 Z M 332.53125 714.175781 L 332.53125 769.136719 L 348.203125 769.136719 L 348.203125 751.183594 L 390.355469 751.183594 L 390.355469 718.003906 C 390.355469 715.914063 388.660156 714.222656 386.574219 714.222656 L 348.203125 714.222656 L 348.203125 714.175781 "/>
    <path fill="#fff" d="M 458.453125 769.136719 L 458.453125 714.175781 L 442.78125 714.175781 L 442.78125 761.121094 L 413.777344 761.121094 L 413.777344 714.175781 L 398.105469 714.175781 L 398.105469 769.136719 L 457.449219 769.136719 "/>
    <path fill="#fff" d="M 555.328125 761.363281 L 549.136719 761.363281 L 549.136719 714.175781 L 533.464844 714.175781 L 533.464844 769.136719 L 537.078125 769.136719 L 537.078125 769.378906 L 581.550781 769.378906 L 589.324219 761.363281 "/>
    <path fill="#fff" d="M 509.351563 726.484375 L 509.351563 736.34375 L 482.078125 736.34375 L 482.078125 722.191406 L 508.320313 722.191406 C 508.871094 722.191406 509.351563 722.671875 509.351563 723.222656 Z M 508.734375 761.144531 L 482.078125 761.144531 L 482.078125 744.382813 L 508.734375 744.382813 Z M 520.363281 735.050781 L 520.363281 717.933594 C 520.363281 715.847656 518.675781 714.15625 516.585938 714.15625 L 466.347656 714.15625 L 466.347656 769.113281 L 524.398438 769.113281 L 524.398438 736.34375 L 520.34375 736.34375 L 520.34375 735.050781 "/>
    <path fill="#fff" d="M 250.492188 714.152344 L 187.976563 714.152344 L 187.976563 755.097656 L 197.597656 764.921875 L 203.644531 771.105469 L 203.644531 722.191406 L 237.511719 722.191406 C 238.058594 722.191406 238.539063 722.671875 238.539063 723.222656 L 238.539063 743.96875 L 209.894531 743.96875 L 219.238281 753.449219 L 254.273438 789.242188 L 254.273438 770.074219 L 253.308594 769.113281 L 239.226563 754.6875 L 237.992188 753.449219 L 254.203125 753.449219 L 254.203125 724.171875 C 254.214844 724.050781 254.273438 723.953125 254.273438 723.832031 L 254.273438 717.933594 C 254.273438 715.84375 252.582031 714.152344 250.492188 714.152344 "/>
    <path fill="#fff" d="M 491.683594 807.226563 L 479.320313 815.8125 L 475.335938 818.632813 L 471.347656 815.8125 L 458.984375 807.226563 L 450.121094 801.046875 L 443.320313 796.304688 L 443.320313 851.195313 L 458.984375 851.195313 L 458.984375 819.316406 L 475.335938 830.652344 L 491.683594 819.316406 L 491.683594 851.195313 L 507.351563 851.195313 L 507.351563 796.304688 L 500.546875 801.046875 "/>
    <path fill="#fff" d="M 541.5625 804.285156 L 567.78125 804.285156 L 575.558594 796.269531 L 516.332031 796.269531 L 516.332031 851.230469 L 575.558594 851.230469 L 567.78125 843.214844 L 532.003906 843.214844 L 532.003906 827.757813 L 572.113281 827.757813 L 572.113281 819.742188 L 532.003906 819.742188 L 532.003906 804.285156 "/>
    <path fill="#fff" d="M 418.105469 819.765625 L 389.9375 819.765625 L 389.9375 804.308594 L 417.074219 804.308594 C 417.621094 804.308594 418.105469 804.789063 418.105469 805.339844 Z M 429.988281 796.273438 L 374.273438 796.273438 L 374.273438 851.230469 L 389.9375 851.230469 L 389.9375 827.804688 L 418.105469 827.804688 L 418.105469 851.230469 L 433.769531 851.230469 L 433.769531 800.050781 C 433.769531 797.988281 432.050781 796.273438 429.988281 796.273438 "/>
    <path fill="#fff" d="M 680.554688 804.296875 L 706.777344 804.296875 L 714.550781 796.28125 L 670.128906 796.28125 L 670.128906 796.261719 L 654.464844 796.261719 L 654.464844 827.789063 L 698.160156 827.789063 L 698.160156 843.226563 L 653.714844 843.226563 L 661.488281 851.242188 L 705.960938 851.242188 L 705.960938 851.21875 L 713.820313 851.21875 L 713.820313 819.753906 L 670.128906 819.753906 L 670.128906 804.296875 "/>
    <path fill="#fff" d="M 329.15625 804.285156 L 355.378906 804.285156 L 363.152344 796.269531 L 301.539063 796.269531 L 301.539063 851.230469 L 317.210938 851.230469 L 317.210938 851.195313 L 347.480469 851.195313 L 347.480469 851.230469 L 363.152344 851.230469 L 363.152344 820.816406 L 347.480469 820.816406 L 347.480469 843.179688 L 317.210938 843.179688 L 317.210938 804.285156 "/>
    <path fill="#fff" d="M 629.941406 826.75 L 644.4375 826.75 L 644.4375 800.027344 C 644.4375 798.25 643.179688 796.824219 641.527344 796.421875 L 641.527344 796.25 L 592.84375 796.25 L 592.84375 796.269531 L 583.089844 796.269531 L 583.089844 851.230469 L 598.761719 851.230469 L 598.761719 804.285156 L 627.742188 804.285156 C 628.292969 804.285156 628.773438 804.769531 628.773438 805.316406 L 628.773438 817.269531 L 603.21875 817.269531 L 602.324219 818.09375 L 610.15625 826.75 L 632.210938 851.207031 L 651.992188 851.207031 L 641.964844 840.078125 "/>
    <path fill="red" d="M 931.433594 203.121094 C 931.433594 203.121094 820.339844 239.90625 584.609375 373.449219 C 444.8125 452.667969 324.324219 543.59375 324.324219 543.59375 C 324.324219 543.59375 342.746094 554.8125 358.570313 560.9375 C 456.289063 598.714844 589.046875 620.738281 652.929688 620.644531 C 667.683594 620.625 678.765625 619.429688 684.902344 616.972656 C 773.410156 581.617188 863.144531 378.046875 889.707031 285.019531 L 889.695313 285.023438 C 889.699219 285.019531 889.699219 285.019531 889.699219 285.019531 C 889.699219 285.019531 797.132813 329.429688 703.613281 381.519531 C 589 445.378906 469.105469 519.308594 469.105469 519.308594 L 469.160156 519.285156 C 469.15625 519.285156 469.121094 519.308594 469.121094 519.308594 L 759.289063 395.382813 C 759.167969 395.726563 708.457031 542.015625 631.367188 562.671875 C 616.898438 566.550781 600.121094 567.972656 582.414063 567.730469 C 511.554688 566.742188 425.769531 539.007813 412.988281 534.746094 C 411.925781 534.394531 411.371094 534.199219 411.367188 534.199219 L 411.375 534.199219 C 411.375 534.199219 558.664063 423.472656 907.058594 252.5625 C 918.058594 247.160156 931.855469 218.75 931.441406 203.121094 L 931.433594 203.125 "/>
    <path fill="#fff" d="M 193.257813 431.378906 C 212.21875 468.777344 243.066406 526.65625 269.671875 563.953125 C 311.042969 621.917969 385.410156 655.515625 385.410156 655.515625 C 385.410156 655.515625 383.421875 653.347656 380.074219 649.601563 C 377.84375 647.105469 375.007813 643.910156 371.757813 640.1875 C 370.136719 638.324219 368.40625 636.332031 366.597656 634.230469 C 348.507813 613.203125 322.378906 581.214844 311.671875 560.117188 C 302.753906 542.523438 313.796875 519.246094 386.621094 463.542969 C 452.507813 413.125 689.566406 207.089844 916.414063 151.683594 C 916.425781 151.679688 916.433594 151.675781 916.445313 151.671875 C 916.445313 151.671875 895.425781 148.144531 858.433594 148.144531 C 807.4375 148.144531 726.078125 154.875 627.597656 186.886719 C 567.007813 206.578125 477.71875 331.101563 314.601563 466.464844 C 295.074219 482.667969 232.117188 424.832031 178.199219 413.460938 C 178.199219 413.460938 187.917969 420.820313 193.257813 431.378906 "/>
    <path fill="#fff" d="M 67.613281 340.789063 C 66.796875 339.75 66.371094 339.203125 66.371094 339.203125 C 66.371094 339.203125 81.730469 414.121094 102.84375 452.550781 C 123.960938 490.980469 231.464844 533.246094 231.464844 533.246094 C 179.277344 482.804688 79.839844 356.394531 67.613281 340.789063 "/>
</svg>
