<svg width="720" height="720" viewBox="0 0 720 720" xmlns="http://www.w3.org/2000/svg">
    <defs>
        <linearGradient id="gradient" x1="328.851" y1="377.512" x2="212.053" y2="579.816" gradientUnits="userSpaceOnUse">
            <stop stop-color="white" stop-opacity="0.4"/>
            <stop offset="0.9228" stop-color="white"/>
        </linearGradient>
    </defs>
    <path d="M592.5 0H127.5C57.0837 0 0 58.5474 0 130.769V589.231C0 661.453 57.0837 720 127.5 720H592.5C662.916 720 720 661.453 720 589.231V130.769C720 58.5474 662.916 0 592.5 0Z" fill="#0052CC"/>
    <path d="M268.715 343.084C261.873 336.243 251.612 336.243 247.051 345.365L136.452 566.561C131.891 575.683 138.732 585.944 147.854 585.944H301.78C306.341 585.944 310.902 583.664 313.182 579.103C346.247 510.692 326.864 405.795 268.715 343.084Z" fill="url(#gradient)"/>
    <path d="M349.67 142.411C288.1 240.467 291.52 348.785 332.567 430.879C373.614 512.972 404.399 574.542 406.679 579.103C408.959 583.664 413.52 585.944 418.081 585.944H572.006C582.268 585.944 587.969 575.683 583.408 566.561C583.408 566.561 375.894 151.533 371.333 141.271C366.772 133.29 355.371 132.15 349.67 142.411Z" fill="white"/>
</svg>
