<svg xmlns="http://www.w3.org/2000/svg" viewBox="0 0 1024 1024">
   <circle cx="512" cy="512" r="512" fill="#f90"/>
   <path d="M 370.4125 478.7625 c 0 8.6625 0.9625 15.675 2.6125 20.7625 c 1.925 5.225 4.2625 10.8625 7.5625 16.9125 c 1.2375 1.7875 1.65 3.7125 1.65 5.3625 c 0 2.3375 -1.375 4.675 -4.4 7.0125 l -14.7125 9.7625 c -1.7875 1.2375 -3.85 2.0625 -6.05 2.0625 c -2.3375 0 -4.675 -1.2375 -7.0125 -3.3 c -3.1625 -3.4375 -5.9125 -7.0125 -8.3875 -11 c -2.6125 -4.5375 -5.0875 -9.075 -7.2875 -13.75 c -18.2875 21.5875 -41.25 32.3125 -68.8875 32.3125 c -19.6625 0 -35.3375 -5.6375 -46.75 -16.775 c -11.4125 -11.275 -17.325 -26.2625 -17.325 -44.9625 c 0 -19.9375 7.0125 -36.025 21.3125 -48.2625 c 14.3 -12.2375 33.275 -18.2875 57.3375 -18.2875 c 7.975 0 16.225 0.6875 24.75 1.925 c 8.6625 1.2375 17.6 3.025 26.95 5.225 v -17.05 c 0 -17.7375 -3.7125 -30.25 -11 -37.4 c -7.425 -7.2875 -20.075 -10.725 -38.0875 -10.725 c -8.25 0 -16.6375 0.9625 -25.3 3.025 s -17.05 4.675 -25.3 7.975 c -2.6125 1.2375 -5.3625 2.2 -8.25 3.025 c -1.2375 0.4125 -2.475 0.55 -3.7125 0.6875 c -3.3 0 -4.95 -2.3375 -4.95 -7.2875 v -11.4125 c 0 -3.7125 0.4125 -6.6 1.65 -8.25 c 1.7875 -2.0625 3.9875 -3.85 6.6 -4.95 c 8.25 -4.2625 18.0125 -7.7 29.425 -10.5875 c 11.9625 -3.025 24.2 -4.5375 36.575 -4.4 c 27.9125 0 48.2625 6.325 61.325 18.975 c 12.925 12.65 19.3875 31.7625 19.3875 57.6125 v 75.9 l 0.275 -0.1375 z M 275.4 514.375 c 7.7 0 15.675 -1.375 24.0625 -4.2625 c 8.3875 -2.75 15.95 -7.975 22.275 -14.9875 c 3.7125 -4.4 6.6 -9.35 7.975 -14.9875 c 1.375 -5.6375 2.3375 -12.375 2.3375 -20.35 v -9.7625 c -7.15 -1.7875 -14.3 -3.025 -21.5875 -3.9875 c -7.2875 -0.9625 -14.7125 -1.375 -22 -1.375 c -15.675 0 -27.225 3.025 -34.925 9.35 c -7.7 6.325 -11.4125 15.2625 -11.4125 26.95 c 0 11 2.75 19.25 8.6625 24.75 c 5.6375 5.9125 13.75 8.6625 24.6125 8.6625 z m 187.9625 25.3 c -4.2625 0 -7.0125 -0.6875 -8.9375 -2.3375 c -1.925 -1.375 -3.575 -4.675 -4.95 -9.075 l -55 -180.95 c -1.1 -3.025 -1.7875 -6.1875 -2.0625 -9.35 c 0 -3.7125 1.925 -5.9125 5.6375 -5.9125 h 22.9625 c 4.4 0 7.425 0.6875 9.075 2.3375 c 1.925 1.375 3.3 4.675 4.675 9.2125 l 39.325 154.9625 l 36.575 -154.9625 c 1.2375 -4.675 2.6125 -7.7 4.4 -9.2125 c 2.75 -1.7875 6.05 -2.6125 9.35 -2.3375 H 543.25 c 4.4 0 7.5625 0.6875 9.35 2.3375 c 1.7875 1.375 3.575 4.675 4.4 9.2125 l 36.9875 156.8875 l 40.5625 -156.8875 c 1.375 -4.675 3.025 -7.7 4.675 -9.2125 c 2.75 -1.7875 5.9125 -2.6125 9.075 -2.3375 h 21.8625 c 3.7125 0 5.9125 1.925 5.9125 5.9125 c 0 1.2375 -0.275 2.3375 -0.55 3.7125 c -0.4125 2.0625 -0.9625 3.9875 -1.65 5.9125 l -56.375 180.95 c -1.375 4.675 -3.025 7.7 -4.95 9.075 c -2.6125 1.65 -5.775 2.475 -8.9375 2.3375 h -20.2125 c -4.4 0 -7.425 -0.6875 -9.35 -2.3375 c -1.7875 -1.65 -3.4375 -4.675 -4.4 -9.35 l -36.3 -150.975 L 497.325 528.125 c -1.2375 4.675 -2.6125 7.7 -4.4 9.35 c -1.925 1.65 -5.225 2.3375 -9.35 2.3375 l -20.2125 -0.1375 z m 300.85 6.325 c -12.2375 0 -24.3375 -1.375 -36.025 -4.2625 c -11.6875 -2.75 -20.7625 -5.9125 -26.95 -9.35 c -3.7125 -2.0625 -6.325 -4.4 -7.2875 -6.6 c -0.9625 -2.0625 -1.375 -4.2625 -1.375 -6.6 v -11.9625 c 0 -4.95 1.925 -7.2875 5.3625 -7.2875 c 1.375 0 2.75 0.275 4.2625 0.6875 c 1.375 0.4125 3.575 1.375 5.9125 2.3375 c 7.975 3.575 16.6375 6.325 25.7125 8.25 c 9.35 1.925 18.425 2.75 27.9125 2.75 c 14.7125 0 26.2625 -2.6125 34.2375 -7.7 c 7.7 -4.675 12.375 -13.2 12.2375 -22.275 c 0.1375 -6.05 -2.0625 -11.9625 -6.325 -16.3625 c -4.2625 -4.4 -12.2375 -8.3875 -23.65 -12.2375 l -33.9625 -10.5875 c -17.05 -5.3625 -29.7 -13.3375 -37.4 -23.7875 c -7.5625 -9.7625 -11.6875 -21.725 -11.6875 -33.9625 c 0 -9.7625 2.2 -18.425 6.325 -25.9875 c 4.2625 -7.425 9.7625 -14.025 16.9125 -19.25 c 7.0125 -5.3625 14.9875 -9.35 24.3375 -12.2375 c 9.35 -2.75 19.25 -3.9875 29.5625 -3.9875 c 5.0875 0 10.5875 0.275 15.675 0.9625 c 5.3625 0.6875 10.3125 1.65 15.2625 2.6125 c 4.675 1.2375 9.2125 2.3375 13.3375 3.7125 c 4.2625 1.375 7.5625 2.75 9.9 4.2625 c 2.75 1.375 5.225 3.4375 7.0125 5.9125 c 1.5125 2.3375 2.2 4.95 2.0625 7.7 v 11 c 0 4.95 -1.925 7.5625 -5.3625 7.5625 c -3.1625 -0.4125 -6.1875 -1.375 -8.9375 -2.75 c -14.1625 -6.1875 -29.425 -9.35 -44.9625 -9.075 c -13.3375 0 -23.925 2.0625 -31.2125 6.6 c -7.2875 4.4 -11 11.275 -11 20.7625 c 0 6.6 2.3375 12.2375 7.0125 16.6375 c 4.675 4.4 13.3375 8.9375 25.7125 12.925 l 33.275 10.45 c 16.775 5.3625 29.0125 12.925 36.3 22.55 c 7.2875 9.625 10.725 20.625 10.725 32.725 c 0 10.0375 -2.0625 19.25 -6.05 27.225 c -4.2625 7.975 -9.9 14.9875 -17.05 20.625 c -7.2875 5.9125 -15.95 10.0375 -25.9875 13.0625 c -10.8625 3.3 -21.8625 4.95 -33.825 4.95 z m 44.275 113.7125 c -77 56.925 -188.925 87.0375 -285.175 87.0375 c -134.8875 0 -256.4375 -49.9125 -348.15 -132.825 c -7.2875 -6.6 -0.6875 -15.4 7.975 -10.3125 c 99.275 57.6125 221.7875 92.5375 348.425 92.5375 c 85.525 0 179.3 -17.7375 265.7875 -54.3125 c 12.7875 -5.775 23.7875 8.525 11.1375 17.875 z m 32.0375 -36.4375 c -9.9 -12.65 -65.175 -6.05 -90.2 -3.025 c -7.425 0.9625 -8.6625 -5.6375 -1.7875 -10.5875 c 44 -30.9375 116.325 -22 124.85 -11.6875 c 8.3875 10.5875 -2.3375 82.9125 -43.5875 117.5625 c -6.325 5.3625 -12.375 2.6125 -9.625 -4.4 c 9.35 -23.2375 30.25 -75.4875 20.35 -87.8625 z" fill="#fff"/>
</svg>
