<svg xmlns="http://www.w3.org/2000/svg" viewBox="0 0 500 500">
    <circle cx="250" cy="250" r="250" fill="#2319dc" />
    <path d="M 156.5 259.55 c 30 -6.45 25.95 -42.45 25.05 -50.25 c -1.5 -12.15 -15.75 -33.3 -35.1 -31.5 c -24.3 2.1 -27.9 37.35 -27.9 37.35 c -3.15 16.05 7.95 50.85 37.95 44.4 m 55.8 -60.3 c 16.65 0 30 -19.05 30 -42.75 c 0 -23.55 -13.35 -42.75 -30 -42.75 s -30 19.05 -30 42.75 s 13.35 42.75 30 42.75 m 71.4 2.85 c 22.2 2.85 36.45 -20.7 39.3 -38.7 c 2.85 -17.85 -11.4 -38.7 -27.15 -42.3 c -15.75 -3.6 -35.4 21.6 -37.2 38.1 c -2.1 19.95 2.85 40.05 25.05 42.9 m 87.9 30.15 c 0 -8.55 -7.05 -34.5 -33.6 -34.5 s -30 24.45 -30 41.7 c 0 16.5 1.35 39.45 34.35 38.7 c 32.85 -0.75 29.25 -37.35 29.25 -45.9 M 338 307.55 S 303.65 281 283.7 252.35 c -27.15 -42.3 -65.7 -25.05 -78.6 -3.6 c -12.9 21.6 -32.85 35.1 -35.7 38.7 c -2.85 3.6 -41.4 24.3 -32.85 62.4 c 8.55 37.95 38.7 37.35 38.7 37.35 s 22.2 2.1 47.85 -3.6 c 25.8 -5.7 47.85 1.35 47.85 1.35 s 60 20.1 76.5 -18.6 c 16.35 -38.7 -9.45 -58.8 -9.45 -58.8" fill="#fff" />
</svg>