<svg  viewBox="0 0 50 50" xmlns="http://www.w3.org/2000/svg">
    <circle cx="25" cy="25" r="25" fill="#007AFF" />
    <g transform="translate(5 15)">
        <polygon fill="#F6BB2D" points="9.49794905 0 0 4.83926755 0 7 9.49794905 2.14242116 19 7 19 4.83926755"></polygon>
        <path d="M26.2831564,19 C25.0459433,19.0030642 24.0080535,17.8868985 24,16.5280434 L24,15.0145636 C24,15.0145636 35.3271939,14.9817955 35.3271939,15.0145636 C36.2654222,14.9817955 37.0264743,15.8153358 36.9992939,16.9745097 C37.0264743,18.0978435 36.2654222,19.0030642 35.3271939,19 L26.2831564,19 Z M23.9289688,11.9738229 L23.9289688,5 L21,5 L21,16.5425605 C21.0193365,19.5517425 23.3824586,22.0081966 26.2371346,22 L35.3802393,22 C37.944868,22.0081966 40.0321907,19.7489986 39.999624,16.9904961 C40.0321907,14.1960355 37.944868,11.9368374 35.3802393,11.9769051 L23.9289688,11.9738229 Z" id="Fill-7" fill="#fff" />
    </g>
</svg>