<svg xmlns="http://www.w3.org/2000/svg" viewBox="0 0 500 500">
    <circle cx="250" cy="250" r="250" fill="#fff" />
    <path fill="#9d9fa2" d="M 247.05 68.2847 c 40.43 0 73.19 32.76 73.19 73.19 c 0 40.43 -32.76 73.19 -73.19 73.19 c -40.43 0 -73.19 -32.76 -73.19 -73.19 c 0 -40.43 32.76 -73.19 73.19 -73.19"/>
    <path fill="#ed1d24" d="M 254.85 138.8747 v -43.94 h -43.94 l 14.17 13.52 c -17.16 20.41 -34.45 41.08 -50.83 62.14 c -7.02 9.1 -34.58 42.25 -23.27 54.73 c 9.75 10.53 49.27 -12.09 59.28 -18.33 c -7.15 2.99 -44.85 20.93 -51.87 12.48 c -11.05 -13.13 73.06 -84.63 83.2 -94.12 z" />
    <path fill="#00598e" d="M 241.72 144.0747 v 43.94 h 43.94 l -14.3 -13.39 c 17.16 -20.41 34.32 -41.08 50.7 -62.14 c 7.02 -9.1 34.58 -42.25 23.27 -54.73 c -9.75 -10.53 -49.27 12.09 -59.28 18.33 c 7.15 -2.99 44.85 -20.93 51.87 -12.48 c 10.92 13.13 -73.19 84.63 -83.2 94.12 z" />
    <path fill="blue" d="M 350.92 280.7047 h 23.66 v 102.05 H 419.3 v 17.29 h -68.38 z m -94.12 0 h 25.09 l 24.18 57.98 l 11.83 34.71 c -1.56 -19.11 -2.6 -32.63 -3.25 -40.82 c -0.52 -8.19 -0.91 -16.64 -0.91 -25.22 v -26.65 h 24.05 v 119.34 h -24.7 l -25.61 -58.5 l -10.53 -31.85 c 0.91 11.57 1.69 22.75 2.47 33.67 c 0.78 10.92 1.17 19.76 1.17 26.39 v 30.29 h -23.66 v -119.34 z m -38.35 36.4 c 0 -14.04 -4.81 -21.06 -14.3 -21.06 c -3.51 0 -6.63 1.04 -9.23 3.12 c -2.6 2.08 -4.03 4.81 -4.16 8.32 c 0.52 5.59 3.38 10.14 8.71 13.65 c 6.5 3.9 13.13 7.93 19.89 12.09 c 6.76 4.16 12.48 8.58 17.03 13.26 c 4.55 4.68 7.15 9.88 7.8 15.6 c 1.56 13.39 -1.04 23.27 -7.8 29.9 c -6.76 6.63 -15.47 10.14 -26.13 10.66 c -13.52 0.39 -24.31 -1.95 -32.24 -7.28 c -7.93 -5.2 -11.96 -15.08 -12.09 -29.51 c 0.52 -3.64 0.65 -6.24 0.65 -8.06 H 190.5 c 0 1.04 0 1.82 -0.13 2.34 c -0.13 0.52 -0.13 1.3 -0.13 2.21 c -0.13 0.91 -0.13 1.82 -0.26 2.6 c 0 13 5.2 19.76 15.47 20.15 c 2.86 -0.26 5.2 -0.78 7.02 -1.3 c 1.95 -0.52 3.64 -2.08 5.07 -4.55 s 2.21 -5.2 2.21 -8.19 c 0 -6.76 -3.9 -12.61 -11.57 -17.55 c -5.72 -3.38 -11.18 -6.76 -16.51 -10.14 c -5.33 -3.38 -9.62 -6.63 -13.26 -9.62 c -3.51 -2.99 -6.5 -6.76 -8.84 -11.18 c -2.47 -4.42 -3.38 -9.49 -3.12 -15.21 c 1.04 -18.46 12.35 -28.21 33.93 -29.25 c 27.04 -0.91 40.56 10.79 40.56 35.1 v 3.77 h -22.49 z m -101.92 29.38 h -12.22 v 36.4 h 13 c 8.84 0 13.52 -6.11 14.04 -18.46 c 0.13 -11.96 -4.81 -17.94 -14.82 -17.94 m -12.35 -48.1 v 30.81 H 112.5 c 5.72 0 9.75 -1.17 12.35 -3.38 c 2.47 -2.21 3.77 -6.5 3.77 -12.87 c -0.13 -6.5 -1.3 -10.53 -3.51 -12.09 c -2.21 -1.56 -6.37 -2.47 -12.48 -2.47 z m -24.05 -17.68 H 121.6 c 20.15 0 30.42 9.36 30.94 28.21 c 0.13 8.06 -1.17 14.17 -3.9 18.2 c -2.73 4.16 -6.63 7.15 -12.09 9.1 c 12.48 1.69 18.98 11.05 19.24 28.08 c 0 6.37 -1.04 12.22 -3.25 17.81 c -2.21 5.46 -5.59 9.88 -10.4 13.13 c -4.68 3.25 -10.66 4.81 -17.81 4.81 H 80 v -119.34 z" />
</svg>