<svg xmlns="http://www.w3.org/2000/svg" viewBox="0 0 200 200">
  <rect width="200" height="200" fill="#45c2cc" rx="20"/>
  <path fill="#fff" d="M171.48 139.43c-1.85-4.45-5.12-6.3-10.05-6.26-19.49.16-84.32.07-103.81.06-8.31-.01-12.79-4.44-12.79-12.74-.01-13.81-.01-23.22 0-37.03.01-8.3 4.48-12.73 12.79-12.74 19.49-.01 84.32-.1 103.81.06 4.93.04 8.19-1.8 10.05-6.26l7.9-19.1h-123c-.66 0-1.33.02-1.99.06-14.41 1.11-27.07 10.59-31.7 24.83a45 45 0 0 0-.68 2.34c-.02.07-.03.14-.05.21-.72 3-1.12 6.16-1.15 9.45-.11 14.19-.11 25.11 0 39.3.03 3.29.42 6.45 1.15 9.45.02.07.03.14.05.21.2.8.43 1.57.68 2.34 4.63 14.24 17.29 23.73 31.7 24.83.67.03 1.33.06 1.99.06h122.99c0 .03-7.68-18.56-7.89-19.07z"/>
</svg>
