<svg xmlns="http://www.w3.org/2000/svg" viewBox="0 0 150 150">
    <circle cx="75" cy="75" r="75" fill="#42a74c" />
    <path fill="#fff" d="M 75.792 125.48 A 52.488 52.488 90 0 1 23.36 73.048 H 43.312 a 32.464 32.464 90 0 0 57.344 20.888 l 15.272 12.8 a 52.384 52.384 90 0 1 -40.136 18.704" />
    <path fill="#fff" d="M 100.648 52.152 A 32.68 32.68 90 0 0 83.48 41.488 l 4.704 -19.392 a 52.8 52.8 90 0 1 27.728 17.208 L 100.648 52.152" />
    <path fill="#fff" d="M 64.56 40.768 A 14.92 14.92 90 1 1 49.64 25.848 A 14.92 14.92 90 0 1 64.56 40.768" />
</svg>