<svg xmlns="http://www.w3.org/2000/svg" viewBox="0 0 200 200">
  <circle cx="100" cy="100" r="100" fill="#0E5AA7"/>
  <path fill="#EF3642" d="M53.885 78.498l.26 71.502-21.971-.532s-.391-61.346 0-62.154c-1.238-11.674 4.69-28.62 5.221-29.062 19.54-40.348 63.907-33.835 64.048-33.902-45.876 11.618-47.558 54.148-47.558 54.148z"/>
  <path fill="#F5F5F5" d="M145.696 79.172c-.801-21.37-21.057-29.695-21.057-30.19-26.118-12.02-37.8 3.487-37.8 3.487a34.454 34.454 0 0 1 32.52 3.739c14.129 8.017 15.194 26.714 15.194 26.714v67.087h-21.365c0-6.29-.263-66.317-.263-67.33a9.196 9.196 0 0 0-4.798-7.698L99.86 85.132s-8.53-10.426-8.53-10.15c-3.996 1.869-4.797 10.15-4.797 10.15l-.264 64.888h-20.86a61.664 61.664 0 0 1-.109-3.783l.417-70.068c.176-28.815 23.055-50.228 50.6-48.468 27.546 1.76 50.183 25.867 50.535 54.55l.823 67.725h-21.452l-.527-70.804z"/>
</svg>
