<svg xmlns="http://www.w3.org/2000/svg" viewBox="0 0 1024 1024">
  <circle cx="512" cy="512" r="512" fill="#f38020"/>
  <path fill="#fff" d="M637.5 602.588c4.412-15.175 2.725-29.075-4.65-39.388-6.725-9.475-18.1-15-31.788-15.588l-259.3-3.362a4.675 4.675 0 0 1-3.987-2.137 5.813 5.813 0 0 1-.625-4.65 7.188 7.188 0 0 1 6.1-4.675l261.625-3.363c31-1.462 64.688-26.562 76.475-57.312l15-38.975a8.113 8.113 0 0 0 .438-5 170.35 170.35 0 0 0-327.5-17.5 76.6 76.6 0 0 0-122.188 53.5 80.337 80.337 0 0 0 1.9 26.775 108.825 108.825 0 0 0-105.75 108.912 133.6 133.6 0 0 0 1.05 15.788 5.225 5.225 0 0 0 5 4.412h478.55a6.525 6.525 0 0 0 6.088-4.65l3.562-12.787zM720 435.975a50.862 50.862 0 0 0-7.138.338 4.263 4.263 0 0 0-3.75 2.925L699 474.413c-4.412 15.175-2.75 29.075 4.625 39.425 6.75 9.475 18.137 14.912 31.825 15.562l55.213 3.388a4.625 4.625 0 0 1 3.975 2.1 6.088 6.088 0 0 1 .637 4.675 7.163 7.163 0 0 1-6.112 4.65l-57.5 3.362c-31.175 1.462-64.638 26.55-76.45 57.325L651 615.638a3.05 3.05 0 0 0 2.95 4.237h197.6a5.2 5.2 0 0 0 5-3.75 144.438 144.438 0 0 0 5.263-38.338c.062-77.962-63.575-141.537-141.725-141.537"/>
</svg>
