<svg xmlns="http://www.w3.org/2000/svg" viewBox="0 0 75 75">
  <linearGradient id="gradient" x1="7.425" x2="37.087" y1="36.549" y2="36.549" gradientUnits="userSpaceOnUse">
    <stop offset="0" stop-color="#38c1ef"/>
    <stop offset=".5" stop-color="#2dabe2"/>
    <stop offset="1" stop-color="#2394d2"/>
  </linearGradient>
  <circle cx="37.5" cy="37.5" r="37.5" fill="#1F4495"/>
  <path fill="#fff" d="M34.1 58.5c-4.5 0-7.9-1.2-10.3-3.7-3.8-4-5.8-9.2-5.8-15.5 0-5.9 1.6-11.3 4.8-16 3.6-5.4 8.1-8.2 13.4-8.3h.5c6.4 0 11.2 3.1 13.9 9.1 1.1 2.3 1.8 5.1 2.1 8.3l.3 3.2-3.1.8-7.2 1.9-4.5 1.2-.3-4.6c-.2-3.2-.8-4.2-1-4.4h-.2c-.3 0-1.2.8-1.9 3.4-.6 2.1-.9 4-.9 5.6 0 .8.2 1.3.4 1.4.1.1.5.4 1.9.4 1.7 0 5-.5 10.7-3.1l3.8-1.7 1.3 4 2.9 8.8 1.1 3.3-3.2 1.4c-7.2 3-13.4 4.5-18.7 4.5z"/>
  <path fill="url(#gradient)" d="M7.4 40.3v-2.4s.1 0 .1-.1c.2-4.8 1.5-8.4 3.4-11.6 1.9-3.1 4.3-5.9 8-7.1 2.1-.7 4.7-.6 6.6-.2 6 1.5 8.3 7 9 13.6-2.4.6-4.9 1.3-7.1 1.8-.3-3.4-.9-6.9-3.5-7.8-3.8-1.2-5.8 2.5-6.7 5-.9 2.6-2.1 7.3-.8 10.3 1.2 3 5 3.3 8.8 2.6 3.4-.7 6.1-1.9 9-3.1 1 2.9 1.9 5.9 2.9 8.8-2.7 1.2-5.7 2.3-8.9 3.1-3.2.8-6.8 1.6-10.7 1.1-3.6-.4-5.7-2.2-7.3-4.7-1.6-2.4-2.6-5.6-2.8-9.3z" transform="translate(14.4 .2)"/>
</svg>
