<svg xmlns="http://www.w3.org/2000/svg" viewBox="0 0 512 512">
  <path fill="#241e20" d="M0 0h512v512H0z"/>
  <g fill="#fefefe">
    <path d="M130.92 213.87c4.28-6.77 12.11-10.86 20.06-11.04 6.57-.55 12.83 1.98 18.32 5.35-1.56 3.23-3.08 6.47-4.44 9.79-4.31-3.07-9.29-6.15-14.83-5.32-7.27.89-12.53 8.2-12.01 15.35-.19 6.99 5 14.11 12.23 14.75 5.43.78 10.29-2.22 14.64-5.02 1.25 3.06 2.62 6.09 4.05 9.08-4.24 2.69-8.79 5.22-13.91 5.63-8.16 1.07-16.85-1.95-22.22-8.26-7.18-8.24-7.8-21.21-1.89-30.31zM192.38 203.47c8.83-2.07 18.76.44 25.09 7.06 9.03 9.22 8.87 25.54-.39 34.55-9.97 10.46-28.75 9.98-38.15-1.01-6.54-7.37-7.82-18.73-3.39-27.48 3.23-6.65 9.69-11.47 16.84-13.12m1.06 9.96c-7.86 2.57-11.23 12.24-8.52 19.66 2.32 7.46 11.05 11.64 18.38 9.06 8.46-2.6 11.99-13.22 8.44-20.93-2.72-7.02-11.37-10.5-18.3-7.79zM232.09 203.65c12.22-.05 24.45-.06 36.67.01-.01 3.19-.01 6.39 0 9.59-8.69.04-17.38.05-26.07-.01-.03 3.41-.03 6.82-.03 10.24 7.66.03 15.32 0 22.97-.01 0 3.21.01 6.41.03 9.63-7.66.07-15.32.02-22.97.05-.02 6.21-.04 12.43-.01 18.65-3.52-.03-7.05-.04-10.57-.04-.01-16.04.01-32.07-.02-48.11zM277.24 203.66c12.23-.08 24.46-.05 36.69-.01-.01 3.21-.01 6.41-.03 9.62-8.7.01-17.4 0-26.1.02-.02 3.39-.02 6.78-.01 10.17 7.67.04 15.34.03 23.01.02.02 3.23.02 6.46.03 9.69-7.69-.04-15.38-.05-23.06 0 .03 6.2 0 12.4.02 18.61-3.52 0-7.03.01-10.54.01.06-16.04.04-32.09-.01-48.13zM321.82 203.64c12.11-.03 24.22-.04 36.33-.01-.01 3.16-.01 6.32-.01 9.48-8.6-.02-17.2-.05-25.81.01.01 3.23 0 6.46-.02 9.69 7.6.04 15.2.03 22.8.03v9.38c-7.6.07-15.19.04-22.78.02.02 3.37.01 6.74 0 10.11 8.73.04 17.46.03 26.19 0-.02 3.14-.01 6.28.02 9.42-12.24 0-24.48-.03-36.72.03-.01-16.05-.02-32.11 0-48.16zM366.18 203.64c12.09-.04 24.17-.03 36.26 0 0 3.14-.01 6.28-.03 9.42-8.58.07-17.16.02-25.74.02-.04 3.25-.04 6.5-.02 9.75 7.57 0 15.14.02 22.71-.01 0 3.13-.01 6.27-.02 9.41-7.56.04-15.12.06-22.68-.01-.02 3.38-.03 6.75-.01 10.13 8.7.03 17.41.03 26.12 0 0 3.16 0 6.31.02 9.47-12.21-.1-24.42-.04-36.63-.05.05-16.04.02-32.09.02-48.13zM235.35 266.31c3.19-.02 6.39-.03 9.58-.06 6.86 15.97 13.7 31.94 20.35 48-3.57-.06-7.26.44-10.74-.54-1.94-3.14-3.06-6.69-4.46-10.08-6.7-.05-13.41-.06-20.12 0-1.43 3.52-2.89 7.04-4.29 10.57-3.56.06-7.12.08-10.67.09 6.77-16 13.59-31.98 20.35-47.98m-1.58 28.01c4.18.03 8.35.02 12.53-.03-1.99-5.08-4.02-10.16-6.23-15.15-2.26 4.99-4.32 10.07-6.3 15.18zM133.17 266.66c8.17.18 16.4-.67 24.51.51 7.19 1.1 13.07 7.57 13.09 14.91.45 5.68-2.06 11.69-7.05 14.69-5.95 3.88-13.36 3.14-20.12 3.29.02 4.71.03 9.42.03 14.13-3.48.04-6.96.07-10.45.09.03-15.87.05-31.75-.01-47.62m10.44 9.38c.01 4.86.01 9.71.01 14.57 4.03-.07 8.19.49 12.12-.66 5.42-1.6 6.18-10.33 1.07-12.77-4.15-1.77-8.82-.91-13.2-1.14zM178.29 266.65c3.5-.03 6.99-.03 10.48.01-.04 12.69-.04 25.38 0 38.08 7.47 0 14.94-.01 22.41 0 .01 3.18.01 6.35 0 9.53-10.96-.05-21.92.05-32.88-.06.01-15.85.01-31.71-.01-47.56zM271.21 266.59c3.89.39 9.18-1.47 11.6 2.59 6.8 8.74 13.18 17.81 20.2 26.38.28-9.64.12-19.29.14-28.94 3.42-.01 6.84-.01 10.27.01.06 15.9.05 31.81 0 47.71-3.49-.41-8.16 1.17-10.52-2.25-7.16-9.16-13.89-18.66-21.22-27.7-.33 9.94-.12 19.89-.13 29.84-3.43.02-6.86.03-10.28.03-.05-15.89.03-31.78-.06-47.67zM322.86 266.63c11.95-.02 23.91-.07 35.87.03-.02 3.08-.03 6.16-.03 9.25-8.48 0-16.96-.03-25.44.02 0 3.24-.02 6.48-.03 9.72 7.47-.05 14.95-.09 22.42.04-.01 3.04 0 6.08.03 9.13-7.48.09-14.96.02-22.43.08-.01 3.32-.01 6.65 0 9.98 8.56.05 17.12-.03 25.68.04.07 3.11.14 6.23.19 9.34-12.09-.02-24.18 0-36.26-.03-.03-15.87-.05-31.73 0-47.6zM366.24 266.67c12.28-.1 24.56-.07 36.84-.02.02 3.07.03 6.14.03 9.22-4.42.01-8.83 0-13.25 0-.04 12.8-.01 25.6-.03 38.4-3.47.01-6.95 0-10.42-.04.04-12.78.02-25.56.01-38.35-4.39 0-8.78 0-13.17-.05 0-3.05-.01-6.11-.01-9.16z"/>
  </g>
</svg>
