<svg xmlns="http://www.w3.org/2000/svg" viewBox="0 0 600 600">
	<circle cx="300" cy="300" r="300" fill="#FFF"/>
	<path fill="#8ABC00" d="M436.814 230.733c0-105.4-95.302-190.603-142.006-190.603-46.704 0-142.006 85.203-142.006 190.603 0 51.122 15.147 97.195 39.131 131.276 8.205 17.04 20.827 35.344 34.081 54.277 15.147 21.46 30.926 43.55 39.762 65.007-8.205 3.156-14.516 9.468-17.672 17.672 7.574 1.894 15.778 3.156 24.614 4.419 23.984 2.524 45.442 1.262 57.434-2.525-7.574 6.311-30.926 9.467-58.065 8.204-9.467-.63-18.303-1.893-25.876-3.155 0 1.893-.632 3.155-.632 5.049v39.13c0 17.672 13.886 22.09 31.557 22.09h43.549c17.04 0 31.557-4.418 31.557-22.09v-39.13c0-15.147-10.098-27.14-24.615-30.294 5.68-12.623 11.992-25.246 18.303-37.238l6.312-11.991 4.417-8.836c3.156-6.942 9.467-18.303 15.148-29.664h-.631c39.13-34.712 65.638-94.039 65.638-162.201zm-88.36 187.447l-4.417 8.835-6.312 11.992c-6.942 13.254-13.253 26.508-19.565 40.393h-19.565v-58.065h-8.836V479.4h-15.147c-8.836-22.721-25.246-46.073-41.024-68.163-4.418-5.68-8.205-11.992-11.992-17.672 21.459 17.672 46.704 27.77 73.843 27.77 22.09 0 42.917-6.942 61.22-18.303-3.155 4.418-5.68 9.467-8.204 15.147zm-1.893-15.147s44.18-48.598 58.065-117.392c-16.41 20.196-45.442 33.45-78.261 33.45-51.753 0-93.408-32.819-93.408-73.211 0-40.393 41.655-73.844 93.408-73.844 32.188 0 60.59 12.623 76.998 32.189C376.225 91.882 254.415 64.112 254.415 64.112s7.574-9.467 23.983-14.516c13.886-3.787 20.828-3.156 29.664-.631 10.098 3.156 118.022 63.114 118.022 177.35-.63 115.497-79.523 176.717-79.523 176.717z"/>
	<path fill="#8ABC00" d="M333.307 221.897c10.73 0 18.303 4.417 26.508 4.417 8.205 0 12.623-6.31 12.623-10.728 0-10.73-27.77-13.886-40.393-13.886-35.343 0-59.958 20.828-59.958 43.549 0 23.352 23.983 42.917 59.958 42.917 11.992 0 40.393-3.787 40.393-15.147 0-5.049-6.312-9.467-14.517-9.467-3.786 0-16.409 4.418-24.614 4.418-18.303 0-27.77-11.36-27.77-22.72-.63-11.993 8.836-23.353 27.77-23.353z"/>
</svg>
