<svg version="1.1" xmlns="http://www.w3.org/2000/svg" viewBox="0 0 64 64">
	<circle fill="#77B3D4" cx="32" cy="32" r="32"/>
	<path fill="#231F20" d="M52,45c0,2.2-1.8,4-4,4H16c-2.2,0-4-1.8-4-4V25c0-2.2,1.8-4,4-4h32c2.2,0,4,1.8,4,4V45z"/>
	<path fill="#fff" d="M52,43c0,2.2-1.8,4-4,4H16c-2.2,0-4-1.8-4-4V23c0-2.2,1.8-4,4-4h32c2.2,0,4,1.8,4,4V43z"/>
	<rect fill="#4F5D73" x="12" y="25" width="40" height="6"/>
	<circle fill="#E0995E" cx="38" cy="41" r="2"/>
	<circle fill="#E0995E" cx="46" cy="41" r="2"/>
	<circle fill="#E0995E" cx="30" cy="41" r="2"/>
</svg>
