<svg xmlns="http://www.w3.org/2000/svg" viewBox="0 0 400 400">
  <circle cx="200" cy="200" r="200" fill="#fff"/>
  <path fill="#B51474" d="M200 82.4c2.48-.08 5.04-.16 7.52-.16h98.88c8.48 0 13.2 4.72 13.2 13.28V308c0 1.04.08 2.16-.08 3.2-.32 2.56-.8 5.52-3.12 6.4-1.68.64-2.88-2.24-4.08-3.6-36.4-40.72-72.8-81.52-109.28-122.24-.96-1.04-1.36-3.44-3.76-2.48.72-6.8.64-13.68.64-20.56v-35.28c-.08-16.96 0-34 .08-51.04z"/>
  <path fill="#043859" d="M200 82.4c-.08 17.04-.08 34.08-.16 51.04v35.28c0 6.88.08 13.68-.64 20.56-37.6 42.08-75.2 84.16-112.88 126.32-2.8 3.12-3.44 2.96-5.04-1.04-.72-1.76-.88-3.52-.88-5.44V94.72c0-7.36 4.88-12.48 12-12.48h106.4c.4 0 .8.08 1.2.16z"/>
</svg>
