<svg xmlns="http://www.w3.org/2000/svg" viewBox="0 0 283 283">
  <rect width="283" height="283" fill="#fff" rx="25"/>
  <path fill="#003A5D" d="M144.25 29.6c20-.56 40.12 6.07 55.73 18.61 12.27 9.77 21.95 22.93 27.16 37.75-7.57 4.02-15.06 8.17-22.62 12.2-3.9-13.25-12.55-25.02-23.98-32.77-10.1-6.91-22.36-10.63-34.61-10.42-22.33.02-44.66-.02-66.99.02.01 31.14 0 62.27.01 93.4 33.31-11.94 66.63-23.89 99.94-35.84 2.05-.72 4.06-1.63 6.23-1.92-1.12.48-2.23.97-3.29 1.55-39.52 21.11-79.04 42.22-118.58 63.29-3.14 1.74-6.37 3.31-9.46 5.13-.43-2.72-.22-118.46-.24-150.97 30.22-.06 60.46-.01 90.7-.03zM207.04 128.21c8.27-8.06 16.34-16.31 24.6-24.38.32 3.53.78 7.06.74 10.62.01 28.92-.01 57.85.01 86.77.03 8.93-3.02 17.83-8.51 24.87-6.37 8.3-16.1 13.95-26.47 15.34-3.32.54-6.69.35-10.04.39-26.46-.01-52.94.02-79.4-.01 24.48-29.58 48.88-59.21 73.4-88.75-10.3 21.08-20.51 42.21-30.63 63.38 13.88.02 27.76.02 41.64 0 7.77-.09 14.59-7.03 14.64-14.79.05-24.48 0-48.96.02-73.44z"/>
  <path fill="#00A551" d="M234.75 88.44c-54.3 51.08-108.53 102.24-162.78 153.38-6.14-.03-12.28.03-18.42-.03.07-12.28-.04-24.56.03-36.83.18-.53 159.55-102.86 181.17-116.52z"/>
</svg>
