<svg xmlns="http://www.w3.org/2000/svg" viewBox="0 0 284 284">
  <rect width="284" height="200" fill="#e8e8e8" rx="35"/>
  <path fill="#ec0016" d="M0 93h284v165H0z"/>
  <rect width="284" height="50" y="234" fill="#ec0016" rx="35"/>
  <path fill="#fff" d="M113.8 22.1h63.3v43.8h-63.3z"/>
  <path fill="#ec0016" d="M174.3 18.9c4 0 7.3 3.2 7.3 7.3v36.4c0 4-3.2 7.3-7.3 7.3h-58c-4 0-7.3-3.2-7.3-7.3V26.2c0-2 .8-3.8 2.2-5.1 1.4-1.4 3.2-2.1 5.1-2.1h58zm0 5.2h-58c-.6 0-1.1.2-1.4.6-.4.4-.6.9-.6 1.5v36.4c0 .6.2 1.1.6 1.4.4.4.9.6 1.4.6h58c.5 0 1-.3 1.4-.6.4-.4.6-.9.6-1.4V26.2c.1-.6-.2-1.1-.5-1.5-.4-.4-.9-.6-1.5-.6zm-43.1 3.6c8.6 0 13.3 5.4 13.3 16.5 0 9.7-3.2 16.7-13.3 16.8H119V27.7h12.2zm30.7 0c9.2 0 9.5 7.2 9.5 8.1v.1c-.1 3.6-2.4 6.7-5.8 7.8 6.1 1.3 7 5.7 7 8.1 0 9.2-9.3 9.4-12.6 9.4h-12V27.7h13.9zM128.6 33H127v22.7h2.8c4.2 0 6.7-3.4 6.7-10.7 0-6.8-.8-12-7.9-12zm30.8 14.1h-3.5v8.5h3.4c1.4 0 5.3-.1 5.3-4.3 0-1.7-1-4.2-5.2-4.2zm-1-14.2h-2.5v8h3.1c2.8 0 4.4-1.9 4.4-4 0-2.8-1.4-4-5-4z"/>
  <circle cx="172" cy="153" r="31" fill="none" stroke="#fff" stroke-width="7"/>
  <ellipse cx="172" cy="153" fill="none" stroke="#fff" stroke-width="7" rx="12" ry="30"/>
  <path stroke="#fff" stroke-width="7" fill="none" stroke-linecap="round" d="M126.942 142.169h-11.1c-11.1 0-20.1 9-20.1 20.1v51.4c0 9.9 8.1 18 18 18h24.6c9.9 0 18-8.1 18-18v-16.9"/>
  <path stroke="#fff" stroke-width="7" fill="none" stroke-linecap="round" d="M125.142 157.769h-7.9c-3.3 0-6 2.7-6 6v.4l1.7 29.7c.2 3.2 2.8 5.7 6 5.7h14.1c3 0 5.6-2.3 6-5.3l1.2-9.4m-25.3 42c5 .4 8.9.6 11.4.6s6.1-.2 10.8-.6m-25.8-12.6h5.4m18.7 0h5.4"/>
  <path stroke="#fff" stroke-width="7" d="M140.842 152.969h62.2"/>
</svg>
