<svg version="1.1" xmlns="http://www.w3.org/2000/svg" xmlns:xlink="http://www.w3.org/1999/xlink" viewBox="0 0 512 512">
	<path fill="#e8e8e8" d="M512,176.08v-59.28C512,52.56,459.44,0,395.19,0H116.81C52.56,0,0,52.56,0,116.81v59.28H512z" />
	<path fill="#ec0016" d="M0,176.08v219.11C0,459.44,52.56,512,116.81,512h278.39C459.44,512,512,459.44,512,395.19V176.08H0z" />
	<path fill="#FFF" d="M312.65,43.41H199.74c-1.17,0-2.14,0.39-2.73,1.17c-0.78,0.78-1.17,1.75-1.17,2.92l0,0v70.86 c0,1.17,0.39,2.14,1.17,2.73c0.78,0.78,1.75,1.17,2.73,1.17l0,0h112.91c0.97,0,1.95-0.58,2.73-1.17c0.78-0.78,1.17-1.75,1.17-2.73l0,0V47.5c0.19-1.17-0.39-2.14-0.97-2.92C314.79,43.8,313.82,43.41,312.65,43.41L312.65,43.41z" />
	<path fill="#ec0016" d="M312.65,33.29c7.79,0,14.21,6.23,14.21,14.21l0,0v70.86c0,7.79-6.23,14.21-14.21,14.21l0,0H199.74c-7.79,0-14.21-6.23-14.21-14.21l0,0V47.5c0-3.89,1.56-7.4,4.28-9.93c2.73-2.73,6.23-4.09,9.93-4.09l0,0h112.91V33.29z M312.65,43.41H199.74c-1.17,0-2.14,0.39-2.73,1.17c-0.78,0.78-1.17,1.75-1.17,2.92l0,0v70.86c0,1.17,0.39,2.14,1.17,2.73c0.78,0.78,1.75,1.17,2.73,1.17l0,0h112.91c0.97,0,1.95-0.58,2.73-1.17c0.78-0.78,1.17-1.75,1.17-2.73l0,0V47.5c0.19-1.17-0.39-2.14-0.97-2.92C314.79,43.8,313.82,43.41,312.65,43.41L312.65,43.41z" />
	<path fill="#ec0016" d="M228.75,50.42c16.74,0,25.89,10.51,25.89,32.12c0,18.88-6.23,32.51-25.89,32.71h-23.75V50.42H228.75z M223.68,60.74h-3.11v44.19h5.45c8.18,0,13.04-6.62,13.04-20.83C239.06,70.86,237.51,60.74,223.68,60.74z" />
	<path fill="#ec0016" d="M288.51,50.42c17.91,0,18.49,14.02,18.49,15.77v0.19c-0.19,7.01-4.67,13.04-11.29,15.18c11.88,2.53,13.63,11.1,13.63,15.77c0,17.91-18.1,18.3-24.53,18.3h-23.36V50.42H288.51z M283.64,88.19h-6.81v16.55h6.62c2.73,0,10.32-0.19,10.32-8.37C293.77,93.06,291.82,88.19,283.64,88.19L283.64,88.19z M281.7,60.54h-4.87v15.57h6.04c5.45,0,8.57-3.7,8.57-7.79C291.43,62.88,288.71,60.54,281.7,60.54L281.7,60.54z" />
	<path fill="#FFF" d="M232.33,391.86h-27.45c-9.77,0-17.9-7.7-18.52-17.52l-3.32-59.03c0-10.22,8.31-18.53,18.53-18.53h15.38c3.78,0,6.85,3.07,6.85,6.85c0,3.78-3.07,6.85-6.85,6.85h-15.38c-2.66,0-4.83,2.17-4.83,4.83v0.58l3.3,57.62c0.16,2.63,2.25,4.64,4.84,4.64h27.45c2.42,0,4.56-1.92,4.89-4.37l2.33-18.26c0.48-3.75,3.91-6.41,7.66-5.93c3.75,0.48,6.41,3.91,5.93,7.66l-2.34,18.3C249.57,384.87,241.62,391.86,232.33,391.86z" />
	<path fill="#FFF" d="M277.69,372.71c-3.78,0-6.85,3.07-6.85,6.85v32.9c0,14.13-10.46,25.83-24.03,27.85c0.28-0.85,0.4-1.78,0.32-2.73c-0.32-3.77-3.64-6.56-7.4-6.25c-8.92,0.76-15.8,1.14-20.44,1.14c-4.78,0-12.27-0.4-21.65-1.15c-3.78-0.27-7.07,2.51-7.37,6.28c-0.08,0.94,0.04,1.85,0.32,2.7c-13.57-2.03-24.02-13.72-24.02-27.85V312.4c0-17.8,14.48-32.28,32.28-32.28h21.61c3.78,0,6.85-3.07,6.85-6.85s-3.07-6.85-6.85-6.85h-21.61c-25.35,0-45.98,20.63-45.98,45.98v100.06c0,23.1,18.79,41.89,41.89,41.89h47.89c23.1,0,41.89-18.79,41.89-41.89v-32.9C284.54,375.78,281.47,372.71,277.69,372.71z" />
	<path fill="#FFF" d="M200.6,420.48h-10.51c-3.78,0-6.85-3.07-6.85-6.85s3.07-6.85,6.85-6.85h10.51c3.78,0,6.85,3.07,6.85,6.85S204.38,420.48,200.6,420.48z" />
	<path fill="#FFF" d="M247.52,420.48H237c-3.78,0-6.85-3.07-6.85-6.85s3.07-6.85,6.85-6.85h10.51c3.78,0,6.85,3.07,6.85,6.85S251.3,420.48,247.52,420.48z" />
	<path fill="#FFF" d="M308.26,226.51c-37.38,0-67.78,30.41-67.78,67.78c0,37.38,30.41,67.78,67.78,67.78s67.78-30.41,67.78-67.78C376.04,256.92,345.63,226.51,308.26,226.51z M361.89,287.44h-23.37c-0.72-18.67-4.36-33.09-9.52-43.09C346.53,251.66,359.41,267.95,361.89,287.44z M308.26,347.21c-5.28,0-15.2-16.2-16.54-46.07h33.09C323.45,331,313.53,347.21,308.26,347.21z M291.71,287.44c1.35-29.86,11.26-46.07,16.54-46.07c5.28,0,15.2,16.21,16.54,46.07H291.71z M287.51,244.35c-5.16,10-8.81,24.42-9.52,43.09h-23.37C257.1,267.95,269.97,251.66,287.51,244.35z M254.62,301.14h23.37c0.72,18.67,4.36,33.09,9.52,43.09C269.97,336.92,257.1,320.63,254.62,301.14z M329,344.23c5.16-10,8.8-24.42,9.52-43.09h23.37C359.41,320.63,346.53,336.92,329,344.23z" />
</svg>