<svg xmlns="http://www.w3.org/2000/svg" viewBox="0 0 60 60">
  <linearGradient id="a" x1="-1.274" x2="68.114" y1="5.51" y2="74.874" gradientTransform="matrix(1 0 0 -1 0 62)" gradientUnits="userSpaceOnUse">
    <stop offset="0" stop-color="#00346c"/>
    <stop offset=".3" stop-color="#753bbd"/>
    <stop offset=".6" stop-color="#00a9ce"/>
  </linearGradient>
  <linearGradient id="b" x1="18.335" x2="87.7" y1="-14.076" y2="55.288" gradientTransform="matrix(1 0 0 -1 0 62)" gradientUnits="userSpaceOnUse">
    <stop offset="0" stop-color="#00346c"/>
    <stop offset=".3" stop-color="#753bbd"/>
    <stop offset=".6" stop-color="#00a9ce"/>
  </linearGradient>
  <linearGradient id="c" x1="18.529" x2="87.894" y1="-14.271" y2="55.094" gradientTransform="matrix(1 0 0 -1 0 62)" gradientUnits="userSpaceOnUse">
    <stop offset="0" stop-color="#00346c"/>
    <stop offset=".3" stop-color="#753bbd"/>
    <stop offset=".6" stop-color="#00a9ce"/>
  </linearGradient>
  <linearGradient id="d" x1="1.129" x2="70.494" y1="3.129" y2="72.494" gradientTransform="matrix(1 0 0 -1 0 62)" gradientUnits="userSpaceOnUse">
    <stop offset="0" stop-color="#00346c"/>
    <stop offset=".3" stop-color="#753bbd"/>
    <stop offset=".6" stop-color="#00a9ce"/>
  </linearGradient>
  <rect width="59" height="60" rx="15%" fill="#fff" />
  <path fill="url(#a)" d="M21 28.9c-2.9 0-5.3 2.4-5.2 5.3s2.4 5.3 5.3 5.2c2.9 0 5.2-2.4 5.2-5.3s-2.4-5.2-5.3-5.2z"/>
  <path fill="url(#b)" d="M49.9 44.3h-.3v.6h.3c.2 0 .3-.1.3-.3 0-.2-.1-.3-.3-.3z"/>
  <path fill="url(#c)" d="M49.9 43.6c-.8 0-1.4.6-1.4 1.4s.6 1.4 1.4 1.4 1.4-.6 1.4-1.4-.7-1.4-1.4-1.4zm.3 2.3l-.4-.8h-.2v.8h-.4V44h.8c.3 0 .6.2.6.6 0 .2-.2.4-.4.5l.4.8h-.4z"/>
  <path fill="url(#d)" d="M53.7 0H6.3C2.8 0 0 2.8 0 6.3v47.3C0 57.2 2.8 60 6.3 60h47.3c3.5 0 6.3-2.8 6.3-6.3V6.3C60 2.8 57.2 0 53.7 0zm-3.8 46.7c-1 0-1.7-.8-1.7-1.7s.8-1.7 1.7-1.7c1 0 1.7.8 1.7 1.7s-.8 1.7-1.7 1.7zm-10.9 0c-3.4 0-6.6-1.3-9-3.7-2.4 2.4-5.6 3.7-9 3.7-6.9.3-12.7-5.1-13-12s5.1-12.7 12-13h1.1c1.8 0 3.7.4 5.3 1.2V17c.2-2 1.9-3.5 3.9-3.3 1.8.1 3.2 1.6 3.3 3.3v17.2c.2 3 2.8 5.2 5.7 5 2.7-.2 4.8-2.3 5-5v-4.6c.2-2 1.9-3.5 3.9-3.3 1.8.1 3.2 1.6 3.3 3.3v4.6c.1 6.9-5.6 12.5-12.5 12.5z"/>
</svg>
