<svg xmlns="http://www.w3.org/2000/svg" width="36" height="36" viewBox="0 0 36 36">
  <defs>
    <linearGradient id="a" x1="0%" x2="100%" y1="100%" y2="0%">
      <stop offset="0%" stop-color="#00205B"/>
      <stop offset="33.843%" stop-color="#753BBD"/>
      <stop offset="67.686%" stop-color="#00A9CE"/>
      <stop offset="100%" stop-color="#00A9CE"/>
    </linearGradient>
  </defs>
  <rect width="36" height="36" rx="15%" fill="#fff" />
  <path fill="url(#a)" d="M32.2 0l.196.005A3.805 3.805 0 0 1 36 3.8v28.4l-.005.195A3.804 3.804 0 0 1 32.2 36H3.8l-.195-.005A3.805 3.805 0 0 1 0 32.2V3.8l.005-.195A3.805 3.805 0 0 1 3.8 0h28.4zm-.064.965H3.794L3.622.97A2.833 2.833 0 0 0 .965 3.794v28.342c0 1.56 1.27 2.829 2.83 2.829h28.341l.172-.005a2.833 2.833 0 0 0 2.657-2.824V3.794l-.005-.172A2.833 2.833 0 0 0 32.136.965zm-14.097 7.12l.155.006a2.168 2.168 0 0 1 2.025 2.156v10.346l.006.18c.095 1.673 1.505 2.994 3.213 2.994l.182-.005c1.685-.093 3.022-1.473 3.023-3.17v-2.746l.005-.154a2.176 2.176 0 0 1 2.176-2.007l.154.006a2.174 2.174 0 0 1 2.023 2.155l.002 2.747-.004.243c-.131 4.033-3.467 7.259-7.561 7.259l-.315-.006a7.59 7.59 0 0 1-5.075-2.228l-.21.202a7.59 7.59 0 0 1-5.181 2.032l-.245-.004c-4.068-.128-7.318-3.435-7.318-7.498l.004-.243c.13-4.034 3.46-7.26 7.559-7.26l.341.007a7.49 7.49 0 0 1 2.863.697v-3.547a2.17 2.17 0 0 1 2.178-2.161zm11.913 17.926c.581 0 1.051.463 1.051 1.04s-.47 1.043-1.05 1.043c-.578 0-1.05-.466-1.05-1.044 0-.576.472-1.039 1.05-1.039zm0 .208a.834.834 0 1 0 0 1.668.842.842 0 0 0 .62-.272h-.265l-.284-.446h-.175v.446h-.259v-1.126h.52c.264 0 .448.16.448.347 0 .159-.123.26-.27.303l.296.465a.83.83 0 0 0-.63-1.385zm.122.447h-.226v.338h.226c.139 0 .233-.076.233-.168 0-.096-.094-.17-.233-.17zm-17.417-9.253l-.182.006c-1.684.093-3.021 1.477-3.021 3.174 0 1.757 1.434 3.174 3.203 3.174l.182-.005c1.685-.093 3.022-1.473 3.022-3.17l-.005-.18c-.095-1.673-1.49-2.999-3.2-2.999z"/>
</svg>
