<svg xmlns="http://www.w3.org/2000/svg" xmlns:xlink="http://www.w3.org/1999/xlink" viewBox="0 0 80 80">
  <defs>
    <path id="SVGID_1_" d="M44.5 8.3c1.1 2.3 1.9 4.8 2.6 7.3 2.2 1.4 4.4 3.1 6.2 4.8-1-2.3-2.3-4.5-3.8-6.6-1.5-2-3.2-3.9-5-5.5z"/>
    <path id="SVGID_4_" d="M50.9 24.9c2.5 4.8 4.1 9.6 4.8 13.8.9-6.4.1-12.5-2.4-18.3-.6 1.6-1.4 3-2.4 4.5"/>
    <path id="SVGID_7_" d="M27.5.4c3.8 1.9 8 5 11.9 8.8 1.7-.5 3.5-.8 5.1-.9C39.4 4 33.6 1.4 27.5.4z"/>
    <path id="SVGID_10_" d="M5.8 46s8.7 1.9 21.1 3.3c2-9.7 2.8-19.7 2.8-20.7-8.1-2-16.4-3.3-20.7-3.6-2.4 11.9-3.2 20.5-3.2 21"/>
    <path id="SVGID_19_" d="M26.8 49.3l9.1 12.4c6.6-5 11-10.2 12-11.4-1.8-4.3-4-8.9-6.8-13.6-8.1 8-13.2 11.8-14.3 12.6"/>
    <path id="SVGID_13_" d="M0 12.7L8.9 25c.1-.2 7.8-5.5 16.3-10-3.6-4-7.1-7.4-10.9-10.7-4.8 2.3-9 4.4-14.3 8.4"/>
    <path id="SVGID_16_" d="M15.7.6c-.5 1.2-.9 2.5-1.3 3.7 0 0 7.1 1.1 14.7 3.4-.3-2.8-1.2-6.5-1.5-7.3C25.8.1 24 0 22.1 0c-2.1 0-4.3.2-6.4.6"/>
    <path id="SVGID_22_" d="M48 50.3c1.3 0 2.1 0 3.4-.1 1.9-3.5 3.2-6.6 4.3-11.5 0 0-4.2-2.3-6.5-3.4-.1 6.3-.8 12.4-1.2 15"/>
  </defs>
  <clipPath id="SVGID_2_">
    <use overflow="visible" xlink:href="#SVGID_1_"/>
  </clipPath>
  <clipPath id="SVGID_5_">
    <use overflow="visible" xlink:href="#SVGID_4_"/>
  </clipPath>
  <clipPath id="SVGID_8_">
    <use overflow="visible" xlink:href="#SVGID_7_"/>
  </clipPath>
  <clipPath id="SVGID_11_">
    <use overflow="visible" xlink:href="#SVGID_10_"/>
  </clipPath>
  <clipPath id="SVGID_14_">
    <use overflow="visible" xlink:href="#SVGID_13_"/>
  </clipPath>
  <clipPath id="SVGID_17_">
    <use overflow="visible" xlink:href="#SVGID_16_"/>
  </clipPath>
  <clipPath id="SVGID_20_">
    <use overflow="visible" xlink:href="#SVGID_19_"/>
  </clipPath>
  <clipPath id="SVGID_23_">
    <use overflow="visible" xlink:href="#SVGID_22_"/>
  </clipPath>
  <radialGradient id="SVGID_3_" cx="-328.556" cy="328.705" r="1.51" gradientTransform="matrix(37.9278 0 0 -37.9277 12517.31 12470.938)" gradientUnits="userSpaceOnUse">
    <stop offset="0" stop-color="#3cb3e6"/>
    <stop offset=".172" stop-color="#3cb3e6"/>
    <stop offset=".246" stop-color="#309fd8"/>
    <stop offset=".413" stop-color="#1877bc"/>
    <stop offset=".545" stop-color="#095eaa"/>
    <stop offset=".626" stop-color="#0455a4"/>
    <stop offset=".748" stop-color="#0c478c"/>
    <stop offset=".957" stop-color="#1d2b5b"/>
    <stop offset="1" stop-color="#1d2b5b"/>
  </radialGradient>
  <radialGradient id="SVGID_6_" cx="-328.548" cy="328.712" r="1.505" gradientTransform="matrix(37.9273 0 0 -37.9272 12516.874 12471.049)" gradientUnits="userSpaceOnUse">
    <stop offset="0" stop-color="#3cb3e6"/>
    <stop offset=".172" stop-color="#3cb3e6"/>
    <stop offset=".246" stop-color="#309fd8"/>
    <stop offset=".413" stop-color="#1877bc"/>
    <stop offset=".545" stop-color="#095eaa"/>
    <stop offset=".626" stop-color="#0455a4"/>
    <stop offset=".748" stop-color="#0c478c"/>
    <stop offset=".957" stop-color="#1d2b5b"/>
    <stop offset="1" stop-color="#1d2b5b"/>
  </radialGradient>
  <radialGradient id="SVGID_9_" cx="-328.55" cy="328.71" r="1.508" gradientTransform="matrix(37.9274 0 0 -37.9273 12517.006 12470.983)" gradientUnits="userSpaceOnUse">
    <stop offset="0" stop-color="#3cb3e6"/>
    <stop offset=".172" stop-color="#3cb3e6"/>
    <stop offset=".246" stop-color="#309fd8"/>
    <stop offset=".413" stop-color="#1877bc"/>
    <stop offset=".545" stop-color="#095eaa"/>
    <stop offset=".626" stop-color="#0455a4"/>
    <stop offset=".748" stop-color="#0c478c"/>
    <stop offset=".957" stop-color="#1d2b5b"/>
    <stop offset="1" stop-color="#1d2b5b"/>
  </radialGradient>
  <radialGradient id="SVGID_12_" cx="-328.543" cy="328.716" r="1.507" gradientTransform="matrix(37.9276 0 0 -37.9275 12516.846 12471.32)" gradientUnits="userSpaceOnUse">
    <stop offset="0" stop-color="#3cb3e6"/>
    <stop offset=".172" stop-color="#3cb3e6"/>
    <stop offset=".246" stop-color="#309fd8"/>
    <stop offset=".413" stop-color="#1877bc"/>
    <stop offset=".545" stop-color="#095eaa"/>
    <stop offset=".626" stop-color="#0455a4"/>
    <stop offset=".748" stop-color="#0c478c"/>
    <stop offset=".957" stop-color="#1d2b5b"/>
    <stop offset="1" stop-color="#1d2b5b"/>
  </radialGradient>
  <radialGradient id="SVGID_15_" cx="-328.542" cy="328.721" r="1.506" gradientTransform="matrix(37.9272 0 0 -37.9271 12516.564 12471.365)" gradientUnits="userSpaceOnUse">
    <stop offset="0" stop-color="#3cb3e6"/>
    <stop offset=".172" stop-color="#3cb3e6"/>
    <stop offset=".246" stop-color="#309fd8"/>
    <stop offset=".413" stop-color="#1877bc"/>
    <stop offset=".545" stop-color="#095eaa"/>
    <stop offset=".626" stop-color="#0455a4"/>
    <stop offset=".748" stop-color="#0c478c"/>
    <stop offset=".957" stop-color="#1d2b5b"/>
    <stop offset="1" stop-color="#1d2b5b"/>
  </radialGradient>
  <radialGradient id="SVGID_18_" cx="-328.535" cy="328.702" r="1.509" gradientTransform="matrix(37.9275 0 0 -37.9275 12516.494 12470.758)" gradientUnits="userSpaceOnUse">
    <stop offset="0" stop-color="#3cb3e6"/>
    <stop offset=".172" stop-color="#3cb3e6"/>
    <stop offset=".246" stop-color="#309fd8"/>
    <stop offset=".413" stop-color="#1877bc"/>
    <stop offset=".545" stop-color="#095eaa"/>
    <stop offset=".626" stop-color="#0455a4"/>
    <stop offset=".748" stop-color="#0c478c"/>
    <stop offset=".957" stop-color="#1d2b5b"/>
    <stop offset="1" stop-color="#1d2b5b"/>
  </radialGradient>
  <radialGradient id="SVGID_21_" cx="-328.549" cy="328.712" r="1.508" gradientTransform="matrix(37.9283 0 0 -37.9282 12517.267 12471.327)" gradientUnits="userSpaceOnUse">
    <stop offset="0" stop-color="#3cb3e6"/>
    <stop offset=".172" stop-color="#3cb3e6"/>
    <stop offset=".246" stop-color="#309fd8"/>
    <stop offset=".413" stop-color="#1877bc"/>
    <stop offset=".545" stop-color="#095eaa"/>
    <stop offset=".626" stop-color="#0455a4"/>
    <stop offset=".748" stop-color="#0c478c"/>
    <stop offset=".957" stop-color="#1d2b5b"/>
    <stop offset="1" stop-color="#1d2b5b"/>
  </radialGradient>
  <radialGradient id="SVGID_24_" cx="-328.548" cy="328.713" r="1.508" gradientTransform="matrix(37.9269 0 0 -37.9268 12516.8 12470.897)" gradientUnits="userSpaceOnUse">
    <stop offset="0" stop-color="#3cb3e6"/>
    <stop offset=".172" stop-color="#3cb3e6"/>
    <stop offset=".246" stop-color="#309fd8"/>
    <stop offset=".413" stop-color="#1877bc"/>
    <stop offset=".545" stop-color="#095eaa"/>
    <stop offset=".626" stop-color="#0455a4"/>
    <stop offset=".748" stop-color="#0c478c"/>
    <stop offset=".957" stop-color="#1d2b5b"/>
    <stop offset="1" stop-color="#1d2b5b"/>
  </radialGradient>
  <circle cx="40" cy="40" r="40" fill="#fff" />
  <g transform="translate(12 10)">
  <path fill="#0455a4" d="M48 20c-.7-1.1-1.5-2.2-2.3-3.3-.8-1.1-1.6-2.2-2.5-3.2-2.3-1.2-4.6-2.2-6.9-3.1-2.2.7-4.5 1.7-6.7 2.7.2 2.5.3 5 .3 7.5 1.3 1.6 2.6 3.3 3.9 5 1.3 1.8 2.6 3.6 3.8 5.4 2.4.7 4.7 1.5 6.9 2.4 1.6-1.8 3.2-3.7 4.6-5.5-.4-2.8-.7-5.4-1.1-7.9"/>
  <path d="M14.4 4.3C18.2 7.6 21.6 11 25.3 15c1.4-.7 2.9-1.4 4.3-2.1-.1-1.7-.3-3.5-.6-5.2-7.6-2.3-14.6-3.4-14.6-3.4M25.3 15C16.6 19.4 9 24.9 8.9 25c4.2.3 12.6 1.6 20.7 3.6.2-2.7.3-5.5.3-8.2-1.5-1.9-3.1-3.7-4.6-5.4" fill="#fff"/>
  <path d="M29.6 28.6c0 1-.7 11-2.8 20.7 1.1-.8 6.2-4.6 14.4-12.6-1.1-1.9-2.4-3.9-3.7-5.9-2.6-.8-5.3-1.6-7.9-2.2m11.6 8.1c2.7 4.7 5 9.3 6.8 13.6.4-2.5 1.2-8.7 1.2-15-1.5-.7-3.2-1.4-4.8-2-1.1 1.1-2.2 2.3-3.2 3.4m3.3-28.4c-1.6.2-3.3.5-5.1.9 1.3 1.3 2.6 2.7 3.8 4.1 1.3.7 2.7 1.5 3.9 2.2-.7-2.4-1.6-4.9-2.6-7.2m11.2 30.4c-.6-4.3-2.2-9-4.8-13.8-.6.9-1.3 1.9-2 2.8.2 2.6.3 5.2.3 7.6 2.3 1 6.5 3.4 6.5 3.4m-2.4-18.3c-1.9-1.7-4-3.4-6.2-4.8.4 1.4.6 2.9.9 4.3 1 1.6 2.1 3.3 3 4.9.9-1.4 1.7-2.8 2.3-4.4" fill="#fff"/>
  <path d="M29.9 20.4c0 2.7-.1 5.5-.3 8.2 2.6.7 5.3 1.4 7.9 2.2-1.2-1.8-2.5-3.6-3.8-5.4-1.2-1.7-2.5-3.4-3.8-5m11.3 16.3c1.1-1.1 2.1-2.3 3.2-3.5-2.2-.9-4.5-1.7-6.9-2.4 1.3 2 2.5 4 3.7 5.9" fill="#3cb3e6"/>
  <path d="M48.9 27.7c-1.4 1.9-2.9 3.7-4.6 5.5 1.6.6 3.3 1.3 4.8 2 .1-2.3 0-4.9-.2-7.5M48 20c.5 2.6.8 5.2.9 7.7.7-.9 1.4-1.9 2-2.8-.8-1.6-1.9-3.3-2.9-4.9m0 0c-.3-1.4-.5-3-.9-4.3-1.2-.8-2.6-1.6-3.9-2.2.9 1 1.7 2.1 2.5 3.2.8 1 1.6 2.2 2.3 3.3M29 7.7c.2 1.7.4 3.4.6 5.2 2.2-1 4.5-1.9 6.7-2.7-2.4-.9-4.9-1.8-7.3-2.5M25.3 15c1.5 1.7 3.1 3.5 4.6 5.4 0-2.5-.1-5-.3-7.5-1.5.7-2.9 1.4-4.3 2.1m14.1-5.7c-1 .3-2.1.6-3.1 1 2.3.9 4.7 2 6.9 3.1-1.2-1.5-2.5-2.9-3.8-4.1" fill="#3cb3e6"/>
  <path d="M29 7.7c2.3.7 4.8 1.6 7.3 2.5 1-.4 2.1-.7 3.1-1-3.9-3.9-8.1-6.9-11.9-8.8.3.9 1.2 4.6 1.5 7.3" fill="#fff"/>
  <path fill="url(#SVGID_3_)" d="M44.5 8.3h8.8v12.1h-8.8z" clip-path="url(#SVGID_2_)"/>
  <path fill="url(#SVGID_6_)" d="M50.9 20.4h5.6v18.3h-5.6z" clip-path="url(#SVGID_5_)"/>
  <path fill="url(#SVGID_9_)" d="M27.5.4h16.9v8.8H27.5z" clip-path="url(#SVGID_8_)"/>
  <path fill="url(#SVGID_12_)" d="M5.8 25h23.8v24.3H5.8z" clip-path="url(#SVGID_11_)"/>
  <path fill="url(#SVGID_15_)" d="M0 4.3h25.3v20.6H0z" clip-path="url(#SVGID_14_)"/>
  <path fill="url(#SVGID_18_)" d="M14.4 0h14.7v7.7H14.4z" clip-path="url(#SVGID_17_)"/>
  <path fill="url(#SVGID_21_)" d="M26.8 36.7h21.1v25H26.8z" clip-path="url(#SVGID_20_)"/>
  <path fill="url(#SVGID_24_)" d="M48 35.3h7.7v15H48z" clip-path="url(#SVGID_23_)"/>
  </g>
</svg>
