<svg xmlns="http://www.w3.org/2000/svg" viewBox="0 0 150 150">
    <circle cx="75" cy="75" r="75" fill="#fff"/>
    <path fill="#212223" d="M75 74.3s-6.8 0-8.7 1.2C64 77 62.6 79 62.6 81.7c0 2.5.8 22.2 1.1 24.2.3 1.9 2.3.7 3.2 5.6.9 4.9 2.9 25.9 3.4 26.5.7.8 4 1.3 4.8 1.3.8 0 4-.6 4.8-1.3.5-.5 2.6-21.5 3.4-26.5.9-4.9 2.9-3.6 3.2-5.6.3-1.9 1.1-21.7 1.1-24.2 0-2.6-1.4-4.6-3.7-6.1-1.8-1.2-7.8-1.2-8.7-1.2h-.3M83.6 63.2c0 4.6-3.7 8.3-8.3 8.3-4.6 0-8.3-3.7-8.3-8.3 0-4.6 3.7-8.3 8.3-8.3 4.6 0 8.3 3.7 8.3 8.3"/>
    <path fill="#bb2025" d="M70.6 32.3c4.4-3.6 11.2-10.4 11.1-15.5 0-7.8-4.2-11.4-4.2-11.4s1.8 6.2-12.4 19.3C52.9 36 54.6 46.3 54.6 47c.4 6.3 3 13.7 7.6 16.7-1.8-2.8-2.9-6.1-3-9.6.1-1.1-.9-11.5 11.4-21.8"/>
    <path fill="#bb2025" d="M93.9 55c-.2-6.2-2.2-6.7-4.6-12.3-3.3-8.9 2.3-16.5-3.9-26C83.5 28.8 74.6 32.3 68 40c-5.1 6-6.5 13.8-4 19.3 1.6-4.7 6.1-8.1 11.3-8.1 6.6 0 11.9 5.4 11.9 11.9 0 2.4-.7 4.7-2 6.6 5.8-2 8.9-8.7 8.7-14.7"/>
</svg>