<svg xmlns="http://www.w3.org/2000/svg" width="200" height="200">
  <circle cx="100" cy="100" r="100" fill="#007bff" />
  <g transform="translate(20, 45) scale(1.2)">
    <g fill="#fff">
      <path d="M68.298 37.478a3.171 3.171 0 0 1 1.849.587v1.222a1.632 1.632 0 0 0-1.367-1.013c-.981 0-1.1.49-1.094.74a1.223 1.223 0 0 0 .555.756 6.554 6.554 0 0 1 1.89 1.407 2.174 2.174 0 0 1 .45 1.27 2.536 2.536 0 0 1-2.629 2.4 3.373 3.373 0 0 1-1.841-.523v-1.3a1.639 1.639 0 0 0 1.407 1.029 1.3 1.3 0 0 0 1.439-1.2 1.256 1.256 0 0 0-.772-1.061 9.441 9.441 0 0 1-1-.627 2.311 2.311 0 0 1-1.085-1.954c-.013-.969 1.04-1.733 2.198-1.733Z"/>
      <path d="M63.835 44.047a1.9 1.9 0 0 1-.8-.177 2.006 2.006 0 0 1-.973-1.52c.683-.828 1.536-.651 2.613-1.785 1.423-1.488.37-3.064-1.576-3.064h-.016c-2 .008-3.064 1.857-3.064 3.852a3.237 3.237 0 0 0 3.2 3.514c1.576 0 2.075-.579 2.075-.579l.008-1.182a1.657 1.657 0 0 1-1.467.941Zm-.852-5.966h.08c1 0 .748 1.439.434 2.018-.49.9-1.126 1-1.552 1.455.009.001-.232-3.377 1.038-3.473Z"/>
      <path d="M46.041 37.518c.86 0 1.166.338 1.262 1.48 0 0 .3-1.439 1.512-1.439a.966.966 0 0 1 .989.523v1.238a1.489 1.489 0 0 0-1.158-.547 1.523 1.523 0 0 0-.844.249 1.044 1.044 0 0 0-.474.74v3.598a1.858 1.858 0 0 0 .74 1.48h-1.93s-.587-.024-.587-1.471v-4.39c0-1.182-.675-1.463-.675-1.463Z"/>
      <path d="M42.953 35.17a.885.885 0 1 1-.9.884.891.891 0 0 1 .9-.884Z"/>
      <path d="M42.568 37.534c.41 0 1.27 0 1.27 1.64v4.2l.008.008a1.852 1.852 0 0 0 .748 1.472h-1.93c-.016 0-.6-.008-.6-1.455v-4.4c0-1.158-.667-1.455-.667-1.455h1.166Z"/>
      <path d="M29.927 43.718a1.269 1.269 0 0 1-1.4 1.15h-4.59s-.563-.04-.563-1.455l-.024-5.645a2.759 2.759 0 0 0-.788-2.1h4.656c2.38 0 2.573 1.632 2.573 1.632a5.17 5.17 0 0 0-3.176-.643l-1.423-.008a2.656 2.656 0 0 1 .209 1.118v1h1.001a2.217 2.217 0 0 1 2.07 1.252 2.87 2.87 0 0 0-1.488-.33c-.2 0-.394.008-.579.008-.539 0-1.005.008-1.005.008v3.1c.056.482.008 1.045.691 1.045h2.155c1.367 0 1.7-.683 1.7-.683Z"/>
      <path d="M38.684 43.38v-3.6a1.089 1.089 0 0 0-2.123-.3l.008 3.892a1.924 1.924 0 0 0 .74 1.492h-1.938s-.579-.008-.579-1.471v-3.61a1.073 1.073 0 0 0-.981-1.045 1.1 1.1 0 0 0-1.15.756v3.884a1.917 1.917 0 0 0 .74 1.486h-1.93s-.587-.024-.587-1.471v-4.387c0-1.182-.675-1.463-.675-1.463h1.174c1.2 0 1.23 1.367 1.23 1.367a1.959 1.959 0 0 1 1.866-1.416 2.062 2.062 0 0 1 2.026 1.4 1.884 1.884 0 0 1 1.761-1.383 1.932 1.932 0 0 1 2.179 1.938v3.948a1.893 1.893 0 0 0 .74 1.467s-.933 0-1.938 0c-.008-.021-.555-.029-.563-1.484Z"/>
      <path d="M54.709 43.38v-4.109c0-.981-1.094-1.745-2.251-1.745a3.177 3.177 0 0 0-1.817.539v1.278a1.619 1.619 0 0 1 1.407-1.013c.981 0 1.053.49 1.053.732a1.067 1.067 0 0 1-.145.764c-.45.788-3.948.957-3.409 3.659a1.614 1.614 0 0 0 1.825 1.383 1.746 1.746 0 0 0 1.616-.876c.129.812.547.86.547.86 1.013 0 1.93.008 1.93.008a1.891 1.891 0 0 1-.756-1.48Zm-2.895.635a.864.864 0 0 1-.756-.925c0-1.825 1.5-2.083 1.9-2.565l.008 3.08a1.368 1.368 0 0 1-1.151.41Z"/>
      <path d="M56.566 43.436v-5.09l-1.23-.024a11.445 11.445 0 0 0 1.7-1.005 5.949 5.949 0 0 0 1.3-1.455v1.672h1.624l-.008 1.1a2.464 2.464 0 0 0-1.142-.289h-.474v5.074a1.823 1.823 0 0 0 .748 1.431h-1.93c-.001-.006-.588-.006-.588-1.414Z"/>
    </g>
    <path d="M66.98 72.544c-.78.8-1.584 1.616-2.436 2.46C59.88 79.6 54.155 85.24 48.148 91.239c-3.9-11.225-13.42-24.677-34.889-47.175l-2.034-2.115a3.493 3.493 0 0 1 .04-4.889L43.412 4.72c6.843 6.593 21.437 20.641 22.2 21.437 4.036 4.213 7.92 8.121 11.1 13.283a18.876 18.876 0 0 1 2.637 13.251h1.383a19.062 19.062 0 0 0-2.517-14.377c-3.007-4.849-6.577-8.563-10.365-12.5l-.788-.82C66.079 23.953 42.375 1.15 41.362.185L41.177 0 .185 41.233 0 41.418l1.367 1.407C27.331 69.665 38.049 84.8 40.911 98.66l.1.49.354-.354c8.507-8.58 17.054-17.014 23.551-23.407.989-.973 1.906-1.914 2.806-2.838h-.742Z" fill="#fff"/>
    <g fill="#fff">
      <path d="M61.825 50.56a6.912 6.912 0 0 1 3.256.659 4.708 4.708 0 0 1 1.922 1.882 8.39 8.39 0 0 1 .925 2.943 31.362 31.362 0 0 1-.064 8.25 8.5 8.5 0 0 1-1.061 3.08 4.65 4.65 0 0 1-2.018 1.8 7.58 7.58 0 0 1-3.2.6h-6.112V50.552h6.352Zm-.756 16.363a3.315 3.315 0 0 0 1.64-.346 2.4 2.4 0 0 0 .981-1.158 6.793 6.793 0 0 0 .482-2.123q.121-1.315.121-3.281c0-1.094-.04-2.05-.1-2.879a7.073 7.073 0 0 0-.442-2.058 2.571 2.571 0 0 0-1-1.238 3.244 3.244 0 0 0-1.761-.418h-1.64v13.509h1.721Z"/>
      <path d="M73.533 64.253a8.011 8.011 0 0 0 .1 1.254 4.131 4.131 0 0 0 .314 1.077 2.1 2.1 0 0 0 .563.756 1.349 1.349 0 0 0 .86.281 1.515 1.515 0 0 0 1.375-.675 5.023 5.023 0 0 0 .6-2.042h3.337a5.847 5.847 0 0 1-1.343 3.852 5.135 5.135 0 0 1-3.9 1.319 6.181 6.181 0 0 1-3.152-.675 4.113 4.113 0 0 1-1.673-1.782 6.906 6.906 0 0 1-.659-2.477 31.573 31.573 0 0 1-.121-2.742 18.556 18.556 0 0 1 .2-2.8 6.8 6.8 0 0 1 .8-2.4 4.407 4.407 0 0 1 1.737-1.673 6.326 6.326 0 0 1 3.015-.619 5.926 5.926 0 0 1 2.653.523 3.961 3.961 0 0 1 1.624 1.48 6.066 6.066 0 0 1 .8 2.316 19.311 19.311 0 0 1 .217 3.031v.836h-7.339v1.15Zm3.691-4.824a3.821 3.821 0 0 0-.281-1.077 1.52 1.52 0 0 0-.563-.675 1.714 1.714 0 0 0-.925-.233 1.571 1.571 0 0 0-.925.257 1.827 1.827 0 0 0-.579.675 3.353 3.353 0 0 0-.314.933 5.49 5.49 0 0 0-.1 1.021v.563h3.8a20.656 20.656 0 0 0-.114-1.464Z"/>
      <path d="M86.486 50.56v19.22h-3.715V50.56Z"/>
      <path d="M92.614 50.343v3.176h-3.715v-3.176Zm0 4.953v14.482h-3.715V55.296Z"/>
      <path d="m105.663 55.296-3.634 14.481h-4.31L93.98 55.296h3.876l2.075 10.365h.056l1.962-10.365Z"/>
      <path d="M109.845 64.253a8.01 8.01 0 0 0 .1 1.254 4.129 4.129 0 0 0 .314 1.077 2.094 2.094 0 0 0 .563.756 1.349 1.349 0 0 0 .86.281 1.515 1.515 0 0 0 1.375-.675 5.023 5.023 0 0 0 .6-2.042h3.337a5.847 5.847 0 0 1-1.343 3.852 5.135 5.135 0 0 1-3.9 1.319 6.181 6.181 0 0 1-3.152-.675 4.18 4.18 0 0 1-1.681-1.782 6.906 6.906 0 0 1-.659-2.477 31.573 31.573 0 0 1-.121-2.742 18.552 18.552 0 0 1 .2-2.8 6.8 6.8 0 0 1 .8-2.4 4.407 4.407 0 0 1 1.737-1.673 6.326 6.326 0 0 1 3.015-.619 5.926 5.926 0 0 1 2.653.523 3.961 3.961 0 0 1 1.624 1.48 6.2 6.2 0 0 1 .8 2.316 19.313 19.313 0 0 1 .217 3.031v.836h-7.349Zm3.691-4.824a3.824 3.824 0 0 0-.281-1.077 1.52 1.52 0 0 0-.563-.675 1.7 1.7 0 0 0-.925-.233 1.615 1.615 0 0 0-.933.257 1.756 1.756 0 0 0-.579.675 3.352 3.352 0 0 0-.314.933 5.49 5.49 0 0 0-.1 1.021v.563h3.8a14.338 14.338 0 0 0-.103-1.464Z"/>
      <path d="M122.557 55.296v1.938h.056a5.241 5.241 0 0 1 1.375-1.681 3.1 3.1 0 0 1 1.962-.635c.1 0 .217.008.338.016s.233.024.338.04v3.554c-.2-.016-.394-.032-.579-.04s-.378-.016-.579-.016a3.63 3.63 0 0 0-.965.137 2.613 2.613 0 0 0-.885.442 2.28 2.28 0 0 0-.643.8 2.783 2.783 0 0 0-.241 1.222v8.692h-3.731V55.296Z"/>
      <path d="M130.896 65.524a2.261 2.261 0 0 0 .5 1.52 1.792 1.792 0 0 0 1.439.579 2.072 2.072 0 0 0 1.375-.434 1.608 1.608 0 0 0 .515-1.295 1.364 1.364 0 0 0-.4-1.061 3.189 3.189 0 0 0-.941-.579l-2.613-.941a5.034 5.034 0 0 1-2.316-1.52 3.9 3.9 0 0 1-.78-2.517 4.68 4.68 0 0 1 .3-1.681 3.508 3.508 0 0 1 .938-1.382 4.636 4.636 0 0 1 1.656-.941 7.494 7.494 0 0 1 2.436-.354 5.507 5.507 0 0 1 3.739 1.077 3.861 3.861 0 0 1 1.214 3.039v.6h-3.337a2.976 2.976 0 0 0-.362-1.656 1.433 1.433 0 0 0-1.278-.523 1.952 1.952 0 0 0-1.222.394 1.374 1.374 0 0 0-.523 1.174 1.54 1.54 0 0 0 .338.973 2.545 2.545 0 0 0 1.278.724l2.235.756a5.055 5.055 0 0 1 2.477 1.544 4.2 4.2 0 0 1 .724 2.6 4.655 4.655 0 0 1-.4 2 3.941 3.941 0 0 1-1.118 1.415 4.315 4.315 0 0 1-1.7.8 9.089 9.089 0 0 1-2.163.241 9.494 9.494 0 0 1-2.6-.3 3.728 3.728 0 0 1-1.64-.884 3.217 3.217 0 0 1-.844-1.439 6.918 6.918 0 0 1-.241-1.9v-.515h3.337v.482Z"/>
    </g>
</svg>