<svg xmlns="http://www.w3.org/2000/svg" viewBox="0 0 80 80">
  <rect width="80" height="80" fill="#0a7443" rx="15" ry="15"/>
  <path fill="#bdd600" d="M74.4 56.79l-4.21-3.81c1.01-1.55 1.93-3.17 2.75-4.83l4.6 3.13c-.93 1.9-1.98 3.74-3.14 5.51M6.32 55.54c-4.21.02-3.56-7.86.57-6.88 3.42.69 2.9 6.97-.57 6.88M40.16 76.65c-11.16 0-21.75-5-29.82-14.08-2.51-2.76 1.21-7.36 3.67-4.52 12 14.44 33.43 16.42 47.87 4.42a34.18 34.18 0 0 0 4.42-4.42c2.44-2.84 6.21 1.76 3.67 4.52-8.07 9.08-18.66 14.08-29.82 14.08"/>
  <path fill="#fff" d="M11.66 42.4c1.33.02 2.63-.44 3.65-1.3l1.37 3.25C9.8 49.84.04 41 6.34 32.65c4.46-5.15 11.96-.56 11.12 6.78H7.59c.44 2.29 2.18 3.05 4.07 2.97zm1.44-8.01a3.427 3.427 0 0 0-5.4 2.03h6.5c-.1-.79-.49-1.52-1.1-2.03M25.06 42.4c1.14.16 3.26-.65 1.89-2.03-1.51-.83-4.76-.97-5.94-2.37-4.78-6.73 5.39-9.43 9.29-6.17l-1.13 3.38c-1.42-.84-5.61-2.18-6.28-.21.33 1.95 5.67 1.53 6.67 3.33 4.61 7.32-6.21 9.41-10.16 6.11l1.17-3.54c1.3.96 2.87 1.48 4.49 1.48"/>
  <path fill="#fff" d="M38.78 45.96c-9.9-.14-6.11-12.38 2.32-9.63-.18-3.95-5.27-2.06-7.26-1.04l.4-3.72c10.77-4.18 10.21 3.6 9.95 13.24-1.71.75-3.55 1.14-5.42 1.15m2.32-6.66c-6.62-2.05-6.58 5.29 0 2.97V39.3zM52.75 45.96c-9.9-.14-6.11-12.38 2.32-9.63-.18-3.95-5.27-2.06-7.26-1.04l.4-3.72c10.77-4.18 10.21 3.6 9.95 13.24-1.71.75-3.55 1.14-5.42 1.15m2.32-6.66c-6.62-2.05-6.58 5.29 0 2.97V39.3zM15.38 13.75c-1.43-1.84-3.54-2.02-5.62-1.95v3.64c4.5-.75 3.8 3.74 3.8 7.36H5.34v3.65h11.32c-.25-3.36.82-10.02-1.28-12.7m47.98-3.77c-.24 1.83.62 10.89-.66 12.2-5.74 3.94-4.78-5.18-4.78-9.08h-3.1c-.27 5.52 1.69 10.62-5.18 9.7v-9.7h-3.1v9.7h-9.63c11.73-11.52-11.8-18.63-7.59 0h-5.55V5.35h-3.1v21.1c3.34-.84 33.95 2.2 35.63-2.24 1.63 3.39 6.86 3.12 8.71.69 2.27-2.42 1.17-11.48 1.41-14.92h-3.07zm-26.92 8.4c-.88 1.94-2.4 2.85-4.45 3.73-2.02-8.92 5.73-7.34 4.45-3.73"/>
  <path fill="#fff" d="M69.63 5.67v15.07c.9-.7 2.14-.77 3.1-.16V5.67h-3.1zm0 21.67v3.35c-14.65-1.63-10.54 20.41 3.1 14.52V25.25a8.85 8.85 0 0 1-3.1 2.09zm0 14.77c-7.97 2.67-7.85-10.47 0-7.75v7.75z"/>
  <path fill="#fff" d="M69.32 25.82c-1.26-9.51 9-2.84.02.56l-.02-.56z"/>
</svg>
