<svg xmlns="http://www.w3.org/2000/svg" width="180" height="180">
  <circle cx="90" cy="90" r="90" fill="gray"/>
  <path fill="#fff" d="M89.311 149.906c-20.153-.029-38.158-7.234-53.381-21.559a5.7 5.7 0 0 1-.579-7.52c1.908-2.032 5.224-1.964 7.491.315a62.258 62.258 0 0 0 38.29 18.387c20.272 2.213 38.1-3.778 53.163-17.665 1.129-1.042 2.19-2.23 3.8-2.405a4.489 4.489 0 0 1 4.81 2.269 4.8 4.8 0 0 1-.613 5.984 56.828 56.828 0 0 1-8.122 7.067 76.473 76.473 0 0 1-44.859 15.127z" data-name="Path 3520"/>
  <path fill="#bbe604" d="M82.019 66.261c5.46 0 10.3-.039 15.133.025 1.345.017 1.648-.506 1.624-1.743-.071-3.778.082-7.562-.073-11.335-.128-3.112 2.081-1.842 3.5-2.108 1.817-.341 2.309.457 2.25 2.21-.12 3.6.028 7.2-.064 10.8-.04 1.561.3 2.17 2.055 2.188 5.6.057 7.116-1.3 7.136-6.86.008-2.16.065-4.322-.022-6.477-.053-1.323.206-1.871 1.74-1.88 3.849-.021 3.847-.122 3.849 3.723 0 2.249-.11 4.506.042 6.746.228 3.362 2.159 5.231 5.047 5.141 2.956-.093 4.491-1.93 4.515-5.507.03-4.319.129-8.642-.033-12.955-.092-2.466 1.473-2 2.827-1.941 1.232.057 2.981-.8 2.886 1.8-.184 5.032-.051 10.076-.211 15.11-.118 3.741-1.492 7.077-5.223 8.391-4 1.41-8.165 1.655-11.654-1.552-.823-.756-1.3-1.266-2.374-.306-2.275 2.032-5.126 2.451-8.058 2.451-17.365 0-34.731-.03-52.1.013-1.677 0-2.333-.353-2.314-2.212.1-9.626.161-19.256 0-28.88-.05-3 1.887-1.823 3.216-2.015 1.464-.213 2.492-.12 2.456 1.971-.13 7.556.013 15.116-.1 22.673-.03 1.983.469 2.753 2.534 2.576 2.231-.192 5.092.736 6.574-.342 1.717-1.249-.08-4.124.081-6.3a20.524 20.524 0 0 1 .866-5.307 8.229 8.229 0 0 1 8.347-5.957 14.777 14.777 0 0 1 9.2 3.339c2.205 1.663 2.7 4.293 1.629 7.065-1.045 2.713-2.862 4.924-5.281 7.455zM72.5 60.848c.058.9.138 1.791.17 2.687.038 1.081.556 1.508 1.555 1.075 2.581-1.117 4.961-2.482 6.414-5.073a2.331 2.331 0 0 0-1-3.6c-1.614-.9-3.322-1.408-5.095-.3-1.974 1.229-2.105 3.175-2.044 5.211z" data-name="Path 3521"/>
  <path fill="#bbe604" d="M147.117 69.828c0 10.134-.014 19.9.018 29.666 0 1.183-.627 1.559-1.6 1.759a29.976 29.976 0 0 1-9.909.605 11.709 11.709 0 0 1-10.628-12.665c.392-6.785 5.672-11.7 12.815-11.444 2.776.1 4.293-.176 3.655-3.372a1.739 1.739 0 0 1 1.188-2.114c1.375-.611 2.658-1.436 4.461-2.435zm-5.612 20c0-1.252.049-2.506-.017-3.755-.044-.834.289-1.822-.781-2.36-2.058-1.034-6.9.094-8.436 1.994a7.268 7.268 0 0 0 .068 8.5c1.521 1.816 5.942 2.941 8.2 1.789 1.953-1 .621-3.028.949-4.561a7.879 7.879 0 0 0 .017-1.611z" data-name="Path 3522"/>
  <path fill="#bbe604" d="M39.558 91.778c-2.424 0-4.849.028-7.272-.011-1.443-.023-1.5.6-.881 1.635 1.561 2.61 4.151 3 6.794 2.893a12.067 12.067 0 0 0 4.67-1.1c3.433-1.673 2.338 1.847 3.351 2.843 1.374 1.35-.022 1.868-1.111 2.365-7.758 3.543-15.543 1.493-18.965-5.01a12.78 12.78 0 0 1 1.836-13.807 11.755 11.755 0 0 1 13.527-2.9c4.191 1.8 7.019 6.668 6.849 11.583-.04 1.155-.33 1.587-1.527 1.549-2.422-.077-4.847-.023-7.271-.023zm2.792-4.965c-1.173-3.32-3.492-3.927-6.292-3.831-2.565.089-3.928 1.55-5.135 3.965 3.464 0 6.5.005 9.539-.005.527-.002 1.058-.07 1.888-.129z" data-name="Path 3523"/>
  <path fill="#bbe604" d="M77.756 85.13c-.114-.245-.191-.329-.184-.408.481-5.865.814-6.208 6.749-6.952 7.714-.967 11.836 2.622 11.87 10.35.015 3.418-.037 6.837.036 10.254.027 1.246-.287 2.023-1.565 2.4a24.511 24.511 0 0 1-12.5.779c-4.454-1-6.555-3.656-6.386-7.707.154-3.684 3.011-6.466 7.268-7.051a24.674 24.674 0 0 1 5.92-.118c.482.05 1.131.346 1.359-.387a1.524 1.524 0 0 0-.4-1.5 3.985 3.985 0 0 0-2.6-1.246c-2.653-.345-4.185-.126-9.567 1.586zm8.526 11.575c3.758 0 4.1-.225 4.145-2.5.052-2.973-.106-3.1-3.762-3.071-3.261.028-5.1 1.054-4.905 2.917.322 3.029 2.888 2.308 4.521 2.654z" data-name="Path 3524"/>
  <path fill="#bbe604" d="M102.847 85.081c-.1-.193-.187-.272-.185-.351.107-5.6.589-6.163 6.115-6.926a14.817 14.817 0 0 1 5.357.192c4.465 1.014 6.724 3.4 6.943 8 .2 4.217.05 8.451.085 12.677a1.785 1.785 0 0 1-1.343 2.03c-4.459 1.306-8.967 1.913-13.521.632-3.554-1-5.519-3.476-5.58-6.7-.069-3.616 1.824-6.135 5.51-7.376a19.268 19.268 0 0 1 7.2-.64c.6.029 1.541.656 1.8-.4a1.815 1.815 0 0 0-1.24-2.136c-2.346-1.069-4.756-.743-7.137-.237-1.372.286-2.69.821-4.004 1.235zm8.7 11.624c1.243-.586 3.875 1.04 3.879-2.315 0-2.974-.294-3.362-3.942-3.246-2.032.065-4.366.008-4.818 2.738-.288 1.76 1.567 2.799 4.884 2.823z" data-name="Path 3525"/>
  <path fill="#bbe604" d="M61.75 101.94a18.428 18.428 0 0 1-6.059-.686c-4.261-1.071-4.2-1.125-2.693-5.244.558-1.521.983-1.956 2.6-1.132a12.6 12.6 0 0 0 7.839 1.294c1.062-.172 2.409-.228 2.4-1.615 0-1.242-1.187-1.628-2.3-1.853-1.578-.32-3.162-.629-4.715-1.049-4.437-1.2-6.422-3.5-6.314-7.173a6.123 6.123 0 0 1 4.3-5.893c4.342-1.674 8.638-.931 12.889.474 1.271.42 1.568 1.086 1.067 2.444-1.3 3.532-1.237 3.6-4.851 2.515a18 18 0 0 0-5.874-.457c-.806.025-1.734.281-1.857 1.219-.125.956.7 1.311 1.506 1.6 2.7.965 5.626 1.039 8.259 2.287a6.431 6.431 0 0 1 4.022 6.4 6.292 6.292 0 0 1-4.123 5.8 10.76 10.76 0 0 1-4.412 1.067c-.628-.004-1.257.002-1.684.002z" data-name="Path 3526"/>
  <path fill="#bbe604" d="M35.242 72.186c-2.783 0-5.569-.052-8.35.015s-1.649-1.986-1.763-3.252c-.11-1.222-.6-2.8 1.733-2.717 3.588.122 7.184-.032 10.773.06 1.6.042 2.313-.429 2.176-2.118-.109-1.336.041-2.691.009-4.036-.085-3.621-1.344-5.008-5.031-5.146-1.509-.057-1.705-.642-1.724-1.93-.062-4.215.295-4.559 4.509-3.814 4.6.813 6.9 3.116 7.64 7.765.722 4.552.164 9.143.345 13.712.05 1.258-.643 1.459-1.7 1.444-2.873-.04-5.747-.014-8.62-.014z" data-name="Path 3527"/>
  <path fill="#bbe604" d="M141.478 50.769c0-3.327.075-6.656-.035-9.979-.048-1.462.376-1.774 1.819-1.742 3.846.084 3.846-.007 3.845 3.728 0 5.755-.042 11.511.027 17.266.018 1.5-.036 2.37-1.963 1.924a13.646 13.646 0 0 0-3.562.105c-.048-1.43-.123-2.859-.137-4.288-.023-2.338-.006-4.676-.006-7.014z" data-name="Path 3528"/>
  <path fill="#bbe604" d="M147.991 105.571c2.237 1.386 4.691 2.833 7.051 4.42.568.382.192 1.2-.144 1.727a371.019 371.019 0 0 1-3.976 6.03c-.574.857-1.1 1.2-2.092.291-1.573-1.447-3.362-2.656-5.011-4.026-.549-.456-1.536-.837-.831-1.9 1.334-2.011 2.654-4.031 3.983-6.041.19-.29.335-.655 1.02-.501z" data-name="Path 3529"/>
  <path fill="#bbe604" d="M28.334 106.026a5.344 5.344 0 0 1 5.406 5.445 5.4 5.4 0 0 1-5.168 5.445 5.616 5.616 0 0 1-5.568-5.051 5.472 5.472 0 0 1 5.33-5.839z" data-name="Path 3530"/>
  <path fill="#bbe604" d="M140.631 67.964c-.014-3.96 2.248-5.923 5.313-4.779a2.4 2.4 0 0 1 1.825 2.851c-.312 1.822-4.3 5.457-6.03 5.071s-.705-2.222-1.108-3.143z" data-name="Path 3531"/>
</svg>
