<svg xmlns="http://www.w3.org/2000/svg" viewBox="0 0 375 375">
  <path fill="#e10a14" d="M375.33 253.929v94c0 14.269-13.296 25.943-29.546 25.943H29.878c-16.25 0-29.547-11.674-29.547-25.944v-94c0 14.27 13.296 25.945 29.547 25.945h315.906c16.25 0 29.547-11.675 29.547-25.944"/>
  <path d="M29.878.176h315.906c16.25 0 29.547 11.675 29.547 25.944v227.809c0 14.269-13.297 25.944-29.547 25.944H29.878c-16.25 0-29.547-11.675-29.547-25.944V26.119C.33 11.852 13.627.177 29.878.177"/>
  <path fill="#fff" d="M120.66 84.306v24.328c0 8.276-4.63 13.243-12.82 13.243H77.807c-17.54 0-26.31-7.78-26.31-23.416v-14.15h9.182v14.15c0 5.373 1.573 9.18 4.714 11.332 2.483 1.735 6.294 2.644 11.332 2.644h22.673c4.218 0 7.112-.496 8.686-1.572 2.321-1.488 3.476-4.381 3.476-8.601V84.306h9.096zm-38.057-.086h-9.02v-9.182h9.02zm15.727 0h-9.02v-9.182h9.02v9.182m70.311-15.712v40.373c0 7.857-5.625 12.996-14.559 12.996h-24.737v-9.433h12.657L131.576 74.38h9.766l10.342 38.063c2.568 0 4.38-.582 5.624-1.822 1.574-1.574 2.321-4.221 2.321-7.942V68.513l9.01.001v-.006h.002m33.174 53.354h-10.834c-4.468 0-7.858-1.401-10.264-4.305-2.236-2.645-3.315-6.207-3.315-10.759V68.506h9.183v34.586c0 4.058.905 6.704 2.645 7.942 1.24.906 3.639 1.402 7.112 1.402h5.459v9.424h.014v.003"/>
  <path fill="#fff" d="M278.678 121.862H196.6v-9.433h9.272c4.716 0 7.037-3.228 7.037-9.768V88.264h9.272v11.504c7.36-10.016 16.466-15.638 25.404-15.638 13.988 0 21.1 9.52 21.348 28.299h9.766v9.433zm-19.364-9.418l.161-2.647c0-10.675-4.96-17.377-12.818-17.377-9.272 0-19.112 8.601-24.243 20.017h36.9v.007"/>
  <path fill="#fff" d="M284.785 76.698h-9.096v-9.182h9.096zm15.889 30.195c0 10.016-4.628 14.979-13.815 14.979h-9.768v-9.435h7.78c3.066 0 4.962-.905 5.874-2.73.41-.993.66-2.98.66-5.96V84.3h9.27v22.592zm-.248-30.195h-9.096v-9.182h9.096v9.182m18.03 45.164h-9.187V68.413h9.186v53.45M206.046 162.69c2.775 0 5.36.335 7.706 1.006 2.344.669 4.402 1.772 6.125 3.254 1.723 1.484 3.016 3.446 3.973 5.887.91 2.44 1.34 5.456 1.292 8.997 0 .575 0 1.293-.05 2.2-.047.91-.047 1.916-.047 2.968 0 1.055 0 2.156-.048 3.304-.047 1.15-.047 2.2-.047 3.207 0 2.824.096 5.6.335 8.374.238 2.728.574 5.074 1.005 6.94h-9.093c-.144-.957-.335-1.868-.479-2.726a38.971 38.971 0 0 1-.382-3.64c-1.387 2.49-3.35 4.356-5.887 5.601-2.537 1.244-5.504 1.865-8.807 1.865-2.44 0-4.688-.334-6.698-.957-2.01-.624-3.782-1.532-5.266-2.728-1.484-1.148-2.584-2.584-3.397-4.21-.813-1.629-1.196-3.495-1.196-5.553 0-2.774.813-5.073 2.393-6.89 1.627-1.82 3.779-3.352 6.508-4.499 2.728-1.15 5.935-2.059 9.57-2.68 3.638-.623 7.514-1.15 11.63-1.58v-1.101c0-1.867-.238-3.446-.765-4.69a7.648 7.648 0 0 0-2.059-3.014 7.012 7.012 0 0 0-3.014-1.579 15.765 15.765 0 0 0-3.828-.478c-2.536 0-4.691.669-6.414 2.009-1.722 1.34-2.632 3.35-2.726 6.08h-9.715a14.928 14.928 0 0 1 1.77-6.223 16.427 16.427 0 0 1 4.02-4.881c1.674-1.34 3.685-2.392 5.982-3.159 2.297-.72 4.833-1.104 7.61-1.104zm9.427 25.077c-3.54.336-6.556.718-9.044 1.15-2.488.432-4.547 1.005-6.175 1.676-1.626.668-2.774 1.434-3.54 2.39-.765.911-1.101 2.011-1.101 3.304 0 1.962.765 3.446 2.25 4.594 1.483 1.101 3.493 1.676 5.982 1.676 3.636 0 6.508-1.007 8.565-3.016 2.058-2.01 3.063-5.408 3.063-10.098v-1.676m27.808 21.011h-9.908v-60.3h9.908v60.3m27.421-46.088c2.775 0 5.36.335 7.704 1.006 2.345.67 4.404 1.772 6.127 3.254 1.722 1.484 3.016 3.446 3.972 5.887.908 2.44 1.34 5.456 1.293 8.997 0 .575 0 1.293-.048 2.2-.05.91-.05 1.916-.05 2.968 0 1.055 0 2.156-.047 3.304-.047 1.15-.047 2.2-.047 3.207 0 2.824.095 5.6.335 8.374.238 2.728.574 5.074 1.005 6.94h-9.093c-.146-.957-.336-1.868-.48-2.726a39.905 39.905 0 0 1-.383-3.64c-1.387 2.49-3.35 4.356-5.885 5.601-2.536 1.244-5.504 1.865-8.807 1.865-2.441 0-4.69-.334-6.699-.957-2.01-.624-3.782-1.532-5.265-2.728-1.484-1.148-2.584-2.584-3.399-4.21-.812-1.629-1.196-3.495-1.196-5.553 0-2.774.815-5.073 2.394-6.89 1.628-1.82 3.78-3.352 6.51-4.499 2.726-1.15 5.934-2.059 9.57-2.68 3.637-.623 7.513-1.15 11.629-1.58v-1.101c0-1.867-.239-3.446-.765-4.69a7.661 7.661 0 0 0-2.059-3.014 7.017 7.017 0 0 0-3.016-1.579 15.756 15.756 0 0 0-3.828-.478c-2.536 0-4.69.669-6.413 2.009-1.723 1.34-2.632 3.35-2.728 6.08h-9.714a14.908 14.908 0 0 1 1.77-6.223 16.427 16.427 0 0 1 4.02-4.881c1.674-1.34 3.685-2.392 5.982-3.159 2.298-.72 4.835-1.104 7.611-1.104zm9.428 25.077c-3.541.336-6.556.718-9.045 1.15-2.49.43-4.547 1.005-6.175 1.676-1.627.668-2.775 1.434-3.54 2.39-.765.911-1.101 2.011-1.101 3.304 0 1.962.765 3.446 2.25 4.594 1.483 1.101 3.492 1.676 5.98 1.676 3.638 0 6.51-1.007 8.567-3.016 2.057-2.01 3.064-5.408 3.064-10.098v-1.676m19.093-35.557h9.907v11.822h8.997v7.178h-8.997v24.359c0 2.298.383 3.781 1.103 4.546.717.764 2.152 1.1 4.258 1.1h3.588v7.563h-7.322c-2.394 0-4.307-.192-5.84-.527-1.482-.382-2.678-1.005-3.492-1.866-.814-.91-1.387-2.106-1.723-3.638-.288-1.532-.479-3.446-.479-5.694V171.16h-6.65v-7.179h6.65V152.21M83.797 194.906l7.557.933c-1.193 4.416-3.4 7.843-6.622 10.28-3.224 2.438-7.34 3.655-12.35 3.655-6.311 0-11.315-1.943-15.014-5.83-3.695-3.886-5.544-9.337-5.544-16.351 0-7.258 1.868-12.89 5.607-16.901 3.737-4.007 8.586-6.011 14.544-6.011 5.768 0 10.48 1.963 14.137 5.89 3.656 3.927 5.485 9.451 5.485 16.574 0 .434-.015 1.085-.043 1.95H59.381c.27 4.74 1.61 8.37 4.023 10.888 2.41 2.52 5.417 3.78 9.02 3.78 2.68 0 4.968-.705 6.864-2.114 1.895-1.406 3.4-3.655 4.51-6.743zm-24.01-11.823H83.88c-.326-3.628-1.246-6.349-2.763-8.166-2.33-2.816-5.348-4.224-9.059-4.224-3.358 0-6.182 1.124-8.47 3.372-2.287 2.248-3.555 5.256-3.8 9.018m56.713 19.178l1.056 6.458c-2.059.434-3.9.65-5.526.65-2.653 0-4.71-.419-6.174-1.258-1.463-.84-2.492-1.944-3.088-3.313-.596-1.365-.894-4.245-.894-8.63v-24.824h-5.362v-5.688h5.362v-10.684l7.272-4.387v15.07h7.352v5.689h-7.352v25.227c0 2.086.128 3.427.387 4.023.256.596.676 1.068 1.26 1.421.581.352 1.413.528 2.497.528.814.001 1.883-.093 3.21-.282m7.19-44.608v-8.41h7.314v8.41zm0 51.148v-43.145h7.314V208.8h-7.314m15.52-12.878l7.232-1.138c.407 2.897 1.536 5.12 3.391 6.662 1.855 1.544 4.45 2.316 7.781 2.316 3.358 0 5.85-.684 7.475-2.05 1.625-1.37 2.437-2.974 2.437-4.816 0-1.65-.717-2.952-2.152-3.9-1.002-.65-3.494-1.478-7.476-2.478-5.362-1.353-9.08-2.526-11.152-3.514-2.072-.988-3.642-2.356-4.712-4.103-1.07-1.747-1.605-3.676-1.605-5.788 0-1.924.44-3.704 1.32-5.342a11.813 11.813 0 0 1 3.596-4.083c1.137-.84 2.687-1.55 4.65-2.133 1.963-.583 4.069-.874 6.32-.874 3.385 0 6.357.487 8.915 1.463 2.559.975 4.45 2.295 5.667 3.961 1.22 1.667 2.059 3.895 2.52 6.683l-7.15.974c-.326-2.22-1.267-3.953-2.825-5.2-1.558-1.245-3.758-1.867-6.602-1.867-3.359 0-5.756.554-7.19 1.665-1.436 1.11-2.153 2.41-2.153 3.9 0 .948.297 1.801.893 2.558.598.787 1.531 1.436 2.803 1.951.732.27 2.885.895 6.459 1.87 5.173 1.38 8.784 2.513 10.828 3.391 2.044.882 3.648 2.162 4.813 3.842 1.164 1.678 1.747 3.764 1.747 6.256 0 2.437-.712 4.733-2.134 6.886-1.421 2.152-3.473 3.818-6.154 4.996-2.682 1.178-5.715 1.767-9.1 1.767-5.607 0-9.88-1.163-12.818-3.493-2.937-2.332-4.812-5.786-5.624-10.362m78.167 146.717c3.172-5.586 5.066-11.88 5.73-17.989h-9.8c-.238 3.787-.995 7.621-2.273 11.03-1.278 3.362-2.936 6.343-5.065 8.853-3.173 3.693-7.29 6.06-11.93 6.06-5.491 0-9.28-2.368-10.746-6.298h-10.51c-1.703 4.072-5.729 6.155-10.793 6.155-5.586 0-11.316-4.023-11.93-12.213h32.806c.852-4.024 4.024-7.054 9.184-8.995 0 0 4.782-1.75 9.515-3.787 6.532-3.03 11.457-8.426 11.457-15.292 0-9.751-8.332-13.111-15.858-13.111-9.516 0-16.523 4.97-16.523 12.924 0 4.685 2.556 9.087 6.296 13.493-1.988.71-3.881 1.61-5.633 2.744-3.031-8.378-9.988-13.776-19.504-13.776-12.547 0-21.587 9.421-21.587 22.674 0 12.594 8.095 23.387 22.25 23.387 6.485 0 11.409-2.367 14.818-5.68 3.455 3.55 8.664 5.68 15.053 5.68 7.86 0 14.25-3.125 19.174-7.952l6.297 6.864h13.348zm-20.215-38.25c3.599 0 6.532 2.036 6.532 6.06 0 3.693-2.224 7.29-7.194 9.514l-.095-.094c-2.936-3.124-5.73-6.723-5.73-10.13.004-3.36 3.031-5.35 6.487-5.35zm-35.457 15.622c5.728 0 10.984 4.166 11.221 11.031h-22.913c.804-8.333 7.1-11.03 11.692-11.03m-48.07-25.982v7.544a4.583 4.583 0 0 1 1.875-1.78c.796-.421 1.734-.656 2.764-.656.938 0 1.827.188 2.67.563.844.375 1.546.937 2.156 1.64.61.703 1.078 1.593 1.405 2.576a10.6 10.6 0 0 1 .516 3.373c0 1.264-.187 2.39-.516 3.421-.327.983-.796 1.872-1.405 2.576-.608.703-1.312 1.267-2.156 1.64a6.348 6.348 0 0 1-2.67.563c-1.032 0-1.968-.235-2.764-.656a4.903 4.903 0 0 1-1.874-1.78v2.061h-3.467v-21.085zm-.138 13.214c0 .889.093 1.686.327 2.389.234.704.468 1.218.842 1.686.375.468.796.796 1.312.984a3.73 3.73 0 0 0 1.594.328c1.218 0 2.154-.468 2.858-1.453.654-.936 1.03-2.248 1.03-3.936 0-1.64-.327-2.952-1.03-3.89-.656-.936-1.64-1.452-2.858-1.452-.562 0-1.079.096-1.594.329a3.859 3.859 0 0 0-1.312.984c-.373.421-.656.983-.842 1.687-.235.702-.327 1.453-.327 2.34m12.79 12.935v-2.624h1.313c.373 0 .701 0 .984-.048.282-.046.516-.093.75-.28.234-.14.42-.376.608-.657.187-.28.327-.703.515-1.17l.187-.375-5.67-15.556h3.796l3.56 11.197 3.563-11.196h3.561l-5.481 15.6c-.375.985-.703 1.828-1.08 2.484a5.117 5.117 0 0 1-1.17 1.547 4.057 4.057 0 0 1-1.547.794 9.907 9.907 0 0 1-2.202.235h-1.686v.05m117.535-22.87c.135 1.033.27 1.975.404 2.827.135.853.225 1.704.315 2.466.045.448.09.943.134 1.391l.046.18c.089.672.404 1.12.897 1.345.493.224 1.12.36 1.928.36.18 0 .27.088.27.268v3.094c0 .225-.09.316-.27.316-1.167 0-2.017-.315-2.556-.944-.09-.09-.135-.179-.224-.268a9.272 9.272 0 0 1-.493 2.061 7.263 7.263 0 0 1-1.615 2.736 6.832 6.832 0 0 1-2.645 1.75c-1.032.402-2.243.626-3.632.626-2.378 0-4.172-.672-5.472-1.973-1.256-1.3-1.93-3.23-1.93-5.742 0-.626.046-1.166.09-1.702a7.181 7.181 0 0 1 .27-1.48c.088-.494.223-.943.403-1.435.135-.493.313-.987.493-1.57h3.23c-.359.987-.674 1.93-.852 2.871a11.547 11.547 0 0 0-.314 2.691c0 .672.09 1.3.224 1.884.135.583.404 1.077.763 1.48s.807.761 1.3.987a4.944 4.944 0 0 0 1.93.357c3.229 0 4.843-1.704 4.843-5.157 0-.583-.045-1.167-.09-1.794-.046-.626-.135-1.3-.224-2.064-.091-.762-.224-1.569-.359-2.466-.135-.896-.315-1.928-.448-3.05h3.588v-.044zm-7.31-3.63l2.602 2.6-2.601 2.6-2.602-2.6 2.602-2.6"/>
  <path fill="#fff" d="M256.202 296.32c1.704 0 3.005.809 3.99 2.378.987 1.57 1.615 3.992 1.84 7.312l-2.42 3.901c-1.885 0-3.634-.18-5.338-.493a16.837 16.837 0 0 1-3.856-1.21s-.045.044-.045.088a3.684 3.684 0 0 1-1.256.987c-.45.227-.987.315-1.66.315-.18-.044-.27-.134-.27-.315v-3.093c0-.18.09-.27.27-.27.27 0 .493-.045.717-.18.18-.134.404-.36.583-.671.18-.315.404-.763.628-1.302.224-.538.493-1.256.852-2.064.673-1.75 1.48-3.05 2.422-3.99.942-.942 2.108-1.391 3.543-1.391zm-.897 9.645a24.904 24.904 0 0 0 3.542.269c-.089-2.107-.404-3.633-.897-4.664-.537-1.123-1.167-1.66-1.93-1.66-.358 0-.717.09-.985.224-.314.133-.584.359-.853.673a6.072 6.072 0 0 0-.807 1.255 13.133 13.133 0 0 0-.806 1.884 20.263 20.263 0 0 0-.45 1.121 16.147 16.147 0 0 0 3.186.898"/>
</svg>
