<svg xmlns="http://www.w3.org/2000/svg" viewBox="0 0 500 500">
  <circle cx="250" cy="250" r="250" fill="#3B68A1"/>
  <path fill="#fff" d="M114.39 210v22.74h-56v11h36.89v20.06H58.39v13.82h54.65V298h-58L40 283.45v-56.21L56.08 210zM287.7 210v22.74h-55.97v11h36.86v20.06h-36.86v13.82h54.65V298h-58l-15.07-14.55v-56.21L229.38 210z"/>
  <path fill="#F26822" d="M298.11 210h20.1v31.39h23.14v-13.75L356.1 210h19.11v21.16h-12.76v44.81h12.76V298h-18.45l-15.41-16.9v-13.38h-23.14V298h-20.1z"/>
  <path fill="#fff" d="M383.24 226.84v54.66l15.11 16.5h27.82v-20.38h-24.48v-44.88h44.59V298h18.73v-69.59L449.97 210h-52.62zM123.8 210v67.62L140.56 298h49.58l13.76-15.32V210h-17.1v67.62h-12.41v-42.46h-19.11v42.46h-11.72V210z"/>
</svg>
