<svg xmlns="http://www.w3.org/2000/svg" viewBox="0 0 64 64">
  <rect width="64" height="64" fill="#0F3476" rx="15"/>
  <path fill="#DA291C" d="M55.2 19.03l-12.724 6.958h5.096a17.501 17.501 0 0 0 1.43 17.333c-1.517-9.076 2.199-17.864 6.198-24.29"/>
  <path fill="#FFF" d="M11.745 45.456h.42v-1.994h-.42v1.994zm-.054-2.59a.26.26 0 0 1 .266-.257c.15 0 .267.118.267.257s-.116.257-.267.257a.26.26 0 0 1-.266-.257zM12.58 43.443h.405v.21a.63.63 0 0 1 .498-.243c.056 0 .12.012.165.025v.375a.793.793 0 0 0-.206-.03.634.634 0 0 0-.453.17v1.506h-.409v-2.013zM13.826 45.347v-.324c.13.057.361.117.548.117.26 0 .385-.085.385-.267 0-.166-.126-.211-.37-.296-.291-.085-.56-.239-.56-.596 0-.393.289-.571.711-.571.207 0 .402.045.5.085v.328a1.314 1.314 0 0 0-.484-.097c-.227 0-.337.08-.337.227 0 .146.102.203.358.284.275.089.584.218.584.612 0 .38-.292.607-.726.607-.236 0-.467-.044-.609-.109M15.534 44.88v-1.164h-.284v-.305h.289l.076-.535h.35v.535h.475v.305h-.476v1.103c0 .21.076.3.268.3.106 0 .2-.025.263-.05v.33a1.16 1.16 0 0 1-.361.057c-.396 0-.6-.156-.6-.576M19.087 44.504l-.25-.746a6.785 6.785 0 0 1-.16-.509h-.008c-.033.124-.105.336-.163.51l-.263.745h.844zm-.648-1.628h.502l.935 2.58H19.4l-.2-.6h-1.074l-.21.6h-.442l.965-2.58zM21.313 44.413c0-.4-.12-.703-.5-.703-.137 0-.27.05-.351.12v1.25c.085.029.201.045.31.045.38 0 .541-.306.541-.712m-1.259.907v-2.71h.408v.947a.652.652 0 0 1 .476-.19c.573 0 .807.459.807 1.026 0 .583-.343 1.063-.98 1.063-.267 0-.53-.062-.71-.136M22.012 44.744V43.41h.406v1.268c0 .28.085.445.382.445a.75.75 0 0 0 .403-.14V43.41h.41v2.014h-.406v-.161a.885.885 0 0 1-.549.193c-.483 0-.646-.304-.646-.712M25.792 45.1c.672 0 .837-.435.837-.932 0-.497-.156-.944-.812-.944h-.35V45.1h.325zm-.755-2.224h.83c.882 0 1.216.621 1.216 1.292 0 .634-.321 1.288-1.23 1.288h-.816v-2.58zM27.44 42.61h.402v.932a.905.905 0 0 1 .549-.19c.483 0 .65.3.65.701v1.314h-.41v-1.249c0-.275-.082-.438-.379-.438a.729.729 0 0 0-.402.138v1.55h-.41v-2.759zM30.435 45.015v-.462c-.03 0-.105-.004-.16-.004-.349 0-.538.093-.538.316 0 .183.126.284.336.284a.53.53 0 0 0 .362-.134m.055.219c-.093.113-.295.222-.539.222-.387 0-.643-.21-.643-.559 0-.409.357-.607.925-.607.067 0 .148.004.202.008v-.158c0-.284-.118-.401-.42-.401-.215 0-.396.06-.518.113v-.332a1.65 1.65 0 0 1 .593-.11c.484 0 .77.199.77.66v.9c0 .126.059.166.151.166.022 0 .05-.003.076-.008v.284a.577.577 0 0 1-.24.044c-.18 0-.302-.084-.357-.222M32.524 44.413c0-.4-.12-.703-.5-.703-.137 0-.27.05-.35.12v1.25c.084.029.2.045.31.045.379 0 .54-.306.54-.712m-1.259.907v-2.71h.408v.947a.65.65 0 0 1 .476-.19c.573 0 .807.459.807 1.026 0 .583-.343 1.063-.98 1.063-.267 0-.529-.062-.71-.136M33.277 45.456h.421v-1.994h-.421v1.994zm-.054-2.59a.26.26 0 0 1 .267-.257c.15 0 .267.118.267.257s-.117.257-.267.257a.26.26 0 0 1-.267-.257zM36.027 45.113c.305 0 .466-.145.466-.414 0-.278-.148-.431-.458-.431h-.426v.845h.418zm-.013-1.156c.298 0 .433-.136.433-.38 0-.212-.131-.357-.429-.357h-.409v.737h.405zm-.834-1.08h.884c.533 0 .813.26.813.654a.57.57 0 0 1-.417.567v.008c.28.058.5.261.5.605 0 .452-.33.745-.872.745h-.908v-2.58zM38.265 45.015v-.462c-.03 0-.105-.004-.16-.004-.349 0-.538.093-.538.316 0 .183.126.284.336.284.156 0 .286-.061.362-.134m.055.219c-.093.113-.295.222-.538.222-.388 0-.644-.21-.644-.559 0-.409.358-.607.926-.607.067 0 .147.004.201.008v-.158c0-.284-.118-.401-.42-.401-.215 0-.396.06-.518.113v-.332a1.65 1.65 0 0 1 .593-.11c.484 0 .77.199.77.66v.9c0 .126.059.166.151.166.021 0 .05-.003.076-.008v.284a.577.577 0 0 1-.24.044c-.18 0-.303-.084-.357-.222M39.095 43.443h.403v.16a.894.894 0 0 1 .549-.193c.483 0 .65.305.65.712v1.334h-.41v-1.268c0-.28-.082-.444-.379-.444a.722.722 0 0 0-.402.14v1.572h-.41v-2.013zM42.12 45.173l-.567-.761v1.028h-.411v-2.83h.411v1.685l.705-.89h.453l-.746.915.522.683c.065.087.118.125.208.125.008 0 .016 0 .048-.005v.317a.437.437 0 0 1-.122.016c-.195 0-.338-.058-.501-.283M10 42.876h1.513v.356h-1.076v.709h.962v.335h-.962v1.18H10zM32.511 25.97h5.454c3.106 0 4.786 1.472 4.786 3.656 0 1.77-1.081 2.852-2.255 3.173v.047c1.542.345 2.692 1.425 2.692 3.288 0 2.62-1.979 4.162-5.085 4.162H32.51V25.97zm5.04 5.841c1.426 0 2.024-.644 2.024-1.748 0-.988-.62-1.632-2.002-1.632h-1.91v3.38h1.887zm.068 6.024c1.404 0 2.163-.643 2.163-1.908 0-1.288-.713-1.955-2.14-1.955h-1.978v3.863h1.955zM22.768 25.97h3.52l5.244 14.326h-3.427l-.92-2.851h-5.59l-.967 2.85h-3.243l5.383-14.324zm3.588 8.945l-1.195-3.68c-.277-.85-.553-1.677-.714-2.344h-.046c-.183.644-.46 1.517-.736 2.345l-1.242 3.68h3.933zM10 25.971h8.809v2.598h-5.65v3.334h5.028v2.391h-5.028v6.002H10zM13.43 22.481h-.448a.433.433 0 0 1-.319-.133.436.436 0 0 1-.132-.319v-.28c0-.126.044-.232.132-.32a.432.432 0 0 1 .319-.133.43.43 0 0 1 .317.134.432.432 0 0 1 .132.318v.733zm-.448-1.582a.813.813 0 0 0-.598.25.815.815 0 0 0-.249.6v.28c0 .235.083.435.249.602a.816.816 0 0 0 .598.248h.449a.39.39 0 0 1-.125.268.381.381 0 0 1-.272.11h-.445c-.033 0-.05.018-.05.052v.297c0 .034.017.051.05.051h.445c.215 0 .4-.079.556-.237a.763.763 0 0 0 .236-.56v-1.112a.82.82 0 0 0-.246-.599.813.813 0 0 0-.598-.25zM16 20.01h-.291c-.032 0-.048.015-.048.048v2.03c0 .105-.022.18-.067.225-.046.043-.12.065-.224.066h-1.143c-.03 0-.045.017-.045.05v.29c0 .032.016.048.048.048h1.14c.212 0 .378-.06.5-.181.12-.12.18-.287.18-.5v-2.028c0-.033-.016-.049-.05-.049"/>
  <path fill="#FFF" d="M14.76 20.365c-.03 0-.044.017-.044.05v1.858c0 .033.014.05.043.05h.267c.03 0 .046-.017.046-.05v-1.858c0-.033-.015-.05-.046-.05h-.267zM14.577 20.098h.722c.026 0 .04-.013.04-.038v-.113c0-.025-.014-.038-.04-.038h-.415v-.212c0-.034.013-.062.038-.085a.123.123 0 0 1 .088-.035c.056 0 .093.024.114.073l.023.052a.056.056 0 0 0 .02.021.046.046 0 0 0 .017.004.037.037 0 0 0 .016-.004l.108-.045c.017-.008.026-.019.026-.031a.048.048 0 0 0-.004-.018l-.024-.052a.298.298 0 0 0-.296-.19.32.32 0 0 0-.229.091.293.293 0 0 0-.093.22v.21h-.11c-.027 0-.04.014-.04.039v.113c0 .025.013.038.04.038M16.807 20.01h-.266c-.03 0-.046.016-.046.05v2.66c0 .031.015.047.046.047h.266c.03 0 .044-.016.044-.047v-2.66c0-.034-.014-.05-.044-.05M19.815 23.657h-.248c-.03 0-.047.015-.047.045v.263c0 .031.016.046.047.046h.248c.03 0 .045-.015.045-.046v-.263c0-.03-.015-.045-.045-.045M19.19 23.657h-.248c-.03 0-.044.015-.044.045v.263c0 .031.014.046.044.046h.249c.03 0 .044-.015.044-.046v-.263c0-.03-.015-.045-.044-.045M24.798 23.212h-.25c-.03 0-.045.015-.045.045v.263c0 .031.015.046.045.046h.25c.03 0 .045-.015.045-.046v-.263c0-.03-.015-.045-.045-.045M27.492 22.13c0 .108-.023.184-.069.23-.045.046-.12.07-.227.07h-1.08v-.639c.12-.138.28-.264.481-.376.201-.113.359-.169.471-.169.166 0 .284.068.355.204a.686.686 0 0 1 .069.321v.359zm-.424-1.283c-.261 0-.58.146-.952.437V20.06c0-.034-.017-.05-.05-.05h-.296c-.033 0-.049.016-.049.05v2.37h-.591c-.088 0-.146-.012-.173-.038a.087.087 0 0 1-.013-.05v-1.369c0-.033-.017-.05-.05-.05h-.296c-.031 0-.047.017-.047.05v1.32c0 .051-.01.088-.03.108-.02.02-.054.03-.101.03H21.396v-.9a.662.662 0 0 0-.198-.483.642.642 0 0 0-.477-.2.64.64 0 0 0-.476.2.661.661 0 0 0-.198.482v1.374h-1.09a.457.457 0 0 1-.331-.138.486.486 0 0 1 .128-.773l.132-.07c.02-.009.03-.021.03-.037a.058.058 0 0 0-.009-.028l-.133-.266a.049.049 0 0 0-.029-.025.038.038 0 0 0-.038.003l-.131.068a.889.889 0 0 0-.479.793c0 .241.084.447.252.617a.815.815 0 0 0 .598.253h1.297c.053 0 .1-.019.138-.058a.193.193 0 0 0 .058-.14V21.53c0-.079.027-.146.083-.202a.267.267 0 0 1 .198-.084.27.27 0 0 1 .2.084.276.276 0 0 1 .082.202v1.099c0 .056.02.103.058.14.038.04.085.059.139.059h3.218a.514.514 0 0 0 .362-.13c.102.087.243.13.422.13h1.994c.216 0 .385-.062.506-.186.121-.123.182-.293.182-.512v-.359c0-.276-.075-.499-.225-.669a.75.75 0 0 0-.59-.255z"/>
  <path fill="#FFF" d="M26.772 20.541h.248c.031 0 .047-.015.047-.045v-.263c0-.03-.016-.046-.047-.046h-.248c-.03 0-.044.015-.044.046v.263c0 .03.015.045.044.045M29.528 22.481h-.447a.429.429 0 0 1-.316-.133.437.437 0 0 1-.131-.319v-.28c0-.126.043-.232.131-.32a.428.428 0 0 1 .316-.133c.124 0 .23.045.316.134a.432.432 0 0 1 .131.318v.733zm3.112-1.507h-.296c-.032 0-.048.016-.048.05v1.319c0 .052-.01.089-.031.109-.019.02-.056.03-.108.03h-2.233v-.734a.818.818 0 0 0-.247-.599.809.809 0 0 0-.596-.25.802.802 0 0 0-.594.25.818.818 0 0 0-.247.6v.28c0 .235.083.435.247.602a.806.806 0 0 0 .594.248h.447a.397.397 0 0 1-.393.379h-.445c-.033 0-.05.017-.05.05v.298c0 .034.017.051.05.051h.445c.21 0 .392-.077.547-.23a.779.779 0 0 0 .242-.548h2.233c.16 0 .29-.048.388-.144a.54.54 0 0 0 .144-.392v-1.32c0-.033-.016-.05-.049-.05zM32.36 23.212h-.247c-.031 0-.047.015-.047.045v.263c0 .031.016.046.047.046h.248c.03 0 .045-.015.045-.046v-.263c0-.03-.015-.045-.045-.045M33.718 19.552h-.413v-.212c0-.034.012-.062.036-.086a.122.122 0 0 1 .089-.035c.054 0 .092.024.112.074l.024.052c.007.017.018.024.033.024a.053.053 0 0 0 .018-.003l.11-.044c.01-.003.017-.01.02-.022a.038.038 0 0 0 .004-.014.037.037 0 0 0-.003-.014l-.022-.053a.298.298 0 0 0-.296-.189c-.09 0-.166.03-.229.091a.292.292 0 0 0-.094.219v.212h-.11c-.028 0-.041.012-.041.038v.114c0 .025.013.038.04.038h.722c.026 0 .039-.013.039-.038v-.114c0-.026-.013-.038-.039-.038M33.446 20.01h-.266c-.03 0-.046.015-.046.048v2.662c0 .031.015.047.046.047h.266c.03 0 .044-.016.044-.047v-2.662c0-.033-.015-.049-.044-.049M35.754 21.433h.723c.025 0 .038-.013.038-.039v-.114c0-.025-.013-.038-.038-.038h-.414v-.21a.12.12 0 0 1 .036-.087.124.124 0 0 1 .089-.035c.056 0 .094.024.114.073l.023.054c.007.015.019.022.034.022a.067.067 0 0 0 .02-.003l.109-.044a.048.048 0 0 0 .02-.02.042.042 0 0 0 .002-.014c0-.006 0-.011-.002-.016l-.024-.052c-.055-.126-.154-.189-.296-.189a.317.317 0 0 0-.228.09.298.298 0 0 0-.094.22v.21h-.112c-.027 0-.04.014-.04.04v.113c0 .026.013.039.04.039M41.009 20.54h.25c.03 0 .044-.015.044-.045v-.263c0-.03-.015-.045-.044-.045h-.25c-.03 0-.045.015-.045.045v.263c0 .03.015.045.045.045"/>
  <path fill="#FFF" d="M42.695 20.904H42.4c-.032 0-.049.017-.049.049v1.29c0 .052-.01.087-.03.108-.02.019-.055.028-.108.028h-.736c-.084 0-.138-.013-.162-.039-.01-.01-.016-.026-.016-.05v-1.34c0-.032-.016-.049-.048-.049h-.296c-.032 0-.048.017-.048.05v1.289c0 .054-.01.09-.029.107-.02.02-.054.03-.1.032H37.54c-.086 0-.14-.013-.164-.039-.01-.007-.014-.024-.014-.05v-2.232c0-.032-.017-.049-.05-.049h-.294c-.034 0-.05.017-.05.049v2.182c0 .055-.01.09-.03.109-.02.02-.054.03-.102.03h-1.243a.462.462 0 0 1-.465-.463.473.473 0 0 1 .264-.429l.131-.067c.02-.01.029-.022.029-.038a.061.061 0 0 0-.007-.026l-.133-.26a.049.049 0 0 0-.029-.025.034.034 0 0 0-.016-.004.04.04 0 0 0-.022.007l-.133.066a.858.858 0 0 0-.347.32.856.856 0 0 0-.13.456.82.82 0 0 0 .252.604c.168.165.37.247.606.247h1.238c.15 0 .272-.042.367-.128.102.086.243.128.423.128H40.77c.15 0 .272-.042.367-.128.102.086.242.128.421.128h.655c.16 0 .29-.046.387-.14a.522.522 0 0 0 .143-.383v-1.291c0-.032-.016-.049-.048-.049M11.641 20.01h-.288c-.033 0-.05.016-.05.048v2.552a.462.462 0 0 1-.134.335.436.436 0 0 1-.324.138.437.437 0 0 1-.324-.138.46.46 0 0 1-.136-.335v-.94c0-.034-.015-.051-.045-.051h-.29c-.034 0-.05.017-.05.05v.94c0 .241.082.446.248.616.165.17.364.254.597.254a.807.807 0 0 0 .598-.254.85.85 0 0 0 .248-.615v-2.552c0-.032-.017-.049-.05-.049M42.415 23.212h-.248c-.03 0-.047.015-.047.045v.263c0 .031.016.046.047.046h.248c.03 0 .045-.015.045-.046v-.263c0-.03-.015-.045-.045-.045"/>
</svg>
