<svg xmlns="http://www.w3.org/2000/svg" viewBox="0 0 40.19 42.96">
    <path fill="#fff" d="M0 0h40v44H0z"/>
    <path fill="#c18c1a" d="M5.08 0h34.95v34.52H5.08z"/>
    <path fill="#00317e" d="M33.67 17.84c-.51-.27-.99-.6-1.43-.96.21-.57.7-.99 1.3-1.1.57-.04 1.29.6 2.16 1.93-.64.26-1.35.3-2.03.13m4.83-2.62c-1.03-2.04-2.09-3.05-3.17-3.05-1.4 0-2.76.93-4.09 2.79a7.394 7.394 0 0 0-1.66 4.25c.08.81.53 1.55 1.21 1.99.72.56 1.6.86 2.51.86 1 .06 1.99-.27 2.76-.93.26-.4.54-.79.83-1.16.45.49.77 1.08.93 1.73.15.42.27.86.37 1.3H27.04v4.52h12.64c.3-1.02.43-2.09.4-3.15.09-1.44.12-2.38.1-2.82-.1-2.2-.67-4.35-1.68-6.31m-10.34 7.77h-2.72c-.92 0-1.8-.39-2.42-1.06-.62-.69-1.15-1.46-1.56-2.29-.34-.69-.74-1.34-1.2-1.96a62.56 62.56 0 0 0-2.12 3.89c0-.02.38.49 1.13 1.53.56.63.95 1.4 1.13 2.23-.16.82-.61 1.55-1.26 2.06-.69.62-1.39 1.25-2.09 1.89a7.137 7.137 0 0 1-4.78 2.19c-.91-.01-1.79-.3-2.54-.81-.83-.54-1.23-.81-1.21-.81-.09 0-.13.1-.13.3 0 .51 1.08 1.36 3.24 2.54s3.74 1.78 4.74 1.77c1.28 0 2.65-1.07 4.09-3.22.91-1.34 1.64-2.79 2.16-4.32.31.28.69.45 1.1.5.24.05.48.08.73.1h3.76v-4.52z" class="cls-1"/>
    <path fill="#00317e" d="M16.86 17.98h11.6l2.16-4.62c-1.37 0-2.78.03-4.22.1s-2.24.1-2.39.1c-.38.04-.76-.03-1.1-.2-.75-.59-1.44-1.24-2.06-1.96-.37-.36-.69-.77-.93-1.23 0-.13.25-.29.76-.46.91-.3 1.86-.45 2.82-.43 1.25-.08 2.5.17 3.62.73.3.19.56.44.76.73.24.26.42.4.53.4s.14-.19.1-.56a4.55 4.55 0 0 0-.33-1.2 8.41 8.41 0 0 0-1.66-2.69c-.66-.8-1.62-1.28-2.66-1.33-1.11 0-2.38.74-3.82 2.23-.73.7-1.37 1.49-1.89 2.36-.56.69-.89 1.54-.93 2.43v1.1H15V18h1.85m-1.51-4.52c-.91 0-1.58-.92-2.03-2.76-.13-.64-.27-1.3-.4-1.96-.17-.54-.7-.88-1.26-.83-.96.13-1.81.69-2.29 1.53-.74 1.07-1.43 2.18-2.06 3.32-.51 1.02-1.01 2.04-1.49 3.05-.36.79-1.13 1.32-1.99 1.36-.51 0-1.07-.43-1.66-1.3-1.89-3.4 1.29-4.43 2.24-4.85 1.38-.74.16-.64.16-.64.01-.01-4.73 1.22-4.56 4.12.11 1.52.42 3.01.9 4.45.8 2.28 1.86 3.42 3.19 3.42.77 0 1.53-.84 2.26-2.52.67-1.57 1.32-3.14 1.96-4.72.86-1.71 1.85-2.56 2.95-2.56.27 0 .53.45.8 1.36.2.89.51 1.75.93 2.56.47.86 1.35 1.42 2.32 1.46h.72v-4.52h-.69zM34.84 3.85l-4.09 4.09 4.09 4.09 4.09-4.09-4.09-4.09zM38.86 39.7h-4.18v-1.76c0-.13.02-.26.05-.39a.81.81 0 0 1 .26-.42c.18-.16.39-.27.62-.34.76-.19 1.55-.19 2.31 0 .23.07.44.18.63.34.12.11.21.26.26.42.03.13.05.26.05.39v1.76zm1.15 3.26v-5c0-.22-.03-.43-.1-.63-.08-.23-.24-.42-.45-.55-.3-.19-.63-.33-.98-.4-1.13-.2-2.29-.2-3.42 0-.35.07-.68.21-.98.4-.2.13-.36.33-.45.55-.07.2-.1.42-.1.63v5h1.15V40.1h4.18v2.85H40zm-8.66-3.26h-4.18v-1.76c0-.13.02-.26.05-.39a.81.81 0 0 1 .26-.42c.18-.16.39-.27.63-.34.76-.19 1.55-.19 2.31 0 .23.07.44.18.63.34.12.11.21.26.26.42.03.13.05.26.05.39v1.76zm1.15 3.26v-5c0-.22-.03-.43-.1-.63-.08-.23-.24-.42-.45-.55-.3-.19-.63-.33-.98-.4-1.13-.2-2.29-.2-3.42 0-.35.07-.68.21-.98.4-.2.13-.36.33-.44.55-.07.2-.1.42-.1.63v5h1.15V40.1h4.18v2.85h1.14zm-7.38-6.74h-6.1v.43h5.08v.02l-5.08 5.52v.78h6.1v-.43h-5.05l5.05-5.55v-.76zm-8.16 3.49h-4.18v-1.76c0-.13.02-.26.05-.39a.81.81 0 0 1 .26-.42c.18-.16.39-.27.63-.34.76-.19 1.55-.19 2.31 0 .23.06.44.18.62.34.13.11.22.26.26.42.03.13.05.26.05.39v1.76zm1.15 3.26v-5c0-.22-.03-.43-.1-.63-.09-.23-.24-.42-.45-.55-.3-.19-.63-.33-.98-.4-1.13-.2-2.29-.2-3.42 0-.35.07-.68.21-.98.4-.2.13-.36.33-.45.55-.07.2-.1.42-.1.63v5h1.15v-2.86h4.18v2.85h1.14zm-9.51-6.3h2.51v-.3c-.15-.05-.3-.08-.46-.1-.25-.03-.49-.04-.74-.03H8.26c-.27 0-.58.02-.94.05-.35.03-.69.1-1.03.21-.3.1-.58.26-.82.48-.23.22-.34.53-.32.84v5.16H6.3v-3.2h2.23c.25 0 .5-.01.75-.04.15-.02.3-.05.45-.1v-.29H6.3v-1.5a.82.82 0 0 1 .23-.65c.17-.16.38-.28.6-.35.25-.08.5-.13.76-.15.27-.02.5-.03.71-.03" class="cls-1"/>
    <path fill="#fff" d="M20.23 12.94l-2.42 2.42 2.42 2.42 2.42-2.42-2.42-2.42z"/>
</svg>
