<svg xmlns="http://www.w3.org/2000/svg" viewBox="0 0 256 256">
  <path fill="#590099" d="M0 0h256v256H0z"/>
  <path fill="#fff" d="M170.07 57.69c1.8-4.89 3.56-9.79 5.36-14.69 8.68 9.82 17.43 19.57 26.06 29.43-15.84 9.74-31.64 19.56-47.47 29.33 1.76-4.9 3.57-9.78 5.33-14.67-12.12-.01-24.25-.02-36.38-.01-13.41.02-25.75 7.78-34.02 17.94-6.27 7.49-8.31 17.28-11.89 26.14-7.35 0-14.7.01-22.05-.01 5.41-13.83 8.94-28.81 18.33-40.68 14.7-19.22 37.9-33.33 62.61-32.78 11.37.01 22.74.01 34.12 0z"/>
  <path fill="#fff" d="M88.39 141.17c5.97-18.56 24.76-33.15 44.61-31.86 6.13.02 12.25-.01 18.38.02-2.68 7.34-5.33 14.69-8.02 22.02-4.65.09-9.49-.5-13.91 1.3-6.27 2.48-11.47 7.66-13.68 14.06-4.38 12.02-8.75 24.05-13.12 36.08 4.85.01 9.71-.01 14.57.01-13.31 9.79-26.64 19.55-39.97 29.31-6.22-9.76-12.43-19.53-18.63-29.31 4.88-.02 9.75 0 14.63-.01 5.06-13.87 10.11-27.74 15.14-41.62z"/>
</svg>
