<svg xmlns="http://www.w3.org/2000/svg" viewBox="0 0 1024 1024">
  <circle cx="512" cy="512" r="512" fill="#e25821"/>
  <path fill="#fff" d="M835.125 496.25c-.15-2.013-.313-4.037-.313-6.05v-.2l-.462-6.05v-.2a318.35 318.35 0 0 0-9.463-53.225c0-.15 0-.15-.15-.313l-1.4-5.125c-.15-.312-.15-.625-.312-.775-.462-1.55-.925-3.262-1.4-4.812-.15-.313-.15-.775-.312-1.088-.463-1.55-.925-3.1-1.4-4.5-.15-.462-.313-.775-.463-1.25-.462-1.55-.925-2.95-1.55-4.5l-.462-1.4c-.463-1.4-1.088-2.95-1.55-4.35a10.7 10.7 0 0 0-.463-1.25c-.625-1.4-1.087-2.95-1.712-4.35-.15-.312-.313-.775-.463-1.087-.625-1.55-1.25-2.95-1.862-4.5 0-.15-.15-.313-.15-.463-2.013-5-4.188-9.937-6.513-14.737l-.462-.925c-.625-1.25-1.088-2.325-1.713-3.413-.312-.625-.625-1.4-.925-2.012-.462-1.088-1.087-2.013-1.55-3.1-.462-.775-.775-1.55-1.25-2.325s-1.087-1.863-1.55-2.95c-.462-.775-.925-1.713-1.4-2.5s-1.087-1.863-1.55-2.788a23.363 23.363 0 0 0-1.55-2.637c-.462-.925-1.087-1.713-1.55-2.638s-1.087-1.712-1.55-2.637-1.087-1.713-1.55-2.5-1.087-1.863-1.712-2.788a20.213 20.213 0 0 0-1.55-2.325L783 337.7a20.213 20.213 0 0 0-1.55-2.325c-.625-.925-1.4-2.013-2.012-2.95-.463-.625-.925-1.4-1.4-2.013l-2.325-3.262c-.463-.625-.775-1.088-1.25-1.713-1.25-1.712-2.325-3.262-3.575-4.812a321.825 321.825 0 0 0-30.425-34.375 240.125 240.125 0 0 0-23.75-21.575c-5.125-4.5-10.55-8.75-16.138-12.725a210.138 210.138 0 0 0-31.825-19.55c-3.1-1.712-6.25-3.262-9.312-4.812a328.338 328.338 0 0 0-71.7-25.3c-2.5-.463-5-1.088-7.3-1.55h-.15c-1.25-.15-2.325-.463-3.575-.625A305.663 305.663 0 0 0 527.5 195h-13.612a303.425 303.425 0 0 0-58.813 6.513c-43.45 9.15-81.787 27.5-107.237 50.437-1.4 1.25-2.5 2.175-3.1 2.788l-.625.625h.15l-.15.15.15-.15a.15.15 0 0 0 .15-.15l-.15.15a.537.537 0 0 1 .312-.15c18.938-11.325 45.163-20.638 63.938-25.3 2.5-.625 5.125-1.25 7.6-1.863.462-.15 1.087-.15 1.55-.312 2.175-.463 4.35-.925 6.675-1.4.312 0 .775-.15 1.087-.15 83.025-15.213 171.488 9.625 233.1 68.437a221.788 221.788 0 0 1 34.763 42.363c39.262 63.625 35.537 143.75 5 190.887-44.538 68.6-144.05 92.188-205.663 32.125a108.875 108.875 0 0 1-33.05-76.35 95.763 95.763 0 0 1 8.075-40c2.175-5 16.913-33.212 23.588-31.812-16.913-3.575-48.575 3.412-70.763 36.475-19.862 29.637-18.75 75.262-6.512 107.7a171.8 171.8 0 0 1-15.675-50.75C382.5 398.45 454.3 307.363 520.25 284.7c-35.537-31.037-124.775-28.862-191.037 19.863-38.638 28.4-66.25 68.75-80.85 116.862 2.175-27 12.412-67.35 33.362-108.475-22.187 11.488-50.437 47.8-64.4 81.325-20.175 48.425-27.162 106.25-20.8 161.4.463 4.188.925 8.225 1.4 12.413C223.688 719.538 355.75 835 514.513 835c177.375 0 321.25-143.862 321.25-321.25-.163-5.887-.325-11.787-.638-17.5z"/>
</svg>
