<svg viewBox="0 0 420 374" xmlns="http://www.w3.org/2000/svg">
    <path d="M210 372.825L0 267.825L132.122 70.0068L155.622 81.7582L210 0.276093L293.191 124.931L316.69 113.18L420 267.825L210 372.825Z" fill="#266338"/>
    <path d="M210 372.825V0.276093L293.191 124.931L316.69 113.18L420 267.825L210 372.825Z" fill="#1B4F2B"/>
    <path d="M210 259.157L129.372 218.838L82.7349 242.156L210 305.797L337.266 242.156L290.628 218.838L210 259.157Z" fill="#51E84D"/>
    <path d="M267.579 137.74L210 108.951L152.422 137.74L210 166.532L267.579 137.74Z" fill="#51E84D"/>
    <path d="M210 194.534L156.171 167.616L119.551 185.925L210 231.155L300.449 185.925L263.829 167.616L210 194.534Z" fill="#51E84D"/>
    <path d="M210 259.157V305.797L337.265 242.156L290.628 218.838L210 259.157Z" fill="#3CC537"/>
    <path d="M267.578 137.74L210 108.951V166.532L267.578 137.74Z" fill="#3CC537"/>
    <path d="M210 194.534V231.155L300.449 185.925L263.829 167.616L210 194.534Z" fill="#3CC537"/>
</svg>
