<svg xmlns="http://www.w3.org/2000/svg" viewBox="0 0 1024 1024">
  <circle cx="512" cy="512" r="512" fill="#181717"/>
  <path fill="#fff" d="M514.875 202.75C338 202.75 194.75 346.125 194.75 522.875c0 141.5 91.75 261.5 218.875 303.75 16 3 21.875-6.875 21.875-15.375 0-7.625-.25-27.75-.375-54.375-89 19.375-107.875-43-107.875-43-14.625-37-35.625-46.875-35.625-46.875-29-19.875 2.25-19.5 2.25-19.5 32.125 2.25 49 33 49 33 28.5 49 75 34.875 93.25 26.625 2.875-20.75 11.125-34.875 20.25-42.875-71.125-8-145.875-35.5-145.875-158.25 0-35 12.375-63.5 33-85.875-3.625-8.125-14.375-40.625 2.75-84.75 0 0 26.875-8.625 88 32.875 25.625-7.125 52.875-10.625 80-10.75 27.25.125 54.375 3.625 80 10.75 60.875-41.375 87.625-32.875 87.625-32.875 17.25 44.125 6.375 76.625 3.25 84.75C705.5 442.5 718 471.125 718 506c0 123-74.875 150.125-146.125 158 11.25 9.625 21.625 29.25 21.625 59.25 0 42.875-.375 77.25-.375 87.625 0 8.375 5.625 18.375 22 15.25C743.375 784.25 835 664.25 835 522.875c0-176.75-143.375-320.125-320.125-320.125"/>
</svg>
