<svg xmlns="http://www.w3.org/2000/svg" viewBox="0 0 512 512">
  <path fill="#4285f4" d="M34.9 448h81.5V250.2L0 163v250.2C0 432.4 15.6 448 34.9 448z"/>
  <path fill="#34a853" d="M395.6 448h81.5c19.3 0 34.9-15.6 34.9-34.9V163l-116.4 87.3V448z"/>
  <path fill="#fbbc04" d="M395.6 99v151.3L512 163v-46.5c0-43.1-49.3-67.8-83.8-41.9L395.6 99z"/>
  <path fill="#ea4335" d="M116.4 250.2V99L256 203.7 395.6 99v151.2L256 355z"/>
  <path fill="#c5221f" d="M0 116.4V163l116.4 87.3V99L83.8 74.5C49.3 48.6 0 73.3 0 116.4z"/>
</svg>
