<svg xmlns="http://www.w3.org/2000/svg" viewBox="0 0 64 64">
    <circle cx="32" cy="32" r="32" fill="#68bbd8" />
    <path fill="#47646d" d="M51.17,29.08v1.58H12.83V29.08a3,3,0,0,1,3-3H48.17A3,3,0,0,1,51.17,29.08Z" />
    <path fill="#617a87" d="M51.17,30.66V49.81a3,3,0,0,1-3,3H15.84a3,3,0,0,1-3-3V30.66Z" />
    <rect width="15.18" height="1.31" x="33.93" y="33.26" fill="#ebebeb" rx=".65" ry=".65" />
    <rect width="15.18" height="1.31" x="33.93" y="36.39" fill="#ebebeb" rx=".65" ry=".65" />
    <rect width="15.18" height="1.31" x="33.93" y="39.52" fill="#ebebeb" rx=".65" ry=".65" />
    <rect width="15.18" height="1.31" x="33.93" y="42.65" fill="#ebebeb" rx=".65" ry=".65" />
    <rect width="15.18" height="1.31" x="33.93" y="45.78" fill="#ebebeb" rx=".65" ry=".65" />
    <rect width="15.18" height="1.31" x="33.93" y="48.91" fill="#ebebeb" rx=".65" ry=".65" />
    <rect width="11.02" height="1.15" x="16.84" y="48.61" fill="#ebebeb" rx=".57" ry=".57" />
    <rect width="11.02" height="1.15" x="16.84" y="45.76" fill="#ebebeb" rx=".57" ry=".57" />
    <rect width="11.02" height="11.02" x="16.84" y="32.6" fill="#dadde1" />
    <path fill="#617a87" d="M35.56,22.25v2.12H28.44V22.25h7.12m1.71-1.71H26.73v5.54H37.27V20.54Z" />
    <rect width="5.81" height="12.13" x="29.1" y="11.19" fill="#47646d" />
    <circle cx="32" cy="14.51" r="2.05" fill="#ebebeb" />
    <rect width="4.56" height="2.68" x="20.07" y="39.79" fill="#fff" />
    <path fill="#617a87" d="M27.49,42.92H22.56l1.11-3.47.84-.08a7.77,7.77,0,0,1,2.19.81A8.29,8.29,0,0,1,27.49,42.92Z" />
    <path fill="#f75267" d="M21.72,39.32H23l-.07.45-.3.33h-.55l-.32-.33Z" />
    <path fill="#f75267"
        d="M22.78,41.57l-.11-1.48h-.56l-.25,2.81h0a3.44,3.44,0,0,1,.43,0h0a2.18,2.18,0,0,0,.39-.06l.09-.11Z" />
    <path fill="#e5b28f"
        d="M23.45,38.78c-.07.68-.89.58-1.1.54s-1,.13-1.1-.54a8.86,8.86,0,0,1,.27-1.15c.07-.13.66,0,.83,0s.76-.14.83,0A9.24,9.24,0,0,1,23.45,38.78Z" />
    <ellipse cx="24.06" cy="36.09" fill="#e5b28f" rx=".62" ry=".29" transform="rotate(-77.13 24.057 36.085)" />
    <ellipse cx="20.64" cy="36.09" fill="#e5b28f" rx=".29" ry=".62" transform="rotate(-12.87 20.667 36.092)" />
    <path fill="#47646d" d="M22.35,42.92h-.41l-2-2.43.49-.11-.66-.66a1.44,1.44,0,0,1,.39-.35l.92-.22h0l.21.67Z" />
    <path fill="#617a87"
        d="M21.94,42.92l-2-2.43.49-.11-.66-.66a1.44,1.44,0,0,1,.39-.35,7.69,7.69,0,0,0-2.19.81,8.28,8.28,0,0,0-.79,2.74Z" />
    <path fill="#e2e2e0"
        d="M22.4,39.32l-.05.08-.58.91a1.45,1.45,0,0,1-.42-.5,3.25,3.25,0,0,1-.26-.61l0-.06.13-.37c.08.3.89.48,1.1.52Z" />
    <path fill="#47646d"
        d="M24.24,40.38l.49.11-1.85,2.29-.09.11,0,0h-.41v0l.42-1.32.56-1.75.21-.67h0l.92.22a1.51,1.51,0,0,1,.4.35Z" />
    <path fill="#e2e2e0"
        d="M23.6,39.21a3.24,3.24,0,0,1-.26.61,1.45,1.45,0,0,1-.42.5l-.58-.91-.05-.08h.05c.21,0,1-.23,1.1-.52l.13.37Z" />
    <path fill="#b22b39" d="M22.11,40.1h.56v.16" />
    <path fill="#f1bd95"
        d="M23.73,37.21a3.08,3.08,0,0,1-1.11,1.6l0,0h-.46l0,0a3.06,3.06,0,0,1-1.1-1.6,10.07,10.07,0,0,1-.29-2.72c.1-.52,1.16-.48,1.67-.43s1.57-.09,1.67.43A10.19,10.19,0,0,1,23.73,37.21Z" />
    <path fill="#471f27"
        d="M20.71,36a2.91,2.91,0,0,0,.15-.68s.11.25.16,0a1.7,1.7,0,0,1,.46-.66s-.18.28-.16.5a1.25,1.25,0,0,0,.72-.16,2.53,2.53,0,0,1,1.86,0L24,36a1.49,1.49,0,0,0,.18-1.3,1.65,1.65,0,0,0-1.76-1.36,1.93,1.93,0,0,0-1.62.94A2.56,2.56,0,0,0,20.71,36Z" />
</svg>