<svg viewBox="0 0 500 500" version="1.1" xmlns="http://www.w3.org/2000/svg">
    <rect fill="#FFFFFF" width="500" height="500" />
    <path d="M77.0000528,410.54389 C76.9886345,408.078626 78.8323251,406.057705 81.1455071,406 L109.049922,406 C118.205592,406 125.551999,408.955117 130.234214,413.943863 C134.026007,418.145438 136.093304,423.781595 135.980118,429.609162 L135.980118,429.83159 C135.980118,442.88071 127.679375,450.475043 116.098098,452.858202 L134.6182,478.278565 C135.45516,479.145091 135.949509,480.319773 136,481.562028 C135.877388,483.993535 134.029442,485.921057 131.745248,486 C130.132873,485.949642 128.646522,485.058834 127.768844,483.616841 L106.793313,454.563485 L85.4102004,454.563485 L85.4102004,481.45611 C85.4102004,483.930533 83.5275366,485.936449 81.2051532,485.936449 C78.8827698,485.936449 77.0000528,483.930533 77.0000528,481.45611 L77.0000528,410.54389 Z M108.304346,446.503111 C119.478041,446.503111 127.470613,440.381041 127.470613,430.170528 L127.470613,429.9481 C127.470613,420.182444 120.432378,414.293393 108.403756,414.293393 L85.4102004,414.293393 L85.4102004,446.503111 L108.304346,446.503111 Z" fill="#929497" />
    <path d="M149.570104,479.560487 L180.004262,409.927388 C181.064407,407.45657 182.674627,406.0013 185.354993,406.0013 L185.785052,406.0013 C188.17287,405.94788 190.309614,407.545575 191.035769,409.927388 L221.459926,479.455791 C221.777189,480.158836 221.960627,480.919829 222,481.696279 C222,484.049627 220.17755,485.957393 217.929444,485.957393 C216.029432,485.873633 214.371504,484.582357 213.748873,482.701357 L205.937805,464.68323 L164.792184,464.68323 L156.93111,482.963097 C156.351429,484.795704 154.70453,486.024105 152.860553,485.999641 C151.835863,486.002061 150.852374,485.577183 150.127806,484.818696 C149.403238,484.060208 148.997361,483.030678 149.000013,481.958018 C149.004588,481.122673 149.200058,480.300601 149.570104,479.560487 Z M202.577346,456.527437 L185.324989,416.376642 L168.082633,456.527437 L202.577346,456.527437 Z" fill="#929497" />
    <path d="M238.000015,411.520005 C237.993818,409.06997 239.849069,407.06296 242.178259,407 L264.081391,407 C287.687878,407 304,424.047479 304,446.278741 L304,446.510536 C304,468.731262 287.687878,486 264.081391,486 L242.178259,486 C239.852968,485.937137 237.999263,483.936474 238.000015,481.490531 L238.000015,411.520005 Z M264.051332,477.771272 C283.038722,477.771272 295.172617,464.221792 295.172617,446.731795 L295.172617,446.510536 C295.172617,429.010003 283.038722,415.2498 264.051332,415.2498 L246.476724,415.2498 L246.476724,477.771272 L264.051332,477.771272 Z" fill="#929497" />
    <path d="M323.004746,410.647584 C322.933027,409.014617 323.678444,407.470509 324.944126,406.630218 C326.209807,405.789927 327.790193,405.789927 329.055874,406.630218 C330.321556,407.470509 331.066973,409.014617 330.995254,410.647584 L330.995254,481.352416 C331.066973,482.985383 330.321556,484.529491 329.055874,485.369782 C327.790193,486.210073 326.209807,486.210073 324.944126,485.369782 C323.678444,484.529491 322.933027,482.985383 323.004746,481.352416 L323.004746,410.647584 Z" fill="#929497" />
    <path d="M350,446.227337 L350,446.005287 C350,424.13862 365.434549,405 388.104355,405 C410.77416,405 426,423.905996 426,445.772663 L426,446.005287 C426,467.850806 410.565451,487 387.885707,487 C365.205963,487 350,468.072856 350,446.227337 Z M417.273964,446.227337 L417.273964,446.005287 C417.273964,428.029787 404.920361,413.226435 387.885707,413.226435 C370.851053,413.226435 358.726036,427.723146 358.726036,445.730368 L358.726036,445.962992 C358.726036,463.938491 371.069701,478.688975 388.104355,478.688975 C405.139009,478.688975 417.273964,464.234558 417.273964,446.227337 Z" fill="#929497" />
    <path d="M330.029107,10.0000023 C297.455336,10.0000023 268.351968,28.20158 251.500026,54.7763019 C234.648067,28.20158 205.544699,10.0000023 172.960927,10.0000023 C148.030659,9.99440001 124.120674,20.4380902 106.497002,39.0309157 C88.8733297,57.6237412 78.9814727,82.8407093 79.0000261,109.127936 C79.0000261,143.854348 99.8524657,168.889424 121.644988,192.057941 L206.834848,276.981051 C208.866862,279.007534 211.847788,279.564272 214.416295,278.397015 C216.984802,277.229758 218.647951,274.562521 218.646215,271.613379 L218.646215,205.39803 C218.646215,186.265755 233.355363,170.755981 251.500026,170.755981 C269.644672,170.755981 284.35382,186.265755 284.35382,205.39803 L284.35382,271.560651 C284.344453,274.518716 286.010681,277.197021 288.587655,278.366147 C291.164629,279.535272 294.154642,278.969416 296.185189,276.928323 L381.355047,192.03685 C403.137568,168.836696 423.999991,143.833257 423.999991,109.106845 C424.010598,82.8223013 414.114171,57.610782 396.489487,39.0228237 C378.864803,20.4348653 354.956826,9.9944061 330.029107,10.0000023 Z M166.170141,185.477534 C163.784241,188.311352 159.673647,188.575468 156.979078,186.068083 C128.915829,159.841364 114.684182,132.475727 114.684182,104.709361 L114.684182,104.38245 C114.684182,80.528473 128.495781,53.3948382 146.797899,41.288576 C148.764635,39.7995204 151.352574,39.58423 153.51643,40.7296619 C155.680286,41.8750937 157.062611,44.1920331 157.105075,46.7446537 C157.147539,49.2972742 155.843128,51.6639066 153.7187,52.888653 C139.137013,62.5272625 127.715691,85.1368673 127.715691,104.350813 L127.715691,104.677724 C127.715691,128.341882 140.467166,152.259131 165.620078,175.75456 C166.920836,176.963755 167.710375,178.67014 167.813635,180.495372 C167.916895,182.320604 167.325344,184.11386 166.170141,185.477534 Z M208.054989,159.999546 C206.903763,162.167927 204.731087,163.511297 202.374332,163.511297 C201.259909,163.517306 200.163405,163.215534 199.193964,162.635928 C180.191764,151.404944 167.360279,129.354252 167.28027,107.693744 L167.28027,107.482834 C167.326209,86.9274359 178.164842,68.0895556 195.433528,58.5515998 C198.631627,56.7781514 202.587649,58.0741736 204.269551,61.4463463 C205.951453,64.8185189 204.722332,68.9898689 201.524233,70.7633172 C188.498288,77.9513586 180.334001,92.1704963 180.33178,107.672653 C180.33178,124.545493 190.512959,141.850699 205.584703,150.761667 C208.667453,152.607082 209.77969,156.716492 208.084993,159.999546 L208.054989,159.999546 Z M251.500018,142.472892 C240.066775,142.481416 229.754823,135.225889 225.373903,124.090452 C220.992982,112.955016 223.406128,100.133336 231.487791,91.6057496 C239.569455,83.078163 251.727559,80.5245921 262.291276,85.1360832 C272.854992,89.7475742 279.743286,100.61567 279.743286,112.671232 C279.743286,129.121997 267.101579,142.461242 251.500018,142.472892 L251.500018,142.472892 Z M303.776068,162.635928 C302.806627,163.215534 301.710123,163.517306 300.5957,163.511297 C297.630574,163.5207 295.035091,161.413355 294.286049,158.388225 C293.537008,155.363096 294.824242,152.18686 297.415332,150.666757 C312.487076,141.755789 322.62825,124.461128 322.668255,107.577744 C322.661533,92.0769121 314.498547,77.8600396 301.475802,70.6684075 C298.291512,68.9036954 297.066869,64.751231 298.740485,61.3936186 C300.414102,58.0360063 304.352213,56.7447055 307.536503,58.5094177 C324.80519,68.0473735 335.643823,86.8852538 335.689762,107.440652 L335.689762,107.651562 C335.609753,129.354252 322.79827,151.404944 303.776068,162.635928 Z M388.285849,104.709361 C388.285849,132.475727 374.054202,159.841364 345.990954,186.068083 C343.298254,188.581196 339.183275,188.316798 336.79989,185.477534 C334.416506,182.638269 334.667255,178.29931 337.359955,175.786197 C362.512866,152.290768 375.264342,128.331336 375.264342,104.709361 L375.264342,104.38245 C375.264342,85.1685038 363.833019,62.5588991 349.261333,52.9202896 C346.438652,50.8121497 345.672078,46.7446593 347.515864,43.6587165 C349.35965,40.5727738 353.170088,39.5457515 356.192135,41.3202126 C374.494253,53.4264748 388.305852,80.5601096 388.305852,104.414086 L388.285849,104.709361 Z" fill="#DB0032" />
    <polygon fill="#101820" points="112 303 134.543511 303 134.543511 335.19308 163.466504 335.19308 163.466504 303 186 303 186 389 163.466504 389 163.466504 356.319788 134.543511 356.319788 134.543511 389 112 389"/>
    <path d="M192,356.746992 L192,356.505255 C192,337.239909 205.031739,322 223.495026,322 C245.072004,322 255,338.700838 255,358.092308 C255,359.542727 255,361.245392 254.880625,362.842955 L213.099479,362.842955 C214.800568,370.042498 219.774514,373.658035 226.608716,373.658035 C231.811464,373.658035 235.959735,371.555979 240.456182,366.941965 L252.602558,377.58888 C246.633823,385.639756 237.939365,391 225.474657,391 C205.847466,391 192,377.231531 192,356.746992 Z M234.457603,350.693069 C234.583021,347.600792 233.486376,344.592543 231.430054,342.388079 C229.373732,340.183614 226.542732,338.981262 223.614401,339.068698 C217.844623,339.068698 213.278541,343.777304 212.771198,350.693069 L234.457603,350.693069 Z" fill="#101820" />
    <path d="M329.010036,323.129835 L351.088889,323.129835 L351.088889,336.396229 C354.701792,327.391035 360.522581,321.545005 371,322.027801 L371,346.388007 L369.143369,346.388007 C357.622222,346.388007 351.078853,353.31508 351.078853,368.544144 L351.078853,389 L329,389 L329.010036,323.129835 Z" fill="#101820" />
    <path d="M385.404951,368.153761 L385.404951,341.35737 L378,341.35737 L378,322.701788 L385.404951,322.701788 L385.404951,306 L407.389961,306 L407.389961,322.701788 L422,322.701788 L422,341.35737 L407.429934,341.35737 L407.429934,363.668438 C407.429934,368.300821 409.428571,370.233606 413.425846,370.233606 C416.331609,370.175895 419.18744,369.429014 421.78015,368.048718 L421.78015,386.200095 C417.065842,388.809404 411.797243,390.114388 406.470588,389.992137 C393.299568,389.971128 385.404951,383.857643 385.404951,368.153761 Z" fill="#101820" />
    <path d="M90.5,297 C84.1487254,297 79,302.596441 79,309.5 C79,316.403559 84.1487254,322 90.5,322 C96.8512746,322 102,316.403559 102,309.5 C102,302.596441 96.8512746,297 90.5,297 L90.5,297 Z" fill="#101820" />
    <path d="M90.4078892,328 L89.5921108,328 C83.1899648,328 78,333.404838 78,340.072043 L78,389 L102,389 L102,340.072043 C101.994447,333.407234 96.8077337,328.005783 90.4078892,328 L90.4078892,328 Z" fill="#101820" />
    <path d="M321,356.254657 C321,335.779643 307.14816,322 287.52472,322 C275.056073,322 266.398673,327.360502 260.388248,335.411765 L272.518559,346.027661 C277.016427,341.381892 281.17596,339.300757 286.3704,339.300757 C293.10725,339.300757 298.023061,342.895446 299.814247,349.927163 L299.814247,350.431681 L285.375296,350.505256 C267.463434,350.747004 258,357.810254 258,371.190486 C258,384.087223 266.697204,390.99281 281.673511,390.99281 C288.624205,391.163545 295.331638,388.287038 300.202338,383.046655 L300.202338,389.416192 L321,389.416192 L321,357.148074 C321,356.937858 321,356.738153 321,356.517427 L321,356.254657 Z M288.241194,376.225154 C282.559153,376.487923 279.175802,373.071917 279.175802,368.867602 C279.175802,364.663287 282.161112,362.781856 287.713789,362.781856 L300.22224,362.781856 L300.22224,363.49659 C300.152583,366.218884 299.107724,375.752168 288.251145,376.235664 L288.241194,376.225154 Z" fill="#101820"/>
</svg>