<svg xmlns="http://www.w3.org/2000/svg" version="1.1" viewBox="0 0 100 100">
	<rect x="12" y="6" width="80" height="89" fill="#fff"/>
	<rect x="50" y="9" width="45" height="82" fill="#fff"/>
	<path fill="#FF6200" d="M91.4,23c-1.5-0.4-3.3-0.1-4.2,1.1c-0.8,1.2-2,2.8-1.6,4.3c2.6,1,3.9,4,6.6,4.7c1,0.3,2.4-0.9,2.6-1.9   c0.2-0.7,0.3-1.5,0.4-2.2v-2.4c-0.1-0.8-0.3-1.5-0.7-2.1C93.9,23.5,93.2,23.4,91.4,23z"/>
	<path fill="#FF6200" d="M88,60.6c1.6,0.4,2.7,0.6,4.3,0.9c0.3,0.1,1.6,0.3,2.9,0.6V47.7c-0.8,3.8-1.9,3.4-3,5.6   c-0.7,1.5-1.2,3.3-2.3,4.7c-0.4,0.4-1.1,1-2.3,1.7C87.2,60,87.8,60.6,88,60.6z"/>
	<path fill="#FF6200" d="M94,37.7c-0.5,1.9-0.1,4.4-0.4,6.4c-0.2,1.2-0.7,2.3-0.8,3.5c0.9-0.2,1.6-1.1,2.6-0.9v-9.6   c-0.2,0.1-0.4,0.2-0.6,0.2C94.5,37.4,94,37.5,94,37.7z"/>
	<path fill="#FF6200" d="M88,55.8c0.1-0.1,0.4-0.6,0.4-0.7c-1.2-1-3-1.3-4.3-2.1c-0.1-0.1-0.6-0.4-0.8-0.5c-0.8-0.8-1.1-2.6-2.5-2.8   c-0.2,0-0.5-0.1-0.5-0.5c-0.1-0.9-0.6-4-0.6-4.6c0-0.4-0.1-0.7-0.1-1.1c0-0.1,0.1-0.2,0.1-0.1c1,1.4,2.5,1.6,3.4,1.6   c1.3,0.1,2.8-0.6,3.4-1.8c0.2-0.2,0.3-1,0.9-1.2c0.7-0.3,1.5-0.7,2.1-1.2c0.2-0.1,0.5-0.8,0.6-1c0.1-0.2,0-0.3-0.2-0.3   c-1.3-0.1-2.6-0.2-3.9-0.1c-0.9,0-3.4,0-3.8,0c-0.6,0-1.3,0-1.9,0.1c-0.2,0-1.2,0.2-1.4,0.3c-1.2,0.3-2,1.2-2.1,1.7   c0,0.2,0.1,1.3,0.1,1.6c0,0.6,0.1,1.2,0.2,1.8c0.1,0.6,0,1.2,0.2,1.7c0.4,1.7,0.6,3.4,0.6,5.2c1.1,0.9,1.7,0.9,2.3,1.5   c0.7,0.7,1.1,1.5,1.4,2.5c1.7,0.5,3.3,1.6,4.6,2.6C86.5,58.3,87.6,56.5,88,55.8z"/>
	<path fill="#FF6200" d="M92,68c0.4,0.2,1.7,0.8,3.3,1.5v-4.7c-1.5-0.4-3.1-0.7-3.8-0.8c-1.1-0.2-2.3-0.5-3.3-0.7   c-0.1,0.7-0.5,2.6-0.5,2.9c0.4,0.2,0.6,0.2,0.7,0.3C89.6,66.9,90.8,67.5,92,68z"/>
	<path fill="#FF6200" d="M84.4,62.5c-0.6,0.1-1.4-0.2-2.1-0.1c-0.2,0-0.4,0.1-0.7,0.2c-0.4,0.1-1.3,0.3-1.3,0.8   c0.4,0.1,0.9,0.2,1.2,0.4c0.9,0.3,0.7,0.4,1.1,0.6c0.8,0.3,1.7,0.6,2.5,0.7c0-0.3,0-0.6,0.1-0.9c0.2-0.6,0.5-0.9,0.2-1.6   C85.3,62.5,84.7,62.4,84.4,62.5z"/>
	<path fill="#FF6200" d="M78.1,35.7c0.1,0.3,0.4,0.3,0.8,0.4c0.6,0,2.1,0,2.5-0.2c0.4-0.2,0.9,0,1.2-0.2c0.7-0.4,0-1.6-0.5-1.8   c-0.5-0.2-1-0.6-1.4-1.2c-0.3-0.3-0.7-0.8-1.2-0.9c-1.8-0.5-2.5-0.6-3.6-0.3c-0.3,0.1-1.2,0.2-0.9,0.5c0.1,0.2,0.4,0.2,0.7,0.6   c0.3,0.4,1,0.5,1.5,0.7C77.8,33.7,77.9,35.1,78.1,35.7z"/>
	<path fill="#FF6200" d="M58.3,28.4c0.3-0.1,0.3-0.5,0.2-0.8c-0.8-2.9-1.6-3-3.1-3.8c-1-0.5-1.8-0.7-2.7-0.6c-1.4,0.2-4.2,1.1-5.1,3.3   c-0.2,0.6-0.4,2.1,0.5,3.8c0.9,1.7,2.4,2.6,3.5,3.4c0.5,0.3,0.7-0.4,0.9-0.6c0.2-0.3,1.7-1.9,2.4-2.5   C55.8,29.9,58.1,28.5,58.3,28.4z"/>
	<path fill="#FF6200" d="M66.2,44.6c0.1-0.3,0.2-2.7,0.2-2.9c0-0.9-0.8-1.8-1.7-2c-0.3-0.1-1.1-0.3-2.3-0.1c-0.9,0.2-2.1,0.1-3,0   c-1.8-0.1-3.6,0.1-5.4,0.2c-0.3,0-0.2,0.5-0.2,0.6c0.7,0.8,1.5,1.4,2.5,1.9c0.6,0.3,0.6,1.2,1,1.6c0.7,0.9,1.9,1.6,3.4,1.5   c1-0.1,1.2-0.2,1.9-0.6c0.3-0.2,0.4,0,0.4,0.3c0.1,0.9,0.2,2,0.1,2.9c0,0.5,0.2,3.6-1.3,3.8c-1.1,0.4-2.8,1.4-3.6,2.6   C57.5,55.1,57,57.4,58,58c0.9,0.5,1.6-0.9,3.1-1.3c1-0.3,1-1.1,1.7-2.1c0.6-0.9,2.4-1.4,2.5-2.1c0.1-0.4,0-0.9,0-1.3   C65.5,47.6,65.7,47.1,66.2,44.6z"/>
	<path fill="#FF6200" d="M94.2,87.8c0.2-1.7-1-3.1-1.8-4.6c-0.1-0.2,0-0.3,0.2-0.3c0.6-0.1,1.1,0.1,1.6,0.2c0.5,0.1,0.8,0.2,1.1,0.2   V72.6c-1.1-0.6-2-1.1-2.4-1.4c-2.5-1.3-3.4-1.8-6.1-2.8c-0.8,0.9-1.2,2-2.2,2.6c-0.7,0.4-3.4-2-5.1-2.7c-1.2-0.6-3.4-1.2-4.8-1.4   c-0.5-0.1-0.6-0.7-0.7-1.3c-0.3-1.1-0.5-2.4-0.2-2.6c1.8-0.9,2.7-2.6,2.7-3.6c0-0.4,0.2-0.6,0.5-0.5c0.6,0.2,1.1,0.8,2,0.1   c0.7-0.5,1-1.4,0.9-2.2c-0.1-0.8-0.6-1.5-1.4-1.7c-4.1-1.4-8.3-1.3-12.3,0.2c-1.2,0.4-1.1,1.9-0.8,3c0.4,1.5,2.2,0.9,3.1,0.2   c0.5-0.3-0.1,1,0.5,2.1c0.9,1.7,2.5,2,2.5,2.4c0,1.2-0.1,1.3-0.2,2c-0.1,0.9-0.1,1.6-1.1,1.8c-2.3,0.4-4.4,1.2-6.5,2   c-1.2,0.5-2.3,1.7-3.5,1.7c-1,0-1.6-1.6-2.3-1.9c-0.7-0.3-0.8-0.4-2.1,0.1c-4.1,1.6-9.6,4.2-13.4,6.6c-0.8-0.8-0.7-1.9-0.9-2.9   c4.3-2.8,9-4.9,13.7-7.1c0.4-0.2,0.1-1.7-0.2-2.1c-0.2-0.2-2.7,0-7.8,1.3c-3.5,0.9-7,2.5-7.2,2.6c-0.2,0.1-0.4-0.4-0.4-0.7   c-0.1-0.7-0.7-1.7-0.2-2c2.5-1.3,5.2-2.1,7.8-2.8c2.7-0.7,5.3-1.3,8-1.7c0-0.2-0.1-0.9-0.2-1.1c-1-2.6-3.3-4.5-5.2-6.6   c-0.4-0.5-0.8-1-0.9-1.6c-0.1-0.9-0.8-2.2-0.5-2.5c0.4-0.3,0.7,0.2,1.5,0.4c0.1,0,0.7,0.1,0.9,0.1c-0.2-1.5-0.5-2.9-0.7-4.4   c-0.2-1.7-0.1-4.5,0.2-6.6c0.1-0.4,0.1-0.5-0.3-1c-0.3-0.4-2-1.3-2.2-1.3c-0.9-0.2-1.3-0.4-1.7-1.3c-0.9-1.7-2.3-3.3-2.3-5.3   c0.1-1.9,0.8-3.8,1.6-5.6c0.6-1.4,2.3-1.6,3.6-2.3c1.1-0.7,2.5-1.3,3.7-1.4c1.1-0.1,2.6,0.8,3.5,1.1c1,0.4,2.3,1,3.5,1.9   c1.5,1.1,2.2,2.7,3,4.3c1.2-0.1,2.1-0.1,3.4,0.1c1.9,0.2,3.6,0.8,5.3,1.4c0.2,0.1,0.7,0.4,0.8,0.4c2.7-1.9,6.1-2.9,9.4-2.5   c0.3,0,0.4,0,0.4-0.4c0.2-1.4,1.4-3.2,2-4c1.1-1.5,2.2-2.1,3.9-2.4c1.9-0.4,4.9,0.5,7.7,1.8c0,0,0,0,0,0v-5.1   c-0.7-0.1-2.1-0.6-3.2-1c-0.3-0.1-1.5-0.4-2.7-0.8c-0.8-0.3-2.8-1-3.5-1.1c-0.5,0-0.6,0.1-0.9,0.3c-0.7,0.5-1.6,1.2-2.4,1.8   c-1.1,0.8-2.2,1.8-3.5,2.4c-1.1,0.5-3.5,0.9-5.8,1.6c-0.8,0.3-1.8,0.7-2.1,0.7c-0.2,0-0.5,0.1-0.5-0.2c-0.4-1.4-0.7-2.9-0.3-4.2   c0.1-0.4,0.1-0.4-0.1-0.5c-0.9-0.7-2.6-0.6-3.6-1.4c-0.1,0.2-0.3,0.8-0.3,0.9c-0.7,1.5-1.4,3.1-2.3,4.5c-1.3-0.9-3-1.2-4.6-2.3   c-2.1-1.4-6.6-4.3-7.1-4.8c-1.8,1.4-6.4,4.4-9,5.8c-0.4,0.7-2.8,3.7-3.2,4c-0.1,0.1-0.7,0-1.9-0.7c0,0-1.7-0.9-1.9-1.1   c0.9-1.3,1.5-2.7,2.7-3.8c1.8-2.1,3.7-4.3,5.4-6c3.8-0.9,7.5-2.3,11.3-3.2c1.8,2.3,5.7,6.1,5.7,6.1c0.1,0.1,0.3,0.1,0.4,0   c0.2-0.5,0.9-3,1.6-5.2c1.5,0.5,2,0.7,3.4,1.3c0.4,0.2,1.4,0.7,1.5,0.7c0.2,0,2.5-1.4,3.1-1.7c0.8-0.4,2-1.5,2.4-0.8   c0.2,0.4,0.6,2.8,0.6,3c0,0.5,0.3,3,0.2,3.5c0.3-0.1,0.9,0,1.5-0.4c1.9-0.8,2-2.7,2.2-3.4c0.2-1.3,0.3-2.6,1.1-3.6   c0.1-0.2,2.4-0.1,3,0.2c0.6,0.3,0.1,1.4,0.2,2.2c0,0.6,0,1.8,0.2,1.8c0.5,0,1-0.1,1.3-0.4c0.5-0.4,2.9-2.6,3.2-2.9   c0.2-0.3,0.3-0.4,0.5-0.3c2.6,0.9,5.1,2.2,7.4,3.6C95,7.7,92.1,5,88.6,5H11.9c-3.7,0-6.6,2.9-6.6,6.5v77c0,3.6,3,6.5,6.6,6.5h23   c-0.2-0.7-0.8-2-1.1-2.5c-0.2-0.5-0.5-1-0.9-1.7c0.3-0.1,1.8-0.5,2-0.6c0.9-0.3,3.9-1.5,4.7-1.8c0.4-0.2,0.8-0.3,1,0.1   c0.3,0.8,0.8,2.1,1.4,2.9c-0.8,0.6-2.4,2.5-3.5,3.7h23.7c-0.3-0.8-0.4-1.7-0.4-2.3c0.1-0.7,0.4-0.8,0.3-2.3c0-0.3-0.1-0.8,0.1-0.9   c0.2-0.3,0.4,0.2,0.8,0.3c0.6,0.2,1.5,0.4,2.2,0.4c0.7,0,1.4,0.4,1.7,0.9c0.6,1.1,0.3,2.3,0.4,3.5c0,0.1,0,0.2,0,0.3h3.5   c0-0.4-0.1-0.8-0.1-1.3c-0.1-1.1-0.4-2.2-0.3-3.3c0-0.5,0.9-0.5,1.4-0.7c1.4-0.5,2.5-0.8,3.6-1.3c0.2,2.1,0.2,4.6-0.2,6.2   c0,0.2-0.1,0.3-0.1,0.4h3.8c0-0.3,0-0.8,0-1.4c-0.2-0.8-0.3-2.4-0.4-4.1c0-0.4,2.1-1.4,3.3-2.1c0.3-0.2,1-0.9,1-0.4   c0,2.2-0.2,4.3,0.1,6.5c0.1,0.5,0.2,1.1,0.4,1.6h5.4c0.1,0,0.2,0,0.3,0c-0.9-1.1-2.5-4-2.8-4.8c-0.4-1.2-0.2-3.6,0.3-4.9   c0.2-0.4,0.8,0,1.2,0.2c0.9,0.4,1.1,0.5,1.9,0.9c0.5,0.2,0.1,0.4,0.2,1.3c0.1,1.2,0.6,1.9,0.7,2.3c0.1,0.4,0.4,2.2,1.5,4.1   c2-1.1,3.3-3.2,3.3-5.6v0C94.8,88.3,94.5,88.3,94.2,87.8z M41,45.3c0,0.7-0.7,0.7-1.5,1.3c-0.4,0.3-4.8,3.5-5.1,3.8   c-0.5,0.5-1.1,0.9-2.1,2c-0.5-1-0.8-2.2-0.9-3.3c0-0.3,0-3.2,0.1-4.3c0.1-0.7,3.6-2,5.7-2.4c1-0.2,3.9-0.7,4.3,0.1   C41.9,43.1,41.2,43.2,41,45.3z M35.5,32.7c-0.3-1.7-0.9-3.2-0.9-4.7c0-1.1,0.1-2.3,0.3-3.5c0-0.3,0.5-0.4,0.7-0.5   c1.2-0.3,3-0.7,3.3-0.7c0.2,0,0.5,0,0.7,0.1c0,0.3,0,0.5-0.1,0.8c-0.2,1.1-0.4,2.2-0.6,3.2c-0.1,0.3-0.2,1.9-0.1,2.4   c0,0.5,1,2.6,1.3,3.2c0.5,1,0.8,1.8,0.9,2.6c0,0.3-0.3,0.8-0.8,1.1c-1.3,0.7-1.5,0.5-2,1c-2,2-2.9,2.6-4.4,3.9   c-0.6,0.6-0.9,0.9-1.6,1.7c-0.1,0.1-0.3,0-0.3-0.2c-0.3-2.2,0.1-4.3-0.4-6.4c1.1-0.8,2.1-1.7,3.3-2.4c0.1-0.1,0.7-0.4,0.8-0.4   C35.7,33.7,35.6,33.1,35.5,32.7z M29.3,64.9c0-0.3-0.3-2.8-0.5-3.9c-0.1-1.2-0.2-1.5-0.3-3.7c2-1.2,3-2.1,4.7-3.2   c0.7-0.4,1.9-0.8,3.1-1.4c1-0.4,1.7-0.8,2.9-1.2c0.5-0.2,1.6-0.8,1.6-0.3c0,1.4-0.1,2.8-0.3,4.1c0,0.3,0,0.3-0.5,0.5   c-4,2-5.4,3.8-6.3,4.7c-1.4,1.5-3.5,3.8-4.3,5.2C29.3,65.4,29.3,65.2,29.3,64.9z M31.8,81.2c-0.2-0.6-0.5-1.4-0.8-2.4   c-0.3-1.1-0.6-2.1-0.8-3.4c-0.2-1.3-0.6-5.6-0.6-6.2c-0.1-1.1,0-2,0.3-2.1c1.9-0.5,3.4-2.1,5-2.8c0.2-0.1,0.1,0.8,0,1.2   c-0.2,0.5-0.9,3.4-0.8,4.7c0.1,0.7,0.7,3.4,1.3,5.8c0.1,0.4,0.1,0.3-0.1,0.7c-0.6,1.1-1.7,2.8-2.3,3.7   C32.4,80.9,31.9,81.5,31.8,81.2z M34.6,87.4c-0.3,0.5-0.2,0.9-0.5,1.4c-0.1,0.1-0.6,0.3-0.7,0c-0.2-0.7-0.2-1.7-0.4-2.3   c-0.3-0.9-0.2-1.5-0.4-2.1c-0.2-0.8-0.5-1.3-0.8-2c0.8-0.3,1.5-0.7,2.1-1.2c0.6-0.5,2.5-1.9,2.9-2.1c0.6-0.4,1.2-0.8,1.3-0.3   c0.2,1.4,0.5,2.4,1,3.6C38.7,82.8,36.3,85,34.6,87.4z M50.3,90c-1.3-0.7-2.6-1.2-3.7-1.8c-0.6-0.3-1.3-0.9-1.4-1.3   c-0.1-0.3-0.5-0.9-0.6-1.7c-0.1-0.8-0.1-2.7-0.1-3.1c0-0.6,0-2.2,0.1-3.2c0.1-0.6,0.8,0,1.3,0.2c0.9,0.4,2,0.7,2.4,1.5   c0.7,1.1,0.1,2.6,0.4,3.9c0.5,1.8,1.5,3.5,2,5.3C50.8,90.1,50.5,90.1,50.3,90z M57.8,89.4c-0.1,0.5-0.4,0.9-0.5,1.4   c-0.2,0.7-0.3,1.4-0.6,2c-0.7-1.2-1.1-2.6-1.7-3.9c-0.5-1.1-1.1-2-1.9-3c0.3-0.6,0.3-1.2,0.3-1.8c0-0.3,0-0.6,0-0.9   c0-0.5,0.1-0.9,0.5-1.2c0.4-0.3,1.1,0.4,1.6,0.7c1,0.6,1.7,1.3,2,2.3c0.3,0.7,0.1,1.2,0.3,2c0,0.1,0.2,0.5,0.3,0.5   C58.1,88.2,57.9,88.7,57.8,89.4z M82,77.7c-0.2,0.4-1,2.1-1.5,2.9c-1.3-1.5-2.4-2.6-3.4-3.2c-0.1,0-0.2,0-0.3,0.1   c0.1,1.3,0.1,2.8-0.4,3.9c-0.2,0.4-0.5,0.6-0.9,0.8c-0.2,0.1-1.2,0.2-1.4,0.2c-0.4,0-0.8,0-1.1,0c-1.1-0.3-0.8-2.1-1.5-3.2   c-0.1-0.2-0.3-0.6-0.6-0.6c-0.2,0.2-0.3,0.3-0.3,0.5c-0.1,0.1-0.7,1.8-1,2.6c-0.1,0.3-0.4,0.8-1,0.7c-1.6-0.5-2.6-0.1-2.8-1.2   c-0.3-1.2-0.2-2-0.1-3.4c0-0.6,0-0.9,0.1-1.4c0-0.2-0.1-0.3-0.3-0.1c-1.2,0.7-1.7,1.7-2.8,2.4c-0.3,0.3-0.7-0.6-0.9-0.9   c-0.9-1.4-1.4-2.9-1.6-4.7c0.4-0.2,2.2-0.9,2.5-1c6.5-2.3,14-2.5,20.1,0.9C82.9,74.4,82.6,76.1,82,77.7z"/>
	<path fill="#FF6200" d="M58.9,62.7c-0.2,0.1-0.5,0.3-0.4,0.8c0,0.1,0.1,0.5,0.1,0.6c0,0.1,0,0.5,0.4,1.1c1.1-0.4,1.5-0.6,2.3-1   c0.3-0.1,0.7-0.2,1-0.3c0.4-0.2,0.8-0.6,1.1-1.1c-0.8-0.2-1.5-0.4-2.4-0.3C60.2,62.4,59.5,62.3,58.9,62.7z"/>
	<path fill="#FF6200" d="M69,32.3c0.2-0.2,0.1-0.4-0.2-0.5c-0.9-0.2-1.6-0.2-2.3,0c-0.9,0.3-2,0.9-3.3,1.8c-1.2,0.9-2,1.6-2,2.7   c0.3,0,1.8,0,2.2,0c1.7,0.1,2.3,0.6,3-0.4C67.4,34.7,68,33.5,69,32.3z"/>
</svg>