<svg xmlns="http://www.w3.org/2000/svg" viewBox="0 0 600 600">
    <circle cx="300" cy="300" r="300" fill="#27e9cf" />
    <path
        d="M64 329.7v-99.3h17.4v99.3H64zm62.1-72a36.8 36.8 0 0 0-37.8 36.9c0 22 16.8 37.1 38 37.1a36.5 36.5 0 0 0 37.5-37.1 36.8 36.8 0 0 0-37.7-36.9zm-.2 16.8a20 20 0 0 1 20.3 20.1c0 11.7-9.5 20.2-20 20.2a19.9 19.9 0 0 1-20.2-20.1c0-11.3 8.8-20.2 19.9-20.2zm81.7-16.8a36.8 36.8 0 0 0-37.8 36.9c0 22 16.8 37.1 38 37.1a36.5 36.5 0 0 0 37.5-37.1c0-13.1-5.7-18.9-5.7-18.9l4.8-1.7v-14.2h-24.8s-5.3-2.1-12-2.1zm-.2 16.8a20 20 0 0 1 20.3 20.1c0 11.7-9.5 20.2-20 20.2a19.9 19.9 0 0 1-20.2-20.1c0-11.3 8.8-20.2 19.9-20.2zm20.1 60.1a20.1 20.1 0 1 1-40.2 0h-17.7c0 22 16.8 37.1 38 37.1a36.5 36.5 0 0 0 37.5-37.1h-17.6zm24.7-4.9v-69.9h17.4v69.9h-17.4zm34.4 0v-54.3h-9.3v-15.6h9.3v-21.5H304v21.5h9.6v15.7H304v54.3h-17.4zm-14.1-89.8a11.5 11.5 0 1 1-23 0 11.5 11.5 0 0 1 23 0zm80.3 17.8a36.1 36.1 0 0 0-36.9 37.5c0 21 14.5 36.5 37.3 36.5a41.5 41.5 0 0 0 31.7-13.3l-11.7-11.7s-8.8 9.5-19.8 9.5c-9.2 0-16.5-5.1-19.1-14.5h54.3v-4.8c.1-19.1-11-39.2-35.8-39.2zm-.5 15.3c8 0 16.2 4.3 18.1 14.6h-36.5a18.1 18.1 0 0 1 18.4-14.6zm80 58.7a37 37 0 1 1-.1-74.1c19.8 0 29.9 14 29.9 14l-12.2 12.1s-7-9.1-17.8-9.1a19.6 19.6 0 0 0-20.1 20c0 11.5 8.7 20.2 20 20.2 10.9 0 17.9-9.1 17.9-9.1l12.3 12.1c0 .1-10 13.9-29.9 13.9zm36.2-1.9v-99.6h17.4v36.6s6.7-9.1 21.2-9.1c18.3 0 28.8 13.6 28.8 30.9v41.2h-17.4v-38.6c0-11.7-7.3-16.5-15.3-16.5-9.2 0-17.3 5.2-17.3 17.4v37.6h-17.4z" />
</svg>