<svg xmlns="http://www.w3.org/2000/svg" viewBox="0 0 140 140">
  <path fill="#6DC5DC" d="M0 0h140v140H0V0z" />
  <g fill="#654E44">
    <path d="M99.417 53.351l.001.004.001.001zM37.247 98.829l-.001-.001h-.001zM32.46 95.346l.001.001v-.001zM32.463 95.349l.001.001-.003-.003zM29.928 91.347l-.003-.007h-.001zM29.674 90.696v-.002l-.001-.001zM32.917 95.83l.006.006-.008-.008-.005-.004z"/>
    <path d="M117.573 90.665a5.871 5.871 0 0 0-.101-.484 2.255 2.255 0 0 0-.095-.295 4.628 4.628 0 0 0-.255-.649l-.002-.004a3.906 3.906 0 0 0-.87-1.15 3.72 3.72 0 0 0-1.166-.714l-.013-.006a4.107 4.107 0 0 0-1.195-.251c-.106-.006-.206-.004-.305-.003.213-2.005-.541-3.422-.996-4.071l.077-.091c.427-.53.784-1.029 1.075-1.523l.054-.099a4.362 4.362 0 0 0 .502-2.166h.003l.001-.016-.003-.039.001-.084-.006.001-.006-.093h.002l-.005-.056c-.006-.055-.01-.112-.018-.172a4.621 4.621 0 0 0-.048-.35 5.852 5.852 0 0 0-.81-2.171 5.152 5.152 0 0 0-.993-1.157 5.243 5.243 0 0 0-1.466-.893l.003.001-.109-.048c-1.277-1.455-2.662-2.534-3.872-3.332a26.907 26.907 0 0 0-1.698-1.027c-.489-.272-.896-.484-1.126-.613l.003.001a10.196 10.196 0 0 0-1.092-.536 11.721 11.721 0 0 1-.933-.457 1.699 1.699 0 0 1-.255-.17l-.018-.016c-.002-.003-.021-.031-.055-.135a3.783 3.783 0 0 1-.124-.543c-.07-.41-.13-1.016-.184-1.819-.088-1.291-.163-3.079-.311-5.496a20.21 20.21 0 0 0-.239-2.162 14.419 14.419 0 0 0-.781-2.91l-.001-.005a11.464 11.464 0 0 0-.243-.577l-.001-.002.001-.002c-.065-.14-.118-.245-.152-.313l.002.004a8.773 8.773 0 0 0-.193-.372l-.003-.006c-.034-.06-.076-.138-.133-.236l-.002-.002-.001-.002a9.235 9.235 0 0 0-.371-.588l-.04-.056-.073-.098-.05-.065a9.934 9.934 0 0 0-.815-.908 17.088 17.088 0 0 0-.971-2.21 13.307 13.307 0 0 0-1.651-2.449 9.677 9.677 0 0 0-.812-.824l.074-.099c.105-.141 2.591-3.49 4.347-7.653 3.272-7.76 1.332-12.014-.87-14.217l-.061-.061-.066-.057c-2.084-1.807-4.726-2.724-7.853-2.724-6.478 0-13.302 4.028-15.083 5.152l-3.91-3.371-.015-.013a6.635 6.635 0 0 0-1.116-.77 6.978 6.978 0 0 0-1.247-.534c-.869-.279-1.8-.405-2.774-.406-1.953.002-4.086.501-6.361 1.396-3.409 1.346-7.145 3.597-10.971 6.591-3.824 2.995-7.731 6.734-11.438 11.067-4.529 5.294-8.138 10.745-10.63 15.803-1.246 2.529-2.214 4.961-2.874 7.235-.659 2.276-1.015 4.393-1.016 6.312 0 1.394.189 2.688.613 3.85.185.509.421.99.702 1.438a6.691 6.691 0 0 0 1.319 1.544l.013.011 4.07 3.325.45.368-.017.043c-.034.081-.065.163-.098.244-.048.122-.096.243-.141.365-.03.083-.058.167-.087.251a16.287 16.287 0 0 0-.2.626 12.71 12.71 0 0 0-.106.382c-.022.085-.044.169-.064.254a13.13 13.13 0 0 0-.212 1.05l-.02.111-.021.143c-.02.138-.036.276-.052.415-.01.083-.021.166-.029.25l-.016.181-.018.257c-.005.078-.012.155-.015.233-.009.173-.012.348-.014.522-.001.051-.004.102-.004.153v.014l.002.046c0 .113.004.228.007.342a13.921 13.921 0 0 0 .043.777c.005.061.007.123.013.185.012.125.029.251.044.377l.028.228c.006.045.01.09.017.135l.001.016.002.01.038.242c.015.089.034.175.05.263.011.065.021.131.034.195l.03.138c.017.083.036.165.055.247.02.094.043.194.071.309l.002.009-.001-.002.03.109c.024.093.051.185.077.277.022.082.048.175.083.289l.038.119.055.164.001.004.003.008.023.069c.025.075.056.171.102.3.012.035.022.057.033.087.031.081.055.144.073.187l.032.083.035.091.031.076.026.065.023.058.033.076.031.078c.027.061.056.121.084.182.031.071.073.166.132.293l-.01-.02.011.024c.015.03.024.05.038.075l.113.226.003.004v.001c.035.068.085.17.154.3l.001.002.002.003-.002-.003.007.012-.003-.006.03.053c.044.081.079.143.106.19l.034.06.006.01.068.12.092.158-.003-.005.036.057.093.15.068.107-.003-.004.004.006.003.005-.003-.005c.041.066.094.151.164.255l.006.01.004.005.03.044.084.121.095.134.005.008c.037.053.09.129.162.228l.005.007.005.007.029.038.085.111.121.155.009.012.003.003c.034.042.086.111.159.201l.007.008.021.026.104.123.137.16-.007-.008c.043.049.102.119.182.208l.007.008.004.005-.008-.009.008.01.007.007-.001-.002.003.003.001.001a13.067 13.067 0 0 0 .262.281l-.003-.003.16.167.015.014a9.104 9.104 0 0 0 .305.299l.018.018.131.124.025.023v.001l.009.008.013.012c.082.075.157.14.231.205l.079.071.002.001.003.003.006.005-.002-.002c.036.032.082.072.137.118l.018.016.002.001.002.002.01.008-.002-.002c.089.075.175.144.262.212l.107.086.005.004.128.101.012.009.04.032c.104.08.212.155.318.232l.026.019.006.004.003.002.004.002.134.095.008.005c.137.094.273.184.409.271l.008.005.077.049.053.034-.003-.002.078.047c.114.07.227.139.335.201l.03.018.014.008c.042.024.072.04.089.051l.022.012.015.008.095.051c.095.052.19.103.285.152l.081.043.01.004.099.051.004.002.05.024c.096.049.198.096.3.144.053.025.102.05.157.075l.086.039.049.021.032.014c.158.069.306.132.44.185l.013.005.083.033.006.003c.185.072.362.136.528.194l.029.01.091.03v-.001c.09.03.177.056.265.083l.125.04c.051.015.103.034.154.048l.043.013.012.003.021.006c.085.024.169.044.253.067l.043.01c.095.025.19.052.285.075l.023.005.069.015.134.028.042.009c.135.03.269.06.406.086l.032.005.011.002.006.002c.21.038.418.071.627.1l.008.001.034.004-.011-.001c.184.025.364.043.543.061h.002l.066.009.064.007c.17.016.343.024.516.032l.05.007.122.004c.104.004.208.005.312.006l.059.114.003.006c.374.728.771 1.449 1.19 2.162 6.449 12.682 20.994 21.326 36.365 21.326 15.37 0 30.276-12.069 35.17-26.483.218-.555.414-1.098.588-1.622.569-.753.99-1.513 1.235-2.294.295-.919.317-1.85.186-2.593z"/>
  </g>
  <path fill="#8F694C" d="M115.176 91.249l.001-.001s.006-.627-.389-1.14l-.009-.014c-.023-.031-.048-.058-.073-.085l-.025-.03a1.576 1.576 0 0 0-.141-.126 1.563 1.563 0 0 0-.515-.28 2.3 2.3 0 0 0-.695-.111 3.867 3.867 0 0 0-.657.052c-.096.015-.191.03-.295.052l-.048.009.026.061.068.169.036.093c.051.132.114.301.18.492-.001.002-.008.042-.03.117l-.011.04c-.085.294-.332.98-.955 1.908-.106.158-.224.324-.354.496-1.767 2.349-5.788 5.88-14.818 8.698-3.079.832-5.967 1.216-8.473 1.216-3.707 0-6.588-.826-8.054-2.236a6.609 6.609 0 0 1-.601-.665c-.028-.036-.053-.073-.08-.109a6.044 6.044 0 0 1-1.15-2.945c-.137-1.241.102-2.475.643-3.468.439-.805 1.075-1.451 1.869-1.812a3.515 3.515 0 0 1 1.273-.312c.093-.006.216-.008.37-.008.307 0 .738.008 1.267.009h.176c1.76 0 4.553-.083 7.866-.702 6.028-1.126 13.785-4.03 20.23-11.478l.016-.028v-.001l-.002-.011c-.043-.551-.239-1.532-1.027-2.216a2.798 2.798 0 0 0-.47-.328 2.76 2.76 0 0 0-.318-.155 5.751 5.751 0 0 1-.32-.142 5.828 5.828 0 0 1-.388-.196l-.018-.021c-.059-.071-.121-.138-.18-.209-2.238-2.618-5.037-3.951-6.166-4.581a7.228 7.228 0 0 0-.863-.423c-2.41-1.086-2.795-1.498-3.047-5.229-.09-1.344-.164-3.115-.311-5.512a20.882 20.882 0 0 0-.076-.896l-.023-.204c-.032-.273-.068-.54-.109-.794l-.013-.073-.015-.078a18.767 18.767 0 0 0-.171-.829c-.047-.2-.098-.395-.153-.582-.028-.095-.058-.187-.088-.279a13.56 13.56 0 0 0-.209-.596v-.002.001c-.045-.116-.093-.224-.14-.334-.017-.04-.033-.081-.051-.12a5.188 5.188 0 0 1-.051-.107l-.015-.033-.051-.104-.003-.007c-.042-.083-.085-.164-.127-.244l-.014-.026-.042-.075-.051-.092-.01-.018-.002-.002a6.215 6.215 0 0 0-.269-.426l-.071-.098a7.34 7.34 0 0 0-.311-.366l-.043-.049-.052-.053a4.87 4.87 0 0 0-.224-.229l-.101-.099a6.89 6.89 0 0 0-.294-.261v-.001l-.005-.014-.005-.018-.007-.024-.01-.034-.01-.035-.018-.056-.01-.033-.026-.078-.009-.028c-.049-.148-.117-.34-.204-.566l-.006-.017-.068-.171-.009-.022-.077-.19-.002-.004a14.712 14.712 0 0 0-.472-1.009c-.035-.07-.074-.139-.113-.21a12.035 12.035 0 0 0-.191-.343l-.136-.227c-.07-.114-.141-.227-.216-.34-.051-.077-.101-.154-.155-.23a8.949 8.949 0 0 0-.25-.339c-.055-.072-.11-.144-.168-.216a8.421 8.421 0 0 0-.306-.354c-.053-.057-.103-.118-.157-.175-.048-.05-.101-.094-.15-.143-.119-.117-.235-.236-.363-.344l-.015-.012-.07-.053a5.9 5.9 0 0 0-.514-.387l-.032-.022a5.082 5.082 0 0 0-.243-.148l-.01-.006-.029-.016a4.515 4.515 0 0 0-.217-.116l-.038-.02.015.01a2.197 2.197 0 0 0-.394-.151l-.205-.058a12.437 12.437 0 0 0-1.437-.277l-.109-.014a16.435 16.435 0 0 0-2.142-.14c-.091 0-.183.007-.275.008l-.111.004a12.45 12.45 0 0 0-1.316.097l-.026.004a9.144 9.144 0 0 0-1.654.368c.1-.227.415-.503.736-.74.399-.296.806-.53.806-.53a9.014 9.014 0 0 0-.736.186c-.08.024-.16.045-.239.07l-.154.049-.045.015-.128.044c-1.229.426-2.388 1.031-3.029 1.391-.092.051-.172.097-.24.137l-.042.024c-.065.017-.134.036-.2.052l.002-.002a3.925 3.925 0 0 1 1.584-1.903c.093-.058.181-.111.262-.153l.083-.042a3.122 3.122 0 0 1 .411-.177c-.059.009-.114.024-.172.034l-.148.03-.216.043c-.043.01-.087.016-.13.026-1.377.325-2.56.953-3.551 1.673a12.989 12.989 0 0 0-1.771 1.556l-.436.15a60.968 60.968 0 0 0-4.942 1.943 48.04 48.04 0 0 0-1.977.94 43.664 43.664 0 0 0-2.668 1.478c-2.658 1.607-5.225 3.62-7.277 6.147-.074.091-.152.178-.224.27-.178.227-.347.463-.517.698-.069.096-.143.187-.21.284-.085.121-.161.25-.243.373-.371.56-.725 1.136-1.042 1.742-.236.45-.455.914-.657 1.39l-.026.057a18.953 18.953 0 0 0-1.015 3.155 19.92 19.92 0 0 0-.374 2.182l-.01.083a21.75 21.75 0 0 0-.122 1.96c-.002.133-.007.263-.008.397a25.01 25.01 0 0 0 .082 1.97l.006.073c.013.157.024.314.04.473.018.181.043.366.065.55l.015.129c.046.36.097.722.159 1.091l.011.059a28.557 28.557 0 0 0 .316 1.582l.025.115.062.263c.099.414.208.833.327 1.257l.099.354c.108.37.221.744.344 1.123 0 0-.13-.489-.178-1.227a8.442 8.442 0 0 1-.018-.547c0-.422.032-.892.125-1.383a6.271 6.271 0 0 1 .124-.524c.062-.228.137-.458.23-.687.048.15.096.298.146.448l.016.048.008.071.035.305a49.233 49.233 0 0 0 .232 1.709c.213 1.371.538 3.02 1.012 4.399 0 0-.264-2.582.135-2.928 0 0 1.355 4.674 2.286 6.386.121.222.234.396.337.502l-.077-.471-.43-2.638-.019-.274a50.173 50.173 0 0 0 2.933 4.009c-1.167 1.315-2.176 3.096-2.804 5.154a15.324 15.324 0 0 0-.395 1.599l-.034.188c-.025.14-.049.28-.07.421l-.032.217c-.019.141-.036.283-.052.426-.008.067-.016.133-.022.201-.02.204-.037.409-.048.616l-.001.019c-.012.207-.018.416-.022.626v.203c-.001.149.001.299.005.449.002.076.004.153.008.229.006.151.014.303.025.455l.015.206c.018.219.041.439.069.659l.004.028a15.24 15.24 0 0 0 .17 1.023l.013.069.008.044c.044.208.092.417.144.626l.053.198c.038.143.077.286.119.43a19.919 19.919 0 0 0 .202.632l.09.252c.045.127.093.255.143.382.034.085.067.171.102.256.052.127.107.255.164.382.037.084.074.168.113.252.061.132.125.263.19.395.039.079.077.158.117.236.075.145.154.29.234.435.036.065.069.129.106.194.239.419.5.837.785 1.252.042.061.087.123.131.184.103.146.206.291.314.435l.174.226c.101.13.203.26.309.39.065.081.133.16.201.24a17.96 17.96 0 0 0 .882.981l.232.24c.123.124.25.248.378.371.078.075.155.151.235.226.143.134.291.267.441.4.07.062.138.125.21.187.224.194.453.388.691.579v-.001a5.363 5.363 0 0 1-.35-.449l-.007-.009a5.733 5.733 0 0 1-.12-.175l-.012-.018a6.52 6.52 0 0 1-.135-.21l-.008-.013a6.753 6.753 0 0 1-.149-.252c-.404-.709-.835-1.708-.94-2.868.14.146.281.286.423.429a43.63 43.63 0 0 0 .934 1.368c.378.531.815 1.118 1.284 1.702a21.074 21.074 0 0 0 1.785 1.985v-.001c-.003-.004-.78-1.214-1.092-2.033-.087-.23-.14-.431-.126-.563l.168.135.168.135.421.434.081.083.252.257.005.005.322.324c1.006 1.007 2.337 2.29 3.259 2.97.307.227.568.387.756.448l-1.453-1.98c2.96 1.853 14.402 3.282 24.939-1.211a32.155 32.155 0 0 0 5.949-3.313l.104-.076c.502-.361.996-.743 1.484-1.141l.01-.009a29.55 29.55 0 0 0 2.83-2.641l.002-.001.002-.002a26.21 26.21 0 0 0 3.301-4.544l.037-.061c.117-.208.234-.416.345-.62l.032-.06c.037-.069.068-.137.104-.205.155-.295.307-.589.449-.88l.101-.21c.073-.154.142-.308.212-.46.053-.119.106-.237.156-.354l.166-.383c.096-.231.188-.46.276-.686l.101-.266c.067-.176.131-.35.192-.522l.084-.24.025-.075c.076-.217.148-.432.216-.642l.013-.045c.311-.372.545-.718.728-1.044.026-.046.054-.093.078-.139.402-.769.484-1.41.424-1.968zM48.914 91.465l-.045-.145.009-.004a25.67 25.67 0 0 1-.564-2.128c-.011-.052-.025-.101-.036-.153-.118.053-.235.232-.346.468a4.7 4.7 0 0 0-.12.287c-.283.74-.496 1.743-.496 1.743-.014-.325-.02-.663-.022-1.003v-.118c-.001-.346.004-.697.012-1.045l.003-.125c.011-.392.026-.783.045-1.161l.007-.145.002-.025.007-.132.01-.194c.018-.299.036-.589.055-.865.018-.249.036-.484.054-.706l.006-.071.008-.1.009-.099.001-.012.014-.166.001-.014.014-.144.02-.226.002-.021.016-.169.021-.212.001-.002v-.002l.01-.106.001-.007.01-.093.019-.182.005-.044.002-.016.006-.051.004-.036.001-.005-.005.005-.065.077c-.06.067-.12.132-.174.205l-.058.082a3.55 3.55 0 0 0-.178.283l-.029.049a5.182 5.182 0 0 0-.186.382v.001l-.007.017v.001l-.022.057-.038.096c-.031.081-.065.16-.094.242l-.001.002-.001.003-.002.007-.01.031-.01.031a9.074 9.074 0 0 0-.335 1.34c-.018.098-.032.191-.045.273a8.05 8.05 0 0 0-.049.384v.006l-.005.045v-.001.001l-.002-.052c-.008-.103-.008-.205-.013-.307-.011-.216-.024-.432-.027-.646-.003-.181.003-.359.006-.539l.003-.169c.002-.083.002-.165.006-.248.003-.077.01-.154.015-.23v-.006l.005-.085.002-.023.017-.281.007-.108.006-.065v-.012l.008-.092.012-.112c.014-.137.03-.272.045-.408l.002-.023c.011-.101.02-.202.033-.302l.001-.004.002-.007.004-.029c.027-.205.06-.407.092-.61l.008-.056.009-.056c.006-.038.011-.077.018-.115.056-.33.118-.656.187-.976l.01-.04c.059-.272.121-.54.187-.805l.007-.03c.03-.117.062-.229.093-.344l.005-.018c.047-.172.091-.345.139-.512l.002-.002v-.002l.006-.021c.012-.042.043-.144.091-.293l.001-.003.006-.02v-.001l.054-.176.087-.284.026-.083.001-.004.537-1.33.066-.167.011-.027.027-.069.175-.44.245-.61a124.325 124.325 0 0 1 .461-1.13l.004-.01h-.002l-.002-.002-.008-.004a12.43 12.43 0 0 0-.629-.3 17.59 17.59 0 0 0-2.519-.898 15.378 15.378 0 0 0-.971-.232c-.085-.018-.176-.029-.263-.045a11.78 11.78 0 0 0-.86-.126l-.016-.002c-.2-.022-.4-.047-.605-.059-.16-.01-.32-.02-.483-.022-.078-.001-.156.003-.234.005-.077.002-.154.003-.23.006-.217.008-.433.024-.649.046-.105.01-.21.02-.315.035a11.96 11.96 0 0 0-1.367.288l-.08.027a11.6 11.6 0 0 0-2.985 1.308c-.066.041-.131.084-.196.126-.08.052-.16.102-.238.156a11.692 11.692 0 0 0-1.904 1.63l-.021.022a11.735 11.735 0 0 0-2.517 4.145c-.054.153-.106.308-.153.463l-.025.089a11.65 11.65 0 0 0-.47 3.823l.004.081a11.416 11.416 0 0 0 .114 1.15l.017.1c.026.164.053.327.086.489l.019.085.025.112c.027.128.054.255.086.38l.008.028.002.008v.001l.053.188c.031.113.06.227.094.337.025.081.053.159.079.24.035.103.068.208.105.311.031.084.064.166.096.248l.022.058.034.086.026.065.031.079c.036.085.075.169.113.254.039.089.079.179.12.267.041.086.085.17.129.255l.034.068c.031.061.061.122.094.183.046.086.096.171.144.257.044.078.088.156.134.234l.081.129.081.128.139.218c.058.087.12.172.18.257.047.066.093.134.142.2.064.087.132.172.199.258l.143.181c.071.087.144.171.217.255l.144.166c.077.085.157.169.236.253a8.71 8.71 0 0 0 .401.399 8.198 8.198 0 0 0 .417.379l.134.115a8.832 8.832 0 0 0 .429.344c.105.08.213.159.321.236l.122.086a20.393 20.393 0 0 0 .458.301c.121.075.242.148.365.22l.106.06c.127.071.256.14.386.207l.097.049c.134.068.27.134.408.196l.087.038c.142.065.285.123.43.182l.076.031c.149.058.299.113.451.165l.065.021c.156.053.313.102.471.148l.056.017c.162.045.325.087.489.128l.045.01c.168.04.337.076.509.108l.035.007c.083.015.167.026.251.04l.274.044.026.004c.179.024.36.044.541.059l.016.002h.003c.184.016.368.027.553.033l.008.002c.569.02 1.147 0 1.728-.065.138-.015.277-.03.416-.049a11.596 11.596 0 0 0 1.348-.294 14.294 14.294 0 0 0 1.73-.611c1.005-.433 1.876-.951 2.375-1.43 0 0-.561-1.56-1.07-3.152l-.165-.526zM91.625 47.009l.002.001-.005-.003z"/>
  <path fill="#FBE8CC" d="M115.176 91.249l.001-.001s.006-.627-.389-1.14l-.009-.014c-.023-.031-.048-.058-.073-.085l-.025-.03a1.576 1.576 0 0 0-.141-.126 1.563 1.563 0 0 0-.515-.28 2.3 2.3 0 0 0-.695-.111 3.867 3.867 0 0 0-.657.052c-.096.015-.191.03-.295.052l-.048.009.026.061.068.169.036.093c.051.132.114.301.18.492-.001.002-.008.042-.03.117l-.011.04c-.085.294-.332.98-.955 1.908-.106.158-.224.324-.354.496-1.767 2.349-5.788 5.88-14.818 8.698-3.079.832-5.967 1.216-8.473 1.216-3.707 0-6.588-.826-8.054-2.236a6.609 6.609 0 0 1-.601-.665c-.028-.036-.053-.073-.08-.109a6.044 6.044 0 0 1-1.15-2.945c-.137-1.241.102-2.475.643-3.468.439-.805 1.075-1.451 1.869-1.812a3.515 3.515 0 0 1 1.273-.312c.093-.006.216-.008.37-.008.307 0 .738.008 1.267.009h.176c1.76 0 4.553-.083 7.866-.702 6.028-1.126 13.785-4.03 20.23-11.478l.016-.028v-.001l-.002-.011c-.043-.551-.239-1.532-1.027-2.216a2.798 2.798 0 0 0-.47-.328 2.76 2.76 0 0 0-.318-.155 5.751 5.751 0 0 1-.32-.142 5.828 5.828 0 0 1-.388-.196l-.018-.021c-.059-.071-.121-.138-.18-.209-2.238-2.618-5.037-3.951-6.166-4.581a7.228 7.228 0 0 0-.863-.423c-2.41-1.086-2.795-1.498-3.047-5.229-.09-1.344-.164-3.115-.311-5.512a20.882 20.882 0 0 0-.076-.896l-.023-.204c-.032-.273-.068-.54-.109-.794l-.013-.073-.015-.078a18.767 18.767 0 0 0-.171-.829c-.047-.2-.098-.395-.153-.582-.028-.095-.058-.187-.088-.279a13.56 13.56 0 0 0-.209-.596v-.002.001c-.045-.116-.093-.224-.14-.334-.017-.04-.033-.081-.051-.12a5.188 5.188 0 0 1-.051-.107l-.015-.033-.051-.104-.003-.007c-.042-.083-.085-.164-.127-.244l-.014-.026-.042-.075-.051-.092-.01-.018-.002-.002a6.215 6.215 0 0 0-.269-.426l-.071-.098a7.34 7.34 0 0 0-.311-.366l-.043-.049-.052-.053a4.87 4.87 0 0 0-.224-.229l-.101-.099a6.89 6.89 0 0 0-.294-.261l-.001-.001a6.474 6.474 0 0 0-.358-.275 4.386 4.386 0 0 0-.393-.16c-.042-.016-.084-.026-.126-.039a3.175 3.175 0 0 0-.255-.074c-.049-.012-.097-.02-.146-.03a3.686 3.686 0 0 0-.226-.039c-.05-.006-.1-.01-.149-.014a3.156 3.156 0 0 0-.928.058 6.117 6.117 0 0 0-.131.028l-.093.026c-.043.013-.086.024-.13.038a3.442 3.442 0 0 0-.368.135l-.075.03a5.33 5.33 0 0 0-.658.347l-.071.046a6.693 6.693 0 0 0-.251.162l-.094.068a8.532 8.532 0 0 0-.226.162l-.101.078a6.894 6.894 0 0 0-.221.171l-.099.08c-.077.062-.153.125-.229.19l-.085.071a17.08 17.08 0 0 0-.258.223l-.052.044-.291.259-.004.004-.015.012h.001c-.182.162-.364.327-.548.492-.154.139-.311.278-.469.416l-.077.068c-.16.138-.322.275-.484.41l-.081.067c-.164.132-.328.262-.497.386l-.087.064a11.2 11.2 0 0 1-.514.356l-.087.055c-.176.113-.358.22-.542.317l-.077.04a7.01 7.01 0 0 1-.584.27l-.053.02a5.63 5.63 0 0 1-.643.213 8.73 8.73 0 0 1-1.12.21 12.34 12.34 0 0 1-1.869.091 19.38 19.38 0 0 1-.635-.028l-.226-.012a39.306 39.306 0 0 1-1.676-.159l-.71-.081a83.174 83.174 0 0 0-1.154-.124c-.076-.007-.151-.017-.227-.024h.003l-.163-.014c-.085-.008-.171-.015-.255-.024l-.245-.018-.042-.004-.029-.002a22.31 22.31 0 0 0-.747-.043c-.052-.003-.104-.003-.155-.004a16.741 16.741 0 0 0-.584-.008h-.014c-.113 0-.225.001-.337.004l-.223.007a3.48 3.48 0 0 0-.102.005l-.231.012a8.41 8.41 0 0 0-.22.015c-.117.01-.233.022-.35.034l-.104.012a10.543 10.543 0 0 0-.531.073c-.038.006-.077.01-.117.018a9.768 9.768 0 0 0-.551.111l-.144.035c-.119.03-.238.061-.357.094l-.053.014c-.065.018-.13.039-.196.059-.121.038-.241.077-.362.12-.07.025-.14.049-.208.076a9.88 9.88 0 0 0-.946.414c-.059.028-.116.055-.174.086-.186.096-.372.2-.558.311a13.094 13.094 0 0 0-3.477 3.993 13.847 13.847 0 0 0-1.496 3.898c-.065.299-.124.6-.17.903-.005.032-.008.065-.012.098a13.35 13.35 0 0 0-.136 2.104c.002.194.007.388.018.581a12.647 12.647 0 0 0 .222 1.689c.026.131.046.262.077.392.084.363.182.724.3 1.079.044.132.095.254.144.38.047.12.089.245.138.362v-.001c.373.899.847 1.692 1.384 2.399 2.037 2.69 5.011 4.079 7.124 4.761a24.56 24.56 0 0 0 2.545.615s-.037.03-.093.08a21.795 21.795 0 0 0-2.765 1.319c-1.229.698-2.607 1.646-3.781 2.863a11.118 11.118 0 0 0-1.103 1.331l-.074.101-.094.14c-.08.12-.157.242-.232.366-.03.049-.061.099-.09.149a8.804 8.804 0 0 0-.524 1.048c-.605 1.445-.844 3.115-.469 5.025l.001-.02.001-.015.006-.073.001-.016.01-.105.003-.024.019-.153.006-.038a7.92 7.92 0 0 1 .029-.196v-.001c.011-.069.026-.145.041-.223l.009-.048a9.77 9.77 0 0 1 .054-.249l.01-.042c.02-.081.041-.165.064-.251l.011-.04c.026-.093.055-.19.085-.289l.02-.061c.033-.101.067-.203.106-.307v-.006a7.449 7.449 0 0 1 .203-.488c.028-.061.055-.121.085-.183l.024-.051v-.001a6.82 6.82 0 0 1 .399-.693c.021-.033.044-.065.066-.097a7.4 7.4 0 0 1 .171-.236l.073-.095c.081-.103.166-.204.257-.303l.008-.009s-1.261 4.188-.107 7.242l-.004-.026-.003-.02-.008-.064-.002-.017-.013-.115-.002-.018-.014-.157-.002-.017-.012-.196-.001-.018a7.617 7.617 0 0 1-.007-.228v-.019c-.002-.08-.001-.164 0-.251v-.024c.002-.093.006-.19.011-.29l.001-.024.002-.051.001-.002c.008-.112.019-.228.034-.345l.003-.024a7.41 7.41 0 0 1 .055-.349l.021-.108.015-.075v-.001c.022-.097.047-.194.074-.292l.004-.016.001-.001c.039-.135.087-.269.14-.402l.043-.105c.057-.132.119-.262.192-.386l.002-.006s.02.99.192 2.149c.027.183.059.37.094.558.024.125.047.251.075.376a15.476 15.476 0 0 1 0 .001c.049.804.163 1.631.353 2.479a17.86 17.86 0 0 0 1.642 4.402s-.777-1.764-.214-3.693c.093.158.19.316.29.475.133.536.338 1.294.604 2.125.329 1.396 1.535 5.56 4.792 8.189 0 0-1.267-1.279-1.326-3.143.144.228.283.432.415.607.608.863 1.803 2.462 3.022 3.521 0 0-1.078-1.573-.92-1.961 0 0 3.271 3.169 4.214 3.401l-1.429-1.817-.034-.055c4.486 2.473 10.27 2.878 17.012.065a34.38 34.38 0 0 0 3.559-1.743 30.6 30.6 0 0 0 2.189-1.415l.104-.076c.502-.361.996-.743 1.484-1.141l.01-.009a29.55 29.55 0 0 0 2.83-2.641l.002-.001.002-.002a26.21 26.21 0 0 0 3.301-4.544l.037-.061c.117-.208.234-.416.345-.62l.032-.06c.037-.069.068-.137.104-.205.155-.295.307-.589.449-.88l.101-.21c.073-.154.142-.308.212-.46.053-.119.106-.237.156-.354l.166-.383c.096-.231.188-.46.276-.686l.101-.266c.067-.176.131-.35.192-.522l.084-.24.025-.075c.076-.217.148-.432.216-.642l.013-.045c.311-.372.545-.718.728-1.044.026-.046.054-.093.078-.139.407-.766.489-1.407.429-1.965zM48.279 89.035c-.118.053-.235.232-.346.468a4.7 4.7 0 0 0-.12.287c-.283.74-.496 1.743-.496 1.743-.014-.325-.02-.663-.022-1.003v-.118c-.001-.346.004-.697.012-1.045l.003-.125c.011-.392.026-.783.045-1.161l.007-.145.002-.025.007-.132.01-.194c.018-.299.036-.589.055-.865.018-.249.036-.484.054-.706l.006-.071.008-.1.009-.099.001-.012.014-.166.001-.014.014-.144.02-.226.002-.021.016-.169.021-.212.001-.002v-.002l.01-.106.001-.007.01-.093.019-.182.005-.044.002-.016.006-.051.004-.036.001-.005-.005.005-.065.077c-.06.067-.12.132-.174.205l-.058.082a3.55 3.55 0 0 0-.178.283l-.029.049a5.182 5.182 0 0 0-.186.382v.001l-.007.017v.001l-.022.057-.038.096c-.031.081-.065.16-.094.242l-.001.002-.001.003-.002.007-.01.031-.01.031a9.074 9.074 0 0 0-.335 1.34c-.018.098-.032.191-.045.273a8.05 8.05 0 0 0-.049.384v.006l-.005.045v-.001.001l-.002-.052c-.008-.103-.008-.205-.013-.307-.011-.216-.024-.432-.027-.646-.003-.181.003-.359.006-.539l.003-.169c.002-.083.002-.165.006-.248.003-.077.01-.154.015-.23v-.006l.005-.085.002-.023.017-.281.007-.108.006-.065v-.012l.008-.092.012-.112c.014-.137.03-.272.045-.408l.002-.023c.011-.101.02-.202.033-.302l.001-.004.002-.007.004-.029c.027-.205.06-.407.092-.61l.008-.056.009-.056c.006-.038.011-.077.018-.115.056-.33.118-.656.187-.976l.01-.04c.059-.272.121-.54.187-.805l.007-.03c.03-.117.062-.229.093-.344l.005-.018c.047-.172.091-.345.139-.512l.002-.002v-.002l.006-.021c.012-.042.043-.144.091-.293l.001-.003.006-.02v-.001l.054-.176.087-.284.026-.083c-.061-.023-.124-.044-.186-.065l-.035-.013-.066-.022a6.611 6.611 0 0 0-1.246-.286l-.067-.008a6.71 6.71 0 0 0-1.729.019c-.205.03-.406.073-.603.12-.062.015-.123.034-.184.05-.097.028-.192.058-.288.088-.038.013-.077.023-.114.037a6.114 6.114 0 0 0-.58.232c-.057.026-.116.049-.172.077a6.658 6.658 0 0 0-.492.268c-.064.038-.122.081-.184.12-.073.047-.144.097-.215.146l-.074.05c-.077.057-.152.117-.227.175a6.962 6.962 0 0 0-.444.386l-.14.141a6.643 6.643 0 0 0-.526.61 6.26 6.26 0 0 0-.283.386l-.045.067c-.047.072-.088.146-.132.22l-.006.01-.006.01c-.029.05-.06.098-.089.149l-.011.02-.011.02-.001.002v.001a6.536 6.536 0 0 0-.434.992c-.018.049-.032.099-.048.149a6.274 6.274 0 0 0-.141.509c-.016.068-.035.135-.049.204v.001l-.001.001v.001c-.035.175-.063.35-.084.531l-.006.067-.006.084v.008c-.013.13-.025.26-.029.391-.002.064-.001.13-.001.195v.018l.003.209c.001.053-.001.106.002.16.01.204.029.409.06.616.024.16.057.315.092.471l.002.009.015.073c.02.086.045.17.069.255a6.475 6.475 0 0 0 .635 1.528c.216.374.471.721.751 1.043a6.662 6.662 0 0 0 2.122 1.621c.459.221.947.386 1.452.497a6.5 6.5 0 0 0 1.849.144c.174-.01.348-.024.523-.05.162-.024.317-.063.475-.098.089-.02.184-.033.272-.056a6.5 6.5 0 0 0 .658-.218l.048-.017c.088-.036.17-.081.257-.119.267-.119.524-.255.77-.408l.054-.032c.069-.041.14-.08.206-.125l.009-.004a25.67 25.67 0 0 1-.564-2.128c-.009-.055-.023-.105-.033-.157z"/>
  <path fill="none" d="M32.468 95.354l-.007-.008v.001l.003.003.008.009z"/>
  <path fill="#E8B683" d="M79.218 62.068a3.982 3.982 0 0 0-.974-.236 5.525 5.525 0 0 0-.651-.037c-.08 0-.159.003-.239.006-1.094.04-2.006.339-2.006.339-.194.07-.38.146-.56.226-1.412.628-2.341 1.52-2.945 2.492a6.893 6.893 0 0 0-.912 2.417c-.014.07-.024.14-.034.209a8.283 8.283 0 0 0-.073.602 9.715 9.715 0 0 0 .009 1.728c.061.643.163 1.049.163 1.049.184-.591.389-1.138.605-1.653a14.695 14.695 0 0 1 1.812-3.194c1.273-1.684 2.663-2.662 3.765-3.222 1.188-.604 2.04-.726 2.04-.726zM96.503 57.795l-.057-.058a2.793 2.793 0 0 0-.669-.489c-.606-.314-1.4-.418-2.44-.067 0 0-1.231.456-1.868 1.377 0 0 2.091-1.217 4.634.154.232.125.467.273.706.444.243.174.488.372.735.599 0 0-.22-1.007-.908-1.812a2.066 2.066 0 0 0-.133-.148zM75.974 72.496c.075-.075.15-.15.235-.225.034-.031.073-.061.109-.092.077-.067.152-.133.236-.198.046-.037.099-.071.148-.107.079-.059.157-.119.243-.176.057-.039.121-.075.18-.112.085-.053.168-.107.257-.158.068-.038.142-.074.212-.111.089-.047.176-.095.27-.14.079-.037.164-.071.247-.105.094-.04.184-.081.283-.119.09-.034.187-.063.281-.095.089-.03.175-.063.268-.09l.002-.001.055-.016c.132-.034.261-.062.389-.087l.12-.021c.087-.015.174-.03.259-.041a5.631 5.631 0 0 1 .369-.038 6.198 6.198 0 0 1 .357-.015l.085-.003.033.002c.164.001.323.008.477.022l.082.007a6.4 6.4 0 0 1 .443.061l.069.013c.145.028.285.06.419.096l.036.011c.137.038.267.079.392.124l.01.003h.001l.003.001c.148.054.287.112.415.171l.006.003c.13.06.251.123.359.186-.199-.744-.815-2.332-2.515-2.718l-.006-.001a3.624 3.624 0 0 0-1.005-.079h-.002a5.233 5.233 0 0 0-.804.108c-3.215.678-3.381 3.387-3.345 4.292.079-.093.165-.189.259-.285l.068-.067z"/>
  <path fill="#FFF" d="M112.461 89.899l-.036-.093-.068-.169a6.577 6.577 0 0 0-.862-1.425c-.346-.429-.612-.628-.612-.628a7.01 7.01 0 0 0 .086-1.109 5.936 5.936 0 0 0-.942-3.196 5.13 5.13 0 0 0-.176-.252c-.207.19-.416.377-.627.562-3.994 3.495-8.667 6-13.88 7.475-3.593 1.017-7.44 1.548-11.507 1.559l.072.012s-2.373.631-2.74 3.029l.043.018-.006 1.578c.331 2.095 1.457 3.292 2.638 3.849 1.191.293 2.606.453 4.155.453 2.697 0 5.734-.466 8.783-1.347l.015-.004.016-.004c4.069-1.069 9.635-4.004 13.456-7.375a20.44 20.44 0 0 0 2.301-2.355l.025-.03.045-.055a11.88 11.88 0 0 0-.179-.493z"/>
  <path fill="#F1D1AB" d="M78.943 70.767c-.093.027-.179.06-.268.09.089-.03.177-.061.27-.089l.055-.017-.055.016h-.002z"/>
  <path fill="#F1D1AB" d="M79.635 79.515c.133-.093.267-.186.405-.277l.176-.118c.137-.091.274-.18.414-.271l.2-.127c.137-.086.275-.173.417-.259l.224-.136c.138-.082.277-.165.419-.247l.253-.146.418-.235.285-.156c.137-.074.274-.148.415-.222.104-.056.212-.111.319-.166.136-.07.27-.14.41-.209l.355-.175c.134-.065.268-.132.405-.195.129-.063.263-.124.394-.186l.394-.182c.145-.066.293-.131.443-.197.125-.054.25-.111.377-.165.161-.069.326-.138.49-.206.082-.034.162-.07.244-.103.456-1.751 1.91-6.136 5.226-7.009.356-.097.68-.157.991-.199.077-.01.158-.026.233-.034a7.557 7.557 0 0 1-.178-.74c-.327-1.77.035-3.321.811-3.466.6-.125 1.193.7 1.312.999.297.514.544 1.186.687 1.949.129.697.145 1.353.078 1.911.077.061.143.132.212.2.892.863 1.188 2.175 1.273 3.121.297-.067.601-.132.906-.197l.233-.051.048-.011.133-.027c.377-.079.759-.156 1.146-.233l.018-.003c.877-.172 1.783-.338 2.716-.495a7.228 7.228 0 0 0-.863-.423c-2.41-1.086-2.795-1.498-3.047-5.229-.09-1.344-.164-3.115-.311-5.512a20.882 20.882 0 0 0-.076-.896l-.023-.204c-.032-.273-.068-.54-.109-.794l-.013-.073-.015-.078a18.767 18.767 0 0 0-.171-.829c-.047-.2-.098-.395-.153-.582-.028-.095-.058-.187-.088-.279a13.56 13.56 0 0 0-.209-.596v-.002a5.768 5.768 0 0 0-1.3-1.118l-.095-.054-.019-.011-.072-.041-.024-.014a4.129 4.129 0 0 0-.449-.228 5.86 5.86 0 0 0-2.286-.501 7.35 7.35 0 0 0-1.361.099 8.43 8.43 0 0 0-.646.134c-.564.138-1.133.333-1.704.587-.182.162-.364.327-.548.492-.154.139-.311.278-.469.416l-.077.068c-.16.138-.322.275-.484.41l-.081.067c-.164.132-.328.262-.497.386l-.087.064a11.2 11.2 0 0 1-.514.356l-.087.055c-.176.113-.358.22-.542.317l-.077.04a7.01 7.01 0 0 1-.584.27l-.053.02a5.63 5.63 0 0 1-.643.213 8.73 8.73 0 0 1-1.12.21 12.34 12.34 0 0 1-1.869.091 19.38 19.38 0 0 1-.635-.028l-.226-.012a39.306 39.306 0 0 1-1.676-.159l-.71-.081a83.174 83.174 0 0 0-1.154-.124c-.076-.007-.151-.017-.227-.024-.312.056-.624.127-.936.206l-.069.017c-.903.235-1.8.568-2.675.998-.048.023-.097.045-.144.069a13.17 13.17 0 0 0-.406.216 15.872 15.872 0 0 0-4.045 3.17 16.573 16.573 0 0 0-2.656 3.871 15.881 15.881 0 0 0-.647 1.505c-.061.164-.122.328-.177.493l-.012.033a15.165 15.165 0 0 0-.434 1.624c-.007.033-.011.065-.017.097-.016.079-.026.157-.041.236-.045.252-.086.504-.12.755a13.92 13.92 0 0 0-.083.782c-.004.055-.009.111-.012.168a13.298 13.298 0 0 0 .042 2.197c.015.142.026.286.045.427.373.899.847 1.692 1.384 2.399 2.037 2.69 5.011 4.079 7.124 4.761a24.56 24.56 0 0 0 2.545.615l.026.034h.002l.003-.002.049-.049c.097-.095.194-.19.295-.286l.109-.103c.104-.097.21-.195.318-.293l.11-.099c.11-.098.222-.198.337-.295l.114-.098c.116-.099.234-.198.355-.297l.12-.097.372-.296c.043-.034.088-.067.13-.101l.386-.292.143-.104c.129-.097.261-.191.396-.286.054-.04.107-.078.161-.115zm13.703-22.334c1.039-.351 1.834-.247 2.44.067.255.133.477.301.669.489l.057.058c.046.047.092.097.134.148.688.806.908 1.812.908 1.812a7.744 7.744 0 0 0-.735-.599 6.488 6.488 0 0 0-.706-.444c-2.543-1.371-4.634-.154-4.634-.154.636-.921 1.867-1.377 1.867-1.377zm-19.926 8.836c-.655.865-1.276 1.917-1.812 3.194a18.385 18.385 0 0 0-.605 1.653s-.102-.406-.163-1.049a9.811 9.811 0 0 1-.009-1.728 8.879 8.879 0 0 1 .107-.811 6.893 6.893 0 0 1 .912-2.417c.604-.971 1.533-1.863 2.945-2.492.18-.079.366-.156.56-.226 0 0 .912-.299 2.006-.339.08-.003.159-.006.239-.006.214 0 .432.011.651.037.331.04.663.113.974.236 0 0-.852.121-2.041.726-1.1.56-2.49 1.538-3.764 3.222zm1.818 8.099c-.089.038-.159.046-.198.011-.141-.064.058-.62.615-1.28-.036-.905.13-3.614 3.345-4.292.286-.06.553-.095.804-.108h.002a3.831 3.831 0 0 1 1.005.079l.006.001c1.7.386 2.316 1.974 2.515 2.718.554.319.831.639.742.707-.027.068-.116.092-.249.091-.136.088-.431.134-.84.178-.817.087-2.091.162-3.488.532l-.289.075c-2.082.552-3.63 1.434-3.97 1.288zM82.54 70.886l.004.001z"/>
  <path fill="#F1D1AB" d="M80.579 70.547l-.085.003c.039 0 .079-.002.118-.001l-.033-.002zM113.664 94.748a25.223 25.223 0 0 1-4.152 3.78 28.965 28.965 0 0 1-6.607 3.546c-3.009 1.142-5.197 1.416-5.197 1.416 1.814.728 3.963.47 5.418.138a13.2 13.2 0 0 0 1.676-.489c.046.627.039 1.21-.005 1.759a9.254 9.254 0 0 1-.292 1.683l-.011.044-.001.003a8.094 8.094 0 0 1-.696 1.724c-.03.055-.06.114-.091.168l.104-.076c.502-.361.996-.743 1.484-1.141l.01-.009a29.55 29.55 0 0 0 2.83-2.641l.002-.001.002-.002a26.21 26.21 0 0 0 3.301-4.544l.037-.061c.117-.208.234-.416.345-.62l.032-.06c.037-.069.068-.137.104-.205.155-.295.307-.589.449-.88l.101-.21c.073-.154.142-.308.212-.46.053-.119.106-.237.156-.354l.166-.383c.096-.231.188-.46.276-.686l.101-.266c.067-.176.131-.35.192-.522l.084-.24.025-.075c.076-.217.148-.432.216-.642-.089.104-.18.204-.271.306zM74.656 83.008c-.402.193-.841.42-1.303.682-1.229.698-2.607 1.646-3.781 2.863a11.118 11.118 0 0 0-1.103 1.331l-.074.101-.094.14c-.08.12-.157.242-.232.366-.03.049-.061.099-.09.149a8.804 8.804 0 0 0-.524 1.048c-.605 1.445-.844 3.115-.469 5.025l.001-.02.001-.015.006-.073.001-.016.01-.105.003-.024.019-.153.006-.038a7.92 7.92 0 0 1 .029-.196v-.001c.011-.069.026-.145.041-.223l.009-.048a9.77 9.77 0 0 1 .054-.249l.01-.042c.02-.081.041-.165.064-.251l.011-.04c.026-.093.055-.19.085-.289l.02-.061c.033-.101.067-.203.106-.307v-.002a7.449 7.449 0 0 1 .203-.488c.028-.061.055-.121.085-.183l.024-.051v-.001a6.82 6.82 0 0 1 .399-.693c.021-.033.044-.065.066-.097a7.4 7.4 0 0 1 .171-.236l.073-.095c.081-.103.166-.204.257-.303l.008-.009s-1.261 4.188-.107 7.242l-.004-.026-.003-.02-.008-.064-.002-.017-.013-.115-.002-.018-.014-.157-.002-.017-.012-.196-.001-.018a7.617 7.617 0 0 1-.007-.228v-.019c-.002-.08-.001-.164 0-.251v-.024c.002-.093.006-.19.011-.29l.001-.024.002-.051.001-.002c.008-.112.019-.228.034-.345l.003-.024a7.41 7.41 0 0 1 .055-.349l.021-.108.015-.075v-.001c.022-.097.047-.194.074-.292l.004-.016.001-.001c.039-.135.087-.269.14-.402l.043-.105c.057-.132.119-.262.192-.386l.002-.006s.02.99.192 2.149c.027.183.059.37.094.558.024.125.047.251.075.376a15.476 15.476 0 0 1 .423-4.653c.07-.287.146-.568.23-.845l.047-.155a17.792 17.792 0 0 1 .992-2.516l.053-.111c.093-.189.189-.372.285-.553.026-.048.049-.099.075-.146l.069-.128c.123-.224.248-.444.375-.657l.061-.101c.133-.219.266-.433.4-.638l.007-.012a21.471 21.471 0 0 1 .882-1.252c.046-.061.095-.122.143-.184.296-.384.584-.731.854-1.041a18.658 18.658 0 0 1 1.686-1.721c-.144.056-.312.124-.5.202-.277.121-.603.266-.959.437zM96.901 71.316s-.021-.1-.077-.249c-.215-.563-.958-1.861-3.19-1.363-2.333.521-2.889 2.525-3.011 3.2-.026.14-.034.227-.034.227l.071.047c.268-.292.843-.333 1.402-.068.256.121.468.288.622.471.237.283.334.608.224.871a.53.53 0 0 1-.095.15s.096.024.255.049c.68.112 2.547.267 3.374-1.127.039-.067.081-.13.116-.204-.206-.075-.35-.345-.392-.683a1.709 1.709 0 0 1 .01-.518c.094-.552.42-.913.725-.803zM87.351 90.118a92.435 92.435 0 0 1-3.812 1.202h.176c1.76 0 4.553-.083 7.866-.702 6.028-1.126 13.785-4.03 20.23-11.478l.016-.028v-.001l-.002-.011c-.043-.551-.239-1.532-1.027-2.216a2.798 2.798 0 0 0-.47-.328l-.087-.04a6.228 6.228 0 0 1-.551-.258 5.828 5.828 0 0 1-.388-.196l-.018-.021a13.609 13.609 0 0 1-1.883 2.706c-1.778 2.052-4.179 3.877-6.818 5.462-4.387 2.634-9.41 4.613-13.232 5.909zM47.591 84.319c-.06.067-.12.132-.174.205l-.058.082a3.55 3.55 0 0 0-.178.283l-.029.049a5.182 5.182 0 0 0-.186.382v.001l-.007.017v.001l-.022.057-.038.096c-.031.081-.065.16-.094.242l-.001.002-.001.003-.002.007-.01.031-.01.031a9.074 9.074 0 0 0-.335 1.34c-.018.098-.032.191-.045.273a8.05 8.05 0 0 0-.049.384v.006l-.005.045v-.001.001l-.002-.052c-.008-.103-.008-.205-.013-.307-.011-.216-.024-.432-.027-.646-.003-.181.003-.359.006-.539l.003-.169c.002-.083.002-.165.006-.248.003-.077.01-.154.015-.23v-.006l.005-.085.002-.023.017-.281.007-.108.006-.065v-.012l.008-.092.012-.112c.014-.137.03-.272.045-.408l.002-.023c.011-.101.02-.202.033-.302l.001-.004.002-.007.004-.029c.027-.205.06-.407.092-.61l.008-.056.009-.056c.006-.038.011-.077.018-.115.056-.33.118-.656.187-.976l.01-.04c.059-.272.121-.54.187-.805l.007-.03c.03-.117.062-.229.093-.344l.005-.018c.047-.172.091-.345.139-.512l.002-.002v-.002l.006-.021c.012-.042.043-.144.091-.293l.001-.003.006-.02v-.001l.054-.176.087-.284.026-.083c-.061-.023-.124-.044-.186-.065l-.035-.013-.066-.023a6.611 6.611 0 0 0-1.246-.286l-.067-.008a6.71 6.71 0 0 0-1.729.019c-.205.03-.406.073-.603.12-.062.015-.123.034-.183.05-.097.028-.193.058-.288.088-.038.013-.077.023-.114.037a6.114 6.114 0 0 0-.58.232c-.057.026-.116.049-.172.077a6.658 6.658 0 0 0-.492.268c-.064.038-.122.081-.184.12-.073.047-.144.097-.215.146l-.074.05c-.077.057-.152.117-.227.175a6.962 6.962 0 0 0-.444.386c-.048.046-.093.094-.14.141a6.643 6.643 0 0 0-.526.61 6.26 6.26 0 0 0-.283.386l-.045.067c-.047.072-.088.146-.132.22l-.006.01-.006.01c-.029.05-.06.098-.088.149l-.011.02-.011.02-.001.002v.001a6.636 6.636 0 0 0-.434.993c-.018.049-.032.099-.048.147a6.71 6.71 0 0 0-.141.509c-.016.068-.035.135-.049.204v.001l-.001.001.055.119c.063.141.127.277.192.409l.023.045.023.045a11.453 11.453 0 0 0 .852 1.417c.031.044.063.091.094.133l.023.031.028.037a9.682 9.682 0 0 0 .995 1.144l.078.074.054.049.082.072c-.026-.07-.043-.141-.067-.211a8.942 8.942 0 0 1-.364-1.509l-.004-.03-.009-.058a9.77 9.77 0 0 1-.093-.951 12.5 12.5 0 0 0 .377.812l.027.055.01.02c.338.652.697 1.19 1.023 1.62a9.107 9.107 0 0 0 1.043 1.162c.057.052.089.078.089.078a8.76 8.76 0 0 1-.414-1.601 9.154 9.154 0 0 1-.077-.534 9.622 9.622 0 0 1-.049-.669c.144.362.3.694.461 1.005l.012.024a10.8 10.8 0 0 0 1.652 2.38l.05.051c.074.079.14.145.2.204l.109.107.097.089.051.044-.025-.075c-.027-.075-.051-.149-.076-.224a8.864 8.864 0 0 1-.216-.804 8.405 8.405 0 0 1-.173-1.037l-.008-.09c-.008-.087-.017-.173-.023-.259l-.003-.054-.002-.038c-.014-.221-.022-.44-.022-.657h.001a9.077 9.077 0 0 0 .324.677l.01.019.016.032.028.057a11.867 11.867 0 0 0 .917 1.45 10.281 10.281 0 0 0 .684.822l.049.053c.061.064.12.125.17.175l.107.104c.084.079.143.131.168.153l.016.013.05.026v-.118c-.001-.346.004-.697.012-1.045l.003-.125c.011-.392.026-.783.045-1.161l.007-.145.002-.025.007-.132.01-.194c.018-.299.036-.589.055-.865.018-.249.036-.484.054-.706l.006-.071.008-.1.009-.099.001-.012.014-.166.001-.014.014-.144.02-.226.002-.021.016-.169.021-.212.001-.002v-.002l.01-.106.001-.007.01-.093.019-.182.005-.044.002-.016.006-.051.004-.036.001-.005-.005.005-.065.077zM98.856 95.176c.548-.269 1.027-.491 1.393-.708.735-.428 1.125-.701 1.087-.781-.038-.081-.498.041-1.297.329-.4.148-.89.295-1.449.495-.277.104-.588.183-.907.287-.322.098-.659.213-1.02.299-.71.192-1.522.388-2.387.599l-1.322.275-1.418.248c-1.943.299-4.106.479-6.345.348-1.18-.059-2.789-.392-3.978-.884l-.043-.018c.366-2.398 2.74-3.029 2.74-3.029l-.072-.012-.123.001c-.357 0-.671-.003-.94-.006-.193-.002-.362-.004-.504-.004-.137 0-.235.002-.291.005-1.467.081-2.111 1.412-2.32 1.981a4.858 4.858 0 0 0-.269 1.913c.064 1.097.492 2.258 1.453 3.172.643.617 1.686 1.102 3.001 1.424-1.181-.556-2.307-1.754-2.638-3.849 1.306.379 2.791.525 3.901.584 2.377.139 4.628-.089 6.628-.463.498-.105.984-.203 1.455-.31l1.365-.352a50.619 50.619 0 0 0 2.377-.759c.369-.117.704-.264 1.025-.396.32-.138.625-.25.898-.389z"/>
  <path fill="#654E44" d="M93.557 68.304c1.218-.123 2.091.16 2.71.653a6.491 6.491 0 0 0-.077-1.911c-.143-.762-.39-1.435-.687-1.95-.121-.299-.712-1.123-1.312-.999-.776.144-1.139 1.695-.811 3.466.047.259.108.505.177.741zM79.344 72.001c1.403-.393 2.691-.222 3.568-.075.402.066.717.127.92.127.133.002.221-.022.25-.09.088-.069-.189-.389-.743-.707a4.931 4.931 0 0 0-.358-.186l-.006-.002a5.247 5.247 0 0 0-.415-.172l-.004-.002-.01-.003a5.844 5.844 0 0 0-.392-.124l-.035-.01a6.171 6.171 0 0 0-.42-.096l-.068-.013a6.507 6.507 0 0 0-.444-.062l-.082-.007a5.297 5.297 0 0 0-.477-.022l-.117.001a5.543 5.543 0 0 0-.222.007l-.137.008c-.077.006-.154.012-.233.022a8.648 8.648 0 0 0-.395.057l-.12.021a6.47 6.47 0 0 0-.388.086l-.055.018c-.093.028-.181.059-.271.089-.093.031-.191.061-.281.094-.098.038-.188.079-.283.119-.082.035-.167.068-.246.105-.094.044-.182.093-.271.14-.071.037-.144.072-.212.111-.089.051-.172.105-.256.158-.06.037-.124.073-.18.112-.086.057-.164.117-.244.176-.049.036-.101.071-.148.107-.084.065-.16.132-.236.198-.035.031-.075.061-.109.093-.084.074-.16.15-.234.224l-.069.067c-.093.096-.18.192-.259.285-.557.66-.756 1.216-.614 1.279.038.036.109.028.197-.01.519-.207 1.859-1.437 3.819-2.041.092-.028.185-.056.28-.082zM96.18 72.648c.043.337.186.608.393.683.307.109.631-.253.725-.808.009-.049.012-.097.018-.144v-.001c.043-.499-.121-.955-.399-1.054-.305-.11-.631.251-.726.805-.031.18-.032.357-.011.519zM90.773 74.194c.155.194.373.372.641.499.566.267 1.152.224 1.414-.081a.52.52 0 0 0 .094-.15c.111-.264.014-.588-.224-.871l-.001-.001a1.837 1.837 0 0 0-.62-.471c-.56-.265-1.134-.224-1.403.068a.592.592 0 0 0-.107.162c-.106.255-.016.567.206.845z"/>
  <g fill="#654E44">
    <path d="M111.828 79.114v-.001l-.001-.01-.027.054.012-.014zM112.598 90.448l-.025.03a20.445 20.445 0 0 1-2.302 2.354c-3.821 3.371-9.386 6.307-13.455 7.376l-.016.004-.015.004c-3.05.881-6.086 1.347-8.783 1.347-1.55 0-2.964-.16-4.156-.453-1.314-.323-2.357-.807-3-1.425-.961-.914-1.389-2.074-1.453-3.172a4.858 4.858 0 0 1 .269-1.912c.208-.568.853-1.899 2.32-1.981.056-.003.154-.005.29-.005.142 0 .311.002.504.004.269.003.584.006.94.006l.123-.002c4.067-.01 7.914-.542 11.506-1.558 5.214-1.475 9.887-3.98 13.88-7.475.212-.184.421-.372.627-.562l1.946-3.873c-6.442 7.438-14.193 10.339-20.217 11.464a42.534 42.534 0 0 1-7.866.702l-.176-.001c-.529-.002-.96-.009-1.268-.009-.153 0-.276.002-.37.008a3.556 3.556 0 0 0-1.273.312c-.794.361-1.43 1.007-1.869 1.812-.541.993-.78 2.227-.643 3.468a6.034 6.034 0 0 0 1.15 2.945c.027.036.052.074.08.11.077.098.158.194.242.288.113.129.232.255.359.376 1.467 1.409 4.348 2.236 8.054 2.236 2.507 0 5.394-.384 8.473-1.216 9.03-2.818 13.05-6.349 14.818-8.698.129-.172.247-.337.354-.495.623-.929.869-1.614.955-1.908l.011-.04c.022-.076.029-.116.03-.118l-.044.057z"/>
  </g>
  <path fill="#132034" d="M96.525 26.184a8.271 8.271 0 0 0-2.727-1.588 7.395 7.395 0 0 0-.536-.115 7.187 7.187 0 0 0-.281-.132 11.238 11.238 0 0 0-2.639-.326c-4.468-.045-9.288 2.151-12.018 3.628a44.978 44.978 0 0 0-1.144.658c-.39.231-.787.471-1.19.72l-.175.109-.885-.811-.399-.366-.369-.339-.159-.146-3.36-3.08-.293-.266-.36-.331-.055.02-.813.288-.939.333c-.562-.184-1.217-.286-1.961-.29-1.491-.011-3.336.38-5.395 1.181-2.061.798-4.335 1.997-6.712 3.555-4.757 3.113-9.923 7.656-14.752 13.237a84.39 84.39 0 0 0-4.649 5.873 73.196 73.196 0 0 0-3.694 5.635c-2.214 3.751-3.826 7.335-4.756 10.472-.62 2.09-.935 3.98-.943 5.567-.007 1.154.147 2.144.435 2.943.093.259.204.491.323.711.249.462.551.851.918 1.17l3.682 3.044.395.326.019-.028c.087-.128.175-.255.266-.38l.024-.034c.033-.045.067-.088.101-.132.086-.114.173-.228.263-.341.055-.069.112-.137.17-.205.055-.066.108-.134.164-.199l.078-.087.184-.204c.086-.095.173-.188.261-.28l.158-.161.024-.023a28.853 28.853 0 0 1 .469-.449 13.39 13.39 0 0 1 .492-.428c.106-.089.215-.175.324-.261.063-.049.125-.099.189-.146.114-.087.23-.17.347-.253.063-.043.123-.089.186-.131l.07-.049.011-.008c.099-.067.2-.13.302-.194l.168-.109c.085-.053.173-.103.259-.153.075-.044.15-.089.226-.131l.085-.049c.192-.107.386-.209.584-.306.063-.032.127-.059.19-.09l.206-.095.08-.039c.041-.017.082-.037.123-.055l.255-.106.063-.026c.099-.04.197-.081.297-.119.093-.036.188-.069.281-.103.116-.041.232-.083.35-.122l.146-.048c.05-.016.1-.029.15-.044a17.764 17.764 0 0 1 .658-.184c.083-.02.165-.042.249-.061l.102-.022c.038-.009.074-.019.113-.027l.063-.011c.418-.067.877-.118 1.384-.141l.079-.004a13.216 13.216 0 0 1 1.66.051c.141.013.282.025.428.043l.07-.174c.24-.583.486-1.154.736-1.715a58.557 58.557 0 0 1 4.822-8.747 55.271 55.271 0 0 1 1.787-2.515 53.29 53.29 0 0 1 7.536-8.113 50.857 50.857 0 0 1 3.619-2.873c.529-.381 1.04-.732 1.525-1.053a42.46 42.46 0 0 1 2.785-1.691c.287-.158.551-.299.792-.425-.22.004-.443.013-.669.026a13.192 13.192 0 0 0-.804.081 13.074 13.074 0 0 0-1.935.393c-.144.041-.289.084-.436.131a19.686 19.686 0 0 1 5.028-2.442 20.054 20.054 0 0 1 3.962-.842c.461-.05.886-.08 1.27-.097 1.343-.058 2.168.051 2.168.051a3.39 3.39 0 0 0-.769-.618c-.514-.309-1.086-.507-1.584-.635a7.967 7.967 0 0 0-.892-.182 18.317 18.317 0 0 1 1.329-.339 17.813 17.813 0 0 1 4.878-.356c1.553.101 2.512.375 2.512.375-.266-.397-.63-.719-1.017-.981a6.245 6.245 0 0 0-.853-.479 21.778 21.778 0 0 1 5.463 1.327l.187.075c.792.319 1.238.561 1.238.561-.176-.423-.478-.806-.817-1.142a5.93 5.93 0 0 0-.259-.245l.038.012.173.034.225.05a13.702 13.702 0 0 1 1.817.566 13.925 13.925 0 0 1 1.638.76c.24.133.481.278.722.435.246.16.49.334.729.522.047.037.095.073.142.112.174.142.344.293.511.45.315.297.612.623.884.978.326.427.617.896.853 1.416l.038.089c.109-.15.302-.418.55-.783 2.062-3.028 8.045-12.788 3.158-17.733z"/>
  <path fill="#2D82C1" d="M67.593 28.059l-.325-1.611.6-1.898.313-.111c-.562-.184-1.217-.286-1.961-.29-1.491-.011-3.336.38-5.395 1.181-2.061.798-4.335 1.997-6.712 3.555-4.757 3.113-9.923 7.656-14.752 13.237a84.39 84.39 0 0 0-4.649 5.873 73.196 73.196 0 0 0-3.694 5.635c-2.214 3.751-3.826 7.335-4.756 10.472-.62 2.09-.935 3.98-.943 5.567-.007 1.154.147 2.144.435 2.943.093.259.204.491.323.711.249.462.551.851.918 1.17l3.682 3.044.395.326.019-.028c.087-.128.175-.255.266-.38l.024-.034c.033-.045.067-.088.101-.132.086-.114.173-.228.263-.341.055-.069.112-.137.17-.205.055-.066.108-.134.164-.199l.078-.087.184-.204c.086-.095.173-.188.261-.28l.158-.161.024-.023a28.853 28.853 0 0 1 .469-.449 13.39 13.39 0 0 1 .492-.428c.106-.089.215-.175.324-.261.063-.049.125-.099.189-.146.114-.087.23-.17.347-.253.063-.043.123-.089.186-.131l.07-.049.003-.014c.526-2.264 1.422-4.76 2.654-7.397 1.513-3.238 3.529-6.685 5.993-10.171a85.617 85.617 0 0 1 5.163-6.583 83.955 83.955 0 0 1 7.492-7.632 68.303 68.303 0 0 1 5.069-4.121c.157-.116.316-.236.474-.349.446-.321.889-.627 1.33-.926.96-.65 1.909-1.249 2.838-1.788l-.549-.521-.09-.085-.675-.639-3.871-3.673-.315-2.918-.042-.038 2.306-.996 4.952 1.838z"/>
  <path fill="#4E9DD6" d="M68.674 28.46l.128.048-.003-.016z"/>
  <path fill="#FFD14F" d="M69.989 23.799l-2.121.751.931 3.941-6.158-2.268-2.306.996.042.038 8.007 7.204.062-.051.085-.068c.203-.166.406-.331.612-.495.072-.057.142-.117.215-.174.296-.234.594-.465.893-.694l-3.404-3.077 5.13 1.795.017-.012.409-.291-.858-3.409 2.501 2.284.026-.017c.175-.116.346-.226.52-.338l.053-.034.083-.055c.03-.018.06-.038.089-.057l.221-.144.044-.028c.246-.157.488-.307.73-.458l-5.823-5.339z"/>
  <path fill="#4E9DD6" d="M67.898 24.675l-.03-.124.03.124zM67.868 24.551l.313-.111c-.562-.184-1.217-.286-1.961-.29-1.491-.011-3.336.38-5.395 1.181-2.061.798-4.335 1.997-6.712 3.555-4.757 3.113-9.923 7.656-14.752 13.237a84.39 84.39 0 0 0-4.649 5.873l7.531 7.275a87.594 87.594 0 0 1 5.112-6.5 85.75 85.75 0 0 1 7.648-7.791c2.501-2.234 5.002-4.175 7.44-5.795l-1.752-5.007-.315-2.918-.042-.038 2.306-.996 4.952 1.835-.325-1.611.601-1.899z"/>
  <path fill="#132034" d="M67.868 24.551l-.6 1.898.325 1.61 1.206.433zM66.848 29.903l5.13 1.796-1.727 1.281zM71.545 27.987l.858 3.408 1.643-1.124z"/>
  <path fill="#FFF" d="M89.738 24.533c.297-.047.589-.085.878-.113.818-.08 1.596-.074 2.343.021.04.005.081.006.121.012l.01.001.03.003.073.012.068.012a7.187 7.187 0 0 0-.281-.132 11.238 11.238 0 0 0-2.639-.326c-4.468-.045-9.288 2.151-12.018 3.628a44.978 44.978 0 0 0-1.144.658c-.39.231-.787.471-1.19.72l-.175.109c-.242.151-.484.301-.73.458l-.044.028c-.073.046-.148.097-.221.144-.03.019-.059.039-.089.057l-.083.055-.053.034c-.173.113-.345.223-.52.338l-.026.017-.015.01-.127.082-.022.014-.094.065a66.422 66.422 0 0 0-1.355.931l-.03.022-.409.291-.017.012a72.15 72.15 0 0 0-1.32.972c-.045.035-.091.068-.138.102l-.116.089-.107.083-.045.036c-.299.23-.597.46-.893.694-.073.057-.143.117-.215.174-.205.164-.409.329-.612.495l-.085.068-.062.051a86.492 86.492 0 0 0-4.382 3.871l-.343.328a105.55 105.55 0 0 0-6.635 6.98 135.017 135.017 0 0 0-6.272 7.796 124.636 124.636 0 0 0-2.722 3.586c-1.488 2.039-2.284 3.284-2.243 3.305.018.015.152-.142.386-.44-.189.282-.38.563-.566.843 3.248-4.404 6.889-8.951 10.864-13.299a119.916 119.916 0 0 1 7.591-7.62 96.678 96.678 0 0 1 4.7-4.025c.193-.155.39-.306.584-.459l.331-.26.627-.483c.205-.156.41-.312.617-.466l.323-.241c.262-.194.526-.385.79-.574.157-.114.315-.228.473-.34l.002-.001a70.79 70.79 0 0 1 1.507-1.037l.125-.084.237-.158c.105-.07.209-.141.314-.21l.119-.079.016-.01.213-.137.045-.028.026-.016c.221-.143.441-.284.659-.422l.12-.077.212-.132c.255-.159.509-.318.759-.472l.207-.128.108-.064.214-.129c.295-.177.588-.353.877-.52.263-.154.519-.297.777-.443a53.899 53.899 0 0 1 4.117-2.126c2.471-1.127 4.637-1.842 6.575-2.156z"/>
</svg>
