<svg xmlns="http://www.w3.org/2000/svg" viewBox="0 0 512 512">
    <path fill="#213C75" d="M510.689 478.854c0 17.561-14.275 31.836-31.836 31.836H33.146c-17.56 0-31.836-14.275-31.836-31.836V33.146c0-17.56 14.276-31.836 31.836-31.836h445.707c17.561 0 31.836 14.276 31.836 31.836v445.708z"/>
    <path fill="#FFF" d="M413.23 286.48c-.018 36.703-.404 73.406.182 110.098.217 13.629-4.506 16.84-17.367 13.588-87.803-22.189-175.721-43.939-263.58-65.924-21.723-5.432-33.359-19.758-33.51-41.961-.406-61.416.041-122.834-.398-184.246-.088-12.346 3.807-17.379 16.668-17.309 73.396.393 146.816-.686 220.193.557 45.082.764 76.883 34.494 77.707 79.594.639 35.191.125 70.406.105 105.603zm-273.376-61.816c0 19.5.832 39.047-.266 58.482-.859 15.143 3.393 20.988 19.711 20.988 15.811.006 18.92-6.258 18.418-20.016-.799-21.725-.615-43.502-.035-65.238.568-21.352 12.668-33.725 31.582-32.615 20.631 1.211 28.334 14.135 28.322 33.301-.016 21.75.799 43.535-.244 65.232-.715 14.766 4.43 19.045 19.088 19.256 15.891.23 18.701-6.594 18.209-20.135-.762-20.971-.574-42-.053-62.988.551-21.959 11.543-34.189 30.047-34.787 18.943-.604 29.748 10.711 30.451 33.539.668 21.727.963 43.523-.006 65.23-.672 14.955 5.068 19.125 19.461 19.021 13.77-.092 18.373-4.486 17.787-18.188-.961-22.455-.217-44.988-.318-67.482-.117-25.672-8.066-47.734-32.234-59.934-24.48-12.359-49.092-11.793-72.559 3.812-4.611 3.064-8.809 10.02-15.418 4.266-29.162-25.395-64.424-13.295-97.238-16.318-12.561-1.16-15.152 5.145-14.84 16.08.562 19.482.158 38.994.135 58.494z"/>
    <path fill="none" d="M139.869 224.664c.008-19.5.412-39.012-.15-58.492-.312-10.936 2.279-17.24 14.84-16.08 32.814 3.023 68.076-9.076 97.238 16.318 6.609 5.754 10.807-1.201 15.418-4.266 23.467-15.605 48.078-16.172 72.559-3.812 24.168 12.199 32.117 34.262 32.234 59.934.102 22.494-.643 45.027.318 67.482.586 13.701-4.018 18.096-17.787 18.188-14.393.104-20.133-4.066-19.461-19.021.969-21.707.674-43.504.006-65.23-.703-22.828-11.508-34.143-30.451-33.539-18.504.598-29.496 12.828-30.047 34.787-.521 20.988-.709 42.018.053 62.988.492 13.541-2.318 20.365-18.209 20.135-14.658-.211-19.803-4.49-19.088-19.256 1.043-21.697.229-43.482.244-65.232.012-19.166-7.691-32.09-28.322-33.301-18.914-1.109-31.014 11.264-31.582 32.615-.58 21.736-.764 43.514.035 65.238.502 13.758-2.607 20.021-18.418 20.016-16.318 0-20.57-5.846-19.711-20.988 1.098-19.437.266-38.984.281-58.484z"/>
</svg>
