<svg xmlns="http://www.w3.org/2000/svg" viewBox="0 0 283 283">
  <path fill="#0A0B0D" d="M0 0h283v283H0z"/>
  <path fill="#F8A72C" d="M215.32 56.15l-6.83-6.37c4.91-3.33 10.28-6.02 14.9-9.75-1.46-1.09-2.96-3.29-5.03-2.41-5.74 1.91-11.39 4.08-17.1 6.06-3.11-2.15-5.77-4.87-8.79-7.14-1.5-1.19-3.86-1.7-5.39-.3l.01.01-.01-.01c-1.18 1.7-.36 3.97 1.02 5.3 2.65 2.69 5.69 4.97 8.24 7.77-1.21 5.93-2.61 11.81-3.74 17.75-.6 2.18 1.78 3.37 3.06 4.67 3.08-5.07 5.03-10.75 7.69-16.06l7.22 5.92-.52 3.96s1.85 2.33 2.99 3.24L216.4 62c.03-.02.06-.03.09-.05l-.01-.01.01.01c.01-.03.02-.06.04-.09l6.29-4.23c-1.06-1.01-3.61-2.53-3.61-2.53l-3.89 1.05z"/>
  <path fill="#FFF" d="M143.33 253.66l-.06-3.7c1.1-.02 2.23-.06 3.34-.11l.18 3.7c-1.16.05-2.32.09-3.46.11zm-4.11 0a99.95 99.95 0 0 1-3.46-.12l.18-3.7c1.11.06 2.23.09 3.34.11l-.06 3.71zm11.67-.39l-.31-3.69c.49-.04.98-.09 1.46-.13.62-.06 1.25-.13 1.87-.2l.42 3.68-1.93.21c-.5.04-1.01.09-1.51.13zm-19.23-.01c-1.15-.1-2.3-.22-3.44-.35l.43-3.68c1.1.13 2.22.24 3.33.34l-.32 3.69zm26.74-.88l-.56-3.66c1.1-.17 2.21-.35 3.3-.55l.67 3.64c-1.12.21-2.27.4-3.41.57zm-34.26-.03c-1.13-.18-2.28-.37-3.41-.59l.68-3.64c1.09.21 2.2.4 3.3.57l-.57 3.66zm41.7-1.36l-.8-3.61c1.09-.24 2.18-.5 3.26-.77l.91 3.59c-1.11.28-2.24.55-3.37.79zm-49.15-.06c-1.13-.25-2.26-.53-3.37-.82l.93-3.58c1.08.28 2.17.55 3.26.79l-.82 3.61zm56.48-1.82l-1.04-3.55c1.06-.31 2.14-.65 3.19-.99l1.15 3.52c-1.08.35-2.2.7-3.3 1.02zm-63.82-.11c-1.1-.33-2.21-.68-3.31-1.05l1.17-3.51c1.06.35 2.13.69 3.2 1.01l-1.06 3.55zm71.01-2.27l-1.28-3.47c1.04-.38 2.09-.79 3.12-1.21l1.39 3.43c-1.07.43-2.15.85-3.23 1.25zm-78.2-.15c-1.08-.4-2.16-.83-3.23-1.27l1.41-3.42c1.03.42 2.08.84 3.12 1.23l-1.3 3.46zm85.21-2.71l-1.52-3.38c1.01-.45 2.03-.93 3.03-1.42l1.62 3.33c-1.03.51-2.08 1-3.13 1.47zm-92.21-.2c-1.05-.48-2.1-.97-3.13-1.48l1.64-3.32c1 .49 2.02.97 3.03 1.43l-1.54 3.37zm99-3.13l-1.74-3.27c.98-.52 1.96-1.06 2.92-1.62l1.84 3.21c-1 .58-2.01 1.14-3.02 1.68zm-105.79-.23c-1.01-.54-2.03-1.11-3.02-1.69l1.86-3.2c.96.56 1.95 1.11 2.92 1.63l-1.76 3.26zm112.33-3.55l-1.96-3.14c.94-.58 1.88-1.19 2.81-1.81l2.05 3.08c-.96.64-1.93 1.27-2.9 1.87zm-118.88-.27c-.97-.61-1.94-1.24-2.9-1.89l2.07-3.07c.93.62 1.87 1.24 2.81 1.83l-1.98 3.13zm125.15-3.94l-2.17-3c.9-.65 1.8-1.32 2.68-2l2.26 2.93c-.91.71-1.84 1.4-2.77 2.07zm-131.41-.31c-.93-.68-1.86-1.38-2.77-2.08l2.27-2.93c.87.68 1.78 1.35 2.68 2.01l-2.18 3zm137.39-4.31l-2.36-2.85c.85-.71 1.71-1.44 2.54-2.17l2.45 2.78c-.87.75-1.75 1.5-2.63 2.24zm-143.36-.34a96.7 96.7 0 0 1-2.62-2.26l2.46-2.77c.83.73 1.68 1.47 2.53 2.18l-2.37 2.85zm149.01-4.68l-2.55-2.68c.8-.76 1.61-1.55 2.39-2.34l2.63 2.6c-.8.81-1.64 1.63-2.47 2.42zm-154.65-.37c-.83-.79-1.66-1.61-2.46-2.43l2.64-2.6c.78.79 1.58 1.58 2.38 2.35l-2.56 2.68zm159.96-5.03l-2.72-2.51c.75-.81 1.5-1.65 2.23-2.5l2.8 2.42c-.76.88-1.54 1.75-2.31 2.59zm-165.25-.38c-.77-.85-1.55-1.72-2.29-2.59l2.81-2.41c.72.84 1.47 1.68 2.22 2.5l-2.74 2.5zm170.18-5.35l-2.89-2.32c.69-.86 1.38-1.75 2.06-2.64l2.96 2.23c-.69.92-1.41 1.84-2.13 2.73zm4.55-6.06l-3.04-2.12c.64-.91 1.27-1.85 1.87-2.77l3.1 2.03c-.62.95-1.28 1.92-1.93 2.86zm4.12-6.35l-3.17-1.91c.57-.95 1.14-1.93 1.68-2.89l3.23 1.81c-.56 1-1.15 2-1.74 2.99zm3.69-6.62l-3.29-1.69c.51-.98 1.01-1.99 1.49-3l3.34 1.59c-.5 1.04-1.02 2.08-1.54 3.1zm3.24-6.85l-3.4-1.47c.44-1.02.87-2.07 1.28-3.1l3.44 1.36c-.42 1.07-.87 2.15-1.32 3.21zm2.76-7.06l-3.49-1.23c.37-1.05.73-2.12 1.07-3.18l3.53 1.12c-.35 1.09-.72 2.2-1.11 3.29zm2.28-7.24l-3.57-.99c.3-1.08.58-2.17.85-3.25l3.6.88c-.27 1.11-.57 2.24-.88 3.36zm1.79-7.38l-3.63-.75c.22-1.09.43-2.19.62-3.29l3.65.63c-.19 1.14-.41 2.28-.64 3.41zm1.27-7.46l-3.67-.5c.15-1.1.28-2.22.4-3.32l3.68.38c-.12 1.15-.26 2.3-.41 3.44zm.76-7.53l-3.69-.25c.07-1.11.13-2.23.17-3.34l3.7.13c-.04 1.15-.1 2.31-.18 3.46zm-3.45-7.57c0-1.11-.02-2.24-.05-3.35l3.7-.12c.04 1.15.05 2.31.06 3.46l-3.71.01zm-.25-7.32c-.07-1.11-.17-2.23-.28-3.34l-.02-.18 3.68-.37.02.19c.11 1.14.21 2.3.29 3.44l-3.69.26zm-.76-7.46c-.15-1.1-.32-2.21-.5-3.31l3.65-.61c.19 1.13.37 2.29.52 3.42l-3.67.5zm-1.23-7.22c-.22-1.09-.47-2.19-.72-3.27l3.6-.86c.27 1.12.52 2.25.75 3.38l-3.63.75zm-1.71-7.12c-.29-1.07-.61-2.15-.94-3.21l3.54-1.1c.34 1.1.67 2.22.97 3.32l-3.57.99zm-2.19-6.98c-.37-1.05-.76-2.1-1.16-3.14l3.45-1.34c.41 1.07.82 2.17 1.2 3.25l-3.49 1.23zm-2.66-6.82c-.44-1.02-.9-2.05-1.37-3.05l3.35-1.57c.49 1.04.96 2.1 1.42 3.16l-3.4 1.46zm-3.11-6.61c-.51-.99-1.04-1.98-1.57-2.94l3.24-1.79c.55 1 1.1 2.02 1.62 3.05l-3.29 1.68zm-3.55-6.38c-.57-.95-1.17-1.9-1.77-2.83l3.11-2.01c.62.96 1.24 1.95 1.83 2.93l-3.17 1.91zm-3.98-6.13c-.63-.91-1.29-1.82-1.95-2.71l2.97-2.21c.69.92 1.36 1.86 2.02 2.8l-3.04 2.12zm-4.38-5.84c-.69-.86-1.41-1.73-2.13-2.57l2.81-2.41c.75.87 1.49 1.77 2.21 2.66l-2.89 2.32zm-4.77-5.55c-.75-.82-1.53-1.63-2.3-2.42l2.65-2.59c.8.82 1.6 1.66 2.38 2.51l-2.73 2.5zm-2.58-7.89"/>
  <circle cx="52.33" cy="205.98" r="6.12" fill="#F8A72C"/>
  <circle cx="141.46" cy="141.58" r="83.91" fill="#EA001B"/>
  <path fill="#F8A72C" d="M86.17 135.94c5.28-7.31 11.21-14.21 18.1-20.06 5.12-4.56 11.16-8.16 15.27-13.77-1.8-2.21-4.41-3.6-7.3-3.56-6.03-.66-11.47 2.53-17.28 3.32-2.72.35-4.2-3.09-2.7-5.17 2.48-4.58 5.58-9.42 10.45-11.69 3.17-1.73 5.77 1.71 8.78 2.14 2.49-.91 1.86-4.45-.3-5.35-3.8-1.86-8.53-3.29-12.58-1.41-2.57 1.14-3.28 4.11-5 6.09-4.18.21-7.86-2.36-11.44-4.18-.06.03-.11.07-.16.1a83.986 83.986 0 0 0-18.02 26.96c-.01.06-.02.12-.02.18 1.91 5.72 1.54 11.71.96 17.62-.44 5.81 2.45 11.1 5.44 15.86 2.54 4.14 5.67 8.59 10.72 9.74-1.31-3.72-3.39-8.01-1.57-11.88 2.22-1.64 5.08-2.5 6.65-4.94zM210.17 93.44c-.11-.01-.22-.03-.3-.05-6.4-.34-10.28 6.81-16.68 5.87-5.69-.81-8.35-7.03-13.76-8.43-2.39-.66-4.88-.43-7.33-.45-2.64 4.3-3.03 9.39-2.66 14.31-3.71 1.57-4.46 5.5-4.93 9.07-.5 3.72-4.98 4.18-6.87 6.86-.89 1.9-.8 4.63 1.01 5.97 1.59.92 3.85.29 4.8-1.28 1.69-2.59 1.82-6.32 4.78-7.95 4.31-2.52 9.67-.55 13.08 2.58 4.16 4.09 8.42 8.3 14.01 10.38-2.7 1.86-5.67 3.56-9.02 3.77-6.26.64-11.63-4.45-17.92-3.28-8.81 1.66-14.44 11.9-11.68 20.31.72 2.08 2.65 3.8 4.91 3.91 3.66.1 7.12-2.27 10.79-1.4 3.46 1.38 5.04 5.3 4.8 8.84-.23 7.34-.03 15.1 3.33 21.79 1.45 3.04 5.78 4.66 8.09 1.57 7.65-10 4.8-23.96 11.38-34.46 3.81-6.5 9.54-11.81 16.07-15.5 3.03-1.64 5.88-3.7 8.01-6.44.04-.24.17-.52.33-.83a84.046 84.046 0 0 0-14.24-35.16zM149.09 71.59c-9.9-.15-19.8-.19-29.7-.04-1.96-.18-3.87 1.75-2.86 3.69 2.51 3.28 7.22 3.29 10.18 5.96.52 3.71-.28 7.51.65 11.19 2.04-.36 3.89-1.32 5.4-2.73 3.37-2.99 7.29-5.25 10.94-7.87 3.14-2.34 6.12-6.02 5.39-10.2zM105.35 213.57c2.81-8.11 6.02-16.84 13.45-21.86 5.02-3.29 11.45-7.01 11.82-13.73.51-3.59-2.56-6.03-5.33-7.59-7.64-4.24-14.56-9.73-22.55-13.33-1.76-.72-3.75-1.4-5.64-.82-2.48 2.57-2.34 6.56-4.44 9.39-1.27 1.94-3.69 3.84-2.73 6.45 2.6 5.52 6.88 9.99 10.9 14.5 5.48 8.05-.92 18.96 4.52 26.99z"/>
</svg>
