<svg xmlns="http://www.w3.org/2000/svg" viewBox="0 0 1024 1024">
  <circle cx="512" cy="512" r="512" fill="#d9272e"/>
  <path fill="#fff" d="M515 195.125c-176.625 0-319.875 143.125-319.875 319.875S338.375 834.875 515 834.875 834.875 691.625 834.875 515 691.625 195.125 515 195.125zm166 433c0 5.5-4.375 9.875-9.875 9.875H629.25a9.816 9.816 0 0 1-9.875-9.875v-128.75c0-1.125-1.25-1.625-2.125-.875l-88.5 88.5c-7.75 7.625-20.125 7.625-27.75 0l-88.5-88.5c-.75-.75-2.125-.125-2.125.875V628c0 5.5-4.375 9.875-9.875 9.875h-41.75a9.816 9.816 0 0 1-9.875-9.875V401.75c0-5.5 4.375-9.875 9.875-9.875h28.625c5.25 0 10.25 2.125 14 5.875L511.5 507.875c1.875 1.875 4.875 2 6.75.125l.125-.125L628.5 397.75c3.75-3.75 8.625-5.875 14-5.875h28.625c5.5 0 9.875 4.375 9.875 9.875v226.375z"/>
</svg>
