<svg xmlns="http://www.w3.org/2000/svg" viewBox="0 0 300 300">
  <rect width="300" height="300" fill="#E87D1E" rx="25"/>
  <path fill="#fafbfc" d="M131.555 118.521a3.009 3.009 0 0 1-3.032 3.032 3.009 3.009 0 0 1-3.032-3.032V63.032A3.009 3.009 0 0 1 128.523 60a3.009 3.009 0 0 1 3.032 3.032z"/>
  <path fill="#fafbfc" d="M134.164 118.521c0 6.2-1.128 11.281-2.609 11.281-1.41 0-2.609-5.077-2.609-11.281s1.128-11.281 2.609-11.281c1.41 0 2.609 5.077 2.609 11.281zm3.524-40.401l-8.954.423V63.032l8.954-2.327z"/>
  <path fill="#fafbfc" d="M72.54 79.319c-.987 0-1.974 0-2.961.071-.353 0-.705.071-1.058.071-.635.071-1.2.071-1.763.141-.494.071-.917.071-1.41.141a8.639 8.639 0 0 1-1.34.141 14.117 14.117 0 0 0-1.692.282c-.282.071-.564.071-.846.141A62.613 62.613 0 0 0 10 141.859l8.249 70.86h105.126l11.775-70.86a62.634 62.634 0 0 0-62.61-62.54zm43.5 122.682H26.5l-5.853-42.022-1.34-16.64a53.304 53.304 0 0 1 106.607 0zM168.288 177.817c7.474 1.622 12.409 5.641 12.409 15.23 0 14.031-10.153 21.082-24.748 21.082h-22.562a2.415 2.415 0 0 1-2.327-2.75l11.07-63.033a2.937 2.937 0 0 1 3.1-2.75h20.8c10.506 0 17.274 5.006 17.274 14.947-.068 11.069-7.542 15.934-15.016 17.274zm-11.563 5.147h-6.839l-3.455 19.46h8.461c7.262 0 11.352-4.089 11.352-10.365-.001-6.134-2.962-9.095-9.519-9.095zm4.724-26.229h-6.978l-2.75 15.653h6.346c6.769 0 10.858-2.75 10.858-9.236-.002-4.584-2.47-6.417-7.476-6.417zm68.533 46.817c-4.795 6.839-11.493 11.352-22 11.352-13.4 0-21.152-7.474-21.152-25.1 0-11.845 3.6-27.145 10.929-36.1 4.583-5.711 10.647-9.1 20.588-9.1 15.23 0 21.082 9.8 21.082 24.96.003 10.65-2.96 24.752-9.447 33.988zm-12.55-48.227c-12.762 0-16.71 25.594-16.71 35.677 0 7.544 1.833 12.762 8.179 12.762 12.691 0 16.569-25.242 16.569-35.324 0-7.051-1.692-13.115-8.038-13.115zm57.252 23.127l12.2 32.01c.846 2.045-.282 3.666-2.468 3.666h-9.589a3.662 3.662 0 0 1-3.6-2.327l-6.557-22.421-14.031 22.421a4.511 4.511 0 0 1-4.019 2.327h-10.644c-2.115 0-3.173-1.551-1.622-3.666l23.338-32.715-10.506-28.414a2.605 2.605 0 0 1 2.677-3.667h9.73a3.378 3.378 0 0 1 3.384 2.327l5.147 18.614 10.858-18.614a4.431 4.431 0 0 1 4.019-2.327h10.224c2.115 0 3.173 1.551 1.622 3.666z"/>
  <path fill="#fafbfc" d="M76.136 194.109h-5.923a2.306 2.306 0 0 1-2.327-2.045l-.917-29.895c-.071-1.551.071-8.461.071-10.435-.353 2.75-.917 8.038-1.551 10.435l-5.711 24.818a2.582 2.582 0 0 1-2.538 1.833h-6.134a2.523 2.523 0 0 1-2.538-1.833l-5.429-24.818c-.494-2.186-1.2-7.685-1.622-10.435 0 1.481.212 8.743.141 10.435l-1.128 29.895a2.415 2.415 0 0 1-2.327 2.045h-5.852a1.785 1.785 0 0 1-1.763-2.045l3.948-45.407a2.415 2.415 0 0 1 2.327-2.048h8.39a2.523 2.523 0 0 1 2.538 1.833l5.57 27.5c.353 1.974.705 6.557.917 9.1.212-2.468.564-7.4.917-9.1l5.782-27.5a2.582 2.582 0 0 1 2.538-1.833h8.108a2.359 2.359 0 0 1 2.327 2.045l3.878 45.407a1.7 1.7 0 0 1-1.692 2.048zm28.554-19.676v17.627a2.046 2.046 0 0 1-2.045 2.045h-5.782a2.046 2.046 0 0 1-2.045-2.045v-17.274l-13.044-27.639c-.705-1.481-.282-2.609 1.41-2.609h6.98a2.841 2.841 0 0 1 2.891 1.692l5.57 15.441a37.561 37.561 0 0 1 1.487 7.333 32.226 32.226 0 0 1 1.481-7.333l5.711-15.441a2.9 2.9 0 0 1 2.891-1.692h6.134c1.551 0 2.045 1.2 1.41 2.609z"/>
</svg>
