<svg xmlns="http://www.w3.org/2000/svg" viewBox="0 0 460 460">
  <circle cx="230" cy="230" r="230" fill="#36a18b"/>
  <path fill="#fff" d="M361.543 201.565c-14.756 0-25.305 6.825-30.632 16.933 0-23.877 8.33-44.681 28.105-44.681 12.572 0 17.563 7.238 20.223 19.096l18.312-3.661c-4.305-20.482-17.318-30.429-38.409-30.429-26.495 0-46.319 20.342-46.319 65.94 0 40.481 16.527 60.487 45.01 60.487 23.541 0 41.167-16.072 41.167-42.56 0-20.692-11.032-41.125-37.457-41.125zm-3.661 68.726c-14.609 0-24.717-13.44-26.474-31.241 4.438-15.204 14.28-22.771 25.907-22.771 14.952 0 23.394 11.039 23.394 26.74 0 16.849-9.611 27.272-22.827 27.272zm-97.405-25.466c-5.929 5.929-19.292 16.632-28.616 23.072h55.937v16.044h-82.313V269.29c9.541-6.811 29.351-21.602 41.748-34.006 11.865-11.865 19.635-22.708 19.635-38.626 0-15.659-8.603-22.169-20.23-22.169-11.914 0-21.434 6.888-21.434 21.273 0 3.136.35 6.622 1.218 10.633l-18.697-1.813a39.529 39.529 0 0 1-1.218-9.765c0-19.201 13.468-35.994 40.747-35.994 22.505 0 39.151 11.683 39.151 37.226 0 23.226-16.961 39.935-24.591 47.453l-1.337 1.323zM77 112h99.757v16.044H77zm81.053 48.125v84.7h-.007c0 7.497.175 12.033.525 16.394h-.35c-1.834-4.991-3.997-9.366-7.217-15.064l-50.092-86.03h-22.89v123.816h17.836v-84.7h.014c0-7.504-.175-12.033-.525-16.394h.35c1.827 4.991 3.99 9.366 7.21 15.057l50.092 86.037h22.659V160.125h-17.605zM77 316.022h99.757v15.96H77z"/>
</svg>
