<svg xmlns="http://www.w3.org/2000/svg" viewBox="0 0 1024 1024">
   <circle cx="512" cy="512" r="512" fill="#ef7c29" />
   <path fill="#fff"
      d="M452.532 375.008c-2.12.014-4.265.08-6.424.227-50.976 3.372-110.814 43.98-139.747 89.797-38.742 61.331-26.307 138.721 27.774 172.878 15.845 9.995 33.517 15.153 51.548 15.9 18.085.772 36.303-2.373 53.655-10.01-86.12-44.978-65.769-141.585-39.355-179.86 20.417-32.345 57.373-62.73 93.956-77.684-.214-.146-.44-.28-.653-.426-11.968-7.543-25.895-10.875-40.754-10.822z" />
   <path fill="#fff"
      d="M352.886 375.861c-52.362-.106-116.425 42.114-146.677 90.024-38.742 61.331-26.308 138.721 27.773 172.878 31.119 19.644 69.247 20.684 103.391 6.317a102.69 102.69 0 0 1-13.274-7.09c-54.08-34.157-66.488-111.534-27.773-172.878 20.857-33.037 57.799-63.356 95.888-78.976-11.622-7.063-25.042-10.248-39.328-10.275z" />
   <path fill="#fff"
      d="M510.011 499.15c-1.852.013-3.145.573-3.852 1.705-.733 1.146-1.745 4.198-3.025 9.13l-1.666 6.45 7.73-.054 1.666-6.45c1.186-4.571 1.692-7.516 1.532-8.836-.146-1.32-.932-1.972-2.385-1.946z" />
   <path fill="#fff"
      d="M605.126 571.928l-28.64.253c1.2-10.714 3.039-24.881 5.477-42.526a634.18 634.18 0 0 1-9.395 23.495l-7.676 19.125-28.627.266 11.421-87.611 22.75-.2c-.32 2.279-2.692 19.057-7.157 50.376 1.28-3.345 7.65-20.177 19.124-50.47l21.71-.186-7.517 50.376c4.718-14.833 11.102-31.652 19.125-50.47l21.603-.173c1.306-41.753-10.315-80.761-39.142-98.953-13.66-8.636-29.905-11.767-47.137-10.621-50.963 3.371-110.814 43.979-139.76 89.797-20.884 33.064-26.868 70.78-19.498 103.884l21.27-82.201 27.187-.227-2.639 8.077c2.772-3.226 5.771-5.664 8.943-7.29 3.172-1.613 6.597-2.44 10.262-2.466 4.53-.026 7.97 1 10.301 3.132 2.346 2.146 3.492 4.851 3.465 8.13-.026 3.265-1.04 8.729-3.038 16.392l-15.886 61.41-26.654.227 15.713-60.758c1.585-6.023 2.318-9.702 2.305-11.021-.053-1.32-.946-1.972-2.732-1.96-1.812.027-3.158.787-4.051 2.306-.88 1.52-2.173 5.598-3.892 12.208l-15.34 59.278-23.868.214c7.077 26.027 22.616 48.79 45.925 63.503 15.846 10.008 33.517 15.153 51.562 15.926 43.473 1.852 89.078-21.843 116.452-65.196 17.498-27.72 28.413-64.836 30.119-100.352l-32.065 84.306zm-72.966-41.58l-34.37.293-4.918 18.978c-1.026 3.971-1.399 6.53-1.146 7.676.267 1.133 1.2 1.693 2.812 1.693 1.973-.014 3.479-.8 4.571-2.306 1.04-1.532 2.146-4.491 3.279-8.849l2.998-11.595 25.308-.213-1.665 6.477c-1.4 5.424-2.826 9.569-4.252 12.5-1.439 2.906-3.825 6.038-7.183 9.356-3.345 3.306-7.157 5.824-11.421 7.504-4.252 1.679-9.29 2.545-15.1 2.585-5.584.067-10.315-.706-14.206-2.292-3.892-1.6-6.664-3.798-8.316-6.637-1.653-2.812-2.506-5.917-2.56-9.316-.052-3.411.787-8.369 2.466-14.886l6.624-25.561c1.972-7.663 4.558-13.7 7.77-18.151 3.211-4.438 7.476-7.863 12.767-10.249 5.33-2.385 11.008-3.612 17.085-3.665 7.463-.066 13.247 1.32 17.365 4.092 4.131 2.798 6.544 6.543 7.277 11.208.733 4.677.026 11.26-2.173 19.763l-3.012 11.595zm139.428-15.526l1.665-6.45c1.16-4.571 1.693-7.517 1.533-8.836-.147-1.333-.946-1.986-2.399-1.972-1.866.013-3.145.573-3.865 1.719-.72 1.146-1.719 4.184-2.985 9.142l-1.692 6.45 7.743-.053zm22.949 13.953l-34.357.294-4.918 18.95c-1.013 3.985-1.413 6.544-1.146 7.677.253 1.146 1.186 1.72 2.812 1.692 1.959-.013 3.491-.773 4.571-2.305 1.053-1.546 2.146-4.491 3.278-8.85l2.999-11.58 25.308-.214-1.693 6.464c-1.386 5.41-2.785 9.582-4.238 12.487-1.452 2.919-3.838 6.024-7.183 9.356-3.358 3.318-7.156 5.837-11.421 7.516-4.265 1.68-9.289 2.546-15.113 2.6-5.597.052-10.288-.734-14.206-2.333-3.892-1.586-6.664-3.785-8.303-6.61-1.653-2.826-2.506-5.93-2.559-9.33-.04-3.41.773-8.355 2.466-14.885l6.61-25.548c1.972-7.663 4.598-13.714 7.796-18.152 3.185-4.45 7.463-7.85 12.767-10.262 5.291-2.398 11.008-3.624 17.086-3.664 7.45-.067 13.22 1.292 17.351 4.104 4.132 2.812 6.544 6.517 7.29 11.195.746 4.691.027 11.261-2.172 19.764l-3.025 11.634m48.457-22.509c1.04-4.011 1.452-6.57 1.252-7.663-.2-1.093-1.066-1.64-2.612-1.64-1.572.027-2.812.654-3.758 1.92-.986 1.28-1.932 3.758-2.892 7.45l-7.623 29.519c-1.04 3.918-1.453 6.45-1.28 7.623.174 1.186 1.04 1.746 2.586 1.733 1.733-.014 3.052-.707 3.971-2.133.907-1.426 2-4.638 3.292-9.609l7.064-27.2zm32.664-23.482l-17.485 67.594c-2.386 9.143-4.131 15.06-5.25 17.699-1.12 2.678-3.346 5.49-6.678 8.516-3.291 2.985-7.423 5.29-12.367 6.89-4.958 1.612-10.875 2.452-17.725 2.519-8.516.066-14.953-1.333-19.337-4.172-4.385-2.865-5.571-8.53-3.559-17.005l25.855-.227c-1.027 3.958-.134 5.93 2.745 5.904 1.986-.013 3.518-.626 4.504-1.852.973-1.226 1.973-3.745 2.96-7.583l1.732-6.704c-2.826 2.093-5.611 3.692-8.436 4.785-2.812 1.08-5.598 1.612-8.396 1.652-4.785.04-8.503-.906-11.088-2.812-2.6-1.906-4.065-4.411-4.412-7.57-.373-3.118.2-7.596 1.72-13.42l8.236-31.798c2.172-8.316 5.197-14.3 9.155-17.992 3.932-3.664 8.97-5.53 15.046-5.584 3.319-.026 6.17.64 8.57 1.973 2.412 1.346 4.33 3.385 5.824 6.104l3.585-6.677 24.801-.24m37.382 22.896c1.026-4.012 1.453-6.557 1.253-7.677-.173-1.106-1.066-1.639-2.599-1.626-1.559.014-2.812.64-3.798 1.92-.92 1.266-1.879 3.744-2.852 7.436l-7.65 29.52c-1 3.917-1.426 6.436-1.252 7.636.146 1.16 1.026 1.732 2.585 1.719 1.72-.013 3.039-.706 3.932-2.146.92-1.426 2.025-4.624 3.318-9.609l7.063-27.173zm32.651-23.496L828.18 549.78c-2.346 9.142-4.105 15.033-5.224 17.698-1.12 2.652-3.319 5.49-6.65 8.49-3.319 3.011-7.45 5.303-12.395 6.916-4.944 1.6-10.848 2.439-17.725 2.479-8.502.093-14.926-1.306-19.31-4.145-4.412-2.865-5.598-8.516-3.572-17.005l25.841-.213c-1.013 3.958-.133 5.917 2.745 5.904 2.013-.027 3.532-.64 4.505-1.853.986-1.226 1.946-3.758 2.972-7.583l1.732-6.717c-2.798 2.106-5.624 3.692-8.436 4.771-2.785 1.08-5.57 1.64-8.369 1.666-4.811.013-8.503-.893-11.088-2.799-2.612-1.905-4.065-4.45-4.411-7.583-.36-3.131.213-7.596 1.706-13.42l8.222-31.811c2.146-8.303 5.224-14.287 9.156-17.979 3.971-3.678 8.969-5.557 15.073-5.597 3.318-.027 6.17.626 8.569 1.986 2.386 1.346 4.331 3.372 5.797 6.09l3.612-6.677 24.761-.213" />
</svg>