<svg xmlns="http://www.w3.org/2000/svg" viewBox="0 0 1024 1024">
  <circle cx="512" cy="512" r="512" fill="#0082c9"/>
  <path fill="#fff" d="M515.625 338.625c-80.75 0-148.5 55.25-169.25 129.625-18.125-39.75-57.875-68-104.125-68C179 400.5 127.875 451.75 127.5 515c.25 63.25 51.5 114.375 114.75 114.75 46.25 0 86-28.25 104.125-68 20.75 74.375 88.5 129.625 169.25 129.625 80.25 0 147.75-54.625 168.875-128.375 18.375 39.125 57.625 66.75 103.25 66.75C851 629.5 902.25 578.25 902.5 515c-.25-63.25-51.5-114.5-114.75-114.75C742 400.25 702.875 428 684.5 467c-21.125-73.75-88.625-128.5-168.875-128.375zm0 67.25c60.625 0 109.125 48.5 109.125 109.125s-48.5 109.125-109.125 109.125c-60 .25-108.75-48.125-109-108.125v-1c-.125-60.625 48.375-109.125 109-109.125zm-273.375 61.75c26.5 0 47.375 20.875 47.375 47.375 0 26.625-20.75 47.375-47.375 47.375-25.875.25-47.125-20.5-47.375-46.375v-1c0-26.625 20.75-47.375 47.375-47.375zm545.5 0c26.625 0 47.375 20.875 47.375 47.375 0 26.625-20.875 47.375-47.375 47.375-25.875.25-47.125-20.5-47.375-46.375v-1c0-26.625 20.875-47.375 47.375-47.375z"/>
</svg>
