<svg xmlns="http://www.w3.org/2000/svg" fill="none" viewBox="0 0 350 350">
  <circle cx="175" cy="175" r="175" fill="#fff"/>
  <g fill="#134074">
    <path d="M97 119.77l-19.92 19.51a51.46 51.46 0 0 1 0 73.83L97 232.62c15.37-15.08 23.87-35.12 23.87-56.4 0-21.3-8.47-41.33-23.87-56.42m77.38-75.88L159.64 59c22.9 21.45 94.04 100.93 94.79 117.18-.75 16.26-71.83 95.74-94.69 117.21l14.74 15.06c1.03-.95 101.25-101.42 101.25-132.24 0-30.81-100.34-131.37-101.35-132.32"/>
    <path d="M136.21 81.19l-19.45 19.9c14.4 13.52 38.58 41.23 38.58 75.22 0 33.98-24.09 61.57-38.45 75.08l19.48 19.88c17.59-16.53 47.11-50.84 47.11-94.96 0-44.12-29.61-78.6-47.27-95.12z"/>
  </g>
</svg>
