<svg xmlns="http://www.w3.org/2000/svg" xmlns:xlink="http://www.w3.org/1999/xlink" viewBox="0 0 512 512">
  <defs>
    <linearGradient id="d">
      <stop offset="0" stop-color="#2c2c2c"/>
      <stop offset="1" stop-color="#3d3d3d"/>
    </linearGradient>
    <linearGradient id="f" x1="1012.513" x2="1006.808" y1="484.417" y2="20.626" gradientTransform="translate(-830.864 592.678) scale(1.03178)" gradientUnits="userSpaceOnUse" xlink:href="#a"/>
    <linearGradient id="a" x1="45.448" x2="45.448" y1="92.54" y2="7.017" gradientTransform="matrix(1.00587 0 0 .99417 100 0)" gradientUnits="userSpaceOnUse">
      <stop offset="0"/>
      <stop offset="1" stop-opacity=".588"/>
    </linearGradient>
    <linearGradient id="g" x1="1012.513" x2="1006.808" y1="484.417" y2="20.626" gradientTransform="translate(-837.951 592.518) scale(1.04025)" gradientUnits="userSpaceOnUse" xlink:href="#a"/>
    <linearGradient id="h" x1="1012.513" x2="1006.808" y1="484.417" y2="20.626" gradientTransform="translate(-823.777 592.838) scale(1.0233)" gradientUnits="userSpaceOnUse" xlink:href="#a"/>
    <linearGradient id="i" x1="1012.513" x2="1006.808" y1="484.417" y2="20.626" gradientTransform="translate(-816.69 592.997) scale(1.01483)" gradientUnits="userSpaceOnUse" xlink:href="#a"/>
    <linearGradient id="j" x1="1012.513" x2="1006.808" y1="484.417" y2="20.626" gradientTransform="translate(-810.489 593.137) scale(1.00742)" gradientUnits="userSpaceOnUse" xlink:href="#a"/>
    <linearGradient id="l" x1="993.439" x2="988.786" y1="51.512" y2="363.738" gradientTransform="translate(778.6 -360.56)" gradientUnits="userSpaceOnUse" xlink:href="#b"/>
    <linearGradient id="b">
      <stop offset="0" stop-color="#fff"/>
      <stop offset="1" stop-color="#fff" stop-opacity="0"/>
    </linearGradient>
    <linearGradient id="m" x1="1764.649" x2="1763.69" y1="155.597" y2="-55.941" gradientUnits="userSpaceOnUse" xlink:href="#c"/>
    <linearGradient id="c">
      <stop offset="0"/>
      <stop offset="1" stop-color="#fff" stop-opacity=".2"/>
    </linearGradient>
    <linearGradient id="e">
      <stop offset="0" stop-color="#222"/>
      <stop offset="1" stop-color="#333"/>
    </linearGradient>
    <linearGradient id="n" x1="51.352" x2="48.838" y1="478.818" y2="31.965" gradientUnits="userSpaceOnUse" xlink:href="#d"/>
    <linearGradient id="k" x1="53.866" x2="48" y1="491.388" y2="26.937" gradientUnits="userSpaceOnUse" xlink:href="#e"/>
  </defs>
  <g stroke-width="1.5" color="#000" transform="translate(-11.985 -592.117)">
    <rect width="487" height="487" x="31.985" y="612.117" fill="url(#f)" opacity=".1" ry="101.458"/>
    <rect width="491" height="491" x="31.985" y="612.117" fill="url(#g)" opacity=".08" ry="102.292"/>
    <rect width="483" height="483" x="31.985" y="612.117" fill="url(#h)" opacity=".2" ry="100.625"/>
    <rect width="479" height="479" x="31.985" y="612.117" fill="url(#i)" opacity=".25" ry="99.792"/>
    <rect width="475.5" height="475.5" x="31.985" y="612.117" fill="url(#j)" opacity=".25" ry="99.063"/>
  </g>
  <g color="#000">
    <path fill="url(#k)" d="M118.344 20C63.867 20 20 63.867 20 118.344v275.312C20 448.133 63.867 492 118.344 492h275.312C448.133 492 492 448.133 492 393.656V118.344C492 63.867 448.133 20 393.656 20H118.344z"/>
    <path fill="#8bd507" stroke-miterlimit="10" stroke-width="0" d="M217 20v472h176.656C448.133 492 492 448.133 492 393.656V118.344C492 63.867 448.133 20 393.656 20H217z"/>
  </g>
  <path fill-opacity=".235" stroke-miterlimit="10" stroke-width="0" d="M229.844 146.75c-1.54.01-3.1.041-4.656.094-2.587.088-5.147.332-7.72.531C129.832 154.413 54 228.656 54 228.656s15.332 44.345 53.406 82.469L288.281 492h105.375C448.133 492 492 448.133 492 393.656v-68.531l-32.75-32.719c-4.509-3.751-9.026-6.516-13.094-8.906l-73.062-73.062c-24.747-24.265-75.712-64.122-143.25-63.688zm-1.313 21.438c69.767-.218 115.375 61.53 115.375 61.53s-50.75 70.595-105.187 70.595c-7.834 0-14.929-1.406-21.25-3.532v-79.344c27.892 3.37 33.637 15.765 50.406 43.72l37.219-31.626s-27.168-35.625-73.063-35.625c-4.992 0-9.876.373-14.562.875v-26.187c2.546-.178 5.098-.261 7.719-.344 1.119-.035 2.236-.06 3.343-.063z"/>
  <g stroke-width="1.5" color="#000">
    <path fill="url(#l)" d="M1650.5-310.416c-54.477 0-98.313 43.836-98.313 98.312V63.24c0 54.477 43.836 98.344 98.312 98.344h2.938c-53.323 0-96.25-42.928-96.25-96.25v-269.5c0-53.323 42.927-96.25 96.25-96.25h269.5c53.322 0 96.25 42.927 96.25 96.25v269.5c0 53.322-42.928 96.25-96.25 96.25h2.906c54.477 0 98.344-43.867 98.344-98.344v-275.344c0-54.476-43.867-98.312-98.344-98.312H1650.5z" opacity=".3" transform="translate(-1532.187 330.416)"/>
    <path fill="url(#m)" d="M1650.5 161.584c-54.477 0-98.313-43.836-98.313-98.313v-275.343c0-54.477 43.836-98.344 98.312-98.344h2.938c-53.323 0-96.25 42.927-96.25 96.25v269.5c0 53.322 42.927 96.25 96.25 96.25h269.5c53.322 0 96.25-42.928 96.25-96.25v-269.5c0-53.323-42.928-96.25-96.25-96.25h2.906c54.477 0 98.344 43.867 98.344 98.344V63.27c0 54.477-43.867 98.313-98.344 98.313H1650.5z" opacity=".2" transform="translate(-1532.187 330.416)"/>
  </g>
  <path fill="#7ec206" stroke-miterlimit="10" stroke-width="0" d="M-324.969 121.406V338.25zm-17.48-642.501v130.125c2.573-.199 5.132-.443 7.72-.53 99.634-3.359 164.53 81.812 164.53 81.812s-74.57 90.625-152.25 90.625c-7.119 0-13.74-.674-20-1.782v24.25c5.354.68 10.896 1.063 16.688 1.063 72.287 0 124.6-36.932 175.219-80.625 8.392 6.721 42.812 23.059 49.875 30.219-48.13 40.294-160.284 72.875-223.875 72.875-6.13 0-12.12-.505-17.907-1.063v125.031h241.094c18.678 0 33.719-15.04 33.719-33.718v-404.563c0-18.678-15.041-33.719-33.719-33.719h-241.094zm0 346.97v-22.47c-88.464-11.13-118.718-108.687-118.718-108.687s39.596-58.422 118.718-64.469v-21.219c-87.638 7.039-163.468 81.282-163.468 81.282s42.923 124.185 163.468 135.562zm0-195.626v26.188c4.686-.502 9.57-.875 14.563-.875 45.894 0 73.062 35.625 73.062 35.625l-37.218 31.625c-16.77-27.955-22.514-40.349-50.407-43.72v79.345c6.322 2.125 13.416 3.53 21.25 3.53 54.437 0 105.188-70.593 105.188-70.593s-47.071-63.719-118.719-61.469c-2.62.083-5.172.166-7.719.344zm0 128.188c-37.693-12.665-49.875-56.532-49.875-56.532s21.893-26.17 49.875-22.812v-22.656c-53.314 5.765-85.343 41.25-85.343 41.25s18.486 69.549 85.343 81.468v-20.718z"/>
  <g stroke-miterlimit="10">
    <path fill="#8bd507" stroke-width="0" d="M229.844 146.736c-1.54.01-3.1.041-4.656.094-2.587.088-5.147.332-7.72.531C129.832 154.4 54 228.642 54 228.642s42.923 124.186 163.469 135.563c5.786.558 11.776 1.062 17.906 1.062 63.591 0 175.746-32.58 223.875-72.875-7.063-7.16-41.483-23.497-49.875-30.218-50.619 43.693-102.932 80.625-175.219 80.625-5.791 0-11.334-.383-16.687-1.063v-24.25c6.26 1.108 12.88 1.781 20 1.781 77.68 0 152.25-90.625 152.25-90.625s-62.873-82.53-159.875-81.906zm-1.313 21.438c69.767-.217 115.375 61.53 115.375 61.53S293.156 300.3 238.72 300.3c-7.834 0-14.929-1.406-21.25-3.532v-79.343c27.892 3.37 33.637 15.764 50.406 43.718l37.219-31.625s-27.168-35.625-73.063-35.625c-4.992 0-9.876.374-14.562.875V168.58c2.546-.178 5.098-.261 7.719-.344 1.119-.035 2.236-.059 3.343-.062z"/>
    <path fill="url(#n)" d="M229.844 146.75c-1.54.01-3.1.041-4.656.094-2.587.088-5.147.332-7.72.531-.156.013-.312.018-.468.031v216.75c.158.016.31.048.469.063 5.786.558 11.776 1.062 17.906 1.062 63.591 0 175.746-32.58 223.875-72.875-7.063-7.16-41.483-23.497-49.875-30.219-50.619 43.694-102.932 80.625-175.219 80.625-5.791 0-11.334-.382-16.687-1.062V317.5c6.26 1.108 12.88 1.781 20 1.781 77.68 0 152.25-90.625 152.25-90.625s-62.873-82.53-159.875-81.906zm-1.313 21.438c69.767-.218 115.375 61.53 115.375 61.53s-50.75 70.595-105.187 70.595c-7.834 0-14.929-1.406-21.25-3.532v-79.344c27.892 3.37 33.637 15.765 50.406 43.72l37.219-31.626s-27.168-35.625-73.063-35.625c-4.992 0-9.876.373-14.562.875v-26.187c2.546-.178 5.098-.261 7.719-.344 1.119-.035 2.236-.06 3.343-.063z" color="#000"/>
  </g>
</svg>
