<svg xmlns="http://www.w3.org/2000/svg" viewBox="0 0 1024 1024">
  <circle cx="512" cy="512" r="512" fill="#2585ef"/>
  <path fill="#fff" d="M523 850.25c0-63 .25-126-.25-189-.125-12.875 2.625-23.375 13.25-31.125 3.75-2.75 7.75-5.125 11.625-7.625-1-1.375-2-2.875-3-4.25-6.875.875-13.625 1.625-21.125 2.5V492.875c2.5 2.25 4.625 3.375 5.25 5 7.625 24.375 20.5 45.375 39.875 62.125 2.25 2 7.125 2.875 10 1.875 47.125-16.375 83.75-46.25 110.875-87.75 25.125-38.375 34.25-81 30-126.125-3.25-34.25-17.75-64.625-38.375-92-21.125-27.875-47.75-49.75-77-68.5-3.25-2.125-5.75-5.375-8.625-8h8c8.75 4 17.5 7.875 26.125 12.125 23.875 12 48.75 22.5 71.125 36.875 22.25 14.375 43.5 31.25 62.25 49.875 22.25 22.125 40.125 48 54.5 76.5 13.75 27.25 22.75 55.625 28.875 85.125 2.875 13.75 4.125 27.875 6.125 41.75v32c-2.75-2.125-5.875-3.75-8-6.25-19.5-22.375-44.375-32.5-73.125-34.125-26.25 50.75-71 91.75-151.5 118.5 19.625 0 43.5.5 67.25-.25 13.5-.375 27.125-1.625 40.125-4.75C751.75 581 776 574.125 800 566.5c8.375-2.625 16-8 23.625-12.625 8.875-5.375 17.375-11.5 27.25-18.125-1.75 10.875-2.875 21-5.25 30.875-8.25 35.125-25.625 66.25-44.125 96.625-17.125 28.125-37.75 53.625-62.25 75.75-6.625 6-14.375 10.875-23 17.375-.25-4.25-.5-5-.25-5.5.875-1.75 1.875-3.5 2.875-5.25 10.375-19.875 21-39.5 19.125-63.125-1.25-15.875-13.875-28.375-29-26.75-10.75 1.125-21.625 2.25-32.25 4-33.875 5.625-66.625 14.375-94.125 36.125-17.75 14-27.375 32.875-23 55.625 3.875 19.875 17.375 28.25 42.125 34.25 7 1.75 14.375 2.25 20.25 3.125-20.125 9.375-41.25 18-61.125 28.75-13.375 7.25-26.125 16.75-31.75 32.375-2.125.25-4.125.25-6.125.25zm-15.125-.25c0-63-.25-126 .25-189 .125-12.875-2.625-23.375-13.25-31.125-3.75-2.75-7.75-5.125-11.625-7.625 1-1.375 2-2.875 3-4.25 6.875.875 13.625 1.625 21.125 2.5V492.625c-2.5 2.25-4.625 3.375-5.25 5C494.5 522 481.625 543 462.25 559.75c-2.25 2-7.125 2.875-10 1.875-47.125-16.375-83.75-46.25-110.875-87.75-25.125-38.375-34.25-81-30-126.125 3.25-34.25 17.75-64.625 38.375-92 21.125-27.875 47.75-49.75 77-68.5 3.25-2.125 5.75-5.375 8.625-8h-8c-8.75 4-17.5 7.875-26.125 12.125-23.875 12-48.75 22.5-71.125 36.875-22.25 14.375-43.5 31.25-62.25 49.875-22.25 22.125-40.125 48-54.5 76.5-13.75 27.25-22.75 55.625-28.875 85.125-2.875 13.75-4.125 27.875-6.125 41.75v32c2.75-2.125 5.875-3.75 8-6.25 19.5-22.375 44.375-32.5 73.125-34.125 26.25 50.75 71 91.75 151.5 118.5-19.625 0-43.5.5-67.25-.25-13.5-.375-27.125-1.625-40.125-4.75-24.5-5.875-48.75-12.75-72.75-20.375-8.375-2.625-16-8-23.625-12.625-8.875-5.375-17.375-11.5-27.25-18.125 1.75 10.875 2.875 21 5.25 30.875 8.25 35.125 25.625 66.25 44.125 96.625 17.125 28.125 37.75 53.625 62.25 75.75 6.625 6 14.375 10.875 23 17.375.25-4.25.5-5 .25-5.5-.875-1.75-1.875-3.5-2.875-5.25-10.375-19.875-21-39.5-19.125-63.125 1.25-15.875 13.875-28.375 29-26.75 10.75 1.125 21.625 2.25 32.25 4 33.875 5.625 66.625 14.375 94.125 36.125 17.75 14 27.375 32.875 23 55.625-3.875 19.875-17.375 28.25-42.125 34.25-7 1.75-14.375 2.25-20.25 3.125 20.125 9.375 41.25 18 61.125 28.75 13.375 7.25 26.125 16.75 31.75 32.375 2.125.25 4.125.25 6.125.25z"/>
</svg>
