<svg xmlns="http://www.w3.org/2000/svg" xmlns:xlink="http://www.w3.org/1999/xlink" viewBox="0 0 90 90">
  <defs>
    <radialGradient id="b" cx="125.255" cy="16.735" r="254" fx="125.255" fy="16.735" gradientTransform="matrix(0 1.06475 -1.74952 0 154.532 -61.444)" gradientUnits="userSpaceOnUse" xlink:href="#a"/>
    <linearGradient id="a">
      <stop offset="0" stop-color="#505050"/>
      <stop offset="1" stop-color="#3c3c3c"/>
    </linearGradient>
    <style/>
  </defs>
  <rect width="90" height="90" fill="url(#b)" rx="10"/>
  <path fill="#fefefe" d="M44.955 5.168C23.117 5.168 5.25 23.037 5.25 44.874c0 21.84 17.869 39.708 39.706 39.708 21.84 0 39.708-17.868 39.708-39.708 0-21.837-17.868-39.706-39.708-39.706zM75.766 56.43c-.43 5.057-4.646 9.48-8.971 9.726a427.338 427.338 0 0 1-43.678 0c-4.326-.246-8.541-4.669-8.971-9.726a145.477 145.477 0 0 1 0-23.11c.429-5.058 4.645-9.48 8.97-9.726a426.937 426.937 0 0 1 43.679 0c4.325.247 8.541 4.668 8.971 9.725.613 7.705.613 15.408 0 23.11z"/>
  <path fill="#fff" d="M67.788 53.134H22.124a.996.996 0 0 0-.993.993v.994c0 .545.446.991.993.991h45.663a.995.995 0 0 0 .993-.991v-.994a.995.995 0 0 0-.992-.993zm-7.94 5.956H30.065a.996.996 0 0 0-.994.994v.993c0 .545.447.992.994.992h29.781a.995.995 0 0 0 .993-.992v-.993a.996.996 0 0 0-.993-.994z"/>
</svg>
