<svg xmlns="http://www.w3.org/2000/svg" xmlns:xlink="http://www.w3.org/1999/xlink" fill-rule="evenodd" stroke-linejoin="round" stroke-miterlimit="2" clip-rule="evenodd" viewBox="0 0 128 128">
  <defs>
    <linearGradient id="_Linear20" x2="1" gradientTransform="translate(29.84 45.5) scale(43.56)" gradientUnits="userSpaceOnUse">
      <stop offset="0" stop-color="#a6a8ab"/>
      <stop offset=".24" stop-color="#a6a8ab"/>
      <stop offset="1" stop-color="#404040"/>
    </linearGradient>
    <linearGradient id="_Linear21" x2="1" gradientTransform="matrix(-43.6 0 0 -43.6 146.7 45.5)" gradientUnits="userSpaceOnUse">
      <stop offset="0" stop-color="#a6a8ab"/>
      <stop offset=".24" stop-color="#a6a8ab"/>
      <stop offset="1" stop-color="#404040"/>
    </linearGradient>
    <linearGradient id="_Linear22" x2="1" gradientTransform="rotate(180 73.34 303) scale(43.56)" gradientUnits="userSpaceOnUse">
      <stop offset="0" stop-color="#a6a8ab"/>
      <stop offset=".24" stop-color="#a6a8ab"/>
      <stop offset="1" stop-color="#404040"/>
    </linearGradient>
    <linearGradient id="_Linear23" x2="1" gradientTransform="translate(29.9 606) scale(43.53)" gradientUnits="userSpaceOnUse">
      <stop offset="0" stop-color="#a6a8ab"/>
      <stop offset=".24" stop-color="#a6a8ab"/>
      <stop offset="1" stop-color="#404040"/>
    </linearGradient>
  </defs>
  <g transform="matrix(1.0638 0 0 1.0684 -29.885 -16.775)">
    <clipPath id="_clip1">
      <path d="M38.8 34.1v-4.8c0-.4.1-1.1.1-1.1l.2-.5v-.2l.2-.4.1-.1.1-.2.1-.1v-.1l.2-.2v-.1l.7-.7.2-.1h.1l.3-.2h.3l.6-.3c.4-.1.7-.1 1.1-.1h94.6v9.2h9V15.7H43.1c-7.3 0-13.3 6.1-13.3 13.6v4.8h9z"/>
    </clipPath>
    <clipPath id="_clip8">
      <path d="M137.7 117.1v4.9c0 .4-.1 1.1-.1 1.1l-.2.5v.2l-.2.4-.1.1-.1.2-.1.1v.1l-.2.2v.1l-.5.5h-.1l-.1.1-.2.1-.1.1-.3.2h-.3l-.5.2c-.4.1-.7.1-1.1.1H38.8v-9.2h-9v18.4h103.6c7.3 0 13.3-6.1 13.3-13.6v-4.8h-9z"/>
    </clipPath>
    <path clip-path="url(#_clip1)" fill="#898b8d" d="M30.2 14.7h117.1v12H30.2z"/>
    <path fill="#403f41" d="M47.8 34.1h80.9v9.2H47.8zM47.8 108h80.9v9.2H47.8z"/>
    <path clip-path="url(#_clip8)" fill="#898b8d" d="M29.2 124.6h117.1v12H29.2z"/>
    <path fill="#58595b" d="M38.8 52.6h34.6v9.2H38.8z"/>
    <path fill="#58595b" d="M103.1 52.6h34.6v9.2h-34.6z"/>
    <path fill="#58595b" d="M103.1 89.5h34.6v9.2h-34.6z"/>
    <path fill="#58595b" d="M38.8 89.5h34.6v9.2H38.8z"/>
    <path fill="url(#_Linear20)" d="M73.4 52.6v9.2L29.8 38.5v-9.2l43.6 23.3z"/>
    <path fill="url(#_Linear21)" d="M103.1 52.6v9.2l43.6-23.3v-9.2l-43.6 23.3z"/>
    <path fill="url(#_Linear22)" d="M103.1 98.8v-9.3l43.6 23.3v9.3l-43.6-23.3z"/>
    <path fill="url(#_Linear23)" d="M73.4 98.8v-9.3l-43.6 23.3v9.3l43.6-23.3z"/>
    <path fill="#e24525" d="M103.1 80.3L128.7 94v-9.3l-8.3-4.4h26.3V71h-26.3l8.3-4.4v-9.2L103.1 71v9.3zM47.8 94l25.6-13.7V71L47.8 57.4v9.2l8.4 4.4H29.8v9.3h26.3l-8.3 4.4V94z"/>
  </g>
</svg>
