<svg xmlns="http://www.w3.org/2000/svg" viewBox="0 0 154 154">
    <path fill="red" d="M22 0h110a22 22 0 0 1 22 22v110a22 22 0 0 1-22 22H22a22 22 0 0 1-22-22V22A22 22 0 0 1 22 0z" />
    <path fill="none" d="M22.971 38.026h108.126v75.878H22.971z"/>
    <path fill="#fff" fill-rule="evenodd" d="M97.509 42.393C81.898 47.786 74.164 60.325 72.347 76.77c-1.687 15.262-10.473 22.3-18.562 25.042l3.306 9.336c15.61-5.394 23.34-17.933 25.162-34.377 1.687-15.262 10.473-22.3 18.562-25.042zM89.195 76.77c0-12.01 9.172-20.391 20.486-20.391s20.486 8.38 20.486 20.391v18.845h-10.326V76.77c0-6.708-4.548-10.744-10.159-10.744S99.523 70.062 99.523 76.77l-.027 18.846h-10.3zM44.917 66.026c-5.611 0-10.159 4.036-10.159 10.744 0 6.521 4.548 10.814 10.159 10.814s10.159-4.291 10.159-10.814c0-6.708-4.549-10.744-10.159-10.744zM65.403 76.77c0 12.011-9.172 20.391-20.486 20.391S24.431 88.78 24.431 76.77s9.172-20.391 20.486-20.391 20.486 8.38 20.486 20.391z"/>
</svg>
