<svg xmlns="http://www.w3.org/2000/svg" version="1.1" viewBox="0 0 200 200">
  <path fill="#d82231" d="M0 0h200v200H0z"/>
  <path d="M55 86H42.6c-3.1 0-4.6 1.5-4.6 4.6v22.6c0 .6.1.9.8.8 1.5-.1 3-.1 4.5 0 .7 0 .8-.2.8-.8v-7.5c0-.9.2-1.2 1.2-1.2 3.8 0 7.6.1 11.4 0 3-.1 4.8-1.7 5.7-4.5.7-2.3.8-4.7.5-7.1-.8-5-3-6.9-7.9-6.9zm1.4 11.2c-.2 1.2-.9 1.9-2.2 2.1-1.7.2-3.5 0-4.8.1h-4.6c-.6 0-.7-.2-.7-.8v-6.3c0-.8.3-1.1 1.1-1.1h8.1c2.1 0 2.9.8 3.2 2.9.2 1 .1 2-.1 3.1zM82.8 97.5c-.5-2.9-2.3-4.7-5.3-4.9-2-.1-4 0-6 0v-.1h-6c-.5 0-.8.1-.7.7 0 1 .1 2 0 3 0 .7.2 1 .9 1h9.5c1.5 0 2.1.7 2.2 2.2 0 .7-.2.9-.9.9h-7.7c-2.7 0-4.7 1.6-5.3 4.3-.3 1.5-.3 3.1-.1 4.6.5 3.5 2.2 4.9 5.8 4.9h9.7c2.7 0 4-1.4 4-4v-6.4c.1-2.1.3-4.2-.1-6.2zm-5.4 8v3.1c0 .6-.2.8-.8.8h-5.9c-.8 0-1.4-.4-1.5-1.3-.1-.6-.2-1.2-.1-1.8.2-1.2.6-1.5 1.8-1.5h5.8c.5 0 .8.1.7.7zM149.5 92.8c-2.9-.6-5.8-.6-8.6 0-3.4.6-5.4 2.7-6 6.1-.5 3-.5 6.1.1 9.1.8 4 3.2 5.9 7.2 5.9h11.3c.8 0 1-.3 1-1-.1-.8-.1-1.6 0-2.4.1-1-.2-1.2-1.2-1.2-3.1.1-6.2 0-9.3 0-2.4 0-3.4-.9-3.6-3.1-.1-.8.2-1 .9-1h10.1c2 0 3.3-1.2 3.6-3.2.2-1.1.1-2.3 0-3.4-.5-3.1-2.3-5.2-5.5-5.8zm-1 7.9H141c-.6 0-.7-.2-.6-.8.2-1.2.7-2.1 1.9-2.5 1.8-.6 3.5-.6 5.3.1 1 .4 1.6 1.2 1.7 2.2.2.6 0 1-.8 1zM117.6 97.9c-.3-3.2-2.1-5-5.4-5.4-.5-.1-.9-.1-1.4-.1h-10.6c-.5 0-.7.1-.7.7 0 1 .1 2 0 3 0 .8.2 1 1 1 3.1-.1 6.2 0 9.3 0 1.5 0 2.2.7 2.4 2 .1.8-.1 1.1-1 1.1-2.5-.1-5-.1-7.5 0-3 0-5 1.8-5.4 4.7-.3 1.7-.2 3.5.2 5.2.5 2.3 2 3.8 4.1 3.8 4 .1 8 .1 12 0 1.8 0 2.8-1.2 3.1-2.9.1-.7.1-1.3.1-2-.1-3.8.2-7.5-.2-11.1zm-6.2 11.4h-6.1c-.7 0-1.2-.4-1.4-1.2-.1-.5-.2-1-.1-1.6.1-1.4.5-1.8 1.9-1.8H111.5c.5 0 .6.2.6.6v3.2c.1.6-.1.8-.7.8zM178.7 102.2c-2.6-.8-5.2-1.5-7.8-2.3-1.2-.4-1.5-1-1.3-1.9.2-1 1.1-.9 1.8-.9h10c.8 0 1-.2.9-1-.1-1 0-2 0-3 0-.6-.2-.7-.7-.7h-5.3c-2.5 0-4.9-.2-7.4.1-2.7.3-4.2 1.6-4.6 4-.6 3 .3 5.5 2.4 6.9 1.1.7 2.3 1.1 3.5 1.4 2.1.6 4.2 1.2 6.2 1.8.5.2 1 .4 1.1 1 .2 1.1-.3 1.7-1.6 1.7h-10.6c-.8 0-1 .2-1 1 .1.9.1 1.9 0 2.8 0 .6.2.8.8.8h13c2.6 0 4.5-1.5 5-3.9.5-3.2-.2-6.5-4.4-7.8zM25.5 80.7c-1.8 0-3.1 1.4-3.1 3.4V115.8c0 2 1.2 3.4 3.1 3.4 1.9 0 3.1-1.4 3.1-3.4V84c.1-1.9-1.2-3.3-3.1-3.3zM13.1 80.7c-1.6 0-2.9 1.2-3.1 2.7-.1.4 0 .9 0 1.3v31.7c.2 1.6 1.4 2.7 2.9 2.8 1.6.1 2.9-.9 3.3-2.4.1-.4.1-.8.1-1.2V84.2v-.9c-.3-1.5-1.6-2.6-3.2-2.6zM125.4 99.9V86.8c0-.7-.2-.9-.9-.9-1.3.1-2.7 0-4 0-.6 0-.7.1-.7.7v26.6c0 .6.2.8.8.8 1.3 0 2.5-.1 3.8 0 .8 0 1-.2 1-1-.1-4.4 0-8.7 0-13.1zM133 99.9V86.7c0-.6-.2-.9-.8-.8h-4c-.6 0-.8.2-.8.8v26.5c0 .7.3.8.8.7 1.3 0 2.5-.1 3.8 0 .8 0 1-.2 1-1-.1-4.3 0-8.6 0-13zM162.4 86.5c0-.6-.2-.8-.7-.7-1.3 0-2.7.1-4 0-.7 0-.9.2-.9.9V113c0 .7.1.9.9.9 1.3-.1 2.7 0 4 0 .6 0 .7-.1.7-.7V86.5zM98.4 96.4v-3.3c0-.6-.2-.7-.7-.7-1.7 0-3.3 0-5 .1-5 .2-7.6 3-7.6 8v12.7c0 .6.2.8.8.8 1.3 0 2.5-.1 3.8 0 .8 0 1.1-.2 1.1-1-.1-3.9-.1-7.7 0-11.6 0-2.9 1.4-4.2 4.3-4.3h2.8c.3 0 .5-.2.5-.7zM186.8 86.9c-1.8 0-3.1 1.4-3.1 3.2 0 1.8 1.4 3.1 3.2 3.1 1.8 0 3.1-1.4 3.1-3.2 0-1.8-1.4-3.1-3.2-3.1zm0 5.9c-1.5-.1-2.7-1.3-2.6-2.8 0-1.5 1.2-2.7 2.7-2.7 1.6 0 2.7 1.3 2.7 2.8 0 1.6-1.3 2.8-2.8 2.7z" fill="#fefdfd"/>
  <path d="M188.3 89.8c.4-.5.1-1.1-.4-1.3-.6-.3-1.4-.3-2-.1-.5.2-.2.9-.2 1.3-.1.4 0 .9 0 1.3 0 .3-.1.6.4.6.4 0 .4-.2.4-.5 0-.2-.1-.5.3-.5.3 0 .4.2.5.4.3.4.5.9 1.3.5-.8-.5-.8-1-.3-1.7zm-1.3.1c-.4 0-.6 0-.6-.5 0-.4.2-.4.5-.4s.7 0 .7.4-.3.5-.6.5z" fill="#fefdfd"/>
</svg>
