<svg xmlns="http://www.w3.org/2000/svg" viewBox="0 0 1024 1024">
  <circle cx="512" cy="512" r="512" fill="#27346a"/>
  <path fill="#fff" d="M782.25 499c-22.75 118.125-101.125 158.5-201.5 158.5H565c-12.375 0-22.875 8.5-24.75 20.875l-1.25 6.5-19.625 124-1.375 5.25C516.125 825.875 505.625 835 493.25 835H389.5c-9.125 0-16.25-7.875-15-17l3-18.75h35.25l33.5-213.875h53.5c144.5 0 235.5-70.25 263.625-203.125C787 410.875 791.75 450.875 782.25 499zm-49.5-141.625c7.875-49.625 0-83.5-26.75-114.125C676 209.375 622.5 195 554 195H355c-13.75 0-26.125 10.375-28 24.125L243.375 745c-2 10.375 6.5 19.625 17 19.625H383l30.625-195.875-.625 5.875c2-13.75 13.75-24.125 28.125-24.125h58.75c114.875 0 204.875-46.375 231-181.375.5-3.875 1.25-7.75 1.875-11.75"/>
</svg>
