<svg xmlns="http://www.w3.org/2000/svg" viewBox="0 0 1000 1000">
  <path d="M248 192.92s103.53-13.78 253.27-13.78C652 179.14 752 192.92 752 192.92v372.7c0 146.46-113.78 255.24-252 255.24-139.33 0-252-110.25-252-252z" fill="#0b5ed8"/>
  <path d="M433 240.36h-23.44v30.5h-24.38v-30.5h-23.42v76.73h23.42v-30.18h24.38v30.18H433zm81.48 61.31v-61.31H491v76.73h42.35l3.53-15.42zm-40.74-61.31H450.3v76.73h23.42zm95 0h-23.48v76.73h23.42zm115.48 19.58c0-4.17 4.17-6.1 10.9-6.1a58.62 58.62 0 0 1 20.86 3.86L714 241a91.93 91.93 0 0 0-21.5-2.25c-18.93 0-31.76 7.47-31.76 23.12 0 27 36.58 21.51 36.58 34 0 4.81-3.53 7.38-12.2 7.38-7.69 0-19.57-2.57-26.62-6.1l2.57 17.66c7 2.57 16.68 3.85 24.38 3.85 19.56 0 35.61-6.42 35.61-25.69 0-25.67-36.9-20.86-36.9-33.06m-66.07 38.85c21.8 0 35.6-11.24 35.6-30.82 0-21.51-14.76-29.22-38.82-29.22a261.73 261.73 0 0 0-28.55 1.61v76.73h23.42v-18.3zm12.5-30.5c0 9.95-4.81 16.69-17 16.69h-2.85v-31.7c1.36-.08 1.64-.08 2.85-.08 11.54 0 17 5.46 17 15.09m-313.74 30.5c21.82 0 35.61-11.24 35.61-30.82 0-21.51-14.76-29.22-38.81-29.22a261.58 261.58 0 0 0-28.55 1.61v76.73h23.41v-18.3zm12.52-30.5c0 9.95-4.82 16.69-17 16.69h-2.8v-31.7c1.37-.08 1.6-.08 2.8-.08 11.55 0 17 5.46 17 15.09M283 595.9c-.68-6.12-1.38-18.71-1.53-26.95 18.83 9.77 47.06 21.33 88.88 21.33 101.4 0 147.19-76 247-76 41 0 75.78 11.81 99.25 26.37 1 9.08 1.32 18.16 1.7 27.24-26.77-13.14-54.52-21-88.82-21-102.57 0-144.4 75.46-247.23 75.46-39.74 0-72.8-10.19-99.24-26.49z" fill="#fff"/>
  <path d="M283.44 541.49c3.47-30.19 12-52.73 25.56-78.28l45.35 5.8c8.58 1.12 14.8 2.92 19 7.5 4 4.5 5.76 7.18 8.17 24.07l6.74 52.92a213.3 213.3 0 0 1-31 2.57c-29.73 0-56.68-7.64-73.83-14.58zm30.12-86.12a214.64 214.64 0 0 1 72.49-72.46l-5.4 40.87c-1.21 8.8-2.15 13.07-6.83 18.54-4 4.39-10.56 6.11-18.29 7.51zm83.2-51.22l-3.1-25.89a201.59 201.59 0 0 1 49.74-20l-3.81 29c-1.64 9.14-5.56 12-15.29 13.48zm46.46 48.27l-24.11-3.52c-11.38-2.37-17.78-10.32-19.44-24.62l-2.38-17.2 28.62 4c9.43 1.05 12.78 5.66 14 15.74l3.27 25.56z" fill="#fff"/>
  <path d="M392.43 552.63l5.8-49.35c3.51-24.55 6.71-30.87 27.41-34.15l58.53-7.74v-3.92l-37.55-4.57 3.69-28.59c.94-8.33 4.83-12.13 15.29-13.42l30.46-4.1v-2.23l-32.45-4.21c-9.34-1.53-12.31-5.45-13.42-14l-3.81-28.82s22.47-6.8 53.55-6.8c120.76 0 192.5 91.29 210 158.07-18.38-11.91-55.82-29.12-100.83-29.12-91.07 0-137.29 58-216.7 73zm107.44 234.76c-92.33 0-179.93-57.59-210.26-159.15 26.71 16.87 65.08 29.24 102.11 29.24 96.43 0 143.14-61.32 215.34-74.15l-7.62 59.74c-2.67 15.42-6.9 22.11-25.44 25.19l-59.24 7.53v4.06l55.6 7c18.44 2 27 8.09 29 26.26l6.21 46.89c-18.22 10.91-57.05 27.42-105.7 27.42zm113-31.23l4.64-37.37c3.06-21.08 6.44-28.71 26.93-31.31l42.47-5.48c-21.51 34.78-45.45 55.71-74 74.17zm78.38-81.61l-42.92-5.63c-22.09-2.59-27.59-8-30.4-29.5l-7.29-56.67a212 212 0 0 1 31.4-2.48c24.94 0 58.93 8 74.73 15-3.69 26.43-8.62 47.89-25.52 79.29z" fill="#fff"/>
  <path d="M553.65 772.23h1.79l3.19-24.1c1.51-9.83 5.29-10.59 12.23-11.85l23.53-3v-1.82l-25.32-3.25c-6.7-1-9.28-4.56-10.32-10.4l-3.21-25.21h-1.91l-3.3 25.67c-1.33 6.2-3.75 8.68-10.46 9.79l-25.19 3.4v1.82l24.24 3.11c8 1 10.94 4.73 11.77 12.33l3 23.5z" fill="#0b5ed8"/>
</svg>
