<svg xmlns="http://www.w3.org/2000/svg" viewBox="0 0 1024 1024">
  <circle cx="512" cy="512" r="512" fill="#e60023"/>
  <path fill="#fff" d="M515.263 194.475C338.387 194.475 195 337.863 195 514.738c0 135.75 84.35 251.725 203.487 298.387-2.9-25.3-5.275-64.313 1.05-91.988 5.8-25 37.425-159.212 37.425-159.212s-9.487-19.237-9.487-47.5c0-44.55 25.837-77.762 57.987-77.762 27.413 0 40.588 20.562 40.588 45.075 0 27.412-17.4 68.537-26.625 106.75-7.65 31.9 16.075 57.987 47.5 57.987 56.938 0 100.688-60.1 100.688-146.563 0-76.7-55.088-130.212-133.9-130.212C422.462 369.7 369 437.975 369 508.613c0 27.412 10.537 56.937 23.75 73.012a9.537 9.537 0 0 1 2.112 9.225c-2.375 10-7.912 31.9-8.962 36.375-1.312 5.8-4.75 7.113-10.812 4.213-40.063-18.75-65.113-76.963-65.113-124.15 0-100.95 73.275-193.75 211.663-193.75 110.975 0 197.425 79.075 197.425 185 0 110.45-69.588 199.274-166.063 199.274-32.425 0-63-16.875-73.275-36.9l-20 76.175c-7.225 28.063-26.7 62.913-39.887 84.163a321.675 321.675 0 0 0 94.887 14.237C691.6 835.525 835 692.137 835 515.262c.525-177.4-142.862-320.787-319.737-320.787z"/>
</svg>
