<svg xmlns="http://www.w3.org/2000/svg" viewBox="0 0 1024 1024">
  <circle cx="512" cy="512" r="512" fill="#0070d1"/>
  <path fill="#fff" d="M177.962 619.625c-26.325 17.5-17.5 50.9 38.613 66.7a377.8 377.8 0 0 0 182.5 14.038c3.513 0 7.025-1.75 8.75-1.75v-59.688l-59.675 19.313c-22.813 7.025-45.637 8.75-68.45 3.512-17.5-5.262-14.038-15.8 7.025-24.575L407.9 595v-65l-168.5 57.925a227 227 0 0 0-61.438 31.7zm407.213-263.288V526.6c71.963 35.1 128.138 0 128.138-91.25 0-93.025-33.35-135.15-129.888-168.5-50.9-17.5-103.563-33.35-156.25-43.875V730.2l122.862 36.862V340.538c0-19.312 0-33.35 14.038-28.087 19.35 5.275 21.1 24.575 21.1 43.887zM813.363 579.25c-50.9-17.5-105.313-24.575-157.975-19.313-28.088 1.75-54.413 8.75-78.988 17.5l-5.262 1.75v68.45l114.087-42.125c22.813-7.025 45.637-8.75 68.45-3.512 17.5 5.262 14.038 15.8-7.025 24.575l-175.525 65v66.7l242.238-89.525c17.5-7.025 33.35-15.8 47.387-29.837 12.288-17.538 7.025-42.113-47.387-59.663z"/>
</svg>
