<svg xmlns="http://www.w3.org/2000/svg" viewBox="0 0 40 40">
  <circle cx="20" cy="20" r="20" fill="#fff"/>
  <path fill="#5058c8" d="M5.77 33.69a.74.74 0 0 1-.58-.23A20 20 0 0 1 .82 14.38a.723.723 0 0 1 1.39.4A18.64 18.64 0 0 0 6.3 32.49a.71.71 0 0 1 0 1 .7.7 0 0 1-.53.2zM20.01 39.98a19.8 19.8 0 0 1-9-2.13.73.73 0 0 1-.32-1 .72.72 0 0 1 1-.34 18.54 18.54 0 0 0 26.08-21.89.74.74 0 0 1 1.42-.42 20 20 0 0 1-19.18 25.78zM4.91 8.72a.74.74 0 0 1-.45-.15.71.71 0 0 1-.12-1 20 20 0 0 1 28.1-3.19 20.32 20.32 0 0 1 2.48 2.34.74.74 0 0 1-.06 1 .73.73 0 0 1-1-.06 18.57 18.57 0 0 0-28.37.79.69.69 0 0 1-.58.27z"/>
  <path fill="#5058c8" d="M20.01 36.77a16.79 16.79 0 1 1 2-33.46.73.73 0 0 1 .63.8.71.71 0 0 1-.78.63 16 16 0 0 0-1.83-.1 15.34 15.34 0 0 0 0 30.68.72.72 0 0 1 .72.72.73.73 0 0 1-.74.73zM26.7 35.31a.7.7 0 0 1-.65-.42.71.71 0 0 1 .3-1h.05a15.35 15.35 0 0 0 1.27-27.2.73.73 0 0 1-.26-1 .72.72 0 0 1 1-.27 16.79 16.79 0 0 1-1.4 29.82.81.81 0 0 1-.31.07z"/>
  <path fill="#5058c8" d="M10.77 29.64a.73.73 0 0 1-.52-.22 13.52 13.52 0 0 1-3.81-9.44.72.72 0 0 1 1.44 0 12.06 12.06 0 0 0 3.41 8.4.72.72 0 0 1 0 1 .68.68 0 0 1-.52.26zM20.01 33.55a13.6 13.6 0 0 1-5.44-1.17.72.72 0 1 1 .62-1.28 12.13 12.13 0 0 0 14.17-3.35.72.72 0 0 1 1.11.92 13.49 13.49 0 0 1-10.46 4.88zM32.29 24.51a.81.81 0 0 1-.22 0 .72.72 0 0 1-.47-.9 12.13 12.13 0 0 0-21.95-9.94.72.72 0 1 1-1.23-.75 13.6 13.6 0 0 1 24.59 11.06.73.73 0 0 1-.72.53z"/>
  <path fill="#5058c8" d="M20.01 10.38a9.64 9.64 0 1 0 9.64 9.64 9.66 9.66 0 0 0-9.64-9.64zm1.72 10.9v2.5a1.72 1.72 0 0 1-3.44 0v-2.54a3.61 3.61 0 1 1 4.9-1.45 3.55 3.55 0 0 1-1.46 1.45z"/>
</svg>
