<svg xmlns="http://www.w3.org/2000/svg" viewBox="0 0 150 150">
  <circle cx="75" cy="75" r="75" fill="#4da358"/>
  <path fill="#fff" d="M115.632 36.146c0-6.156-4.958-11.146-11.073-11.146s-11.072 4.99-11.072 11.146v.345L45.23 52.173c-2.98-4.413-8.65-6.08-13.522-3.977-4.872 2.104-7.579 7.39-6.455 12.605 1.123 5.215 5.76 8.897 11.06 8.781a10.86 10.86 0 0 0 3.381-.592l31.698 40.292c-2.226 5.259-.139 11.36 4.832 14.124 4.97 2.765 11.212 1.296 14.45-3.4 3.238-4.697 2.421-11.097-1.89-14.817l16.853-57.947c5.683-.536 10.02-5.35 9.995-11.096zm-34.955 65.257a10.74 10.74 0 0 0-4.827 1.217L45.346 63.68a10.965 10.965 0 0 0 1.544-4.575l48.556-15.624c.507.578 1.074 1.1 1.69 1.558l-16.411 56.364h-.048z"/>
</svg>
