<svg viewBox="0 0 250 250" version="1.1" xmlns="http://www.w3.org/2000/svg">
    <rect width="250" height="250" fill="#fff"/>
    <path d="M189.3,92.8 L215.3,146.1 C214.2,146.2 213,146.3 211.9,146.5 C224.489893,145.170082 237.178046,143.879467 249.999307,142.628157 L250,250 L0,250 L0.000976053973,176.860596 C68.4382606,163.82213 132.56122,154.981308 198.705832,147.734871 L201.755,147.402 L195.7,134.3 L166.2,134.3 L160,147.7 L146.6,147.7 L174.1,92.8 L189.3,92.8 Z M250,0 L250.001122,97.4907569 C224.846182,78.305579 198.968046,61.0350224 171.6,45 C135.6,58.5 97.2,74.8 57.7,92.9 L73.4,92.9 C78,93 83.4,93.1 88.2,97.3 C90.1,98.9 93.4,102.6 93.4,109.2 C93.4,116.7 89.1,122 81.7,123.9 C84.3862069,128.158621 88.5747919,135.336147 91.7909016,140.96097 L92.2902661,141.835545 C93.7619501,144.416647 94.9862069,146.596552 95.7,147.9 L80.8,147.9 C78.2,142.9 69.6,126.1 68.5,124.7 L56.6,124.7 L56.6,147.9 L44.1,147.9 L44.1,99 C29.5062979,105.791129 14.7853707,112.81061 0.000262663699,120.006595 L0,0 L250,0 Z M156,92.8 L156,102.3 L134.6,102.3 L134.6,147.7 L121.9,147.7 L121.9,102.3 L100.6,102.3 L100.6,92.8 L156,92.8 Z M206.4,146.9 C205.116,147.038 203.83285,147.17656 202.550504,147.315699 L201.755,147.402 L201.8,147.5 C203.2,147.325 204.6,147.226563 205.866016,147.003711 Z M181.600006,102.900002 L170.799988,124.699997 L191.399994,124.699997 L181.600006,102.900002 Z M72.7154298,101.700609 L56.8,101.7 L56.8,115.8 L70,115.8 C73.4,115.7 77.4,115.7 79.8,112.7 C80.7,111.6 81.2,110.2 81.2,108.6 C81.2,107 80.8,105.5 80,104.4 C78.4484848,101.975758 76.0506887,101.714233 72.7154298,101.700609 Z" fill="#E30613"/>
</svg>