<svg xmlns="http://www.w3.org/2000/svg" viewBox="0 0 150 150">
  <circle cx="75" cy="75" r="75" fill="#fff"/>
  <path fill="#12ae3a" fill-rule="evenodd" d="M108.64 78.48h.08l13.04 6.56 13.04 6.56v13.04l-46.32 23.2c-3.84 1.92-8.08 2.88-12.4 2.88s-8.56-.96-12.4-2.88l-46.4-23.2V91.6l46.4 23.2c3.84 1.92 8.08 2.88 12.4 2.88s8.56-.96 12.4-2.88l33.28-16.64-13.04-6.56-20.24 10.08c-3.84 1.92-8.08 2.88-12.4 2.88s-8.56-1.04-12.4-2.88L30.4 85.04l13.04-6.56 20.24 10.16c3.84 1.92 8.08 2.88 12.4 2.88s8.56-.96 12.4-2.88l20.16-10.16zM76.08 65.44c4.32 0 8.56.96 12.4 2.88l7.12 3.6-7.28 3.68c-3.84 1.92-8.08 2.88-12.4 2.88s-8.56-.96-12.4-2.88L56.48 72l7.28-3.68c3.84-1.84 8.08-2.88 12.32-2.88zm-.16-52.16c4.32 0 8.56.96 12.4 2.88l46.4 23.2v12.96L88.48 29.28c-3.84-1.92-8.08-2.88-12.4-2.88s-8.56.96-12.4 2.88L30.32 45.92l13.04 6.56 20.32-10.16c3.84-1.92 8.08-2.88 12.4-2.88s8.56.96 12.4 2.88l33.2 16.64-13.04 6.56-20.16-10.16c-3.84-1.92-8.08-2.88-12.4-2.88s-8.56.96-12.4 2.88L43.36 65.52 17.2 52.4V39.36l46.4-23.2c3.84-1.92 8.08-2.88 12.32-2.88z" />
</svg>
