<svg xmlns="http://www.w3.org/2000/svg" viewBox="0 0 512 512">
  <circle cx="256" cy="256" r="256" fill="#ff7f4f"/>
  <path fill="#dd562c" d="M512 256c0-10.23-.619-20.313-1.786-30.23L369.778 85.333 142.222 398.222 256 512c141.384 0 256-114.616 256-256z"/>
  <path fill="#ffedb5" d="M142.222 85.333h227.556v312.889H142.222z"/>
  <path fill="#fee187" d="M255.431 85.333h114.347v312.889H255.431z"/>
  <g fill="#263a7a">
    <path d="M170.667 139.636h170.667v5.172H170.667zM170.667 168.081h170.667v5.172H170.667zM170.667 196.525h170.667v5.172H170.667zM170.667 224.97h170.667v5.172H170.667zM170.667 253.414h170.667v5.172H170.667zM170.667 281.859h170.667v5.172H170.667zM170.667 310.303h56.889v5.172h-56.889zM358.097 363.656l-34.673-17.315 90.605-181.448c4.467-8.944 15.336-12.574 24.281-8.108l2.286 1.141c8.944 4.467 12.574 15.338 8.108 24.281l-90.607 181.449z"/>
  </g>
  <path fill="#121149" d="M440.592 157.929l-1.339-.669-99.076 197.449 17.92 8.949 90.605-181.448c4.465-8.945.834-19.816-8.11-24.281z"/>
  <path fill="#ffc61b" d="M358.097 363.656l-28.766 14.229-5.909-31.542z"/>
  <path fill="#d48b07" d="M329.118 376.746l.213 1.139 28.766-14.229-17.92-8.947z"/>
</svg>
