<svg xmlns="http://www.w3.org/2000/svg" viewBox="0 0 100 100">
  <circle cx="50" cy="50" r="50" fill="#262262"/>
  <path fill="#fff" d="M32.78 25.82c4.87-10.6 20.5-13.1 29.15-5.76 5.54 4.64 6.69 13.15 3.61 19.49-2.24 4.27-6.66 6.62-10.51 9.21 2.37 2.46 4.75 4.92 7.14 7.36 2.17-3.32 4.13-6.76 6.01-10.25 3.4 1.68 6.73 3.49 9.99 5.41-2.28 4.65-5.02 9.05-7.66 13.5 2.95 2.95 5.82 5.97 8.66 9.02-3.26 2.4-6.28 5.24-10 6.93-2.58-1.92-4.67-4.4-6.97-6.63-5.1 3.46-10.78 6.78-17.16 6.62-6.28.3-12.87-1.85-17.11-6.63-4.99-5.64-5.59-14.5-1.82-20.95 2.11-3.52 5.59-5.83 8.89-8.11-3.18-5.77-5.2-12.93-2.22-19.21m11.37 5.41c-1.08 3.59 1.32 6.83 2.96 9.81 1.94-.99 3.94-1.9 5.68-3.22 2.87-2.12 3.31-6.88.74-9.41-2.95-2.47-8.56-1.22-9.38 2.82m-2.48 23.42c-3.89 2.43-5.67 8.4-2.25 11.95 4.11 4.08 10.6 2.17 14.91-.58-3.15-3.61-6.27-7.27-9.79-10.54-.78-.61-1.88-1.89-2.87-.83z"/>
</svg>
