<svg xmlns="http://www.w3.org/2000/svg" viewBox="0 0 500 500">
    <circle cx="250" cy="250" r="220" fill="#fff"/>
    <path d="M261.11,20c7.41.91,14.83,1.69,22.22,2.75,47.32,6.81,88.52,26.63,123.47,59.13,35.57,33.08,58.74,73.52,68.42,121.13,12.16,59.77,2.56,116.21-29.61,168.15-29.94,48.32-72.49,81.09-126.65,98.39a223.49,223.49,0,0,1-82.82,10c-43.83-2.78-83.68-16.69-119.26-42.33C69.27,402.83,38.35,356.94,26,299.54c-14.38-66.9-1.58-129,38.5-184.47,34.64-48,81.74-77.78,139.61-90.16,10-2.15,20.43-2.72,30.65-4.07,1.31-.17,2.59-.57,3.88-.87ZM70.4,274.45c0,8.12-.11,16.18.15,24.23,0,1,2,2.48,3.21,2.69a227.6,227.6,0,0,0,22.58,3.34c14.08,1,28.07.93,41.25-5.58,18.28-9,25.15-31.61,14.36-48.37-5.48-8.51-13.75-13.22-23.28-15.58-6.21-1.55-12.64-2.17-19-3.21-5.51-.9-8.35-3.5-8.4-7.7s2.61-7.56,7.9-8.18c5.58-.65,11.4-1.11,16.89-.25,8.79,1.36,17.39,3.89,26.59,6,0-7.81,0-15.83-.09-23.84,0-.69-1.15-1.74-2-2-19.18-6.06-38.7-8.55-58.19-2.33s-29.17,27.08-21.61,45.4c5.38,13,16.55,18.28,29.36,20.91,4.82,1,9.8,1.16,14.64,2.07,6.14,1.16,9.22,6.33,6.34,11.17-1.39,2.33-4.34,4.89-6.82,5.17a112.2,112.2,0,0,1-22.65.61C84.67,278.41,77.78,276.12,70.4,274.45Zm124.5-84.1c-9.22,1.78-17.69,3.53-26.21,5-3.54.6-4.82,2-4.8,5.81.19,32.65.11,65.3.11,98a6.5,6.5,0,0,0,.11,2.66c.43.89,1.37,2.18,2.11,2.19,9.39.15,18.77.09,28.77.09v-31l1.77-.41c3.36,9.2,7,18.32,10,27.64,1,3.13,2.31,3.92,5.3,3.87,9.43-.15,18.86,0,28.3-.07,1.25,0,2.5-.27,4.06-.44a24.42,24.42,0,0,0-1-3.86C238,288,232.61,276.15,227,264.46c-1.2-2.5-1.05-4,.43-6.36,4.72-7.44,9.24-15,13.39-22.79,2.34-4.38,3.82-9.22,6-14.53-2.61-.12-4.2-.26-5.79-.27-8.24,0-16.48.16-24.71-.09-3.5-.1-5.1,1.09-6.7,4.27-4,8-8.7,15.71-13.11,23.54l-1.54-.67Zm228.1.46a22.25,22.25,0,0,0-3.53,0c-7.35,1.32-14.65,3-22.05,3.94-3.76.49-4.47,2-4.46,5.46.12,32.95.07,65.89.08,98.83,0,1.58.18,3.15.29,5,8.42,0,16.35-.24,24.25.1,4.31.18,5.54-1.11,5.52-5.46-.18-34.29-.1-68.58-.1-102.88ZM379.62,304.09V190.36c-8.4,1.49-16.41,3.21-24.51,4.22-4.5.57-5.34,2.55-5.27,6.67.24,15.12.09,30.25.09,45.37q0,26.5,0,53c0,1.91-.85,4.48,2.66,4.47C361.43,304.06,370.25,304.09,379.62,304.09ZM250.8,277.2h-.61c0,7.63.13,15.27-.06,22.9-.08,3.2,1,4.15,4.13,4.07,7-.19,14.08-.27,21.1,0,3.86.16,5.15-.89,5.12-4.95q-.18-19.31.46-38.61c.37-11.18,3.88-14.68,15.22-15.67,3.09-.26,3.69-1.59,3.63-4.25-.12-5.54-.2-11.09,0-16.62.13-3.29-1.05-5-4.3-4.56-7.67,1-15.59,1.23-22.91,3.43-13.16,4-20.6,13.64-21.67,27.33C250.23,259.21,250.8,268.22,250.8,277.2Zm86.58,26.85a20.76,20.76,0,0,0,.42-2.68c0-25.76,0-51.51.08-77.27,0-2.87-1.19-3.56-3.75-3.53-7.18.1-14.38.2-21.55,0-3.75-.12-4.85,1.17-4.83,4.88.16,19.91.08,39.83.08,59.75,0,5.24-.12,10.49.1,15.72.05,1.08,1.35,3,2.11,3C319.12,304.13,328.21,304.05,337.38,304.05Zm.27-105.26A14.72,14.72,0,1,0,323,213.31,15,15,0,0,0,337.65,198.79Z" fill="#862165"/>
</svg>