<svg xmlns="http://www.w3.org/2000/svg" viewBox="0 0 172 172">
    <rect x="0" y="0" width="172" height="172" fill="#fff"/>
    <path fill="#d71920" d="M0 0h172v172H0z"/>
    <path fill="#fff" d="M100.4 18.6l-6 5.5c-.3.4-1.7 2.4-1.7 5v15.6c0 1-.7 2.6-1.2 3.2l-3 2.8h1.3l5.6-5a8 8 0 002.1-5.4v-15c0-2.3 1-3.5 1.6-4.1l2.7-2.5h-1.4zm.9 40.1v6.2l2.1 2.3c1.7 1.8 1.7 5-3.6 10.2-1 .9-3.6 3.4-7.3 3.4H83l5.7 5h3.8c3.8 0 7.3-1.7 9.7-4 2.3-2.4 3.1-5.5 3.1-8.4v-8.1c0-2.7-1.7-4.3-2.1-4.8l-2-1.8" clip-path="url(#b)"/>
    <path fill="#fff" d="M64.2 38.2h-2c1.4.6 2.2 2.8 2.2 4V50c0 2 1.5 9.7 8.4 9.7h19.9v12.7c0 2-.7 3.3-1.2 4L88.4 79h1.4l5.4-5c1-1 2.3-2.4 2.3-6.3v-8l2.3-2.4 4-3.7c0 3.2 1.5 4.6 3 4.6a3 3 0 002-.9l3.6-3.3c1.6-1.6 2.5-6.6-1.4-6.6-2.4 0-5.2 3.5-5.6 3.9-.8-.6-1.6-1.8-1.6-1.8v3a5 5 0 01-3.2 1.7h-3v-3c0-1.5.5-3.1 1.2-3.8l3-2.8h-1.4c-.6.4-5.4 4.8-6 5.5a8.8 8.8 0 00-1.7 4.1H70.2c-2.7 0-4.6-2.7-4.6-5v-5.8c0-4.7-1.2-5.2-1.4-5.3m45.6 17c-.5 0-1-.3-1.7-.8s-2-2.3-2-2.3a4 4 0 012.3-.7c.7 0 1.3.2 1.6.6 1.2 1.6 1 3.1-.2 3.1" clip-path="url(#b)"/>
    <path fill="#fff" d="M78.4 62l-3.8 3.8c2.6 2.5 3.5 3.8 3.8 5 .2-.2 3.6-3 3.6-4.2 0-1.6-1-2.1-3.6-4.6m8-43.4l-2.6 2.6c-1 1-.7 3.2 1.4 5.3V32c0 .4-.4 1-.4 1s-3-3-5.8-3h-4.2c-2.7 0-4.8 2.4-5 2.6-1.4 1.4-1.5 4.1-.3 5.3l2.9 2.9s-.7-4.8 0-8a2 2 0 012-1.5c.3 0 .6 0 1 .3 2.3 1.6 5.9 4.9 5.9 4.9l-8 8.3c-.3.3-1.4 1.1-2.4 1.1-1.4 0-1.9-.7-2.4-1.3v4c0 1.2 1.7 2.5 3.3 2.5h10.6a3 3 0 002.3-.9l3.5-3.5c.6-.6.8-1.2.8-2v-4c0-4-3-7-3-7s.5-.4.6-2v-4.2s1.2 1.2 1.3 1.7l2.2-2.3c1-1-.6-3-1.4-3.8-2.2-2.2-2.2-4.5-2.2-4.5M73.2 46.2c1-.5 1.1-.8 2.2-1.9l6.7-7s3.8 3.9 5 6c.5 1 1.2 3-2 3H73.2" clip-path="url(#b)"/>
    <path fill="#fff" d="M61.9 55.1h-2s2.1 1.2 2.1 4.1v9.5c0 6.2 5 11.9 11.3 11.9h5.1c3.1 0 4.2-.8 6-2.4l2-2c1-1.2 2.2-2.2 2.2-5.4v-3c0-2.8-1.5-3.9-2.3-4.6l-1.8-1.8v6.4s1.3 1.4 1.9 1.8c2.7 2.1.5 5.8-2 5.8a2569.8 2569.8 0 00-11.5 0 10 10 0 01-9.6-9.9v-5.1c0-5.3-1.4-5.3-1.4-5.3" clip-path="url(#b)"/>
    <path fill="#fff" d="M70.7 62l-3.8 3.8c2.6 2.6 3.5 3.8 3.7 5 .2-.2 3.7-3 3.7-4.2 0-1.5-1-2-3.6-4.6m-39 23.7h-13s2.2 2 2.1 6v15.8c0 4 1.7 4.1 1.7 4.1h12.9c3 0 4-2 4-3.2v-1.5s-1 1.9-4.8 1.9h-6c-2 0-1.9-1.6-2-3v-8.7H31c1.4 0 2.8 0 4.2.9 0 0-1.4-3.5-5.8-3.5h-2.8v-2.8s0-2.5-.6-3.2h4c3.5 0 6.2 0 9 1.8 0 0-.6-4.6-7.3-4.6m20.5 5.2c-4.2 0-5.3 4-5.3 4s0-3.9-3.5-3.9h-3.3s2 .8 2 4.1v12.3c0 4.1 1.6 4.2 1.6 4.2H49c-.1 0-2-1.5-2-4.2v-11c0-.4.8-2 3.2-2 1.3 0 2.8 1.3 2.7 2.9v10.1c0 4.2 1.6 4.2 1.6 4.2H60s-2-1.5-2-4.2l-.1-11c.2-.5 1-2 3-2a3 3 0 013 3v10c0 4.1 1.5 4.2 1.6 4.2H71s-2-1.5-2-4.2v-11c0-4.4-3.6-5.5-6.2-5.5-3.5 0-4.5 2.9-5 3.9-.7-2.7-3.4-4-5.6-4m22.7.2h-3.3s1.9.8 1.9 4v12.5c0 4 1.6 4 1.6 4h5.5s-2.1-1.3-2.1-4v-12c0-4.6-2.4-4.6-3.6-4.6m9.8.1h-3.3s1.9.8 1.9 4v12.4c0 4.1 1.6 4.2 1.6 4.2h5.4s-2-1.6-2-4.2V97.3a3 3 0 011.3-2 4.2 4.2 0 015.6.8v-3.6s-.5-1.4-2.7-1.4c-3.5 0-4.3 4-4.3 4C88 92 87.1 91 84.7 91m34.6-4.7s-1.2 2-3.7 4c-1.5 1.3-4.8 3-4.8 3h3.5v14.3c0 4 1.6 4 1.6 4h5.5s-2.1-1.4-2.1-4V93.3h1.3a7 7 0 013.2.8V91h-4.5v-4.7zm13.4 4.6c-5.7 0-8.7 5.2-8.7 10.8 0 5.7 3.7 10 9 10 4.5 0 5.9-1.7 5.9-1.7v-3.3c-1.3 2-2.9 2.6-4.2 2.6a5 5 0 01-2.2-.5c-2.4-1-2.7-4.3-2.7-4.3 1.9-2.3 4.3-1.8 7.3-5 4-4.2 1-8.6-4.4-8.6m-3.3 11.4s-.6-9.5 3-9.8h.2c2.8 0 2 4 1.2 5.7-1.4 2.5-3.2 2.8-4.4 4.1M76 84.4a2.5 2.5 0 00-2.6 2.4c0 1.4 1.2 2.5 2.6 2.5a2.5 2.5 0 100-4.9m26.7 6.6c-3.1 0-5 1.5-5 1.5V96s1-2.9 3.9-2.9c2.7 0 3 1.4 3 2 0 0 .2 1-.5 2.2-1.3 2.2-11 2.7-9.6 10.3.6 3 2.6 4 5.2 4a5 5 0 004.5-2.5c.4 2.2 1.5 2.4 1.5 2.4h5.5s-2.2-1.4-2.2-4.1V95.9c0-2.8-3-5-6.3-5m-1.8 18.3c-1.2 0-2.1-1.2-2.1-2.6 0-5.1 4.2-5.8 5.3-7.2v8.7c-.5.4-1 1.2-3.2 1.2m46.4-18.5c-3.3 0-6.2 2.2-6.2 5 0 2.4 1.1 4 3 5.4l2.9 1.8c1.6.9 2.2 2 2.2 3 0 1.4-1.3 3.4-4 3.4-2.9 0-4-3-4-3v3.7s2 1.5 5.1 1.5c3.8 0 7.5-2.8 7.4-6.8a6 6 0 00-1.2-3.5c-1.3-1.7-3.6-3-5.4-4-1-.6-1.5-1.7-1.5-2.1 0-.7.3-2.1 3-2.1 2.8 0 4 2.8 4 2.8l-.1-3.4s-2-1.7-5.2-1.7M19.7 118.4h133.6v1.3H19.7zm43.9 29.1c-.6.5-1.8.5-1.8.5-2.3 0-4.6-.8-5.5-4.9l-2.1-10.3s-.6-2.6-2.1-3.6h3.6c1 0 2.2.9 2.8 3.6l2.2 9.5c.4 1.6 1 4.2 2.5 4.2.3 0 .7-.4.7-.4l2.6-13.2s.6-3-.5-3.7h3.2c.9 0 2.2 1 1.8 3.7l-3.5 16.4s-.6 3-2.6 3.8h-5c2.6-1.4 3.5-4.8 3.5-4.8l.2-.8m60.6-17.3v3.3a3.8 3.8 0 00-5-.8c-.7.5-1.2 1.2-1.2 2.3v9c0 2.3 1.7 3.6 1.9 3.6H115c-1.4 0-1.4-3.7-1.4-3.7v-11c0-.4-.1-3-1.7-3.7h2.9c2.1 0 3.1.6 3.1 3.4.8-3.7 3.8-3.7 3.8-3.7s2 0 2.5 1.3m-80.7 7.2c3-.2 4.8 1.6 5.6 3.8.7 2.2 1.7 5.5 4.5 6.4h-4.3c-.6 0-2.8 0-4-5.5-.4-2-1.8-4.7-3.8-3.4v6s0 2 1.7 3h-4.6c-1.4-.2-1.4-3.3-1.4-3.3v-15.3s0-3.5-1.6-4.5H39c1.6 0 2.4 1.5 2.4 4.2v8.3s5.3-4.7 4.9-7.9h4.2c.4 3-7.1 8.2-7.1 8.2m-13.8 4.5c0-1.7-1.2-3.1-4.6-5-4-2.3-5.3-4.3-5.4-7 0-3.2 2.9-5.7 7-5.7 0 0 3.6 0 6 2v3.6a5.4 5.4 0 00-4.7-3.6c-3.6 0-3.7 2-3.7 3 0 .9.5 1.8 2 2.7 2 1.2 7.8 4.3 7.8 8.6 0 4.5-4.2 7.5-8.4 7.5 0 0-3.6 0-6-1.7v-3.9c1.5 3.5 4.8 3.5 4.8 3.5 4 0 5.2-2.4 5.2-4m106.2 3.1c-.8.8-1.7.8-1.7.8-4 0-4.6-4.8-4.6-6.7 0-3.5.4-8.4 3.2-8.4 0 0 2.1 0 3 2.7V145zm4.4-.7v-15.5c0-4.1-2.1-4.1-3.2-4.1h-2.9c1.7.7 1.7 3.6 1.7 3.6v2c-1-1.4-3-1.4-3-1.4-4.4 0-7.8 4.1-7.8 10.2 0 4.5 3.2 9 8.3 9 5.7 0 6.9-3.8 7-3.8m6.9 3.7c-3 0-4.6-1.3-4.6-1.3v-3.4c1 2.7 3.5 2.7 3.5 2.7 2.5 0 3.6-1.8 3.6-3.1 0-1-.5-2-2-2.8-1-.5-1.8-1-2.4-1.6-1.8-1.4-2.7-2.8-2.8-5 0-2.6 2.5-4.6 5.5-4.6s4.6 1.5 4.7 1.5v3.2a4.5 4.5 0 00-3.5-2.6c-2.5-.2-2.7 1.3-2.7 2 0 .3.5 1.3 1.4 1.8 1.6 1 3.6 2.2 4.7 3.7.7 1 1.1 2 1.2 3.3 0 3.6-3.3 6.2-6.6 6.2m-42.2-3.5s-1 1.3-2.5 1.3c-1.2 0-2.4-1-2.4-2.5 0-4 4-5.3 5-6.5v7.7zm6.3 3.1c-1.9-1.3-1.9-3.6-1.9-3.6v-10.3c0-2.5-1.9-4.8-5.6-4.8 0 0-2.8 0-4.6 1.7v3.3c1.3-2.9 3.6-2.9 3.6-2.9 2 0 2.7 1.1 2.7 2.2 0 1.5-.8 2.4-2 3-3 1.3-7.2 2.4-7.2 7.3 0 2.8 2.3 4.4 4.6 4.4 3.3 0 4.2-2.4 4.2-2.5 0 0 .3 2 1.3 2.2h4.9zm-15.4-18.3h-3.4c.4.4.6 1 .6 1.8 0 .7-.2 1.5-.5 2.3l-1.8 4.5c-1.4 3.4-1 6.5-.9 7.6-.5-1-.8-2.6-1-3.6l-1.8-9c-.5-2.4-1.4-3.6-2.6-3.6h-3.6c.2.1 1.2 1.2 1.8 3.6l.2 1-1.6 4c-1.4 3.4-1 6.5-.9 7.6-.3-.6-.6-1.4-1-3.6l-1.8-9c-.5-2.4-1.4-3.6-2.6-3.6h-3.6a5 5 0 011.3 2.1l.5 1.5 2.1 9.8c.7 3 2.1 5 4 5h3s-.6-1.8 0-3.4l1.9-4.5.6 3c.7 2.7 2 4.8 3.8 4.8h3.2s-.5-1.6.2-3.3l4.3-11.2a6 6 0 00.4-1.9 3 3 0 00-.8-2" clip-path="url(#b)"/>
</svg>