<svg version="1.1" xmlns="http://www.w3.org/2000/svg" viewBox="0 0 512 512">
	<circle fill="#57BB63" cx="256" cy="256" r="256"/>
	<path fill="#000" d="M330.5,354.7c-1.9,0-3.7-0.9-5.6-1.9c0,0-1.9-0.9-6.5-3.7c-4.7-2.8-11.2-5.6-18.6-9.3
		c-15.8-7.4-39.1-14.9-64.2-17.7c-7.4-0.9-14.9-1.9-22.3-1.9c-31.7-0.9-57.7,3.7-68,6.5c-3.7,0.9-4.7,0.9-4.7,0.9
		c-5.6,1.9-12.1-1.9-13-7.4c-1.9-5.6,1.9-12.1,7.4-14c0.9,0,33.5-10.2,79.1-8.4c7.4,0,15.8,0.9,24.2,1.9
		c55.9,6.5,97.7,33.5,98.7,33.5c4.7,2.8,6.5,10.2,3.7,14.9C337,352.8,334.2,354.7,330.5,354.7z M369.6,289.5
		c-2.8,4.7-7.4,6.5-12.1,6.5c-1.9,0-4.7-0.9-6.5-1.9c0,0-0.9,0-1.9-0.9c-0.9-0.9-2.8-1.9-5.6-2.8c-4.7-2.8-12.1-6.5-21.4-10.2
		c-18.6-8.4-44.7-16.8-73.5-20.5c-9.3-0.9-17.7-1.9-26.1-1.9c-37.2-0.9-66.1,4.7-78.2,7.4c-3.7,0-5.6,0-5.6,0
		c-7.4,1.9-14.9-1.9-16.8-9.3s1.9-14.9,9.3-16.8c0.9,0,38.2-11.2,92.2-9.3c9.3,0,18.6,0.9,27.9,1.9c65.2,7.4,113.6,39.1,114.5,39.1
		C371.4,274.6,373.3,283,369.6,289.5z M401.2,229c-2.8,5.6-8.4,7.4-14,7.4c-2.8,0-5.6-0.9-8.4-2.8c0,0-0.9,0-1.9-0.9
		c-1.9-0.9-3.7-1.9-6.5-3.7c-5.6-2.8-14.9-7.4-26.1-12.1c-22.3-9.3-52.1-19.5-86.6-24.2c-10.2-0.9-20.5-1.9-30.7-1.9
		c-51.2-1.9-88.4,7.4-96.8,9.3c-0.9,0-1.9,0-1.9,0c-8.4,2.8-17.7-2.8-20.5-11.2c-2.8-8.4,2.8-17.7,11.2-20.5
		c0.9,0,45.6-13,108.9-11.2c10.2,0,21.4,0.9,32.6,2.8c76.3,9.3,133.1,45.6,135,46.5C404,211.3,405.9,221.6,401.2,229z"/>
</svg>
