<svg xmlns="http://www.w3.org/2000/svg" viewBox="0 0 512 512">
  <circle cx="256" cy="256" r="256" fill="#fff"/>
  <path d="M338.6 259.01c0-7.13 1.81-14.12 5.25-20.37l-.11.21c3.23-6.25 8.23-11.36 14.32-14.79l.21-.05c6.2-3.39 13.23-5.16 20.32-5.11h.61c11.93 0 21.72 3.85 29.33 11.61 7.6 7.71 11.4 17.51 11.45 29.37 0 11.93-3.85 21.77-11.56 29.69-7.71 7.87-17.4 11.77-29.12 11.77-7.55 0-14.63-1.83-20.93-5.05l.25.15c-6.29-3.12-11.51-8.07-14.89-14.27l-.05-.16c-3.39-6.29-5.09-13.96-5.09-23.01zm21.24 1.15c0 7.87 1.83 13.91 5.57 17.96 7.29 8.39 20.32 8.44 27.56 0h.05c3.64-4.11 5.47-10.2 5.47-18.07 0-7.92-1.83-13.8-5.47-17.92-7.29-8.33-20.27-8.39-27.56 0h-.05c-3.69 4.12-5.57 10.11-5.57 17.97zm-21.35 39.16H317.7v-40.15c0-8.49-.41-13.96-1.31-16.47-.83-2.35-2.33-4.37-4.37-5.83h-.05c-2.08-1.36-4.48-2.09-6.92-2.09h-.52c-3.6 0-6.99 1.09-9.69 3.03h.05c-2.81 1.83-4.89 4.48-5.93 7.65v.11c-1.15 3.28-1.61 9.27-1.61 18.12v35.63h-20.68v-78.96h19.17v11.57c6.92-8.76 15.56-13.08 26.04-13.08h.25c4.48 0 8.75.88 12.65 2.51l-.2-.05c3.44 1.4 6.35 3.53 8.59 6.29l.05.05c1.88 2.51 3.28 5.41 4.07 8.6v.15c.77 3.71 1.2 7.97 1.2 12.29v1.72zm-152.97-78.96h22.03l18.85 56.04 18.33-56.04h21.47l-27.56 75.95-5.04 13.8c-1.41 3.8-3.19 7.39-5.37 10.77l.16-.2a22.332 22.332 0 0 1-5.63 5.88l-.05.05a25.764 25.764 0 0 1-7.71 3.44l-.21.05c-3.07.83-6.67 1.35-10.31 1.35h-.32c-4.11-.05-8.17-.52-12.13-1.4l.37.05-1.72-16.41c2.6.63 5.68 1 8.8 1.04 4.79 0 8.39-1.4 10.68-4.21a31.13 31.13 0 0 0 5.25-10.79l.05-.2zM100 263.85l21.25-1.97c1.29 7.13 3.91 12.39 7.81 15.72 3.85 3.39 9.16 5.05 15.88 5 7.03 0 12.35-1.45 15.93-4.43 3.6-2.96 5.37-6.51 5.37-10.47v-.31c0-2.29-.79-4.53-2.24-6.31-1.51-1.77-4.12-3.33-7.87-4.64-2.55-.99-8.44-2.49-17.51-4.84-11.76-2.87-19.95-6.45-24.63-10.73-6.36-5.41-10-13.39-10-21.71v-.43c0-5.72 1.77-11.04 4.73-15.47l-.05.11c3.28-4.95 7.92-8.8 13.39-11.04l.21-.05c5.88-2.45 12.97-3.75 21.35-3.75 13.6 0 23.81 3.01 30.73 9 6.88 6.09 10.47 14.07 10.79 24.12l-21.99.73c-.99-5.52-2.91-9.53-6.04-11.99-3.07-2.44-7.71-3.69-13.75-3.69-6.36 0-11.36 1.31-14.89 4.01a7.816 7.816 0 0 0-3.49 6.51v.16c0 2.71 1.25 5.05 3.23 6.56v.05c2.71 2.35 9.43 4.79 20.11 7.24 10.63 2.49 18.49 5.15 23.6 7.87 4.95 2.65 9 6.4 11.87 11.04l.11.11c2.87 4.57 4.32 10.47 4.32 17.39 0 6.51-1.92 12.61-5.25 17.65l.05-.09c-3.49 5.47-8.49 9.63-14.43 12.13l-.21.05c-6.36 2.6-14.23 3.96-23.65 3.96-13.69 0-24.27-3.19-31.61-9.59-7.39-6.47-11.72-15.73-13.17-27.92z"/>
</svg>
