<svg xmlns="http://www.w3.org/2000/svg" viewBox="0 0 100 100">
    <path fill="#707070"
        d="M50.09,27.71q19.36,0,38.73,0A10.65,10.65,0,0,1,99.45,38.1q.1,25.69,0,51.39c0,5.14-5.4,10-10.95,10q-37.52,0-75,0A19.45,19.45,0,0,1,8.67,99C3.75,97.72.45,92.31.5,88.07q.28-24.24,0-48.49a11.54,11.54,0,0,1,12-11.94c12.52.35,25.07.1,37.61.1Zm11.44,65h0c8.68,0,17.36,0,26,0,3.14,0,5.14-1.72,5.15-4.59q.06-24.57,0-49.15c0-2.69-1.55-4.38-4.19-4.49-5.56-.22-11.12-.37-16.67-.35q-18.24.06-36.48.37c-3.85.07-4.86,1.28-4.86,5.26q0,23.58,0,47.15c0,4.51,1.28,5.77,5.88,5.79C44.76,92.76,53.15,92.73,61.53,92.73ZM19.74,44.39c0-3.81-2.38-6.27-6.15-6.32a6.23,6.23,0,0,0-6.44,6.19,6.85,6.85,0,0,0,6.33,6.53A6.36,6.36,0,0,0,19.74,44.39Z" />
    <path fill="#707070"
        d="M97.8,26C93,21.85,87.16,22.74,81.63,22.7c-20.76-.16-41.53-.08-62.3-.05A67.6,67.6,0,0,0,9.56,23c-2.49.37-4.86,1.55-7.34,2.39.29-.76.64-1.82,1.09-2.82C5.52,17.67,7.65,12.69,10,7.84S15.72.44,21.55.53C41.06.8,60.57.66,80.07.6c3.45,0,6.25,1.25,7.82,4.17,3.64,6.82,7,13.8,10.45,20.72Z" />
    <path fill="#707070"
        d="M87.94,63.27c0,6.68,0,13.35,0,20,0,3.54-1.1,4.62-4.66,4.65-1.71,0-3.41,0-5.12,0-3.44,0-4.55-1.1-4.56-4.51q0-15.8,0-31.58c0-2.89,0-5.78,0-8.67s1.28-4.19,4.21-4.25c2,0,4,0,6,0,2.78.06,4.07,1.36,4.08,4.12q0,10.11,0,20.23ZM80.75,42.08a4.29,4.29,0,0,0-4.24,4.2,4.41,4.41,0,0,0,4.09,4.17,4.1,4.1,0,0,0,4.23-4.13A4,4,0,0,0,80.75,42.08Z" />
    <path fill="#707070"
        d="M35.27,63.56c0-6.74,0-13.48,0-20.22,0-3.23,1.16-4.38,4.42-4.43,1.92,0,3.85,0,5.78,0,2.56.07,3.74,1,3.79,3.61q.28,12.31.31,24.64c0,5.7-.16,11.4-.28,17.1-.06,2.69-1,3.58-3.63,3.63-2.08,0-4.15.07-6.23,0-3.1,0-4.15-1.09-4.16-4.15C35.26,77,35.27,70.3,35.27,63.56Zm11.17-17.3a3.94,3.94,0,0,0-4.19-4.18,4.09,4.09,0,0,0-4,4.15,4.12,4.12,0,1,0,8.24,0Z" />
    <path fill="#707070"
        d="M68.43,63.4q0,10.25,0,20.47c0,3.06-.91,4-4,4.06-2,0-4,0-6,0-2.91-.09-3.89-1-4-3.91-.11-3.86-.08-7.72-.08-11.57q0-14.24,0-28.48c0-4,1.07-5,5-5,1.56,0,3.12,0,4.68,0,3.26,0,4.28,1,4.29,4.24Q68.44,53.29,68.43,63.4ZM61.57,42.07a4.15,4.15,0,0,0-4.21,4.26,4.41,4.41,0,0,0,4.19,4.12,4.19,4.19,0,0,0,4.13-4.33A4,4,0,0,0,61.57,42.07Z" />
</svg>