<svg xmlns="http://www.w3.org/2000/svg" viewBox="0 0 1024 1024">
  <circle cx="512" cy="512" r="512" fill="#0d8de8"/>
  <path fill="#fff" d="M797.375 835H232.25c-20.625 0-37.375-16.75-37.5-37.5v-565c0-20.625 16.75-37.375 37.5-37.5h565.125c20.625 0 37.375 16.75 37.5 37.5v565c0 20.75-16.75 37.5-37.5 37.5zm-285-583.75C368.25 252.5 252 370.75 251 515c-1.125 146.875 116.875 263.625 263.75 263.75 144.375.125 261.25-120 263.75-263.75 2.625-148.625-117.5-265.125-266.125-263.75zm-60.25 174l-23.75 57.625H602.75L579 425.25 756.25 515l-177.125 89.75 23.75-57.625h-174.5l23.5 57.625-177.5-89.75 177.75-89.75z"/>
</svg>
