<svg xmlns="http://www.w3.org/2000/svg" viewBox="0 0 1024 1024">
  <circle cx="512" cy="512" r="512" fill="#0052cc"/>
  <path fill="#fff" d="M726.125 238h-422.25C267.5 238 238 267.5 238 303.875v422.25C238 762.5 267.5 792 303.875 792h422.25C762.5 792 792 762.5 792 726.125v-422.25C792 267.5 762.5 238 726.125 238zm-249.5 399a21.82 21.82 0 0 1-21.875 21.875h-92.5A21.82 21.82 0 0 1 340.375 637V362.125a21.82 21.82 0 0 1 21.875-21.875h92.5a21.82 21.82 0 0 1 21.875 21.875V637zM689.75 510.875C690 523 680.375 533 668.25 533.25h-93a21.82 21.82 0 0 1-21.875-21.875v-149.25a21.82 21.82 0 0 1 21.875-21.875h92.5a21.82 21.82 0 0 1 21.875 21.875v148.75z"/>
</svg>
