<svg xmlns="http://www.w3.org/2000/svg" version="1.1" viewBox="0 0 72 72">
    <rect x="5" y="10" width="60" height="50" fill="#fff" />
    <path fill="#14d8cc"
        d="M64.5.2H7.1C3.2.2 0 3.4 0 7.3v57.4c0 3.9 3.2 7.1 7.1 7.1h57.4c3.9 0 7.1-3.2 7.1-7.1V7.3c0-3.9-3.2-7.1-7.1-7.1zM63 44.9H37.2v7.8c0 .5-.4.9-.9.9H9c-.5 0-.9-.4-.9-.9V25.5c0-.5.4-.9.9-.9h25.8v-7.8c0-.5.4-.9.9-.9H63c.5 0 .9.4.9.9V44c0 .5-.4.9-.9.9z" />
    <path fill="#14d8cc"
        d="M10.5 51.3h24.2V27H10.5v24.3zm8.6-18.1c0-.2.2-.3.3-.3h7c.2 0 .3.2.3.3v1.7c0 .2-.2.3-.3.3h-2.1c-.1 0-.2.1-.2.2v9.1c0 .2-.2.3-.3.3h-1.7c-.2 0-.3-.2-.3-.3v-9.1c0-.1-.1-.2-.2-.2h-2.1c-.2 0-.3-.2-.3-.3v-1.7zM47.6 36.3h5.7c.2 0 .3-.2.3-.3v-1.6c0-.2-.2-.3-.3-.3h-1.5c-.1 0-.2-.1-.2-.2v-7c0-.1.1-.2.2-.2h1.3c.2 0 .3-.2.3-.3v-1.6c0-.2-.2-.3-.3-.3h-5.3c-.2 0-.3.2-.3.3v1.6c0 .2.2.3.3.3H49c.1 0 .2.1.2.2v7c0 .1-.1.2-.2.2h-1.5c-.2 0-.3.2-.3.3V36c0 .1.2.3.4.3z" />
</svg>