<svg xmlns="http://www.w3.org/2000/svg" viewBox="0 0 1024 1024">
  <circle cx="512" cy="512" r="512" fill="#1da1f2"/>
  <path fill="#fff" d="M847.5 318.5c-23.5 10.375-48.625 17.375-75.125 20.625 27-16.25 47.75-41.875 57.5-72.375-25.25 14.75-53.375 25.5-83.125 31.5-23.875-25.5-57.75-41.5-95.5-41.5-72.25 0-130.875 58.625-130.875 130.75 0 10.375 1.25 20.375 3.375 29.875C415 412.25 318.5 360 254 281c-11.375 19.25-17.75 41.5-17.75 65.875 0 45.5 23.125 85.5 58.25 109-21.5-.75-41.625-6.625-59.25-16.375v1.625c0 63.5 45 116.375 105 128.375-11 3-22.625 4.5-34.5 4.5-8.375 0-16.375-.75-24.375-2.25 16.75 52 65 89.875 122.5 90.875-44.625 35.125-101.375 56-162.25 56-10.375 0-20.75-.625-31.125-1.75 58.25 37.125 126.875 58.75 201 58.75 240.625 0 372.25-199.375 372.25-372 0-5.5 0-11.125-.375-16.75 25.5-18.375 47.875-41.5 65.375-67.75l-1.25-.625z"/>
</svg>
