<svg xmlns="http://www.w3.org/2000/svg" viewBox="0 0 300 300">
  <circle cx="150" cy="150" r="150" fill="#fff"/>
  <path d="M105.24 66.883c31.48-17.567 62.96-16.105 93.703 0 3.66 1.462 7.318 2.928 8.781-1.462 1.467-4.396-.731-6.588-4.39-8.055-16.836-8.786-34.404-13.908-52.707-13.908-18.299 0-35.135 4.391-50.509 13.177-3.66 2.199-6.587 4.391-3.66 8.787 2.194 4.39 5.122 3.66 8.782 1.461zM94.992 212.558c-2.928 0-5.122 2.196-5.122 5.122 0 2.928 2.192 5.126 5.122 5.126s5.126-2.198 5.126-5.126c0-2.193-2.196-5.122-5.126-5.122z"/>
  <path fill="#E62027" d="M145.506 236.713c-5.126-2.929-13.177-11.712-13.912-11.712-.73 0-.73-.734-1.461-.734-2.929-1.463-5.858 0-6.589 2.929-.73 1.466-.73 2.929 0 4.395 6.589 8.781 16.836 13.907 16.836 13.907 2.198.732 5.126 0 6.589-2.929 1.465-2.197.73-4.39-1.463-5.856z"/>
  <path d="M163.804 121.052c0-2.928-2.193-5.122-5.122-5.122s-5.126 2.193-5.126 5.122 2.197 5.126 5.126 5.126c2.193.731 5.122-2.197 5.122-5.126zm56.366 79.792a5.129 5.129 0 0 1 5.127 5.126 5.126 5.126 0 0 1-10.25 0 5.127 5.127 0 0 1 5.123-5.126zm-39.53-21.959a5.121 5.121 0 0 1 5.126 5.122 5.12 5.12 0 0 1-5.126 5.125 5.122 5.122 0 0 1-5.123-5.125 5.123 5.123 0 0 1 5.123-5.122z"/>
  <path d="M180.64 178.885a5.121 5.121 0 0 1 5.126 5.122 5.12 5.12 0 0 1-5.126 5.125 5.122 5.122 0 0 1-5.123-5.125 5.123 5.123 0 0 1 5.123-5.122zm63.685-36.601c-2.923 0-5.121 2.193-5.121 5.123 0 2.929 2.197 5.127 5.121 5.127 2.929 0 5.127-2.197 5.127-5.127 0-2.194-2.198-5.123-5.127-5.123zm-2.923-12.446c0-2.928-2.197-5.127-5.126-5.127s-5.127 2.198-5.127 5.127 2.198 5.127 5.127 5.127 5.126-2.199 5.126-5.127zM84.014 82.989c2.928 0 5.125-2.198 5.125-5.126 0-2.93-2.196-5.123-5.125-5.123-2.93 0-5.126 2.193-5.126 5.123 0 2.198 2.196 5.126 5.126 5.126zM64.248 130.57c-2.198 0-3.659 1.465-4.39 2.927 0 0 0 .73-.731 1.465C54.732 147.404 54 159.848 54 159.848c0 2.929 2.198 5.128 5.127 5.128 2.193 0 4.391-1.467 5.122-4.394v-2.194c.73-12.446 4.391-21.232 4.391-21.232 0-.73.735-1.463.735-2.197.731-1.46-2.198-4.389-5.127-4.389z"/>
  <path d="M125.74 96.896c-43.189 17.568-54.904 60.756-43.189 102.483v.732c.73 2.197 2.924 3.661 5.121 3.661h.731c.735 0 1.467 0 1.467-.733 1.461-.73 2.927-2.928 2.927-4.389v-.736c-.735-3.659-2.197-8.05-2.927-11.709-8.787-44.656 19.765-82.719 61.487-82.719 38.067 0 63.69 24.892 63.69 61.492 0 14.641-5.857 21.958-16.105 21.958h-.736c-2.923 0-4.391 2.929-4.391 5.125 0 2.194 1.467 4.392 3.66 5.123h3.665c16.831-1.464 22.688-15.367 22.688-35.87.732-51.971-51.969-83.451-98.088-64.418z"/>
  <path d="M132.328 75.67c-.735-2.929-2.928-4.395-5.126-4.395h-.73c-.731 0-.731 0-1.467.73-8.782 2.928-15.369 6.588-22.689 10.983-10.251 5.857-17.572 13.177-26.353 24.155-1.467 1.467-3.661 3.66-4.396 5.857-.73.731-1.462 2.198-1.462 2.929 0 1.462 0 2.929 1.462 4.39 0 0 .736 0 .736.73 5.853 4.396 9.514-3.66 11.711-7.319 13.176-17.567 25.623-26.354 43.92-31.475h.735c.73 0 .73 0 1.463-.736 1.461-.731 2.196-2.928 2.196-4.391V75.67zm97.359 33.673c0-.73-.731-.73-.731-1.467-19.033-25.618-44.655-38.793-75.4-38.793h-5.123c-2.928 0-5.127 2.193-5.127 5.123s2.198 5.126 5.127 5.126c27.084-1.467 54.168 10.247 73.203 35.135.731 1.465 2.193 2.197 4.391 2.197 2.928 0 5.123-2.197 5.123-5.126-.731-.734-1.463-1.465-1.463-2.195zm-27.085 54.899c0-1.464 0-3.659-.73-5.124-2.197-13.905-10.248-27.082-20.495-34.407.73.737 1.462 1.467 1.462 2.928v.738c0 2.193-.731 3.66-2.929 4.39-.73 0-1.463.732-1.463.732h-.735c-.73 0-2.192 0-2.925-.732 8.781 7.32 15.371 19.765 16.836 32.211.733 3.661.733 8.051 5.853 8.051 5.858-.001 5.126-5.129 5.126-8.787z"/>
  <path fill="#00ADEE" d="M181.377 123.981zm-5.86 9.518l-.73-.732.73.732z"/>
  <path d="M179.179 134.229c.73 0 1.461-.73 1.461-.73 1.467-.732 2.928-2.928 2.928-4.391v-.73c0-1.468-.73-2.198-1.462-2.928-.73-.737-2.197-1.467-2.927-1.467-2.928 0-5.127 2.197-5.127 5.857v1.463c0 .735.734 1.465 1.465 1.465l.733.732c.73.729 2.197.729 2.929.729-.732 0 0 0 0 0zM157.216 139.356zm21.231 89.306c-2.928-.731-5.857-2.196-8.785-3.661-22.693-10.982-34.402-30.012-35.14-55.632-.73-11.717 6.589-19.766 16.835-19.766.736 0 1.468 0 1.468-.733 1.461-.734 2.928-2.928 2.928-4.394 0-2.193-.73-3.661-2.928-4.391-.731-.73-1.468-.73-2.198-.73-13.177.73-24.155 10.979-26.354 24.885-3.66 31.479 21.963 68.08 51.245 74.668 3.661.73 6.59.73 7.321-3.659.73-3.658-1.462-5.124-4.392-6.587zM178.447 162.778v-1.464c-.735-3.66-2.196-8.781-4.394-11.71 0 0 0-.733-.731-.733-.732-.734-2.197-1.465-3.66-1.465-2.928 0-5.127 2.198-5.127 5.127v2.191c.737 1.468 1.468 4.395 2.928 9.519 0 .735 0 .735.737 1.467.73 2.19 2.925 3.66 5.122 3.66.731 0 2.197 0 2.929-.731 1.461-1.468 2.196-2.93 2.196-5.861z"/>
  <path fill="#E62027" d="M122.082 209.63s0 .729 0 0c0 .729 0 0 0 0zm-9.518 5.124s0 .733.73.733c-.73 0-.73 0-.73-.733 0 .733 0 0 0 0z"/>
  <path fill="#00AB74" d="M138.917 117.393c-.737 0-2.198.731-2.198.731-21.962 6.587-36.602 27.819-36.602 52.706.731 16.105 7.32 35.14 10.978 43.189 0 .736.731.736.731 1.468v.731c.736 1.462 2.198 2.196 4.395 2.196.731 0 1.463 0 2.193-.735 1.467-.732 2.929-2.926 2.929-5.122 0-.73 0-1.467-.73-2.198v-.729c-7.32-13.178-10.978-27.085-10.978-43.19.73-18.303 13.177-33.673 29.282-38.801h.73c.73 0 2.197-.73 2.197-1.461.73-.73 1.462-2.198 1.462-3.66.733-2.927-1.46-5.125-4.389-5.125z"/>
</svg>
