<svg version="1.1" viewBox="0 0 31 31" xmlns="http://www.w3.org/2000/svg">
    <path d="M15.1816 30.1377C23.4659 30.1377 30.1816 23.422 30.1816 15.1377C30.1816 6.85342 23.4659 0.137695 15.1816 0.137695C6.89737 0.137695 0.181641 6.85342 0.181641 15.1377C0.181641 23.422 6.89737 30.1377 15.1816 30.1377Z" fill="#FFF"/>
    <path d="M8.66016 20.3555L9.96451 29.2052C11.5894 29.8082 13.3471 30.1381 15.1819 30.1381C21.6313 30.1381 27.1295 26.0675 29.2488 20.3555H8.66016Z" fill="#000"/>
    <path d="M8.66016 9.92033L9.96451 1.07057C11.5894 0.467578 13.3471 0.137695 15.1819 0.137695C21.6313 0.137695 27.1295 4.20832 29.2488 9.92033H8.66016Z" fill="#00843D"/>
    <path d="M0.181641 15.1373C0.181641 21.5868 4.25232 27.0849 9.96428 29.2043V1.07031C4.25232 3.18971 0.181641 8.68785 0.181641 15.1373Z" fill="#c8102e"/>
</svg>
