<svg xmlns="http://www.w3.org/2000/svg" viewBox="0 0 75 75">
  <circle cx="37.5" cy="37.5" r="37.5" fill="#341b14"/>
  <path fill="#341b14" d="M37.64 66.8c.48-.24 12.96-5.64 16.92-8.88 4.08-3.36 6.24-8.16 6.24-13.92V17l-.36-.12c-9.96-5.4-22.32-5.04-22.92-5.04-.48 0-12.84-.36-22.8 5.04l-.24.12v27.12c0 5.76 2.16 10.56 6.24 13.92 3.96 3.24 16.44 8.64 16.92 8.76"/>
  <path fill="#ffb406" d="M37.64 67.4s-13.2-5.76-17.28-9C16.04 54.8 14 49.88 14 44.24V16.16C24.44 10.52 37.64 11 37.64 11s13.2-.48 23.64 5.16v27.96c0 5.64-2.04 10.56-6.36 14.16-4.08 3.36-17.28 9.12-17.28 9.12M15.92 44.24c0 5.28 1.92 9.6 5.64 12.6 3.36 2.76 13.32 7.2 16.08 8.4 2.76-1.2 12.84-5.76 16.08-8.4 3.72-3 5.64-7.44 5.64-12.6v-27.6c-13.92-1.32-30.48-.6-43.44 11.4v16.2z"/>
  <path fill="#ffb406" d="M50.96 40.28c1.8 1.08 2.52 1.8 2.64 3.12 0 1.44-.96 2.28-2.52 2.28-1.32 0-2.88-.72-3.96-1.68v3.84c1.32.72 2.88 1.32 4.56 1.32 4.08 0 6-2.88 6-5.52.12-2.4-.6-4.32-4.08-6.36-1.56-.96-2.76-1.56-2.76-3s1.32-2.04 2.4-2.04c1.44 0 2.88.84 3.72 1.68v-3.6c-.72-.6-2.28-1.44-4.56-1.32-2.76.12-5.64 2.04-5.64 5.4.12 2.28.84 3.96 4.2 5.88M36.8 48.92c.36.12.96.24 1.92.24 4.68 0 7.32-4.2 7.32-10.2 0-6.12-2.76-9.84-7.68-9.84-2.28 0-4.08.48-5.64 1.44v27.12h4.08v-8.76zm0-16.32c.36-.12.96-.36 1.44-.36 2.4 0 3.36 1.92 3.36 6.6 0 4.56-1.2 6.72-3.6 6.72-.6 0-1.08-.12-1.32-.24V32.6zM24.2 49.16c2.52 0 4.68-.6 6.24-1.68V29.36h-4.2v15.72c-.48.36-1.08.48-1.92.48-1.92 0-2.16-1.8-2.16-2.88V29.36h-4.2v13.08c0 4.44 2.16 6.72 6.24 6.72m27.96 16.2v2.76h.48v-1.08h.12l.72 1.08h.6s-.72-1.08-.84-1.2c.36-.12.6-.36.6-.72s-.24-.84-.96-.84h-.72zm.72.36c.36 0 .48.24.48.36 0 .24-.12.48-.6.48h-.12v-.84h.24z"/>
  <path fill="#ffb406" d="M54.8 66.68c0 .96-.84 1.8-1.8 1.8s-1.8-.84-1.8-1.8.84-1.8 1.8-1.8c1.08 0 1.8.84 1.8 1.8M53 64.4c-1.2 0-2.28.96-2.28 2.28 0 1.2.96 2.28 2.28 2.28 1.2 0 2.28-.96 2.28-2.28 0-1.2-1.08-2.28-2.28-2.28"/>
</svg>
