<svg xmlns="http://www.w3.org/2000/svg" viewBox="0 0 57 57">
  <circle cx="28" cy="28" r="28" fill="#fff"/>
  <path fill="#003060" d="M43.2 25.2c0-1.6-1.6-3.3-4.7-3-2.1.2-4.2 1.3-6.4 2.3l.3-1.4.8-3.8c.5-2.3.9-3.1 1.4-3.1.3 0 .5.2.7.6.2.4.5.9 1.2.9s1.1-.6 1.1-1.4c0-1-.9-1.9-2-1.9-2.6 0-4.6 2.9-5.8 8.5l-.6 2.8c-.9.5-1.6.7-2.4.7-.4 0-.9-.1-1.2-.2 0-.2.2-.7.2-1.4 0-1.6-.9-2-1.6-1.9-.8 0-1.9.4-1.9 2.2 0 .9.6 1.7 1.6 2.2-.1.2-.1.2-.1.4-.8 2-4.5 9.2-5 8.4-2.5-3.5.2-12.2.2-12.2-.3-.1-2.4-1.2-4.7-1.2-2.5 0-3.7 2.1-3.9 4-.1 1.2.3 1.9 1.1 2 .7.1 1.3-.5 1.4-1.4.1-.7-.3-1.1-.6-1.3-.2-.2-.3-.3-.3-.5 0-.4.5-.8.9-.7.1 0 .2.1.5.1.7.2 2.4.9 3 .2-2.3 4.8-1.6 13 2.3 12.6 2.3-.3 4.6-5.6 6.7-10.2 0-.1.7.4 3.3.2h.2l-2 9.3c-.4 1.7-.9 3.8-1.8 3.8-.3 0-.5-.3-.7-.7-.2-.4-.6-1-1.3-1-.7 0-1.2.6-1.2 1.4 0 1.3 1.1 2 2.2 2 2.7 0 4.7-3 6-9.1l1.3-6.3c1.6-.5 3-1.5 4.1-2.1-.2.5-.3 1.3-.3 1.8 0 1.6.9 2.9 1.8 4.4.7 1.2 1.4 2.3 1.4 3.1 0 .8-.8 1.5-1.6 1.5-.7 0-1-.6-1.2-1.2-.3-.6-.6-1.3-1.4-1.3-.7 0-1.2.7-1.2 1.6 0 1.4 1.3 2.5 3 2.5 2.5 0 4.2-1.8 4.2-4.3 0-1.9-1.1-3.5-2.1-5-.7-1-1.2-1.9-1.3-2.6 0-1.3 1.9-2.2 2.9-2.2.4 0 .8.1 1.1.2-.6.3-.9.8-.9 1.6 0 1 .8 1.4 1.4 1.4 1.4.3 1.9-.5 1.9-1.3m1.6 9c0-1-.6-1.8-1.5-1.8-.8 0-1.5.7-1.5 1.8 0 1 .7 1.6 1.5 1.6 1 .1 1.5-.6 1.5-1.6" class="st0"/>
  <path fill="#003060" d="M28.7.7C13.6.7 1.3 12.9 1.3 28c0 15.1 12.3 27.3 27.3 27.3 15.1 0 27.3-12.2 27.3-27.3C55.9 12.9 43.7.7 28.7.7m0 56C12.8 56.7-.1 43.7-.1 28S12.8-.7 28.7-.7c15.8 0 28.6 12.9 28.6 28.6S44.5 56.7 28.7 56.7" class="st0"/>
</svg>
