<svg xmlns="http://www.w3.org/2000/svg" width="256" height="256">
  <path fill="#196aff" stroke-width=".366" d="M226.876 46.8a127.188 127.188 0 0 0-6.66-7.583C196.136 13.935 163.386.01 127.996.01c-34.19 0-66.333 13.315-90.508 37.49a130.388 130.388 0 0 0-8.445 9.3C10.233 69.639-.002 98.036-.002 128.008c0 34.189 13.315 66.332 37.49 90.508 24.175 24.175 56.317 37.489 90.508 37.489 34.19 0 66.332-13.314 90.508-37.49 24.175-24.175 37.488-56.318 37.488-90.507 0-29.227-10.514-58.295-29.116-81.206"/>
  <path fill="#fff" stroke-width=".367" d="M167.614 162.115c4.758-13.956 12.617-18.229 13.594-39.766.343-7.568-1.955-31.608-1.955-31.608s3.735-9.639-3.443-20.376c-11.13-16.649-34.052-17.78-46.09-17.78-12.039 0-34.693 1.131-45.824 17.78-7.178 10.737-3.443 20.376-3.443 20.376s-1.272 12.364-2.234 23.269c-.226 2.559.021 12.682.328 15.127.55 4.383 1.93 8.688 3.44 12.88 1.913 5.307 4.91 10.692 7.198 16.137 6.906 16.439 1.127 36.8 1.48 54.527.298 12.583-2.668 25.347-3.83 37.652 13.083 4.452 26.943 6.775 41.16 6.775 15.978 0 31.507-2.925 45.986-8.52-2.719-15.406-5.878-30.019-6.366-35.594-1.42-16.855-5.507-34.731-.001-50.878"/>
  <path fill="#fff" stroke-width=".366" d="M79.503 63.93c.154 2.497.4 5.057 1.103 7.487.221.758.547 2.625 1.522 2.902 1.212.346 3.455-1.1 4.305-1.727 1.648-1.213 3.19-2.462 4.838-3.687 1.051-.781 2.199-1.396 3.228-2.2 1.12-.872 1.963-1.93 2.895-2.956 1.13-1.248 1.98-2.54 2.849-3.933.68-1.087 4.942-1.795 5.625-2.804.745-1.104.122-2.468.122-3.827 0-9.888.594-19.675.825-29.37.238-6.652 2.85-14.55-7.125-11.433-21.375 6.651-21.137 36.167-20.187 51.548m94.161 13.887c-.215-.233-.559-.431-.834-.636-1.198-.886-2.326-1.814-3.355-2.864-1.254-1.281-2.558-2.527-3.754-3.857-1.053-1.168-2.309-2.213-3.335-3.41a37.825 37.825 0 0 1-1.947-2.474c-.309-.424-.47-.933-.712-1.387-.361-.668-5.318-1.349-4.825-2 .84-1.11 2.71-2.053 3.16-3.325 2.299-6.49 3.303-32.603 3.58-39.268.714-17.043 15.676.832 18.289 7.691 7.6 19.954 3.086 34.503-6.175 51.548"/>
  <path fill="#f1e6d3" stroke-width=".366" d="M153.313 143.394c-.01-9.84-1.233-13.821-6.72-18.633-3.433-3.008-7.445-4.156-13.832-3.998-6.387-.158-10.99 1.783-14.309 5.23-5.006 5.198-6.324 8.273-6.339 18.113-.008 5.319 5.728 17.088 7.434 19.804 2.833 4.79 8.075 6.514 13.214 6.154 5.139.36 10.382-1.363 13.212-6.154 1.708-2.716 7.348-14.26 7.34-20.516"/>
  <path fill="#f1d7d4" stroke-width=".366" d="M88 72.967c-1.283-11.478-5.145-31.996 8.197-44.164 1.472-1.344 1.867 3.226 2.113 5.075.339 2.538-.006 9.788.045 12.344.096 4.811 1.104 7.328.634 9.528-1.284 6.012-2.314 5.624-3.541 9.28-2.435 7.25-7.098 11.075-7.449 7.937m83.35-2.268c1.366 2.444 4.933-10.7 6.05-16.41 1.053-5.373 2.39-12.515.542-17.854-.992-2.864-7.077-11.275-7.795-8.385-.28 1.122-.424 9.48-1.113 13.478-.851 4.948-2.387 9.84-2.397 14.872-.02 11.276 3.378 11.74 4.713 14.299"/>
  <path fill="#faeee0" stroke-width=".366" d="M127.386 205.808c-.29.878-2.48 1.52-3.302 1.786-1.988.642-3.752-.925-4.863-2.246-1.544-1.83-1.503-4.75-2.15-6.885-.391-1.291-2.604-1.466-3.27-.272-2.216 3.986-10.82-3.515-8.82-6.013 1.318-1.647-1.838-3.101-3.14-1.477-3.859 4.822 6.523 13.8 12.478 11.366.265 1.205.543 2.408 1.054 3.551 1.003 2.247 3.197 3.699 5.468 4.919 3.093 1.658 9.101-1.254 10.019-4.034.639-1.934-2.837-2.618-3.474-.695m27.415-29.13c.32 1.34.37 5.876-2.125 3.394-1.012-1.007-3.022-.413-3.104.934-.193 3.119-3.32 3.187-6.018 2.245-2.14-.747-3.271 2.211-1.147 2.952 3.961 1.383 8.261.617 9.97-2.378 1.344.633 2.864.805 4.083-.342 2.13-2.006 2.45-4.83 1.831-7.428-.47-1.968-3.96-1.346-3.49.623m6.321 65.196c-.933 1.909-2.647 1.79-4.484.988-1.348-.587-3.015.384-2.608 1.748.818 2.736-2.638 3.535-4.975 2.56-2.057-.86-3.845 1.839-1.766 2.707 4.21 1.758 9.564.22 10.34-3.484 2.708.43 5.295-.331 6.586-2.975.894-1.824-2.187-3.396-3.093-1.544m-27.37-147.198c-.433 2.69-5.478-.443-6.731-1.292-1.103-.747-2.53-.293-2.665.965-.18 1.695-2.464 1.203-3.508.99-1.974-.402-3.648-1.632-3.695-3.48-.046-1.797 1.094-3.684 1.688-5.37.38-1.077-1.162-2.262-2.29-1.541-2.033 1.297-11.83 2.464-7.927-1.807 1.243-1.36-.952-3.306-2.208-1.93-1.802 1.973-3.021 6.493.878 7.45 2.058.504 5.037.479 7.575-.1-1.06 3.397-1.282 6.506 3.087 8.689 2.953 1.476 7.008 1.465 8.726-.814 3.616 1.944 9.295 3.83 10.08-1.035.278-1.72-2.728-2.464-3.01-.725"/>
  <path fill="#494949" stroke-width=".366" d="M116.855 157.033c5.248.444 10.499 1.636 15.796 1.445 3.387-.123 6.893-.598 10.233-1.093 2.427-.36 5.403-.784 7.026-2.583.153 6.002-12.334 7.88-17.178 8.003-5.619.142-11.934-2.297-15.877-5.772"/>
  <path fill="#494949" stroke-width=".366" d="M131.044 144.51c-.6 3.853-.724 7.76-.363 11.636.096 1.013-.174 3.428 1.173 3.936 1.092.413 2.442-.363 2.62-1.348.302-1.66-.405-3.755-.465-5.456-.071-1.992 0-3.986.21-5.969.126-1.175.786-2.76-.56-3.588-.987-.607-2.434-.383-2.615.79"/>
  <path fill="#494949" stroke-width=".366" d="M141.248 135.144c-3.155.137-6.084 1.902-8.453 3.604-2.144-1.424-5.39-2.732-8.092-1.97-1.61.452-.148.946.523 1.375 1.241.825 2.253 1.886 3.166 2.982 1.385 1.68 2.616 3.444 4.094 5.064 1.023-.737 2-1.48 2.89-2.341.412-.4 3.791-4.923 4.31-5.689.33-.487.665-.99 1.044-1.45.386-.463 1.476-1.202.518-1.575"/>
  <path fill="#2c3844" stroke-width=".366" d="M101.32 113.773c1.559-4.04 3.233-9.118 7.503-8.31 3.232.692 7.56 11.481 4.79 10.416-1.5-.577-2.694-5.48-5.511-6.117-1.79-.404-4.27 5.8-6.666 6.435-1.16.306-.577-1.385-.115-2.424m45.875 0c1.558-4.04 3.233-9.118 7.503-8.31 3.231.692 7.559 11.481 4.79 10.416-1.501-.577-2.695-5.48-5.512-6.117-1.79-.404-4.27 5.8-6.665 6.435-1.161.306-.577-1.385-.116-2.424"/>
</svg>
