<svg xmlns="http://www.w3.org/2000/svg" viewBox="0 0 1024 1024">
  <circle cx="512" cy="512" r="512" fill="#3CF"/>
  <g fill-rule="evenodd" clip-rule="evenodd">
    <path fill="#FFF" d="M540.7 258.5c-70.1 0-135.4 31.5-179.5 87.4-30.7 39.4-47.2 88.2-47.2 137.8v41.7c0 18.1-7.1 35.4-18.9 48-9.4 9.4-21.3 16.5-33.9 19.7 4.7 11.8 15.7 29.9 35.4 49.6 16.5 17.3 36.2 31.5 57.5 41.7v-.8c13.4-20.5 35.4-32.3 59.8-32.3 4.7 0 8.7.8 13.4 1.6 28.3 5.5 50.4 27.6 55.9 55.1h58.3c60.6 0 118.1-25.2 159.8-66.1 64.6-64.6 84.2-161.4 48.8-244.8-35.4-84.3-117.2-138.6-209.4-138.6z"/>
    <path fill="#191938" d="M540.7 230.2c-77.9 0-151.1 34.6-200.7 96.8-35.4 44.9-54.3 100-54.3 157.4v40.9c0 21.3-15 40.9-44.1 42.5-7.1 0-12.6 5.5-13.4 12.6-.8 18.9 19.7 54.3 48 82.7 19.7 19.7 42.5 35.4 66.9 48-7.9 43.3 26 82.7 70.1 82.7h.8c33.9 0 62.2-23.6 69.3-55.9h59c6.3 32.3 34.6 55.9 69.3 55.9 7.9 0 16.5-1.6 24.4-3.9 19.7-6.3 34.6-21.3 41.7-40.9 6.3-18.1 5.5-36.2 0-51.2 15.7-10.2 29.9-21.3 43.3-34.6 48-47.2 74.8-111.8 74.8-178.7 0-67.7-26.8-130.7-74.8-178.7-48-49.7-112.6-75.6-180.3-75.6zm0 28.3c91.3 0 174 55.1 209.4 139.3 35.4 84.2 15.7 181.1-48.8 244.8-41.7 41.7-99.2 66.1-159.8 66.1h-58.3c-5.5-28.3-27.6-49.6-55.9-55.1-4.7-.8-8.7-1.6-13.4-1.6-23.6 0-46.4 11.8-59.8 32.3v.8c-21.3-11-40.1-25.2-57.5-41.7-19.7-19.7-30.7-38.6-35.4-49.6 13.4-3.1 24.4-10.2 33.9-19.7 11.8-13.4 18.9-29.9 18.9-48v-41.7c0-49.6 16.5-98.4 47.2-137.8 44.1-57.4 109.5-88.1 179.5-88.1z"/>
    <path fill="#191938" d="M654.1 398.6c-15.7 0-28.3 12.6-28.3 28.3 0 15.7 12.6 28.3 28.3 28.3 15.7 0 28.3-12.6 28.3-28.3 0-15.7-12.5-28.3-28.3-28.3zM484.1 398.6c-15.7 0-28.3 12.6-28.3 28.3 0 15.7 12.6 28.3 28.3 28.3 15.7 0 28.3-12.6 28.3-28.3 0-15.7-12.6-28.3-28.3-28.3zM479.3 511.2c-10.2 0-17.3 10.2-12.6 19.7 18.9 39.4 58.3 64.6 102.3 64.6s83.4-25.2 102.3-64.6c3.9-9.4-2.4-19.7-12.6-19.7-5.5 0-10.2 3.1-12.6 7.9-14.2 29.1-44.1 48-76.4 48-33.1 0-63-18.9-76.4-48-2.9-4.7-7.7-7.9-14-7.9z"/>
  </g>
</svg>
