<svg xmlns="http://www.w3.org/2000/svg" viewBox="0 0 473.94 473.94">
    <circle fill="#ffdf1b" cx="236.97" cy="236.97" r="236.97" />
    <path
        d="M33.01 191.447h14.499l3.443 25.699h.108l3.798-25.699h16.759l3.794 25.699h.109l3.465-25.699h14.484l-8.838 40.875H67.086l-3.794-26.495h-.116l-3.787 26.495H41.844l-8.834-40.875M103.385 191.447h31.075v10.642h-15.566v4.359h14.38v10.645h-14.38v4.58h16.079v10.649h-31.588v-40.875M168.091 203.054c-.06-2.552-1.471-3.398-3.573-3.398-2.601 0-3.734 1.13-3.734 2.384 0 1.463.965 2.092 2.66 2.597 3.121.902 8.827 2.043 12.965 3.798 5.152 2.148 7.416 5.826 7.416 10.754 0 10.024-8.157 14.207-19.704 14.207-9.845 0-18.907-3.057-18.907-13.702h15.513c0 1.137.228 2.275.849 3.117.614.797 1.643 1.295 3.166 1.295 2.384 0 3.91-1.519 3.91-3.334 0-1.527-1.19-2.324-2.72-2.769l-11.495-3.401c-6.286-1.867-8.486-5.661-8.486-10.922 0-8.494 6.847-13.302 18.787-13.302 10.196 0 17.833 3.169 17.833 12.681H168.09M203.133 202.422h-10.077v-10.975H229.4v10.975h-10.069v29.9h-16.198v-29.9M240.382 191.447h31.09v10.642h-15.566v4.359h14.376v10.645h-14.376v4.58h16.071v10.649h-31.595v-40.875M283.985 191.447h24.176c8.771 0 13.916 2.66 13.916 10.357 0 4.707-1.972 8.262-8.097 9.744v.109c3.97.337 6.125 2.099 6.922 5.212.898 3.51.79 9.283 2.653 15.457h-15.858c-.958-3.061-1.463-8.221-2.024-11.723-.352-2.032-1.366-2.836-3.97-2.836h-1.863v14.559h-15.85v-40.879m17.203 17.044c3.106 0 5.373-1.078 5.373-4.135 0-3.005-2.099-3.626-5.261-3.626h-1.471v7.76h1.359v.001zM334.813 191.447h19.416l8.662 24.741h.116v-24.741h13.133v40.875h-19.412l-8.658-24.909h-.116v24.909h-13.141v-40.875M183.496 267.491c0 9.852-7.083 14.776-19.423 14.776-12.337 0-19.416-4.924-19.416-14.776v-27.173h16.194v26.499c0 3.222 1.527 4.464 3.222 4.464 1.702 0 3.229-1.242 3.229-4.464v-26.499h16.194v27.173M196.906 240.318h19.42l8.659 24.741h.112v-24.741h13.137v40.872h-19.423l-8.663-24.909h-.101v24.909h-13.141v-40.872M251.93 240.33h16.179v40.871H251.93zM301.474 239.244c14.099 0 21.107 8.771 21.107 21.511 0 12.733-7.008 21.511-21.107 21.511-14.106 0-21.122-8.778-21.122-21.511-.001-12.74 7.015-21.511 21.122-21.511m0 32.382c2.485 0 4.355-1.418 4.355-10.87 0-9.235-1.762-10.874-4.355-10.874-2.608 0-4.363 1.639-4.363 10.874 0 9.451 1.871 10.87 4.363 10.87zM334.813 240.318h19.416l8.662 24.741h.116v-24.741h13.133v40.872h-19.412l-8.658-24.909h-.116v24.909h-13.141v-40.872M387.91 190.64h5.175v90.7h-5.175zM424.54 191.5h5.167v89.77h-5.167zM434.179 196.349c0-2.997 2.44-5.437 5.452-5.437s5.437 2.44 5.437 5.437c0 3.02-2.425 5.455-5.437 5.455s-5.452-2.436-5.452-5.455m10.028 0c0-2.649-1.923-4.711-4.576-4.711-2.645 0-4.591 2.062-4.591 4.711 0 2.672 1.946 4.745 4.591 4.745 2.653-.001 4.576-2.074 4.576-4.745zm-1.856 3.046h-.891l-1.74-2.81h-1.366v2.81h-.737v-6.084h2.645c1.616 0 2.163.606 2.163 1.609 0 1.19-.834 1.639-1.908 1.665l1.834 2.81zm-2.859-3.394c.868 0 2.133.142 2.133-1.089 0-.954-.782-1.066-1.527-1.066h-1.747v2.155h1.141z" />
</svg>