<svg xmlns="http://www.w3.org/2000/svg" viewBox="0 0 1024 1024">
  <circle cx="512" cy="512" r="512" fill="#ea7100"/>
  <path fill="#fff" d="M220.25 458.5v-30.625H299v176.5h-78.75V574h46.125V458.5H220.25zm-36.875-.25v-30.375h-78.75v176.5H151.5l31.875 64.375V573.5l-46.125.125v-115.5h46.125zM523.5 436l1.25-1.75 6.75-7.625h-39l-55.875 66.25-56-66.25-39.375.25 7 7.5 68.75 81.75L348.25 598l-7 7.75h39.375l56-66.25 55.875 66.25 39.125-.25L525 598l-69.125-81.75L523.5 436zm170-9.25H548v179.125h145.5c8.875.125 17.5-3.375 23.75-9.75 6.5-6.25 10-14.875 9.875-23.75v-112c.125-9-3.375-17.625-9.875-23.75-6.25-6.5-14.875-10-23.75-9.875zm3.5 145.625c0 1-.375 1.875-1 2.625s-1.625 1.125-2.625 1h-112c-1 0-1.875-.375-2.625-1-.625-.75-1-1.625-1-2.625v-112c0-1 .25-1.875 1-2.625.625-.75 1.625-1.125 2.625-1.125h112c1 0 1.875.375 2.625 1.125.75.625 1.125 1.625 1 2.625v112zm218.625-135.75c-6.25-6.5-14.875-10-23.75-9.875H779.75c-9-.125-17.5 3.5-23.75 9.875-6.375 6.25-9.875 14.875-9.75 23.75v145.5h30v-61.25H895.5v61.25h29.875v-145.5c.25-8.875-3.375-17.5-9.75-23.75zM895.5 514.5H776.25v-54.125c-.125-1 .375-2 1.125-2.625a3.078 3.078 0 0 1 2.375-1.125h112.125c.875 0 1.875.375 2.375 1.125.75.625 1.25 1.625 1.125 2.625V514.5z"/>
</svg>
