<svg xmlns="http://www.w3.org/2000/svg" viewBox="0 0 1024 1024">
  <circle cx="512" cy="512" r="512" fill="#ff6900"/>
  <path fill="#fff" d="M515 195c-106.25 0-193.175 6.8-253.525 67.088S195 409.212 195 515.324s6.138 192.937 66.513 253.25S408.75 835 515 835s193.15-6.138 253.487-66.425S835 621.4 835 515.325s-6.25-193.15-66.725-253.438S621.075 195 515 195zM325.825 392.5h150c39.2 0 80.188 1.813 100.375 22.05 19.887 19.887 22.05 59.55 22.138 98.025v121.063a4 4 0 0 1-4.088 3.862h-51.912a4 4 0 0 1-4.05-3.95V510.425c0-21.488-1.25-43.575-12.375-54.688-9.55-9.6-27.363-11.762-45.863-12.212h-94.175a4 4 0 0 0-4.025 3.925v186.163a4 4 0 0 1-4.05 3.95h-51.975a4 4 0 0 1-4-3.95V396.436a4 4 0 0 1 4-3.937zm323.488 0h51.937a4 4 0 0 1 4 4v237.125a4 4 0 0 1-4 3.875h-51.925a4 4 0 0 1-4.025-3.95V396.437a4 4 0 0 1 4.025-3.975zm-216.45 94.45h54.562a3.962 3.962 0 0 1 4 3.925v142.713a4 4 0 0 1-4 3.95h-54.563a4 4 0 0 1-4.05-3.95V490.861a4 4 0 0 1 4.05-3.912z"/>
</svg>
