<svg xmlns="http://www.w3.org/2000/svg" viewBox="0 0 400 400">
    <circle cx="200" cy="200" r="200" fill="#fff"/>
    <path fill="#3f454e" d="M158.28 335.6c-.18-37.5-6.28-76 16-109.86C198.98 188.18 220 148.1 242 108.78c2.82-5.2 8-14.78 8-14.78s10.62.2 16.96.12c12.46-.24 24.52-.12 39.34-.12-7.06 12.5-12.92 23.52-19 34-22.36 38.56-44.98 77-66.96 115.82a45.04 45.04 0 0 0-5.06 20c-.56 17.66-.96 45.24-.96 62.92 0 4.28 0 6.48-1.08 7.6s-3.46 1.18-8.22 1.18zM194 94c-10.8 18.64-20 39.36-31.26 56-6.94 10.2-22.56 12.12-33.84 7.16a33.62 33.62 0 0 1-20-31.72c0-14.36 9.04-29.66 19.84-31.4 5.1-.94 56.9-.04 65.26-.04z"/>
</svg>
