<svg xmlns="http://www.w3.org/2000/svg" viewBox="0 0 300 300">
  <circle cx="150" cy="150" r="150" fill="#fff"/>
  <path fill="#4066b3" d="M150 0C67 0 0 67 0 150c0 34 11 66 31 91L156 77h-26c-14 0-28 1-37 3-6 1-11 3-15 6-5 3-11 11-15 18 0 1-1 2-2 4l-9-1 12-47h156L96 225c8-1 11-1 18-1 5 0 13 0 23 1l22 1c8 0 15 1 20 1 11 0 19-1 26-3 6-2 11-4 16-8 9-6 17-16 22-25 0-1 1-2 2-4l7 2c-2 8-3 11-7 19-7 15-14 25-25 33s-22 12-36 12h-2c-10 0-18-1-43-5s-38-5-51-5c-8 0-16 1-24 2-11 2-15 3-25 7 27 30 67 49 111 49 83 0 150-67 150-150C300 67 233 0 150 0"/>
</svg>
