<svg version="1.1" xmlns="http://www.w3.org/2000/svg" viewBox="0 0 300 300">
<circle cx="150" cy="150" fill="#F05514" r="150" />
<path fill="#fff" d="M150,234.3c-46.4,0-84.3-37.9-84.3-84.3s37.9-84,84.3-84s84,37.9,84,84C234,196.7,196.4,234.3,150,234.3z
	 M271.3,149.7l-27.6-25l11.2-35.5l-36.4-7.9l-7.9-36.4L175,56.3l-25.3-27.6l-25,27.6L89.2,45.2l-7.9,36.4l-36.4,7.9L56.3,125
	l-27.6,25.2l27.6,25l-11.2,35.5l36.4,7.9l7.9,36.4l35.5-11.5l25.3,27.6l25-27.6l35.5,11.2l7.9-36.4l36.4-8.2l-11.5-35.5L271.3,149.7
	L271.3,149.7z M96.8,96.9c29.3-29.4,76.9-29.4,106.3,0c0,0,0,0,0,0c29.3,29.3,29.4,76.9,0,106.2c0,0,0,0,0,0
	c-29.3,29.4-76.9,29.4-106.3,0c0,0,0,0,0,0C67.5,173.8,67.5,125.9,96.8,96.9"/>
</svg>
