<svg xmlns="http://www.w3.org/2000/svg" xmlns:xlink="http://www.w3.org/1999/xlink" viewBox="0 0 665.19 665.19">
    <defs>
        <style>
            .cls-1{fill:url(#linear-gradient);}
            .cls-3{fill:url(#linear-gradient-3);}
            .cls-4{fill:url(#linear-gradient-2);}
            .cls-5{fill:#c84e28;opacity:.59;}
            .cls-6{fill:#b50d31;opacity:.61;}
        </style>
        <linearGradient id="linear-gradient" x1="438.02" y1="63.74" x2="458.82" y2="431.41" gradientUnits="userSpaceOnUse">
            <stop offset=".02" stop-color="#a75584"/>
            <stop offset=".42" stop-color="#b6496f"/>
            <stop offset=".57" stop-color="#be4768"/>
            <stop offset=".82" stop-color="#d64455"/>
            <stop offset=".91" stop-color="#e0434d"/>
        </linearGradient>
        <linearGradient id="linear-gradient-2" x1="198.97" y1="301.94" x2="69.38" y2="633.4" gradientUnits="userSpaceOnUse">
            <stop offset="0" stop-color="#ffe065"/>
            <stop offset=".02" stop-color="#ffdb54"/>
            <stop offset=".13" stop-color="#ffc906"/>
            <stop offset=".14" stop-color="#fdc30b"/>
            <stop offset=".26" stop-color="#f59d30"/>
            <stop offset=".32" stop-color="#f28f3f"/>
            <stop offset=".47" stop-color="#ed6948"/>
        </linearGradient>
        <linearGradient id="linear-gradient-3" x1="276.79" y1="186.53" x2="330.01" y2="471.26" gradientUnits="userSpaceOnUse">
            <stop offset=".02" stop-color="#cf5c6c"/>
            <stop offset=".09" stop-color="#d85f68"/>
            <stop offset=".27" stop-color="#ea6561"/>
            <stop offset=".4" stop-color="#f1685f"/>
            <stop offset=".65" stop-color="#f0764f"/>
            <stop offset=".96" stop-color="#f08441"/>
        </linearGradient>
    </defs>
    <circle cx="330" cy="335" r="330" fill="white" />
    <g>
        <path class="cls-1" d="m526.97,101.85v234.58s.8,36.33-29.26,70.82c-30.05,34.5-69.52,38.68-79.97,38.68h-44.95l5.69-260.95s.75-39.23,33.51-72c31.23-31.23,71.08-29.01,71.08-29.01h26.66s17.24-1.63,17.24,17.87Z"/>
        <path class="cls-4" d="m229.63,287l1.31,158.92H99.58s-15.63-.36-15.63-12.58v-47.66s-.58-35.09,26.56-64.56c27.14-29.47,59.52-33.35,69.6-33.35s49.53-.78,49.53-.78Z"/>
        <path class="cls-3" d="m379.13,445.93h-155.49l5.99-158.92s-1.84-37.83,33.11-71.46c23.98-23.07,46.24-28.9,65.68-28.9h50.02l.69,259.29Z"/>
        <path class="cls-6" d="m372.66,445.94h6.47l-.69-259.3-5.79,259.3Z"/>
        <polygon class="cls-5" points="229.63 285.05 223.49 445.93 230.79 445.93 229.63 285.05"/>
    </g>
    <g>
        <path fill="#4a4a4a" d="m164.6,499.37h20.03v79.83h-20.03v-8.44c-3.91,3.72-7.83,6.4-11.76,8.04-3.93,1.64-8.2,2.46-12.79,2.46-10.31,0-19.23-4-26.75-12s-11.29-17.94-11.29-29.83,3.64-22.43,10.92-30.3,16.12-11.81,26.53-11.81c4.79,0,9.28.91,13.48,2.71,4.2,1.81,8.09,4.52,11.65,8.14v-8.81Zm-21.06,16.44c-6.19,0-11.34,2.19-15.43,6.57s-6.14,9.99-6.14,16.84,2.08,12.57,6.25,17.02c4.17,4.45,9.3,6.68,15.39,6.68s11.51-2.19,15.65-6.57c4.14-4.38,6.22-10.11,6.22-17.21s-2.07-12.57-6.22-16.88c-4.14-4.3-9.38-6.46-15.72-6.46Z"/>
        <path fill="#4a4a4a" d="m212.69,466.49c3.51,0,6.52,1.27,9.04,3.82,2.51,2.54,3.77,5.63,3.77,9.25s-1.24,6.62-3.73,9.14c-2.49,2.52-5.46,3.78-8.93,3.78s-6.6-1.28-9.11-3.85-3.77-5.69-3.77-9.36,1.24-6.53,3.73-9.03,5.49-3.74,9-3.74Zm-10.02,32.87h20.03v79.83h-20.03v-79.83Z"/>
        <path fill="#4a4a4a" d="m236.21,499.37h17.17v10.05c1.86-3.96,4.33-6.97,7.41-9.03,3.08-2.05,6.46-3.08,10.13-3.08,2.59,0,5.31.69,8.15,2.05l-6.24,17.24c-2.35-1.17-4.28-1.76-5.8-1.76-3.08,0-5.69,1.91-7.81,5.72s-3.19,11.3-3.19,22.45l.07,3.89v32.29h-19.88v-79.83Z"/>
        <path fill="#4a4a4a" d="m347.89,499.37h20.03v79.83h-20.03v-8.44c-3.91,3.72-7.83,6.4-11.76,8.04-3.93,1.64-8.2,2.46-12.79,2.46-10.31,0-19.23-4-26.75-12-7.52-8-11.29-17.94-11.29-29.83s3.64-22.43,10.92-30.3,16.12-11.81,26.53-11.81c4.79,0,9.28.91,13.48,2.71s8.09,4.52,11.65,8.14v-8.81Zm-21.06,16.44c-6.19,0-11.34,2.19-15.43,6.57-4.1,4.38-6.14,9.99-6.14,16.84s2.08,12.57,6.25,17.02c4.17,4.45,9.3,6.68,15.39,6.68s11.51-2.19,15.65-6.57c4.14-4.38,6.22-10.11,6.22-17.21s-2.07-12.57-6.22-16.88c-4.14-4.3-9.38-6.46-15.72-6.46Z"/>
        <path fill="#4a4a4a" d="m385.97,468.55h20.03v110.65h-20.03v-110.65Z"/>
        <path fill="#4a4a4a" d="m461.69,497.31c7.53,0,14.61,1.88,21.24,5.65,6.63,3.77,11.8,8.88,15.52,15.34,3.72,6.46,5.58,13.43,5.58,20.91s-1.87,14.58-5.61,21.13c-3.74,6.56-8.84,11.68-15.3,15.37s-13.58,5.54-21.35,5.54c-11.45,0-21.22-4.07-29.31-12.22-8.1-8.15-12.14-18.04-12.14-29.68,0-12.47,4.57-22.87,13.72-31.18,8.02-7.24,17.24-10.86,27.66-10.86Zm.33,18.86c-6.22,0-11.41,2.16-15.55,6.49s-6.21,9.87-6.21,16.62,2.04,12.57,6.14,16.88c4.09,4.31,9.27,6.46,15.55,6.46s11.49-2.18,15.66-6.53c4.16-4.35,6.25-9.95,6.25-16.8s-2.05-12.41-6.14-16.69c-4.09-4.28-9.32-6.42-15.69-6.42Z"/>
    </g>
</svg>