<svg xmlns="http://www.w3.org/2000/svg" version="1.0" viewBox="0 0 1000 1000">
    <circle cx="500" cy="500" r="500" fill="red" />
    <path fill="#fff"
            d="M 521.327 60.613 c -1.4 0.4 -4.7 0.8 -7.3 0.9 c -10.4 0.2 -44 8.7 -56.2 14.1 c -1.1 0.5 -4.2 1.8 -7 2.9 c -7.3 2.8 -26.6 12 -29.6 14.2 c -1.4 0.9 -3.7 2.1 -5.2 2.4 c -1.5 0.4 -2.7 1.1 -2.7 1.5 c 0 0.4 -0.8 1 -1.7 1.4 c -1 0.3 -3.1 1.5 -4.8 2.6 c -1.6 1.1 -4 2.4 -5.3 3 c -1.3 0.5 -3.8 2.1 -5.6 3.5 c -1.8 1.4 -3.6 2.5 -3.9 2.5 c -2.3 0 -34.5 23.4 -43.6 31.6 c -7.4 6.7 -21.1 21.3 -21.1 22.5 c 0 0.3 -0.9 1.7 -2.1 3 c -3 3.4 -12 17.6 -14.6 22.9 c -1.1 2.5 -3.3 6.9 -4.7 9.9 c -4.9 10 -6.9 20.9 -6.4 33.6 c 0.6 12.5 3.4 19 11.9 27.6 c 8.9 8.9 18.4 12.8 33.4 13.6 c 10.3 0.5 17.7 -0.3 28 -3.2 c 3.3 -0.9 7.7 -2 9.8 -2.6 c 2.1 -0.5 4.5 -1.3 5.5 -1.9 c 2.3 -1.2 15.2 -7 15.8 -7 c 1.8 0 22.9 -12.9 42.4 -25.9 c 12.9 -8.6 24.2 -16.1 25.2 -16.6 c 0.9 -0.6 7 -4.2 13.5 -8.1 c 6.5 -3.8 14.5 -8.4 17.8 -10.1 c 3.3 -1.7 8 -4.2 10.5 -5.5 c 2.5 -1.2 7.2 -3.4 10.5 -4.6 c 3.3 -1.3 7.4 -3 9 -3.7 c 1.7 -0.7 4.1 -1.8 5.5 -2.4 c 3.9 -1.6 12.7 -3.2 21.3 -3.8 c 18.6 -1.2 31.6 7 38.3 24.2 c 1.6 4.1 1.9 7.5 1.9 19.5 c 0 14.6 -1.3 22.6 -5.2 32 c -0.8 1.9 -1.9 4.6 -2.5 6 c -5 12 -15.3 29.2 -27.1 44.8 c -11.2 15 -35.3 39.9 -51.2 53 c -5.5 4.6 -11.6 9.6 -13.5 11.2 c -4.2 3.5 -9.1 7 -14.5 10.6 c -2.2 1.4 -5.8 3.8 -8 5.4 c -6.2 4.2 -22.7 13 -32 17 c -2.7 1.2 -6.4 2.8 -8.2 3.6 c -1.7 0.8 -4 1.4 -5.1 1.4 c -1 0 -3.3 0.5 -5.1 1.1 c -6.5 2.3 -13.1 -2.1 -13.1 -8.8 c 0 -8.2 3.9 -13.4 28.5 -37.8 c 26.6 -26.4 29.5 -30.3 29.5 -40.3 c 0 -10.3 -4.9 -17.3 -15.9 -22.9 c -4.8 -2.5 -6.6 -2.8 -15 -2.8 c -9.8 0 -15.5 1.4 -22.6 5.7 c -1.6 1 -4.1 2.3 -5.5 3 c -1.4 0.7 -2.7 1.5 -3 1.8 c -0.3 0.3 -2.3 1.8 -4.5 3.5 c -5.3 4 -14.6 13.5 -19.9 20.4 c -3.7 4.8 -6.4 9.3 -12.7 21.1 c -5.2 9.8 -9.9 28 -9.9 38.6 c 0 21.5 11.2 38.7 28.5 43.6 c 5.2 1.5 26.4 1.5 33.7 0.1 c 7.2 -1.5 26 -7.3 27.2 -8.4 c 0.6 -0.5 1.6 -0.9 2.4 -0.9 c 2.6 0 32.3 -15.1 42.5 -21.7 c 2.3 -1.5 4.9 -3.2 5.9 -3.8 c 0.9 -0.5 5.6 -3.4 10.5 -6.4 c 4.8 -3 9 -5.8 9.3 -6.1 c 0.3 -0.4 3.7 -2.9 7.5 -5.5 c 3.9 -2.7 8.4 -5.8 10 -6.9 c 1.7 -1.2 6.4 -4.8 10.5 -8.1 c 26 -20.7 49 -42.8 62.4 -60 c 2.2 -2.7 4.2 -5.2 4.5 -5.5 c 0.8 -0.6 7.6 -10.4 12.3 -17.8 c 2.1 -3.1 5.3 -8.6 7.1 -12.2 c 1.9 -3.6 4.5 -8.5 5.8 -11 c 1.3 -2.5 4.1 -9 6.3 -14.5 c 2.1 -5.5 4.2 -10.9 4.6 -12 c 2.8 -7.1 7.1 -25.4 9 -38.5 c 2.1 -14.8 0.5 -39.1 -3.6 -52.5 c -1.7 -5.5 -2.1 -6.5 -5.8 -14.5 c -8 -17.2 -20.8 -32.8 -35.5 -43 c -2 -1.4 -4.5 -3.3 -5.6 -4.4 c -3.6 -3.2 -21.9 -11.4 -32.6 -14.5 c -5.7 -1.7 -14.2 -3.5 -18.9 -4.2 c -10.8 -1.4 -36.7 -2.1 -40 -0.9 z M 811.227 555.113 c -0.3 0.2 -4.9 1.1 -10.4 2 c -5.5 0.8 -14.5 2.3 -20 3.3 l -10 1.7 v 92 c 0 99.9 -0.2 95.7 5.7 108.2 c 2 4.3 4.8 8 9.1 11.9 c 10.6 9.7 20.5 12.7 41.6 12.8 c 18 0 17.3 0.7 16.9 -15.9 l -0.3 -12 l -7.7 -0.7 c -13.7 -1.2 -20.3 -6.7 -21.8 -18.1 c -0.4 -3.4 -0.7 -46.2 -0.6 -95 c 0.1 -84.5 -0.1 -92.6 -2.5 -90.2 z M 534.327 557.113 c -22.2 3.3 -29.6 4.7 -30.5 5.8 c -0.7 0.8 -0.8 32.7 -0.5 93.7 c 0.5 85.2 0.7 92.9 2.3 97 c 3.8 9.7 5.8 13.1 10.9 18.2 c 10.5 10.5 23.9 14.8 45.9 14.8 c 12.2 0 13.9 -0.2 14.7 -1.8 c 1 -1.9 1.5 -19.3 0.7 -23.3 c -0.6 -2.5 -1 -2.6 -8.5 -3.2 c -9.5 -0.6 -15.1 -3.8 -19 -10.7 l -2.5 -4.5 l -0.3 -51.8 c -0.2 -38.6 0 -52.2 0.9 -53.3 c 0.9 -1.1 4.3 -1.4 15 -1.4 c 16.5 0 15.1 1.6 14.7 -17.5 l -0.3 -13 l -14 -0.5 c -7.7 -0.3 -14.6 -0.9 -15.2 -1.3 c -1 -0.6 -1.3 -6.7 -1.3 -24.8 v -23.9 l -2.2 0.1 c -1.3 0.1 -6.1 0.7 -10.8 1.4 z M 187.827 602.213 c -7.5 0.7 -25.5 5 -31 7.4 c -1.1 0.5 -3.1 1.2 -4.5 1.6 c -4.4 1.2 -19 8.5 -19 9.5 c 0 0.5 0.9 2.8 1.9 5.2 c 6.6 14.5 9.1 19.7 9.6 19.7 c 0.3 0 1.3 -0.4 2.3 -0.9 c 5.1 -2.6 11.3 -5.1 16.2 -6.6 c 3 -0.9 6.6 -2.1 8 -2.6 c 5.6 -2 20.5 -3 27.4 -1.9 c 13.6 2.2 18.6 8.5 19.4 24.6 c 0.4 8.9 0.4 9.1 -1.9 9.7 c -1.3 0.4 -10.5 0.7 -20.4 0.7 c -23.8 0 -31.1 1.4 -46.5 8.9 c -13.2 6.4 -23 18.5 -27.7 34.1 c -2.4 8.3 -2.1 23.8 0.6 32 c 9 27.2 30.4 43.1 60.2 44.7 c 27.1 1.5 55 -6.6 72.9 -21 l 6.5 -5.3 l 0.3 -52.9 c 0.3 -61.3 0.2 -63.4 -7.2 -78.4 c -3.3 -6.8 -14.4 -17.6 -21.3 -20.6 c -3.2 -1.5 -6.7 -3 -7.8 -3.5 c -7.5 -3.3 -26.5 -5.5 -38 -4.4 z m 29.5 96.4 c 0.6 0.8 1 12.7 1 27.1 c 0 28.4 0.4 26.6 -7 30.5 c -2.8 1.5 -5.9 1.8 -15.6 1.9 h -12.1 l -5 -3.4 c -2.7 -1.8 -5.9 -4.8 -7 -6.5 c -7.4 -10.8 -6.9 -30.1 0.9 -39.6 c 2.3 -2.9 11.1 -9 12.7 -9 c 1 0 2.1 -0.4 2.7 -0.9 c 1.4 -1.5 6 -1.9 17.7 -1.7 c 8.4 0.1 11 0.4 11.7 1.6 z M 437.327 604.613 c -19.9 4.7 -35.8 13.2 -51.8 27.8 l -4.2 3.8 v 147.7 c 0 1.6 1.5 1.7 21.8 1.5 l 21.7 -0.3 l 0.3 -69.7 l 0.2 -69.6 l 3.8 -3 c 4.5 -3.6 6.7 -4.7 12.5 -6.7 c 6.9 -2.3 17.7 -3.4 25.8 -2.5 c 4 0.4 7.8 0.6 8.4 0.3 c 0.7 -0.2 2.5 -3.6 4.1 -7.6 c 1.5 -4 3.9 -9.2 5.1 -11.6 c 3.3 -6.3 3 -7.9 -1.4 -8.9 c -2.1 -0.5 -5.9 -1.4 -8.6 -2 c -7.1 -1.8 -28.8 -1.3 -37.7 0.8 z M 654.827 604.813 c -3.3 0.5 -6.4 1.4 -6.9 1.9 c -0.6 0.5 -1.6 0.9 -2.4 0.9 c -0.8 0 -4.4 1.4 -7.9 3.2 c -7.7 3.8 -19.5 14.7 -24.5 22.8 c -4.4 7.1 -9.5 17.7 -10.3 21.5 c -0.4 1.6 -1 3.9 -1.5 5 c -0.4 1.1 -1.6 5.4 -2.6 9.5 c -2.7 10.8 -2.7 45.4 -0.1 55.5 c 2.4 9.3 7.8 23.5 8.8 23.5 c 0.5 0 0.9 0.5 0.9 1.1 c 0 3.8 11.9 18.9 20.3 25.7 c 3.7 3 12 7.3 18.2 9.4 c 6.7 2.3 21.5 4.8 28.1 4.8 c 14.2 0 39.8 -6.1 48.3 -11.5 c 2 -1.2 4.7 -2.6 6.1 -3 c 3 -0.9 9.6 -5 10.4 -6.4 c 0.9 -1.4 -10.3 -24.1 -11.8 -24.1 c -0.7 0 -2.5 0.9 -3.9 2 s -3.1 2 -3.9 2 c -0.7 0 -2.2 0.6 -3.3 1.4 c -1.1 0.7 -6.3 2.8 -11.5 4.6 c -8.9 3.1 -10.4 3.3 -23.5 3.4 c -12.4 0 -14.5 -0.2 -18.5 -2.1 c -14 -6.7 -22 -23.6 -22 -46.4 c 0 -4.9 0.1 -9 0.3 -9.1 c 0.1 -0.2 22.3 -0.5 49.2 -0.8 l 49 -0.5 l -0.3 -10 c -0.6 -19.6 -5.8 -46 -10.3 -52 c -0.4 -0.6 -1.8 -3.1 -3.1 -5.6 c -5.4 -10.7 -16.8 -19.9 -30.3 -24.4 c -9.9 -3.4 -28 -4.4 -41 -2.3 z m 21.5 31.8 c 4.2 1.1 13 8.2 13 10.4 c 0 0.6 0.7 2.4 1.5 3.9 c 2.3 4.5 4.1 19.3 2.5 21.2 c -1 1.3 -4.9 1.5 -25.1 1.5 h -23.9 l -0.6 -2.5 c -1.3 -5.1 2.2 -18.8 6.2 -24.1 c 4.4 -5.9 8.3 -8.9 14.1 -10.6 c 3.2 -0.9 6.3 -1.5 7 -1.3 c 0.6 0.2 3 0.9 5.3 1.5 z M 310.327 534.413 c -7.6 3.9 -9.9 5.8 -13.2 10.7 c -3.2 4.9 -3.3 5.3 -3.3 15.5 v 10.6 l 3.8 5.2 c 4.5 6.1 7.5 8.3 14.1 10.6 c 8.9 2.9 16.6 1.8 25.5 -3.8 c 10.7 -6.8 14.4 -24.2 7.9 -37 c -2.3 -4.5 -4.3 -6.6 -10.3 -10.4 c -5.4 -3.5 -19.1 -4.3 -24.5 -1.4 z M 334.827 606.613 c -1.6 0.5 -6.1 1.4 -10 1.9 c -3.8 0.5 -10.8 1.5 -15.5 2.2 c -4.7 0.6 -8.8 1.5 -9.3 1.8 c -0.9 0.8 -1 170.7 -0.2 172.2 c 0.4 0.5 9.3 0.9 21 0.9 c 20.4 0 20.5 0 21 -2.3 c 0.3 -1.2 0.4 -41.6 0.3 -89.7 c -0.3 -86.7 -0.3 -87.5 -2.3 -87.7 c -1.1 -0.1 -3.3 0.2 -5 0.7 z" />
</svg>