<svg xmlns="http://www.w3.org/2000/svg" xmlns:xlink="http://www.w3.org/1999/xlink" viewBox="0 0 700 700">
    <circle cx="350" cy="350" r="350" fill="#fff"/>
    <path d="M 508.7 498.66 h -60.47 l 55.42 -110.86 z m 5.04 50.4 l 5.04 45.35 h 70.55 l -25.2 -257 H 458.3 l -131.02 257 h 70.55 l 20.16 -45.35 z" fill="#f7971d"/>
    <path d="M 357.52 654.88 C 226.49 614.57 130.75 493.62 130.75 352.52 c 0 -146.14 95.75 -267 231.8 -307.4 C 377.67 40.08 372.63 30 357.52 30 C 176.1 35.04 35 176.14 35 352.52 S 176.1 670 357.52 670 c 15.12 0 15.12 -10.08 0 -15.12 z m -166.3 -231.8 v -25.2 c 0 -141 110.87 -251.97 251.97 -251.97 c 131.02 0 171.34 60.47 176.38 55.43 S 574.21 80.4 417.99 80.4 c -141 0 -251.97 110.87 -251.97 251.97 c 0 30.24 5.04 60.47 15.12 90.7 c 5.04 15.12 10.08 15.12 10.08 0 z m 105.83 -181.43 c 65.5 -30.24 146.14 -30.24 226.77 0 c 55.43 20.16 85.67 45.35 90.7 45.35 s -30.24 -60.47 -95.75 -85.67 c -80.62 -30.33 -161.25 -15 -226.77 35.27 c -5.04 5.04 0 10.08 5.04 5.04 z" fill="#0095d6"/>
</svg>