<svg xmlns="http://www.w3.org/2000/svg" width="64" height="64">
  <path fill="#e62e04" d="M5 0a5 5 0 0 0-5 5v54a5 5 0 0 0 5 5h54a5 5 0 0 0 5-5V5a5 5 0 0 0-5-5z"/>
  <path fill="#b32100" d="M17.6 21.452c.245 1 .107 2.08.348 3.097.84-.615 1.4-1.63 1.285-2.687-.017-1.892-2.145-3.375-3.926-2.738-1.12.32-1.948 1.325-2.136 2.46-.224 1.3.557 2.63 1.718 3.224-.115-1.12-.384-2.3-.083-3.396.46-1.194 2.37-1.17 2.795.04zm33.138 1.356c.408-1.468-.48-3.17-1.936-3.64-1.4-.55-3.133.15-3.75 1.514-.688 1.263-.272 3.06.986 3.8.248-1.014.065-2.1.36-3.085.47-1.177 2.355-1.143 2.784.05.273 1.066.026 2.186-.077 3.262.854-.264 1.387-1.08 1.632-1.898z"/>
  <path fill="#fff" d="M46.4 21.396c-.296.995-.113 2.072-.36 3.085-.732 4.4-3.678 8.332-7.667 10.303a14.2 14.2 0 0 1-12.798-.016c-3.952-1.966-6.875-5.865-7.626-10.218-.24-1.018-.104-2.087-.348-3.097-.424-1.2-2.334-1.235-2.794-.04-.3 1.106-.03 2.277.083 3.396.84 5.44 4.48 10.325 9.412 12.75a17.34 17.34 0 0 0 14.635.346c5.333-2.303 9.32-7.446 10.173-13.2.103-1.076.35-2.197.076-3.262-.43-1.193-2.314-1.226-2.785-.05z"/>
  <path fill="#f90" d="M5 0a5 5 0 0 0-5 5v9.5a5 5 0 0 1 5-5h54a5 5 0 0 1 5 5V5a5 5 0 0 0-5-5z"/>
  <path fill="#fff" d="M20.332 45.192a.044.044 0 0 0-.044.042c0 .792-.64 1.434-1.426 1.434a.042.042 0 0 0-.042.044c0 .024.02.042.042.042.788 0 1.426.644 1.426 1.436 0 .024.02.042.044.042.022 0 .042-.02.042-.042a1.434 1.434 0 0 1 1.426-1.43.043.043 0 0 0 0-.086 1.432 1.432 0 0 1-1.426-1.436v-.004a.042.042 0 0 0-.012-.03.044.044 0 0 0-.03-.012zm-7.386 1.052L10 53.924h.96l.71-1.844h3.564l.708 1.844h.962l-2.944-7.68zm4.528.004v7.676h.982v-7.676zm4.75 0v7.676h4.826V52.92h-3.824v-2.38h3.154v-.954h-3.154v-2.332h3.546V46.25zm-8.772 1.184l1.396 3.64h-2.792zm29.378.804a2.932 2.932 0 0 0-1.932.732V48.4h-.982v5.526h.98c.004-.954 0-1.91.004-2.866a1.938 1.938 0 0 1 1.93-1.836zm8.36.014c-.106 0-.21.006-.316.02-.63.062-1.212.35-1.506.754a1.378 1.378 0 0 0-.28.93c.014.4.132.714.466.992.368.294.84.4 1.314.518.622.134.852.19 1.092.372.16.14.266.254.272.54 0 .5-.442.744-.84.82a1.78 1.78 0 0 1-1.788-.688l-.742.576a2.88 2.88 0 0 0 2.18 1c1.08-.02 1.782-.434 2.058-1.068.132-.306.126-.618.126-.76a1.354 1.354 0 0 0-.534-1.09c-.456-.354-1.166-.456-1.272-.484-.874-.156-1.316-.392-1.394-.682-.086-.384.204-.7.594-.822a1.52 1.52 0 0 1 1.714.554l.734-.494a2.332 2.332 0 0 0-1.878-.988zm4.774 0c-.104 0-.21.006-.314.02-.632.062-1.214.35-1.506.754a1.378 1.378 0 0 0-.28.93c.012.4.13.714.466.992.366.294.84.4 1.314.518.62.134.852.19 1.09.372.162.14.268.254.272.54.002.5-.442.744-.84.82a1.78 1.78 0 0 1-1.788-.688l-.742.576a2.88 2.88 0 0 0 2.18 1c1.082-.02 1.782-.434 2.06-1.068.13-.306.124-.618.124-.76a1.354 1.354 0 0 0-.534-1.09c-.454-.354-1.166-.456-1.272-.484-.874-.156-1.316-.392-1.392-.682-.086-.384.202-.7.594-.822a1.52 1.52 0 0 1 1.714.554l.734-.494a2.334 2.334 0 0 0-1.88-.988zm-19.68.004a2.922 2.922 0 0 0-2.84 2.234 2.61 2.61 0 0 0-.082.654v5.666h.982v-3.626c.34.36.974.84 1.92.908a2.894 2.894 0 0 0 2.416-1.254 2.914 2.914 0 0 0-2.398-4.584zm9.608 0a2.896 2.896 0 0 0-2.576 4.16 2.947 2.947 0 0 0 2.824 1.666 2.904 2.904 0 0 0 2.024-1.02l-.726-.582a1.936 1.936 0 0 1-2.212.546 2.02 2.02 0 0 1-1.204-1.38H48.5l.004-.854a2.59 2.59 0 0 0-2.612-2.536zm-18.4.16l2.124 2.754-2.124 2.756h1.162l1.558-2.02 1.556 2.02h1.162l-2.124-2.756 2.124-2.756h-1.162l-1.556 2.02-1.558-2.02zm-7.65.03v5.48h.98v-5.48zm16.466.74a1.92 1.92 0 0 1 1.9 1.986 1.926 1.926 0 0 1-1.726 1.996 1.924 1.924 0 0 1-2.068-1.478c-.148-.764 0-1.492.614-2.038a1.918 1.918 0 0 1 1.28-.466zm9.58.03a1.646 1.646 0 0 1 1.638 1.51h-3.52a1.928 1.928 0 0 1 1.88-1.51z"/>
</svg>
