<svg xmlns="http://www.w3.org/2000/svg" viewBox="0 0 250 250">
  <defs>
    <linearGradient id="e2fc0b4d-87ca-48d7-b9e0-58a20c9841e8" x1="360.755" x2="561.614" y1="27.601" y2="149.327" gradientUnits="userSpaceOnUse">
      <stop offset="0" stop-color="#0ead5d"/>
      <stop offset="1" stop-color="#91c443"/>
    </linearGradient>
  </defs>
  <rect width="142" height="158" x="60" y="25" fill="#fff" rx="10"/>
  <path fill="url(#e2fc0b4d-87ca-48d7-b9e0-58a20c9841e8)" d="M461.698.024q30.813 0 61.626-.006a31.032 31.032 0 0 1 18.353 5.589c8.734 6.158 13.477 14.592 13.876 25.34.11 2.99.065 5.986.064 8.98q-.003 20.13-.026 40.262c-.004 3.303-.004 6.608-.107 9.909a133.374 133.374 0 0 1-10.47 48.411 135.793 135.793 0 0 1-23.859 37.42 168.914 168.914 0 0 1-54.321 40.31c-1.117.532-2.291.945-3.4 1.493a3.781 3.781 0 0 1-3.55-.032c-2.972-1.435-6.02-2.717-8.952-4.228a168.946 168.946 0 0 1-43.31-31.657c-16.833-17.092-28.899-37.002-35.166-60.276a139.425 139.425 0 0 1-4.182-24.05c-.456-5.153-.522-10.304-.522-15.464 0-16.622-.026-33.243.007-49.864a31.166 31.166 0 0 1 9.882-23.263A30.964 30.964 0 0 1 399.763.013q28.645-.038 57.29-.004h4.645zm-36.55 93.362c-4.948.016-9.902-.019-14.708 1.487-6.738 2.11-12.263 5.836-15.952 11.981a21.41 21.41 0 0 0 3.395 26.695 20.525 20.525 0 0 0 13.538 6.033c1.343.08 1.413.2 1.55 1.413.033.307.029.619.06.927a21.557 21.557 0 0 0 31.996 16.63c6.42-3.452 10.346-9.024 12.558-15.851a44.316 44.316 0 0 0 1.712-15.609 233.856 233.856 0 0 0-2.975-27.978c-.376-2.311-.475-2.414-2.874-2.853q-.152-.028-.306-.05c-9.288-1.36-18.579-2.693-27.994-2.825zm33.983-36.974a62.328 62.328 0 0 0-.346-11.786 29.548 29.548 0 0 0-5.814-14.485c-4.14-5.415-9.523-8.875-16.371-9.537a21.47 21.47 0 0 0-23.363 17.654c-.23 1.194.268 2.675-.672 3.534-.917.837-2.372.36-3.577.594A21.669 21.669 0 0 0 395.325 76.2 27.532 27.532 0 0 0 406.7 85.48c5.493 2.536 11.356 2.997 17.253 2.91a201.568 201.568 0 0 0 29.234-2.911c2.705-.438 2.733-.47 3.164-3.266 1.397-9.083 2.628-18.183 2.78-25.8zm41.108 32.048a50.925 50.925 0 0 0 11.085-1.097c6.169-1.524 11.552-4.456 15.569-9.483 5.383-6.737 6.911-14.3 3.62-22.342-3.28-8.015-9.507-12.474-18.182-13.385-.307-.033-.62-.03-.92-.092a1 1 0 0 1-.843-.789 14.644 14.644 0 0 1-.202-1.528 21.45 21.45 0 0 0-29.49-17.667c-6.9 2.8-11.373 7.982-14.158 14.756a35.282 35.282 0 0 0-2.442 12.68c-.25 9.836.876 19.559 2.283 29.261.252 1.734.587 3.455.865 5.185a1.343 1.343 0 0 0 1.203 1.204c.303.058.597.174.902.216 5.105.698 10.21 1.405 15.319 2.077 4.4.578 8.834.726 15.39 1.004zm-35.887 39.095c0 2.373-.066 4.749.015 7.12a29.707 29.707 0 0 0 2.63 11.08c2.687 6.062 6.816 10.8 12.937 13.596a21.627 21.627 0 0 0 25.985-6.183 21.003 21.003 0 0 0 4.56-11.635c.13-1.724.202-1.736 1.79-1.903.41-.044.828-.034 1.235-.095a20.82 20.82 0 0 0 15.503-10.172 21.934 21.934 0 0 0-3.017-26.622c-5.258-5.6-11.88-8.436-19.445-9.147a82.941 82.941 0 0 0-10.831-.158c-5.682.21-11.321.853-16.956 1.541-3.173.388-6.321.976-9.486 1.438a1.992 1.992 0 0 0-1.987 1.912c-.178 1.535-.533 3.048-.748 4.58-1.146 8.18-2.239 16.366-2.185 24.648z" transform="translate(-330 20)"/>
</svg>
