<svg xmlns="http://www.w3.org/2000/svg" viewBox="0 0 415 415">
  <linearGradient id="gradient" x1="207.45" x2="207.45" y1="411" y2="8.13" gradientTransform="matrix(1 0 0 -1 0 440)" gradientUnits="userSpaceOnUse">
    <stop offset="0" stop-color="#6aadff"/>
    <stop offset="1" stop-color="#0183ff"/>
  </linearGradient>
  <path fill="url(#gradient)" d="M81 23h252.9c44.7 0 81 36.3 81 81v252.9c0 44.7-36.3 81-81 81H81c-44.7 0-81-36.3-81-81V104c0-44.7 36.3-81 81-81z" transform="translate(0 -23)"/>
  <path d="M220.6 218.6l20.5 20.5c.6.6.6 1.6 0 2.3L129.5 352.9c-.6.6-1.6.6-2.3 0l-20.5-20.5c-.1-.1-.2-.2-.2-.3l-49.3-49.3c-.6-.6-.6-1.6 0-2.3l20.7-20.7c.6-.6 1.6-.6 2.3 0l48.5 48.5 89.7-89.7c.5-.7 1.6-.7 2.2 0z"/>
  <path fill="#fff" d="M220.6 218.6l20.5 20.5c.6.6.6 1.6 0 2.3L129.5 352.9c-.6.6-1.6.6-2.3 0l-20.5-20.5c-.1-.1-.2-.2-.2-.3l-49.3-49.3c-.6-.6-.6-1.6 0-2.3l20.7-20.7c.6-.6 1.6-.6 2.3 0l48.5 48.5 89.7-89.7c.5-.7 1.6-.7 2.2 0z"/>
</svg>
