<svg xmlns="http://www.w3.org/2000/svg" viewBox="0 0 107.5 107.5">
    <path fill="#212121" d="M89,107.5H18.5C8.3,107.5,0,99.2,0,89V18.5C0,8.3,8.3,0,18.5,0H89c10.2,0,18.5,8.3,18.5,18.5V89 C107.5,99.2,99.2,107.5,89,107.5z" />
    <path fill="#fff" d="M67.7,80.4c-1.4-3.2-2.8-6.3-4.2-9.4c6.9-6.8,8.8-14.5,4.4-23.4c-1.7-3.5-4.5-6-8-7.8 c-3.5-1.7-7.2-2.4-11.2-1.8c-1.4-3.2-2.8-6.3-4.2-9.5c8.9-2.8,24.6-0.1,32.4,14.3C84.4,56.5,79.4,72.8,67.7,80.4z" />
    <path fill="#fff" d="M54.1,75c-7.4,1.3-16.4-2.6-20.1-11.4c-3.4-8.3-0.1-17.1,5.4-21.4C44.4,53.1,49.3,64,54.1,75z" />
</svg>