<svg viewBox="0 0 10000 10000" xmlns="http://www.w3.org/2000/svg">
    <circle cx="5000" cy="5000" r="5000" fill="#000" />
    <path d="m 5601.05 3141.04 c -13.53 3.96 -17.03 10.03 -30.44 21.5 c -10.8 9.23 -19.91 15.78 -30.39 24.8 c -23.98 20.65 -38.04 33.42 -59.13 51.15 c -104.65 88.04 -246.64 225.21 -349.23 321.27 c -159.15 149.02 -302.58 292.53 -455.26 440.74 c -287.94 279.51 -614.24 615.13 -902.44 884.6 c -238.17 222.69 -442.45 422.69 -691.34 645.32 c -95.12 85.08 -155.04 162.58 -284.55 167.06 c -213.73 7.38 -495.66 -174.55 -639.84 -257.27 c -125.99 -72.28 -460.62 -269.07 -621.94 -274.53 l 118.19 162.36 c 84.51 128.95 226.6 409.82 294.84 546.49 c 234.45 469.54 550.96 961.22 953.8 1288.28 c 103 83.62 196.33 153.92 327.16 233.08 c 57.39 34.72 115.94 63.6 180.12 99.93 c 22.25 12.59 176.55 84.65 195.57 84.61 c -42.26 -42.35 -85.73 -94.09 -120.07 -134.47 c -153.36 -180.35 -494.52 -531.02 -596.99 -710 c -86.04 -150.27 -105.81 -242.3 -10.2 -393.13 c 109.3 -172.42 364.18 -385.78 524.07 -522.54 c 389.11 -332.8 740.02 -634.22 1147.14 -950.19 c 192.9 -149.71 393.46 -302.43 600.91 -450.46 c 203.51 -145.21 408.06 -285.1 620.51 -425.53 l 320.79 -204.14 c 29.76 -17.07 321.94 -191.02 326.61 -196.85 l 285.9 -157.72 c 96.02 -54.24 189.26 -99.52 290.94 -154.28 c 298.37 -160.67 890.92 -422.55 1230.48 -542.34 c 111.46 -39.32 217.67 -76.46 330.41 -114.98 l 337.89 -105.84 c -27.34 -14.06 -400.68 -17.93 -469.46 -17.94 c -276.82 -0.04 -446.66 7.68 -710.93 28.56 c -202.26 15.98 -578.64 57.5 -762.57 101.97 c -33.11 8 -72.31 11.42 -105.65 20.2 c -63.77 16.8 -136.77 28.36 -202.08 44.62 c -134.67 33.53 -256.94 71.52 -383.51 109.26 c -130.28 38.84 -248.11 84.88 -364.66 132.83 c -68.86 28.33 -276.96 167.45 -294.64 203.59 z m -3577.55 3203.16 c -9.6 -20.39 -176.45 -197.43 -209.6 -234.44 c -210.42 -234.95 -414.41 -453.8 -625.9 -700.64 c -147.34 -171.96 -278.59 -330.41 -403.81 -482.34 c -52.4 -63.57 -339.95 -424.53 -383.88 -498.13 c -5.61 14.15 66.78 310.04 77.47 348.92 c 16.39 59.64 29.07 113.99 45.79 174.85 c 163.4 594.9 326.69 820.03 889.36 1107.54 c 69.31 35.41 573.16 279.12 610.57 284.24 z" fill="#fff"/>
    <path d="m 8304.92 3809.71 l 245.7 -125.47 c 85.23 -40.58 173.38 -87.23 253.65 -126.46 c 162.87 -79.59 256.68 -337.47 254.31 -502.79 c -28.76 1.21 -145.77 56.67 -177.53 68.3 c -21.84 7.99 -42 14.87 -62.46 23.57 c -145.1 61.65 -338.81 134.55 -476.35 199.46 c -39.94 18.85 -78.54 34.44 -118.96 51.78 c -31.73 13.61 -101.69 41.06 -114.73 57.25 c -43.66 -2.22 -932.65 438.32 -1043.46 495.62 c -157.77 81.58 -356.17 179.36 -507.81 263.73 c -17.96 9.99 -480.25 254.66 -498.67 278.22 c -30.44 5.08 -347.32 193.25 -397.89 221.79 c -627.03 353.81 -1321.46 798.9 -1922.06 1206.24 c -166.91 113.21 -380.1 261.73 -547.86 388.13 l -134.66 100.52 c -15.48 11.8 -33.74 19.62 -42.66 37.33 c 59.88 51.54 456.55 214.98 551.18 249.09 c 531.13 191.42 1028.25 324.79 1587.07 420.7 l 354.64 54.24 l 279.34 24.64 l -227.51 -20.07 c 43.42 4.94 86.52 12 128.76 16.04 c 62.48 5.97 124.46 11.06 188.81 17.51 c 121.2 12.16 261.93 20.44 386.52 22.64 c 154.89 2.72 240.23 10.63 367.22 -43 c 98.44 -41.57 178.56 -93.28 256.81 -153.25 c 291.46 -223.35 550.76 -572.68 757.62 -888.83 c 216.49 -330.86 411.48 -700.53 579.56 -1066.77 c 85.61 -186.53 165.92 -381.15 241.55 -579.41 c 38.33 -100.49 71.57 -197.54 106.19 -304.17 c 19.17 -59.03 88.92 -274.54 94.23 -322.69 c -79.51 10.86 -1469.62 760.88 -1601.89 831.89 c -179.39 96.31 -351.17 196.63 -525.22 291.16 c -169.14 91.87 -348.06 200.44 -516.36 293.98 c -341.95 190.05 -686.31 401.75 -1027.78 599.46 c -58.55 33.9 -493.37 288.09 -508.99 305.96 c 29.23 -4.69 1407.81 -596.72 1441.19 -610.51 c 65.01 -26.88 1418.57 -607.72 1440.77 -608.69 c -7.78 31.3 -91.56 187.71 -112.71 233.68 c -35.24 76.6 -77.73 163.78 -116.24 239.96 c -218.27 431.79 -455.16 950.26 -931.72 1141.65 l -28.63 17.19 c -25.54 0.58 -95.31 28.94 -126.08 37.39 c -46.32 12.72 -91.09 21.55 -137.78 31.11 c -219.65 44.98 -551.71 21.53 -780.61 -14.28 c -261.02 -40.84 -443.79 -86.66 -696.8 -147.82 c -60.4 -14.6 -496.94 -137.23 -522.16 -153.89 c 14.22 -24.79 263.88 -184.77 285.73 -199.95 c 483.07 -335.77 1285.47 -829.17 1807.31 -1126.07 c 55.23 -31.43 106.56 -59.98 157.06 -88.92 c 41.98 -24.06 118.82 -64.17 152.73 -88.81 l 244.16 -133.92 c 82.56 -45.8 158.37 -85.48 245.33 -135.11 c 164.4 -93.81 330.97 -172.45 492.78 -263.6 c 23.79 -13.4 947.81 -498.95 1005.34 -515.74 z" fill="#e50007"/>
</svg>