<svg xmlns="http://www.w3.org/2000/svg" viewBox="0 0 800 800">
  <circle cx="400" cy="400" r="400" fill="#fff"/>
  <path fill="#eb5424" d="M531.444 604.487l-50.192-154.495 131.389-95.457H450.229l-50.197-154.492-.016-.042h162.437l50.209 154.516.003-.003.042-.023c29.158 89.639-.874 191.595-81.264 249.994v.002zm-262.838 0l-.04.03L399.99 700l131.454-95.509-131.412-95.485-131.424 95.481h-.002zm-81.227-249.992c-30.695 94.492 4.935 194.617 81.203 250.011l.012-.049 50.2-154.486-131.361-95.439h162.374l50.199-154.49.01-.042H237.571l-50.193 154.495h.001z"/>
</svg>
