<svg xmlns="http://www.w3.org/2000/svg" viewBox="0 0 1024 1024">
   <circle cx="512" cy="512" r="512" fill="#148eff"/>
   <path d="M 705.2125 411.1625 c -80.975 -37.5 -197.5 -61.25 -307.05 -52.3875 c 5.4375 -36.25 19.1 -61.5625 41.25 -66.9 c 30.625 -7.3625 64.0125 12.8 95.8125 49.4 c 20.8 2.6625 45.5625 7.5 62.8375 11.4125 C 540 243.55 462.175 182.4125 402.9625 205 c -45 17.175 -68.0625 79.1625 -65.3 162.5 c -58.675 12.5 -104.45 34.675 -133.75 66.575 c -1.4875 1.7125 -4.8 6.0875 -3.625 8.1125 c 0.9625 1.6 3.8375 -0.2125 5.225 -1.0625 c 33.925 -23.75 77.5 -36.6 134.1125 -44.7 c 8.1125 88.875 45.6625 201.6375 108.1875 292.1125 c -34.1375 13.4375 -62.8375 14.3 -78.525 -2.35 c -21.6625 -22.8375 -20.9125 -61.875 -5.125 -107.7625 c -8.1125 -19.4125 -16.325 -43.2125 -21.45 -60.0625 c -65.725 104.875 -79.8 202.925 -30.625 242.9375 c 37.5 30.4125 102.6375 19.4125 173.375 -24.65 c 40.1125 44.6 82.2625 73.0875 124.5125 82.5 c 2.2375 0.425 7.6875 1.175 8.85 -0.85 c 0.9625 -1.6 -2.1375 -3.3125 -3.525 -3.95 c -37.5 -17.5 -70.4125 -48.75 -105.725 -93.75 C 582.5 669.1375 661.3625 580.1625 708.4125 480.825 c 28.75 22.9375 43.75 47.2625 37.2375 69.2375 c -8.9625 30.1875 -43.1 49.075 -90.7875 58.25 c -12.8 16.75 -29.2375 35.7375 -41.25 48.65 c 123.55 4.2625 215.5125 -32.5 225.5375 -95 c 7.6875 -47.5875 -34.5625 -98.5875 -108.075 -137.8375 c 18.5625 -57.075 22.1875 -107.7625 9.175 -149.05 c -0.75 -2.1375 -2.775 -7.25 -5.225 -7.25 c -1.8125 0 -1.8125 3.525 -1.7125 5 c 3.8375 41.1875 -6.725 85.35 -28.0625 138.375 Z M 477.6375 674.3625 c -52.275 -83.8625 -82.3625 -182.65 -82.2625 -282.5 c 98.75 -3.3125 199.4 20 285.825 70.1 c -46.5125 87.15 -116.925 162.6875 -203.5625 212.4 Z" fill="#fff"/>
</svg>
