<svg xmlns="http://www.w3.org/2000/svg" viewBox="0 0 100 100">
  <path fill="#f0b90b" d="M50 0A50 50 0 1 1 0 50 50 50 0 0 1 50 0z"/>
  <path fill="#fff" d="M37.063 44.63l7.57-7.547 1.596-1.595 3.783-3.784L62.896 44.63l7.5-7.546-20.383-20.416-20.45 20.416z"/>
  <path fill="#fff" d="M42.492 49.988l7.53-7.53 7.531 7.53-7.53 7.53z"/>
  <path fill="#fff" d="M62.896 55.387L50.008 68.275l-4.525-4.525-.833-.833-7.588-7.53-7.5 7.5 20.45 20.417 20.384-20.417zM16.666 50.008l7.53-7.53 7.532 7.53-7.531 7.531zM68.275 50.004l7.53-7.53 7.531 7.53-7.53 7.53z"/>
</svg>
