<svg xmlns="http://www.w3.org/2000/svg" viewBox="0 0 900 900">
  <rect width="900" height="900" fill="#2C29B9" rx="50"/>
  <circle cx="450" cy="450" r="420" fill="none" stroke="#fff" stroke-width="50"/>
  <path fill="#fff" d="M266.31 226.3c77.22-.12 154.44-.01 231.66-.06 17.72-.01 35.58 2.82 51.96 9.76 31.75 12.95 57.56 39.53 69.52 71.67 13.5 34.92 10.29 75.77-8.66 108.08 6.08 5.46 11.83 11.34 17.25 17.45a65 65 0 0 0 .22 1.37c20.2 26.09 30.48 59.71 27.9 92.62-2.22 39.3-23.08 76.86-54.74 100.13-21.97 16.38-49.02 25.95-76.42 26.66-86.25.05-172.5.01-258.75.02.04-142.57-.09-285.14.06-427.7m48.13 48.14v331.62c68.85-.02 137.71.06 206.57-.05 27.04-.15 53.65-13.4 69.84-35.1 11.01-14.37 17.28-32.24 17.84-50.32.87-23.71-8.39-47.84-25.27-64.64-12.34 11.8-26.12 22.12-41.15 30.23-31.52 17.33-68.65 25.22-104.33 19.5-15.94-2.84-31.71-8.19-45-17.64-11.2-8.01-20.72-18.91-25.43-32-5.85-16.08-4.22-34.57 3.83-49.62 6.94-13.24 18.92-23.29 32.28-29.68 16.59-7.93 35.08-10.85 53.29-11.67 39.15-1.18 78.3 7.76 113.73 24.28 5.24-10.51 8.68-21.98 9.05-33.77.42-2.03.41-4.14 0-6.17-.82-25.96-15.77-50.82-38.13-63.95-11.57-6.98-24.99-10.84-38.51-11.02H314.44m110.55 145.38c-5.53 2.54-11.33 6.59-12.5 12.98-1.86 5.86 2.17 11.61 6.66 15.01 10.82 8.41 24.87 11.18 38.26 11.88 2.7.46 5.47.47 8.17 0 27.82-1.2 54.55-12.88 75.85-30.53-26.6-11.3-55.66-16.51-84.5-16.16-10.88.78-21.82 2.59-31.94 6.82z"/>
</svg>
