<svg xmlns="http://www.w3.org/2000/svg" viewBox="0 0 90 90">
    <circle cx="45" cy="45" r="45" fill="#fff" />
    <path d="M 41.7675 62.9088 H 32.0952 V 51.3393 c 0 -2.466 0.9486 -3.7935 3.0726 -4.059 h 6.6384 a 7.209 7.209 90 0 1 7.776 7.7949 c 0 4.9311 -2.9781 7.8705 -7.776 7.8705 z m -9.6912 -31.275 V 28.599 c 0 -2.655 1.1376 -3.9447 3.6036 -4.0968 h 4.9689 c 4.248 0 6.8274 2.5416 6.8274 6.8274 c 0 3.2238 -1.7451 7.0173 -6.6384 7.0173 h -8.7246 z m 22.077 11.5695 l -1.7451 -0.9864 l 1.5174 -1.3275 c 1.7829 -1.5174 4.7412 -4.9689 4.7412 -10.9053 C 58.6668 20.8797 51.6117 15 40.7055 15 H 26.8608 C 23.6127 15.1116 21.0288 17.7621 21 21.012 V 72.6 h 19.9521 c 12.1383 0 19.9521 -6.6006 19.9521 -16.8417 c 0 -5.4999 -2.5227 -10.242 -6.7896 -12.6126" fill="#273b7d"/>
    <path d="M 64.0533 65.6772 c 0 -3.8502 3.0915 -6.9606 6.9228 -6.9606 a 6.966 6.966 90 0 1 6.9606 6.9606 c 0 3.8502 -3.1104 6.9606 -6.9606 6.9606 s -6.9228 -3.1104 -6.9228 -6.9606" fill="#499fdd"/>
</svg>