<svg xmlns="http://www.w3.org/2000/svg" viewBox="0 0 100 100">
    <g transform="translate(-12, -12), scale(1.25)">
        <circle cx="50" cy="50" r="36" fill="#0b996e" />
        <path d="m62.34246,45.71282c2.22727-2.23192,3.26883-4.81258,3.26883-7.94658,0-6.48189-4.65916-10.80625-11.68507-10.80625h-17.25559v46.08h13.91234c10.57841,0,18.5064-6.62138,18.5064-15.40495,0-4.81258-2.43186-9.13231-6.74691-11.92222Zm-19.4085-12.75916h10.29477c3.47811,0,5.77513,2.02267,5.77513,5.08691,0,3.48739-2.98988,6.13781-9.11372,8.15585-4.17556,1.3252-6.04946,2.44117-6.74694,3.76637l-.20925.00465v-17.01378Zm7.09568,34.09267h-7.09568v-7.10961c0-3.13865,2.64114-6.20754,6.32847-7.39327,3.27348-1.11595,5.98435-2.23192,8.28138-3.41297,3.05958,1.81342,4.93814,4.94745,4.93814,8.22559,0,5.57517-5.28688,9.69027-12.45231,9.69027Z" fill="#fff"/>
    </g>
</svg>