<svg viewBox="0 0 400 400" xmlns="http://www.w3.org/2000/svg">
    <rect width="400" height="400" fill="#2f2a27" />
    <path fill="#fefefd"
        d="M175.5 111.5c6.9-1.7 14-1 21-.8v12.1c-5.8.1-11.8-.8-17.1 1.6-3.9 1.8-4.3 6.5-5.4 10.2 6.9.2 13.8 0 20.7 0v12.7h-20.2V188h-13v-57a19.9 19.9 0 0 1 14-19.4ZM197.2 127.3c1-7.8 7.3-14.5 15-16 6.5-1.4 13.2-.8 19.8-.6v12.1c-5.8.1-12-.9-17.5 1.8-3.6 2-4 6.4-5 10l20.6.1v12.6h-20c-.3 13.5 0 27-.2 40.6h-13c-.2-16.3 0-32.6 0-48.9 0-3.9-.2-7.8.3-11.7ZM43.3 135.3a33.7 33.7 0 0 1 41-5.7c4.3 2.4 7.3 6.4 10.3 10.2l-10.3 6.8c-4.8-5-11-9.5-18.3-8.9-11.6.2-20.8 12.8-17.6 24A19.3 19.3 0 0 0 73 175c6.5-1.6 10.5-7.4 12.8-13.3l9.5 8.7c-4 7.6-10 14.8-18.6 17.1-11.2 2.8-24 .2-32.4-8a31.8 31.8 0 0 1-1-44.3Z" />
    <path fill="#fefefd"
        d="M120.4 125.6a34 34 0 0 1 37.5 21.5 30.5 30.5 0 0 1-6.8 31 34.8 34.8 0 0 1-40.4 7.1 32 32 0 0 1-17.3-21.5 31.6 31.6 0 0 1 4.9-24.4 34 34 0 0 1 22.1-13.7m0 12.8c-4.6 1.2-8.5 4-11.3 7.7-5.3 7-4.5 17.8 2 23.9 7.6 7.8 21.5 8 29.4.5 6.3-5.5 8-15.5 3.7-22.7-4.8-8-15-12-23.9-9.4ZM253.4 126.4a43.8 43.8 0 0 1 21 .1 26.5 26.5 0 0 1 17.8 13.2 44.8 44.8 0 0 1 3.6 22.2h-48.5v-11.2c11.4-.1 22.8 0 34.2-.2-1.5-3.8-3.2-7.9-7-10-5.1-3-11.5-3.4-17.3-2.2-8 2-14.8 9.3-14.9 17.8a19 19 0 0 0 16.8 19.8c6.5.5 13.1-.8 18.8-4 3.4-2 5.4-5.5 7.1-8.8l9.3 9a31.3 31.3 0 0 1-14.9 13.3A39.2 39.2 0 0 1 245 184a31.2 31.2 0 0 1-11.5-42.5c4.4-7.3 11.6-13 19.9-15ZM325.4 125.6c7-1 14.3-.3 21 2a25.6 25.6 0 0 1 15.3 14.7c2.6 6.2 2.5 13 2.4 19.6h-48.4v-11.3c11.4 0 22.8.2 34.2-.2-1.6-3.5-3.1-7.5-6.6-9.7-9.5-5.6-23.5-3.5-29.6 6-6.5 9.2-2.1 23.2 8 27.6A29 29 0 0 0 346 172c3.6-1.9 5.6-5.6 7.4-9l9.2 9.1c-8 14.4-26.7 19.4-41.8 15.2A32.5 32.5 0 0 1 300 169c-3-7.6-3.1-16.4 0-24a33.4 33.4 0 0 1 25.4-19.4ZM312.4 193.2c4.2 1.8 8.4 3.2 12.8 4.2l.1 12H345v12.3h-19.7c.2 8.1 0 16.2 0 24.4 0 3.7 1 8.2 4.7 10 5.2 2.7 11.2 1.6 16.8 1.7v12c-7-.1-14.4.9-21.3-1.3a19 19 0 0 1-12.8-17.6c-.2-19.3 0-38.5-.2-57.7ZM111.3 195c4.3 1.3 8.7 2.2 13.1 2.7v72.1h-13l-.1-74.7ZM52.3 209.3c8.8.2 17.6-.1 26.4.2 8.7.4 17 4.8 22.3 11.5 5 5.6 7 13.4 6.6 20.8A30.5 30.5 0 0 1 90 267c-7.8 3.8-16.7 2.7-25.2 2.8v18.8H52.3v-79.3m12.6 13v35.5c5-.1 9.8.3 14.7-.5 7.5-1.2 14-7.6 14.7-15.3 1-6.7-2.3-13.7-8.2-17.1-6.4-3.8-14.1-2.5-21.2-2.7ZM137.2 218.2a30.8 30.8 0 0 1 20.9-8.8c8.5-.2 17 .1 25.7 0v60.4c-7 .4-14-1.3-21 0a30.7 30.7 0 0 1-29.4-13.3 30.5 30.5 0 0 1 3.8-38.3m20.2 3.4a18.2 18.2 0 0 0-6.1 34.2c6.2 3.3 13.5 2 19.6-1 .4-11.1.2-22.3.2-33.5-4.6 0-9.2-.3-13.7.3ZM188 209.4h12.7l.6 3.7c4.8-2.7 10-5 15.7-4.5 13.3 0 25 12.1 25.2 25.3.2 12 0 24 0 36l-12.7-.1V239c0-4.6-.2-9.6-3.3-13.2-5.3-6.8-17.1-6.8-22 .3-2.7 3.3-3.2 7.7-3.2 11.8v31.9h-13v-60.4ZM249.2 224.1c5.9-9.8 17.3-15.8 28.8-15.5 9.4 0 19.9 2.7 25.9 10.5 5.7 7.1 6 16.6 5.8 25.2-3.3.1-6.6.1-9.8.8 2.2 3.6 5.3 6.3 8.3 9.1a29 29 0 0 1-14.7 13.3 38 38 0 0 1-34.7-2.3 31 31 0 0 1-12.6-16.3 31 31 0 0 1 3-24.8m12.6 3.7c-6.5 7.4-5.4 20 2.3 26 7.2 6.3 18 5 26.1 1.4 4.4-1.8 7.6-5.6 8.9-10.2-12.2-1.3-24.5-.3-36.7-.6v-11c11.2 0 22.3.2 33.5-.1-1.6-3.8-3.4-8-7.2-10-8.6-4.5-20.5-3.2-26.9 4.5Z" />
</svg>