<svg xmlns="http://www.w3.org/2000/svg" fill="none" viewBox="0 0 440 440">
  <rect width="440" height="440" fill="#690FAD" rx="35"/>
  <circle cx="219" cy="220" r="186" stroke="#fff" stroke-width="30"/>
  <path fill="#fff" d="M83.765 212.438c0-21.371.179-42.742-.179-64.113a13.199 13.199 0 0 1 1.576-7.591 13.252 13.252 0 0 1 5.568-5.408c37.504-21.372 74.652-42.92 112.155-64.292 8.215-4.63 9.466-3.918 9.466 5.7.179 15.494-.358 30.81.179 46.302.356 9.263-2.68 14.782-10.895 19.234-16.787 8.905-33.04 19.056-49.648 28.139a12.876 12.876 0 0 0-5.796 5.221 12.823 12.823 0 0 0-1.705 7.6c.179 20.125-.179 40.428.179 60.552a14.004 14.004 0 0 1-1.927 8.382 14.06 14.06 0 0 1-6.467 5.686c-14.109 7.48-28.04 15.672-41.969 23.687-10.18 5.877-10.716 5.52-10.716-6.59.179-21.015.179-41.673.179-62.51zm270.211-.189v65.002c0 9.083-1.072 9.617-9.11 5.165-14.465-8.192-28.752-16.74-43.397-24.755a14.737 14.737 0 0 1-6.815-6.06 14.678 14.678 0 0 1-1.936-8.9c.358-19.945 0-39.713.18-59.659a12.94 12.94 0 0 0-1.656-7.55 12.998 12.998 0 0 0-5.667-5.273c-17.145-9.438-33.933-19.59-51.078-29.028a16.327 16.327 0 0 1-7.36-6.683 16.254 16.254 0 0 1-2.105-9.702c.536-15.315.178-30.808.178-46.303 0-11.931.894-12.465 11.074-6.768 32.146 18.522 64.47 36.865 96.439 55.565 25.896 15.138 20.717 6.59 21.074 36.686.355 16.206.179 32.235.179 48.263zm-134.66 161.177a59.986 59.986 0 0 1-6.785-3.384c-37.861-21.548-75.724-43.453-113.764-65.003-6.25-3.561-7.322-5.876-.179-9.794 15.896-8.727 31.613-17.81 47.15-27.07 5-3.027 8.929-1.425 13.215 1.068 17.145 9.973 34.647 19.59 51.613 29.92 5.894 3.561 10.359 3.739 16.252.177 16.788-10.15 33.932-19.59 50.9-29.563 6.071-3.561 11.072-3.918 17.144-.177 13.93 8.548 28.216 16.562 42.326 24.754 9.466 5.52 9.466 6.233.356 11.398a273150.84 273150.84 0 0 1-98.94 56.81c-6.427 3.562-12.858 7.302-19.287 10.864z"/>
</svg>