<svg viewBox="0 0 120 120" xmlns="http://www.w3.org/2000/svg">
    <circle cx="60" cy="60" r="60" fill="#eee" />
<path transform="translate(18, 20)" d="M 48.916 35.276 l -6.39 -29.74 l -20.03 4.215 l 6.385 29.74 L 0 45.563 L 5.1 69.32 L 55.89 80 l 11.614 -25.813 L 73.03 2.12 L 52.66 0 l -3.744 35.276 z M 32.712 51.552 c -1.466 -0.482 -2.118 -2.237 -1.562 -4.36 c 0.414 -1.575 2.362 -1.81 3.337 -1.828 c 0.37 -0.006 0.735 0.068 1.07 0.218 c 0.69 0.31 1.857 0.968 2.094 1.973 c 0.343 1.45 0.013 2.667 -1.034 3.616 c -1.05 0.953 -2.434 0.866 -3.904 0.382 z m 13.882 1.788 c -1.324 -0.642 -1.314 -2.277 -1.17 -3.274 c 0.078 -0.543 0.298 -1.055 0.642 -1.487 c 0.473 -0.594 1.263 -1.367 2.175 -1.39 c 1.485 -0.04 2.762 0.62 3.483 1.812 c 0.724 1.188 0.362 2.498 -0.4 3.81 c -0.767 1.307 -2.764 1.48 -4.73 0.528 z" fill="#00CCBC" fill-rule="evenodd"/>
</svg>