<svg fill="none" height="58" width="145" xmlns="http://www.w3.org/2000/svg"><path d="m56.172 27.696h-3.994a14.852 14.852 0 0 0 -2.808-7.85 14.477 14.477 0 0 0 -6.561-5.025l1.315-1.334-1.21-1.23-1.315 1.333a14.668 14.668 0 0 0 -4.94-6.67 14.294 14.294 0 0 0 -7.716-2.855v-4.065h-1.71v4.065a14.305 14.305 0 0 0 -7.718 2.855 14.679 14.679 0 0 0 -4.942 6.67l-1.312-1.333-1.21 1.23 1.312 1.334a14.48 14.48 0 0 0 -6.558 5.027 14.856 14.856 0 0 0 -2.808 7.848h-3.997v1.74h3.997a14.845 14.845 0 0 0 2.807 7.848 14.47 14.47 0 0 0 6.559 5.024l-1.312 1.337 1.21 1.23 1.312-1.337a14.675 14.675 0 0 0 4.941 6.673 14.302 14.302 0 0 0 7.719 2.856v4.062h1.71v-4.062a14.295 14.295 0 0 0 7.717-2.856 14.667 14.667 0 0 0 4.939-6.673l1.315 1.338 1.21-1.231-1.315-1.337a14.47 14.47 0 0 0 6.56-5.024 14.845 14.845 0 0 0 2.809-7.848h3.994zm-6.138 0h-.615l-7.023-7.145a14.9 14.9 0 0 0 0-3.557 12.35 12.35 0 0 1 5.32 4.243 12.658 12.658 0 0 1 2.318 6.46zm-10.572-13.696a13.718 13.718 0 0 0 -3.497 0l-7.022-7.124v-.64c2.291.166 4.491.981 6.35 2.354a12.48 12.48 0 0 1 4.17 5.41zm-12.24-7.753v.63l-7.026 7.141a13.718 13.718 0 0 0 -3.497 0 12.491 12.491 0 0 1 4.172-5.423 12.183 12.183 0 0 1 6.362-2.359l-.011.01zm-13.468 10.747a14.427 14.427 0 0 0 .018 3.557l-7.019 7.145h-.619c.163-2.33.965-4.567 2.313-6.459a12.344 12.344 0 0 1 5.318-4.243h-.01zm-7.623 12.449h.622l7.022 7.142a15.368 15.368 0 0 0 -.119 1.85c.002.57.036 1.14.102 1.706a12.333 12.333 0 0 1 -5.312-4.246 12.642 12.642 0 0 1 -2.305-6.46zm10.568 13.697c1.162.143 2.337.137 3.497-.018l7.026 7.142v.63a12.19 12.19 0 0 1 -6.344-2.357 12.498 12.498 0 0 1 -4.169-5.404zm12.24 7.754v-.63l7.023-7.142c1.16.155 2.335.161 3.497.018a12.486 12.486 0 0 1 -4.172 5.398 12.18 12.18 0 0 1 -6.344 2.349zm9.394-13.128c-.377.436-.781.847-1.21 1.23l1.962 1.996c-.434.048-.87.073-1.305.074a12.05 12.05 0 0 1 -2.994-.377c-.93.533-1.918.953-2.944 1.249.678.314 1.38.573 2.098.775l-5.004 5.09v-5.364c-.284 0-.567.029-.857.029s-.57 0-.854-.029v5.357l-5.004-5.09c.719-.202 1.42-.46 2.098-.775a13.37 13.37 0 0 1 -2.944-1.249c-1.404.362-2.86.465-4.298.302l1.958-1.995a14.24 14.24 0 0 1 -1.21-1.23l-1.958 1.995c-.05-.44-.074-.883-.074-1.327 0-1.026.124-2.049.371-3.044a14.033 14.033 0 0 1 -1.231-2.995c-.307.69-.56 1.404-.759 2.134l-5.004-5.09h5.277a14.384 14.384 0 0 1 -.028-.871c0-.296 0-.58.028-.868h-5.267l5.005-5.097c.198.73.452 1.444.758 2.134a14.043 14.043 0 0 1 1.231-2.995 12.683 12.683 0 0 1 -.37-3.044c0-.444.024-.886.073-1.327l1.959 1.995c.378-.436.782-.848 1.21-1.234l-1.959-1.992c.433-.05.869-.075 1.305-.074 1.009 0 2.015.126 2.993.377a13.55 13.55 0 0 1 2.945-1.252 14.3 14.3 0 0 0 -2.098-.772l5.004-5.09v5.357c.283-.018.567-.029.853-.029.287 0 .574 0 .857.029v-5.343l5.001 5.08c-.718.201-1.42.46-2.098.771a13.55 13.55 0 0 1 2.944 1.252 12.05 12.05 0 0 1 2.994-.377c.436 0 .871.025 1.305.075l-1.962 1.992c.428.385.832.797 1.21 1.234l1.961-1.995c.16 1.463.06 2.944-.297 4.37.524.946.937 1.952 1.228 2.996.309-.69.564-1.404.762-2.134l5.006 5.09h-5.274c.017.287.028.575.028.867s0 .584-.028.872h5.267l-5.005 5.09a14.463 14.463 0 0 0 -.762-2.135 13.844 13.844 0 0 1 -1.228 2.995c.356 1.427.457 2.908.297 4.371l-1.961-1.984zm4.091 2.368c.065-.566.098-1.136.098-1.707a15.408 15.408 0 0 0 -.115-1.85l7.012-7.141h.619a12.649 12.649 0 0 1 -2.307 6.453 12.34 12.34 0 0 1 -5.307 4.245zm-22.074-9.3a17.236 17.236 0 0 1 4.239-6.506c.75.29 1.473.647 2.16 1.067a15.016 15.016 0 0 0 -4.867 8.056l-.259.036a8.333 8.333 0 0 1 -1.287-2.654h.014zm2.938-8.576c0-.089-.025-.178-.035-.267a7.992 7.992 0 0 1 2.598-1.312 16.888 16.888 0 0 1 6.418 4.332 13.782 13.782 0 0 1 -1.05 2.198 14.627 14.627 0 0 0 -7.945-4.95h.014zm12.569 4.023a17.21 17.21 0 0 1 -4.274 6.523 13.062 13.062 0 0 1 -2.161-1.067 14.98 14.98 0 0 0 4.868-8.074c.087 0 .175-.025.262-.032a8.161 8.161 0 0 1 1.29 2.65zm-2.945 8.596c0 .09.024.178.035.267a7.991 7.991 0 0 1 -2.599 1.316 16.937 16.937 0 0 1 -6.413-4.335c.284-.762.635-1.497 1.049-2.195a14.652 14.652 0 0 0 7.914 4.947zm-15.038-12.557a18.77 18.77 0 0 0 .832 3.958c-.175.75-.264 1.517-.265 2.287a10.061 10.061 0 0 0 2.3 6.381l.186.217.29-.021c.596-.05 1.189-.137 1.773-.264.385-.078.77-.174 1.172-.291.683.6 1.41 1.145 2.175 1.632a16.34 16.34 0 0 1 -6.379 1.242 12.182 12.182 0 0 1 -2.815-4.043 12.357 12.357 0 0 1 -1-4.85c.003-2.204.6-4.365 1.728-6.248zm20.43 12.502a18.767 18.767 0 0 0 -.828-3.963 9.983 9.983 0 0 0 -.001-4.581 9.883 9.883 0 0 0 -2.045-4.083l-.189-.224-.287.021c-.999.082-1.987.269-2.948.559a18.622 18.622 0 0 0 -2.175-1.633 16.76 16.76 0 0 1 6.295-1.241h.098a12.161 12.161 0 0 1 3.702 7.192 12.264 12.264 0 0 1 -1.604 7.953h-.017zm-10.217-18.393c2.17-.001 4.298.606 6.151 1.753-1.321.143-2.624.43-3.885.857a9.57 9.57 0 0 0 -4.512.006 9.67 9.67 0 0 0 -4.025 2.075l-.216.188.024.296c.081 1.013.264 2.015.546 2.991a18.901 18.901 0 0 0 -1.606 2.216 17.135 17.135 0 0 1 -1.22-6.402v-.1a11.984 11.984 0 0 1 3.975-2.863 11.81 11.81 0 0 1 4.768-1.017zm0 24.274c-2.165.003-4.29-.6-6.141-1.742a17.812 17.812 0 0 0 3.896-.847c.735.18 1.489.27 2.245.27a9.581 9.581 0 0 0 6.267-2.354l.217-.185-.018-.295a14.855 14.855 0 0 0 -.549-2.999 18.952 18.952 0 0 0 1.609-2.215 17.247 17.247 0 0 1 1.217 6.402v.085a11.97 11.97 0 0 1 -3.975 2.864 11.796 11.796 0 0 1 -4.768 1.017zm116.913 1.843v-27.967h-5.595l-8.345 11.663-8.341-11.663h-5.595v27.967h4.637v-21.543l7.509 10.442h3.612l7.509-10.442v21.543zm-33.43-15.408h-14.128v-8.049h14.926v-4.51h-19.584v27.935h4.637v-11.062h14.128zm-26.333-8.323a11.243 11.243 0 0 0 -4.28-3.116 15.241 15.241 0 0 0 -6.107-1.159h-10.743v27.974h10.73a15.163 15.163 0 0 0 6.203-1.22 11.417 11.417 0 0 0 4.34-3.24 14.174 14.174 0 0 0 2.448-4.535c.536-1.69.792-3.457.759-5.232a16.003 16.003 0 0 0 -.888-5.09 14.372 14.372 0 0 0 -2.462-4.382zm-3.441 16.29c-1.54 1.917-3.875 2.892-6.946 2.892h-6.134v-19.029h6.134c2.934 0 5.207.914 6.757 2.718a10.092 10.092 0 0 1 2.395 6.544 10.352 10.352 0 0 1 -2.206 6.875zm-14.892 22.891h.875v-1.066h-.874v1.067zm1.616 0h.874v-1.066h-.874v1.067zm7.712-6.644c.03.41-.033.822-.186 1.203a1.056 1.056 0 0 1 -.446.425 1.034 1.034 0 0 1 -.603.101h-.815c-.923 0-1.329-.413-1.783-1.615-.385-1.003-1.42-1.778-2.172-1.778h-.65v.814c1.01 0 1.601.577 1.601 1.704 0 1.505-1.44 2.91-3.095 2.91-1.958 0-3.147-1.494-3.147-3.75v-1.088h-.875v1.252c0 2.508 1.728 4.46 3.994 4.46 2.098 0 3.917-1.664 3.917-3.76.124.505.414.952.822 1.265.408.314.909.477 1.42.461h1.084c1.206 0 1.811-.74 1.811-2.209v-5.907h-.863zm14.65 0c.029.41-.033.821-.183 1.203-.174.355-.517.515-1.049.515h-2.032c.075-.286.111-.582.109-.878.03-.73-.2-1.447-.65-2.017a2.387 2.387 0 0 0 -.86-.627 2.352 2.352 0 0 0 -1.04-.187 2.388 2.388 0 0 0 -1.043.183c-.33.138-.626.349-.866.617-.473.57-.722 1.299-.7 2.045-.001.291.032.581.098.864h-1.22a6.621 6.621 0 0 1 -.787 0 .925.925 0 0 1 -.7-.387 2.38 2.38 0 0 1 -.248-1.242v-5.601h-.885v6.114a2.041 2.041 0 0 0 .529 1.52 1.525 1.525 0 0 0 1.122.476h2.563c.24.338.555.614.92.804a2.55 2.55 0 0 0 2.358 0c.365-.19.68-.466.92-.804h2.695c1.207 0 1.812-.74 1.812-2.209v-5.9h-.864v5.512zm-5.712 2.9a1.38 1.38 0 0 1 -.689-.147 1.406 1.406 0 0 1 -.531-.47 2.444 2.444 0 0 1 -.35-1.376 2.635 2.635 0 0 1 .35-1.454c.136-.214.325-.388.547-.505.223-.117.472-.172.722-.16.232-.015.462.035.668.143s.379.271.5.472c.247.406.37.878.35 1.355-.01 1.428-.532 2.141-1.567 2.141zm8.23-.3h.863v-8.109h-.864v8.11zm8.573 4.048h.875v-1.067h-.875zm-1.612 0h.874v-1.067h-.874zm9.386-2.134h.871v-1.067h-.878zm0-4.5c.029.41-.034.822-.185 1.203a1.058 1.058 0 0 1 -.446.426 1.032 1.032 0 0 1 -.603.1h-.888c-.924 0-1.329-.412-1.787-1.614-.382-1.004-1.399-1.779-2.169-1.779h-.654v.815c1.011 0 1.602.576 1.602 1.703 0 1.505-1.441 2.91-3.091 2.91-1.959 0-3.148-1.494-3.148-3.75v-1.088h-.874v1.252c0 2.508 1.724 4.46 3.99 4.46 2.098 0 3.92-1.664 3.92-3.759a2.3 2.3 0 0 0 .842 1.282 2.23 2.23 0 0 0 1.449.45h1.098c1.207 0 1.812-.74 1.812-2.208v-3.483h-.864zm2.896-3.108v.829h.332c.458.002.907.122 1.306.35s.734.555.975.952c.439.825.648 1.758.605 2.696h-4.543v.878h5.469c0-1.568-.185-2.76-.566-3.6-.633-1.415-1.826-2.12-3.564-2.12zm12.24-1.953h-.888v1.067h.888zm.406 1.779c-1.441 0-2.315.988-2.315 2.603a2.67 2.67 0 0 0 .654 1.893 2.231 2.231 0 0 0 1.699.711 1.868 1.868 0 0 0 1.504-.665 2.768 2.768 0 0 1 -1.098 2.016 3.253 3.253 0 0 1 -1.948.566 2.758 2.758 0 0 1 -1.188-.233 2.802 2.802 0 0 1 -.98-.72 3.575 3.575 0 0 1 -.85-2.469v-2.066h-.885v2.23a4.063 4.063 0 0 0 1.133 2.956c.366.374.803.669 1.283.867.481.198.996.295 1.515.285 1.196 0 2.144-.356 2.822-1.067.679-.711 1.049-1.693 1.049-2.96v-1.376c.018-1.671-.93-2.596-2.378-2.596zm1.185 3.912a1.296 1.296 0 0 1 -1.147.612 1.255 1.255 0 0 1 -.668-.16 1.286 1.286 0 0 1 -.489-.49 2.457 2.457 0 0 1 -.322-1.292 2.525 2.525 0 0 1 .297-1.238c.101-.206.258-.38.451-.5.194-.12.417-.182.644-.18h.122c.238-.008.474.052.68.174.205.122.372.302.481.517.199.404.296.85.284 1.302.015.43-.093.857-.312 1.227zm.025-5.69h-.888v1.066h.888v-1.067zm17.556 1.966v3.095c0 1.33-.308 1.718-1.231 1.718h-1.48c.174-.42.254-.875.235-1.33v-3.483h-.864v3.095c0 1.33-.259 1.718-1.049 1.718h-1.64c.173-.42.253-.875.234-1.33v-3.483h-.86v3.095c0 1.33-.259 1.728-1.05 1.728h-2.65v-2.33c0-1.653-.85-2.507-2.218-2.507a2.247 2.247 0 0 0 -.978.211 2.29 2.29 0 0 0 -.795.618 3.037 3.037 0 0 0 -.699 2.041 3.086 3.086 0 0 0 .664 2.031c.203.26.462.466.757.606s.618.207.943.198h1.343c-.06.355-.247.675-.525.898a1.422 1.422 0 0 1 -.979.315h-.108v.84c1.416-.086 2.252-.765 2.5-2.053h9.537c1.221 0 1.822-.74 1.822-2.209v-3.482zm-11.275 4.813h-1.427c-.237 0-.469-.067-.671-.193a1.305 1.305 0 0 1 -.476-.519 2.57 2.57 0 0 1 -.35-1.34 2.318 2.318 0 0 1 .395-1.306c.12-.201.288-.368.489-.484.201-.117.427-.18.658-.181a1.288 1.288 0 0 1 .984.376 1.34 1.34 0 0 1 .394.99z" fill="#000"/></svg>