<svg xmlns="http://www.w3.org/2000/svg" viewBox="0 0 180 180">
    <circle cx="90" cy="90" r="90" fill="#fff" />
    <path transform="translate(-35, -50) scale(0.9, 0.9)" fill="#00aeef" fill-rule="evenodd" d="M152.59,165.63a19.82,19.82,0,0,0,19.76,19.77h0a19.83,19.83,0,0,0,19.77-19.77c0-5.37,0-10.77,0-16.17A13.51,13.51,0,0,1,205.6,136h0a13.51,13.51,0,0,1,13.47,13.47v14.89a46.85,46.85,0,0,1-46.72,46.71h0a46.6,46.6,0,0,1-33.94-14.69,45.56,45.56,0,1,1-12.78-71.47V101.5A13.51,13.51,0,0,1,139.1,88h0a13.51,13.51,0,0,1,13.46,13.47l0,64.13Zm-47.69-20A19.91,19.91,0,1,1,85,165.49a19.91,19.91,0,0,1,19.9-19.9Zm108.2,59.2h.57a7.22,7.22,0,0,0,1.52-.09.85.85,0,0,0,.47-.33.87.87,0,0,0,.17-.54.84.84,0,0,0-.16-.51.93.93,0,0,0-.48-.33,7.15,7.15,0,0,0-1.52-.1h-.57v1.9Zm-1.41,4v-7h1.41c1.33,0,2.07,0,2.23,0a2.71,2.71,0,0,1,1.09.27,1.75,1.75,0,0,1,.65.67,2,2,0,0,1,.26,1,1.84,1.84,0,0,1-.49,1.29,2.25,2.25,0,0,1-1.38.66,1.75,1.75,0,0,1,.48.26,2.82,2.82,0,0,1,.47.54,8.54,8.54,0,0,1,.52.85l.82,1.4H216l-.58-1.13a4.66,4.66,0,0,0-1-1.44,1.57,1.57,0,0,0-1-.29h-.37v2.86Zm2.42-9.9a6.69,6.69,0,0,1,3.24.84,6.11,6.11,0,0,1,2.44,2.42,6.64,6.64,0,0,1,.88,3.3,6.72,6.72,0,0,1-.86,3.27,6.28,6.28,0,0,1-2.43,2.42,6.56,6.56,0,0,1-6.53,0,6.21,6.21,0,0,1-2.43-2.42,6.57,6.57,0,0,1,0-6.57,6,6,0,0,1,2.44-2.42,6.68,6.68,0,0,1,3.23-.84Zm0,1.28a5.33,5.33,0,0,0-2.59.68,4.94,4.94,0,0,0-2,1.94,5.31,5.31,0,0,0-.71,2.66,5.38,5.38,0,0,0,.69,2.63,5.07,5.07,0,0,0,1.95,2,5.27,5.27,0,0,0,5.25,0,5,5,0,0,0,1.94-2,5.25,5.25,0,0,0,0-5.29,4.88,4.88,0,0,0-2-1.94,5.4,5.4,0,0,0-2.6-.68Z"/>
</svg>