<svg xmlns="http://www.w3.org/2000/svg" viewBox="0 0 1000 1000">
  <rect width="1000" height="1000" fill="#fff" rx="50"/>

  <g>
    <path fill="#0090d7" d="M170.37 75H50v300.93h120.37a60.19 60.19 0 0 0 60.19-60.19V135.21A60.17 60.17 0 0 0 170.41 75zm-60.18 240.73V135.21h30.09a30.09 30.09 0 0 1 30.09 30.09v120.39a30.07 30.07 0 0 1-30.07 30zm782.3 60.2V105.09A30.1 30.1 0 0 1 922.59 75h30.08v270.82a30.1 30.1 0 0 1-30.09 30.1zm-257.6-137.24a103.14 103.14 0 0 1-50.19 27.81 30.09 30.09 0 1 1-53.31 19.15V269.1h-60.2v76.72a30.09 30.09 0 0 0 30.08 30.1h60.2a90.29 90.29 0 0 0 75.63-139.55 162.7 162.7 0 0 1-2.25 2.31m-103.46-73.41a30 30 0 0 1 16.55-26.86V75h-76.75v106.82h60.18zm-210.64 28.62V75h-30.08a30.09 30.09 0 0 0-30.09 30.09v76.73h30.09a43.49 43.49 0 0 1 30.1 12.06m120.35-12.06v-76.73A30.09 30.09 0 0 0 411.03 75h-30.09v118.89a43.47 43.47 0 0 1 30.09-12.06zm240.74 194.11h30.09a30.1 30.1 0 0 0 30.09-30.1v-76.74h-60.18zm60.18-194.11v-76.73A43.5 43.5 0 0 1 754.12 75h-12a60.19 60.19 0 0 0-60.19 60.18v58.71a43.47 43.47 0 0 1 30.09-12.06zm61.26 87.27h-1.11v76.73a30.1 30.1 0 0 0 30.09 30.1h30.1v-138a73.74 73.74 0 0 1-59.11 31.18"/>
    <path fill="#ba2c87" d="M561.49 75v60.21a30.1 30.1 0 0 1 0 60.19H411.02a30.09 30.09 0 0 0-30.09 30.09v90.33h-30.09a30.1 30.1 0 0 1-30.09-30.08v-60.2a30.09 30.09 0 0 0-30.09-30.09h-30.1v120.34a60.19 60.19 0 0 0 60.19 60.19h60.18a60.19 60.19 0 0 0 60.19-60.17v-60.26H561.5a90.28 90.28 0 0 0 0-180.55z"/>
    <path fill="#ba2c87" d="M545.12 268.59v16.54a16.55 16.55 0 1 0 16.55-16.55h-16.55zM355.67 387.54v16.56a16.55 16.55 0 1 0 16.55-16.56zm-44.48 0v16.56a16.55 16.55 0 1 0 16.55-16.56zm370.67-162.08a30.09 30.09 0 0 1 30.09-30.09h60.18a30.1 30.1 0 0 0 0-60.19h-16.58v-30.09A30.09 30.09 0 0 1 785.64 75h16.55a60.18 60.18 0 0 1 60.18 60.18v60.19a60.18 60.18 0 0 1-60.18 60.18H681.86z"/>
  </g>

  <g>
    <path fill="#db202e" d="M170.37 550H50v300.93h120.37a60.19 60.19 0 0 0 60.19-60.19V610.21A60.17 60.17 0 0 0 170.41 550zm-60.18 240.73V610.21h30.09a30.09 30.09 0 0 1 30.09 30.09v120.39a30.07 30.07 0 0 1-30.07 30zm782.3 60.2V580.09a30.1 30.1 0 0 1 30.1-30.09h30.08v270.82a30.1 30.1 0 0 1-30.09 30.1zm-257.6-137.24a103.14 103.14 0 0 1-50.19 27.81 30.09 30.09 0 1 1-53.31 19.15V744.1h-60.2v76.72a30.09 30.09 0 0 0 30.08 30.1h60.2a90.29 90.29 0 0 0 75.63-139.55 162.7 162.7 0 0 1-2.25 2.31m-103.46-73.41a30 30 0 0 1 16.55-26.86V550h-76.75v106.82h60.18zm-210.64 28.62V550h-30.08a30.09 30.09 0 0 0-30.09 30.09v76.73h30.09a43.49 43.49 0 0 1 30.1 12.06m120.35-12.06v-76.73A30.09 30.09 0 0 0 411.03 550h-30.09v118.89a43.47 43.47 0 0 1 30.09-12.06zm240.74 194.11h30.09a30.1 30.1 0 0 0 30.09-30.1v-76.74h-60.18zm60.18-194.11v-76.73A43.5 43.5 0 0 1 754.12 550h-12a60.19 60.19 0 0 0-60.19 60.18v58.71a43.47 43.47 0 0 1 30.09-12.06zm61.26 87.27h-1.11v76.73a30.1 30.1 0 0 0 30.09 30.1h30.1v-138a73.74 73.74 0 0 1-59.11 31.18"/>
    <path fill="#f8992a" d="M561.49 550v60.21a30.1 30.1 0 0 1 0 60.19H411.02a30.09 30.09 0 0 0-30.09 30.09v90.33h-30.09a30.1 30.1 0 0 1-30.09-30.08v-60.2a30.09 30.09 0 0 0-30.09-30.09h-30.1v120.34a60.19 60.19 0 0 0 60.19 60.19h60.18a60.19 60.19 0 0 0 60.19-60.17v-60.26H561.5a90.28 90.28 0 0 0 0-180.55z"/>
    <path fill="#f8992a" d="M545.12 743.59v16.54a16.55 16.55 0 1 0 16.55-16.55h-16.55zM355.67 862.54v16.56a16.55 16.55 0 1 0 16.55-16.56zm-44.48 0v16.56a16.55 16.55 0 1 0 16.55-16.56zm370.67-162.08a30.09 30.09 0 0 1 30.09-30.09h60.18a30.1 30.1 0 0 0 0-60.19h-16.58v-30.09A30.09 30.09 0 0 1 785.64 550h16.55a60.18 60.18 0 0 1 60.18 60.18v60.19a60.18 60.18 0 0 1-60.18 60.18H681.86z"/>
  </g>

</svg>
