<svg version="1.1" xmlns="http://www.w3.org/2000/svg" viewBox="0 0 175 175">
	<rect height="175" width="175" rx="25" fill="#000" />

	<g transform="translate(10, 45)">
		<polygon fill="#fff" points="74.9,28.1 62.7,10.8 55.5,10.8 67.7,28.1" />
		<polygon fill="#fff" points="87.1,28.1 99.3,10.8 92.1,10.8 79.8,28.1" />
		<path fill="#fff" d="M44.5,46.8c-3.4,7-10.5,11.6-19,11.6H10V16.5h15.3c8.6,0,15.8,4.6,19.2,11.6h6.7c-3.8-10.2-13.7-17.3-25.8-17.3H3.9V64h21.3c12.2,0,22.2-7,26-17.3L44.5,46.8L44.5,46.8z" />
		<path fill="#fff" d="M140.9,36.1c6.2-1.3,9.9-5.8,9.9-12c0-8.4-6.5-13.3-17.3-13.3h-22.4v17.3h6.1V16.5h16c7.1,0,11.3,3.1,11.3,8.6c0,4.9-3.2,8-8.7,8.6v5.9c7,0.6,11.1,4,11.1,9.2c0,6.2-5,9.7-13.6,9.6h-16V46.8h-6.1v17.3H134c12.1,0,19.2-5.4,19.2-14.5C153.1,42.3,148.5,37.3,140.9,36.1z" />
		<polygon fill="#fff" points="66.5,46.8 54.2,64 61.3,64 73.6,46.8" />
		<polygon fill="#fff" points="81.1,46.8 93.6,64 100.9,64 88.7,46.8 " />

		<path fill="#087EFF" d="M25.9,31.1v12.4h-2.8V31.1H25.9z" />
		<path fill="#087EFF" d="M33.8,31.1l6.1,8v-8h2.7v12.4H40l-6-8v8h-2.7V31.1H33.8z" />
		<path fill="#087EFF" d="M57,31.1v2.4h-3.8v10.1h-2.8v-10h-3.8v-2.5H57z" />
		<path fill="#087EFF" d="M70.4,31.1v2.3h-6.7v2.7h6v2.3h-6v2.9h6.9v2.3H61V31.1H70.4z" />
		<path fill="#087EFF" d="M83,43.7L81,40h-0.3h-2.6v3.6h-2.8V31.1h5.4c3.2,0,5.1,1.6,5.1,4.3c0,1.9-0.8,3.3-2.3,4.1l2.6,4.1H83z M78.2,37.7h2.6c1.5,0,2.5-0.7,2.5-2.1c0-1.4-0.8-2.1-2.5-2.1h-2.6V37.7z" />
		<path fill="#087EFF" d="M99,41.2h-5.8l-0.9,2.4h-2.9l5.4-12.4h2.9l5.3,12.4h-3L99,41.2z M98.1,38.9l-1.9-4.8l-2,4.8H98.1z" />
		<path fill="#087EFF" d="M112.2,33.5c-2.1,0-3.8,1.7-3.8,3.8c0,2.1,1.7,3.8,3.8,3.8c1.1,0,2.4-0.6,3.2-1.5l1.7,1.8c-1.3,1.4-3.2,2.2-5.1,2.2c-3.7,0-6.5-2.8-6.5-6.4c0-3.6,2.9-6.3,6.6-6.3c1.8,0,3.7,0.8,4.9,2.1l-1.6,2C114.6,34.2,113.4,33.5,112.2,33.5z" />
		<path fill="#087EFF" d="M130.5,31.1v2.4h-3.8v10.1h-2.8v-10h-3.8v-2.5H130.5z" />
	</g>
</svg>
