<svg xmlns="http://www.w3.org/2000/svg" viewBox="0 0 5000 5000">
  <rect width="5000" height="5000" fill="#FFD100" rx="350"/>
  <path fill="#2a2d64" d="M2257 1536h-452l401 662h-449a843 843 0 0 0-846-662H199v1698h712c425 0 763-277 846-663h449l-401 663h452l514-849-514-849zM911 2860H606v-951h305c280 0 473 185 473 476s-193 475-473 475z"/>
  <path fill="#071c2c" d="M2605 2115l-415 661 166 265 415-662z"/>
  <path fill="#696e9f" d="M4628 2720c96-78 155-187 155-324 0-287-250-474-559-474h-692v647h-573l399-647h-450l-510 829 510 830h450l-399-647h573v647h743c316 0 571-192 571-486 0-168-86-296-218-375zm-695-451h297c97 0 159 65 159 154 0 90-65 155-159 155h-297v-309zm334 965h-334v-309h334c99 0 164 64 164 154s-65 155-164 155z"/>
</svg>
