<svg xmlns="http://www.w3.org/2000/svg" viewBox="0 0 94 94">
  <circle cx="47" cy="47" r="47" fill="#FD0240"/>
  <g transform="translate(8.9 42.5)">
    <path fill="#FEFDFD" d="M0 4.5V1.3C0 .5.4 0 1.2 0h4.2c.7 0 1.1.4 1 1-.1.4-.4.7-.9.7H2.4c-.3 0-.5.1-.5.4.1.5-.2 1.1.1 1.4.3.3.9.1 1.3.1h1.9c.7 0 1.1.3 1.1.8 0 .6-.4.9-1.1.9H2.3c-.3 0-.4.1-.4.4 0 .5-.2 1.2.1 1.5.3.3 1 .1 1.5.1h1.9c.6 0 1 .3 1 .8s-.3.8-1 .8H1.2C.4 8.9 0 8.5 0 7.7V4.5z"/>
    <path fill="#FEFEFE" d="M73.1 6.9c.5-1.3.9-2.5 1.4-3.7 0-.1 0-.1.1-.2.2-.5.7-.8 1.2-.6.4.2.6.7.4 1.2-.5 1.3-1.1 2.7-1.6 4-.3.8-.6 1.6-1 2.4-.4 1-1.4 1.6-2.4 1.5-.4 0-.7-.2-.8-.6-.1-.3.1-.6.3-.8.1-.1.3-.1.4-.1.8-.1 1.2-.7.9-1.5-.6-1.6-1.3-3.2-1.9-4.8-.2-.6-.1-1.1.4-1.3.5-.2.9.1 1.2.7.4 1.1.8 2.2 1.2 3.2 0 .2.1.4.2.6zM38.8 8.2c-.8.7-1.8 1-2.9.8-.9-.2-1.4-.8-1.4-1.7v-4c0-.6.3-.9.8-.9s.9.3.9.8v3c0 .8.2 1.1.7 1.2.7.2 1.6-.2 1.8-.6.1-.1 0-.3 0-.4v-3c0-.7.3-1.1.9-1.1.6 0 .8.4.8 1.1v4.4c0 .7-.2 1-.7 1.1-.4.2-.7-.1-.9-.7zM58.2 3.2c.8-.8 1.7-1 2.7-.9 1 .2 1.6.8 1.6 1.9v3.9c0 .5-.4.9-.9.9s-.8-.3-.8-.9V5.2c0-.8-.2-1.1-.8-1.3-.6-.2-1.5.1-1.8.6-.1.1-.1.3-.1.5v3.1c0 .6-.3 1-.9 1-.5 0-.8-.3-.8-1V3.6c0-.7.2-1 .6-1.1.7-.2 1 .1 1.2.7zM22.7 3.3c.8-.8 1.8-1.1 2.9-.8.9.2 1.4.8 1.4 1.7v4.1c0 .5-.4.8-.8.8-.5 0-.8-.3-.9-.9v-3c0-.8-.2-1.1-.7-1.3-.6-.2-1.5.1-1.9.6-.1.1-.1.3-.1.5v3.1c0 .6-.3 1-.8 1-.6 0-.9-.3-.9-1V3.5c0-.6.2-.9.7-1 .6-.1.9.1 1.1.8z"/>
    <path fill="#FEFDFD" d="M30.6 2.3c.9 0 1.6.1 2.2.5.5.3.6.6.4 1-.2.3-.6.4-1 .2-.5-.2-1-.4-1.5-.3-.2 0-.4.1-.6.2-.3.3-.3.6.1.8l.9.3c.5.1 1.1.2 1.6.5 1.2.7 1.3 2.4.2 3.2-1.1.8-3.3.7-4.4-.1-.4-.3-.5-.6-.2-1 .2-.3.6-.4 1-.2s.9.4 1.4.5c.3.1.7 0 1-.1.2-.1.4-.3.4-.6s-.2-.4-.4-.4c-.5-.1-1-.2-1.5-.4l-.9-.3c-1.3-.6-1.4-2.4-.2-3.2.4-.4 1-.6 1.5-.6zM66.8 2.3c.7 0 1.3.1 1.8.4.5.3.7.7.5 1.1-.2.4-.7.5-1.2.3-.8-.4-1.5-.3-2.1.2-.5.5-.7 1.4-.4 2.2.4 1 1.4 1.4 2.4.9.2-.1.4-.2.7-.2.3 0 .6.2.7.5.1.4 0 .7-.3.9-1 .7-2.8.7-3.9-.1-1.2-.8-1.7-2.4-1.2-3.9.3-1.4 1.5-2.3 3-2.3zM10.6 9.1C8.5 9.1 7.2 7.9 7 5.9c-.1-1.6.7-3.2 2.8-3.5.8-.1 1.6 0 2.4.4.5.3.7.7.5 1.1-.2.4-.7.5-1.2.3-.8-.4-1.6-.3-2.2.2C8.8 5 8.6 6 9 6.7c.4.8 1.4 1.1 2.3.7.3-.1.5-.3.8-.1.3.1.5.2.5.5.1.3 0 .6-.3.7-.5.4-1.1.6-1.7.6zM45.6 5.9V4.4c0-.2 0-.4-.3-.4-.6 0-.8-.3-.8-.7 0-.4.3-.7.8-.7.3 0 .3-.1.3-.4v-.7c0-.5.4-.8.8-.8.5 0 .8.3.9.8v.2c0 .8 0 .7.7.8.4 0 .6.3.6.7 0 .4-.2.7-.6.8-.2 0-.6-.1-.7.1-.1.2-.1.5-.1.8v1.9c0 .6.2.8.8.9.4 0 .6.2.7.6.1.4-.2.7-.6.8-.5.1-1.1.1-1.6 0-.6-.2-1-.8-1-1.5.1-.6.1-1.2.1-1.7z"/>
    <path fill="#FEFEFE" d="M43.5 4.5v3.6c0 .6-.3.9-.8.9s-.9-.3-.9-.9V.9c0-.6.3-.9.9-.9.5 0 .8.3.8.9.1 1.2 0 2.4 0 3.6z"/>
    <path fill="#FEFDFD" d="M16.7 2.3c-2.1 0-3.5 1.3-3.5 3.4 0 2 1.4 3.4 3.4 3.4S20 7.7 20 5.7c.1-2-1.3-3.3-3.3-3.4zm1.5 4c-.3 1-1.1 1.4-2 1.2-.7-.2-1.2-.9-1.2-1.8 0-1.3 1-2.1 2.1-1.8.9.3 1.4 1.4 1.1 2.4z"/>
    <path fill="#FEFDFE" d="M55.4 4.4c0-.9-.6-1.6-1.4-1.9-1.2-.4-2.3-.2-3.4.3-.2.1-.3.2-.4.3-.2.3-.2.6 0 .8.2.3.5.3.8.2.3-.2.6-.3 1-.4 1.3-.3 2 .4 1.9 1.8-.8-.5-1.3-.7-2.2-.7-1.1.1-1.9.8-2 1.7-.1 1.2.5 2.1 1.6 2.4 1 .3 1.8 0 2.6-.6.3.6.6.7 1.1.6.4-.1.6-.4.6-1.1-.2-1-.2-2.2-.2-3.4zm-2.2 3.4c-.5.2-1 .2-1.5 0-.3-.1-.5-.4-.5-.8s.2-.7.5-.8c.6-.2 1.1-.2 1.7.1.2.1.4.3.3.6.1.5-.2.7-.5.9z"/>
  </g>
</svg>
