<svg xmlns="http://www.w3.org/2000/svg" width="256" height="256">
    <path fill="#d71920" d="M0 0h256v256H0z" />
    <path fill="#fff"
        d="M149.2 44.3l-9.6 9c-.6.7-2.7 4-2.7 8.5v26.1c0 1.9-1.2 4.4-2 5.3L130 98h2.1l9-8.4c1.2-1.3 3.6-4.4 3.6-9v-25c0-4 1.8-6.2 2.7-7.1l4.1-4zm1.4 67.3v10.3l3.6 3.7c3 3.1 3 8.4-6 17.1-1.4 1.6-6 6-11.6 6h-15.5l9.2 8.4h6c6.6 0 12-3.1 15.8-6.9 4-3.7 5.1-9.3 5.1-14v-14c0-4.7-2.7-7.2-3.3-8.1l-3-3.1" />
    <path fill="#fff"
        d="M90.6 77h-3c2 1.3 3.3 4.7 3.3 6.9v12.7c0 3.5 2.7 16.5 13.7 16.5H137v21.2c0 3.5-1.2 5.6-2 6.6l-4.9 5h2.1l9-8.5c1.5-1.8 3.6-4 3.6-10.5v-14l3.9-3.8 6-6.2c0 5.3 2.6 7.4 5 7.4 1.2 0 2.4-.3 3.3-1.2l6-5.6c2.7-2.8 4.2-11.2-2.4-11.2-3.9 0-8.4 5.9-9 6.5a10 10 0 0 1-2.7-3.1v5.3c-.6 1-3 3.1-5 3.1h-5.1v-5.3c0-2.5.9-5.3 2-6.2l4.8-5h-2l-10 9.4a13.9 13.9 0 0 0-2.6 6.8h-36.5c-4.5 0-7.4-4.7-7.4-8.4v-9.7c0-8-1.8-8.7-2.4-9m73.8 28.4c-.6 0-1.5 0-2.7-1.3-.9-.6-3-3.7-3-3.7.6-.7 2.1-1.3 3.6-1.3 1.2 0 2.1.3 2.7 1 1.8 3 1.5 5.3-.6 5.3" />
    <path fill="#fff"
        d="M113.9 116.9l-6 6.2c3.9 4.7 5.4 6.9 6 8.7 0-.3 6-5.3 6-7.1 0-2.5-2.1-3.5-6-7.8m12.8-72.6l-4.4 3.7c-1.8 2-1.2 5.7 2 9a1038.5 1082.2 0 0 0-.6 10.7s-5-4.7-9.5-4.7h-6.9c-4.2 0-7.8 4-8 4.4-2.5 2.4-2.5 6.8-.4 8.7l4.5 5s-1.2-8.1 0-13.4a3.6 3.6 0 0 1 3.3-2.5l1.5.3c3.9 2.8 9.6 8.4 9.6 8.4l-12.6 14c-.3.3-2 1.9-3.9 1.9-2 0-3-1.3-3.9-2.2v6.2c0 2.5 3 4.7 5.4 4.7h17a6 6 0 0 0 4-1.5l6-6.3c.5-.6.8-1.8.8-3v-7c0-6.2-4.8-11.5-4.8-11.5s1-1 1-3.7v-6.9s2 2.2 2 3.2l3.6-4.1c1.8-1.6-.9-5-2-6.2-3.7-3.8-3.7-7.8-3.7-7.8m-21.5 46.7l3.6-3.4 11-11.9s6 6.6 7.8 10c1.2 1.9 2.1 5-3 5h-19.4" />
    <path fill="#fff"
        d="M87 105.4h-3s3 1.8 3 6.8v16.2c0 10.3 8.3 20 18.5 20h8.4c4.8 0 6.6-1.3 9.5-4.1l3-3.4c2.1-2.2 4-3.8 4-9v-5.4c0-4.3-2.8-6.2-4-7.4l-3-3.1v10.9l3 3c4.5 3.2 1.2 9.4-3 9.4H105c-6.9 0-15.5-6.2-15.5-16.2v-8.7c0-9-2.4-9-2.4-9" />
    <path fill="#fff"
        d="M101.3 116.9L95 123c4.2 4.7 5.7 6.9 6 8.7.3-.3 6-5.3 6-7.1 0-2.5-1.8-3.5-6-7.8m-63 39.9H17s3.6 3.4 3.3 10v27c0 6.6 3 6.9 3 6.9h20.6c4.8 0 6.6-3.4 6.6-5.3v-2.8s-1.5 3.1-7.8 3.1H32.6c-3 0-3-2.5-3-4.7v-14.6h7.2c2 0 4.4 0 6.5 1.5 0 0-2.4-6.2-9.2-6.2h-4.5V167s0-4-1-5.3h7c5.6 0 9.8 0 14.3 3.2 0 0-.6-7.8-11.6-7.8m33.1 8.7c-7.1 0-9 6.2-9 6.2s0-6.2-5.3-6.2h-5.4s3 1.2 3 6.8v21.2c0 6.9 3 6.9 3 6.9h8.7c-.3 0-3.6-2.5-3.6-7.2v-18.4c0-.6 1.5-3.4 5.3-3.4 2.1 0 4.5 2.2 4.5 5v17.1c0 6.9 2.7 6.9 2.7 6.9h9s-3.6-2.5-3.6-7.2v-18.4c0-.9 1.5-3.4 4.8-3.4 2.7 0 4.8 2.5 4.8 5v17.1c0 6.9 2.7 6.9 2.7 6.9h9s-3.7-2.5-3.7-6.9v-18.7c0-7.4-5.6-9.3-9.8-9.3-5.7 0-7.5 5-8.1 6.5-1.2-4.3-5.7-6.2-9-6.2m36.5-.3h-5.4s3 1.2 3 6.8v21c0 6.8 3 6.8 3 6.8h9s-3.6-2.5-3.6-6.9v-20c0-7.7-4-7.7-6-7.7m15.8 0h-5.3s3 1.2 3 6.8v21c0 6.5 3 6.8 3 6.8h9c-.7 0-3.7-2.5-3.7-7.2v-16.8a4 4 0 0 1 2.1-3.4c1.2-1 2.7-1.3 3.9-1.3 2 0 3.9 1 5.4 2.5v-6s-1-2.4-4.5-2.4c-5.7 0-6.9 6.8-6.9 6.8-.6-5.2-2-6.8-6-6.8m56.2-8.1s-2 3.7-6 6.8c-2.3 2.2-7.7 5-7.7 5h5.7v24.3c0 6.9 2.7 6.9 2.7 6.9h9s-3.7-2.5-3.7-6.9v-24h2.1c3 0 5.4 1.6 5.4 1.6v-5.6H180zm21.9 8.1c-9.3 0-14 8.4-14 18 0 9.4 5.9 16.6 14.6 16.6 7.1 0 9.2-2.8 9.2-2.8V192c-1.8 3.7-4.5 4.6-6.5 4.6a9 9.3 0 0 1-3.6-.9c-4-1.9-4.5-7.2-4.5-7.2 3-4 6.9-3 12-8.4 6.5-7.1 1.7-14.6-7.2-14.6m-5.4 19.3s-1.2-15.9 4.8-16.5h.3c4.5 0 3.6 6.8 2 9.3-2.3 4.4-5 5-7.1 7.2m-86.7-30.2c-2.1 0-4.2 1.8-4.2 4 0 2.5 2.1 4.4 4.2 4.4 2.4 0 4.2-1.9 4.2-4.4a4 4 0 0 0-4.2-4m43.3 11.2c-5 0-8 2.5-8 2.5v6.2s1.8-5 6.2-5c4.5 0 4.8 2.2 4.8 3.5 0 0 .6 1.5-.6 3.7-2 3.4-17.9 4.4-15.5 17.1.9 5 4.2 6.6 8.4 6.6 3.8 0 6.2-2.2 7.1-4 .6 3.7 2.7 4 2.7 4h9s-3.6-2.5-3.6-6.9V174c0-4.7-5-8.1-10.5-8.1m-3 30.5c-1.7 0-3.2-2.2-3.2-4.3 0-8.8 6.8-9.7 8.6-12.2v14.7c-.9.6-1.8 1.8-5.3 1.8m75.3-30.8c-5.4 0-10.2 3.7-10.2 8.4 0 4 1.8 6.5 5.1 9.3l4.5 2.8c2.7 1.3 3.6 3.2 3.6 5 0 2.5-2.1 5.6-6.6 5.6s-6.3-5-6.3-5v6.3s3 2.5 8.4 2.5c6 0 12-4.7 12-11.6 0-2.1-1-4-2.1-5.9-2.1-2.8-6-4.6-8.7-6.5-1.5-1.3-2.4-3.1-2.4-3.8 0-.9.3-3 4.8-3s6.3 4.3 6.3 4.3v-5.6s-3.3-2.8-8.4-2.8" />
    <path fill="none" d="M-1.1 42v223.3h137.6V42.1" />
</svg>