<svg xmlns="http://www.w3.org/2000/svg" viewBox="0 0 400 400">
  <circle cx="200" cy="200" r="200" fill="#182663"/>
  <path fill="#fff" d="M100 50h200v290H100z"/>
  <path fill="#182663" d="M286.23 71.017H115.62v249.429h170.61V71.017z"/>
  <path fill="#fff" d="M185.885 222.827c2.303-61.711 35.814-116.372 86.151-151.857h-33.417c-40.796 35.203-68.15 84.6-69.372 139.543-.893 43.569 7.567 76.61 30.832 109.98h8.46c-18.142-30.691-23.97-62.886-22.654-97.666z"/>
  <path fill="#F5A800" d="M191.431 320.446c-20.116-21.197-44.462-61.194-47.329-104.293a199.654 199.654 0 0 1 49.585-145.136h27.495c-43.428 42.77-65.471 99.452-60.395 155.711 3.196 36.002 17.484 62.604 39.292 93.718h-8.648z"/>
  <path fill="#fff" d="M200.737 269.169c18.33-18.8 35.391-46.06 40.796-73.179a155.097 155.097 0 0 0-3.055-71.675c-.47-1.504-.705-2.585-.47-2.726a55.596 55.596 0 0 1 7.05 12.032 108.102 108.102 0 0 1 10.246 47 106.55 106.55 0 0 1-24.816 66.834 93.347 93.347 0 0 1-18.8 16.92 63.326 63.326 0 0 1-12.784 6.956s.705-1.034 1.833-2.162z"/>
  <path fill="#F5A800" d="M200.126 269.733a109.652 109.652 0 0 0 26.038-53.58 107.344 107.344 0 0 0-5.17-50.478c-.376-1.081-.611-1.786-.423-1.88a36.528 36.528 0 0 1 5.499 8.178 74.353 74.353 0 0 1-5.64 80.981 65.145 65.145 0 0 1-12.69 12.737 44.12 44.12 0 0 1-9.071 5.593s.705-.705 1.457-1.551z"/>
</svg>
