<svg xmlns="http://www.w3.org/2000/svg" width="200" height="200">
  <circle cx="100" cy="100" r="100" fill="#007bff"/>
  <path fill="#fff" d="M101.958 89.974a3.805 3.805 0 0 1 2.218.704v1.466a1.958 1.958 0 0 0-1.64-1.215c-1.177 0-1.32.588-1.313.888a1.468 1.468 0 0 0 .666.907 7.865 7.865 0 0 1 2.268 1.688 2.609 2.609 0 0 1 .54 1.524 3.043 3.043 0 0 1-3.155 2.88 4.048 4.048 0 0 1-2.209-.627v-1.56a1.967 1.967 0 0 0 1.689 1.235 1.56 1.56 0 0 0 1.726-1.44 1.507 1.507 0 0 0-.926-1.274 11.33 11.33 0 0 1-1.2-.752 2.773 2.773 0 0 1-1.302-2.345c-.016-1.163 1.248-2.08 2.638-2.08zM96.602 97.856a2.28 2.28 0 0 1-.96-.212 2.407 2.407 0 0 1-1.168-1.824c.82-.994 1.844-.781 3.136-2.142 1.708-1.786.444-3.677-1.891-3.677h-.02c-2.4.01-3.676 2.229-3.676 4.623a3.884 3.884 0 0 0 3.84 4.216c1.891 0 2.49-.694 2.49-.694l.01-1.419a1.988 1.988 0 0 1-1.761 1.13zm-1.022-7.159h.096c1.2 0 .897 1.727.52 2.422-.588 1.08-1.35 1.2-1.862 1.746.01.001-.278-4.053 1.246-4.168zM75.25 90.022c1.031 0 1.398.405 1.514 1.776 0 0 .36-1.727 1.814-1.727a1.16 1.16 0 0 1 1.187.627v1.486a1.787 1.787 0 0 0-1.39-.656 1.828 1.828 0 0 0-1.013.298 1.253 1.253 0 0 0-.568.888v4.318a2.23 2.23 0 0 0 .888 1.776h-2.316s-.705-.029-.705-1.765v-5.268c0-1.419-.81-1.756-.81-1.756zM71.544 87.204a1.062 1.062 0 1 1-1.08 1.06 1.07 1.07 0 0 1 1.08-1.06zM71.082 90.04c.492 0 1.524 0 1.524 1.969v5.04l.01.01a2.222 2.222 0 0 0 .897 1.766h-2.316c-.02 0-.72-.01-.72-1.746v-5.28c0-1.39-.8-1.746-.8-1.746h1.399zM55.912 97.462a1.523 1.523 0 0 1-1.68 1.38h-5.508s-.675-.048-.675-1.746l-.029-6.774a3.31 3.31 0 0 0-.946-2.52h5.588c2.856 0 3.087 1.958 3.087 1.958a6.204 6.204 0 0 0-3.811-.772l-1.708-.01a3.187 3.187 0 0 1 .251 1.342v1.2h1.201a2.66 2.66 0 0 1 2.484 1.503 3.444 3.444 0 0 0-1.785-.396c-.24 0-.473.01-.695.01-.647 0-1.206.009-1.206.009v3.72c.067.578.01 1.254.83 1.254h2.585c1.64 0 2.04-.82 2.04-.82zM66.42 97.056v-4.32a1.307 1.307 0 0 0-2.547-.36l.01 4.67a2.309 2.309 0 0 0 .888 1.79h-2.326s-.695-.009-.695-1.764V92.74a1.288 1.288 0 0 0-1.177-1.254 1.32 1.32 0 0 0-1.38.907v4.66a2.3 2.3 0 0 0 .888 1.784h-2.316s-.704-.029-.704-1.765v-5.265c0-1.418-.81-1.755-.81-1.755h1.409c1.44 0 1.476 1.64 1.476 1.64a2.35 2.35 0 0 1 2.239-1.7 2.474 2.474 0 0 1 2.431 1.68 2.26 2.26 0 0 1 2.113-1.659 2.318 2.318 0 0 1 2.615 2.326v4.737a2.272 2.272 0 0 0 .888 1.76h-2.326c-.01-.024-.666-.034-.675-1.78zM85.65 97.056v-4.93c0-1.178-1.312-2.095-2.7-2.095a3.812 3.812 0 0 0-2.18.647v1.534a1.943 1.943 0 0 1 1.688-1.216c1.177 0 1.263.588 1.263.878a1.28 1.28 0 0 1-.174.917c-.54.946-4.737 1.149-4.09 4.391a1.937 1.937 0 0 0 2.19 1.66 2.095 2.095 0 0 0 1.939-1.052c.154.975.656 1.032.656 1.032 1.216 0 2.316.01 2.316.01a2.27 2.27 0 0 1-.907-1.776zm-3.473.762a1.037 1.037 0 0 1-.907-1.11c0-2.19 1.8-2.5 2.28-3.078l.01 3.696a1.642 1.642 0 0 1-1.382.492zM87.88 97.123v-6.108l-1.477-.029a13.734 13.734 0 0 0 2.04-1.206 7.139 7.139 0 0 0 1.56-1.746v2.007h1.949l-.01 1.32a2.957 2.957 0 0 0-1.37-.347h-.569v6.089a2.188 2.188 0 0 0 .898 1.717h-2.316c-.001-.007-.706-.007-.706-1.697z"/>
  <path fill="#fff" d="M100.376 132.053c-.936.96-1.9 1.939-2.923 2.952-5.597 5.515-12.467 12.283-19.675 19.482-4.68-13.47-16.104-29.613-41.867-56.61l-2.441-2.538a4.192 4.192 0 0 1 .048-5.867l38.576-38.808c8.212 7.912 25.725 24.77 26.64 25.724 4.844 5.056 9.504 9.746 13.32 15.94a22.651 22.651 0 0 1 3.165 15.901h1.66a22.874 22.874 0 0 0-3.021-17.252c-3.608-5.819-7.892-10.276-12.438-15l-.946-.984c-1.18-1.25-29.624-28.613-30.84-29.771L69.412 45l-49.19 49.48-.222.222 1.64 1.688c31.157 32.208 44.019 50.37 47.453 67.002l.12.588.425-.425c10.208-10.296 20.465-20.417 28.261-28.088a220.869 220.869 0 0 0 3.367-3.406h-.89z"/>
  <path fill="#fff" d="M94.19 105.672a8.294 8.294 0 0 1 3.907.79 5.65 5.65 0 0 1 2.307 2.26 10.068 10.068 0 0 1 1.11 3.53 37.634 37.634 0 0 1-.077 9.9 10.2 10.2 0 0 1-1.273 3.697 5.58 5.58 0 0 1-2.422 2.16 9.096 9.096 0 0 1-3.84.72h-7.334v-23.067h7.622zm-.907 19.636a3.978 3.978 0 0 0 1.968-.416 2.88 2.88 0 0 0 1.177-1.39 8.152 8.152 0 0 0 .578-2.547q.146-1.578.146-3.937c0-1.313-.048-2.46-.12-3.455a8.488 8.488 0 0 0-.53-2.47 3.085 3.085 0 0 0-1.2-1.485 3.893 3.893 0 0 0-2.114-.502H91.22v16.211h2.065zM108.24 122.104a9.613 9.613 0 0 0 .12 1.504 4.957 4.957 0 0 0 .376 1.293 2.52 2.52 0 0 0 .676.907 1.619 1.619 0 0 0 1.032.337 1.818 1.818 0 0 0 1.65-.81 6.028 6.028 0 0 0 .72-2.45h4.004a7.016 7.016 0 0 1-1.611 4.622 6.162 6.162 0 0 1-4.68 1.583 7.417 7.417 0 0 1-3.783-.81 4.936 4.936 0 0 1-2.007-2.138 8.287 8.287 0 0 1-.791-2.973 37.888 37.888 0 0 1-.145-3.29 22.267 22.267 0 0 1 .24-3.36 8.16 8.16 0 0 1 .96-2.88 5.288 5.288 0 0 1 2.084-2.008 7.591 7.591 0 0 1 3.618-.743 7.111 7.111 0 0 1 3.184.628 4.753 4.753 0 0 1 1.949 1.776 7.28 7.28 0 0 1 .96 2.78 23.173 23.173 0 0 1 .26 3.636v1.004h-8.807v1.38zm4.429-5.79a4.585 4.585 0 0 0-.337-1.292 1.824 1.824 0 0 0-.676-.81 2.057 2.057 0 0 0-1.11-.28 1.885 1.885 0 0 0-1.11.31 2.192 2.192 0 0 0-.695.81 4.024 4.024 0 0 0-.377 1.119 6.588 6.588 0 0 0-.12 1.225v.676h4.56a24.787 24.787 0 0 0-.136-1.757zM123.783 105.672v23.064h-4.458v-23.064zM131.137 105.412v3.81h-4.458v-3.81zm0 5.943v17.379h-4.458v-17.379zM146.796 111.355l-4.361 17.377h-5.172l-4.487-17.377h4.651l2.49 12.438h.067l2.355-12.438zM151.814 122.104a9.612 9.612 0 0 0 .12 1.504 4.955 4.955 0 0 0 .377 1.293 2.513 2.513 0 0 0 .675.907 1.619 1.619 0 0 0 1.032.337 1.818 1.818 0 0 0 1.65-.81 6.028 6.028 0 0 0 .72-2.45h4.005a7.016 7.016 0 0 1-1.612 4.622 6.162 6.162 0 0 1-4.68 1.583 7.417 7.417 0 0 1-3.782-.81 5.016 5.016 0 0 1-2.017-2.138 8.287 8.287 0 0 1-.791-2.973 37.888 37.888 0 0 1-.145-3.29 22.262 22.262 0 0 1 .24-3.36 8.16 8.16 0 0 1 .96-2.88 5.288 5.288 0 0 1 2.084-2.008 7.591 7.591 0 0 1 3.618-.743 7.111 7.111 0 0 1 3.184.628 4.753 4.753 0 0 1 1.948 1.776 7.44 7.44 0 0 1 .96 2.78 23.176 23.176 0 0 1 .26 3.636v1.004h-8.818zm4.43-5.79a4.589 4.589 0 0 0-.338-1.292 1.824 1.824 0 0 0-.676-.81 2.04 2.04 0 0 0-1.11-.28 1.938 1.938 0 0 0-1.12.31 2.107 2.107 0 0 0-.694.81 4.022 4.022 0 0 0-.377 1.119 6.588 6.588 0 0 0-.12 1.225v.676h4.56a17.206 17.206 0 0 0-.123-1.757zM167.068 111.355v2.326h.068a6.29 6.29 0 0 1 1.65-2.017 3.72 3.72 0 0 1 2.354-.762c.12 0 .26.01.406.019s.28.029.405.048v4.265c-.24-.02-.473-.039-.695-.048s-.453-.02-.694-.02a4.356 4.356 0 0 0-1.158.165 3.136 3.136 0 0 0-1.062.53 2.736 2.736 0 0 0-.772.96 3.34 3.34 0 0 0-.29 1.467v10.43h-4.476v-17.363zM177.075 123.629a2.713 2.713 0 0 0 .6 1.824 2.15 2.15 0 0 0 1.727.695 2.486 2.486 0 0 0 1.65-.521 1.93 1.93 0 0 0 .618-1.554 1.637 1.637 0 0 0-.48-1.273 3.827 3.827 0 0 0-1.13-.695l-3.135-1.13a6.04 6.04 0 0 1-2.779-1.823 4.68 4.68 0 0 1-.936-3.02 5.616 5.616 0 0 1 .36-2.018 4.21 4.21 0 0 1 1.126-1.658 5.563 5.563 0 0 1 1.987-1.13 8.993 8.993 0 0 1 2.923-.424 6.608 6.608 0 0 1 4.487 1.292 4.633 4.633 0 0 1 1.457 3.647v.72h-4.005a3.571 3.571 0 0 0-.434-1.987 1.72 1.72 0 0 0-1.534-.628 2.342 2.342 0 0 0-1.466.473 1.649 1.649 0 0 0-.628 1.409 1.848 1.848 0 0 0 .406 1.167 3.054 3.054 0 0 0 1.533.869l2.682.907a6.066 6.066 0 0 1 2.973 1.853 5.04 5.04 0 0 1 .869 3.12 5.586 5.586 0 0 1-.48 2.4 4.73 4.73 0 0 1-1.342 1.698 5.178 5.178 0 0 1-2.04.96 10.907 10.907 0 0 1-2.596.29 11.393 11.393 0 0 1-3.12-.36 4.474 4.474 0 0 1-1.968-1.062 3.86 3.86 0 0 1-1.012-1.726 8.302 8.302 0 0 1-.29-2.28v-.618h4.005v.578z"/>
</svg>
