<svg xmlns="http://www.w3.org/2000/svg" viewBox="0 0 400 400">
<rect x="0" y="0" width="400" height="400" fill="#182663" />
<rect x="100" y="50" width="200" height="290" fill="#fff"/>
<g transform="scale(4.7, 4.7) translate(21, 9)">
    <path d="M39.9 6.11H3.6V59.18H39.9V6.11Z" fill="#182663"/>
    <path d="M18.55 38.41C19.04 25.28 26.17 13.65 36.88 6.10001H29.77C21.09 13.59 15.27 24.1 15.01 35.79C14.82 45.06 16.62 52.09 21.57 59.19H23.37C19.51 52.66 18.27 45.81 18.55 38.41Z" fill="white"/>
    <path d="M19.73 59.18C15.45 54.67 10.27 46.16 9.66 36.99C9.29617 31.4015 10.041 25.7962 11.8516 20.4966C13.6621 15.197 16.5028 10.3077 20.21 6.11H26.06C16.82 15.21 12.13 27.27 13.21 39.24C13.89 46.9 16.93 52.56 21.57 59.18H19.73Z" fill="#F5A800"/>
    <path d="M21.71 48.27C25.61 44.27 29.24 38.47 30.39 32.7C31.3681 27.6357 31.1455 22.4127 29.74 17.45C29.64 17.13 29.59 16.9 29.64 16.87C30.2455 17.657 30.7494 18.5171 31.14 19.43C32.6085 22.5573 33.3536 25.9752 33.32 29.43C33.245 34.6357 31.3806 39.6569 28.04 43.65C26.8762 45.0259 25.5305 46.237 24.04 47.25C23.1932 47.8462 22.2805 48.3429 21.32 48.73C21.32 48.73 21.47 48.51 21.71 48.27Z" fill="white"/>
    <path d="M21.58 48.39C24.4433 45.1741 26.3607 41.2284 27.12 36.99C27.6169 33.3735 27.2397 29.6907 26.02 26.25C25.94 26.02 25.89 25.87 25.93 25.85C26.3968 26.3745 26.7904 26.9598 27.1 27.59C28.5913 30.2693 29.2719 33.3242 29.0588 36.3832C28.8458 39.4422 27.7483 42.3733 25.9 44.82C25.1296 45.8438 24.2209 46.7558 23.2 47.53C22.6071 48.0032 21.959 48.4028 21.27 48.72C21.27 48.72 21.42 48.57 21.58 48.39Z" fill="#F5A800"/>
</g>

</svg>