<svg xmlns="http://www.w3.org/2000/svg" width="190" height="195">
  <path fill="#1F2931" d="M191.3 180.7c0 8.8-7.2 16-16 16H15.5c-8.8 0-16-7.2-16-16v-165c0-8.8 7.2-16 16-16h159.7c8.8 0 16 7.2 16 16v165" />
  <path fill="#FFF" d="M48.2 175.3l-12.8 1.3c.5 4 3.5 5.5 6.7 5.5h8.2c1.2 0 1.9.8 1.9 1.9v1.6H42c-5.7 0-10.5-3.7-10.5-11.3 0-6.5 4.5-10.9 10.9-10.9 4.6 0 8.4 2.8 9.4 7.1.8 2.7-.6 4.5-3.6 4.8m-2.3-2.9c1-.1 1.8-.3 2.2-.7.4-.4.3-1.1.1-1.7-.8-1.8-2.9-3.2-5.6-3.2-4.1 0-7 2.7-7 6.7-.1.1 9.8-1 10.3-1.1M92.8 163.6c1.2 0 2.1.6 2.1 1.8 0 1.2-.9 1.8-2.1 1.8h-8.9c-1.9.1-2.1 2-1.9 3.2.1.4.2.7.5.9.6.5 1.6.7 2.6.8l6.8 1.2c3.6.7 4.9 2.5 4.9 5.7 0 5-3.1 6.8-7.9 6.8H77.7V184c0-1.2.8-1.8 2.1-1.8h8.9c3.5 0 4.4-1.1 4.4-3 0-1.7-.5-2.4-2.8-2.8l-6.8-1.1c-3.5-.6-5-2.4-5.2-4.7-.3-3.4 1.1-7 5.8-7h8.7M117.2 171.4c0-3.9-1-7.8-6.8-7.8h-8c-1.3 0-2.1.6-2.1 1.8 0 1.2.8 1.8 2.1 1.8h7.5c2.6 0 3.5.6 3.5 2.5v.6c-.2 1.1-1.4 1.4-2.1 1.6-5.4 1.3-12.6-.1-12.6 7.6 0 4.1 3.5 6.5 8.3 6.5.1 0 4.8.2 6.6-2.2v.2c.1 1.2.7 1.9 1.9 1.9h1.6l.1-14.5m-3.8 6.4c0 3.8-2.1 5.1-5.7 5.1-3.3 0-5.1-1.2-5.1-3.8 0-1.9 1.6-3.2 3.6-3.5 2-.3 5-.5 7.2-1v3.2zM146.2 171.4c0-3.9-1-7.8-6.8-7.8h-8c-1.3 0-2.1.6-2.1 1.8 0 1.2.8 1.8 2.1 1.8h7.5c2.6 0 3.5.6 3.5 2.5v.6c-.2 1.1-1.4 1.4-2.1 1.6-5.4 1.3-12.6-.1-12.6 7.6 0 4.1 3.5 6.5 8.3 6.5.1 0 4.8.2 6.6-2.2v.2c.1 1.2.7 1.9 1.9 1.9h1.6l.1-14.5m-3.8 6.4c0 3.8-2.1 5.1-5.7 5.1-3.2 0-5.1-1.2-5.1-3.8 0-1.9 1.6-3.2 3.6-3.5 2-.3 5-.5 7.2-1v3.2zM124.8 157.6h-2.1c-1.9 0-1.7 1.7-1.7 1.7v26.5h3.8v-28.2M64.7 182.4c-2.9 0-4-.1-4-2.3v-13h3.4c1.2 0 2.1-.6 2.1-1.8 0-1.2-.9-1.8-2.1-1.8h-3.4v-5.9H58.3c-1.5.2-1.4 1.7-1.4 1.7v4.2h-1c-1.2 0-2.1.6-2.1 1.8 0 1.2.9 1.8 2.1 1.8h1V181c0 4.7 3.3 4.7 7.8 4.7H67v-1.5c0-1.1-.9-1.8-2.3-1.8M159.2 182.4c-2.9 0-4-.1-4-2.3v-13h3.4c1.2 0 2.1-.6 2.1-1.8 0-1.2-.9-1.8-2.1-1.8h-3.4v-5.9H152.8c-1.5.2-1.4 1.7-1.4 1.7v4.2h-1c-1.2 0-2.1.6-2.1 1.8 0 1.2.9 1.8 2.1 1.8h1V181c0 4.7 3.2 4.7 7.8 4.7h2.3v-1.5c-.1-1.1-.9-1.8-2.3-1.8M74.1 185.7v-22.2H72c-1.4 0-1.7.9-1.7 1.7v20.5h3.8M71.8 161.9c.9 0 1.4 0 1.9-.5.4-.4.4-1 .4-1.8v-1.9H72c-1.4 0-1.7.9-1.7 1.7v2.5h1.5" />
  <path fill="#C9CC00" d="M74.5 114.9c-2.3 0-4.2-.4-5.7-1.1-7.2-3.7-12.8-21.6-12.7-39.9.1-12 7.6-18.6 19-18.6 6.1 0 13.2 1.9 20.9 5.8 22 11.4 27.7 29.2 12.7 39.9-11.8 8.6-25.4 13.9-34.2 13.9m-2.7-78c-3.3 0-6.2.4-8.8 1.3-9.9 3-13.8 12.3-13 25.1.8 12.8 4.7 26.1 7.7 35.8 3.3 9.8 5.5 16 9.5 18.1 1.2.6 2.6.9 4.3.9 3.9 0 9-1.5 16-3.6 9.6-3.2 22.8-7.7 33.7-14.5 10.9-6.8 16.2-15.3 12.9-25.2-3-9.7-14.4-20.7-30.1-28.8-11.7-5.9-23.2-9.1-32.2-9.1M31.9 25.8c-5.7 7.4-5.8 19.5-2 34.5 5.3 21.1 14.4 42.5 18.6 56.8 4.9 14.6 4.9 22.1 6.8 23.1.2.1.4.1.7.1 2.5 0 8.8-3.9 22.1-7.9 14.1-4.8 36.8-9.7 57.1-17.7 14.3-5.6 24.1-12.7 26.9-21.4-4.5 6.1-12.8 11.3-23.8 15.6-20.3 7.9-43 12.9-57.1 17.7-13.3 4-19.6 7.9-22.1 7.9-.3 0-.5-.1-.7-.2-1.9-1-1.9-8.4-6.8-23.1C47.4 96.9 38.2 75.6 33 54.4c-3-11.5-3.6-21.3-1.1-28.6" />
  <path fill="#7BA02B" d="M56 11.8c-4.3 0-8.1.5-11.3 1.6-6.7 2-10.9 6.3-12.9 12.4 2.3-3 5.6-5.2 9.8-6.5 3.2-1.1 7-1.6 11.3-1.6 14.8 0 35.4 6.2 56.6 17.2 27.5 14.2 47.8 32.1 52 46.4 1.5 4.3 1.5 8.3.3 12 3.9-5.2 5-11.1 2.7-17.9-4.2-14.3-24.5-32.2-52-46.4C91.4 18 70.8 11.8 56 11.8" />
  <path fill="#4A6F2B" d="M162 93.2c.6-1.7.8-3.5.8-5.4 0-2.1-.4-4.3-1.1-6.6-4.2-14.3-24.5-32.2-52-46.4-21.3-11-41.9-17.2-56.6-17.2-4.3 0-8.1.5-11.3 1.6-4.3 1.3-7.5 3.5-9.8 6.5 2-6.1 6.2-10.4 12.9-12.4 3.2-1.1 7-1.6 11.3-1.6 14.8 0 35.4 6.2 56.7 17.2 27.5 14.2 47.8 32.1 52 46.4.8 2.3 1.1 4.5 1.1 6.6-.1 4.2-1.5 7.9-4 11.3" />
  <path fill="#7BA02B" d="M71.5 118.1c-1.7 0-3.1-.3-4.3-.9-4-2.1-6.3-8.3-9.5-18.1-3-9.7-6.9-23-7.7-35.8-.8-12.8 3.1-22.1 13-25.1 2.5-.8 5.5-1.3 8.8-1.3 9.1 0 20.6 3.2 32.1 9.2 15.7 8.1 27.2 19.1 30.1 28.8 3.3 9.8-2 18.4-12.9 25.2-10.9 6.8-24.1 11.3-33.7 14.5-6.9 2-12.1 3.5-15.9 3.5M53 17.7c-4.3 0-8.1.5-11.3 1.6-4.3 1.3-7.5 3.5-9.8 6.5-2.4 7.3-1.9 17.1 1 28.6 5.3 21.1 14.4 42.5 18.6 56.8 4.9 14.6 4.9 22.1 6.8 23.1.2.1.4.2.7.2 2.5 0 8.8-3.9 22.1-7.9 14.1-4.8 36.8-9.7 57.1-17.7 11-4.3 19.3-9.4 23.8-15.6 1.2-3.7 1.1-7.7-.3-12-4.2-14.3-24.5-32.2-52-46.4C88.4 23.8 67.8 17.7 53 17.7" />
</svg>
