<svg xmlns="http://www.w3.org/2000/svg" viewBox="0 0 800 800">
  <rect width="800" height="800" fill="#c18c1a" rx="150"/>
  <path fill="#00317e" d="M596.1 307.6c-7.3-3.9-14.2-8.6-20.6-13.9a24.7 24.7 0 0 1 18.7-15.8c8.3-.7 18.6 8.6 31.1 27.7-9.3 3.7-19.5 4.4-29.2 1.9m69.6-37.8c-14.8-29.3-30.1-44-45.7-44-20.1 0-39.7 13.4-58.9 40.2-16.9 24.6-24.9 45-23.9 61.3 1.1 11.7 7.6 22.3 17.4 28.7 10.3 8.1 23 12.4 36.1 12.4 14.5.8 28.7-3.9 39.7-13.4 3.8-5.8 7.8-11.3 12-16.7 6.5 7 11.1 15.6 13.4 24.9 2.1 6.1 3.9 12.3 5.3 18.6H500.5v65.1h182.1c2.6-3.8 4.5-19 5.7-45.5 1.3-20.7 1.8-34.3 1.4-40.7-1.4-31.7-9.6-62.7-24.1-90.9m-148.9 112h-39.3c-13.2 0-25.9-5.6-34.9-15.3-9-9.9-16.5-21-22.5-33-4.9-9.9-10.7-19.4-17.2-28.2-12.4 21.4-22.6 40.1-30.6 56 0-.3 5.4 7 16.2 22 10.8 15 16.3 25.7 16.3 32.1 0 7.6-6.1 17.5-18.2 29.7-9.9 8.9-20 18-30.1 27.3-23 21-46 31.6-68.9 31.6a66.53 66.53 0 0 1-36.6-11.7c-11.9-7.8-17.8-11.7-17.4-11.7-1.3 0-1.9 1.4-1.9 4.3 0 7.3 15.6 19.5 46.7 36.6s53.8 25.6 68.2 25.6c18.5 0 38.1-15.5 58.9-46.4 13.1-19.2 23.6-40.2 31.1-62.2 4.4 3.9 9.9 6.4 15.8 7.2 3.5.7 7 1.2 10.5 1.4h54.1v-65.1z"/>
  <path fill="#00317e" d="M354.1 309.5h167l31.1-66.5c-19.8 0-40 .5-60.8 1.4-20.7 1-32.2 1.4-34.5 1.4-5.4.5-10.9-.5-15.8-2.9-10.8-8.4-20.7-17.9-29.7-28.2-5.4-5.2-9.9-11.1-13.4-17.7 0-1.9 3.6-4.1 11-6.7 13.1-4.4 26.9-6.5 40.7-6.2 18-1.2 36 2.5 52.2 10.5 4.4 2.7 8.1 6.3 11 10.5 3.5 3.8 6 5.7 7.6 5.7s2.1-2.7 1.4-8.1c-.8-5.9-2.4-11.7-4.8-17.2-5.5-14.3-13.6-27.5-23.9-38.8a52.83 52.83 0 0 0-38.3-19.1c-16 0-34.3 10.7-55 32.1a169.09 169.09 0 0 0-27.3 34 59.7 59.7 0 0 0-13.4 34.9v15.8h-31.9v65.1h26.6m-21.7-65.1c-13.1 0-22.8-13.2-29.2-39.7-1.9-9.3-3.8-18.7-5.7-28.2a17.47 17.47 0 0 0-18.2-12c-10.8 0-21.8 7.3-33 22a546.3 546.3 0 0 0-29.7 47.9c-7.3 14.7-14.5 29.3-21.5 44a33.2 33.2 0 0 1-28.7 19.6c-7.3 0-15.3-6.2-23.9-18.7-27.3-49 18.6-63.8 32.3-69.8 19.9-10.7 2.3-9.2 2.3-9.2s-68.3 17.6-65.7 59.4c1.6 21.8 6 43.4 12.9 64.1 11.5 32.9 26.8 49.3 45.9 49.3 11.2 0 22-12.1 32.5-36.4 9.6-22.7 19-45.3 28.2-67.9 12.4-24.6 26.6-36.8 42.6-36.8 3.8 0 7.7 6.5 11.5 19.6 2.9 12.8 7.4 25.2 13.4 36.8a40.34 40.34 0 0 0 33.5 21.1h10.4v-65.1h-9.9zm280.9-138.3L554.2 165l58.9 58.9 59-58.9-59-58.9zm57.8 516.4h-60.2v-25.3c0-1.9.3-3.8.7-5.7.6-2.3 1.9-4.4 3.7-6 2.6-2.3 5.7-3.9 9-4.9 10.9-2.7 22.4-2.7 33.3 0 3.3.9 6.4 2.6 9 4.9 1.8 1.6 3.1 3.7 3.7 6 .5 1.9.7 3.8.8 5.7v25.3zm16.5 47v-72c0-3.1-.5-6.2-1.5-9.1a16.3 16.3 0 0 0-6.4-8c-4.3-2.8-9.1-4.7-14.1-5.7-16.3-2.9-33-2.9-49.3 0-5 1-9.8 2.9-14.1 5.7-3 1.9-5.2 4.7-6.4 8-1 2.9-1.5 6-1.5 9.1v72h16.5v-41.2h60.2v41.1h16.5zm-124.7-46.9h-60.2v-25.3c0-1.9.3-3.8.7-5.7.6-2.3 1.9-4.4 3.7-6 2.6-2.3 5.7-3.9 9-4.9 10.9-2.7 22.3-2.7 33.3 0 3.3.9 6.4 2.6 9 4.9 1.8 1.6 3.1 3.7 3.7 6 .5 1.9.7 3.8.8 5.7v25.3zm16.6 47v-72c0-3.1-.5-6.2-1.5-9.1a16.3 16.3 0 0 0-6.4-8c-4.3-2.8-9.1-4.7-14.1-5.7-16.3-2.9-33-2.9-49.3 0-5 1-9.8 2.9-14.1 5.7-2.9 1.9-5.2 4.7-6.4 8-1 2.9-1.5 6-1.5 9.1v72h16.5v-41.2h60.2v41.1h16.5zM473 572.5h-87.9v6.2h73.2v.3l-73.2 79.5v11.2H473v-6.2h-72.7l72.7-79.9v-11zm-117.5 50.2h-60.2v-25.3c0-1.9.3-3.8.7-5.7.6-2.3 1.9-4.4 3.7-6 2.6-2.3 5.7-3.9 9-4.9 10.9-2.7 22.3-2.7 33.3 0 3.3.9 6.4 2.6 9 4.9 1.8 1.6 3.1 3.7 3.7 6 .5 1.8.7 3.8.8 5.7v25.3zm16.6 47v-72c0-3.1-.5-6.2-1.5-9.1a16.3 16.3 0 0 0-6.4-8c-4.3-2.8-9.1-4.7-14.1-5.7-16.3-2.9-33-2.9-49.3 0-5 1-9.8 2.9-14.1 5.7-2.9 1.9-5.2 4.7-6.4 8-1 2.9-1.5 6-1.5 9.1v72h16.6v-41.2h60.2v41.1h16.5zm-137-90.7h36.2v-4.3c-2.1-.7-4.4-1.2-6.6-1.4-3.6-.4-7.1-.6-10.7-.5h-23.8c-3.8 0-8.3.2-13.6.7-5 .4-10 1.5-14.8 3-4.4 1.4-8.4 3.7-11.8 6.8-3.3 3.1-5 7.6-4.6 12.1v74.3h16.5v-46.1h32.2c3.6 0 7.2-.1 10.8-.6 2.2-.3 4.4-.8 6.5-1.5v-4.2h-49.5v-21.7c-.3-3.4.9-6.9 3.3-9.3 2.4-2.3 5.4-4 8.6-5 3.6-1.2 7.3-1.9 11-2.1 3.8-.3 7.3-.4 10.2-.4"/>
  <path fill="#fff" d="M402.7 237l-34.9 34.9 34.9 34.9 34.9-34.9-34.9-34.9z"/>
</svg>
