<svg viewBox="0 0 600 600" xmlns="http://www.w3.org/2000/svg">
<path d="M272.045 18.1044C289.349 8.13575 310.651 8.13579 327.955 18.1044L529.955 134.478C547.307 144.475 558 162.976 558 183.002V416.997C558 437.023 547.307 455.524 529.955 465.521L327.955 581.895C310.651 591.863 289.349 591.863 272.045 581.895L70.0452 465.521C52.6933 455.524 42 437.023 42 416.997L42 183.002C42 162.976 52.6933 144.475 70.0452 134.478L272.045 18.1044Z" fill="#05060F"/>
<path d="M524.963 143.143L322.963 26.7693C308.749 18.5808 291.251 18.5808 277.037 26.7693L75.0372 143.143C60.7838 151.355 52 166.552 52 183.002L52 416.997C52 433.447 60.7838 448.644 75.0371 456.856L277.037 573.23C291.251 581.418 308.749 581.418 322.963 573.23L524.963 456.856C539.216 448.644 548 433.447 548 416.997V183.002C548 166.552 539.216 151.355 524.963 143.143ZM327.955 18.1044C310.651 8.13579 289.349 8.13575 272.045 18.1044L70.0452 134.478C52.6933 144.475 42 162.976 42 183.002L42 416.997C42 437.023 52.6933 455.524 70.0452 465.521L272.045 581.895C289.349 591.863 310.651 591.863 327.955 581.895L529.955 465.521C547.307 455.524 558 437.023 558 416.997V183.002C558 162.976 547.307 144.475 529.955 134.478L327.955 18.1044Z" fill="#05060F"/>
<path d="M300 304C300 279.036 319.942 258.798 344.542 258.798C369.141 258.798 389.084 279.036 389.084 304C389.084 328.965 369.141 349.202 344.542 349.202C319.942 349.202 300 328.965 300 304Z" fill="#1ABCFE"/>
<path d="M210.918 394.403C210.918 369.44 230.86 349.202 255.46 349.202H300.002V394.403C300.002 419.368 280.06 439.605 255.46 439.605C230.86 439.605 210.918 419.368 210.918 394.403Z" fill="#0ACF83"/>
<path d="M300 168.395V258.798H344.542C369.142 258.798 389.084 238.561 389.084 213.597C389.084 188.633 369.142 168.395 344.542 168.395H300Z" fill="#FF7262"/>
<path d="M210.918 213.597C210.918 238.561 230.86 258.798 255.46 258.798H300.002V168.395H255.46C230.86 168.395 210.918 188.633 210.918 213.597Z" fill="#F24E1E"/>
<path d="M210.918 304C210.918 328.965 230.86 349.202 255.46 349.202H300.002V258.798H255.46C230.86 258.798 210.918 279.036 210.918 304Z" fill="#A259FF"/>
</svg>
