<svg version="1.1" viewBox="0 0 512 512" xmlns="http://www.w3.org/2000/svg" >
    <path d="M512,256c0,141.4-114.6,256-256,256S0,397.4,0,256S114.6,0,256,0C397.4,0,512,114.6,512,256z"
        fill="#F5F5F5" />
    <path
        d="M171.9,187.8c-37.9,0-68.7,30.5-68.7,68.1s30.7,68.1,68.7,68.1c37.9,0,68.7-30.5,68.7-68.1   S209.8,187.8,171.9,187.8z"
        fill="#0063DC" />
    <path
        d="M409.7,255.9c0,37.6-30.8,68.1-68.7,68.1s-68.7-30.5-68.7-68.1s30.8-68.1,68.7-68.1   C378.9,187.8,409.7,218.3,409.7,255.9z"
        fill="#FF0084" />
</svg>