<svg xmlns="http://www.w3.org/2000/svg" viewBox="0 0 95 95">
    <circle cx="47" cy="47" r="45" fill="#fff"/>
    <path d="M30.6 37c-0.9 0-1.7 0.8-1.7 1.7 0 0.9 0.8 1.7 1.7 1.7 0.9 0 1.7-0.8 1.7-1.7C32.4 37.8 31.6 37 30.6 37zM62 14.9c-0.9 0-1.7 0.8-1.7 1.7s0.8 1.7 1.7 1.7 1.7-0.8 1.7-1.7S62.9 14.9 62 14.9zM47.9 1.1C22 1.1 1 22 1 47.9c0 25.9 21 46.8 46.8 46.8 25.9 0 46.8-21 46.8-46.8C94.7 22 73.7 1.1 47.9 1.1zM31.9 67.3C26.5 62.8 23 56 23 48.4c0-2.8 0.5-5.5 1.3-8 0.3 0.4 0.8 0.7 1.4 0.7 0.9 0 1.7-0.8 1.7-1.7s-0.8-1.7-1.7-1.7c-0.1 0-0.2 0-0.3 0 4-8.4 12.5-14.1 22.4-14.1 13.7 0 24.8 11.1 24.8 24.8 0 10.2-6.1 18.9-14.9 22.7 0-0.1 0-0.3 0-0.4 0-0.9-0.8-1.7-1.7-1.7s-1.7 0.8-1.7 1.7c0 0.6 0.3 1.1 0.7 1.4 -2.3 0.7-4.7 1.1-7.3 1.1 -1.5 0-3-0.1-4.4-0.4l1.3-9.5c1 0.2 2.1 0.3 3.2 0.3 7.1 0 13.1-4.9 14.8-11.5 0.3 0.4 0.8 0.7 1.4 0.7 0.9 0 1.7-0.8 1.7-1.7 0-0.9-0.8-1.7-1.7-1.7 -0.4 0-0.7 0.1-1 0.3 0-0.5 0.1-1 0.1-1.4 0-8.4-6.8-15.3-15.3-15.3s-15.3 6.8-15.3 15.3c0 4.6 2 8.7 5.3 11.5L31.9 67.3zM35.2 48.3c0-7 5.6-12.6 12.6-12.6s12.6 5.6 12.6 12.6 -5.6 12.6-12.6 12.6c-0.9 0-1.9-0.1-2.7-0.3l1.5-11.5c0.3 0.4 0.8 0.7 1.4 0.7 0.9 0 1.7-0.8 1.7-1.7 0-0.9-0.8-1.7-1.7-1.7s-1.7 0.8-1.7 1.7c0 0.3 0.1 0.6 0.3 0.9l-7 8.8C36.8 55.5 35.2 52.1 35.2 48.3zM47.9 87.8c-2.2 0-4.3-0.2-6.4-0.5l1.6-12c1.6 0.3 3.2 0.4 4.8 0.4 15.2 0 27.5-12.3 27.5-27.5S63.1 20.6 47.9 20.6c-15.2 0-27.5 12.3-27.5 27.5 0 8.5 3.9 16.1 9.9 21.2l-7.5 9.4C13.9 71.5 8.3 60.5 8.3 48.2 8.3 26.3 26 8.6 47.9 8.6c21.9 0 39.6 17.7 39.6 39.6C87.5 70.1 69.8 87.8 47.9 87.8zM23.1 75.1c0.9 0 1.7-0.8 1.7-1.7 0-0.9-0.8-1.7-1.7-1.7 -0.9 0-1.7 0.8-1.7 1.7C21.4 74.3 22.1 75.1 23.1 75.1z"/>
</svg>