<svg xmlns="http://www.w3.org/2000/svg" version="1.1" viewBox="0 0 365 252">
	<path fill="#f8991d" d="M282.7 173.9H82.2V37.7h200.5v136.2c.1 0 0 0 0 0z" />
	<path fill="#fff" d="M143.3 51.1V58h-15.8v9.6h13v6.9h-13.1v15h-8.9V51.1h24.8zM159.4 75.2v14.3h-9V51h12.5c2.8 0 5.2.3 7.1.9 2 .6 3.6 1.3 4.8 2.4 1.3 1 2.2 2.3 2.7 3.6.6 1.3.9 2.8.9 4.5 0 1.3-.2 2.4-.5 3.5s-.8 2.2-1.5 3.1c-.7.9-1.4 1.8-2.4 2.6s-2.1 1.3-3.3 1.8c.6.3 1.1.7 1.7 1.1.6.5.9.9 1.3 1.6l8.2 13.4h-8c-1.5 0-2.6-.6-3.2-1.7l-6.4-11.1c-.3-.5-.7-.9-.9-1-.4-.3-.9-.3-1.6-.3l-2.4-.2zm0-6.1h3.6c1.2 0 2.3-.2 3.1-.5.9-.3 1.5-.8 2.1-1.3.6-.6.9-1.2 1.2-1.9.3-.8.4-1.5.4-2.4 0-1.7-.6-3-1.7-4s-2.8-1.4-5.1-1.4h-3.6v11.5zM213.1 51.1V58h-15.9v8.9h12v6.6h-12v9.2H213v6.9h-24.8V51.1h24.9zM245.4 51.1V58h-15.8v8.9h12v6.6h-12v9.2h15.8v6.9h-24.8V51.1h24.8z" class="st1"/>
	<path fill="#0e7089" d="M82.2 99.2h200.5v117.1H82.2z" />
	<path fill="#fee5b1" d="M153.8 155.5c0 4.2-.8 7.9-2.2 11.4s-3.4 6.4-6 9-5.7 4.5-9.4 6-7.7 2.2-12.1 2.2h-22v-57h22.1c4.4 0 8.4.8 12.1 2.2 3.7 1.4 6.8 3.4 9.4 6 2.6 2.6 4.5 5.5 6 9 1.3 3.3 2.1 7.1 2.1 11.2zm-13.7 0c0-2.8-.4-5.4-1.1-7.7-.8-2.3-1.8-4.3-3.1-5.8-1.3-1.6-3-2.8-5-3.7s-4.3-1.3-6.8-1.3h-8.9v36.6h8.9c2.6 0 4.8-.4 6.8-1.3s3.7-2.1 5-3.7c1.3-1.6 2.4-3.5 3.1-5.8 1-2 1.1-4.5 1.1-7.3zM172.5 127.1c.4.1.8.2 1 .3.3.2.7.3.9.7.3.3.7.7.9 1l27 34.2c-.1-1.1-.2-2.2-.3-3.2s-.1-2-.1-2.9v-30h11.6V184h-6.9c-1 0-1.9-.2-2.6-.5-.8-.3-1.3-.9-2-1.8l-26.8-33.9c.1.9.2 2 .2 2.9.1.9.1 1.8.1 2.7V184H164v-56.9h8.5zM258.7 138.6c-.4.7-.8 1.1-1.2 1.4-.5.3-.9.5-1.7.5-.7 0-1.3-.2-1.9-.6-.8-.4-1.4-.8-2.3-1.3-.9-.5-1.8-.9-3-1.3-1.1-.4-2.4-.6-3.8-.6-2.5 0-4.3.6-5.5 1.6s-1.8 2.5-1.8 4.3c0 1.1.4 2.1 1.1 2.8.8.8 1.7 1.4 2.8 2 1.2.6 2.6 1 4.1 1.5s3.1.9 4.7 1.5 3.1 1.2 4.7 2c1.5.8 2.8 1.8 4.1 2.8 1.2 1.2 2.2 2.6 2.8 4.3.7 1.7 1.1 3.7 1.1 6 0 2.6-.5 5.1-1.3 7.4-.9 2.3-2.3 4.3-4 6-1.8 1.7-3.9 3-6.4 4-2.5.9-5.4 1.4-8.7 1.4-1.8 0-3.6-.2-5.4-.6-1.8-.4-3.6-.9-5.4-1.5s-3.3-1.4-4.8-2.4c-1.5-.9-2.8-1.9-4-3l3.9-6.1c.3-.5.8-.9 1.2-1.1.6-.3 1.1-.4 1.7-.4.8 0 1.6.3 2.4.8s1.7 1 2.7 1.7 2.2 1.1 3.4 1.7c1.3.6 2.8.8 4.6.8 2.4 0 4.3-.6 5.6-1.6s2-2.7 2-5c0-1.3-.4-2.4-1.1-3.3-.8-.8-1.7-1.5-2.8-2.1-1.2-.6-2.6-1-4.1-1.4s-3-.9-4.6-1.3c-1.6-.5-3.1-1.1-4.6-1.9-1.5-.8-2.8-1.8-4.1-2.9-1.2-1.2-2.2-2.7-2.8-4.5-.8-1.8-1.1-4.1-1.1-6.7 0-2.2.4-4.3 1.3-6.2.9-2 2.2-3.8 3.8-5.4 1.7-1.6 3.8-2.8 6.1-3.8 2.4-.9 5.2-1.4 8.3-1.4 1.8 0 3.4.2 5.1.4 1.7.3 3.2.8 4.7 1.2 1.5.6 2.8 1.2 4.2 1.9 1.3.7 2.5 1.6 3.4 2.6l-3.4 5.8z" class="st3"/>
</svg>