<svg xmlns="http://www.w3.org/2000/svg" viewBox="0 0 512 512">
    <circle cx="256" cy="256" r="256" fill="#B5010F"/>
    <path fill="#fff" d="M416.065 112.72c17.941 17.934-31.795 96.765-40.204 105.173-8.408 8.396-29.765.672-47.702-17.265-17.941-17.933-25.67-39.294-17.261-47.702 8.408-8.413 87.23-58.145 105.167-40.204zM164.477 131.694c-27.39-15.541-66.36-32.828-78.759-20.43-12.566 12.559 5.358 52.41 21.059 79.85a168.398 168.398 0 0 1 57.7-59.42z"/>
    <path fill="#fff" d="M388.704 211.708c2.522 8.555 2.065 15.625-2.022 19.703-9.558 9.558-35.366-.612-58.628-22.758a116.013 116.013 0 0 1-4.817-4.552c-8.408-8.417-14.958-17.38-19.14-25.624-8.149-14.614-10.188-27.528-4.029-33.684 3.357-3.356 8.728-4.271 15.277-3.088a321.956 321.956 0 0 1 14.845-8.794c-22.485-11.727-48.046-18.353-75.168-18.353-89.94 0-162.86 72.906-162.86 162.86 0 89.937 72.92 162.851 162.86 162.851 89.945 0 162.864-72.914 162.864-162.851 0-29.047-7.624-56.287-20.945-79.9-2.883 5.248-5.681 10.061-8.237 14.19z"/>
</svg>
