<svg xmlns="http://www.w3.org/2000/svg" viewBox="0 0 250 250">
  <circle cx="125" cy="125" r="125" fill="#fff"/>
  <path fill="#2d3232" d="M195.75 134.59l-16.87-9.74a4.9 4.9 0 0 1-2.45-4.23v-19.48a11.36 11.36 0 0 0-5.68-9.83l-16.87-9.74a4.92 4.92 0 0 1-2.44-4.24V57.85a11.39 11.39 0 0 0-5.68-9.85l-22.55-13-22.55 13A11.39 11.39 0 0 0 95 57.85v19.48a4.92 4.92 0 0 1-2.44 4.24l-16.89 9.74a11.38 11.38 0 0 0-5.67 9.83v19.48a4.89 4.89 0 0 1-2.44 4.23l-16.88 9.74a11.41 11.41 0 0 0-5.68 9.84v26l22.55 13a11.34 11.34 0 0 0 11.35 0l16.87-9.74a4.91 4.91 0 0 1 4.89 0l16.87 9.74a11.37 11.37 0 0 0 11.36 0l16.87-9.74a4.91 4.91 0 0 1 4.89 0l16.87 9.74a11.34 11.34 0 0 0 11.35 0l22.55-13v-26a11.4 11.4 0 0 0-5.67-9.84zM145 57.85v19.48a11.39 11.39 0 0 0 5.68 9.83l16.87 9.74a4.91 4.91 0 0 1 2.45 4.24v19.48a11.38 11.38 0 0 0 5.67 9.83l16.87 9.74a4.9 4.9 0 0 1 2.45 4.24V163l-68.55-39.56V44.33l16.09 9.29a4.89 4.89 0 0 1 2.47 4.23zm-91.09 82.34l16.87-9.74a11.39 11.39 0 0 0 5.68-9.83v-19.48a4.9 4.9 0 0 1 2.44-4.24l16.87-9.74a11.39 11.39 0 0 0 5.68-9.83V57.85a4.91 4.91 0 0 1 2.44-4.23L120 44.33v79.11L51.47 163v-18.57a4.9 4.9 0 0 1 2.44-4.24zm121.73 37.7a4.91 4.91 0 0 1-4.89 0l-16.87-9.74a11.34 11.34 0 0 0-11.35 0l-16.87 9.74a4.91 4.91 0 0 1-4.89 0l-16.87-9.74a11.36 11.36 0 0 0-11.36 0l-16.87 9.74a4.91 4.91 0 0 1-4.89 0L54.7 168.6l68.51-39.6 68.51 39.56z"/>
</svg>
