<svg xmlns="http://www.w3.org/2000/svg" viewBox="0 0 200 200">
    <rect width="200" height="200" fill="#fff" rx="15"/>
    <path fill="#236ab3" d="M131.432 116.926c0 3.714-.992 8.017-3.877 11.829h8.146V69.264h-26.055v24.303c14.081 4.135 21.786 12.668 21.786 23.359z"/>
    <path fill="#236ab3" d="M86.389 91.443c5.887 0 11.351 1.308 15.54 2.355-8.874-1.476-22.618.65-29.707 5.953v29.004h26.057V95.749c5.638.969 9.908 3.133 12.515 4.795v28.211h5.654c-5.318 5.685-15.291 9.153-23.892 7.874v1.194c24.78 1.847 35.278-9.258 35.278-21.756 0-14.72-14.615-23.334-29.556-25.08V69.264H72.221v21.969c-16.885 3.2-33.399 12.686-33.399 28.38 0 24.157 35.715 39.124 66.832 39.124 47.238 0 83.598-21.581 83.598-51.875 0-36.68-52.506-62.843-93.732-62.843-47.236 0-82.016 28.366-82.016 58.673 0 15.683 9.321 28.838 21.075 37.988l.881-.552c-9.304-7.309-17.694-18.699-17.694-34.349 2.451-33.164 45.697-51.839 84.173-51.839 27.215 0 76.122 5.935 76.122 48.938 0 22.441-25.361 51.622-78.652 51.622-27.275 0-48.456-13.821-48.456-33.659 0-17.175 14.231-29.398 35.436-29.398z"/>
</svg>
