<svg xmlns="http://www.w3.org/2000/svg" viewBox="0 0 320 320">
    <circle cx="160" cy="160" r="160" fill="#fff"/>
    <path fill="#D02139" d="M105.868 162.332h10.96v10.776h5.988v-27.584h-5.984v10.8h-10.96v-10.8H99.88v27.584h5.988zm53.624-16.796v27.572h5.868v-13.432l7.768 7.872 7.772-7.872v13.432h5.864v-27.572l-13.636 13.58zm49.468 21.728h-11.72v-5.028h11.728v-5.828H197.24v-5.028h11.728v-5.856h-17.572v27.584h17.572zm-67.84-.312a7.624 7.624 0 1 0 .004-15.248 7.624 7.624 0 0 0 0 15.248zm13.752-7.624a13.752 13.752 0 1 1-27.5 0 13.752 13.752 0 0 1 27.5 0zm-32.82 58.164h-12.92v-8.512h12.84c5.6 0 5.68 8.512.08 8.512zm-12.92-25.94h12.92c5.6 0 5.52 8.508-.08 8.508h-12.84v-8.508zm22.52 12.968c2.592-1.932 3.84-4.812 3.84-8.164-.064-7.792-4.784-14.112-13.912-14.112h-21.7l.004 44.556h21.696c9.128 0 13.852-6.32 13.92-14.108 0-3.352-1.256-6.232-3.844-8.168zm31.876 12.36a12.352 12.352 0 1 1 .004-24.7 12.352 12.352 0 0 1-.004 24.704m0-34.616a22.266 22.266 0 1 0-.008 44.532 22.264 22.264 0 0 0 0-44.528"/>
    <path fill="#D02139" d="M81.952 82.336H238.18v73.292l-29.248 40.752-10.56-14.12h-11.28l16.32 21.816-16.32 22.732h11.16l10.84-15.132 20.304 27.152H81.952V82.336zM247.5 247.952l-32.888-43.976 23.568-32.9v.04l9.124-12.72V73.188H72.8h.008V247.96h174.46l.112-.008h.124z"/>
</svg>
