<svg xmlns="http://www.w3.org/2000/svg" viewBox="0 0 100 100">
  <circle cx="50" cy="50" r="50" fill="white" />
  <g transform="translate(9, 17)">
    <path fill="#e5322d" d="M54.648 2.2169989c-4.785 2.309-8.374 6.2-10.995 10.6120001C39.439 5.7449989 32.74-.00000107 22.594-.00000107 12.444-.00000107 0 8.6139989 0 23.164999c0 14.732 12.293 21.715 18.382 25.658 6.508 4.211 17.613 11.867 25.27 26.036 7.66-14.168 18.763-21.825 25.273-26.036 4.574-2.965 12.655-7.647 16.387-16.047L54.648 2.2169989zm-.367 31.3950001V5.9279989L81.965 33.610999H54.281z"/>
    <path fill="#fff" d="M81.965 33.61199893H54.281v-27.684z"/>
  </g>
</svg>