<svg xmlns="http://www.w3.org/2000/svg" viewBox="0 0 512 512">
  <circle cx="256" cy="256" r="256" fill="#fff"/>
  <path fill="#FF671F" d="M256 0C145.929 0 52.094 69.472 15.923 166.957h480.155C459.906 69.472 366.071 0 256 0z"/>
  <path fill="#046A38" d="M256 512c110.071 0 203.906-69.472 240.077-166.957H15.923C52.094 442.528 145.929 512 256 512z"/>
  <path fill="#06038D" d="M338.784 257.108c0-45.101-36.567-81.685-81.685-81.685-45.1 0-81.676 36.575-81.676 81.685s36.575 81.685 81.685 81.685 81.685-36.575 81.685-81.685z"/>
  <path fill="#fff" d="M311.644 304.674a4.488 4.488 0 1 1 5.797-6.825 73.617 73.617 0 0 0 5.092-8.755 4.48 4.48 0 0 1 3.45-8.245 73.915 73.915 0 0 0 2.61-9.64 4.48 4.48 0 0 1 1.19-8.882 74.655 74.655 0 0 0 .026-10.09c-.187 0-.349.026-.536.026a4.48 4.48 0 0 1-.603-8.908 72.42 72.42 0 0 0-2.584-9.8 4.463 4.463 0 0 1-6.061-2.95 4.48 4.48 0 0 1 2.66-5.321 73.219 73.219 0 0 0-5.006-8.721 4.48 4.48 0 0 1-5.95-6.672c.153-.153.34-.29.502-.425a76.953 76.953 0 0 0-7.14-7.183 4.514 4.514 0 0 1-6.8.527 4.514 4.514 0 0 1-.315-6.01 72.913 72.913 0 0 0-8.806-5.108 4.48 4.48 0 0 1-8.245-3.425 70.635 70.635 0 0 0-9.75-2.61 4.471 4.471 0 1 1-8.848-1.164 67.15 67.15 0 0 0-10.174 0 4.48 4.48 0 0 1-4.403 5.27 4.386 4.386 0 0 1-4.454-4.106 71.58 71.58 0 0 0-9.903 2.66 4.463 4.463 0 0 1-2.873 6.248 4.471 4.471 0 0 1-5.372-2.822 73.083 73.083 0 0 0-8.695 5.032 4.476 4.476 0 0 1-6.588 6.06c-.187-.186-.34-.399-.51-.611a77.01 77.01 0 0 0-7.182 7.199c.204.153.425.315.595.502a4.514 4.514 0 0 1 0 6.349 4.463 4.463 0 0 1-6.027.255 73.389 73.389 0 0 0-5.083 8.857 4.48 4.48 0 0 1-3.425 8.27 70.244 70.244 0 0 0-2.559 9.725 4.488 4.488 0 0 1-.45 8.933c-.23 0-.468 0-.68-.051a74.868 74.868 0 0 0 .025 10.149 4.48 4.48 0 0 1 1.19 8.883 72.336 72.336 0 0 0 2.652 9.792 4.469 4.469 0 0 1 3.451 8.245 69.54 69.54 0 0 0 5.066 8.67 4.463 4.463 0 0 1 5.865.399 4.514 4.514 0 0 1 0 6.35l-.391.365a72.318 72.318 0 0 0 7.14 7.114 4.514 4.514 0 0 1 6.69-.399c1.589 1.59 1.75 4.088.425 5.831a72.685 72.685 0 0 0 8.78 5.032c.051-.162.128-.289.213-.45a4.48 4.48 0 0 1 8.032 3.85 70.05 70.05 0 0 0 9.673 2.55 4.48 4.48 0 0 1 8.9.714v.425a66.75 66.75 0 0 0 10.064 0v-.425a4.48 4.48 0 0 1 8.908-.74 71.57 71.57 0 0 0 9.8-2.634 4.463 4.463 0 0 1 3.035-5.9 4.497 4.497 0 0 1 5.244 2.449 74.97 74.97 0 0 0 8.585-4.981 4.522 4.522 0 0 1 .476-5.763 4.514 4.514 0 0 1 6.35 0c.11.102.187.204.289.314a72.066 72.066 0 0 0 7.114-7.114l-.314-.29-.162-.025z"/>
  <path fill="#06038D" d="M259.93 226.151l-2.771-41.82-2.873 41.82s2.873 15.308 2.873 30.906c0-15.572 2.763-30.906 2.763-30.906zm-2.881 31.016c-15.598 0-30.906-2.872-30.906-2.872l-41.82 2.873 41.82 2.762s15.342-2.763 30.905-2.763zm.136-.059c11.016-11.007 23.8-19.89 23.8-19.89l27.608-31.51-31.595 27.532s-8.797 12.86-19.813 23.894v-.026zm-.162 0c-11.008-11.007-19.805-23.893-19.805-23.893l-31.594-27.54 27.608 31.518s12.784 8.882 23.8 19.89v.025zm10.965-29.112l8.355-41.055-13.787 39.584s-1.257 15.538-5.371 30.558c4.114-15.02 10.803-29.087 10.803-29.087zm18.233 40l41.08 8.348-39.576-13.77s-15.521-1.275-30.54-5.355c15.572 0 30.906 2.762 30.906 2.762l41.82-2.762-41.82-2.873s-15.3 2.873-30.906 2.873c-15.045 4.029-30.592 5.219-30.592 5.219l-39.652 13.566 41.106-8.143s14.093-6.613 29.138-10.642c-13.515 7.718-28.246 12.835-28.246 12.835l-34.884 23.23 37.68-18.334s11.934-9.988 25.45-17.706c-11.016 11.016-23.843 19.788-23.843 19.788l-27.54 31.595 31.518-27.617s8.849-12.75 19.865-23.766v.051c-7.803 13.464-17.918 25.245-17.918 25.245l-18.445 37.621 23.324-34.799s5.27-14.603 13.039-28.067v.051c-4.114 14.968-10.88 28.9-10.88 28.9l-8.245 41.114 13.668-39.61s1.377-15.41 5.431-30.379c0 .085.026.136.051.213-.051 15.47-2.873 30.54-2.873 30.54l2.873 41.82 2.771-41.82s-2.72-15.07-2.771-30.515c3.953 14.943 5.219 30.201 5.219 30.201l13.464 39.678-8.007-41.132s-6.647-13.829-10.676-28.772v-.213c7.692 13.498 12.86 28.067 12.86 28.067l23.129 34.935-18.233-37.731s-10.004-11.807-17.73-25.27v-.077c10.99 11.016 19.838 23.74 19.838 23.74l31.518 27.617-27.54-31.595s-12.8-8.772-23.817-19.762v-.026c13.464 7.803 25.347 17.842 25.347 17.842l37.57 18.547-34.748-23.426s-14.679-5.16-28.169-12.963c15.02 4.114 29.07 10.804 29.07 10.804l-.085-.085zm-29.087-10.752zm-.051-.025v-.026.026zm0 .05v-.025.026zm.076.264s-.025-.127-.051-.187v-.051s0 .051.026.051v.187h.025zm0-.212s0-.051-.025-.051v-.026l.025.026v.085-.034zm0-.077l-.034-.025v.025h.026z"/>
  <path fill="#06038D" d="M257.023 257.168c-15.045-4.114-29.061-10.914-29.061-10.914l-41.098-8.245 39.602 13.676s15.512 1.369 30.532 5.483h.025zm.162-.026c13.54-7.727 28.194-12.937 28.194-12.937l34.935-23.137-37.731 18.232s-11.883 10.09-25.398 17.808v.026zm-.162-.06c-7.718-13.54-12.835-28.27-12.835-28.27l-23.23-34.884 18.334 37.68s9.988 11.934 17.731 25.449v.026z"/>
  <path fill="#06038D" d="M257.185 257.108c7.803-13.49 17.867-25.372 17.867-25.372l18.521-37.57-23.426 34.756s-5.185 14.705-12.988 28.195h.026zm-.162.034c-13.49-7.803-25.322-17.969-25.322-17.969l-37.62-18.445 34.807 23.316s14.646 5.27 28.135 13.064v.026zm.162.026c15.045-4.038 30.566-5.33 30.566-5.33l39.678-13.464-41.132 8.016s-14.068 6.74-29.113 10.752v.026zm-.137-.085c-4.029-15.045-5.185-30.592-5.185-30.592l-13.574-39.652 8.143 41.106s6.613 14.093 10.65 29.138h-.034z"/>
</svg>
