<svg version="1.1" xmlns="http://www.w3.org/2000/svg" viewBox="0 0 100 100">
	<path fill="#ccc" d="M95,50c0,1.6-0.1,3.2-0.2,4.8c-2.1,19.7-16.9,35.6-36,39.4C55.9,94.7,53,95,50,95C25.2,95,5,74.8,5,50
		C5,25.1,25.2,5,50,5S95,25.1,95,50z"/>
	<path fill="#aaa" d="M94.8,54.8c-2.1,19.7-16.9,35.6-36,39.4l-24-19.5l0.5-0.9l2.3-3.9l23-39.6l3.3-5.7l0.2-0.3L94.8,54.8z"/>
	<path fill="#1A1A1A" stroke="#1A1A1A" stroke-width="0.55" stroke-miterlimit="10" d="M61.6,76.4H38.4c-1.8,0-3.3-1.5-3.3-3.3V26.9c0-1.8,1.5-3.3,3.3-3.3h23.1c1.8,0,3.3,1.5,3.3,3.3v46.2
		C64.9,74.9,63.4,76.4,61.6,76.4z"/>
	<circle class="#ccc" cx="50" cy="72.6" r="2"/>
	<circle class="#ccc" cx="50" cy="25.7" r="0.4"/>
	<circle class="#ccc" cx="45" cy="27.9" r="0.7"/>
	<path fill="#cc" stroke="#cc" stroke-width="0.4" stroke-linecap="round" stroke-linejoin="round" stroke-miterlimit="10" d="M52.3,28.4h-4.6c-0.2,0-0.3-0.1-0.3-0.3l0,0c0-0.2,0.1-0.3,0.3-0.3h4.6c0.2,0,0.3,0.1,0.3,0.3l0,0
		C52.6,28.3,52.4,28.4,52.3,28.4z"/>
	<rect x="37.3" y="30.2" fill="#606060" stroke="#606060" stroke-width="0.55" stroke-miterlimit="10" width="25.3" height="39.6"/>
</svg>
