<svg viewBox="0 0 400 400" version="1.1" xmlns="http://www.w3.org/2000/svg">
    <rect width="400" height="400" fill="#2795ee" />
    <path fill="#ffffff" opacity="1.00" d=" M 204.56 88.52 C 220.61 84.90 237.52 85.27 253.40 89.56 C 280.59 96.68 304.43 115.97 316.59 141.37 C 321.24 151.26 324.40 161.91 325.39 172.81 C 325.74 176.44 325.48 180.12 326.11 183.73 C 328.84 185.84 332.08 187.15 334.93 189.10 C 347.91 197.79 357.84 211.19 361.72 226.38 C 366.12 242.85 363.55 261.08 354.53 275.57 C 342.81 294.98 320.59 307.25 297.97 307.32 C 236.65 307.38 175.32 307.32 114.00 307.35 C 110.00 307.36 105.99 307.42 102.00 307.16 C 86.43 306.16 71.17 299.92 59.67 289.32 C 46.43 277.39 38.19 259.93 38.08 242.04 C 37.56 224.40 45.03 206.90 57.67 194.66 C 60.71 191.27 64.83 189.09 67.96 185.81 C 67.87 181.23 66.81 176.67 67.39 172.07 C 68.62 156.59 78.29 142.22 91.96 134.95 C 103.42 128.63 117.43 127.26 129.92 131.07 C 133.39 132.09 136.55 133.91 139.99 135.01 C 142.12 133.04 143.43 130.40 145.07 128.04 C 159.04 108.06 180.73 93.71 204.56 88.52 M 218.39 96.43 C 189.42 98.92 161.81 116.23 148.16 142.10 C 146.77 144.48 145.25 147.77 142.00 147.66 C 139.37 147.21 137.23 145.38 134.91 144.15 C 120.75 135.57 101.18 137.90 89.13 149.14 C 80.18 157.30 75.30 170.17 77.94 182.16 C 78.29 184.92 79.64 187.84 78.61 190.59 C 77.10 192.46 74.97 193.67 73.02 195.04 C 60.36 203.32 51.34 216.97 48.78 231.89 C 46.40 246.28 49.91 261.63 58.66 273.34 C 67.60 285.63 81.57 294.06 96.55 296.48 C 103.63 297.71 110.84 297.30 118.00 297.34 C 175.00 297.34 232.00 297.34 289.00 297.35 C 296.82 297.44 304.78 297.51 312.37 295.32 C 329.93 290.72 345.11 277.21 350.92 259.91 C 354.19 250.52 354.69 240.22 352.46 230.54 C 348.78 213.96 336.58 199.71 321.11 192.90 C 319.03 191.75 315.96 190.81 315.85 187.97 C 315.40 183.97 315.90 179.93 315.65 175.92 C 313.87 149.54 298.66 124.72 276.41 110.57 C 259.39 99.49 238.59 94.60 218.39 96.43 Z" />
    <path fill="#ffffff" opacity="1.00" d=" M 151.40 182.54 C 160.66 181.02 170.01 184.20 177.66 189.31 C 189.36 197.04 198.43 207.89 207.86 218.09 C 216.01 227.57 224.18 237.21 234.28 244.69 C 240.47 249.13 247.96 252.81 255.79 251.56 C 269.82 249.98 281.54 237.17 281.76 223.03 C 282.42 210.93 274.64 199.20 263.60 194.47 C 254.11 190.55 242.41 191.68 234.43 198.40 C 230.32 201.29 227.86 205.96 223.69 208.74 C 219.44 210.76 215.04 205.48 217.72 201.66 C 224.63 191.93 235.01 183.76 247.21 182.48 C 258.45 181.05 270.24 184.72 278.62 192.37 C 286.61 199.60 291.56 210.16 291.76 220.95 C 292.16 233.37 286.27 245.81 276.43 253.38 C 267.70 260.12 255.98 263.45 245.12 260.91 C 234.33 258.18 225.34 251.08 217.53 243.44 C 208.81 234.82 200.69 225.61 192.70 216.32 C 184.62 207.65 176.15 198.63 165.05 193.89 C 153.42 189.16 139.64 194.66 132.62 204.62 C 125.06 214.80 125.23 229.97 133.08 239.94 C 139.67 248.89 151.46 253.49 162.37 251.25 C 168.68 249.98 174.31 246.31 178.60 241.59 C 180.56 239.55 182.21 237.18 184.49 235.48 C 187.28 233.62 191.65 235.76 191.77 239.17 C 192.12 241.24 190.68 242.98 189.49 244.50 C 183.76 251.31 176.74 257.50 168.03 260.05 C 154.22 264.47 138.25 260.16 128.27 249.71 C 116.63 238.06 113.70 218.90 121.19 204.26 C 126.81 192.58 138.55 184.16 151.40 182.54 Z" />
</svg>
