<svg xmlns="http://www.w3.org/2000/svg" viewBox="0 0 25 25">
  <circle cx="12.5" cy="12.5" r="12.5" fill="#fff"/>
  <path fill="#17b2e7" d="M23.5 12.437c-.073.235-.232.408-.402.577-1.141 1.138-2.279 2.28-3.418 3.42-.41.411-.849.41-1.261-.003l-3.526-3.53c-.4-.401-.4-.839.002-1.241l3.545-3.55c.385-.385.837-.385 1.221 0 1.146 1.146 2.291 2.294 3.438 3.439.171.17.329.343.401.579v.309zM12.17 23.461c-.234-.074-.404-.236-.573-.407-1.136-1.142-2.276-2.281-3.415-3.422-.407-.408-.408-.844-.001-1.251l3.536-3.54c.392-.392.841-.393 1.231-.003l3.535 3.54c.405.406.406.85.003 1.253-1.148 1.151-2.299 2.299-3.445 3.452-.164.165-.332.314-.561.378h-.31zM8.034 9.454c0-1.311.012-2.624-.007-3.935-.006-.38.085-.677.375-.927.233-.202.44-.434.658-.653l2.592-2.596c.407-.406.845-.406 1.251.001l3.526 3.529c.404.404.404.849 0 1.253l-4.171 4.177-3.683 3.688c-.228.228-.429.175-.512-.141-.026-.097-.027-.203-.028-.305l-.001-4.091zm-2.811 2.843c0 1.205.002 2.409-.002 3.613a.988.988 0 0 1-.06.341c-.08.21-.231.235-.388.078a3464.727 3464.727 0 0 1-3.574-3.581.61.61 0 0 1-.002-.899l3.527-3.568c.078-.079.151-.185.283-.135.127.047.176.161.194.288.011.078.021.158.021.237v3.626h.001z"/>
</svg>
