<svg xmlns="http://www.w3.org/2000/svg" viewBox="0 0 512 512">
  <circle cx="256" cy="256" r="256" fill="#ca4638"/>
  <path fill="#fff" d="M356.5 235.5c-19.5-6.5-31.7-10.2-31.7-26.1 0-13 9.3-22.3 22.3-22.3 10.2 0 17.7 4.7 24.2 14 .9.9 1.9.9 2.8.9l19.5-10.2.9-.9V189c-10.2-19.5-26.1-28.9-46.5-28.9-31.7 0-52.1 19.5-52.1 51.2s19.5 44.7 56.8 56.8c21.4 7.4 30.7 11.2 30.7 27 0 17.7-14.9 30.7-36.3 29.8-21.4-.9-28.9-13-37.2-32.6-14-33.5-29.8-72.6-30.7-72.6-15.8-38.2-48.4-60.5-87.5-60.5-52.1 0-95 43.8-95 98.7 0 54 42.8 98.7 95 98.7 28.9 0 54.9-13 73.5-36.3.9-.9.9-1.9 0-2.8l-12.1-28.9c0-.9-.9-.9-1.9-.9-.9 0-1.9 0-1.9.9-11.2 22.3-33.5 36.3-57.7 36.3-36.3 0-65.2-30.7-65.2-68s39.1-68 74.5-68c26.1 0 40 15.8 49.3 40l29.8 69.8 3.7 7.4c13 32.6 32.6 46.5 63.3 46.5 36.3 0 64.2-25.1 64.2-58.6s-17.7-45.6-48.4-56.8c-.7.2-3.5-.7-6.3-1.7z"/>
</svg>
