<svg xmlns="http://www.w3.org/2000/svg" viewBox="0 0 1200 1200">
  <rect width="1150" height="1150" fill="#fff" rx="100"/>
  <path fill="#26b14c" d="M269.44 365.48c1.99-1.91 4.97-1.39 7.48-1.56 11.82.16 23.64-.02 35.46.15-54.3 58.47-109.01 116.55-163.35 174.97-6.64 6.37-12.28 13.69-18.92 20.07-24.24 26.17-48.7 52.13-73.03 78.21-.2-12.79.02-25.59-.16-38.39.12-2.8-.29-6.04 1.79-8.27 67.06-71.57 133.98-143.29 201.03-214.9 3.25-3.41 6.15-7.16 9.7-10.28zm767.59 154.57c18.3-19.36 36.24-39.07 54.73-58.25.08 13.76.07 27.52.07 41.28.31 5.05-4.45 7.99-7.36 11.39-62.5 66.83-125.03 133.64-187.49 200.49-5.62 5.41-10.27 11.72-15.95 17.05-2.55 2.81-6.61 2.19-10.01 2.32-11.4-.19-22.81.08-34.21-.2 66.73-71.36 133.53-142.68 200.22-214.08z"/>
  <path fill="#363837" d="M294.52 419.71c9.16-.6 18.35 0 27.48.82 14.37 1.15 28.67-1.8 43.05-.98.06 1.61.12 3.23.19 4.85-6.46 1.8-13.58 1.87-19.42 5.47-4.95 3.66-4.33 10.61-4.92 16.07-.12 32.71-.04 65.42-.04 98.12.22 5.52.74 12.88 6.74 15.22 6.88 2.29 14.29.77 21.4 1.21 10.97.61 22.85-1.61 31.06-9.42 7.24-7.14 11.51-16.54 16.38-25.3 1.74.64 3.48 1.3 5.21 1.99-3.41 13.52-6.42 27.13-8.56 40.91-15.32-1.41-30.7-.79-46.05-1.26-16.34-.44-32.68.37-49.03.28-7.62-.1-15.21.94-22.84.75.04-1.84.1-3.67.19-5.5 6.31-1.07 13.07-1.55 18.65-4.98 4.66-2.91 5.31-8.94 5.42-13.93-.04-33.69-.02-67.37-.01-101.06-.23-4.48-.41-9.99-4.51-12.8-5.61-4.08-12.91-3.48-19.18-5.75-.55-1.54-.85-3.14-1.21-4.71zm668.22 30.61c6.45-2.26 13.75-2.4 20.18.02-2.85.59-5.73.97-8.61 1.27 0 6.75.01 13.5-.04 20.25l-2.85-.08c.03-6.73.02-13.46-.03-20.18-2.91-.31-5.81-.7-8.65-1.28zm22.57-1.23c1.4.07 2.82.15 4.24.23 2.21 6.3 4.46 12.59 6.83 18.84 2.03-6.26 4.2-12.48 6.18-18.76 1.56-.11 3.12-.22 4.71-.33.05 6.29.29 12.59.09 18.88.1 1.97-1.26 3.5-2.28 5.02-.94-6.3-.23-12.7-.96-19.01-2.45 5.81-4.2 11.88-6.28 17.84-.75.03-2.26.09-3.01.13-1.99-5.59-3.73-11.28-6.32-16.63-.46 5.51-.34 11.03-.36 16.55l-2.89-.04c-.01-7.57-.06-15.15.05-22.72zm-303.93 26.3c2.79-1.83 5.79-3.32 9.04-4.15.21 5.06-.18 10.13-.59 15.18 7.2-5.74 14.66-12.07 24.08-13.5 10.48-1.51 22.7.86 29.47 9.68 6.18 7.66 6.93 17.95 6.86 27.4-.04 12.69-.04 25.38-.03 38.07.04 3.92.26 8.49 3.37 11.32 3.68 2.79 8.45 3.26 12.77 4.48-.1 1.6-.18 3.2-.26 4.81-7.74.63-15.38-1-23.09-1.06-8.92-.32-17.75 1.94-26.67.91.45-1.54.84-3.11 1.53-4.57 3.31-1.77 7.58-1.97 10.16-4.96 2.52-3.41 2.37-7.9 2.48-11.93-.05-13.71.02-27.42-.03-41.13-.01-6.35-1.73-13.39-7.09-17.35-4.34-3.39-10.12-3.48-15.36-3.12-6.53.42-12.21 4.38-16.65 8.93-2.2 1.88-1.84 4.95-1.93 7.53.12 14.36.04 28.72.05 43.07.14 4.45.33 9.14 2.34 13.21 2.14 3.74 7.02 3.77 10.48 5.64 1.2 1.24.95 3.23 1.45 4.81-8.63.76-17.15-1.27-25.76-1.04-7.92.04-15.76 1.69-23.69 1.05.03-1.67.07-3.35.13-5.02 4.28-1.13 9.06-1.66 12.56-4.64 3.13-3.07 3.47-7.82 3.66-11.96.01-14.03-.08-28.07.03-42.1-.08-4-.08-8.56-2.87-11.74-3.05-2.5-7.21-2.77-10.88-3.77-.08-1.42-.16-2.83-.22-4.24 8.47-2.55 17.15-4.99 24.66-9.81zm119.84-.19c11.57-5.09 25.12-3.94 36.51 1.06 3.99 1.63 7.13 4.95 11.29 6.15 6.71.69 13.46-.19 20.19-.07.36 3.59 2 8.1-.91 11.04-4.85.74-9.76-.46-14.62-.47 2.69 9.28 3.13 19.63-1.35 28.45-5.43 10.25-15.67 18-27.19 19.87-9.09 1.99-18.96-1-27.55 3.39-2.52 1.17-5.61 3.83-4.17 6.91 1.99 4.83 7.87 6.15 12.55 6.67 12.13.33 24.33-.18 36.42 1.18 8.75 1.06 17.83 4.72 23 12.18 4.83 7.22 4.18 16.87.69 24.51-5.96 12.16-17.75 20.47-30.01 25.52-.08-2.52-.12-5.04-.16-7.56 6.27-3 12.7-6.63 16.5-12.67 3.16-5.36 3.96-12.75.24-18.04-3.69-4.61-10.06-5.29-15.53-5.8-14.22-.96-28.6.74-42.71-1.91-7.31-1.45-15.51-3.58-19.92-10.14-3.59-5-3.29-12.44 1.09-16.86 5.78-5.85 13.84-8.54 21.58-10.66-8.28-5.09-15.92-12.41-18.08-22.24-3.92-16.59 7.2-33.76 22.14-40.51m11.16 4.24c-5.99 1.8-9.44 7.85-11.09 13.51-2.44 9.32-2.66 19.26-.61 28.68 1.3 5.87 5.21 11.95 11.52 13.12 4.59.66 9.79.96 13.85-1.71 4.76-3.34 7.45-8.9 8.41-14.51 1.4-8.54 1.61-17.36-.18-25.85-1.14-5.21-4.08-10.49-9.2-12.63-4.03-1.52-8.55-1.63-12.7-.61zm103.35-6.67c10.69-1.2 22.14.95 30.66 7.83 8.68 7.14 15.8 18.02 13.86 29.73-20.81.28-41.63.06-62.44.12-2.3 9.83-1.49 20.22 1.91 29.69 2.35 6.35 6.74 12.22 12.98 15.16 10.18 4.88 22.78 4.53 32.59-1.12 5.29-2.7 9-7.5 13.85-10.81.42 2.89 1.17 6.24-1.08 8.61-7.38 9.35-17.51 17.33-29.44 19.58-8.76 1.22-18.01.65-26.1-3.15-16.61-7.9-28.01-25.89-27.29-44.38-1.08-16.69 6.69-33.65 20.07-43.7 5.91-4.41 13.09-6.97 20.43-7.56m-5.15 9.82c-7.06 5.22-10.49 13.79-12.18 22.13 8.54-.22 17.06-1.06 25.61-.77 5.21-.08 10.96.45 15.6-2.39 3.06-3.23 1.25-8.16-.31-11.69-4.68-10.5-19.61-14.16-28.72-7.28zm-438.21-8.22c12.21-1.43 25.42-.54 36.06 6.19 12.54 7.58 21.43 20.99 23.13 35.58.37 4.95.34 9.93.09 14.88-1.46 17.46-13.8 33.36-30.24 39.33-9.04 3.33-18.88 3.39-28.36 2.61-13.54-1.33-26.04-9.1-33.77-20.19-8.19-12.2-9.71-27.9-6.57-42 4.14-18.68 20.67-33.92 39.66-36.4m8.76 6.02c-4.96.24-9.97 1.72-13.91 4.81-6.15 4.67-9.9 11.85-11.82 19.21-3.57 13.56-3.44 28.09.69 41.51 2.35 7.38 6.92 14.37 13.85 18.14 9.84 5.21 23.22 2.98 30.37-5.73 7.78-9.56 9.91-22.34 10.12-34.33-.25-11.58-2.3-23.71-9.14-33.35-4.56-6.42-12.26-10.41-20.16-10.26zm55.07-1.78c12.05.01 23.79-2.83 35.59-4.88.79 21.42.12 42.88.34 64.32.08 6.66 1.65 14.35 7.67 18.19 10.16 6.13 23.89 2.69 31.67-5.75 1.94-1.95 1.56-4.91 1.72-7.41-.11-15.05-.01-30.09-.05-45.13-.18-3.93-.18-8.82-3.77-11.31-3.99-2.44-8.88-2.12-13.37-2.34.09-1.89.2-3.78.33-5.66 12.17-.02 24.02-2.93 35.96-4.83.57 19.39.11 38.79.25 58.19.18 7.13-.61 14.43 1.05 21.43 2.15 4.67 8.16 4.75 12.46 6.1l.12 4.37c-8.01 1.3-16.24 2.21-23.72 5.57-3.19 1.46-6.34 3.03-9.69 4.13-.05-5.09.24-10.18.13-15.28-7.36 5.48-14.67 12.01-24.07 13.44-7.92.92-16.53.23-23.3-4.35-7-4.8-12.14-12.74-12.33-21.37-.14-14.7.13-29.4-.08-44.1-.49-4.77-.43-9.95-2.89-14.2-3.69-3.87-9.65-3.01-14.49-3.44.13-1.9.29-3.79.47-5.69zm66.43 122.55c3.01-.02 6.02-.03 9.04-.03.14 15.22-.3 30.44.25 45.65 5.44-5.18 10.39-10.85 15.71-16.16 6.87-7.46 14.41-14.27 21.06-21.94 2.41-2.54 4.61-5.46 7.73-7.2 3.55-.7 7.2-.33 10.8-.38-10.7 11.65-22.34 22.4-33.15 33.95 5.39 6.9 11.05 13.59 16.39 20.52 5.89 7.74 12.47 14.94 17.95 22.99-3.3 0-6.63.31-9.89-.25-4.02-2.89-6.53-7.37-9.75-11.05-6.72-8.86-13.89-17.36-20.74-26.11-4.25 4.04-8.34 8.25-12.49 12.39-1.68 1.82-3.84 3.7-3.8 6.4-.31 6.23.04 12.47-.1 18.71-3.02-.07-6.04-.11-9.06-.19 0-25.76-.08-51.53.05-77.3zm79.66-.01c18.71-.01 37.42-.05 56.13.02.01 2.66.01 5.32.01 7.99-15.86.15-31.73-.08-47.59.13-.14 8.66-.09 17.33-.04 26 14.12.08 28.24.02 42.36.03l.06 7.98c-14.12.16-28.24-.05-42.35.11-.19 8.94-.11 17.88-.07 26.83 16 .19 31.99.02 47.99.09-.02 2.74-.02 5.49-.03 8.25-18.82 0-37.64-.02-56.45.01-.04-25.82-.01-51.63-.02-77.44z"/>
  <path fill="#363837" d="M748.71 601.12c3.29.01 6.62-.26 9.9.27 3.8 3.33 5.75 8.22 8.79 12.2 6.31 8.45 11.5 17.67 17.85 26.1 5.42-7.44 10.27-15.29 15.75-22.69 3.74-4.99 6.36-10.82 10.65-15.38 3.37-.88 6.92-.45 10.38-.56-9.26 12.81-17.93 26.03-27.14 38.87-2.21 3.36-5.22 6.69-4.99 10.98-.12 9.23.11 18.46-.05 27.7-3.05-.03-6.1-.04-9.14-.04-.27-9.21.04-18.43-.11-27.64.11-3.09-1.72-5.69-3.36-8.13-9.45-13.93-19.37-27.54-28.53-41.68z"/>
</svg>
