<svg xmlns="http://www.w3.org/2000/svg" viewBox="0 0 1000 1000">
  <circle cx="500" cy="500" r="500" fill="#fff"/>
  <path d="M145.9 250s53.3-3.2 143.2-33.3C403.8 177.8 672 134 755.5 360c53.8 145.7-55.5 293.8-58.6 345.1-3.6 59 3.8 86 3.8 86l-83.5 23.1a266.7 266.7 0 0 1-7.6-120.8c15.6-82 91-192.3 83.2-266.7s-36.4-195-192.6-233.6C421.6 173.8 335.8 260 273.4 280s-106.8 36-106.8 36z" fill="#ed3024"/>
  <path d="M288.8 215.6a632.2 632.2 0 0 1-143 33.3h-.8l21.4 68.4 107.5-36.2a368.2 368.2 0 0 0 70-36.6c49-30 104.6-63.3 156.4-50.5 116.1 28.5 178.9 104.7 192 232.7 4.4 43.5-20 100-43.4 154.8-16.3 38.3-33.4 77.8-40 111.8a270.9 270.9 0 0 0 7.7 121.2v.7l85-23.5v-.6a253.9 253.9 0 0 1-4.1-85.3c1.9-20 11.5-43.6 24.2-73.7 28.7-67.9 72.1-170.5 34.4-272.3-96.2-260.6-430-157-467.4-144.2m.5 1.5C326.9 204.5 659 101.3 755 360a241.4 241.4 0 0 1 14.5 83.8c0 71.5-28.4 138.5-49.1 187.3a447.9 447.9 0 0 0-26.7 80c-4.8 26.3 6.1 75.2 6.4 78.8L618 812.7a271.3 271.3 0 0 1-11.2-77.5 230 230 0 0 1 3.8-42.1c6.4-33.8 23.4-73.3 40-111.5 21.7-50 44-102.4 44-144.6a97.9 97.9 0 0 0-.5-11c-13.3-128.9-76.5-205.5-193.3-234.3-52.5-12.9-108.3 21-157.7 50.8a372.6 372.6 0 0 1-69.9 37.5l-106 35.2c-.5-1.5-20-63-20-64.8a631 631 0 0 0 142.5-33.3" fill="#ed3024"/>
  <path d="M177.3 350s120-53.9 210.8-105.1c105.3-59.3 400.9-125.8 484.4 100 53.9 145.1-24.5 282.7-38.8 341-12.3 49.9 1.3 74.1 1.3 74.1l-83.5 23.1s-13.2-23.8-1.2-86.7c15.6-82 67.6-138.5 67.6-272 0-74.9-55.5-203.3-213.5-233.6-93.8-18-168.7 47.8-218.9 90C315 340 190.1 411.3 190.1 411.3z" fill="#ed3024"/>
  <path d="M588.2 187.4a181.1 181.1 0 0 0-83.2 13.2 473.4 473.4 0 0 0-116.9 43.1c-90 50.7-210 104.6-210.7 105.2h-.7l13.4 63.5 1-.6c1.3-.7 125.8-72.5 195.4-131.1l3.9-3.3c30-25.1 68.9-57.4 115.2-75.5a530.8 530.8 0 0 1 83-13.1c5.2.5 10.6 1.3 16 2.3 156.2 30 212.8 155.6 212.8 232.8 0 85.1-21.5 140-40 188.1a446.6 446.6 0 0 0-27 83.7 257.9 257.9 0 0 0-5.1 48.3 85.8 85.8 0 0 0 6.4 39v.6l84.5-23.6-.5-.9s-13.2-24.2-.7-73.1c3-11.8 8.6-27.3 15.2-45.2 26.5-71.8 66.6-180 23.6-296.4A224 224 0 0 0 735 204.7a358.6 358.6 0 0 0-146.3-17.3m-11.6 1.1a518.3 518.3 0 0 0-60 9.2 177.8 177.8 0 0 1 60-9.2m-188 56.6a459.2 459.2 0 0 1 104.5-40 455.9 455.9 0 0 0-104.2 71.4L385 280c-66.8 56.1-184.1 124.5-194.1 130-.5-2.1-12.3-58.6-12.6-60 6.6-2.9 122.4-55.3 210-104.9m345.3-38.9a222.6 222.6 0 0 1 138.1 138.7 304 304 0 0 1 18.8 106.7c0 73.7-24.4 140-42.3 188.6a425.8 425.8 0 0 0-15.3 45.5 164.7 164.7 0 0 0-5.2 40 76.2 76.2 0 0 0 6.1 34l-81.9 22.6a92.5 92.5 0 0 1-5.9-38 271.1 271.1 0 0 1 4.9-47.5 465.1 465.1 0 0 1 27-83.5c19.1-48.9 40.7-103.3 40.7-189.2 0-77.8-57-204.3-214.2-234.4-2.3 0-4.7-.7-7.2-1a349 349 0 0 1 136.7 17.5" fill="#ed3024" />
  <path d="M425 536.3H287.1c0 3.9.8 7.8 1.4 11.6H435a59.3 59.3 0 0 1-10-11.6M523.3 547.9h107.4c.6-3.8 1.2-7.7 1.5-11.6h-98.7a60 60 0 0 1-10 11.6M313.4 614.2h292.3c2.6-3.8 4.9-7.7 7.1-11.7H306.5q3.3 6 6.9 11.7M330.5 636.2h258.3c3.3-3.7 6.6-7.6 10-11.6H320.7c3.1 4 6.4 7.9 10 11.6M479.2 565.1a65.2 65.2 0 0 1-28.4-6.7H290.2c.9 3.9 1.9 7.8 3.1 11.6H626c1.1-3.8 2.2-7.7 3-11.6H507.8a64.7 64.7 0 0 1-28.6 6.7M301.3 592.1h316.5a119 119 0 0 0 4.7-12.1H296.8q2.1 6 4.5 11.7M355 658.3h210a130 130 0 0 0 13.9-11.7H340.6a142.2 142.2 0 0 0 14.4 11.7M459.5 693.4a182.5 182.5 0 0 0 30-2.6H430a178.8 178.8 0 0 0 30 2.6M393 680h133.1a171.3 171.3 0 0 0 23-11.7h-179A182.8 182.8 0 0 0 393 680M346.8 393.5h225.6a143.1 143.1 0 0 0-15.3-11.6h-195a143.1 143.1 0 0 0-15.3 11.6M325 415.5h269.3c-3.4-4-6.9-7.9-10-11.6H335.5c-3.7 3.7-7.2 7.6-10.5 11.6M539.1 525.9h93.6v-3a83 83 0 0 0-.5-8.7h-89.3a66.7 66.7 0 0 1-3.8 11.7M415.7 514.2H286.8c0 2.9-.5 5.7-.5 8.7v3h133.1a66.4 66.4 0 0 1-3.7-11.7M312.5 437.6h297c-2.3-3.9-4.7-7.8-7.3-11.6H320.1c-1 3-6.8 9.5-7.7 11.6M379.8 371.4h160a166.3 166.3 0 0 0-29.1-11.4H408.5a170.6 170.6 0 0 0-28.7 11.6M414.3 501.1a63.9 63.9 0 0 1 .9-8.9H289.3c-.7 3.9-1.3 7.7-1.8 11.6H415a24.8 24.8 0 0 1 0-2.7M544.3 501.1v2.7H632c-.5-3.9-1-7.7-1.8-11.6h-86.8a63.9 63.9 0 0 1 .9 8.9M422.8 470H295a117.2 117.2 0 0 0-3.2 11.6h126a59.3 59.3 0 0 1 5-11.6M541 481.7h86.6c-1-3.9-2-7.8-3.3-11.6h-88.4a74.3 74.3 0 0 1 5.1 11.6M528.5 460h92c-1.6-4-3.5-7.9-5.4-11.6h-99.4a64.3 64.3 0 0 1 12.8 11.6M442.9 448.1H308.1c-1.9 3.7-4.6 7.6-6.2 11.6h128.2a67.2 67.2 0 0 1 12.8-11.6" fill="#00a84f"/>
  <path d="M466.4 401.1s85.1-45.6 44.1-82.3c-27.7-24.5-91.1 58-103.2 94.2-25.4 75.3-86.9 139.3-86.9 139.3s65.4 90 110 84.7 54.6-51.3 54.6-51.3h44.1s-51.4 86.3-137.9 97.7c-57.4 7.4-122.3-74.5-122.3-74.5a560 560 0 0 1-65.4 38.5c-23.5 10-62.9 9.3-65-7.8-8.3-66.7 116.5-76.8 116.5-76.8s46.9-126.1 107-195.2c65.2-75.2 153.8-110 187.6-71.9s8 84-20.9 105.4c-41.4 30.8-62.3 0-62.3 0" fill="#ed3024"/>
  <path fill="#fff" d="M510 277.2c-43.8 0-104.2 35.7-150 88.6C303.8 430 258.9 545.3 253.1 560c-11.7 1.2-79.1 9.2-106.5 42.3a47 47 0 0 0-11.6 31.3v6.3a15.9 15.9 0 0 0 8.6 11.7c13.3 7.5 40.9 6.7 60-1.6a538.3 538.3 0 0 0 63.7-37.4c10 12.6 69.2 80.6 123.2 73.4 87-11.4 140-98.1 140-98.9l2.4-4.1h-50.6v2.1s-11.2 44.9-52.8 49.2c-38.7 4.2-96.3-70-105.4-81.8 9.4-10 62.8-70 85.7-138.6 9.3-27.6 52.6-88.2 82.9-96a16 16 0 0 1 15.9 3 25.3 25.3 0 0 1 10 22.8c-3.4 27.8-53.1 54.7-53.7 55l-2.6 1.4 1.7 2.5a37.1 37.1 0 0 0 23.6 14.4 57.2 57.2 0 0 0 42.7-13.7 93.1 93.1 0 0 0 37.7-60.6 62.1 62.1 0 0 0-16.3-48.8 53.2 53.2 0 0 0-41.8-16.7m-363.6 370a12.1 12.1 0 0 1-6-7.6 40 40 0 0 1 10-33.6c28-33.8 103.7-40 104.6-40h1.7l.5-1.7c.6-1.2 47.2-126.4 106.3-194.4 45.1-51.7 103.6-86.5 146-86.6a47.7 47.7 0 0 1 37.5 14.8 56.4 56.4 0 0 1 15 44.7 87 87 0 0 1-35.5 56.7 51.1 51.1 0 0 1-38.2 12.7 31.8 31.8 0 0 1-18.1-10c11.2-6.5 50-30.9 53.6-57.5a21.7 21.7 0 0 0 0-3.6 31.8 31.8 0 0 0-12.1-23.9 21.7 21.7 0 0 0-21.2-4.3c-33.1 8.5-77.2 71.4-86.6 100-24 73-84.7 137.1-85.4 137.6l-1.5 1.6 1.2 1.9c2.8 3.7 66.8 90.8 112.1 85.7 40-4.5 53.6-42 56.5-51.3h36.9c-11.4 17.2-60 82.6-133.2 92.2-55.1 7.3-119.2-72.6-120-73.4l-1.6-2-2.2 1.4a550 550 0 0 1-64.8 38.3c-17.7 7.7-42.5 10-55.6 2.2"/>
  <path d="M432.9 488.4a51.2 51.2 0 0 1 73.2-32.4 3.332 3.332 0 1 1-3.1 5.9 44.4 44.4 0 0 0-63.4 28.1 3.5 3.5 0 0 1-6.7-1.7m-1.5 17a55.2 55.2 0 0 1 0-7.1 3.4 3.4 0 0 1 6.7.9 42.1 42.1 0 0 0 0 6.2 3.4 3.4 0 0 1-6.8 0M528.7 516.4a51.3 51.3 0 0 1-47.9 32.7 54.5 54.5 0 0 1-13.6-1.7 3.4 3.4 0 1 1 1.8-6.5 44.9 44.9 0 0 0 11.8 1.5 44.3 44.3 0 0 0 41.4-28.4 3.5 3.5 0 0 1 6.5 2.4m3.2-17.6a52.3 52.3 0 0 1-1 10 3.412 3.412 0 0 1-6.7-1.3 57 57 0 0 0 .8-8.4 3.5 3.5 0 0 1 6.9 0" fill="#ed3024"/>
</svg>
