<svg xmlns="http://www.w3.org/2000/svg" viewBox="0 0 300 300">
  <rect width="300" height="300" fill="#21254f" rx="40"/>
  <path fill="#08dc7d" d="M278.17 170.5a65.08 65.08 0 0 0-23.83-48.94 64.24 64.24 0 0 0-53.08-10.8c-1.24.31-3.81 1-4.44 0a7.06 7.06 0 0 1 0-4.45c6.35-29.55-4.45-54.66-30.2-69a60.84 60.84 0 0 0-60.69.32A58.27 58.27 0 0 0 75.44 87.2l.31 145.52h139.84a58.23 58.23 0 0 0 44.15-18.43 63 63 0 0 0 18.43-43.79z"/>
  <path fill="#006ae0" d="M68.45 84.06A54.12 54.12 0 0 0 44 127.92v135.7h135a55.22 55.22 0 0 0 43.85-25.11H69.08V84.06z"/>
</svg>
