<svg xmlns="http://www.w3.org/2000/svg" fill="#fff" width="477.514" height="477.514">
  <path fill="#eb659c" d="M262.632 0a214.881 214.881 0 0 1 214.882 214.881A262.632 262.632 0 0 1 214.88 477.514 214.881 214.881 0 0 1 0 262.632 262.632 262.632 0 0 1 262.632 0z"/>
  <path fill="#fff" d="M242.186 246.317s-5.46 2.7-7.14-8.1c-2.7-16.56 8.46-35.7 21.24-32.1 2.28.6 4.56 2.7 4.86 4.74.72 5.94-2.04 18.9-2.04 18.9s10.74-23.64 20.64-19.32c5.28 2.4 2.1 12.12-1.02 20.16-1.98 5.34-3.6 10.5-3.6 10.5s7.8-16.08 16.5-19.8c2.46-.9 4.02-.24 5.28.9 3.12 3-3.12 14.7-5.34 23.1-1.38 5.4-.3 8.22-.3 8.22s-5.22.42-6.3-2.82c-1.5-4.32 2.1-12.48 5.46-19.68 1.38-3.12 2.46-6.78 2.58-6.84 0 0-4.98 1.44-10.32 10.02-6.36 10.02-11.82 24.18-11.82 24.18s-6.06.66-6.66-2.46c-1.26-5.4 17.34-41.46 13.68-44.22-2.88-2.1-13.02 9.96-19.5 28.14-4.5 12.72-6.48 26.58-6.48 26.58s-4.68-.18-5.76-2.46c-2.76-6.24 13.5-51.84 10.14-56.22-.42-.72-8.88 0-13.56 11.94-6.9 16.92-.54 26.64-.54 26.64zm70.5 1.92c-.24-.36 1.44-9.48 5.1-15.54 1.32-2.4 2.52-4.02 2.52-4.02s-2.28-1.74-4.08-1.2c-1.68.36-2.7 3.12-2.7 3.12s-5.1-4.14-8.04-1.56c-9.9 8.46-9.96 19.56-9.24 21 .54 1.5 3.78 2.4 5.16 2.22 1.38-.24 6.6-7.74 6.6-7.74s-.78 4.68.48 6.48c.54.6 3.3 1.62 4.62 1.14 5.76-1.92 8.7-16.74 8.7-16.74s-2.82 5.4-5.46 9.12c-1.5 2.1-3.54 4.02-3.66 3.72zm-4.92-15.96c2.4-2.58 4.44-.24 4.44-.24s-4.26 7.86-8.04 13.14c-1.56 2.22-3.12 3.66-3.12 3.66s-.84-8.28 6.72-16.56zm17.28-5.22s1.08-2.94 2.46-4.8c1.68-2.1 6.12-.84 5.88-.42-.54.9-2.28 3-3.72 5.64-.54.96-4.62-.42-4.62-.42zm4.14 2.7s-3.54-2.22-5.64.3c-1.8 2.04-4.44 8.16-5.34 13.26-.36 2.22-.54 5.52.6 7.2.84 1.26 1.98 2.04 3.66 1.62 5.16-1.38 8.52-11.52 8.52-11.52s-4.44 8.28-8.7 9.18c-2.64.54 2.46-15.12 6.9-20.04zm16.98-7.14c4.68-6.18 8.94-13.8 7.14-15.66-5.82-7.02-12 2.7-18.12 16.68-4.68 10.32-7.08 20.88-6.84 25.14.18 2.94 3.12 3.96 4.98 3.06 2.88-1.32 5.4-4.74 7.86-10.44 1.26-2.82.6-6.12.6-6.12s.3 2.04-1.44 4.74c-2.64 4.5-6.84 9.54-7.98 8.88-1.2-.78 3.84-15.66 3.84-15.66 2.22-2.04 5.7-4.8 9.96-10.62zm4.86-15.3c.48.48-1.02 4.56-4.38 9.36-2.76 4.98-7.62 9.42-7.62 9.42s2.58-5.88 5.52-10.8c2.7-4.44 5.94-8.46 6.48-7.98zm15.78 30.42s-.36-1.26-3-1.02c-3.72.3-8.1 3.18-11.58 5.7-2.04-2.94-19.14-10.5 4.74-15.3 1.62-.3 1.38.66 1.44.72.66-.36 1.86-8.82-8.28-4.8-18.84 7.5-2.94 16.86-1.44 21.54 0 0-6.78 4.68-13.14 11.28-5.28 5.4-10.2 12.48-10.5 16.98-.12 2.04 4.68 4.74 6.78 4.38 15-2.64 29.16-22.02 22.08-32.46 0 0 4.38-4.2 12.9-7.02zm-17.16 9.42s2.04 6.12-5.88 15.96c-4.5 5.52-13.08 10.98-14.34 9.6-2.46-2.64 13.02-20.88 20.22-25.56zm26.64 1.08c-.24-.36 1.44-9.48 5.1-15.54 1.32-2.4 2.52-4.02 2.52-4.02s-2.28-1.74-4.08-1.2c-1.68.36-2.7 3.12-2.7 3.12s-5.1-4.14-8.04-1.56c-9.9 8.46-9.96 19.56-9.24 21 .54 1.5 3.78 2.4 5.16 2.22 1.38-.24 6.6-7.74 6.6-7.74s-.78 4.68.48 6.48c.54.6 3.3 1.62 4.62 1.14 5.76-1.92 8.7-16.74 8.7-16.74s-2.82 5.4-5.46 9.12c-1.5 2.1-3.54 4.02-3.66 3.72zm-4.92-15.96c2.4-2.58 4.44-.24 4.44-.24s-4.26 7.86-8.04 13.14c-1.56 2.22-3.12 3.66-3.12 3.66s-.84-8.28 6.72-16.56zm16.14 9.9c-.24.18 1.86 2.58 3.66 2.1 1.8-.42 5.58-6.9 6.6-12.18.6-2.52-2.04-4.68-3.3-5.34-2.04-1.08-8.28 3.66-11.4 9.36-2.64 4.8-2.34 9.84-2.22 10.74.18 1.86 2.82 5.1 5.52 5.34 4.56.42 9.06-5.28 11.46-9 2.7-4.08 2.88-6.18 2.88-6.18-.06.06-4.98 6.42-10.32 10.14-3.06 2.22-5.94 2.58-6.24 1.8-2.34-6.9 9.36-19.8 10.68-18.96 1.74 1.08-4.02 9.36-7.32 12.18z"/>
  <path d="M88.571 195.257c-3.652 0-6.654.912-8.73 2.98-2.078 2.068-3.033 5.106-3.033 8.731v63.577c0 3.62.944 6.614 3.032 8.68 2.088 2.065 5.15 3.032 8.836 3.032h117.01c3.596 0 6.623-.944 8.68-3.033 2.057-2.088 2.98-5.148 2.98-8.836v-63.576c0-3.558-.934-6.53-2.98-8.575-2.046-2.045-5.014-2.98-8.575-2.98zm0 3.346h117.22c2.618 0 4.434.53 5.7 1.516-20.338 15.909-39.772 33.188-60.231 48.833-2.874 1.407-5.493 1.407-8.366 0-20.105-16.141-40.176-32.51-60.23-48.78 1.286-1.021 3.155-1.569 5.907-1.569z" />
</svg>
