<svg viewBox="0 0 1000 1000" xmlns="http://www.w3.org/2000/svg">
    <rect fill="#1C1C1C" width="1000" height="1000" rx="100"/>
    <path fill="#FF9662" d="M677.266 574.127h131.45v21.876h-131.45z"/>
    <path fill="#FFF" d="m929.462 446.281-43.467 61.983-43.467-61.983h-29.833l60.231 85.225v64.497h26.154v-64.497l.083-.117 60.148-85.108zM141.495 518.27l-2.064-1.548 1.781-1.832c7.208-7.525 11.187-17.081 11.187-26.92 0-22.993-21.159-41.69-47.18-41.69H35v149.707h74.215c27.519 0 49.91-19.78 49.91-44.103 0-12.953-6.426-25.206-17.63-33.614M61.17 468.174h44.05c12.252 0 22.208 8.89 22.208 19.812s-9.956 19.795-22.208 19.795H61.17v-39.607Zm48.045 105.953H61.17v-44.47h48.045c13.751 0 24.955 9.99 24.955 22.244 0 12.253-11.204 22.226-24.955 22.226M595.809 546.157l-43.283-99.876h-28.818l66.058 149.722h12.07l66.058-149.722h-28.817zM263.44 443.3c-42.985 0-77.845 34.847-77.845 77.85 0 43.004 34.843 77.85 77.844 77.85 43 0 77.844-34.846 77.844-77.85 0-43.003-34.86-77.85-77.844-77.85Zm0 130.06c-28.785 0-52.208-23.424-52.208-52.21 0-28.785 23.423-52.21 52.207-52.21 28.784 0 52.207 23.425 52.207 52.21 0 28.786-23.423 52.21-52.207 52.21ZM470.436 542.81l-84.97-96.529h-13.035v149.722h26.12v-96.529l84.97 96.529h13.035V446.281h-26.12zM742.991 443.3c-28.784 0-52.207 23.426-52.207 52.211 0 28.786 23.423 52.21 52.207 52.21 28.784 0 52.207-23.424 52.207-52.21 0-28.785-23.423-52.21-52.207-52.21Zm0 82.312c-16.597 0-30.099-13.502-30.099-30.084 0-16.599 13.502-30.084 30.1-30.084 16.58 0 30.082 13.502 30.082 30.084.016 16.582-13.485 30.084-30.083 30.084ZM176.555 345.739v50.629h-13.951v-74.886h15.632l23.074 41.472 23.074-41.472h15.632v74.886h-13.968v-50.629l-19.71 36.244h-10.072zM773.59 321.498v12.887h22.074v61.983h13.968v-61.983h22.075v-12.887zM692.749 321.498v12.887h22.091v61.983h13.951v-61.983h22.091v-12.887zM553.558 321.498h13.967v74.886h-13.967zM381.587 366.05h11.387l20.927 30.335h16.015l-21.143-30.65c11.97-1.716 21.143-10.89 21.143-21.977 0-12.287-11.288-22.293-25.155-22.293h-37.14v74.886h13.95v-30.3h.016Zm0-32.731h23.174c6.493 0 11.787 4.678 11.787 10.439 0 5.76-5.278 10.439-11.787 10.439h-23.174v-20.878ZM304.808 346.472l10.905 23.49H293.92l10.887-23.49Zm-3.396-24.974-34.693 74.887h14.933L288.327 382h32.963l6.675 14.385h14.933l-34.693-74.887h-6.793ZM496.656 321.482h-37.14v74.87h13.95V366.05h11.387l20.926 30.335h16.015l-21.143-30.65c11.97-1.716 21.143-10.89 21.143-21.977 0-12.287-11.287-22.276-25.138-22.276m11.77 22.292c0 5.76-5.277 10.44-11.787 10.44h-23.173v-20.895h23.173c6.51 0 11.787 4.678 11.787 10.455ZM634.565 320c-21.492 0-38.922 17.431-38.922 38.925 0 21.493 17.43 38.925 38.922 38.925 21.492 0 38.922-17.432 38.922-38.925 0-21.494-17.413-38.925-38.922-38.925Zm0 63.898c-13.767 0-24.971-11.205-24.971-24.973 0-13.769 11.204-24.973 24.971-24.973 13.768 0 24.972 11.204 24.972 24.973 0 13.768-11.204 24.973-24.972 24.973Z"/>
</svg>
