<svg xmlns="http://www.w3.org/2000/svg" viewBox="0 0 600 600">
  <rect width="500" height="500" fill="#fff" rx="45"/>
  <g fill="#1B4298">
    <path d="M199.399 270.645c-7.464 0-15.255 10.515-15.255 17.907 0 8.82 8.326 9.689 19.226 11.822-.329.512-3.515 4.158-12.7 4.158h-22.446c-9.24 0-14.39-5.428-14.39-12.682 0-6.486 3.839-13.164 4.739-14.941l-7.833-3.969c-.735 1.182-6.636 10.932-6.636 21.199 0 14.039 8.774 20.096 25.377 20.096h15.824c22.164 0 29.571-12.238 29.571-22.508 0-2.906-.179-6.359-3.99-12.594-1.891-3.078-4.93-8.488-11.487-8.488zm-7.07 14.079c0-1.607 1.32-4.375 4.175-4.375 4.617 0 9.524 9.238 9.452 12.879-9.236-2.834-13.627-3.922-13.627-8.504zm6.56-25.863l6.661 6.498 6.674-6.986-6.862-6.681-6.473 6.507-6.419-6.431-6.547 6.942 6.63 6.649zm237.143-4.425v59.8h9.879v-62.09zm-10.657-2.29l-9.843 2.29v39.622c0 5.992.793 8.367.881 8.943-.292.133-3.13 1.531-8.597 1.531h-19.627c.308-.518 1.073-4.959-2.155-10.723-5.27-9.336-8.286-16.957-15.825-16.957-9.263 0-13.146 9.055-19.618 19.844-1.795 2.936-3.596 7.836-11.149 7.836h-16.063c-.25-.395-1.019-1.521-1.019-3.451 0-12.58-5.019-19.986-10.209-23.949l-6.693 6.705c5.122 3.75 7.388 7.963 7.388 15.846 0 3.455.654 4.262 1.021 4.852h-11.48c-.384-.766-.822-1.98-.822-4.402 0-9.998-5.523-14.586-8.974-17.389L286 289.449c1.234.865 6.385 3.697 6.385 10.305 0 3.166.59 4.328.781 4.781h-10.761c-.293-.59-.852-1.998-.852-4.402 0-9.998-5.517-14.586-8.966-17.389l-6.563 6.705c1.284 1.02 6.358 4.117 6.358 10.742 0 2.164.506 3.928.809 4.344h-25.444c-.646-8.438-4.872-15.205-9.756-18.672l-6.893 6.959c4.352 4.65 6.695 9.875 6.695 17.283 0 11.234-7.032 18.215-19.402 20.266l.877 6.492c19.453-1.188 27.825-12.088 28.396-22.627h94.342c7.106 0 10.386-3.791 11.219-5.229.883.99 4.653 5.229 14.638 5.229h39.506c10.983 0 18.483-3.086 19.095-3.318-.149-.426-1.086-3.053-1.086-6.9v-51.871h-.003zm-50.126 52.387h-4.066c-8.007 0-10.898-3.244-12.585-4.941 4.634-8.102 6.22-12.004 10.265-12.004 3.407 0 4.691 3.561 8.801 10.99 1.889 3.42.084 5.955-2.415 5.955zm-84.137-41.67l6.676 6.508 6.659-7.006-6.855-6.666-6.48 6.494-6.408-6.408-6.534 6.923 6.614 6.663z"/>
    <path d="M297.788 251.552l-6.744-6.745-6.544 6.937 6.639 6.645z"/>
  </g>
  <path fill="#1B4298" d="M381.857 352.01c-5.871 0-8.397 4.557-8.443 9.189h16.924c-.091-5.162-2.982-9.189-8.481-9.189m18.063 16.931h-26.507c.411 5.4 4.696 9.277 11.254 9.277 5.694 0 9.3-2.455 9.871-2.807l3.377 7.625c-.698.367-5.892 3.729-14.506 3.729-12.726 0-20.607-8.641-20.607-21.371 0-11.895 6.097-21.527 19.056-21.527 11.854 0 18.663 8.236 18.663 19.654-.001 2.194-.451 4.653-.601 5.42m-163.963 3.793v-7.02c-1.395 1.098-4.747 2.002-7.745 2.701-3.578.836-6.872 2.043-6.872 5.115 0 3.768 3.624 5.152 7.406 5.152 4.009 0 7.175-1.168 7.531-1.277-.049-.366-.32-1.911-.32-4.671m-7.059 14.034c-8.906 0-18.413-3.145-18.413-12.76 0-11.162 12.033-12.029 19.555-13.771 3.578-.846 5.917-1.805 5.917-4.188 0-2.221-2.705-3.82-6.898-3.82-5.641 0-10.922 2.428-11.443 2.666l-3.344-7.48c.748-.348 7.865-3.545 15.395-3.545 10.149 0 16.153 5.279 16.153 15.037v17.971c0 4.229.544 5.971.741 6.678-.599.21-8.899 3.212-17.663 3.212m88.368-.915v-25.617c0-4.879-2.792-7.814-7.565-7.814-3.663 0-7.363 2.1-8.773 3.029v30.402h-9.861v-59.816l9.861-2.32v23.373c.507-.301 5.167-3.227 11.556-3.227 9.47 0 14.665 5.604 14.665 14.561v27.432h-9.882v-.003zm110.958-33.433c-7.727 0-10.844 5.922-10.844 12.895 0 6.842 4.113 12.906 11.424 12.906 1.805 0 3.766-.41 5.401-1.16v-18.452c0-2.561.347-4.76.4-5.125-.399-.141-2.703-1.064-6.381-1.064m15.87 1.714v48.982l-9.889 1.215v-18.979c-2.527.904-5.071 1.416-7.554 1.416-11.087 0-20.286-8.961-20.286-21.541 0-12.563 8.647-21.363 22.109-21.363 7.435 0 15.125 2.592 16.098 2.975-.202.866-.478 4.504-.478 7.295m-250.711 31.719v-25.801c0-4.604-2.358-7.559-7.22-7.559-3.606 0-7.097 1.852-7.586 2.092.077.449.598 2.621.598 6.295v24.973h-9.855v-25.875c0-4.596-2.541-7.484-7.211-7.484-3.644 0-6.923 1.584-7.326 1.766.042.248.338 1.6.338 4v27.596h-9.862v-32.523c0-2.352-.625-4.834-.758-5.273 1.023-.396 10.556-4.193 18.58-4.193 8.454 0 11.534 3.59 11.996 4.039.662-.402 6.328-4.039 12.799-4.039 9.228 0 15.386 5.264 15.386 14.219v27.771h-9.878v-.004zm165.732-32.625c-1.311-.396-3.613-.809-5.433-.809-3.985 0-7.376 1-7.77 1.137.064.246.467 2.104.467 5.604v26.697h-9.854v-29.406c0-4.693-.697-7.771-.749-8.063 1.106-.41 9.927-4.521 18.731-4.521 2.554 0 5.363.342 7.575.916l-2.967 8.445zm-91.91 33.541c-7.006 0-12.854-2.443-13.577-2.705l2.884-7.713c.207.084 4.532 2.443 8.961 2.443 4.758 0 7.151-1.979 7.151-4.68 0-1.934-1.298-3.629-4.634-4.957a500.222 500.222 0 0 0-4.121-1.609c-4.25-1.576-9.168-4.516-9.168-11.385 0-8.137 7.513-12.254 14.976-12.301 6.713-.035 11.004 2.016 12.059 2.486l-2.787 7.631c-.311-.133-4.432-1.883-8.992-1.883-2.788 0-5.15 1.063-5.15 3.527 0 2.281 1.641 3.473 4.638 4.662 1.171.461 2.856 1.096 4.167 1.625 5.292 2.094 9.926 5.412 9.926 11.979-.002 9.019-7.783 12.88-16.333 12.88"/>
  <g transform="matrix(1.25 0 0 -1.25 642.48 861.756)">
    <radialGradient id="path3613_1_" cx="-728.846" cy="590.399" r="1.435" gradientTransform="matrix(68.7899 0 0 -68.7899 49936.285 41161.316)" gradientUnits="userSpaceOnUse">
      <stop offset="0" stop-color="#fd0"/>
      <stop offset="1" stop-color="#f05133"/>
    </radialGradient>
    <path fill="url(#path3613_1_)" d="M-180.364 573.554c-10.476-5.563-16.351-15.032-20.538-25.723 11.184-2.527 22.341-2.997 32.805 2.543 10.495 5.554 16.398 15.042 20.552 25.723-4.855 1.102-9.705 1.814-14.49 1.814-6.25-.001-12.399-1.212-18.329-4.357"/>
    <radialGradient id="path3633_1_" cx="-727.911" cy="590.047" r="1.436" gradientTransform="matrix(80.7915 0 0 -80.7915 58593.934 48232.438)" gradientUnits="userSpaceOnUse">
      <stop offset="0" stop-color="#fd0"/>
      <stop offset="1" stop-color="#f05133"/>
    </radialGradient>
    <path fill="url(#path3633_1_)" d="M-207.777 600.892c-9.193-14.623-9.093-28.118-7.302-39.244 10.798 3.211 23.003 8.97 32.237 23.599 9.159 14.629 9.055 28.127 7.284 39.264-10.81-3.232-23.02-8.98-32.219-23.619"/>
    <radialGradient id="path3653_1_" cx="-726.827" cy="589.701" r="1.435" gradientTransform="matrix(101.0892 0 0 -101.0892 73238.055 60177.73)" gradientUnits="userSpaceOnUse">
      <stop offset="0" stop-color="#fd0"/>
      <stop offset="1" stop-color="#f05133"/>
    </radialGradient>
    <path fill="url(#path3653_1_)" d="M-252.428 610.785c-.318-19.243 8.045-34.513 16.191-45.417 8.467 10.794 17.352 25.566 17.66 44.869.343 20.878-9.663 36.642-16.2 45.416-7.175-9.069-17.31-24.086-17.651-44.868"/>
    <radialGradient id="path3673_1_" cx="-725.814" cy="589.409" r="1.434" gradientTransform="matrix(131.2294 0 0 -131.2294 94989.508 77907.477)" gradientUnits="userSpaceOnUse">
      <stop offset="0" stop-color="#fd0"/>
      <stop offset="1" stop-color="#f05133"/>
    </radialGradient>
    <path fill="url(#path3673_1_)" d="M-304.834 603.049c11.73-21.721 29.528-33.719 46.28-43.549 1.279 19.304.48 41.297-11.007 62.597-12.611 23.356-32.955 35.999-46.259 43.544-.707-15.692-1.875-38.726 10.986-62.592"/>
    <radialGradient id="path3695_1_" cx="-724.725" cy="589.123" r="1.438" gradientTransform="matrix(188.9074 0 0 -188.9074 136636.906 111831.96)" gradientUnits="userSpaceOnUse">
      <stop offset="0" stop-color="#fd0"/>
      <stop offset=".944" stop-color="#f05133"/>
      <stop offset="1" stop-color="#f05133"/>
    </radialGradient>
    <path fill="url(#path3695_1_)" d="M-416.791 625.39c10.496-18.088 30.721-45.007 60.487-61.845 28.636-16.211 61.058-20.24 84.152-19.979-12.2 20.439-31.789 45.615-60.453 61.841-28.246 15.978-60.354 19.998-82.161 19.998a167.3 167.3 0 0 1-2.025-.015"/>
    <radialGradient id="path3717_1_" cx="-724.166" cy="588.98" r="1.439" gradientTransform="matrix(243.3171 0 0 -243.3171 175927.188 143832.594)" gradientUnits="userSpaceOnUse">
      <stop offset="0" stop-color="#fd0"/>
      <stop offset=".871" stop-color="#f05133"/>
      <stop offset="1" stop-color="#f05133"/>
    </radialGradient>
    <path fill="url(#path3717_1_)" d="M-496.819 523.62c32.836-14.89 71.791-25.741 109.03-25.741 29.648 0 65.105 5.782 108.996 25.741-48.014 21.566-81.288 25.699-108.996 25.714-36.208-.015-76.693-10.751-109.03-25.714"/>
  </g>
  <path fill="#F68B1F" d="M167.793 442.359c-1.904 0-3.631-.436-4.236-2.484l-3.119-10.504-3.937 12.994c-1.831 0-3.424-.41-4.059-2.484l-4.62-15.125h3.632l3.502 12.994h.049c.08-.379.201-.764.306-1.143l3.4-11.852h3.704l3.833 12.994h.049c.074-.381.202-.764.305-1.143l3.053-11.854h3.247l-5.109 17.607zm11.737-.258v-17.355h10.118v2.738h-6.975v4.271h5.81v2.645h-5.81v4.975h7.184v2.74l-10.327-.014zm43.853 0v-14.359h-.056a3.16 3.16 0 0 1-.201.66l-4.95 9.994c-1.221 0-1.832-.406-2.667-2.08l-3.881-7.934a2.518 2.518 0 0 1-.202-.609h-.055v14.338h-3.095v-17.336h4.694l4.438 9.232h.048c.091-.344.217-.672.379-.986l3.955-8.246h4.669v17.326h-3.076zm23.327 0l-1.722-4.418h-6.714l-1.727 4.389h-3.398l7.177-17.357h3.021l6.896 17.357-3.533.029zm-5.024-13.115v.104l-2.258 5.857h4.541l-2.283-5.961zm24.877 13.115l-5.199-6.189a9.701 9.701 0 0 0-1.222-1.113h-.049v7.322h-3.173v-17.375h3.173v6.713l6.066-6.713h4.163l-7.787 8.477c.406.162.771.414 1.068.738l7.104 8.141h-4.144v-.001zm10.949 0v-17.355h10.126v2.738h-6.953v4.271h5.812v2.645h-5.812v4.975h7.186v2.74l-10.359-.014zm33.5-6.699a11.39 11.39 0 0 1-1.543-.131v6.824h-3.174v-17.15a21.37 21.37 0 0 1 4.771-.482c3.369 0 6.472 1.568 6.472 5.328s-3.022 5.611-6.526 5.611zm0-8.225a8.23 8.23 0 0 0-1.543.154v5.277c.486.07.979.102 1.47.098 1.881 0 3.304-1.037 3.304-3.02s-1.374-2.509-3.231-2.509zm21.54 15.205c-5.279 0-8.196-3.883-8.196-8.936 0-5.055 2.839-8.979 8.196-8.979 5.358 0 8.222 3.881 8.222 8.979-.001 5.096-2.943 8.936-8.222 8.936zm0-15.172c-3.527 0-4.798 3.141-4.798 6.244 0 3.1 1.325 6.188 4.798 6.188 3.475 0 4.823-3.145 4.823-6.188 0-3.047-1.295-6.252-4.823-6.252v.008zm20.032 15.172a14.536 14.536 0 0 1-4.976-.916l.786-2.668c1.344.506 2.757.789 4.188.836 1.345 0 3.097-.479 3.097-2.129 0-3.375-7.936-2.363-7.936-8.244 0-3.398 3.052-4.799 6.065-4.799 1.587.039 3.156.34 4.646.893l-.964 2.588a11.477 11.477 0 0 0-3.575-.738c-1.222 0-2.742.434-2.742 1.93 0 2.895 7.965 2.104 7.965 8.066-.006 3.552-3.411 5.181-6.554 5.181zm18.436 0a14.533 14.533 0 0 1-4.974-.916l.788-2.668c1.342.506 2.755.789 4.186.836 1.344 0 3.097-.479 3.097-2.129 0-3.375-7.936-2.363-7.936-8.244 0-3.398 3.052-4.799 6.066-4.799a14.35 14.35 0 0 1 4.645.893l-.965 2.588a11.353 11.353 0 0 0-3.576-.738c-1.221 0-2.739.434-2.739 1.93 0 2.895 7.965 2.104 7.965 8.066-.013 3.552-3.413 5.181-6.557 5.181zm14.192-.281v-17.355h3.167v17.355h-3.167zm15.985.281a23.1 23.1 0 0 1-4.388-.488v-16.918a23.037 23.037 0 0 1 4.412-.506c3.301 0 6.671.965 6.671 4.883a4.145 4.145 0 0 1-2.589 3.729v.047a4.08 4.08 0 0 1 3.225 4.164c.028 4.173-3.933 5.089-7.331 5.089zm.2-15.172a8.359 8.359 0 0 0-1.396.127v4.467h1.543c1.574 0 3.119-.48 3.119-2.336.006-2.031-1.644-2.266-3.261-2.266l-.005.008zm.226 7.322h-1.622v4.883c.47.082.943.125 1.422.129 1.678 0 3.856-.385 3.856-2.486.006-2.188-1.874-2.52-3.65-2.52l-.006-.006zm14.381 7.569v-17.355h3.173v14.617h7.177v2.738h-10.35zm17.119 0v-17.355h10.125v2.738h-6.952v4.271h5.811v2.645h-5.811v4.975h7.179v2.74l-10.352-.014z"/>
</svg>
