<svg xmlns="http://www.w3.org/2000/svg" viewBox="0 0 1000 1000">
  <defs>
    <linearGradient id="a" x1="299.5" x2="900.5" y1="299.7" y2="900.7" gradientUnits="userSpaceOnUse">
      <stop offset="0" stop-color="#3763da"/>
      <stop offset=".6" stop-color="#4276ed"/>
      <stop offset="1" stop-color="#487ff6"/>
    </linearGradient>
  </defs>
  <circle cx="500" cy="500" r="500" fill="url(#a)"/>
  <path fill="#fff" d="M669.375 240.875c-64 0-114 48.125-159.25 109.375C455.5 274.5 396.125 242 340.375 241c-2.25 0-4.5-.125-6.75-.125-122 3.625-225.5 157.875-224.25 340 8.125 231.25 220.875 246.5 332.875 5.75 0 0 34-60 57.375-101.375 63 104.125 157.125 293.5 255.5 274.125 260.375-20 97-553.5-85.875-518.5zM380.125 548c-66.125 103.75-89 127-125.875 127-127.625-10.375-39.125-386.5 104.5-346.25 29.625 9.75 62.125 40.75 100.625 94.5.125.25.375.625.5.875-49.625 76.125-79.75 124-79.75 124zM757 675c-37.625 0-55.625-24.875-127.25-140-11.875-19.75-29.125-48.75-45.875-76.125-5.5-9.125-11-17.75-16.25-26.125-7.125-11.25-13.75-21.5-19.375-29.625 121.875-208.75 267.25-39 267 180.375 0 57.875-19 91.5-58.25 91.5z"/>
</svg>
