<svg xmlns="http://www.w3.org/2000/svg" viewBox="0 0 500 500">
  <circle cx="250" cy="250" r="250" fill="#0072c6"/>
  <path fill="#fff" d="M278.053 90L91.737 126.053v244.894L278.053 410V90zm11.763 67.842v62.579l21.868 13.79c.577.168 1.818.18 2.395 0l94.158-63.474c0-7.512-6.993-12.895-10.948-12.895H289.816zM187 194.026c12.295 0 22.232 5.008 29.816 15.08 7.596 10.071 11.395 23.364 11.395 39.841.012 16.935-3.918 30.588-11.79 40.948-7.872 10.36-18.148 15.552-30.816 15.552-12.343 0-22.381-5.017-30.158-15.052-7.764-10.048-11.684-23.134-11.684-39.263 0-17.031 3.972-30.8 11.869-41.316 7.896-10.517 18.352-15.79 31.368-15.79zm221.263 2s-95.64 63.568-92.263 61.5c0 0-3.398 2.068-6.21 0l-19.974-13.71v85.052H391.21c9.014 0 17.052-5.265 17.052-17.789V196.026zm-221.816 18.921c-6.802 0-12.208 3.197-16.21 9.58-4.002 6.381-6.026 14.825-6.026 25.341 0 10.673 2.024 19.114 6.026 25.316 4.002 6.214 9.247 9.29 15.737 9.29 6.694 0 12.003-3.02 15.92-9.053 3.919-6.033 5.895-14.423 5.895-25.132 0-11.165-1.9-19.838-5.71-26.052-3.81-6.202-9.021-9.29-15.632-9.29z"/>
</svg>
