<svg xmlns="http://www.w3.org/2000/svg" viewBox="0 0 96 96">
    <path fill="#5558af" d="M0 0h96v96H0z"/>
    <path fill="#fff" d="M67.56 41.41a5.06 5.06 0 0 0 1.61 1.08 5 5 0 0 0 3.93 0 5 5 0 0 0 2.69-2.69 5 5 0 0 0 0-3.93 5.06 5.06 0 0 0-1.08-1.61 5.26 5.26 0 0 0-1.61-1.09 5.15 5.15 0 0 0-3.93 0 5.14 5.14 0 0 0-2.7 2.7 5.15 5.15 0 0 0 0 3.93 5.26 5.26 0 0 0 1.09 1.61M66.08 46.1v15.22h2.53a13.94 13.94 0 0 0 2.6-.25 8.14 8.14 0 0 0 2.46-.85 5.49 5.49 0 0 0 1.83-1.62 4.23 4.23 0 0 0 .73-2.53v-10ZM57.86 39.72a4.81 4.81 0 0 0 2-.4 5.06 5.06 0 0 0 1.61-1.08 5.18 5.18 0 0 0 1.08-1.61 5 5 0 0 0 .4-2 4.94 4.94 0 0 0-.4-2 4.83 4.83 0 0 0-1.09-1.61 4.93 4.93 0 0 0-3.57-1.48 4.89 4.89 0 0 0-2 .39 5.28 5.28 0 0 0-1.24.76v7.8a5.1 5.1 0 0 0 1.24.76 4.77 4.77 0 0 0 2 .4M54.66 65.35c.63.13.86.24 1.31.3a11.13 11.13 0 0 0 1.49.11 10.84 10.84 0 0 0 2.29-.25 6.72 6.72 0 0 0 2.17-.84 5.08 5.08 0 0 0 1.62-1.61 4.66 4.66 0 0 0 .63-2.52V42.93h-9.51ZM19.77 25.8v44.4l33 5.71V20.09ZM43.88 41l-5.71.26v16.67l-3.81-.22V41.43l-5.71.22v-3.5l15.23-.93Z"/>
</svg>