<svg xmlns="http://www.w3.org/2000/svg" viewBox="0 0 400 400">
  <circle cx="200" cy="200" r="200" fill="#999"/>
  <path fill="#0190FD" d="M346.227 270.29c-4.757-2.751-10.244-3.077-15.059-1.385-3.433.736-6.624.842-11.892-2.195-8.772-5.069-30.297-17.499-30.297-17.499-6.941-4.012-12.629-13.851-12.629-21.869v-35.205c0-6.085 1.685-8.79 4.043-11.401 1.221-1.04 2.27-2.257 3.174-3.58-4.245 2.898-9.534 4.611-15.257 4.611-5.214 0-10.05-1.421-14.079-3.861.696.923 1.481 1.79 2.345 2.556 2.504 2.725 4.334 5.396 4.334 11.734 0 10.127.004 35.145.004 35.145 0 8.018-5.682 17.857-12.625 21.869l-30.582 17.662c-5.087 2.861-8.226 2.755-11.602 2.032a18.639 18.639 0 0 0-5.422-1.014c9.609 3.314 16.441 11.756 16.441 21.647 0 1.019-.079 2.023-.22 3.002.369-.939.673-1.896.881-2.874 1.103-3.526 2.504-6.453 7.987-9.614 8.772-5.073 30.234-17.478 30.234-17.478 6.942-4.007 18.306-4.007 25.253 0 0 0 21.467 12.404 30.257 17.478 5.476 3.161 6.877 6.088 7.979 9.614 1.028 4.867 4.002 9.279 8.64 11.959 8.648 4.994 19.714 2.032 24.711-6.626 5.005-8.647 2.034-19.714-6.619-24.708zm-3.164 19.192a6.87 6.87 0 0 1-9.399 2.521c-3.287-1.896-4.416-6.102-2.521-9.398a6.888 6.888 0 0 1 9.402-2.517c3.293 1.9 4.426 6.105 2.518 9.394z"/>
  <path fill="#FBE700" d="M182.666 289.156c0-10.342 8.8-18.977 20.512-21.018a18.155 18.155 0 0 0-9.014.767c-3.447.736-6.623.842-11.895-2.195-8.778-5.069-30.296-17.499-30.296-17.499-6.947-4.012-12.629-13.851-12.629-21.869l.002-35.205c0-5.587 1.424-8.324 3.484-10.76a30.675 30.675 0 0 1-8.395 1.162c-7.21 0-13.727-2.451-18.415-6.407a18.374 18.374 0 0 0 3.548 4.33c2.506 2.725 4.333 5.396 4.333 11.734 0 10.127.006 35.145.006 35.145 0 8.018-5.68 17.857-12.629 21.869l-30.58 17.662c-5.089 2.861-8.224 2.755-11.595 2.032-4.81-1.692-10.297-1.366-15.051 1.385-8.657 4.994-11.62 16.062-6.628 24.71 4.999 8.658 16.061 11.62 24.714 6.626 4.634-2.68 7.619-7.092 8.637-11.959 1.107-3.526 2.506-6.453 7.992-9.614 8.776-5.073 30.229-17.478 30.229-17.478 6.949-4.007 18.315-4.007 25.259 0 0 0 21.472 12.404 30.244 17.478 5.485 3.161 6.885 6.088 7.991 9.614.057.3.154.591.234.877-.041-.454-.058-.92-.058-1.387zm-116.061 2.847c-3.284 1.903-7.493.775-9.396-2.521a6.878 6.878 0 0 1 2.521-9.394c3.288-1.896 7.498-.776 9.396 2.517a6.873 6.873 0 0 1-2.521 9.398z"/>
  <path fill="#04D9FF" d="M265.991 149.148a18.003 18.003 0 0 0-3.49.846c-3.438.73-6.63.835-11.902-2.206l-30.301-17.493c-6.946-4.007-12.623-13.85-12.623-21.873V73.224c0-6.083 1.692-8.793 4.045-11.408 3.872-3.314 6.331-8.229 6.331-13.724 0-9.995-8.099-18.092-18.091-18.092-9.997 0-18.09 8.097-18.09 18.093 0 5.351 2.334 10.145 6.032 13.46 2.506 2.718 4.338 5.391 4.338 11.728v35.143c0 8.022-5.684 17.865-12.625 21.873l-30.585 17.659c-5.091 2.863-8.221 2.755-11.597 2.041-.835-.3-1.692-.505-2.561-.674 5.931 4.064 9.977 12.175 9.977 21.52 0 3.516-.575 6.859-1.609 9.876a18.04 18.04 0 0 0 5.867-9.96c1.106-3.535 2.503-6.456 7.994-9.623 8.776-5.065 30.228-17.474 30.228-17.474 6.949-4.009 18.318-4.009 25.256 0 0 0 21.467 12.409 30.243 17.474 5.487 3.167 6.899 6.087 7.996 9.623.193.952.498 1.884.852 2.794.678-10.63 6.306-19.723 14.315-24.405zm-66.15-94.159a6.875 6.875 0 0 1-6.875-6.877c0-3.8 3.077-6.885 6.875-6.885a6.88 6.88 0 0 1 6.881 6.885 6.873 6.873 0 0 1-6.881 6.877z"/>
  <path fill="#FD2400" d="M284.435 157.964c-4.999-8.648-16.063-11.619-24.72-6.623-4.637 2.676-7.616 7.099-8.631 11.955-1.11 3.533-2.509 6.458-7.996 9.616-8.776 5.072-30.226 17.479-30.226 17.479-6.951 4.006-18.313 4.006-25.262 0l-30.243-17.479c-5.485-3.158-6.888-6.083-7.992-9.616-1.018-4.856-4.002-9.279-8.638-11.955-8.65-4.996-19.717-2.025-24.711 6.623-4.996 8.655-2.03 19.712 6.621 24.711 4.761 2.749 10.246 3.075 15.055 1.382 3.437-.736 6.628-.833 11.893 2.206 8.778 5.062 30.296 17.489 30.296 17.489 6.949 4.011 12.634 13.854 12.634 21.875 0 0-.007 25.064-.007 35.199 0 6.078-1.684 8.793-4.037 11.407-3.869 3.314-6.333 8.226-6.333 13.73 0 9.989 8.102 18.087 18.095 18.087 9.998 0 18.091-8.098 18.091-18.087 0-5.36-2.346-10.151-6.035-13.461-2.508-2.725-4.333-5.396-4.333-11.73 0-10.134-.004-35.145-.004-35.145 0-8.021 5.682-17.861 12.625-21.875l30.573-17.651c5.092-2.866 8.23-2.757 11.602-2.043 4.809 1.692 10.302 1.366 15.053-1.382 8.667-4.999 11.625-16.057 6.63-24.712zm-146.716 12.395c-1.904 3.291-6.111 4.421-9.402 2.518a6.88 6.88 0 0 1-2.52-9.394c1.9-3.291 6.11-4.423 9.4-2.523a6.884 6.884 0 0 1 2.522 9.399zm62.63 122.464a6.883 6.883 0 1 1 0-13.766c3.791 0 6.872 3.08 6.872 6.885a6.877 6.877 0 0 1-6.872 6.881zm71.78-119.946c-3.289 1.904-7.499.773-9.399-2.518-1.904-3.288-.766-7.498 2.514-9.4a6.89 6.89 0 0 1 9.407 2.523 6.885 6.885 0 0 1-2.522 9.395z"/>
</svg>
