<svg xmlns="http://www.w3.org/2000/svg" viewBox="0 0 350 350">
  <circle cx="175" cy="175" r="175" fill="#fff"/>
  <path fill="#603393" d="M65.1 138.1c20.4 0 32.6 12.4 32.6 33.2v25.5c0 6.3-4.2 10.6-10.6 10.6v-36.1c0-14.8-8-23.3-22-23.3s-22 8.5-22 23.3v25.5c0 6.3-4.2 10.6-10.6 10.6v-36.1c.1-20.8 12.3-33.2 32.6-33.2zm78.7 0c20.4 0 35.1 14.6 35.1 34.6v3.8h-59.6c1.6 12.5 11.3 20.9 24.5 20.9 8.2 0 14.8-2.8 19.1-8 4.2-5.1 9.7-5.2 13.7-3.2l-.4 1c-5.2 12.4-17.6 20.1-32.3 20.1-20.5 0-35.4-14.6-35.4-34.6-.1-20 14.7-34.6 35.3-34.6zm78.4 0c20.8 0 35.3 14.4 35.3 35v34.2c-6 0-9.9-4-9.9-9.9V193c-5.2 9-14.9 14.3-26.6 14.3-19.8 0-34.1-14.4-34.1-34.2-.1-20.6 14.5-35 35.3-35zm56.5-15.4v20h24.7c0 6.3-4.2 10.6-10.6 10.6h-14.1v28.2c0 10.5 5.5 16.3 15.5 16.3 4 0 7.2-.9 9.7-2.7 1.4 13.1-13.8 12.4-16.2 12-12.4-2.3-19.5-11.5-19.5-25.6V127l10.5-4.3zm41.3 63.2c4.4 0 8.1 3.6 8.1 8.1 0 4.4-3.6 8.1-8.1 8.1-4.4 0-8.1-3.6-8.1-8.1 0-4.4 3.6-8.1 8.1-8.1zM222.2 148c-14.5 0-24.7 10.2-24.7 24.7s10.2 24.7 24.7 24.7 24.7-10.2 24.7-24.7-10.1-24.7-24.7-24.7zm-78.4 0c-12.5 0-21.9 7.3-24.1 18.8h48.1c-2.4-11.4-11.7-18.8-24-18.8z"/>
</svg>
