<svg xmlns="http://www.w3.org/2000/svg" xmlns:xlink="http://www.w3.org/1999/xlink" viewBox="0 0 64 64">
  <defs>
    <linearGradient id="c" x1="-4.918" x2="19.247" y1="55.976" y2="31.811" gradientUnits="userSpaceOnUse">
      <stop offset="0" stop-color="#ff7911"/>
      <stop offset=".565" stop-color="#fe7711"/>
      <stop offset=".769" stop-color="#fb700f"/>
      <stop offset=".913" stop-color="#f5650c"/>
      <stop offset="1" stop-color="#f05909"/>
    </linearGradient>
    <linearGradient id="d" x1="-7.168" x2="18.537" y1="54.249" y2="32.68" gradientUnits="userSpaceOnUse">
      <stop offset=".5" stop-color="#ff8d15" stop-opacity="0"/>
      <stop offset=".67" stop-color="#fe8a14" stop-opacity=".34"/>
      <stop offset=".772" stop-color="#fa8212" stop-opacity=".543"/>
      <stop offset=".855" stop-color="#f3740f" stop-opacity=".711"/>
      <stop offset=".929" stop-color="#ea600a" stop-opacity=".858"/>
      <stop offset=".996" stop-color="#de4603" stop-opacity=".992"/>
      <stop offset="1" stop-color="#dd4403"/>
    </linearGradient>
    <linearGradient id="e" x1="47.067" x2="68.472" y1="53.568" y2="37.808" gradientUnits="userSpaceOnUse">
      <stop offset=".436" stop-color="#ff8f15"/>
      <stop offset=".741" stop-color="#ff9916" stop-opacity=".46"/>
      <stop offset="1" stop-color="#ffa618" stop-opacity="0"/>
    </linearGradient>
    <clipPath id="b">
      <use overflow="visible" xlink:href="#a"/>
    </clipPath>
    <path id="a" d="M2.7 23.8v36.5c0 2.9 3.3 4.5 5.5 2.7L30 46.3c1.2-1 3-1 4.2 0L56 63c2.3 1.7 5.5.1 5.5-2.7V23.8c0-1.1-.5-2.1-1.4-2.7l-26-19.9c-1.2-.9-3-.9-4.2 0L4 21.1c-.8.6-1.3 1.6-1.3 2.7z"/>
  </defs>
  <g clip-path="url(#b)" transform="matrix(.76 0 0 .76 4.028 4.18)">
    <path fill="url(#c)" d="M3 22.4c-.2.4-.3.9-.3 1.5v38.8c0 1.9 2.2 3 3.7 1.8l25.7-19.8L3 22.4z"/>
    <path fill="url(#d)" d="M3 22.4c-.2.4-.3.9-.3 1.5v38.8c0 1.9 2.2 3 3.7 1.8l25.7-19.8L3 22.4z" opacity=".5"/>
    <path fill="#ff8f15" d="M3 22.4l29.1 22.3 29.1-22.3c-.2-.5-.6-.9-1-1.3L33.6.7c-.9-.7-2.1-.7-3 0L11.9 15 4 21c-.4.4-.8.9-1 1.4z"/>
    <path fill="#ffa618" d="M32.1 44.7l2.1 1.6 20.1 15.4 3.6 2.7c1.5 1.2 3.7.1 3.7-1.8V23.8c0-.5-.1-1-.3-1.5L32.1 44.7z"/>
    <path fill="url(#e)" d="M32.1 44.7l2.1 1.6 20.1 15.4 3.6 2.7c1.5 1.2 3.7.1 3.7-1.8V23.8c0-.5-.1-1-.3-1.5L32.1 44.7z"/>
  </g>
</svg>
