<svg xmlns="http://www.w3.org/2000/svg" viewBox="0 0 407 407">
    <defs>
        <radialGradient id="a" cx="48.34%" cy="49.419%" r="22.666%" fx="48.34%" fy="49.419%" gradientTransform="matrix(1 0 0 .55088 0 .222)"/>
    </defs>
    <circle cx="203" cy="203" r="203"/>
    <path fill="#B1060F" stroke="#000" stroke-width=".5" d="M227.995 58.937l-.107 61.055-.108 61.055-5.023-14.173-.01-.028-6.49 135.925c6.381 18.023 9.8 27.644 9.839 27.683.05.05 3.687.27 8.082.487 13.316.661 29.817 2.077 42.335 3.632 2.898.36 5.392.545 5.543.41.15-.134.231-62.3.181-138.145l-.091-137.901h-54.151 0zm-97.943-.182v138.04c0 75.923.075 138.116.166 138.207.09.091 4.792-.353 10.448-.986 5.656-.634 13.472-1.421 17.37-1.75 5.978-.505 23.826-1.653 25.893-1.665.601-.004.64-3.106.727-58.469l.092-58.464 4.318 12.219 1.527 4.318 6.49-135.892-2.23-6.302a51037.214 51037.214 0 0 0-9.999-28.257l-.359-1h-54.443z"/>
    <path fill="url(#a)" d="M0 0v77.486l54.585 144.796c.006-3.319.013-5.111.019-8.904l.091-58.465 4.319 12.219c24.039 68.02 36.954 104.491 37.03 104.567.05.05 3.687.27 8.082.488 13.316.66 29.817 2.076 42.334 3.632 2.899.36 5.393.544 5.543.41.103-.093.17-30.574.189-73.575L97.862 46.456l-.026 14.781-.108 61.056-5.023-14.174c-4.909-13.85-8.186-23.11-27.905-78.863A51037.214 51037.214 0 0 0 54.802.999L54.442 0H0z" transform="translate(130.052 58.755)"/>
    <path fill="#E50914" d="M130.054 58.755l54.694 154.984v-.07l4.318 12.218c24.04 68.02 36.954 104.49 37.03 104.567.05.05 3.687.27 8.082.487 13.316.661 29.817 2.077 42.335 3.632 2.883.359 5.365.543 5.538.412l-54.27-153.966v.028l-5.024-14.173c-4.908-13.85-8.185-23.111-27.904-78.863a51037.268 51037.268 0 0 0-9.999-28.257l-.359-1h-54.441z"/>
    <path fill="#B1060F" stroke="#000" stroke-width=".5" d="M227.995 58.937l-.107 61.055-.108 61.055-5.023-14.173-.01-.028-6.49 135.925c6.381 18.023 9.8 27.644 9.839 27.683.05.05 3.687.27 8.082.487 13.316.661 29.817 2.077 42.335 3.632 2.898.36 5.392.545 5.543.41.15-.134.231-62.3.181-138.145l-.091-137.901h-54.151 0zm-97.943-.182v138.04c0 75.923.075 138.116.166 138.207.09.091 4.792-.353 10.448-.986 5.656-.634 13.472-1.421 17.37-1.75 5.978-.505 23.826-1.653 25.893-1.665.601-.004.64-3.106.727-58.469l.092-58.464 4.318 12.219 1.527 4.318 6.49-135.892-2.23-6.302a51037.214 51037.214 0 0 0-9.999-28.257l-.359-1h-54.443z"/>
    <path fill="url(#a)" d="M0 0v77.486l54.585 144.796c.006-3.319.013-5.111.019-8.904l.091-58.465 4.319 12.219c24.039 68.02 36.954 104.491 37.03 104.567.05.05 3.687.27 8.082.488 13.316.66 29.817 2.076 42.334 3.632 2.899.36 5.393.544 5.543.41.103-.093.17-30.574.189-73.575L97.862 46.456l-.026 14.781-.108 61.056-5.023-14.174c-4.909-13.85-8.186-23.11-27.905-78.863A51037.214 51037.214 0 0 0 54.802.999L54.442 0H0z" transform="translate(130.052 58.755)"/>
    <path fill="#E50914" d="M130.054 58.755l54.694 154.984v-.07l4.318 12.218c24.04 68.02 36.954 104.49 37.03 104.567.05.05 3.687.27 8.082.487 13.316.661 29.817 2.077 42.335 3.632 2.883.359 5.365.543 5.538.412l-54.27-153.966v.028l-5.024-14.173c-4.908-13.85-8.185-23.111-27.904-78.863a51037.268 51037.268 0 0 0-9.999-28.257l-.359-1h-54.441z"/>
</svg>
