<svg xmlns="http://www.w3.org/2000/svg" viewBox="0 0 40 40">
  <circle cx="20" cy="20" r="20" fill="#44a7bc"/>
  <path fill="#fff" d="M26.872 15.304h-.016l-.016-.008a.088.088 0 0 1-.024-.08l.624-3.776 2.896 2.896-3.016 1.28a.064.064 0 0 1-.024.008h-.016l-.016-.008a1.376 1.376 0 0 0-.4-.304zm4.208-.224l3.096 3.096c.64.64.968.968 1.088 1.344l.04.16-7.408-3.136a.584.584 0 0 0-.016 0c-.024-.016-.064-.032-.064-.056 0-.032.04-.048.072-.056l3.192-1.36zm4.096 5.6c-.16.304-.472.616-1 1.144L30.68 25.32l-4.52-.944h-.024c-.04-.008-.08-.016-.08-.056a1.36 1.36 0 0 0-.528-.96c-.016-.016-.008-.04 0-.064v-.016l.848-5.216v-.024c0-.04.016-.08.048-.08a1.384 1.384 0 0 0 .928-.536l.024-.024c.024-.008.056 0 .08.016l7.72 3.264zm-5.296 5.44l-5.752 5.752.984-6.048v-.008l.008-.024c.008-.024.032-.032.048-.04h.008a1.48 1.48 0 0 0 .56-.416.116.116 0 0 1 .072-.048.072.072 0 0 1 .024 0l4.048.832zm-6.96 6.96l-.656.656-7.16-10.352a.336.336 0 0 0-.008-.016l-.024-.048.016-.032.008-.008.064-.104.016-.024.04-.048h.064l7.936 1.632a.128.128 0 0 1 .056.024c.016.016.016.024.016.04a1.408 1.408 0 0 0 .824.936c.024.016.016.04 0 .064a.192.192 0 0 0-.008.04l-1.192 7.248zm-1.36 1.36c-.48.472-.76.72-1.08.824a1.6 1.6 0 0 1-.96 0c-.376-.12-.696-.44-1.344-1.088l-7.192-7.192 1.88-2.912a.12.12 0 0 1 .032-.04c.016-.016.048-.008.072 0a1.944 1.944 0 0 0 1.312-.064c.016-.008.04-.016.056 0a.152.152 0 0 1 .024.024l7.2 10.448zm-11.272-8.152L8.64 24.64l3.256-1.392a.064.064 0 0 1 .032 0c.024 0 .04.024.056.048a2.328 2.328 0 0 0 .104.144l.008.016v.04l-1.808 2.8zM7.92 23.92l-2.088-2.088c-.36-.36-.616-.616-.8-.84l6.352 1.32a.672.672 0 0 0 .024 0c.04.008.08.016.08.056s-.04.056-.08.072l-.024.008L7.92 23.92zm-3.248-4a1.6 1.6 0 0 1 .08-.4c.112-.368.432-.688 1.08-1.336l2.672-2.672a1740.424 1740.424 0 0 0 3.696 5.352c.024.032.048.064.024.08a2.27 2.27 0 0 0-.32.424.128.128 0 0 1-.04.056h-.032l-7.168-1.512zm4.544-5.12l3.6-3.6c.328.16 1.56.672 2.656 1.136l1.832.776c.024.008.048.024.056.048v.048a1.6 1.6 0 0 0 .416 1.456c.024.024 0 .064-.016.088l-.016.024-3.648 5.648a.112.112 0 0 1-.032.04h-.072a1.816 1.816 0 0 0-.432-.056 2.4 2.4 0 0 0-.416.048h-.048a.168.168 0 0 1-.032-.048L9.224 14.8zm4.32-4.32l4.648-4.648c.64-.64.968-.968 1.344-1.088a1.6 1.6 0 0 1 .96 0c.376.12.696.44 1.344 1.088L22.84 6.84l-3.312 5.12a.12.12 0 0 1-.032.04c-.016.016-.048 0-.072 0a1.68 1.68 0 0 0-1.536.296c-.024.024-.056.008-.08 0l-4.272-1.816zm10-2.936l3.056 3.048-.736 4.56v.016a.112.112 0 0 1 0 .024.044.044 0 0 1-.04.024 1.464 1.464 0 0 0-.44.224.12.12 0 0 0-.016.008l-.032.024a.088.088 0 0 1-.04 0l-4.648-1.984h-.008c-.032-.016-.072-.032-.072-.064a1.76 1.76 0 0 0-.24-.728c-.024-.04-.048-.08-.032-.112l3.256-5.04zm-3.144 6.88l4.368 1.848c.024.016.048.024.056.048a.08.08 0 0 1 0 .048c-.008.064-.024.136-.024.208v.12c0 .032-.032.048-.056.056h-.008l-9.72 4.144c-.016 0-.024 0-.04-.016-.024-.024 0-.056.024-.08a.608.608 0 0 0 0-.024l3.6-5.552v-.008c.016-.032.04-.072.08-.072h.04l.224.024c.544 0 1.048-.264 1.36-.72a.128.128 0 0 1 .024-.024c.016-.016.048-.008.08 0zM15.4 21.776l9.824-4.192.024.016.144.12.024.016c.016.008.04.024.04.04v.024l-.84 5.168v.024c-.016.04-.016.08-.056.08a1.384 1.384 0 0 0-1.096.68c-.016.024-.024.04-.048.048a.068.068 0 0 1-.056 0l-7.832-1.608-.128-.416z"/>
</svg>
