<svg xmlns="http://www.w3.org/2000/svg" viewBox="0 0 260 260">
    <rect width="260" height="260" rx="30" fill="#fff" />
    <g transform="translate(0 35)">
    <path d="M74 114.9v22c0 9.3 7.2 16.8 16.2 16.8h136.9V95c0-9.3-7.2-16.8-16.2-16.8h-22.6v19.9c0 9.3-7.5 16.8-16.8 16.8H74z" fill="#00a5d6"/><path d="M52 114.9h22v-20c0-9.3 7.5-16.8 16.8-16.8h97.5v-22c0-9.3-7.5-16.8-16.8-16.8H35.2V98c0 9.4 7.5 16.9 16.8 16.9z" fill="#e20000"/>
    <path fill="#1a1a1a" d="M74 114.9h97.5c9.3 0 16.8-7.5 16.8-16.8V78.2H90.8C81.5 78.2 74 85.7 74 95v19.9z"/>
    </g>
</svg>