<svg xmlns="http://www.w3.org/2000/svg" viewBox="0 0 602 602">
    <circle cx="300.5" cy="300.5" r="300.5" fill="#FCE819"/>
    <path fill="#4A4A4A" d="M252.12 413.897c-18.13 0-32.855 15.325-32.855 34.257 0 18.931 14.724 34.257 32.855 34.257 18.13 0 32.854-15.326 32.854-34.257 0-18.932-14.724-34.257-32.854-34.257zm0 52.087c-9.015 0-16.328-8.014-16.328-17.93 0-9.917 7.313-17.93 16.328-17.93 9.014 0 16.327 8.013 16.327 17.93 0 9.916-7.312 17.93-16.327 17.93zM349.682 413.897c-18.13 0-32.855 15.325-32.855 34.257 0 18.931 14.725 34.257 32.855 34.257 18.13 0 32.854-15.326 32.854-34.257 0-18.932-14.724-34.257-32.854-34.257zm0 52.087c-9.015 0-16.327-8.014-16.327-17.93 0-9.917 7.312-17.93 16.327-17.93s16.327 8.013 16.327 17.93c0 9.916-7.312 17.93-16.327 17.93zM451.05 413.897c-12.42 0-19.432 6.711-19.432 6.711l-1.603-5.108h-12.82v65.408h16.426v-36.66c0-13.924 14.925-14.024 14.925-14.024 11.32 0 11.82 12.12 11.82 12.12v38.665h16.127v-41.87c-1.903-26.344-25.442-25.242-25.442-25.242zM158.364 413.897c-12.421 0-19.433 6.711-19.433 6.711l-1.602-5.108h-12.822v65.408h16.428v-36.66c0-13.924 14.924-14.024 14.924-14.024 11.32 0 11.82 12.12 11.82 12.12v38.665h16.127v-41.87c-2.003-26.344-25.442-25.242-25.442-25.242z"/>
    <path fill="#4A4A4A" d="M319.331 134.894l24.842-42.67s-21.436-12.321-62.404-5.31l-31.253 54.592c-.1.1 26.144-17.23 68.815-6.612zM390.45 117.165l-24.641 42.27c20.834 18.33 34.557 43.373 34.557 73.322 0 55.393-44.875 100.267-100.267 100.267-55.392 0-101.97-44.874-101.97-100.267 0-7.512.602-13.923 2.204-20.934l-46.778 27.345c0 74.624 62.404 140.334 146.544 140.334 81.035 0 146.745-65.71 146.745-146.745 0-46.978-22.037-88.747-56.394-115.592z"/>
</svg>
