<svg xmlns="http://www.w3.org/2000/svg" viewBox="0 0 307 261">
  <path fill="#fefefe" d="M203.01 13.03c3.99-2.83 9.44-6.42 14.24-3.22 4.34 2.11 5.01 7.71 3.6 11.87-2.54 8.26-7.39 15.57-12.19 22.68-1.48 2.12-2.7 4.4-3.78 6.75 5.3.09 10.64-.86 15.91.07 5.43 1 10.41 3.86 14.35 7.68 4.14 3.9 6.54 9.42 11.42 12.58 16.42 11.49 30.14 27.73 36.1 47.09 5.78 19.1 2.69 40.5-7.58 57.54-12.9 21.13-34.02 36.22-56.78 45.24-3.51 1.53-7.36 2.33-10.62 4.38-1.65 3.25-2.23 6.9-3.51 10.3-2.64 6.23-7.88 12.57-15.09 13.11-4.74-.91-8.19-4.89-11.52-8.11-1.48-1.73-2.75-3.76-4.79-4.89-4.95.1-9.65 2.59-14.68 1.89-4.47-.26-7.77-3.77-11.97-4.82-5.16 1.83-9.52 5.32-14.4 7.74-7.14 3.59-15.44 5.38-23.34 3.58-5.46-1.56-9.36-6.32-11.6-11.33-.96-3.12-1.02-6.47-2.23-9.51-1.76-2.2-4.64-3-7.08-4.19-20.26-8.6-39.04-22.14-50.92-40.94-1.6-2.3-2.86-5.32-5.84-6.08-2.14-1.09-6-1.41-5.93-4.51.13-3.07 1.88-5.8 2.12-8.86-.14-2.85-1.05-5.58-1.54-8.38-2.91-14.53-.12-29.8 6.16-43.09 5.19-10.85 12.96-20.27 21.86-28.28 4.07-3.18 4.36-9.32 8.97-11.93 4.38-2.19 9.66-1.56 13.95-4.08 15.14-8.16 31.63-14.02 48.72-16.3 3.73-.52 7.6-1.11 10.81-3.22 3.03-1.9 5.15-4.84 7.39-7.55 6.14-6.54 12.89-12.55 20.07-17.93 4.45-3.4 9.62-5.84 15.12-6.95 1.98-.37 4.43-.04 5.34 2.03 2.44 4.82 2.22 10.41 2.52 15.67 5.28-5.63 10.59-11.34 16.74-16.03m4.58 2.64c-4.73 3.53-9.39 7.18-13.59 11.35-3.47 3.18-6.2 7.06-9.76 10.15-.58-.37-1.73-1.11-2.31-1.48-.11-4.55.3-9.12-.01-13.67-.11-2.06-1.73-4.19-3.98-3.88-6.51.84-12.51 4.11-17.43 8.37-7.68 6.68-14.27 14.48-20.7 22.34-1.19 1.54-2.79 2.72-4.68 3.22-13.76 4.23-25.72 12.5-37.41 20.63-1.48.91-2.92 2.11-4.69 2.32-4.12-1.14-7.91-3.37-12.2-3.94-5.13-.68-10.68-.93-15.5 1.21-3.25 1.71-2.67 6.05-1.55 8.92 2.17 5.82 8.07 8.75 11.77 13.4 1.38 1.58.78 3.95-.85 5.08-5.5 4.35-13.43 5.4-17.59 11.45-2.48 3.96 2.26 7.43 4.87 9.78 2.2-1.27 4.28-2.74 6.34-4.21 1.01 3.01-.96 5.61-2.27 8.14-5.06-1.42-10.42-2.03-15.63-1.21-3.15.5-5.84 2.92-6.62 6.01-1.46 4.8-.1 9.78 1.07 14.48.69 2.67-1.97 4.46-3.57 6.14-5.12 4.45-9 10.28-11.04 16.76 3.94 1.27 8.75 2.15 12.31-.55 3.9-2.82 4.64-7.9 6.79-11.9 3.28 2 5.32 5.39 8.32 7.73 4.77 4.04 10.61 6.4 16.4 8.56 3.94 1.45 6.48 4.97 8.74 8.32 4.53 6.67 10.79 11.91 17.33 16.54.91-.89 1.81-1.79 2.69-2.71-4.25-5.64-10.14-10.05-13.36-16.44-1.25-2.32-1.95-5.39-4.73-6.33-6.86-3.06-13.77-6.48-19.07-11.94-4.7-4.48-8.58-10.5-8.44-17.21.16-3.65 3.2-6.61 6.78-6.98 5.92-.57 11.91-.14 17.69 1.28 1.04-1.16 1.91-2.68 3.56-3.01 12.47-4.17 24.88-8.7 37.79-11.36 1.64-.19 3.9-.74 4.84 1.09 2.58 4.1 4.41 8.69 7.61 12.41 8.89 11.56 26.12 15.92 39.24 9.27 10.93-5.31 17.48-17.11 18.92-28.86.79-5.03-.56-10-.85-15.01 1.96-1.44 4.22-1.58 6.05.16 10.64 7.19 21.27 14.6 30.39 23.7 2.82 2.82 5.35 6.93 3.79 11.03-2.46 6.33-7.16 11.65-12.47 15.78-4.4 3.56-10.37 4.52-14.41 8.57-3.42 3.23-5.44 7.66-6.49 12.2 1.61-.23 3.23-.43 4.78-.94 12.48-4.02 24.53-10.8 32.51-21.45 3.8-5.12 7.52-11.14 6.93-17.78-.98-6.85-5.94-12.14-10.16-17.28 2.95-3.44 5.42-7.25 8.06-10.92 7.76 12.33 8.63 27.41 7.52 41.55 2.96-1.58 2.71-5.24 3.36-8.07 2.45-14.98.01-30.68-7.05-44.13-3.94-6.98-3.27-15.56-7.59-22.36-3.71-5.85-9.23-10.68-15.75-13.11-6.63-2.73-14.03 1.63-20.54-1.65-2.52-1.03-4.05-4.24-2.15-6.56 5.78-9.04 12.79-17.57 16.18-27.91.56-2.21 1.27-5.34-1.11-6.74-2.42-1.44-5.09.26-7.08 1.65m-83.91 117.98c-4.17 1.94-7.13 6.54-6.56 11.21 2.42-.85 4.6-2.22 6.93-3.28 1.45 4.77 1.79 9.78 2.91 14.62 2.87 13.27 8.07 26.38 17.24 36.58 6.96 7.92 16.67 13.26 27.01 15.17 1.32.19 2.87.23 3.59-1.15 3.76-5.19 7.08-10.76 9.2-16.84 1.1-3.41 4.33-5.41 7.64-6.25 6.45-2.05 14.19-4.8 16.37-11.97-7.26 1.48-14.58 3.16-22.03 2.87-8.16-.42-16.29-1.84-23.99-4.63-13.91-4.92-25.96-14.71-34-27.04-1.97-2.52 2.16-4.97.8-7.57-1.27-1.29-3.27-2.52-5.11-1.72m-55.23 6.8c-2.85 1.05-3.02 4.8-2.55 7.33.89 2.94 4.46 2.46 6.84 2.28.36-2.09-.07-4.42 1-6.32 2.07-.97 4.4-1.13 6.6-1.62-3.71-1.56-7.89-2.52-11.89-1.67m30.95 6.83c-2.07.71-2.31 3.36-1.84 5.19.75 3.3 6.72 3.01 6.89-.54 1.07-3.03-2.2-5.77-5.05-4.65m7.99 7.11c-1.84 2.21-.33 5.74 2.62 5.62 3.17.54 3.98-3.56 2.58-5.69-1.53-1.32-3.64-.98-5.2.07m-8.67 5.58c.33 1.43.66 2.85 1.01 4.28l3.34-.32c.1-1.3 1.11-2.9-.01-4.01-1.05-1.47-3-.2-4.34.05m12.9 29.63c-6.98 8.92-11.8 19.97-11.63 31.45.04 5.48 1.52 11.42 5.87 15.08 4.2 3.66 10.4 4.11 15.48 2.21 6.11-2.39 12.17-4.94 18.06-7.85 2.85-1.3 5.4-3.41 8.54-3.96 3.06 1.79 5.45 4.75 9.01 5.67 3.65 1.36 7.63.47 11.08-1.06 1.91-.76 4.38-2.15 6.21-.44 4.49 3.5 8.4 7.68 12.68 11.42 1.38 1.41 3.77 1.32 5.21.04 6.87-5.06 9.79-13.81 9.87-22.08.11-6.54.25-13.79-3.63-19.39-1.86-2.79-5.88-2.32-8.21-.43-6.74 5.06-13.16 11.04-21.32 13.71-4.23 1.51-8.36-.6-11.69-3.07-2.05-1.74-4.67-.35-6.93.01-8.17-9.29-18.09-16.88-28.3-23.75-3.47-1.9-7.98-.67-10.3 2.44z"/>
  <path fill="#fefefe" d="M168.69 39.65c2.74-2.36 7.66-.37 7.52 3.34-.08 4.75-.82 9.67.97 14.23 4.75.71 7.18-4.17 10.63-6.44 1.33-1.52 4.17-.67 4.4 1.34 1.17 4.57-1.45 8.74-3.57 12.56 1.75.5 3.5 1.01 5.24 1.54-3.69 6.12-5.44 13.14-6.13 20.2-5.41-4.99-10.05-11.24-17.02-14.2-9.79-4.14-21.82-3.28-30.54 2.98-5.34 3.77-8.77 9.57-11.72 15.27-2.15 4.09-2.64 8.72-3.65 13.16-2.36.6-4.83 1-7 2.17-11.62 7.07-23.43 13.97-35.83 19.57 1.64-5.83 3.69-11.57 6.54-16.92 2.11-4.66 9.17-.2 11.51-4.7 1.06-2.45-1.45-4.31-2.78-6.03-2.22-2.74-5.89-5.45-5.2-9.41 2.06-2.8 5.92-2.31 8.95-2.24 6.26.25 12.23 2.28 18.4 3.1-2.55-2.28-5.31-4.32-7.82-6.64 2.48-2.92 5.72-5.03 9.12-6.71 9.22-4.69 16.39-12.29 24-19.09 7.22-6.71 15.76-11.75 23.98-17.08zM203.19 68.22c5.91-3.91 14.08-3.12 19.85.69 10.52 7.05 13.77 23.12 6.33 33.49-1.19 1.61-2.37 3.53-4.41 4.12-1.72.05-3.05-1.25-4.46-2.04-5.85-4.03-12.51-6.64-18.56-10.34-2.33-1.3-1.87-4.58-3.65-6.38-1.34-1.25-3.06-1.99-4.61-2.94.42-6.59 3.94-12.97 9.51-16.6m.31 21.34c2.5 2.67 6.05 4.04 9.26 5.65 3.82 1.93 8.5-1.04 9.57-4.89.78-2.52-.16-5.12-.68-7.59-.85 1.83-1.56 3.71-2.24 5.6-2.57-.28-5.22-.27-7.69-1.12-1.84-2.06-2.26-4.94-3.2-7.45.92-1.19 1.37-2.65 1.83-4.06-6.25.52-10.41 8.62-6.85 13.86z"/>
  <path fill="#fefefe" d="M155.41 79.55c11.78-3.13 23.57 5.2 28.41 15.61 4.68 9.68 4.35 21.87-1.77 30.85-5.11 7.64-14.88 12.05-23.96 10.07-18.26-4.14-27.13-27.74-18.83-43.8 3.45-6.1 9.38-10.85 16.15-12.73m-1.65 14.22c-5.03 5.49-3.82 15.04 2.07 19.45 4.22 3.63 11.23 4.03 15.2-.19 3.53-3.32 3.21-8.49 2.81-12.91-.67-.03-2.02-.1-2.7-.14-.26 1.42-.52 2.84-.8 4.25-2.68.74-5.34 1.98-8.17 1.84-3.94-1.22-4.27-6.03-5.52-9.32.71-1.49 1.15-3.09 1.47-4.7-1.54.29-3.35.32-4.36 1.72zM145.93 178.28c7.14-2.21 15.21 1.17 18.49 7.91 1.22-.38 2.44-.79 3.66-1.18 1.91 3.38 3.82 7.46 2.34 11.36-.57 2.29-3.38 2.37-5.15 1.52-7.33-3.03-14.31-7.86-18.27-14.89-.94-1.4-.91-3.12-1.07-4.72zM118.42 194.26c1.84-.76 3.99-.43 5.56.78 7.43 5.1 14.63 10.64 20.71 17.33 1.54 1.83 3.36 3.93 3.25 6.48-.64 3.06-3.64 4.59-6.11 6-6.45 3.4-12.94 7.05-20.09 8.74-5.69 1.3-11.57-2.68-13.24-8.11-2.55-11.09 1.92-23.39 9.92-31.22zM174.23 221.21c.56-3.61 4.6-4.56 7.52-5.54-1.46 2.22-3.13 4.28-4.81 6.32.29 1.5.61 2.99.87 4.5-1.54-1.42-4.15-2.77-3.58-5.28z"/>
  <path fill="#393939" d="M207.59 15.67c1.99-1.39 4.66-3.09 7.08-1.65 2.38 1.4 1.67 4.53 1.11 6.74-3.39 10.34-10.4 18.87-16.18 27.91-1.9 2.32-.37 5.53 2.15 6.56 6.51 3.28 13.91-1.08 20.54 1.65 6.52 2.43 12.04 7.26 15.75 13.11 4.32 6.8 3.65 15.38 7.59 22.36 7.06 13.45 9.5 29.15 7.05 44.13-.65 2.83-.4 6.49-3.36 8.07 1.11-14.14.24-29.22-7.52-41.55-2.64 3.67-5.11 7.48-8.06 10.92 4.22 5.14 9.18 10.43 10.16 17.28.59 6.64-3.13 12.66-6.93 17.78-7.98 10.65-20.03 17.43-32.51 21.45-1.55.51-3.17.71-4.78.94 1.05-4.54 3.07-8.97 6.49-12.2 4.04-4.05 10.01-5.01 14.41-8.57 5.31-4.13 10.01-9.45 12.47-15.78 1.56-4.1-.97-8.21-3.79-11.03-9.12-9.1-19.75-16.51-30.39-23.7-1.83-1.74-4.09-1.6-6.05-.16.29 5.01 1.64 9.98.85 15.01-1.44 11.75-7.99 23.55-18.92 28.86-13.12 6.65-30.35 2.29-39.24-9.27-3.2-3.72-5.03-8.31-7.61-12.41-.94-1.83-3.2-1.28-4.84-1.09-12.91 2.66-25.32 7.19-37.79 11.36-1.65.33-2.52 1.85-3.56 3.01a52.937 52.937 0 0 0-17.69-1.28c-3.58.37-6.62 3.33-6.78 6.98-.14 6.71 3.74 12.73 8.44 17.21 5.3 5.46 12.21 8.88 19.07 11.94 2.78.94 3.48 4.01 4.73 6.33 3.22 6.39 9.11 10.8 13.36 16.44-.88.92-1.78 1.82-2.69 2.71-6.54-4.63-12.8-9.87-17.33-16.54-2.26-3.35-4.8-6.87-8.74-8.32-5.79-2.16-11.63-4.52-16.4-8.56-3-2.34-5.04-5.73-8.32-7.73-2.15 4-2.89 9.08-6.79 11.9-3.56 2.7-8.37 1.82-12.31.55 2.04-6.48 5.92-12.31 11.04-16.76 1.6-1.68 4.26-3.47 3.57-6.14-1.17-4.7-2.53-9.68-1.07-14.48.78-3.09 3.47-5.51 6.62-6.01 5.21-.82 10.57-.21 15.63 1.21 1.31-2.53 3.28-5.13 2.27-8.14-2.06 1.47-4.14 2.94-6.34 4.21-2.61-2.35-7.35-5.82-4.87-9.78 4.16-6.05 12.09-7.1 17.59-11.45 1.63-1.13 2.23-3.5.85-5.08-3.7-4.65-9.6-7.58-11.77-13.4-1.12-2.87-1.7-7.21 1.55-8.92 4.82-2.14 10.37-1.89 15.5-1.21 4.29.57 8.08 2.8 12.2 3.94 1.77-.21 3.21-1.41 4.69-2.32 11.69-8.13 23.65-16.4 37.41-20.63 1.89-.5 3.49-1.68 4.68-3.22 6.43-7.86 13.02-15.66 20.7-22.34 4.92-4.26 10.92-7.53 17.43-8.37 2.25-.31 3.87 1.82 3.98 3.88.31 4.55-.1 9.12.01 13.67.58.37 1.73 1.11 2.31 1.48 3.56-3.09 6.29-6.97 9.76-10.15 4.2-4.17 8.86-7.82 13.59-11.35m-38.9 23.98c-8.22 5.33-16.76 10.37-23.98 17.08-7.61 6.8-14.78 14.4-24 19.09-3.4 1.68-6.64 3.79-9.12 6.71 2.51 2.32 5.27 4.36 7.82 6.64-6.17-.82-12.14-2.85-18.4-3.1-3.03-.07-6.89-.56-8.95 2.24-.69 3.96 2.98 6.67 5.2 9.41 1.33 1.72 3.84 3.58 2.78 6.03-2.34 4.5-9.4.04-11.51 4.7-2.85 5.35-4.9 11.09-6.54 16.92 12.4-5.6 24.21-12.5 35.83-19.57 2.17-1.17 4.64-1.57 7-2.17 1.01-4.44 1.5-9.07 3.65-13.16 2.95-5.7 6.38-11.5 11.72-15.27 8.72-6.26 20.75-7.12 30.54-2.98 6.97 2.96 11.61 9.21 17.02 14.2.69-7.06 2.44-14.08 6.13-20.2-1.74-.53-3.49-1.04-5.24-1.54 2.12-3.82 4.74-7.99 3.57-12.56-.23-2.01-3.07-2.86-4.4-1.34-3.45 2.27-5.88 7.15-10.63 6.44-1.79-4.56-1.05-9.48-.97-14.23.14-3.71-4.78-5.7-7.52-3.34m34.5 28.57c-5.57 3.63-9.09 10.01-9.51 16.6 1.55.95 3.27 1.69 4.61 2.94 1.78 1.8 1.32 5.08 3.65 6.38 6.05 3.7 12.71 6.31 18.56 10.34 1.41.79 2.74 2.09 4.46 2.04 2.04-.59 3.22-2.51 4.41-4.12 7.44-10.37 4.19-26.44-6.33-33.49-5.77-3.81-13.94-4.6-19.85-.69m-47.78 11.33c-6.77 1.88-12.7 6.63-16.15 12.73-8.3 16.06.57 39.66 18.83 43.8 9.08 1.98 18.85-2.43 23.96-10.07 6.12-8.98 6.45-21.17 1.77-30.85-4.84-10.41-16.63-18.74-28.41-15.61z"/>
  <path fill="#393939" d="M123.68 133.65c1.84-.8 3.84.43 5.11 1.72 1.36 2.6-2.77 5.05-.8 7.57 8.04 12.33 20.09 22.12 34 27.04 7.7 2.79 15.83 4.21 23.99 4.63 7.45.29 14.77-1.39 22.03-2.87-2.18 7.17-9.92 9.92-16.37 11.97-3.31.84-6.54 2.84-7.64 6.25-2.12 6.08-5.44 11.65-9.2 16.84-.72 1.38-2.27 1.34-3.59 1.15-10.34-1.91-20.05-7.25-27.01-15.17-9.17-10.2-14.37-23.31-17.24-36.58-1.12-4.84-1.46-9.85-2.91-14.62-2.33 1.06-4.51 2.43-6.93 3.28-.57-4.67 2.39-9.27 6.56-11.21m22.25 44.63c.16 1.6.13 3.32 1.07 4.72 3.96 7.03 10.94 11.86 18.27 14.89 1.77.85 4.58.77 5.15-1.52 1.48-3.9-.43-7.98-2.34-11.36-1.22.39-2.44.8-3.66 1.18-3.28-6.74-11.35-10.12-18.49-7.91zM68.45 140.45c4-.85 8.18.11 11.89 1.67-2.2.49-4.53.65-6.6 1.62-1.07 1.9-.64 4.23-1 6.32-2.38.18-5.95.66-6.84-2.28-.47-2.53-.3-6.28 2.55-7.33zM99.4 147.28c2.85-1.12 6.12 1.62 5.05 4.65-.17 3.55-6.14 3.84-6.89.54-.47-1.83-.23-4.48 1.84-5.19zM107.39 154.39c1.56-1.05 3.67-1.39 5.2-.07 1.4 2.13.59 6.23-2.58 5.69-2.95.12-4.46-3.41-2.62-5.62zM98.72 159.97c1.34-.25 3.29-1.52 4.34-.05 1.12 1.11.11 2.71.01 4.01l-3.34.32c-.35-1.43-.68-2.85-1.01-4.28z"/>
  <path fill="#069bcc" d="M126.6 37.77c5.5-.8 11.05-1.39 16.62-1.53-2.24 2.71-4.36 5.65-7.39 7.55-3.21 2.11-7.08 2.7-10.81 3.22-17.09 2.28-33.58 8.14-48.72 16.3-4.29 2.52-9.57 1.89-13.95 4.08-4.61 2.61-4.9 8.75-8.97 11.93-8.9 8.01-16.67 17.43-21.86 28.28-6.28 13.29-9.07 28.56-6.16 43.09.49 2.8 1.4 5.53 1.54 8.38-.24 3.06-1.99 5.79-2.12 8.86-.07 3.1 3.79 3.42 5.93 4.51 2.98.76 4.24 3.78 5.84 6.08 11.88 18.8 30.66 32.34 50.92 40.94 2.44 1.19 5.32 1.99 7.08 4.19 1.21 3.04 1.27 6.39 2.23 9.51-26.32-8.42-51.21-23.81-67.21-46.75-12.16-16.98-18.21-38.63-14.77-59.4 3.05-19.9 14.17-37.86 28.86-51.34 22.56-21.32 52.61-33.13 82.94-37.9zM204.88 51.11c1.08-2.35 2.3-4.63 3.78-6.75 1.44 0 2.86.16 4.27.47 26.12 8.46 50.86 23.61 67.04 46.19 11.71 16.01 18.08 36.2 15.92 56.07-1.9 19.75-11.94 38.04-25.83 51.95-17.82 18.35-41.34 30.43-65.89 36.95 1.28-3.4 1.86-7.05 3.51-10.3 3.26-2.05 7.11-2.85 10.62-4.38 22.76-9.02 43.88-24.11 56.78-45.24 10.27-17.04 13.36-38.44 7.58-57.54-5.96-19.36-19.68-35.6-36.1-47.09-4.88-3.16-7.28-8.68-11.42-12.58-3.94-3.82-8.92-6.68-14.35-7.68-5.27-.93-10.61.02-15.91-.07z"/>
  <path fill="#069bcc" d="M203.5 89.56c-3.56-5.24.6-13.34 6.85-13.86-.46 1.41-.91 2.87-1.83 4.06-1.25 2.03-3.4 4.29-2.31 6.85 1.65 3.58 5.66 5.88 9.52 6.04 2.4.06 2.93-2.59 3.68-4.32.68-1.89 1.39-3.77 2.24-5.6.52 2.47 1.46 5.07.68 7.59-1.07 3.85-5.75 6.82-9.57 4.89-3.21-1.61-6.76-2.98-9.26-5.65zM153.76 93.77c1.01-1.4 2.82-1.43 4.36-1.72-.32 1.61-.76 3.21-1.47 4.7-3.95 5.68-.21 15.54 7.27 15.13 4.12 0 6.04-4.11 6.42-7.65.28-1.41.54-2.83.8-4.25.68.04 2.03.11 2.7.14.4 4.42.72 9.59-2.81 12.91-3.97 4.22-10.98 3.82-15.2.19-5.89-4.41-7.1-13.96-2.07-19.45zM131.72 240.91c4.88-2.42 9.24-5.91 14.4-7.74 4.2 1.05 7.5 4.56 11.97 4.82 5.03.7 9.73-1.79 14.68-1.89 2.04 1.13 3.31 3.16 4.79 4.89-15.15 2.26-30.7 2.12-45.84-.08z"/>
  <path fill="#bcc7cb" d="M206.21 86.61c-1.09-2.56 1.06-4.82 2.31-6.85.94 2.51 1.36 5.39 3.2 7.45 2.47.85 5.12.84 7.69 1.12-.75 1.73-1.28 4.38-3.68 4.32-3.86-.16-7.87-2.46-9.52-6.04zM163.92 111.88c-7.48.41-11.22-9.45-7.27-15.13 1.25 3.29 1.58 8.1 5.52 9.32 2.83.14 5.49-1.1 8.17-1.84-.38 3.54-2.3 7.65-6.42 7.65z"/>
  <path fill="#fd0a0a" d="M111.62 189.6c2.32-3.11 6.83-4.34 10.3-2.44 10.21 6.87 20.13 14.46 28.3 23.75 2.26-.36 4.88-1.75 6.93-.01 3.33 2.47 7.46 4.58 11.69 3.07 8.16-2.67 14.58-8.65 21.32-13.71 2.33-1.89 6.35-2.36 8.21.43 3.88 5.6 3.74 12.85 3.63 19.39-.08 8.27-3 17.02-9.87 22.08-1.44 1.28-3.83 1.37-5.21-.04-4.28-3.74-8.19-7.92-12.68-11.42-1.83-1.71-4.3-.32-6.21.44-3.45 1.53-7.43 2.42-11.08 1.06-3.56-.92-5.95-3.88-9.01-5.67-3.14.55-5.69 2.66-8.54 3.96-5.89 2.91-11.95 5.46-18.06 7.85-5.08 1.9-11.28 1.45-15.48-2.21-4.35-3.66-5.83-9.6-5.87-15.08-.17-11.48 4.65-22.53 11.63-31.45m6.8 4.66c-8 7.83-12.47 20.13-9.92 31.22 1.67 5.43 7.55 9.41 13.24 8.11 7.15-1.69 13.64-5.34 20.09-8.74 2.47-1.41 5.47-2.94 6.11-6 .11-2.55-1.71-4.65-3.25-6.48-6.08-6.69-13.28-12.23-20.71-17.33-1.57-1.21-3.72-1.54-5.56-.78m55.81 26.95c-.57 2.51 2.04 3.86 3.58 5.28-.26-1.51-.58-3-.87-4.5 1.68-2.04 3.35-4.1 4.81-6.32-2.92.98-6.96 1.93-7.52 5.54z"/>
</svg>
