<svg xmlns="http://www.w3.org/2000/svg" viewBox="0 0 150 150">
    <path fill="#fff" d="M87 49.3c-3.7-1.7-7.8-2.2-11.8-2.4-2.9.1-5.6 1.1-8.3 2.2-.4.1-.8.3-1.1.6 8.2-3.5 18.1-2.6 25.5 2.3 1.9 1.8 4.5 3 5.9 5.3 2.7 3.7 5.1 7.8 6.3 12.3 1.8 10.5-2.8 21.9-11.5 28.1-2.3 1.8-5.1 3-7.8 4-2 .7-4.3.6-6.3 1.3 1.3 0 2.7.7 4.1.3 2.4-.6 4.9-1.2 7.1-2.4 4-2.4 8.1-5.1 10.7-9.1.4-.7 1.1-1.3 1.2-2.2l.2-.3s.1-.1.1-.2c1.6-2.2 1.8-5 2.5-7.6 1.6-5.6.9-11.7-1.4-17-3-6.7-8.6-12.2-15.4-15.2z"/>
    <path fill="#fff" d="M93.7 87.4c-1.9 2.9-4.1 5.8-6.9 8-1.4 1.1-3.2 1.6-4.8 2.4-1.5.7-2.9 1.6-4.5 2.1 2.4.5 4.7-.4 6.8-1.2 5.8-2.3 10.6-6.8 13.6-12.3 2.2-4.7 2.7-10.1 2.1-15.2-1.2-4.6-3.6-8.9-6.7-12.5-1.3-1.3-2.7-2.6-4.6-2.8-.5-.2-.9-.5-1.4-.7 2.2 1.9 4.2 3.9 5.9 6.2 3.3 4.2 5.9 9.5 5.2 15-.2 4.1-2.6 7.6-4.7 11zM58.3 91.4c-3.4-3.3-6.5-7.3-7.6-12-.1.6.1 1.2.3 1.8 2.6 10.4 12.3 18.7 23.1 18.9-2.8-.9-5.4-2.1-8-3.3-2.7-1.7-5.6-3.1-7.8-5.4z"/>
    <path d="M105.6 65c-.5-2.4-1.7-5.5-3-7.5-4.2-5.9-10.8-10.7-17.9-12.4-11.1-2.8-25.2 2-32.2 11-4.6 5.8-7.1 14-6.1 21.3.6 4.4.9 4.5 3.2 8.3-.3-.2.4 2 .1 1.8-.7-.3-.5 1.8-.1 2.2 1.8 3.5 4.3 7.8 7.5 10.2 2.7 1.5 5.9 3.2 8.8 4.4 3.5 1.2 7.9 1.8 11.6 1.5 4.3-.4 9.2-1.6 13.1-3.6 4-1.9 7.4-5.1 10.4-8.4 2.1-2.1 2.9-4.8 4.5-7.2 1.8-3 1.8-7.7 1.8-11 0-3.7-.6-7.1-1.7-10.6zM51 81.2c-.2-.6-.4-1.2-.3-1.8 1.1 4.7 4.2 8.7 7.6 12 2.2 2.3 5.2 3.6 7.7 5.4 2.6 1.2 5.3 2.4 8 3.3-10.7-.2-20.5-8.5-23-18.9zm42.3-19.9c-1.8-2.2-3.8-4.3-5.9-6.2.5.2.9.6 1.4.7 1.9.1 3.3 1.5 4.6 2.8 3.1 3.6 5.5 7.9 6.7 12.5.6 5.1.1 10.5-2.1 15.2-3 5.5-7.7 10-13.6 12.3-2.2.7-4.5 1.6-6.8 1.2 1.6-.4 3-1.3 4.5-2.1 1.6-.8 3.4-1.2 4.8-2.4 2.8-2.2 5-5.1 6.9-8 2.2-3.4 4.5-6.9 4.8-11 .5-5.5-2-10.8-5.3-15zm10.4 20.3c-.7 2.6-.9 5.3-2.5 7.6 0 .1-.1.2-.1.2l-.2.3c-.1.9-.7 1.5-1.2 2.2-2.6 4-6.7 6.7-10.7 9.1-2.2 1.2-4.7 1.7-7.1 2.4-1.3.4-2.7-.2-4.1-.3 2.1-.6 4.3-.5 6.3-1.3 2.7-1.1 5.5-2.2 7.8-4 8.7-6.2 13.3-17.6 11.5-28.1-1.2-4.5-3.6-8.6-6.3-12.3-1.4-2.3-3.9-3.5-5.9-5.3-7.4-4.9-17.3-5.8-25.5-2.3.3-.3.7-.5 1.1-.6 2.7-1 5.4-2 8.3-2.2 4 .2 8.1.6 11.8 2.4 6.7 3 12.3 8.5 15.3 15.3 2.4 5.2 3.1 11.3 1.5 16.9z" fill="#d7df23"/>
    <path d="M138.9 67.5c-.6-6.3-2.1-12.6-4.6-18.4-4.4-10.5-12.2-19.5-21.6-25.8-3.9-2-7.8-4.1-11.6-6.4-3.4-1.9-7-3.8-10.8-4.5-7.9-1.6-16-1.7-23.9-.3-4.8.8-9.5 2.2-14.2 3.4-10.2 4.4-19.1 11.6-26 20.3-4.4 5.4-7.7 11.6-9.9 18.2-3.9 11.4-4.2 23.9-1.2 35.4 2.6 10.1 7.7 19.6 14.7 27.3 10.1 11.3 24.5 18.6 39.6 19.9 14.7 1.3 29.5-3.4 41.4-12 .8-.5 1.4-1.4 2.3-1.8-.1.5-.7.7-1 1-2.2 1.9-4.6 3.7-7.1 5.3-.7.4-1.4.8-1.9 1.4.9-.3 1.7-.5 2.6-.7-.1.5-.3 1-.6 1.5 7.6-3.1 13.6-8.7 18.8-14.9.7-.9 1.5-1.7 2.1-2.6 4-7 9-13.6 11.1-21.5 2.5-7.9 3.3-16.5 1.8-24.8zm-72.3 35.4c-2.9-1.2-5.5-3-8.2-4.4-3.1-2.4-6.1-5.1-7.9-8.6-.3-.4-.3-1.2.4-.9.3.2.9.7 1.2.9-2.3-3.7-4-7.9-4.6-12.3-1-7.3 1.2-15 5.8-20.8 7-9 19.4-13.5 30.5-10.7 7.2 1.7 13.3 6.4 17.5 12.4 1.3 2 2.7 4.1 3.2 6.5 1 3.4 1.8 7 1.7 10.7 0 3.4-.4 6.9-2.1 9.9-1.6 2.4-1.8 5.6-3.9 7.7-3 3.3-6.3 6.4-10.3 8.3-3.9 2-8.2 2.7-12.5 3.1-3.6.3-7.3-.5-10.8-1.8zm62.9-18.7c-1.3 10.9-6.4 21.2-13.9 29.2-8 8.5-18.7 14.5-30.3 16.6-1.2 0-2.2.7-3.4.4 1.2.1 2.2-.5 3.3-.6 11.9-2.9 22.2-10.4 30.3-19.5 2.5-3.6 4.7-7.4 7.1-11.1 2.8-6.5 3-13.6 4-20.5.8-6.5-.9-12.9-3-19-2-6.6-5.4-12.8-10.2-17.8-2.7-2.8-5.8-5.1-9.2-7-9.8-6.1-21.6-9-33.2-7.9-10.2.9-20.3 5-27.9 12-2.7 2.5-4.9 5.3-7.1 8.3-.1 0-.3.1-.4.1.4-.6.6-1.3.8-1.9 1.2-2.8 3.3-5.1 5.5-7.2 7.7-6.4 16.7-11.4 26.5-13.8 10.3-1.2 21-.3 30.5 3.9 3.3 1.3 6.2 3.4 9 5.5 9.7 7.3 17.2 17.7 20.3 29.5.6 2.5 1.3 4.9 1.2 7.5.1 4.4.1 8.8.1 13.3zm7.6-11.2c-.2-9.1-2.8-18.1-7.4-26-6.1-10.4-15.5-18.7-26.3-23.8-11.5-5.5-24.6-7.6-37.2-5.8C54.6 20.3 43.6 26 35 34.2c-2.6 3-4.4 6.5-7.2 9.3-6.4 9.4-9.9 20.8-9.9 32.1 0 13.3 5.2 26.5 14.5 36 2.9 2.8 5.7 5.7 9 8-.3-.1-.6-.3-.9-.4-5.6-3.7-10.6-8.4-14.3-14-5.5-8.1-8.4-17.7-9.7-27.3-.1-6.5 1.3-12.9 2.5-19.2 3.5-11.1 10.2-21.2 19-28.9 8.2-7.2 18.3-12.3 29-14.2 6.4-1.1 13.1-1.2 19.5 0 5 1.3 10.1 2.5 15.1 3.8 5.8 2.3 11.2 5.5 15.8 9.6 6.1 5.4 10.4 12.5 14.5 19.5 2.3 4.5 3.4 9.6 4.6 14.5 1.1 3.2.8 6.6.6 10z"/>
    <path d="M101.1 89.4s.1-.1.1-.2c0 0-.1.1-.1.2z" fill="#aeaf85" stroke="#aeaf85" stroke-width=".0938"/>
    <path d="M84.2 101.8c6.8-1.8 12.9-6.2 16.7-12.1-.1.9-.7 1.5-1.2 2.2-2.6 4-6.7 6.7-10.7 9.1-2.2 1.2-4.7 1.7-7.1 2.4-1.3.4-2.7-.2-4.1-.3 2.1-.7 4.4-.5 6.4-1.3z" fill="#221e1f" stroke="#221e1f" stroke-width=".0938"/>
</svg>