<svg xmlns="http://www.w3.org/2000/svg" viewBox="0 0 1024 1024">
  <circle cx="512" cy="512" r="512" fill="#c74634"/>
  <path fill="#fff" d="M458.6 531.338h55.237l-29.175-47.113-53.637 85.1h-24.4l65.237-102.1a15.55 15.55 0 0 1 25.375-.175l65.425 102.275h-24.4L526.775 550.3h-55.888l-12.137-18.962m253.45 18.95v-88.75h-20.775v97.425a10 10 0 0 0 3.075 7.25 10.475 10.475 0 0 0 7.5 3.15h94.25l12.288-19.025H712.05M369.4 534.45a36.425 36.425 0 1 0 0-72.85h-90.65v107.713h20.7v-88.65h68.65a17.438 17.438 0 0 1 0 34.862h-58.35l61.838 53.75h30l-41.538-34.862h9.313M151.5 569.325h62.588a53.863 53.863 0 0 0 0-107.675H151.5a53.863 53.863 0 0 0-2.75 107.675h2.8m61.175-18.95h-59.837a34.862 34.862 0 0 1 0-69.7h59.8a34.868 34.868 0 0 1 2.25 69.7h-2.25m393.212 18.95h63.9l12.1-18.95h-74.6a34.868 34.868 0 1 1-2.25-69.7h62.963l12.25-19.025h-74.375a53.863 53.863 0 0 0-2.8 107.675h2.8m253.237-18.962A34.862 34.862 0 0 1 825.562 525h88.513l12.175-19H825.562a34.825 34.825 0 0 1 33.563-25.375h60.75l12.138-19.025h-74.3a53.863 53.863 0 0 0 0 107.675h63.9l12.137-18.95h-74.662"/>
</svg>
