<svg xmlns="http://www.w3.org/2000/svg" viewBox="0 0 950 950">
  <rect width="950" height="950" fill="#fff" rx="150"/>
  <path fill="#FFF" d="M793.254 620c40.027 0 77.658-15.587 105.947-43.885 28.298-28.29 43.876-65.91 43.876-105.929 0-82.618-67.215-149.832-149.823-149.832H169.832c-40.018 0-77.64 15.595-105.947 43.894C35.595 392.546 20 430.158 20 470.186c0 40.018 15.596 77.64 43.885 105.929C92.175 604.413 129.814 620 169.832 620h623.422z"/>
  <path fill="#1574C4" d="M793.166 601.707c72.808 0 131.839-59.021 131.839-131.839 0-72.826-59.031-131.857-131.84-131.857h-623.44c-72.807 0-131.857 59.03-131.857 131.857 0 72.818 59.05 131.84 131.858 131.84h623.44z"/>
  <path fill="#FFF" d="M291.608 451.874c-.469 43.509-27.15 114.526-109.098 114.251-61.107 0-86.585-38.55-87.017-81.13-.377-61.915 40.863-115.022 109.125-114.875 59.738.138 87.467 37.336 86.99 81.754M155.066 488.09c.027 19.251 9.965 31.917 29.86 31.917 35.738.01 46.31-50.351 46.374-71.054.037-16.881-10.011-31.678-30.218-31.697-24.707-.009-46.044 25.25-46.016 70.834m295.601-17.378h-72.881c-10.811 0-24.744 5.31-30.55 32.845l-12.555 58.572H281.4l28.895-134.43h46.154v13.833c6.678-7.173 20.758-24.083 48.9-15.642l-5.805 27.04c16.992-23.917 42.003-28.913 70.687-29.015 36.592-.073 72.873 14.402 65.57 48.423l-15.301 70.99c-2.113 9.69-.12 13.731 2.103 18.737h-57.736v-8.616c-33.534 24.101-86.08 13.043-86.007-28.317.101-34.25 34.002-41.745 41.892-43.16 36.73-6.658 61.906-5.997 64.294-16.265 2.958-12.676-31.835-13.906-34.379 5.005m-18.553 49.947c0 16.276 35.104 17.075 43.867-20.179-21.061 6.393-43.876 7.651-43.867 20.18m196.545-145.24L588.3 562.13h-54.475l40.312-186.71h54.522zm196.734 90.972c22.246-12.06 29.98-27.243 29.998-47.77-.276-47.174-54.466-43.142-78.108-43.142h-73.221l-15.376 71.532h-44.794l-7.936 36.528h44.877l-16.91 78.585H771.57c61.171 0 73.984-42.112 74.012-58.342.036-21.805-9.047-28.666-20.189-37.391m-52.362 48.055h-41.847l6.669-30.907h40.771c18.425.027 16.175 30.907-5.593 30.907m9.221-67.426h-36.537l5.988-27.784h35.6c22.302 0 17.985 27.784-5.05 27.784"/>
  <path fill="#FFF" d="M874.264 493.5c-13.199 0-23.945-10.746-23.945-23.954s10.746-23.954 23.945-23.954c13.217 0 23.963 10.746 23.963 23.954S887.481 493.5 874.264 493.5m0-44.041c-11.068 0-20.078 9.01-20.078 20.087s9.01 20.087 20.078 20.087c11.086 0 20.106-9.01 20.106-20.087s-9.02-20.087-20.106-20.087"/>
  <path fill="#FFF" d="M882.04 479.868h-5.262l-3.068-9.727h-4.537l-2.067 9.727h-4.528l4.896-23.036h10.461c1.966 0 4.528.055 6.026 1.075 1.8 1.34 2.332 3.536 1.662 5.887-1.304 4.703-4.17 6.154-7.118 6.347l3.536 9.727zm-5.85-13.19c2.572.055 4.5-.56 5.116-3.462.643-3.077-2.645-3.077-4.886-3.077h-5.116l-1.387 6.54h6.273z"/>
</svg>
