<svg xmlns="http://www.w3.org/2000/svg" viewBox="0 0 225 225">
  <circle cx="113" cy="111" r="110" fill="#0b57d0"/>
  <path fill="#fff" d="M 101.722 108.469 c 12.774 0 23.13 -10.356 23.13 -23.13 s -10.356 -23.13 -23.13 -23.13 c -12.775 0 -23.13 10.356 -23.13 23.13 s 10.355 23.13 23.13 23.13 z M 163.398 108.468 a 17.989 17.989 0 0 0 -27.579 -15.284 a 17.984 17.984 0 0 0 -8.369 16.293 a 17.99 17.99 0 0 0 10.248 15.182 v 27.499 l 7.71 7.71 l 12.85 -12.85 l -7.71 -7.71 l 7.71 -7.71 l -6.374 -6.374 a 17.987 17.987 0 0 0 11.514 -16.756 z m -17.99 0 a 5.146 5.146 0 0 1 -4.749 -3.173 a 5.137 5.137 0 0 1 6.716 -6.716 a 5.144 5.144 0 0 1 3.173 4.749 a 5.138 5.138 0 0 1 -5.14 5.14 z M 121.967 118.852 a 30.842 30.842 0 0 0 -12.541 -2.672 h -15.42 a 30.84 30.84 0 0 0 -30.84 30.839 v 10.28 h 66.82 v -28.321 a 26.52 26.52 0 0 1 -8.019 -10.126 z"/>
</svg>
