<svg xmlns="http://www.w3.org/2000/svg" viewBox="0 0 297 297">
  <circle cx="148.5" cy="148.5" r="148.5" fill="#d0d5d9"/>
  <path fill="#929da5" d="M257.678 125.514L39.48 171.647l124.551 124.546c69.602-7.234 124.915-62.541 132.16-132.14l-38.513-38.539z"/>
  <path fill="#86c867" d="M234 181.5H63c-18.225 0-33-14.775-33-33s14.775-33 33-33h171c18.225 0 33 14.775 33 33s-14.775 33-33 33z"/>
  <path fill="#6aac4b" d="M234 115.5h-86.5v66H234c18.225 0 33-14.775 33-33s-14.775-33-33-33z"/>
  <circle cx="66" cy="148.5" r="16.5" fill="#32373b"/>
  <circle cx="115.5" cy="148.5" r="16.5" fill="#32373b"/>
  <circle cx="165" cy="148.5" r="16.5" fill="#32373b"/>
  <path fill="#32373b" d="M233.5 163.5h-30a4 4 0 0 1 0-8h30a4 4 0 0 1 0 8z"/>
</svg>
