<svg xmlns="http://www.w3.org/2000/svg" viewBox="0 0 512 512">
  <circle cx="256" cy="256" r="256" fill="#0575a5"/>
  <path fill="#025e90" d="M292.9 121.275l-.294-.292h-81.003v60.234c-25.236-6.257-53.251-3.441-55.299.914-1.39 2.926 5.74 15.03 13.494 26.808-12.47 10.862-21.942 24.21-27.244 39.091h-17.516c-3.407 0-6.18 10.388-6.18 23.194 0 9.544 1.569 17.766 3.799 21.32.55.914 1.134 1.498 1.756 1.759 0 0 0 .036.038.036h-.074c.074.036.148.069.182.105l27.139 27.139c.694 1.096 1.459 2.189 2.227 3.295.517.694 1.065 1.39 1.572 2.12.991 1.277 2.017 2.555 3.036 3.843.625.73 1.249 1.426 1.866 2.156 1.244 1.426 2.56 2.78 3.912 4.165.407.407.806.842 1.242 1.285a105.964 105.964 0 0 0 5.486 4.972c.625.512 1.249 1.024 1.905 1.495 1.426 1.211 2.929 2.348 4.462 3.443.622.471 1.283.947 1.938 1.426.55.399 1.134.765 1.682 1.129l4.938 4.933v31.086c0 1.024.402 2.084 1.208 2.895l117.507 117.501c93.87-18.079 169.462-87.396 196.534-177.736L292.9 121.275z"/>
  <path fill="#ff9d4d" d="M389.025 266.15c-1.441 0-3.359-.287-5.317-.963 2.473-3.909 3.745-8.082 3.745-11.771 0-7.869-5.512-12.119-10.711-12.119-2.819 0-5.527 1.219-7.452 3.341-1.382 1.551-3.041 4.319-3.041 8.778 0 5.55 1.974 9.93 4.915 13.22a24.63 24.63 0 0 1-4.677 2.619c-3.912-50.135-53.55-89.779-114.232-89.779-11.4 0-22.397 1.411-32.786 4.009-26.898-9.147-60.895-6.159-63.165-1.341-1.377 2.929 5.752 15.027 13.514 26.775-12.495 10.885-21.955 24.225-27.251 39.096h-17.526c3.423 0 6.198 10.388 6.198 23.204s-2.772 23.201-6.198 23.201c-.218 0-.428-.049-.643-.125.189.12.358.279.553.384l17.789 9.075c7.46 20.529 22.861 38.134 43.205 50.299v32.855a4.08 4.08 0 0 0 1.208 2.908 4.071 4.071 0 0 0 2.908 1.216h31.217a8.241 8.241 0 0 0 7.494-4.826l7.017-15.396c5.381.66 10.872 1.004 16.463 1.004 8.829 0 17.421-.842 25.677-2.429v17.526a4.11 4.11 0 0 0 1.203 2.908 4.117 4.117 0 0 0 2.913 1.216h31.437c1.48 0 2.977-.402 4.319-1.229a8.213 8.213 0 0 0 3.041-3.323s39.183-78.264 39.583-79.235a82.657 82.657 0 0 0 4.879-16.315 80.718 80.718 0 0 0 1.385-12.938c4.488-1.434 8.271-3.63 11.328-6.257 3.625 1.792 7.57 2.65 11.005 2.65a4.118 4.118 0 1 0 .003-8.238zm-12.129-5.527c-1.452-1.836-2.401-4.201-2.401-7.206 0-2.36.886-3.884 2.248-3.884 1.226 0 2.473 1.201 2.473 3.884-.001 2.222-.789 4.754-2.32 7.206z"/>
  <path fill="#f28124" d="M149.98 275.773c0-15.316-3.297-27.73-7.434-27.73h-17.505c3.446 0 6.185 10.365 6.185 23.183s-2.739 23.194-6.185 23.194c-.2 0-.453-.051-.65-.1.197.1.351.248.556.353l15.805 8.074 1.544.801.399.195c0-.049-.051-.097-.051-.148 4.088-.199 7.336-12.618 7.336-27.822z"/>
  <path fill="#ff9d4d" d="M118.858 271.222c0 12.815 2.772 23.201 6.185 23.201 3.423 0 6.198-10.388 6.198-23.201 0-12.815-2.772-23.204-6.198-23.204-3.412 0-6.185 10.388-6.185 23.204z"/>
  <path fill="#f28124" d="M389.025 266.15c-1.441 0-3.359-.287-5.317-.963 2.473-3.909 3.745-8.082 3.745-11.771 0-7.869-5.512-12.119-10.711-12.119-2.819 0-5.527 1.219-7.452 3.341-1.382 1.551-3.041 4.319-3.041 8.778 0 5.55 1.974 9.93 4.915 13.22a24.63 24.63 0 0 1-4.677 2.619c-2.332-29.87-20.892-56.005-48.34-72.266 18.388 16.684 29.637 39.009 29.637 63.552 0 51.64-49.759 93.496-111.137 93.496-34.88 0-65.997-13.524-86.377-34.68 8.428 13.85 20.708 25.748 35.679 34.703v32.855a4.08 4.08 0 0 0 1.208 2.908 4.071 4.071 0 0 0 2.908 1.216h31.217a8.241 8.241 0 0 0 7.494-4.826l7.017-15.396c5.381.66 10.872 1.004 16.463 1.004 8.829 0 17.421-.842 25.677-2.429v17.526a4.11 4.11 0 0 0 1.203 2.908 4.117 4.117 0 0 0 2.913 1.216h31.437c1.48 0 2.977-.402 4.319-1.229a8.213 8.213 0 0 0 3.041-3.323s39.183-78.264 39.583-79.235a82.657 82.657 0 0 0 4.879-16.315 80.718 80.718 0 0 0 1.385-12.938c4.488-1.434 8.271-3.63 11.328-6.257 3.625 1.792 7.57 2.65 11.005 2.65a4.118 4.118 0 0 0 4.122-4.116 4.13 4.13 0 0 0-4.123-4.129zm-12.129-5.527c-1.452-1.836-2.401-4.201-2.401-7.206 0-2.36.886-3.884 2.248-3.884 1.226 0 2.473 1.201 2.473 3.884-.001 2.222-.789 4.754-2.32 7.206z"/>
  <path fill="#ff9d4d" d="M195.571 389.821a4.092 4.092 0 0 0 2.908 1.216h-8.415a4.059 4.059 0 0 1-2.908-1.216 4.075 4.075 0 0 1-1.208-2.908v-32.855l8.407 4.495v28.36c0 1.063.402 2.107 1.216 2.908zm91.984 0a4.077 4.077 0 0 1-1.216-2.908v-19.448a137.344 137.344 0 0 1-8.407 1.923v17.526a4.11 4.11 0 0 0 1.203 2.908 4.117 4.117 0 0 0 2.913 1.216h8.415a4.11 4.11 0 0 1-2.908-1.217z"/>
  <path fill="#34495e" d="M187.789 243.717c0 5.537-4.488 10.043-10.043 10.043-5.542 0-10.035-4.506-10.035-10.043 0-5.542 4.495-10.048 10.035-10.048 5.555 0 10.043 4.508 10.043 10.048z"/>
  <path fill="#e1effa" d="M178.652 240.806a3.82 3.82 0 0 1-3.814 3.814 3.825 3.825 0 0 1-3.814-3.814 3.819 3.819 0 0 1 3.814-3.814 3.815 3.815 0 0 1 3.814 3.814z"/>
  <path fill="#f28124" d="M292.908 208.507a3.78 3.78 0 0 1-1.091-.164 136.508 136.508 0 0 0-79.122 0c-2.02.594-4.111-.52-4.708-2.514-.596-1.994.517-4.104 2.514-4.705a144.038 144.038 0 0 1 83.507 0 3.77 3.77 0 0 1 2.511 4.705 3.758 3.758 0 0 1-3.611 2.678z"/>
  <g fill="#d0e070">
    <path d="M215.805 144.553l.003-19.374 19.374.005 34.14-.003 19.377.003v78.346c1.413.381 2.819.775 4.209 1.196v-83.748h-81.303v83.748c1.387-.42 2.79-.812 4.199-1.193l.001-58.98z"/>
    <path d="M268.372 192.527v-2.278l-3.377.013c-.338-4.46-3.034-7.695-6.871-7.683-4.58-.008-5.827 3.894-6.881 7.683l-9.027-.013a10.248 10.248 0 0 1 3.497-6.615l-2.388-1.848c-2.099 1.861-3.663 4.716-3.884 8.463h-3.307v2.284l3.302-.003c.233 3.201 1.416 5.286 2.996 6.506 2.857-.202 5.746-.313 8.66-.337 1.526-1.541 2.291-3.895 2.933-6.171l8.1-.003c-.294 2.092-1.213 4.006-2.86 5.494l1.117.92c.644.038 1.291.064 1.932.111 1.455-1.722 2.421-3.902 2.638-6.522l3.42-.001zm-21.905 4.718c-1.792 0-3.904-1.18-4.283-4.716l8.471-.01c-.781 2.604-1.774 4.726-4.188 4.726zm8.176-6.996c.719-2.514 1.631-4.488 3.666-4.488 2.15.003 3.709 1.859 3.899 4.488h-7.565z"/>
    <path d="M273.984 139.914c-3.031-3.021-4.818-6.804-5.084-10.522l-33.298-.013c-.259 3.73-2.048 7.516-5.084 10.532-2.985 2.993-6.84 4.795-10.516 5.074l.002 57.491a141.305 141.305 0 0 1 9.089-1.837c-1.616-2.883-2.522-6.115-2.522-9.531-.015-12.16 11.502-22.001 25.69-22.019 14.175.008 25.664 9.859 25.664 22.019 0 3.411-.906 6.643-2.522 9.527a140.39 140.39 0 0 1 9.112 1.841v-57.494c-3.675-.278-7.538-2.078-10.531-5.068z"/>
  </g>
  <g fill="#a6b83d">
    <path d="M246.467 197.245c2.414 0 3.407-2.122 4.188-4.726l-8.471.01c.379 3.536 2.491 4.716 4.283 4.716zM262.126 192.525l-8.1.003c-.641 2.277-1.406 4.631-2.933 6.171.388-.003.772-.022 1.161-.022 2.737 0 5.442.105 8.128.262l-1.117-.92c1.648-1.488 2.567-3.403 2.861-5.494zM258.309 185.761c-2.035 0-2.947 1.974-3.666 4.488h7.565c-.189-2.629-1.748-4.485-3.899-4.488z"/>
    <path d="M252.26 169.091c-14.188.018-25.705 9.859-25.69 22.019 0 3.416.906 6.648 2.522 9.531a139.596 139.596 0 0 1 13.341-1.604c-1.581-1.22-2.764-3.305-2.996-6.506l-3.302.003v-2.284h3.307c.22-3.748 1.784-6.602 3.884-8.463l2.388 1.848a10.248 10.248 0 0 0-3.497 6.615l9.027.013c1.055-3.789 2.301-7.69 6.881-7.683 3.837-.013 6.533 3.223 6.871 7.683l3.377-.013v2.278h-3.42c-.217 2.62-1.183 4.8-2.638 6.522 4.442.322 8.803.865 13.087 1.586 1.617-2.884 2.522-6.116 2.522-9.527 0-12.16-11.489-22.011-25.664-22.018z"/>
    <path d="M288.699 125.184l-19.377-.003-34.14.003-19.374-.005-.003 19.374-.002 58.98c1.388-.375 2.79-.722 4.199-1.056L220 144.986c3.676-.279 7.531-2.081 10.516-5.074 3.036-3.016 4.826-6.802 5.084-10.532l33.298.013c.266 3.717 2.053 7.501 5.084 10.522 2.993 2.99 6.856 4.79 10.529 5.069v57.494c1.405.333 2.802.68 4.186 1.053V125.184h.002z"/>
  </g>
</svg>
