<svg viewBox="0 0 100 100" xmlns="http://www.w3.org/2000/svg">
    <circle cx="50" cy="50" r="50" fill="url(#gradient)" />
    <path transform="translate(30 17)" fill="#fff"
        d="M 11.1879 11.5249 H 25.2801 C 33.4339 11.5249 39.9254 17.3695 40.3807 25.1217 C 40.6221 29.2656 39.1966 33.218 36.3657 36.2522 C 33.5668 39.2494 29.6496 40.9702 25.6132 40.9702 H 23.0694 V 52.2875 H 25.6132 C 32.7235 52.2875 39.6153 49.2718 44.5194 44.0121 C 49.4939 38.6845 51.9933 31.7395 51.564 24.4519 C 51.1698 17.7075 48.1922 11.5079 43.1811 6.9968 C 38.3151 2.6168 31.9565 0.203 25.2801 0.203 H 0 V 11.5249 H 11.1879 Z M 11.1603 22.885 H 0 V 65.3316 V 66.5687 H 22.9384 V 55.3797 H 11.1603 V 22.885 Z" />
    <defs>
        <linearGradient id="gradient" x1="0" y1="0" x2="130" y2="130"
            gradientUnits="userSpaceOnUse">
            <stop stop-color="#B81AD6" />
            <stop offset="1" stop-color="#0066FF" />
        </linearGradient>
    </defs>
</svg>