<svg xmlns="http://www.w3.org/2000/svg" viewBox="0 0 253.19 186.4">
    <rect x="8.5" y="4.5" width="236" height="177.5" fill="#fff" rx="35"/>
    <path d="M67.42 4.44v59.17H97A29.58 29.58 0 0 0 126.59 34V4.44Z" fill="#f0da50" />
    <path d="M37.83 4.44A29.58 29.58 0 0 0 8.25 34v118.37A29.58 29.58 0 0 0 37.83 182h29.59V4.44Z" fill="#4bc69a"/>
    <path d="M156.18 122.78a29.59 29.59 0 0 0-29.59 29.59V182h59.18v-59.22Z" fill="#f0da50" />
    <path d="M215.35 4.44h-29.58V182h29.58a29.59 29.59 0 0 0 29.59-29.59V34a29.59 29.59 0 0 0-29.59-29.56Z" fill="#5d7b8c"/>
</svg>