<svg xmlns="http://www.w3.org/2000/svg" viewBox="0 0 40 40">
    <circle cx="20" cy="20" r="20" fill="#fff"/>
    <path fill="#25a7d9" d="M34 10.73a7.05 7.05 0 0 0-5.32-5.32 43.91 43.91 0 0 0-8.89-.91 42.7 42.7 0 0 0-8.81.91 6.84 6.84 0 0 0-5.32 5.32 44.6 44.6 0 0 0-1 8.81v.84c2.81.22 8.2-1.07 13.37-4.87-2.74-.53-3.57-1.21-3.65-2-.08-.53.68-1 2.2-1.37l10.71-2.12c-.6 6.38-1 10-1.13 10.86-.23 1.29-.54 2.43-1.3 2.28s-1.59-1.14-2.28-3.57a23.51 23.51 0 0 0-3.72 13.67l.31 1.52h.76a38.93 38.93 0 0 0 8.88-1 7.05 7.05 0 0 0 5.32-5.32 44.79 44.79 0 0 0 1-9A68.25 68.25 0 0 0 34 10.73z"/>
    <path fill="#25a7d9" d="M12.61 34.13c.16-5.78 1.29-8.44 1.45-8.89-.38.15-3.19 1.06-8.89 1.29a17.1 17.1 0 0 0 .38 2 6.94 6.94 0 0 0 5.32 5.32c.53.05 1.13.2 1.74.28z"/>
</svg>
