<svg viewBox="0 0 192 192" xmlns="http://www.w3.org/2000/svg">
    <circle cx="96" cy="96" r="96" fill="#000" />
    <path fill="#ffffff" opacity="1.00"
            d=" M 43.94 95.01 C 42.32 67.48 67.48 41.91 95.00 42.94 C 110.52 42.03 125.85 49.49 135.70 61.32 C 143.25 70.39 147.85 82.08 147.75 93.94 C 147.69 117.96 147.77 141.98 147.70 166.00 C 147.69 169.48 147.81 172.97 148.12 176.44 C 142.03 180.64 135.32 183.86 128.36 186.32 C 128.25 155.87 128.38 125.42 128.30 94.97 C 128.29 85.55 124.11 76.20 116.89 70.12 C 105.92 60.38 88.22 59.56 76.55 68.53 C 64.27 77.14 59.60 94.55 65.80 108.19 C 70.28 118.35 80.14 126.06 91.22 127.47 C 97.05 127.93 102.91 127.58 108.75 127.84 C 108.84 134.32 108.82 140.79 108.77 147.26 C 102.85 147.46 96.89 147.74 90.97 147.20 C 78.69 146.20 66.93 140.45 58.37 131.63 C 48.96 121.99 43.20 108.58 43.94 95.01 Z" />
</svg>