<svg xmlns="http://www.w3.org/2000/svg" viewBox="0 0 512 512">
    <circle cx="256" cy="256" r="256" fill="#FFF"/>
    <path fill="#00ADEF" d="M285.94 315.182c-1.317-.94-2.623-1.88-3.925-2.818h-92.147V190.76h122.666v103.155c36.842 11.48 62.178 26.258 79.437 40.299 2.925-7.387 4.417-15.918 4.417-25.658V196.215c0-38.574-22.577-58.894-67.66-61.015v-.17h-7.361c-.278 0-.537-.03-.805-.03v.03H172.854C122.273 135.03 97 155.437 97 196.213V308.56c0 40.542 25.277 60.824 75.854 60.824h147.92v-.05c7.897-.009 15.099-.584 21.763-1.583-12.344-17.773-35.223-37.098-56.597-52.568z"/>
    <path fill="#00ADEF" d="M257.356 286.653c27.594 17.517 77.853 52.277 94.483 83.951h62.614c-10.693-19.08-46.842-65.083-157.097-83.95z"/>
</svg>
