<svg xmlns="http://www.w3.org/2000/svg" viewBox="0 0 1200 1200">
  <circle cx="600" cy="600" r="600" fill="#fff"/>
  <path d="M624.337 703.084c100.31 23.705 360.226 85.519 360.226 85.519s10.765 6.356 10.523 11.485c-5.626 21.869-26.968 91.42-69.03 148.648-42.084 57.257-100.623 97.945-120.087 110.647-7.118 3.632-13.773-2.692-13.773-2.692S653.108 822.821 600.85 734.635c-20.601-33.253-14.313-41.979 23.485-31.551"/>
  <path fill-rule="evenodd" d="M665.312 959.476c-36.764 11.27-75.804 17.333-116.26 17.333-218.785 0-396.145-177.36-396.145-396.144 0-218.785 177.36-396.145 396.144-396.145 218.785 0 396.144 177.36 396.144 396.145 0 44.072-7.196 86.463-20.479 126.062-19.185-4.524-136.843-32.446-159.47-38.662 10.969-26.978 17.011-56.483 17.011-87.4 0-128.234-103.954-232.187-232.187-232.187-128.234 0-232.188 103.953-232.188 232.187S421.836 812.853 550.07 812.853c11.375 0 22.56-.818 33.498-2.399 9.013 15.55 77.117 139.662 81.744 149.022"/>
</svg>
