<svg xmlns="http://www.w3.org/2000/svg" viewBox="0 0 283 283">
  <rect width="283" height="283" fill="#FFC91F" rx="25"/>
  <path fill="#fff" d="M72.53 26.43c2.16-.69 4.46-.58 6.69-.42 5.93.82 11.46 5.66 12.08 11.78.23 2.38-.29 4.82-1.33 6.96-.32.86-.93 1.81-.45 2.73.39 1.06 1.36 1.72 2.16 2.45 7.74 6.94 15.43 13.96 23.27 20.8 1.78 1.71 3.59 3.92 3.37 6.55-.2 2.31-1.5 4.58-3.54 5.74a8.527 8.527 0 0 1-4.26 1.17l-31.79.19c-1.16-.08-2.38-.08-3.45-.59-1.43-.76-2.57-2-3.3-3.43-1.71-3.02-.83-7.33 2.14-9.23 1.7-1.19 3.86-1.12 5.84-1.15h23.26c.92.01 1.84-.07 2.76-.15-6.07-5.63-12.31-11.08-18.39-16.7-.93-.8-1.82-1.9-3.1-2.04-1.62.14-3.09 1.01-4.7 1.23-6.21 1.48-13.28-1.61-16.15-7.37-1.49-2.85-1.69-6.27-.84-9.34 1.33-4.51 5.28-7.9 9.73-9.18zM204.6 26.04c1.67-.2 3.36-.15 5.03-.03 4.61.76 8.95 3.64 10.98 7.92 1.29 2.47 1.5 5.39.96 8.1-1.44 6.13-7.54 10.51-13.72 10.66-1.68-.01-3.39.13-5.03-.34-1.72-.39-2.92-2.06-4.76-2.06-1.47.22-2.49 1.41-3.5 2.38-4.28 4.39-8.79 8.56-13.25 12.76-.96.87-1.95 1.73-2.81 2.71-.59.48-.09 1.32.39 1.67 1.16.28 2.37.15 3.56.17 7.55 0 15.11-.01 22.66 0 2.68.01 5.65.75 7.32 3.01 1.31 1.68 1.37 3.93 1.04 5.94-.41 1.75-1.67 3.25-3.26 4.07-1.65.91-3.56 1.2-5.41 1.19h-27.56c-2.14-.02-4.35.21-6.4-.54-2.06-.74-3.58-2.57-4.27-4.61-.53-1.98-.23-4.23 1.05-5.87 3.85-5.07 20.76-21.27 24.42-25.16.54-.61 1.08-1.26 1.39-2.03.36-1.03.14-2.14-.13-3.16-.91-3.07-.89-6.55.65-9.42 1.98-4.09 6.28-6.61 10.65-7.36zM158.29 92.04c-.29-.04 9.5-.35 13.76 1.77 4.21 2.05 7.74 5.35 10.42 9.16 1.83 2.63 3.26 5.66 3.47 8.9 0 22.34.01 44.67 0 67.01-.02 2.96.08 5.92-.2 8.87-.23 3.95-2.14 7.6-4.56 10.65-3.07 3.76-7.36 6.51-12.05 7.76-.76.12-1.74.34-2.29-.35-.58-.67-.43-1.65-.48-2.47.03-5.72.16-11.43.05-17.15-.13-2.63.15-5.29-.24-7.91-.27-4.34-1.74-8.64-4.36-12.12-4.17-5.62-11.36-8.34-18.21-8.24-4.91-.09-10.11-.28-14.59 2.05-4.73 2.52-8.77 6.64-10.59 11.75-.87 2.27-1.34 4.69-1.37 7.12-.23 3.68-.16 7.36-.18 11.03.02 4.29-.09 8.58.21 12.86-.04 1.14.09 2.7-1.04 3.38-1.09.41-2.23-.11-3.27-.4-6.7-2.15-12.29-7.59-14.38-14.35-.81-2.56-1.14-5.24-1.1-7.91-.29.55-.29-71.45 0-70.98.62-6.46 4.17-12.6 9.57-16.23 3.99-2.81 8.9-4.3 13.78-4.16.36-.08 37.36-.08 37.65-.04z"/>
  <ellipse cx="142" cy="62.29" fill="#fff" rx="20.5" ry="18.51"/>
  <path fill="#0B1129" d="M139.13 169.3c3.17-.65 6.57-.27 9.46 1.22 4.34 2.04 7.22 6.66 7.37 11.43 0 0 .2 59.65-.05 61.3-.55 4.08-3.08 7.76-6.55 9.94-3.7 2.48-8.65 2.87-12.74 1.16-2.75-1.2-5.15-3.24-6.68-5.83-1.59-2.51-2.18-5.53-2.17-8.47l-.09-53.83c-.01-3.65.22-7.51 2.13-10.73 2.02-3.3 5.58-5.44 9.32-6.19z"/>
</svg>
