<svg xmlns="http://www.w3.org/2000/svg" viewBox="0 0 1024 1024">
  <circle cx="512" cy="512" r="512" fill="#ff4500"/>
  <path fill="#fff" d="M835 520c0-38.625-31.375-70-70-70-18.875 0-36 7.5-48.625 19.625-47.875-34.5-113.875-56.875-187.25-59.375L561 260.125l104.25 22.125c1.25 26.5 23 47.625 49.75 47.625 27.625 0 50-22.375 50-50s-22.375-50-50-50c-19.625 0-36.5 11.375-44.625 27.875L554 233a11.847 11.847 0 0 0-9.375 1.75c-2.75 1.75-4.75 4.625-5.375 7.875l-35.625 167.5c-74.5 2.125-141.5 24.375-190 59.375C301 457.375 284 450 265.25 450c-38.625 0-70 31.375-70 70 0 28.5 17 52.875 41.375 63.875-1.125 7-1.625 14-1.625 21.125 0 107.75 125.375 195.125 280.125 195.125S795 712.75 795 605c0-7.125-.625-14.125-1.625-21 24.5-10.875 41.625-35.375 41.625-64zm-480.125 50c0-27.625 22.5-50 50-50 27.625 0 50 22.5 50 50 0 27.625-22.375 50-50 50s-50-22.375-50-50zM633.75 702.25C599.625 736.375 534.125 739 515 739c-19.25 0-84.625-2.625-118.75-36.75-5-5-5-13.25 0-18.375 5-5 13.25-5 18.375 0C436.125 705.375 482.125 713 515 713s78.875-7.625 100.5-29.125c5.125-5 13.25-5 18.375 0 5 5.125 5 13.25-.125 18.375zM625 620c-27.625 0-50-22.5-50-50 0-27.625 22.5-50 50-50 27.625 0 50 22.5 50 50 0 27.625-22.5 50-50 50z"/>
</svg>
