<svg xmlns="http://www.w3.org/2000/svg" viewBox="0 0 550 550">
  <circle cx="225" cy="225" r="225"/>
  <path fill="#fff" d="M224.1 314.9c-7.1 11-18.2 15.3-30.1 17.9-12.6 2.7-25.3 4.1-38.1 1.6-20.9-3.9-33.8-23.8-29.8-44.7 4.8-25.3 9.1-50.7 13.3-76.1 2.9-17.4 5.6-34.9 7.8-52.5 1.3-10.5 2.6-21.2 1.9-31.7-1.1-18.1 8.4-26.3 23.3-28.7 25.1-4.1 50.5-5.2 75.9-3.9 14.4.7 28.6 3.1 41.8 9.1 22.9 10.5 36.5 28.3 40.5 53.2 2.6 16.1 1.4 31.8-5.7 46.7-5.3 11.2-13.2 20.5-22.8 28.2-2.3 1.8-2.6 3.3-1.5 5.9 7.6 16.6 15.1 33.3 22.6 49.9 2.2 4.9 5.3 9.5 5.1 15.2-.2 8.7-4.1 15.3-11.7 19.5-10.7 5.9-22.3 8.6-34.3 9.9-8.5.9-17 2-25.5.2-12.7-2.7-23.6-8.4-31.7-18.9-.3-.2-.6-.4-1-.8zm80.3-10.8c-1.4-1.9-2.5-3.1-3.4-4.5s-1.8-2.8-2.6-4.3c-11.2-21.4-19.5-44-26.9-66.9-.2-.7.4-2.2 1.1-2.7 2.8-2 5.8-3.8 8.6-5.8 19.4-13.6 29.6-31.4 26-55.7-2.5-17.1-11.2-29.5-27.2-36.5-9.7-4.3-20-5.8-30.4-6.6-15.4-1.2-30.9-1.3-46.3.1-8.9.8-17.8 2-26.7 2.9-2.7.3-3.3 1.4-3.3 4.2-.1 9.5-.2 19.1-1.3 28.6-1.8 15.9-4.2 31.8-6.7 47.6-2.7 17.7-5.7 35.3-8.6 52.9-1.9 11.1-4.1 22-5.8 33.1-2.1 13 4.5 20.8 17.7 20.9 10.2.1 20.2-1.6 29.8-4.9 2-.7 3.7-1.9 4.9-2.5-.5-4.1-1.4-7.3-1.3-10.6.1-17.6 3.9-34.8 6.4-52.1.1-.7 1.5-1.7 2.3-1.7 4.5-.2 9.1 0 13.6-.1 1.9-.1 2.7.6 3.4 2.4 4 11.7 8 23.4 12.1 35.1 2.6 7.5 4.9 15.2 8.4 22.3 4 8.4 11 13.1 20.8 12 9.2-1.1 18.5-2.7 27.6-4.3 2.4-.4 4.9-1.8 7.8-2.9z"/>
  <path d="M304.4 304.1c-2.9 1.1-5.4 2.5-8 2.9-9.2 1.6-18.4 3.2-27.6 4.3-9.7 1.2-16.7-3.6-20.8-12-3.4-7.1-5.7-14.8-8.4-22.3-4.1-11.7-8.1-23.4-12.1-35.1-.6-1.8-1.5-2.4-3.4-2.4-4.5.1-9.1-.1-13.6.1-.8 0-2.2 1-2.3 1.7-2.5 17.3-6.3 34.5-6.4 52.1 0 3.3.8 6.5 1.3 10.6-1.1.6-2.9 1.8-4.9 2.5-9.6 3.3-19.6 5-29.8 4.9-13.2-.1-19.8-7.9-17.7-20.9 1.8-11.1 4-22.1 5.8-33.1 3-17.6 5.9-35.3 8.6-52.9 2.4-15.8 4.9-31.7 6.7-47.6 1.1-9.4 1.2-19 1.3-28.6 0-2.8.7-3.9 3.3-4.2 8.9-.9 17.8-2.1 26.7-2.9 15.4-1.3 30.9-1.3 46.3-.1 10.4.8 20.7 2.3 30.4 6.6 15.9 7.1 24.6 19.4 27.2 36.5 3.6 24.3-6.6 42.1-26 55.7-2.8 2-5.8 3.7-8.6 5.8-.7.5-1.4 1.9-1.1 2.7 7.4 22.9 15.7 45.5 26.9 66.9.8 1.5 1.7 2.9 2.6 4.3 1.1 1.4 2.2 2.7 3.6 4.5zm-91.5-91.9c5 0 9.9.3 14.8-.1 10.2-.8 18.6-5.2 23.8-14.2 5.5-9.5 7.8-19.9 6.6-30.9-1.1-10.1-6.2-16.2-16.2-18.6-5.3-1.2-10.9-1.2-16.3-1.7-2.4-.2-3.2.8-3.5 3.1-3 20.7-6.1 41.4-9.2 62.4z"/>
  <path fill="#fff" d="M212.9 212.2c3.1-21 6.2-41.6 9.2-62.3.3-2.3 1.2-3.3 3.5-3.1 5.4.6 11 .5 16.3 1.7 9.9 2.3 15.1 8.5 16.2 18.6 1.2 11-1.1 21.4-6.6 30.9-5.2 9-13.6 13.4-23.8 14.2-4.8.3-9.8 0-14.8 0z"/>
</svg>
