<svg xmlns="http://www.w3.org/2000/svg" viewBox="0 0 1024 1024">
  <circle cx="512" cy="512" r="512" fill="#fcaf17"/>
  <path fill="#fff" d="M721.9 621.5l-21.662-136.075-79.626 135h-15.125c-9.075-15.625-12.6-38.3-12.6-52.413 0-23.175 1.513-45.862 1.513-75.587 0-39.313-11.587-60-42.337-67.5v-1.013c65-9.075 94.737-52.412 94.737-112.887 0-86.175-57.5-104.825-132.5-104.825H312.2l-85.662 405.213h107.337l31.25-147.65h71.563c38.3 0 53.925 18.65 53.925 54.425 0 27.212-3.025 48.887-3.025 69.537 0 7.5 1.512 25.7 7.05 32.75l77.6 82.137-67.025 143.638 143.125-85.163 106.837 82.138-19.662-135.563 122.962-86.175zM468.925 388.175H383.25l20.663-97.763h79.625c28.225 0 57.95 7.5 57.95 41.825 0 43.838-33.763 55.938-72.563 55.938z"/>
</svg>
