<svg xmlns="http://www.w3.org/2000/svg" viewBox="0 0 512 512">
  <path fill="#ff4949" d="M238.47 0h1.24c5.12 10.98 10.59 21.79 16.24 32.51.11 39.49.03 78.99.04 118.49-18.07-.11-36.14.22-54.21-.18 12-27.04 23.98-54.08 36.04-81.08 1.48-2.54.47-5.36-.82-7.72-7.29-14.13-14.18-28.47-21.46-42.61-1-2.02-1.84-4.11-2.66-6.2 8.33-4.8 17.43-8.1 25.59-13.21zM171.81 210.82c4.94-10.03 9.92-20.04 15-30 23.06.4 46.12.08 69.18.18.02 10 .01 20 0 30-28.06-.12-56.12.23-84.18-.18zM141.81 270.82c4.94-10.03 9.92-20.05 15-30.01 33.06.43 66.12.07 99.18.19.02 10 .01 20 0 30-38.06-.11-76.12.23-114.18-.18zM51.81 451.82c24.94-50.37 49.99-100.68 75-151 43.06.42 86.12.06 129.18.18.04 10.15-.05 20.3.07 30.45-17.09 39.99-33.34 80.35-50.16 120.45-33.97.23-67.94.04-101.91.1-17.39-.09-34.79.21-52.18-.18z"/>
  <path fill="#ff193d" d="M272.17 0h1.37c8.43 4.88 17.51 8.49 26.03 13.19-7.36 15.35-15.14 30.51-22.79 45.72-1.47 3.32-4.57 6.99-2.49 10.73 12.11 27 24.09 54.06 36.07 81.12-18.12.52-36.25.11-54.37.24-.01-39.5.07-79-.04-118.49 5.54-10.77 11.04-21.57 16.22-32.51zM255.99 181c23.11-.13 46.23.26 69.35-.21 5.08 9.95 10.06 19.95 14.98 29.98-28.1.52-56.22.09-84.33.23.01-10 .02-20 0-30zM255.99 241c33.11-.14 66.23.28 99.34-.22 5.09 9.95 10.06 19.96 14.99 29.99-38.1.53-76.22.08-114.33.23.01-10 .02-20 0-30zM255.99 301c43.11-.13 86.23.28 129.34-.21 25.09 50.28 50.08 100.61 75 150.98-27.77.53-55.55.08-83.33.23-23.48.16-46.97-.34-70.45.27-9.08-21.3-17.77-42.76-26.68-64.12-8.02-18.86-15.36-38.02-23.81-56.7-.12-10.15-.03-20.3-.07-30.45z"/>
  <path fill="#f8bb5e" d="M186.81 180.82c4.92-10.04 9.96-20.02 14.97-30 18.07.4 36.14.07 54.21.18.02 10 .02 20 0 30-23.06-.1-46.12.22-69.18-.18zM156.81 240.81c4.95-10.02 9.92-20.04 15-29.99 28.06.41 56.12.06 84.18.18.02 10 .02 20 0 30-33.06-.12-66.12.24-99.18-.19zM126.81 300.82c4.94-10.03 9.92-20.04 15-30 38.06.41 76.12.07 114.18.18.02 10 .02 20 0 30-43.06-.12-86.12.24-129.18-.18zM21.63 512c10.14-20.02 20.02-40.17 30.18-60.18 17.39.39 34.79.09 52.18.18 33.97-.06 67.94.13 101.91-.1-8.32 20.04-16.43 40.18-25.03 60.1H21.63z"/>
  <path fill="#ed9c4c" d="M255.99 151c18.12-.13 36.25.28 54.37-.24 5.02 9.99 10.07 19.98 14.98 30.03-23.12.47-46.24.08-69.35.21.02-10 .02-20 0-30zM255.99 211c28.11-.14 56.23.29 84.33-.23 5.11 9.95 10.08 19.97 15.01 30.01-33.11.5-66.23.08-99.34.22.02-10 .02-20 0-30zM255.99 271c38.11-.15 76.23.3 114.33-.23 5.11 9.96 10.09 19.97 15.01 30.02-43.11.49-86.23.08-129.34.21.02-10 .02-20 0-30zM306.55 452.27c23.48-.61 46.97-.11 70.45-.27 27.78-.15 55.56.3 83.33-.23 10.17 20.02 20.09 40.17 30.18 60.23H331.25c-8.33-19.86-16.61-39.76-24.7-59.73z"/>
  <path fill="#304141" d="M205.9 451.9c16.82-40.1 33.07-80.46 50.16-120.45 8.45 18.68 15.79 37.84 23.81 56.7 8.91 21.36 17.6 42.82 26.68 64.12 8.09 19.97 16.37 39.87 24.7 59.73H180.87c8.6-19.92 16.71-40.06 25.03-60.1z"/>
</svg>
