<svg xmlns="http://www.w3.org/2000/svg" viewBox="0 0 200 200">
  <circle cx="100" cy="100" r="100" fill="#00A1E0"/>
  <path fill="#fff" d="M86.905 55.746c5.806-6.048 13.887-9.8 22.826-9.8 11.882 0 22.248 6.626 27.77 16.461a38.37 38.37 0 0 1 15.694-3.335c21.43 0 38.805 17.525 38.805 39.143 0 21.62-17.374 39.146-38.805 39.146a38.485 38.485 0 0 1-7.644-.762c-4.861 8.673-14.125 14.532-24.759 14.532-4.45 0-8.661-1.029-12.41-2.858-4.929 11.594-16.41 19.721-29.792 19.721-13.936 0-25.813-8.817-30.372-21.185a29.692 29.692 0 0 1-6.174.644C25.45 147.454 12 133.864 12 117.097a30.403 30.403 0 0 1 15.023-26.295 34.748 34.748 0 0 1-2.877-13.884c0-19.282 15.654-34.913 34.962-34.913 11.336 0 21.41 5.39 27.797 13.741z"/>
  <path fill="#00A1E0" d="M38.072 107.34c-.113.296.04.357.077.408.338.246.682.423 1.028.621 1.836.974 3.57 1.258 5.382 1.258 3.692 0 5.985-1.963 5.985-5.125v-.062c0-2.923-2.587-3.984-5.016-4.75l-.315-.103c-1.83-.595-3.41-1.108-3.41-2.313v-.064c0-1.03.923-1.79 2.354-1.79 1.59 0 3.477.528 4.692 1.2 0 0 .356.23.487-.115.072-.185.687-1.841.751-2.02.07-.196-.053-.34-.18-.416-1.386-.844-3.304-1.42-5.289-1.42l-.369.002c-3.38 0-5.738 2.04-5.738 4.966v.062c0 3.084 2.602 4.084 5.04 4.782l.393.12c1.777.547 3.308 1.016 3.308 2.267v.062c0 1.143-.995 1.995-2.6 1.995-.623 0-2.61-.014-4.757-1.37-.259-.151-.41-.262-.61-.382-.105-.066-.37-.182-.484.166l-.73 2.021zm54.053 0c-.112.296.041.357.077.408.339.246.683.423 1.028.621 1.836.974 3.57 1.258 5.383 1.258 3.692 0 5.985-1.963 5.985-5.125v-.062c0-2.923-2.587-3.984-5.016-4.75l-.315-.103c-1.831-.595-3.411-1.108-3.411-2.313v-.064c0-1.03.923-1.79 2.354-1.79 1.59 0 3.477.528 4.693 1.2 0 0 .356.23.486-.115.072-.185.687-1.841.752-2.02.069-.196-.054-.34-.179-.416-1.387-.844-3.306-1.42-5.29-1.42l-.37.002c-3.38 0-5.738 2.04-5.738 4.966v.062c0 3.084 2.602 4.084 5.04 4.782l.393.12c1.777.547 3.31 1.016 3.31 2.267v.062c0 1.143-.997 1.995-2.602 1.995-.623 0-2.61-.014-4.756-1.37-.26-.151-.413-.256-.608-.382-.067-.044-.38-.164-.487.166l-.729 2.021zm36.902-6.192c0 1.787-.334 3.195-.99 4.19-.65.983-1.63 1.463-3 1.463-1.371 0-2.349-.477-2.987-1.464-.646-.992-.975-2.402-.975-4.19 0-1.784.329-3.19.975-4.174.638-.974 1.616-1.448 2.987-1.448 1.37 0 2.35.474 3.003 1.448.654.985.987 2.39.987 4.175zm3.081-3.313c-.302-1.023-.774-1.926-1.403-2.677a6.765 6.765 0 0 0-2.365-1.8c-.942-.438-2.055-.661-3.303-.661-1.251 0-2.364.223-3.306.661a6.819 6.819 0 0 0-2.368 1.8c-.626.754-1.098 1.656-1.403 2.677-.3 1.018-.451 2.13-.451 3.313 0 1.182.151 2.297.451 3.312.305 1.021.774 1.924 1.406 2.677a6.613 6.613 0 0 0 2.367 1.785c.943.428 2.053.645 3.304.645 1.25 0 2.36-.217 3.303-.645a6.643 6.643 0 0 0 2.367-1.785c.627-.751 1.1-1.654 1.402-2.677.302-1.017.453-2.133.453-3.312 0-1.18-.151-2.295-.454-3.313zm25.31 8.49c-.102-.3-.392-.188-.392-.188-.449.173-.925.332-1.434.411-.514.078-1.081.12-1.689.12-1.492 0-2.677-.444-3.526-1.32-.851-.877-1.328-2.295-1.323-4.213.005-1.746.425-3.06 1.182-4.06.751-.994 1.896-1.505 3.421-1.505 1.272 0 2.241.147 3.257.467 0 0 .242.105.358-.213.268-.749.47-1.284.756-2.107.082-.234-.117-.334-.189-.362-.4-.157-1.344-.41-2.057-.518a15.429 15.429 0 0 0-2.313-.156c-1.296 0-2.449.22-3.436.661-.984.439-1.82 1.044-2.481 1.798-.662.754-1.164 1.656-1.5 2.677-.335 1.017-.503 2.135-.503 3.318 0 2.556.689 4.623 2.051 6.136 1.363 1.518 3.412 2.289 6.085 2.289 1.58 0 3.2-.32 4.364-.78 0 0 .223-.106.126-.366l-.758-2.09zm5.392-6.89c.147-.992.422-1.817.845-2.46.639-.978 1.612-1.514 2.982-1.514 1.369 0 2.274.539 2.923 1.513.43.644.618 1.506.692 2.462h-7.442zm10.377-2.181c-.261-.988-.909-1.985-1.335-2.442-.672-.723-1.329-1.228-1.98-1.51a7.628 7.628 0 0 0-2.99-.605c-1.301 0-2.483.218-3.443.67-.962.45-1.769 1.066-2.402 1.833a7.481 7.481 0 0 0-1.413 2.707 11.68 11.68 0 0 0-.459 3.331c0 1.203.159 2.323.474 3.33a6.864 6.864 0 0 0 1.514 2.652c.684.747 1.566 1.33 2.622 1.739 1.048.405 2.323.615 3.787.612 3.014-.01 4.6-.681 5.255-1.043.115-.064.224-.177.087-.501l-.683-1.91c-.102-.284-.393-.18-.393-.18-.745.278-1.807.775-4.281.77-1.618-.003-2.819-.48-3.57-1.225-.771-.765-1.149-1.888-1.215-3.472l10.433.01s.274-.005.303-.272c.01-.112.36-2.143-.311-4.494zm-93.932 2.182c.148-.993.42-1.818.843-2.462.639-.977 1.613-1.513 2.982-1.513 1.37 0 2.275.539 2.926 1.513.428.644.615 1.506.69 2.462h-7.441zm10.374-2.182c-.261-.988-.908-1.985-1.333-2.442-.672-.723-1.328-1.228-1.98-1.51a7.631 7.631 0 0 0-2.99-.605c-1.3 0-2.484.218-3.443.67-.961.45-1.77 1.066-2.402 1.833a7.516 7.516 0 0 0-1.413 2.707 11.802 11.802 0 0 0-.46 3.331c0 1.203.16 2.323.475 3.33a6.882 6.882 0 0 0 1.513 2.652c.685.747 1.567 1.33 2.623 1.739 1.049.405 2.323.615 3.787.612 3.013-.01 4.6-.681 5.254-1.043.116-.064.226-.177.087-.501l-.679-1.91c-.105-.284-.395-.18-.395-.18-.746.278-1.805.775-4.285.77-1.615-.003-2.815-.48-3.566-1.225-.772-.765-1.149-1.888-1.216-3.472l10.434.01s.274-.005.302-.272c.01-.112.359-2.143-.313-4.494zm-32.926 9.014c-.408-.326-.464-.408-.602-.618-.206-.322-.31-.778-.31-1.357 0-.918.302-1.577.93-2.02-.007.002.898-.783 3.026-.755 1.495.02 2.83.241 2.83.241v4.744h.003s-1.326.285-2.818.375c-2.123.128-3.066-.613-3.059-.61zm4.151-7.332c-.423-.03-.971-.048-1.628-.048a9.89 9.89 0 0 0-2.569.33 6.7 6.7 0 0 0-2.18 1.01 5.032 5.032 0 0 0-1.512 1.721c-.37.687-.557 1.497-.557 2.405 0 .924.16 1.726.477 2.383a4.298 4.298 0 0 0 1.362 1.63c.58.424 1.295.734 2.125.92.818.188 1.746.282 2.762.282 1.07 0 2.136-.087 3.17-.264a65.824 65.824 0 0 0 2.627-.507c.245-.058.488-.121.73-.187.26-.065.24-.341.24-.341l-.006-9.541c0-2.093-.559-3.644-1.659-4.606-1.095-.959-2.707-1.443-4.792-1.443-.782 0-2.041.108-2.795.259 0 0-2.28.44-3.218 1.174 0 0-.205.128-.092.416l.738 1.984c.093.257.341.17.341.17s.08-.031.172-.085c2.008-1.092 4.547-1.06 4.547-1.06 1.128 0 1.994.227 2.579.675.57.436.859 1.095.859 2.485v.44a37.797 37.797 0 0 0-1.72-.202zm84.15-5.375c.079-.237-.087-.35-.156-.375-.177-.07-1.064-.256-1.75-.3-1.309-.08-2.038.141-2.689.434-.646.292-1.363.763-1.764 1.3v-1.27c0-.177-.126-.318-.3-.318h-2.674c-.174 0-.3.141-.3.318v15.562a.32.32 0 0 0 .318.318h2.74a.32.32 0 0 0 .315-.318v-7.775c0-1.043.116-2.084.347-2.738.226-.646.534-1.164.913-1.536.383-.37.815-.628 1.29-.774a5.022 5.022 0 0 1 1.4-.198c.546 0 1.146.141 1.146.141.199.023.313-.1.379-.282.18-.477.687-1.905.785-2.19"/>
  <path fill="#00A1E0" d="M119.274 86.348a8.89 8.89 0 0 0-1.03-.246 8.171 8.171 0 0 0-1.418-.108c-1.887 0-3.375.534-4.418 1.585-1.039 1.046-1.744 2.639-2.098 4.733l-.128.705h-2.37s-.286-.01-.347.303l-.387 2.172c-.029.205.061.336.337.336h2.306l-2.339 13.055c-.181 1.052-.393 1.916-.625 2.573-.228.646-.452 1.131-.728 1.485-.267.338-.519.59-.955.735a3.847 3.847 0 0 1-1.227.177 4.61 4.61 0 0 1-.836-.091 2.504 2.504 0 0 1-.565-.184s-.269-.102-.377.167c-.084.224-.7 1.913-.774 2.121-.072.207.03.369.161.419a8.6 8.6 0 0 0 .953.279c.581.136 1.07.144 1.529.144.959 0 1.836-.137 2.562-.398.728-.264 1.364-.723 1.928-1.344.607-.672.99-1.374 1.354-2.335.362-.95.672-2.129.918-3.503l2.35-13.3h3.437s.29.01.35-.305l.388-2.17c.026-.207-.061-.335-.34-.335h-3.336c.018-.075.169-1.25.552-2.354.163-.47.47-.851.73-1.113.257-.256.55-.438.875-.544.33-.107.708-.159 1.12-.159a4.4 4.4 0 0 1 .857.085c.322.07.448.105.532.131.342.102.387.002.455-.162l.798-2.19c.08-.236-.122-.336-.194-.364zm-46.608 22.564c0 .175-.126.316-.3.316h-2.767c-.175 0-.298-.14-.298-.316V86.646c0-.174.123-.316.298-.316h2.767c.174 0 .3.142.3.316v22.266z"/>
</svg>
