<svg xmlns="http://www.w3.org/2000/svg" viewBox="0 0 1024 1024">
  <circle cx="512" cy="512" r="512" fill="#034ea2"/>
  <path fill="#fff" d="M277.225 457.212l20 112.75H266.4l-12.788-87.8h-3.062L237.763 570h-30.788l20-112.75zM423.2 570h28.75l-4.612-112.75h-48.213l-8.512 62.3h-2.5l-8.513-62.3h-48.212L326.775 570h28.75l1.425-84.787h2.838L374.213 570h30.275l14.462-84.787h2.837L423.2 570zm177.013-24.875v1.913l.162 1.85.275 1.787.388 1.725.487 1.675.587 1.6.688 1.55.775 1.487.862 1.425.95 1.363 1.038 1.25 1.113 1.25 1.187 1.187 1.25 1.125 1.325 1.063 1.388 1 1.437.937 1.5.875 1.55.825 1.6.763 1.638.7 1.687.637 1.713.576 1.75.525 1.787.462 1.813.4 3.675.613 3.75.375 3.75.137 3.75-.112 3.75-.35 3.675-.588 1.812-.387 1.775-.45 1.762-.513 1.713-.563 1.687-.625 1.65-.687 1.6-.75 1.55-.8 1.5-.862 1.438-.925 1.387-.988 1.325-1.05 1.25-1.112 1.188-1.163 1.113-1.25 1.037-1.25.95-1.35.862-1.412.788-1.475.688-1.525.587-1.588.488-1.65.387-1.7.275-1.762.175-1.825v-90.275H649v88.225l-.075.437-.175.375-.113.425-.137.413-.163.4-.187.4-.2.387-.213.375-.237.363-.25.35-.275.337-.288.325-.3.313-.312.287-.325.275-.35.25-.363.238-.362.225-.388.2-.387.187-.413.163-.412.15-.425.125-.438.1-.437.087h-2.688l-.437-.087-.438-.1-.425-.125-.412-.15-.4-.163-.388-.187-.387-.2-.375-.225-.363-.238-.337-.25-.338-.275-.312-.287-.3-.313-.288-.325-.262-.338-.25-.35-.238-.362-.212-.375-.2-.387-.225-.388-.163-.4-.137-.413-.125-.425-.1-.437-.075-.438v-88.174h-31.775l.1 87.875zM815 457.212h-27.388v70.525h-.65L755 457.213h-33.75V570h27.412v-65.875h.65l29.9 65.875H815V457.25zM485.487 547.75v1.512l.088.75.112.726.138.725.162.712.188.7.212.688.238.675.262.662.275.65.313.638.325.637.35.613.762 1.25.85 1.15.925 1.112 1 1.063 1.075 1.025 1.138.975 1.25.925 1.25.875 1.325.825 1.387.775 1.438.737 1.487.688 1.538.637 3.2 1.125 3.35.925 3.462.725 3.55.537 3.613.338 3.65.138 3.65-.075 3.637-.275 3.588-.475 3.512-.688 3.425-.9 1.663-.525 1.625-.575 1.587-.637 1.55-.688 1.5-.737 1.45-.8 1.4-.85 1.35-.9 1.25-.95 1.25-1.013 1.163-1.063 1.087-1.125 1.025-1.175.95-1.25.863-1.25.787-1.337.7-1.4.613-1.45.512-1.5L565 550l.325-1.613.212-1.674.35-4.388.138-4.05-.075-3.75-.275-3.425-.213-1.6-.25-1.537-.3-1.463-.35-1.4-.387-1.337-.425-1.25-.463-1.25-.5-1.163-.537-1.1-.575-1.05-.613-1-.637-.95-.675-.912-.7-.863-.738-.825-.762-.787-.788-.75-.812-.713-.838-.675-.862-.65-1.788-1.25-1.85-1.125-1.925-1.05-1.975-.987-4.075-1.863-8.362-3.75-2.075-1.062-2.05-1.138-2.013-1.25-1.887-1.275-1.9-1.487-1.85-1.638-.888-.875-.875-.925-.837-.975-.825-1.025-.413-.862-.337-.838-.275-.812-.213-.775-.162-.75-.1-.713v-2.887l.075-.288.075-.275.1-.275.1-.262.112-.263.113-.25.125-.25.125-.237.137-.225.15-.225.15-.213.325-.412.35-.388.363-.362.387-.338.4-.312.413-.288.425-.262.425-.225.575-.163.437-.175.425-.15.425-.125.413-.1.412-.075h1.813l.975.075.9.113.825.15.762.187.35.113.338.112.325.125.312.138.3.15.275.15.263.162.25.175.237.175.225.188.213.187.2.2.187.213.175.212.163.225.15.238.137.237.138.25.125.25.112.263.1.275.1.275.163.575.125.6.1.625.075.65.088 1.362v1.45l-.25 6.538h28.75V474.1l-.063-.6-.088-.6-.112-.587-.138-.575-.162-.575-.188-.563-.2-.563-.225-.55-.25-.537-.275-.537-.287-.526-.313-.525-.687-1.012-.763-.988-.837-.95-.9-.912-.975-.887-1.038-.85-1.1-.813-1.162-.775-1.25-.75-1.25-.712-1.325-.675-2.775-1.25-2.938-1.075-3.075-.925-3.187-.763-3.288-.6-3.35-.438-3.387-.262-3.4-.088-3.4.1-3.363.276-3.3.462-3.225.663-3.125.85-1.512.5-1.475.55-1.438.6-1.4.65-1.35.712-1.25.763-1.25.812-1.25.863-1.137.925-1.088.975-1.025 1.025-.962 1.087-.888 1.138-.812 1.25-.738 1.25-.662 1.25-.588 1.362-.5 1.425-.412 1.488-.313 1.537-.312 2.088-.238 2.275-.15 2.425v5.125l.15 2.675.263 2.7.387 2.687.525 2.638.663 2.5.387 1.25.425 1.25.463 1.162.512 1.125.55 1.088.6 1.037.638.988.687.925.725.862.388.413.4.387.412.375.413.35.425.338.45.312 3.012 2.5 2.975 2.163 2.925 1.912 2.863 1.7 5.462 2.863 5 2.387 4.5 2.163 2.013 1.075 1.837 1.125.85.587.8.6.75.638.7.662.65.7.3.363.288.375.275.387.25.4.25.413.225.425.425.887.362.863.3.85.238.825.175.8.125.787.075.763v1.45l-.075.687-.113.663-.162.637-.2.613-.238.587-.262.563-.3.525-.325.5-.35.475-.375.437-.388.413-.412.375-.425.35-.438.312-.45.288-.462.25-.475.212-.463.175-.462.15h-1.825l-1.013-.075-.937-.125-.863-.162-.8-.2-.375-.113-.362-.125-.338-.137-.337-.15-.313-.163-.3-.162-.287-.175-.275-.188-.263-.2-.25-.212-.237-.213-.213-.225-.212-.225-.2-.237-.175-.25-.175-.25-.163-.263-.15-.275-.137-.275-.138-.287-.125-.288-.112-.3-.2-.612-.163-.638-.137-.662-.113-.688-.075-.712-.1-1.475v-1.55l.213-6.738h-31.538v15.1zm-347.562-95.175l-4.9.313-4.5.587-2.1.387-2 .45-1.913.513-1.812.562-1.725.625-1.638.675-1.55.725-1.462.775-1.375.825-1.25.863-1.25.912-1.138.95-1.062.988-.988 1.025-.912 1.05-.85 1.087-.775 1.113-.713 1.137-.65 1.163-.575 1.25-.525 1.25-.462 1.25-.4 1.25-.35 1.25-.288 1.25-.237 1.25-.188 1.25-.137 1.25-.138 2.6v2.6l.188 2.575.337 2.5.463 2.5.575 2.413.675 2.325.762 2.212.838 2.087.887 1.95.938 1.8.962 1.613.975 1.425.488.637.487.588.475.525.475.462.463.4.225.175.225.163 3.012 2.5 2.975 2.162 2.925 1.913 2.863 1.7 5.462 2.862 5 2.388 4.5 2.163 2.013 1.075 1.837 1.125.85.587.8.6.75.638.7.662.638.7.3.363.287.375.275.387.263.4.237.413.225.425.425.887.363.863.3.85.237.825.175.8.125.787.075.763v1.45l-.075.687-.112.663-.163.637-.2.613-.237.587-.263.563-.3.525-.325.5-.35.475-.375.437-.387.413-.413.375-.425.35-.437.312-.45.288-.463.25-.462.212-.463.175-.475.15H140l-1.013-.075-.937-.125-.875-.162-.8-.2-.375-.113-.363-.125-.35-.137-.325-.15-.312-.163-.3-.162-.288-.175-.275-.188-.262-.2-.25-.212-.238-.213-.225-.225-.212-.225-.2-.237-.188-.25-.175-.25-.162-.263-.15-.275-.138-.275-.125-.287-.212-.038-.113-.3-.2-.612-.162-.638-.138-.662-.1-.688-.075-.712-.1-1.475v-1.55l.225-6.738H99.062v16.388l.088.75.112.725.138.725.162.712.188.7.212.688.238.675.262.662.275.65.3.638.325.637.35.613.763 1.25.85 1.15.925 1.112 1 1.063 1.075 1.025 1.137.975 1.25.925 1.25.875 1.338.825 1.387.775 1.438.737 1.487.688 1.538.637 3.2 1.125 3.337.925 3.463.725 3.55.538 3.613.337 3.65.138 3.65-.075 3.637-.275 3.588-.475 3.512-.688 3.413-.9 1.662-.525 1.625-.575 1.587-.637 1.55-.688 1.5-.737 1.45-.8 1.4-.85 1.35-.9 1.25-.95 1.25-1.013 1.163-1.062 1.087-1.125 1.025-1.175.95-1.25.863-1.25.787-1.338.7-1.4.613-1.45.512-1.5.425-1.562.325-1.613.225-1.675.35-4.387.138-4.05-.075-3.75-.275-3.425-.213-1.6-.25-1.538-.3-1.462-.337-1.4-.388-1.338-.425-1.25-.462-1.25-.5-1.162-.538-1.1-.575-1.05-.612-1-.638-.95-.675-.913-.7-.862-.737-.825-.763-.788-.787-.75-.813-.712-.837-.675-.863-.65-1.787-1.25-1.863-1.125-1.925-1.05-1.975-.988-3.987-1.837-8.363-3.75-2.075-1.063-2.05-1.137-2.012-1.25-1.963-1.35-1.912-1.488-1.838-1.637-.887-.875-.875-.925-.85-.975-.825-1.025-.413-.863-.337-.837-.275-.813-.213-.775-.162-.75-.1-.712v-2.6l.062-.288.075-.287.088-.275.087-.275.1-.263.113-.262.112-.25.125-.25.138-.238.137-.225.15-.225.15-.212.325-.413.35-.387.375-.363.388-.337.4-.313.412-.287.425-.263.425-.225.438-.2.437-.175.425-.15.425-.125.413-.1.412-.075h1.825l.975.075.9.113.825.15.763.187.362.113.338.112.325.125.312.138.3.15.275.15.263.162.25.175.237.175.225.188.213.187.2.2.187.213.175.212.163.225.15.238.15.237.137.25.125.25.113.263.1.275.087.275.163.575.125.6.1.625.075.65.087 1.362v1.45l-.25 6.538h28.75v-17.313l-.087-.8-.113-.787-.15-.763-.175-.75-.212-.725-.238-.7-.262-.687-.288-.675-.312-.65-.338-.638-.362-.612-.388-.6-.412-.588-.438-.562-.462-.55-.488-.538-.5-.512-.525-.5-1.112-.95-1.188-.888-1.25-.837-1.312-.775-1.375-.713-1.425-.662-1.475-.613-1.525-.562-3.15-.975-3.25-.788-3.313-.625-3.337-.475-3.325-.337-6.413-.3zm757.2 124.775l3.6.088 3.35-.063 3.112-.213 2.888-.35 2.662-.475 2.5-.6 1.15-.337 1.1-.375 1.05-.4 1-.425.95-.45.913-.475.862-.5.825-.525.775-.537.738-.563.7-.575.65-.6.625-.625.587-.638.55-.65.513-.662.475-.675.45-.688.413-.7.387-.712.35-.725.325-.725.575-1.488.475-1.512.388-1.525.312-1.538.238-1.537.162-1.538.113-1.525.1-2.975V546.7l-.075-5v-30.738h-37.225v16.35h7.562v20.563l-.075.4-.087.4-.113.387-.125.375-.15.375-.162.363-.175.35-.2.337-.213.325-.225.325-.237.313-.25.287-.263.288-.287.262-.3.25-.313.238-.312.225-.325.212-.338.2-.35.175-.362.163-.375.15-.375.125-.388.112-.4.088-.4.062h-2.487l-.4-.062-.4-.088-.388-.112-.375-.125-.362-.15-.363-.163-.35-.175-.337-.2-.338-.212-.312-.225-.313-.238-.287-.25-.288-.262-.275-.288-.25-.287-.237-.313-.225-.325-.213-.325-.2-.337-.175-.35-.162-.363-.138-.375-.125-.375-.112-.387-.088-.4-.075-.4v-65.388l.075-.4.088-.387.112-.388.125-.375.15-.375.163-.362.175-.35.2-.338.212-.325.225-.312.238-.313.25-.287.275-.288.287-.262.288-.263.312-.237.313-.225.337-.213.338-.2.35-.175.312-.162.363-.15.375-.125.387-.113.4-.087.4-.075h2.488l.4.075.4.087.387.113.375.125.375.15.363.162.35.175.337.2.325.213.313.225.312.237.3.263.288.262.262.288.25.287.238.313.225.312.212.325.2.338.175.35.163.362.15.375.125.375.112.388.088.387.075.4v11.638H930.8v-14.5l-.075-.788-.1-.775-.125-.762-.15-.75-.175-.738L930 475l-.212-.713-.25-.7-.263-.687-.287-.675-.313-.663-.337-.65-.738-1.25-.825-1.25-.9-1.162-.975-1.113-1.05-1.062-1.125-1.013-1.25-.95-1.25-.9-1.25-.85-1.362-.8-1.413-.75-1.462-.7-1.513-.65-1.55-.6-1.587-.55-3.288-.937-3.4-.725-3.475-.525-3.537-.325-3.563-.113-3.562.088-3.538.3-3.475.5-3.4.7-3.287.912-1.588.538-1.55.587-1.512.638-1.463.687-1.412.738-1.363.787-1.25.838-1.25.887-1.25.938-1.125.987-1.05 1.038-.975 1.087-.9 1.15-.825 1.25-.737 1.25-.338.638-.312.65-.413.625-.275.675-.237.687-.225.7-.188.713-.175.725-.15.75-.125.762-.1.763-.075.787v74.55l.075 1.013.125.987.15.963.175.925.213.9.25.875.275.85.312.825.338.8.362.775.4.75.425.725.45.7.475.675.5.65.525.637.538.613.562.587.588.563.6.537 1.25 1.025 1.337.938 1.4.862 1.463.788 1.512.712 1.563.65 1.6.588 1.637.512 1.663.463 3.375.737 3.4.538 3.375.35 3.287.187h6.138z"/>
</svg>
