<svg xmlns="http://www.w3.org/2000/svg" viewBox="0 0 75 75">
  <circle cx="37.5" cy="37.5" r="37.5" fill="#DCA72A"/>
  <path fill="#492B1E" d="M28.764 37.435l-.018.018.473.333c.31.22 2.01 1.332 4.91 1.84.363.068.742.12 1.188.165l.524.05-.156-5.427-.378-.06c-4.23-.69-7.392-4.296-7.514-8.57-.14-4.935 3.768-9.065 8.71-9.207l.255-.002a8.912 8.912 0 0 1 8.953 8.703l.016.463 5.375-.148-.012-.465c-.217-7.813-6.51-13.934-14.33-13.934-.136 0-.272 0-.408.004a14.265 14.265 0 0 0-10.027 4.484 14.247 14.247 0 0 0-3.913 10.255 14.283 14.283 0 0 0 6.35 11.5"/>
  <path fill="#492B1E" d="M51.752 48.382a14.262 14.262 0 0 0-5.617-10.97l-1.264-.868-.212-.125a3.016 3.016 0 0 0-.28-.16 3.938 3.938 0 0 0-.344-.188l-.116-.06c-.07-.034-.14-.072-.237-.115-.056-.028-.115-.055-.198-.1a14.278 14.278 0 0 0-4.325-1.236 3.186 3.186 0 0 0-.32-.037l-.508-.03.15 5.415.38.06c4.23.693 7.387 4.297 7.508 8.57.138 4.932-3.767 9.06-8.706 9.203-.085.003-.17.003-.254.003h-.002a8.905 8.905 0 0 1-8.948-8.696l-.012-.464-5.384.144.012.465c.217 7.812 6.506 13.933 14.316 13.933h.002c.14 0 .282 0 .424-.004 3.83-.108 7.39-1.7 10.023-4.484a14.228 14.228 0 0 0 3.912-10.254"/>
</svg>
