<svg xmlns="http://www.w3.org/2000/svg" xmlns:xlink="http://www.w3.org/1999/xlink" viewBox="0 0 360 360">
    <defs>
        <style>
            .cls-1 {
                fill: url(#linear-gradient);
            }

            .cls-2 {
                fill: url(#linear-gradient-2);
            }

            .cls-3 {
                fill: url(#linear-gradient-4);
            }

            .cls-4 {
                fill: url(#linear-gradient-6);
            }

            .cls-5 {
                fill: url(#linear-gradient-7);
            }

            .cls-6 {
                fill: #fff;
            }

            .cls-7 {
                fill: url(#linear-gradient-9);
            }
        </style>
        <linearGradient id="linear-gradient" x1="13.54" y1="122.57" x2="173.19" y2="282.22" gradientTransform="matrix(1, 0, 0, -1, 0, 362)" gradientUnits="userSpaceOnUse">
            <stop offset="0" stop-color="#e387c0" />
            <stop offset="0.35" stop-color="#996799" />
            <stop offset="0.65" stop-color="#5766b0" />
            <stop offset="1" stop-color="#80bee3" />
        </linearGradient>
        <linearGradient id="linear-gradient-2" x1="24.57" y1="111.54" x2="184.22" y2="271.19" xlink:href="#linear-gradient" />
        <linearGradient id="linear-gradient-4" x1="35.6" y1="100.52" x2="195.25" y2="260.17" xlink:href="#linear-gradient" />
        <linearGradient id="linear-gradient-6" x1="35.6" y1="100.52" x2="195.25" y2="260.17" xlink:href="#linear-gradient" />
        <linearGradient id="linear-gradient-7" x1="46.63" y1="89.49" x2="206.28" y2="249.14" xlink:href="#linear-gradient" />
        <linearGradient id="linear-gradient-9" x1="225.33" y1="167.66" x2="329.06" y2="167.66" xlink:href="#linear-gradient" />
    </defs>
    <rect width="360" height="360" rx="30" fill="#000" />
    <path class="cls-1" d="M80.81,172.16h0a5.79,5.79,0,0,1,0-8.17l50.33-50.33a5.79,5.79,0,0,1,8.17,0h0a5.79,5.79,0,0,1,0,8.17L89,172.16A5.81,5.81,0,0,1,80.81,172.16Z" />
    <path class="cls-2" d="M102.87,172.16h0a5.79,5.79,0,0,1,0-8.17l46.25-46.25a5.79,5.79,0,0,1,8.17,0h0a5.79,5.79,0,0,1,0,8.17L111,172.16A5.81,5.81,0,0,1,102.87,172.16Z" />
    <path class="cls-2" d="M29.61,245.42h0a5.79,5.79,0,0,1,0-8.17l20.8-20.8a5.79,5.79,0,0,1,8.17,0h0a5.79,5.79,0,0,1,0,8.17l-20.8,20.8A5.81,5.81,0,0,1,29.61,245.42Z" />
    <path class="cls-3" d="M124.92,172.16h0a5.79,5.79,0,0,1,0-8.17l63.67-63.67a5.79,5.79,0,0,1,8.17,0h0a5.79,5.79,0,0,1,0,8.17l-63.67,63.67A5.81,5.81,0,0,1,124.92,172.16Z" />
    <path class="cls-3" d="M53.91,243.17h0a5.79,5.79,0,0,1,0-8.17l18.54-18.54a5.79,5.79,0,0,1,8.17,0h0a5.79,5.79,0,0,1,0,8.17L62.08,243.17A5.81,5.81,0,0,1,53.91,243.17Z" />
    <path class="cls-4" d="M36.74,260.34h0a5.79,5.79,0,0,1,0-8.17l5.86-5.86a5.79,5.79,0,0,1,8.17,0h0a5.79,5.79,0,0,1,0,8.17l-5.86,5.86A5.79,5.79,0,0,1,36.74,260.34Z" />
    <path class="cls-5" d="M147,172.16h0a5.79,5.79,0,0,1,0-8.17l27.89-27.89a5.79,5.79,0,0,1,8.17,0h0a5.79,5.79,0,0,1,0,8.17l-27.89,27.89A5.81,5.81,0,0,1,147,172.16Z" />
    <path class="cls-2" d="M160.31,114.72h0a5.79,5.79,0,0,1,0-8.17l6.22-6.22a5.79,5.79,0,0,1,8.17,0h0a5.79,5.79,0,0,1,0,8.17l-6.22,6.22A5.79,5.79,0,0,1,160.31,114.72Z" />
    <path class="cls-6" d="M55.76,180.15a.92.92,0,0,1,1.05,1v4.53c0,.73-.33,1.09-1.05,1.09H38.43c-1.09,0-1.58.61-1.58,1.7v1c0,1.13.48,1.7,1.54,1.7H53c4.77,0,7.36,2.63,7.36,7.2v3.24c0,4-2.43,6.76-7.49,6.76H30.58a.94.94,0,0,1-1-1.05v-4.53a.92.92,0,0,1,1-1h20.8c1.13,0,1.62-.65,1.62-1.74v-1.29c0-1.13-.48-1.7-1.58-1.7H36.89c-4.81,0-7.4-2.63-7.4-7.2V187c0-4.09,2.47-6.8,7.49-6.8H55.76Z" />
    <path class="cls-6" d="M71,180.15a.94.94,0,0,1,1,1v26.22a.94.94,0,0,1-1,1.05H65.78a.94.94,0,0,1-1-1.05V181.2a.94.94,0,0,1,1-1Z" />
    <path class="cls-6" d="M106,180.15a1,1,0,0,1,1.09,1v4.73a1,1,0,0,1-1.09,1H88.83c-3.52,0-4.37.93-4.37,4.57v5.62c0,3.64.85,4.57,4.37,4.57H101.7c1.21,0,1.66-.49,1.66-1.82v-2.39c0-.4-.16-.57-.52-.57H92A.92.92,0,0,1,91,195.91v-3.29A.92.92,0,0,1,92,191.57H109a1.08,1.08,0,0,1,1.22,1.21v9.48c0,4.53-1.82,6.19-5.1,6.19H88.54c-8.29,0-11.45-2.91-11.45-10.68v-7c0-7.77,3.16-10.68,11.45-10.68H106Z" />
    <path class="cls-6" d="M123.31,180.15c3.36,0,3.93.69,5.38,2.79l12.5,18.25a.57.57,0,0,0,.48.28H142c.24,0,.32-.12.32-.41V181.2a.92.92,0,0,1,1.05-1h5.06a.94.94,0,0,1,1,1v22.42c0,3.84-1.37,4.86-4.17,4.86h-4.13c-3.36,0-3.93-.69-5.38-2.79l-12.58-18.25a.53.53,0,0,0-.49-.28h-.32c-.2,0-.32.12-.32.4v19.87a.92.92,0,0,1-1,1H116a.94.94,0,0,1-1-1V185c0-3.85,1.33-4.86,4.13-4.86h4.25Z" />
    <path class="cls-6" d="M172.41,187.23A.47.47,0,0,0,172,187h-.2a.57.57,0,0,0-.48.28l-10.56,20.68a1,1,0,0,1-1,.57h-6.31c-.77,0-.89-.44-.57-1.09l12.42-23.67c1.5-2.87,3-3.56,4.9-3.56H173c2.43,0,3.85.69,5.38,3.56L191,207.39c.37.65.24,1.09-.57,1.09h-6.15a1,1,0,0,1-1-.57Z" />
    <path class="cls-6" d="M198.8,180.15a.94.94,0,0,1,1,1v15.86c0,3.64.85,4.57,4.37,4.57h15.41a1,1,0,0,1,1.09,1.05v4.73a1,1,0,0,1-1.09,1.05h-15.7c-8.3,0-11.45-2.91-11.45-10.68V181.2a.94.94,0,0,1,1.05-1Z" />
    <path class="cls-7" d="M251,197.89c3,0,6.6-1.39,6.6-6.86v-2.46c0-5.44-2.5-8.35-8.83-8.35H226.91a1.07,1.07,0,0,0-1.21,1.21v26a.94.94,0,0,0,1.05,1.05H232a.94.94,0,0,0,1-1.05v-9.52H243l7.3,10a1.33,1.33,0,0,0,1.29.57h6.21a.71.71,0,0,0,.61-1.17Zm-3.83-6.29H233v-4c0-.36.16-.52.48-.52h13.61c2.13,0,2.88.53,2.93,2.26S249.27,191.6,247.13,191.6Z" />
    <path class="cls-7" d="M293.21,180.22H272.72c-8.27,0-11.42,2.91-11.42,10.65v6.94c0,7.75,3.14,10.65,11.42,10.65h16.46c3.27,0,5.08-1.65,5.08-6.17v-9.47a1.07,1.07,0,0,0-1.21-1.21H276.19a.92.92,0,0,0-1.05,1V196a.92.92,0,0,0,1.05,1H287c.36,0,.53.16.53.57V200c0,1.33-.45,1.81-1.65,1.81H273c-3.51,0-4.36-.93-4.36-4.56V191.6c0-3.63.85-4.56,4.36-4.56h20.21a1,1,0,0,0,1.09-1v-4.72A1,1,0,0,0,293.21,180.22Z" />
    <path class="cls-7" d="M329.31,193.9a5.91,5.91,0,0,0,2.38-5V187c0-4.52-2.14-6.74-7.75-6.74H300.42a1.07,1.07,0,0,0-1.21,1.21v25.82a1.07,1.07,0,0,0,1.21,1.21h24.37c5.33,0,7.1-2.82,7.1-7.14V199A5.72,5.72,0,0,0,329.31,193.9Zm-22.76-6.27c0-.36.16-.57.49-.57h15.33c1.57,0,2.26.57,2.26,1.82v.9c0,1.21-.64,1.82-2.46,1.82H306.56v-4ZM324.66,200c0,1.29-.68,1.86-2.26,1.86H307c-.33,0-.49-.16-.49-.57V196.9h15.61c1.82,0,2.5.68,2.5,2V200Z" />
    <path class="cls-6" d="M100.74,239.23A4.85,4.85,0,0,1,97,237.58a6.76,6.76,0,0,1-1.51-4.27,10.38,10.38,0,0,1,.08-1.85l.23-1.61a10.72,10.72,0,0,1,2.56-5.79,6.48,6.48,0,0,1,5.14-2.23,5.31,5.31,0,0,1,2.73.76,4.76,4.76,0,0,1,1.82,2.12,7.85,7.85,0,0,1,.71,3,11.38,11.38,0,0,1-.1,2l-.27,1.79a11.54,11.54,0,0,1-1.51,4.19,7.45,7.45,0,0,1-2.67,2.68A6.68,6.68,0,0,1,100.74,239.23Zm6.5-9.64a12.16,12.16,0,0,0,.1-1.49,7.27,7.27,0,0,0-.44-2.58,3.69,3.69,0,0,0-1.33-1.78,3.86,3.86,0,0,0-2.16-.66,5.07,5.07,0,0,0-4,1.67,8.88,8.88,0,0,0-2.16,4.67,21.12,21.12,0,0,0-.41,3.52,5.8,5.8,0,0,0,1,3.67,3.59,3.59,0,0,0,2.9,1.37,5.05,5.05,0,0,0,4.1-1.79,9.37,9.37,0,0,0,2.08-4.88Z" />
    <path class="cls-6" d="M113.82,226.42l-.42,2.15a6.07,6.07,0,0,1,1.94-1.79,4.62,4.62,0,0,1,2.35-.6,3,3,0,0,1,2.64,1.27,4.91,4.91,0,0,1,.58,3.36L119.54,239h-1.37l1.37-8.2a6.88,6.88,0,0,0,0-1.28,2.1,2.1,0,0,0-2.26-2.13,3.73,3.73,0,0,0-2.28.73,6.22,6.22,0,0,0-1.86,2.26L111.67,239H110.3l2.19-12.58Z" />
    <path class="cls-6" d="M128.1,239.23a4.47,4.47,0,0,1-2.62-.84,4.63,4.63,0,0,1-1.62-2.23,7,7,0,0,1-.37-3l0-.39a8.46,8.46,0,0,1,1-3.32,6.47,6.47,0,0,1,2.21-2.41,5.14,5.14,0,0,1,2.86-.8A3.92,3.92,0,0,1,132,227a4.18,4.18,0,0,1,1.41,2.07,7,7,0,0,1,.28,2.93l-.09.85H124.9l0,.28a5.46,5.46,0,0,0,.19,2.42,3.8,3.8,0,0,0,1.18,1.84,3.07,3.07,0,0,0,2,.7,4.06,4.06,0,0,0,2-.43,6.27,6.27,0,0,0,1.65-1.24l.81.66a5.72,5.72,0,0,1-2,1.66A5.5,5.5,0,0,1,128.1,239.23Zm1.47-11.86a3.64,3.64,0,0,0-2.71,1.07,6.92,6.92,0,0,0-1.8,3.17h7.3l0-.17a4,4,0,0,0-.58-2.84A2.64,2.64,0,0,0,129.57,227.37Z" />
    <path class="cls-6" d="M141.86,239l2-11.44h-2l.21-1.14h2l.24-1.71a4.64,4.64,0,0,1,1.41-2.86,4,4,0,0,1,2.8-1,7.7,7.7,0,0,1,1.52.23l-.24,1.15a4.62,4.62,0,0,0-1.24-.17,2.57,2.57,0,0,0-1.92.76,3.58,3.58,0,0,0-1,2.1l-.22,1.49h2.92l-.21,1.14h-2.9l-2,11.44Z" />
    <path class="cls-6" d="M149,232.59a8.17,8.17,0,0,1,1.12-3.34,6.51,6.51,0,0,1,2.26-2.31,5.48,5.48,0,0,1,2.94-.76A4.47,4.47,0,0,1,158,227a4.67,4.67,0,0,1,1.6,2.27,7.35,7.35,0,0,1,.34,3.18l0,.22a8,8,0,0,1-2.11,4.78,5.49,5.49,0,0,1-4.23,1.74,4.24,4.24,0,0,1-3.38-1.56,6,6,0,0,1-1.24-4l0-.66Zm1.34.4a6.47,6.47,0,0,0,.2,2.55,3.7,3.7,0,0,0,1.13,1.83,3.1,3.1,0,0,0,1.94.7,4,4,0,0,0,2.3-.64,5.08,5.08,0,0,0,1.71-1.87,7.49,7.49,0,0,0,.87-2.67l0-.38a5.73,5.73,0,0,0-.69-3.67,3,3,0,0,0-2.61-1.46,4,4,0,0,0-3.22,1.44,7,7,0,0,0-1.66,4Z" />
    <path class="cls-6" d="M169.4,227.59a5.64,5.64,0,0,0-.92-.11,4,4,0,0,0-2.43.81,3.86,3.86,0,0,0-1.48,2.05L163.08,239h-1.37l2.19-12.58h1.36l-.42,2a5,5,0,0,1,1.66-1.7,4,4,0,0,1,2.13-.56,3.3,3.3,0,0,1,1,.16Z" />
    <path class="cls-6" d="M183.16,239a5.19,5.19,0,0,1,0-.88l.1-.87a6.63,6.63,0,0,1-2,1.48,5.24,5.24,0,0,1-2.42.51,3.63,3.63,0,0,1-2.59-1,3,3,0,0,1-.89-2.47,3.76,3.76,0,0,1,.85-2.16,4.93,4.93,0,0,1,2.17-1.42,9.21,9.21,0,0,1,3.15-.51h2.57l.21-1.44a2.54,2.54,0,0,0-.56-2.07,2.78,2.78,0,0,0-2.06-.83,3.93,3.93,0,0,0-2.39.68,3,3,0,0,0-1.27,1.85h-1.36a3.87,3.87,0,0,1,1.7-2.69,5.77,5.77,0,0,1,3.46-1,4,4,0,0,1,3,1.17,3.53,3.53,0,0,1,.86,2.93l-1.05,6.33-.09,1a5.15,5.15,0,0,0,.09,1.24l0,.14h-1.42ZM179,238a4.58,4.58,0,0,0,2.45-.61,5.5,5.5,0,0,0,1.94-1.87l.48-2.79h-2.22a7,7,0,0,0-3.45.75,2.7,2.7,0,0,0-1.48,2.15,2,2,0,0,0,.54,1.69A2.31,2.31,0,0,0,179,238Z" />
    <path class="cls-6" d="M189.37,239H188l3.11-17.86h1.39Z" />
    <path class="cls-6" d="M194.66,239h-1.4l3.11-17.86h1.39Z" />
    <path class="cls-6" d="M198.42,238.16a1,1,0,0,1,.33-.69,1,1,0,0,1,.7-.3.84.84,0,0,1,.69.28.86.86,0,0,1,.23.71,1,1,0,0,1-.32.67,1.06,1.06,0,0,1-.7.27.92.92,0,0,1-.68-.26A.85.85,0,0,1,198.42,238.16Z" />
</svg>