<svg xmlns="http://www.w3.org/2000/svg" width="650" height="650">
  <circle cx="325" cy="325" r="325" fill="#2483ce"/>
  <path fill="#fff" d="M327.083 450.173c5.576 0 11.152-1.576 16.001-4.366L402 411.865c11.882-6.91 25.702-9.699 39.399-8.244 71.525 8.244 121.834 21.82 136.625 26.064 3.03.85 6.424-.122 8.364-2.667 3.515-4.364 6.061-9.455 7.758-14.788 1.82-5.215 2.547-10.792 2.303-16.367-.12-3.395-2.424-6.183-5.697-7.154-23.276-6.787-125.833-34.67-263.669-34.67-137.835 0-240.515 28.003-263.669 34.791a8.075 8.075 0 0 0-5.698 7.153c-.243 5.576.485 11.032 2.304 16.366 1.697 5.333 4.242 10.305 7.757 14.79a7.947 7.947 0 0 0 8.365 2.668c14.791-4.366 65.1-17.822 136.624-26.064 13.699-1.577 27.397 1.332 39.399 8.242l58.917 33.945c4.848 2.667 10.425 4.243 16.001 4.243M228.769 259.119c6.425 11.151 20.849 15.03 32.002 8.606 11.154-6.425 15.034-20.852 8.608-32.004l-53.098-91.769c-1.696-2.91-4.97-4.121-8.364-3.88-4.243.364-10.184 2.547-17.093 6.547-6.91 4-11.88 8.122-14.183 11.516-1.941 2.788-2.547 6.304-.85 9.213l52.978 91.77M180.156 324.822c11.153 6.426 25.58 2.668 32.003-8.606 6.426-11.152 2.668-25.579-8.606-32.004l-91.77-52.976c-2.909-1.697-6.425-1.092-9.213.848-3.514 2.425-7.516 7.273-11.517 14.184-4 6.91-6.183 12.972-6.545 17.093-.243 3.395.97 6.668 3.878 8.364l91.77 53.097M350.48 226.508c0 12.972-10.548 23.396-23.397 23.396-12.972 0-23.396-10.547-23.396-23.396V120.434c0-3.394 2.302-6.06 5.334-7.516 3.758-1.818 10.062-2.91 18.062-2.91 8 0 14.305 1.092 18.063 2.91 3.03 1.456 5.333 4.122 5.333 7.516v106.074M425.398 259.119c-6.426 11.151-20.85 15.03-32.004 8.606-11.154-6.425-15.032-20.852-8.608-32.004l53.1-91.769c1.696-2.91 4.969-4.121 8.364-3.88 4.242.364 10.184 2.547 17.093 6.547 6.91 4 11.88 8.122 14.182 11.516 1.94 2.788 2.547 6.304.85 9.213l-52.977 91.77M474.01 324.822c-11.153 6.426-25.58 2.668-32.004-8.606-6.424-11.152-2.668-25.579 8.608-32.004l91.769-52.976c2.909-1.697 6.425-1.092 9.213.848 3.395 2.425 7.516 7.273 11.516 14.184 4 6.91 6.183 12.972 6.547 17.093.24 3.395-.971 6.668-3.88 8.364l-91.77 53.097"/>
</svg>
