<svg version="1.1" xmlns="http://www.w3.org/2000/svg" viewBox="0 0 400 400">
  <rect width="400" height="400" fill="#d71921" />
  <path fill="#fff" d="M101.576 38.289H77.92s4.097 3.527 3.988 10.681l.11 28.679c0 7.193 2.878 7.373 2.878 7.373h23.326c5.283 0 7.124-3.768 7.124-5.812l.07-2.739s-1.678 3.456-8.636 3.456c-1.116 0-9.722-.016-10.97-.016-3.456 0-3.19-2.878-3.488-5.32V58.84s2.396-.063 5.12-.063c.911 0 1.895-.039 2.924-.039 2.372 0 5.002.218 7.576 1.684 0 0-2.645-6.405-10.517-6.405h-5.103v-5.008s0-4.408-1.084-5.704l7.248.016c6.28.016 11.11-.085 16.166 3.277 0 0-.968-8.31-13.076-8.31M138.522 47.537c-7.576 0-9.486 7.21-9.486 7.21s-.18-6.96-6.266-6.96l-5.96.015s3.456 1.412 3.456 7.427l-.024 22.282c0 7.342 2.974 7.475 2.974 7.475h9.821c-.25-.133-3.768-2.793-3.768-7.545V57.67c.117-.858 1.608-3.854 5.828-3.854 2.41 0 5.056 2.49 4.985 5.321v18.357c0 7.46 2.927 7.475 2.927 7.475h9.853s-3.776-2.645-3.776-7.544l-.016-19.77c.367-1.076 1.662-3.776 5.383-3.776 2.973 0 5.455 2.497 5.384 5.32 0 0-.016 16.751 0 18.311.03 7.374 2.824 7.443 2.91 7.443h.015c5.135 0 9.855.016 9.855.016s-3.761-2.599-3.761-7.475V57.437c0-7.777-6.36-9.845-11.094-9.845-6.265 0-8.137 5.226-8.941 7.037-1.412-4.884-6.296-7.092-10.299-7.092M179.593 47.78h-5.961s3.418 1.513 3.418 7.396l-.016 22.329v.03c0 7.366 2.942 7.412 3.004 7.412 5.142 0 9.838.016 9.838.016s-3.784-2.528-3.784-7.474l-.04-.039.017-21.346c0-8.324-4.385-8.324-6.476-8.324M197.237 47.732l-5.945.016s3.44 1.412 3.44 7.426v22.297c0 7.358 2.95 7.475 2.95 7.475h9.821c-.249-.117-3.768-2.77-3.768-7.521l.016-18.279a5.293 5.293 0 0 1 2.411-3.753 7.88 7.88 0 0 1 4.299-1.264c2.192 0 4.37.897 5.882 2.755v-6.296s-.952-2.676-5.016-2.676c-6.18 0-7.677 7.317-7.677 7.317-.515-5.79-2.06-7.497-6.413-7.497M259.76 39.262s-2.177 3.754-6.617 7.396c-2.785 2.294-8.636 5.134-8.636 5.134l6.234.094v25.87c0 7.194 2.988 7.194 2.988 7.194 5.382 0 9.822.015 9.822.015s-3.808-2.52-3.808-7.255l.016-25.785c2.591 0 .796.016 2.427.016 3.323 0 5.796 1.443 5.796 1.443l.032-5.618h-8.255zM278.127 68.207s-1.232-17.163 5.22-17.64c.148-.023.296-.023.428-.023 5.088 0 3.824 7.326 2.232 10.268-2.481 4.572-5.718 5.056-7.88 7.395m5.883-20.62h-.101c-10.167.055-15.55 9.44-15.55 19.575 0 10.283 6.616 17.859 16.244 17.859 8.012 0 10.54-2.927 10.54-2.927l.016-5.99c-2.193 3.798-5.086 4.782-7.458 4.782a9.885 9.885 0 0 1-4.042-.897c-4.369-2.014-4.916-7.74-4.916-7.74 3.472-4.222 7.795-3.324 13.295-9.09 7.225-7.543 1.888-15.571-8.028-15.571M181.524 35.789c-2.528 0-4.588 2.013-4.588 4.501 0 2.458 2.06 4.47 4.588 4.47s4.588-2.012 4.588-4.47c0-2.488-2.06-4.501-4.588-4.501M226.58 80.749c-2.246 0-3.838-2.34-3.838-4.72 0-9.284 7.59-10.564 9.636-13.037l.015 15.65c-.912.796-1.81 2.107-5.812 2.107m3.27-33.01c-5.665 0-9.224 2.723-9.224 2.723v6.476s2.03-5.134 7.147-5.134c5.001 0 5.368 2.497 5.352 3.729 0 0 .5 1.693-.748 3.87-2.295 4.002-20.075 4.845-17.344 18.607 1.076 5.445 4.72 7.045 9.284 7.045 4.439 0 7.116-2.325 8.208-4.486.67 4.136 2.761 4.385 2.761 4.385 5.134 0 9.831.016 9.831.016s-3.815-2.528-3.815-7.444V56.625c0-5-5.556-8.885-11.453-8.885M310.39 47.488c-5.883 0-11.25 3.885-11.15 8.886.103 4.408 1.943 7.248 5.533 9.924 1.436 1.045 3.128 2.09 5.07 3.175 2.872 1.576 3.902 3.518 3.94 5.392.063 2.644-2.293 6.1-7.294 6.1-5.118 0-7.178-5.266-7.178-5.266v6.663s3.706 2.621 9.355 2.621c6.725 0 13.52-5.118 13.372-12.225-.047-2.49-.928-4.619-2.31-6.46-2.277-3.042-6.413-5.188-9.62-7.146-1.825-1.132-2.793-3.136-2.823-3.84-.047-1.247.562-3.767 5.562-3.767 4.868 0 6.944 5.15 6.944 5.15l-.016-6.235s-3.721-2.972-9.385-2.972M79.945 100.086h241.272V97.66H79.945zM159.11 149.787c-.96.928-3.253.928-3.253.928-4.128 0-8.216-1.396-9.768-8.737-3.847-18.537-3.91-18.592-3.91-18.592s-1.091-4.799-3.767-6.515h6.506c1.694 0 3.956 1.498 5.103 6.515 0 0 3.292 14.293 3.94 17.093.648 2.81 1.661 7.615 4.564 7.615.484 0 1.17-.717 1.17-.717l4.798-23.936s1.03-5.384-.912-6.57h5.664c1.677 0 4.05 1.716 3.237 6.647-.178 1.365-4.946 23.812-6.225 29.593 0 0-1.132 5.266-4.69 6.882h-8.933c4.65-2.528 6.14-8.676 6.14-8.676s.266-1.132.336-1.53M268.669 118.65v5.852c-2.279-2.763-6.234-3.223-9.074-1.365-1.31.826-2.161 2.176-2.161 4.102v16.135c0 4.268 3.128 6.608 3.393 6.695h-8.753c-2.59 0-2.59-6.648-2.59-6.648v-20.035c0-.648-.203-5.399-3.113-6.547h5.306c3.814 0 5.625 1.031 5.648 6.164 1.357-6.764 6.857-6.764 6.857-6.764s3.66 0 4.487 2.411M122.848 131.517c5.516-.203 8.692 2.925 10.134 6.958 1.366 4.003 3.16 9.956 8.091 11.587h-7.779c-1.092-.087-5.001-.156-7.138-9.908-.78-3.55-3.308-8.637-6.944-6.18v10.696s0 3.628 3.05 5.392h-8.301c-2.48-.25-2.48-5.781-2.48-5.781v-27.65s0-6.328-2.957-8.09h6.366c2.887 0 4.322 2.59 4.322 7.56v15.033s9.65-8.504 8.87-14.253h7.592c.679 5.281-12.826 14.636-12.826 14.636M97.69 139.694c0-2.972-2.06-5.601-8.176-9.019-7.138-4.088-9.666-7.661-9.737-12.678-.11-5.68 5.173-10.196 12.647-10.196 0 0 6.413 0 10.65 3.401l.047 6.6c-2.255-6.203-8.34-6.515-8.34-6.515-6.547 0-6.788 3.784-6.788 5.431 0 1.63.904 3.284 3.612 4.915 3.745 2.161 14.075 7.896 14.075 15.572 0 8.137-7.56 13.505-15.199 13.505 0 0-6.499 0-10.633-3.043v-7.013c2.637 6.35 8.488 6.335 8.488 6.335 7.178 0 9.354-4.37 9.354-7.295M297.613 144.14l.016-28.095c0-7.443-3.886-7.372-5.766-7.372h-5.313c3.05 1.278 3.05 6.545 3.05 6.545v3.636c-1.74-2.56-5.515-2.56-5.515-2.56-7.756 0-13.919 7.373-13.919 18.359 0 8.074 5.765 16.181 15.003 16.181 10.22 0 12.358-6.679 12.444-6.695m-8.012 1.163c-1.358 1.53-2.988 1.53-2.988 1.53-7.374 0-8.356-8.693-8.356-12.18 0-6.358.717-15.237 5.718-15.237 0 0 3.886 0 5.626 4.97zM310.147 150.84c-5.516 0-8.254-2.511-8.293-2.495v-6.079c1.817 4.783 6.35 4.783 6.35 4.783 4.486 0 6.546-3.152 6.477-5.547 0-1.764-.898-3.488-3.504-5.001-1.747-.967-3.238-1.927-4.455-2.903-3.237-2.48-4.868-5.055-4.93-9.159-.14-4.564 4.517-8.137 9.9-8.137 5.4 0 8.278 2.684 8.371 2.723v5.696c-1.872-4.268-6.21-4.736-6.21-4.736-4.54-.383-5 2.324-4.938 3.51 0 .663.92 2.504 2.527 3.487 2.856 1.873 6.547 3.839 8.559 6.616 1.225 1.677 2.005 3.699 2.076 5.961.132 6.515-5.954 11.282-11.93 11.282M245.32 150.046c-3.394-2.31-3.394-6.561-3.394-6.561v-18.623c0-4.408-3.387-8.645-10.135-8.645 0 0-5.064 0-8.254 3.058v5.914c2.34-5.148 6.413-5.148 6.413-5.148 3.705 0 4.953 2.028 4.953 4.041 0 2.707-1.513 4.236-3.72 5.328-5.236 2.427-12.976 4.337-12.976 13.208 0 5.033 4.252 7.99 8.318 7.99 5.984 0 7.614-4.354 7.661-4.533 0 0 .57 3.675 2.364 3.971zm-11.282-5.633c-.085.101-1.71 2.442-4.603 2.442-2.13 0-4.33-1.794-4.33-4.604 0-7.325 7.108-9.502 8.933-11.662zM217.503 116.88h-6.03c.648.797.982 1.913.982 3.355 0 1.311-.265 2.708-.818 4.143 0 0-3.308 8.137-3.308 8.153-2.575 6.062-1.71 11.695-1.546 13.676-.944-1.63-1.592-4.586-1.973-6.529-1.53-7.795-3.136-16.103-3.136-16.165-.85-4.424-2.497-6.632-4.806-6.632h-6.5c.485.265 2.31 2.309 3.277 6.53.133.578.25 1.131.453 1.974a959.944 959.944 0 0 1-2.941 7.146c-2.613 6.116-1.716 11.766-1.552 13.708-.579-1.162-1.21-2.457-1.975-6.498-1.973-10.362-3.058-15.768-3.121-16.228-.928-4.424-2.512-6.632-4.735-6.632h-6.546c.929.733 1.74 2.06 2.473 3.956a14.293 14.293 0 0 1 .796 2.574l3.855 17.811c1.16 5.516 3.79 8.816 7.145 8.816h5.313s-.857-3.152.29-5.976a801.657 801.657 0 0 0 3.253-8.137l1.177 5.297c1.132 5.08 3.707 8.816 6.881 8.816h5.735s-.85-2.98.328-5.96a4252.412 4252.412 0 0 0 7.81-20.168c.467-1.31.694-2.473.694-3.456 0-1.459-.492-2.645-1.475-3.573M256.742 201.871c-14.97-14.821-34.833-22.965-55.92-22.965-21.11 0-40.958 8.144-55.928 22.965-15.812 15.616-24.149 36.921-23.214 59.56.792 19.057 8.458 37.128 21.14 51.277l.026.082a73.32 73.32 0 0 0 2.627 2.758l.268.268c.09.092.176.188.267.28l34.513 34.5 8.63 8.63a16.612 16.612 0 0 0 4.025 2.966 16.657 16.657 0 0 0 7.77 1.945c3.717 0 7.325-1.3 10.163-3.622a16.227 16.227 0 0 0 5.384-8.55l.002-.009.003-.016a16.2 16.2 0 0 0 .307-1.56c.061-.417.108-.836.137-1.259.01-.113.03-.224.036-.337.005-.11-.005-.219-.003-.328.008-.315.002-.63-.009-.947-.007-.196-.008-.392-.023-.586a15.397 15.397 0 0 0-.133-1.179c-.019-.13-.028-.26-.05-.39-.089-.52-.2-1.04-.34-1.557-.033-.117-.078-.229-.113-.345a15.98 15.98 0 0 0-.376-1.147c-.094-.249-.208-.49-.314-.734-.11-.252-.214-.503-.336-.752-.096-.194-.204-.379-.307-.568-.128-.236-.243-.474-.383-.707-.042-.072-.098-.132-.142-.203-.187-.293-.395-.572-.6-.853-.146-.196-.274-.403-.428-.59a15.737 15.737 0 0 0-1.174-1.31l-34.66-34.661-9.478-9.481a47.974 47.974 0 0 1-1.793-1.896 48.424 48.424 0 0 1-10.874-20.155 48.947 48.947 0 0 1-1.57-11.076 47.475 47.475 0 0 1 1.216-12.037 46.059 46.059 0 0 1 10.438-20.183c.323-.364.642-.73.978-1.087l.038-.038a47.77 47.77 0 0 1 1.802-1.8l.106-.098a46.421 46.421 0 0 1 5.98-4.776c-.345.222-.678.466-1.02.692 7.923-5.674 17.392-8.746 27.412-8.746 13.107 0 25.303 5.26 34.31 14.766 8.471 8.963 12.945 20.799 12.617 33.307a48.315 48.315 0 0 1-11.087 29.656L212.45 262.68c-3.217-3.204-7.668-4.949-12.21-4.714a15.261 15.261 0 0 0-3.156.458c-3.32.851-6.36 2.728-8.564 5.402a15.983 15.983 0 0 0-3.616 10.169c0 4.364 1.777 8.657 4.893 11.783l9.256 9.309c-.081-.036-.16-.065-.241-.101l16.278 16.544 1.893 1.956s7.115 6.904 19.218 6.608c21.32-1.044 34.482-24.547 35.308-26.09 5.01-10.092 7.964-21.157 8.432-32.573.942-22.639-7.403-43.944-23.199-59.56"/>
</svg>
