<svg xmlns="http://www.w3.org/2000/svg" viewBox="0 0 512 512">
  <circle cx="256" cy="256" r="256" fill="#c1d354"/>
  <path fill="#9db138" d="M389.711 178.24l-54.899 54.899-76.001-75.999-41.69-41.728-.218-.218h-.036l-94.574 63.053 39.168 45.161-39.132 45.169 39.132 39.171 14.349 14.346-14.354 14.354 165.501 165.507c94.016-27.077 165.804-106.527 181.701-204.769L389.711 178.24z"/>
  <path fill="#b8d1e6" d="M161.454 223.419l94.549 63.035v-126.08z"/>
  <path fill="#cee2f2" d="M350.566 223.419l-94.563 63.035v-126.08z"/>
  <path fill="#0684ba" d="M161.454 223.419v110.333l94.549 63.048V286.454z"/>
  <path fill="#0575a5" d="M350.566 223.419v110.333l-53.012 35.369-41.551 27.679V286.454z"/>
  <g fill="#fff">
    <path d="M295.16 115.2l-39.157 45.174 94.563 63.045 39.145-45.179zM256.003 286.454l-39.115 45.186-94.566-63.047 39.132-45.174z"/>
    <path d="M256.003 160.374l-94.549 63.045-39.163-45.179 94.597-63.04zM389.711 268.593l-94.563 63.047-39.145-45.186 94.563-63.035z"/>
  </g>
</svg>
