<svg xmlns="http://www.w3.org/2000/svg" viewBox="0 0 500 500">
<rect width="500" height="500" fill="#000" />
  <path fill="#fff" d="M277 245l-47-44v74h14v-41l47 44v-74h-14zm-109-45c-22 0-39 17-39 39 0 21 18 39 39 39 22 0 39-17 39-39s-17-39-39-39m0 64c-14 0-25-11-25-25s11-25 25-25 25 11 25 25-11 25-25 25m-63-25c-4-3-9-5-16-7-14-4-14-8-14-10 0-4 5-8 12-8 6 0 11 3 13 4l1 1 11-8-1-1s-9-10-24-10c-7 0-14 2-19 6s-8 10-8 16 3 12 8 16c4 3 9 5 16 7 14 4 14 8 14 10 0 4-5 8-12 8-6 0-11-3-13-4l-1-1-11 8 1 1s9 10 24 10c7 0 14-2 19-6s8-10 8-16-3-11-8-16m248-39c-22 0-39 17-39 39s18 39 39 39c22 0 39-17 39-39s-18-39-39-39m0 64c-14 0-25-11-25-25s11-25 25-25 25 11 25 25-12 25-25 25m63-26c4 3 9 5 16 7 14 4 14 8 14 10 0 4-5 8-12 8-6 0-11-3-13-4h-1l-11 8 1 1s9 10 24 10c7 0 14-2 19-6s8-10 8-16-3-12-8-16c-4-3-9-5-16-7-14-4-14-8-14-10 0-4 5-8 12-8 6 0 11 3 13 4l1 1 11-8-1-1s-9-10-24-10c-7 0-14 2-19 6s-8 10-8 16c-1 6 2 11 8 15"/>
</svg>
