<svg xmlns="http://www.w3.org/2000/svg" viewBox="0 0 200 200">
  <circle cx="100" cy="100" r="100" fill="#fff"/>
  <path d="M183.332 105.798a2.567 2.567 0 1 0 0 5.132 2.562 2.562 0 0 0 2.56-2.572 2.56 2.56 0 0 0-2.56-2.56zm0 4.824a2.255 2.255 0 0 1-2.258-2.264 2.252 2.252 0 0 1 2.257-2.25 2.25 2.25 0 0 1 2.25 2.25 2.253 2.253 0 0 1-2.25 2.264z"/>
  <path d="M184.648 107.686c0-.242-.107-.497-.321-.618-.216-.128-.457-.14-.7-.14h-1.25v2.868h.35v-1.323h.646l.819 1.323h.417l-.867-1.323c.511-.015.906-.223.906-.787zm-1.383.51h-.538v-1.014h.819c.356 0 .747.054.747.498 0 .584-.626.516-1.028.516zM168.288 93.82l5.247-5.603c.304-.411.455-.699.455-.946 0-.41-.353-.576-1.466-.576H171.2v-3.537h14.33v3.537h-1.883c-2.174 0-2.578.329-5.612 4.154l-8.3 8.964v5.47c0 1.4.706 1.892 2.729 1.892h3.134v3.413h-20.071v-3.413h3.134c2.021 0 2.73-.492 2.73-1.892v-5.47l-9.777-10.815c-1.616-1.891-1.393-2.303-5.89-2.303v-3.537h18.15v3.537h-1.292c-1.315 0-1.872.247-1.872.74 0 .412.404.74.657 1.07l4.946 5.39c.588.611 1.305.69 1.975-.075zM46.503 83.157h4.378v9.869h-4.043c-.359-1.973-1.593-2.74-2.72-3.776-2.03-1.866-6.43-3.42-10.13-3.42-4.775 0-8.805 1.48-8.805 3.659 0 6.046 27.31 1.235 27.31 12.667 0 5.962-5.85 9.293-16.356 9.293-3.636 0-9.14-1.129-12.387-2.853-1.018-.588-1.45.556-1.64 1.99h-4.49v-10.199h4.06c.896 2.591 2.13 3.125 3.265 4.154 1.97 1.81 6.656 3.126 10.955 3.084 6.48-.064 8.71-1.48 8.71-3.537 0-2.056-2.205-2.55-9.307-3.66l-6.03-.987c-6.805-1.029-11.76-2.55-11.76-7.977 0-5.634 6.268-9.171 16.178-9.171 4.176 0 7.67.558 11.023 2.453.93.604 1.8.676 1.789-1.59zm85.45 16.524l.086-10.97c0-1.439-.75-1.932-2.888-1.932h-2.514v-3.413h15.993v3.413h-2.084c-2.142 0-2.89.494-2.89 1.932v22.084l-6.26-.05-20.271-19.196v13.941c0 1.399.748 1.932 2.888 1.932h2.782v3.373h-16.61v-3.373h2.753c2.14 0 2.888-.534 2.888-1.932V88.711c0-1.439-.749-1.932-2.888-1.932h-2.752v-3.413h14.36l17.406 16.315zM78.381 82.086c-12.746 0-20.725 5.634-20.725 14.68 0 8.884 7.868 14.476 20.336 14.476 13.242 0 20.946-5.51 20.946-14.927 0-8.471-8.312-14.23-20.557-14.23zm-.29 25.58c-7.055 0-11.11-4.072-11.11-11.105 0-6.867 4.231-10.938 11.463-10.938 6.937 0 10.992 4.154 10.992 11.227 0 6.908-4.115 10.815-11.345 10.815z"/>
</svg>
