<svg xmlns="http://www.w3.org/2000/svg" width="880" height="880">
  <circle cx="440" cy="440" r="400" fill="#fff"/>
  <path fill="#ff3a00" d="M402 1.1C298.4 8.8 203.9 51.4 129.7 123.9 32.1 219.1-14.7 353.9 2.6 489.3c21.6 169.3 141 310.3 305 360.2 126.8 38.6 267.9 15.7 375.4-60.8 132.1-94.1 200.8-250.2 180.4-410-21.6-169.3-141-310.3-305-360.2C509.6 3.6 452.7-2.7 402 1.1zm123 305.7c28.6 7.3 46.5 18 63.3 37.8 18.6 22 28 41 30.9 62.4l1.1 8.9 2.6-1.3c4.2-2.1 17.9-4.1 27.1-4 9.4.1 21.9 3.3 31.8 8.2 14.6 7.1 30.9 29.4 34.1 46.7 1.5 8.1 1.3 22.7-.4 30.7-2.3 11-9.6 24-18.6 33-6.4 6.4-9.2 8.4-18 12.6-5.7 2.7-12.6 5.6-15.4 6.3-4 1-26.6 1.3-108.2 1.5l-103.1.1-2.9-2.3-2.8-2.2V430.9c0-74.6.3-114.6 1-115.5 1.1-1.5 5.7-3.2 19.5-7.6 17.9-5.6 38.6-5.9 58-1zm-86.1 17c2.2 2.2 4.3 151.2 2.6 190.2-1.5 35.1-1.8 36-11.4 35.1-4.8-.4-5.6-3.1-7-22-1.6-23.1-.5-195.6 1.4-201 .7-2.2 2.4-4.1 4.4-5.2 3.1-1.7 3.5-1.7 6-.1 1.4.9 3.2 2.3 4 3zm-25.4 11.6c2.3 1.7 2-4.7 4.1 79.1.8 34.6 1.2 66.8.9 71.5-.3 4.7-1 19.6-1.4 33.1-.7 21.1-1.1 25-2.7 27.3-2.2 3.5-5.1 4.6-8.6 3.4-3.2-1.1-4-3.3-4.3-10.8-.6-14.8-2.6-46-3.3-50-.8-4.8 2.3-143.2 3.3-148.7s7.6-8.2 12-4.9zm-70.2 19.8c.4 1.2 1.1 30.9 1.8 66 1.4 75 .3 121.3-3 125.8-2.1 3-9.1 4.2-9.1 1.6 0-.9-.4-1.6-.9-1.6-.4 0-.9-2.4-.9-5.3-.1-2.8-1.1-16.8-2.3-30.9l-2.1-25.7 2.1-56.8c1.1-31.2 2.2-60.7 2.3-65.6.2-9.1 1-11 5.3-11.9 2.6-.5 6.1 1.7 6.8 4.4zm22.8-.9c0 .1.2 5.6.5 12.2.2 6.6 1.3 35.7 2.4 64.7l2 52.8-2 25.6c-1.2 14.1-2.2 28.3-2.3 31.6-.1 6.4-1.1 7.9-5.6 8.4-6.9.8-7.7-3.7-8.7-51.6-.8-38.7 1.1-137.8 2.7-141.4 1.5-3.2 4.7-4.6 8.2-3.4 1.5.6 2.7 1.1 2.8 1.1zm-48.1 2.2c0 .8.3 1.5.8 1.5.4 0 .8 3.9.9 8.8.2 4.8 1.4 33.2 2.9 63.1l2.6 54.3-2.6 26.7c-1.4 14.6-2.7 28.5-2.9 30.9-.6 7.8-5.9 10.5-9.9 5.1-1.5-2-2-7.1-3.5-31.4-1.5-26.1-1.5-34-.4-79 1.7-65.3 2.3-77.9 4-79.9 1.8-2.1 8.1-2.2 8.1-.1zm73.4 5.8c.4 1.2 1.2 29.4 1.8 62.6 1.3 66.9.3 114.5-2.5 121.3-1.3 3.2-1.8 3.5-6 3.6-5.1.2-5.7-.6-6.3-9.3-.2-2.8-1.3-16.3-2.4-30.2l-2.1-25.2 2-53.3c1.2-29.3 2.2-57.3 2.3-62.1.3-9.5 1.1-11.2 5.8-11.9 3.1-.5 6.6 1.6 7.4 4.5zm-96 7.5c.3 2.1 1.3 29.2 2.2 60.3 1.6 52.6 1.6 58.4 0 83.5-.9 14.8-1.6 28.2-1.6 29.7 0 2.8-3.8 7.7-6 7.7-2.3 0-4.2-4-4.6-9.6-.3-3.3-1.3-16.9-2.4-30.4-1.8-21.5-1.9-27.6-1-50.5.5-14.3 1.5-40.6 2-58.4.6-17.8 1.5-33.2 2-34.2 1-1.8 4.2-2.8 7.2-2.1 1 .3 1.9 1.8 2.2 4zM271 388.6c0 .8.3 1.4.8 1.4.4 0 .8 3 .9 6.8.1 3.7 1.4 24.9 2.8 47.2l2.6 40.5-3 31.3c-1.6 17.3-3.5 31.9-4 32.6-.9 1.1-2.6 1.2-6.1.7-2.2-.4-3-6.9-4.6-34.7-1.5-27.2-1.6-34.2-.5-58.9.7-15.4 1.6-36.1 2.1-46 .4-9.9 1.1-18.8 1.5-19.8 1.4-3.4 7.5-4.3 7.5-1.1zm-45.4 36c.1 2.2 1.7 16.4 3.4 31.6l3.2 27.8-3.1 27.2c-1.7 15-3.3 29.3-3.4 31.8-.3 4.2-.5 4.5-3.4 4.8-3.1.3-3.1.3-3.7-5.5-.3-3.2-1.5-17.7-2.6-32.3l-2-26.5 2.4-31c2.1-26.2 2.7-31.1 4.2-32.2 2.6-1.9 4.8-.1 5 4.3zM203 423c.6 1.1 2.1 15.5 3.4 32l2.4 30-2.4 28.5c-1.3 15.7-2.8 29.5-3.4 30.6-1.5 2.6-5.4 2.2-5.7-.6-.1-1.1-1.6-14.6-3.4-30l-3.3-28 3.2-29c1.8-15.9 3.2-30.2 3.2-31.7 0-3.9 4.2-5.2 6-1.8zm44.8 1.8c2.2 2.2 2.5 5.4 4.3 39.7 1.1 19.9 1 26.9-.5 52-1.6 27.6-1.8 29.1-4 31.3-2.6 2.6-5.3 2.1-6.1-1.2-.3-1.1-1.8-15.4-3.5-31.6l-2.9-29.5 3-30c2.4-24.1 3.3-30.2 4.7-31.3 2.1-1.6 2.9-1.5 5 .6zm-68.7 6.9c.2 3.1 1.4 10.2 4.4 28.3 1.9 11.5 3.5 22.3 3.5 24.2 0 2.9-6.7 48.2-7.6 51.5-.5 1.9-4.2 1.5-4.8-.5-1.1-3.5-3.6-43-3.6-57.2.1-8 .7-19 1.5-24.5s1.5-11.8 1.5-14c0-2.2.7-5.1 1.6-6.3 1.5-2.2 3.3-2.9 3.5-1.5zm-19.6 21.5c.2 1.3 1.4 9 2.5 17.1l2.1 14.8-2.1 13.7c-2.9 19.2-2.9 19.2-4.8 19.2-1.4 0-2.3-3-4.8-16.5l-3-16.5 2.9-16.3c1.6-8.9 3.4-16.5 4-16.9 1.9-1.2 2.6-.9 3.2 1.4z"/>
</svg>
