<svg xmlns="http://www.w3.org/2000/svg" viewBox="0 0 256 256">
  <circle cx="128" cy="128" r="128" fill="#fff"/>
  <path fill="#4295C2" d="M72.033 153.979c9.129.049 16.716-3.466 23.28-9.7 16.81-15.969 33.687-31.868 50.583-47.747 18.083-16.996 44.403-18.893 64.16-4.695 22.187 15.946 25.326 46.93 5.933 66.114-19.721 19.51-40.223 38.23-60.392 57.287-2.479 2.343-4.885 4.782-7.526 6.931-16.318 13.278-41.524 5.56-46.362-14.294-2.41-9.89.542-18.418 7.904-25.387 14.124-13.368 28.282-26.7 42.426-40.046 6.452-6.087 12.775-12.322 19.445-18.161 1.888-1.653 7.496-6.154 12.602-1.049 5.104 5.106 2.272 9.368-.301 11.794-10.18 9.596-20.34 19.208-30.516 28.805-10.176 9.598-20.374 19.173-30.538 28.783-5.777 5.462-6.506 11.585-2.029 16.446 4.584 4.975 12.222 5.012 17.682-.122 21.375-20.1 42.757-40.19 64.006-60.423 9.105-8.67 12.028-19.28 7.336-31.098-4.73-11.915-14.223-17.947-26.835-18.95-9.865-.785-18.197 2.768-25.344 9.556A11101.743 11101.743 0 0 1 106.702 156c-19.366 18.164-48.577 18.705-67.851 1.345-18.744-16.884-20.08-45.23-2.095-62.89 21.823-21.43 44.202-42.3 66.623-63.108 8.149-7.562 18.199-9.114 28.669-5.449 9.871 3.456 16.185 10.439 17.858 20.93 1.458 9.143-1.928 16.69-8.574 22.944-15.655 14.729-31.277 29.492-46.915 44.237-4.385 4.135-8.715 8.332-13.195 12.362-3.536 3.181-8.535 3.175-11.786.235-3.683-3.331-3.461-8.277.677-12.192C83 102.22 95.926 90.069 108.834 77.899c6.62-6.242 13.247-12.474 19.847-18.736 5.424-5.147 6.115-10.98 1.89-15.52-4.369-4.697-11.577-4.672-16.763.218A32939.203 32939.203 0 0 0 51.33 102.92c-9.97 9.45-12.838 21.005-8.202 32.453 4.541 11.212 16.046 18.62 28.906 18.607"/>
</svg>
