<svg version="1.0" xmlns="http://www.w3.org/2000/svg" viewBox="0 0 2560 2560">
    <path
        d="M363 2550c-178-26-327-179-353-362-13-85-13-1746 0-1822C40 181 187 36 372 10c82-12 1734-12 1816 0 185 26 332 171 362 356 14 85 13 1753-1 1830-16 89-63 175-130 239-68 65-138 100-229 114-76 13-1744 13-1827 1z" />
    <path
        d="M615 2303c-11-2-44-11-72-19l-53-15v-69c0-39 3-70 6-70 4 0 35 14 70 31 104 51 232 49 242-4 6-30-16-45-96-62-139-31-191-67-213-147-26-100 56-189 190-208 57-8 161 2 219 21 32 10 32 11 32 73 0 35-2 65-5 68-3 2-32-9-65-25-101-50-220-37-220 23 0 22 31 37 118 54 135 28 194 78 194 163 0 88-50 150-144 178-48 14-157 18-203 8zm525 0c-14-2-46-11-72-19l-48-16v-69c0-38 4-69 9-69 4 0 37 15 71 33 54 27 74 32 135 32 76 0 105-13 105-46 0-23-37-42-114-58-120-26-173-62-196-134-52-164 172-272 408-196 32 10 32 11 32 73 0 35-2 65-5 68-3 2-32-9-65-25-42-21-75-30-113-31-60 0-107 23-107 53 0 22 27 34 123 56 116 26 170 63 187 127 24 87-38 182-140 212-49 15-150 19-210 9zm445-15c-3-7-4-132-3-278l3-265h150l3 98 3 97h188l3-97 3-98h150v550h-150l-3-117-3-118h-188l-3 118-3 117-73 3c-52 2-74-1-77-10zm-465-1173v-55h740v110h-740v-55zM370 927v-73l219-90c121-49 217-92 213-96-5-5-210-91-419-175-9-4-13-29-13-80 0-41 4-73 9-71 4 2 153 63 330 137l322 134-3 61-3 61-320 132c-176 73-323 132-327 133-5 0-8-33-8-73z"
        fill="#fcfcfc" />
</svg>