<svg xmlns="http://www.w3.org/2000/svg" viewBox="0 0 1000 1000">
  <circle cx="500" cy="500" r="500" fill="#fff"/>
  <path fill="#38D200" d="M664.805 875.192l-378.2-224.43s-47.4-24.886-58.3-71.103c-15.2-64.996 35-120.784 35-120.784l490.8 291.34c37.9 22.516 48.2 68.55 23.9 103.19-25 35.643-76.4 43.574-113.2 21.787z"/>
  <path fill="#0473EA" d="M306.605 410.744s-57.9-31.906-57.9-105.652c-.1-73.473 57.8-104.923 57.8-104.923l206.8-123.336c38.2-22.06 88.7-11.76 112.9 22.972 23.8 34.275 13.3 79.58-23.7 102.096l-174.3 103.373 296.9 176.208s53.4 27.894 64 75.023c14.7 65.724-34.9 119.872-34.9 119.872l-447.6-265.633z"/>
  <path fill="#38D200" d="M695.705 231.801c-19.4 0-33.2 5.56-46.7 13.583l-100.9 59.89 100.9 59.89c13.6 8.023 27.9 13.583 46.7 13.583 44.5-.456 80.2-33.728 79.7-74.293-.4-39.927-35.9-72.197-79.7-72.653"/>
  <path fill="#0473EA" d="M305.605 887.043c19.4 0 33.2-5.561 46.7-13.583l100.9-59.89-100.9-59.891c-13.6-8.022-27.9-13.583-46.7-13.583-44.6-.455-81.1 32.088-81.6 72.653-.5 40.565 35.2 73.838 79.7 74.294.7.09 1.3.09 1.9 0"/>
</svg>
