<svg xmlns="http://www.w3.org/2000/svg" viewBox="0 0 1024 1024">
  <circle cx="512" cy="512" r="512"/>
  <path fill="#fff" d="M514.5 195c-168 0-305.75 129.625-318.875 294.25l171.5 70.875c14.5-9.875 32.125-15.75 51-15.75 1.625 0 3.375.125 5 .125l76.25-110.5v-1.625c0-66.5 54.125-120.625 120.625-120.625s120.625 54.125 120.625 120.75S686.5 553.125 620 553.125h-2.75L508.5 630.75c0 1.375.125 2.75.125 4.25 0 50-40.375 90.5-90.375 90.5-43.625 0-80.375-31.25-88.875-72.75l-122.75-50.875C244.625 736.5 368 835 514.5 835c176.75 0 320-143.25 320-320s-143.375-320-320-320zM396.125 680.625l-39.25-16.25c7 14.5 19 26.625 35 33.375 34.625 14.375 74.5-2 88.875-36.625 7-16.75 7-35.125.125-52-6.875-16.75-20-29.875-36.75-36.875-16.625-6.875-34.375-6.625-50.125-.75l40.625 16.75c25.5 10.625 37.625 40 26.875 65.5-10.5 25.375-39.875 37.5-65.375 26.875zM700.5 432.5c0-44.375-36.125-80.375-80.375-80.375-44.375 0-80.375 36.125-80.375 80.375 0 44.375 36 80.375 80.375 80.375 44.25 0 80.375-36 80.375-80.375zm-140.625-.125c0-33.375 27-60.375 60.375-60.375 33.25 0 60.375 27 60.375 60.375S653.5 492.75 620.25 492.75c-33.375 0-60.375-27-60.375-60.375z"/>
</svg>
