<svg version="1.1" xmlns="http://www.w3.org/2000/svg" viewBox="0 0 220 220">
	<rect width="220" height="220" rx="15%" fill="#FF4E00" />
	<g fill="#FFF" transform="translate(10, 0)">
		<path d="M134.389,180.069c0,1.758,1.426,3.186,3.184,3.186s3.183-1.428,3.183-3.186c0-1.759-1.425-3.182-3.183-3.182
			S134.389,178.311,134.389,180.069"/>
		<path d="M25.251,196c0.193,2.127,1.803,2.899,3.767,2.899c1.385,0,3.798-0.292,3.702-2.191c-0.097-1.929-2.769-2.156-5.439-2.768
			c-2.705-0.58-5.346-1.544-5.346-4.926c0-3.636,3.928-4.764,6.955-4.764c3.413,0,6.502,1.416,6.954,5.119h-3.832
			c-0.323-1.737-1.771-2.223-3.38-2.223c-1.062,0-3.025,0.258-3.025,1.707c0,1.802,2.705,2.06,5.407,2.672
			c2.672,0.613,5.377,1.579,5.377,4.861c0,3.961-3.993,5.407-7.436,5.407c-4.185,0-7.309-1.866-7.373-5.795H25.251z"/>
		<path d="M35.908,184.701h2.767v-4.989h3.67v4.989h3.315v2.737h-3.315v8.885c0,1.514,0.129,2.284,1.771,2.284
			c0.514,0,1.03,0,1.544-0.128v2.833c-0.806,0.064-1.578,0.194-2.382,0.194c-3.831,0-4.539-1.483-4.604-4.251v-9.817h-2.767V184.701z
			"/>
		<path d="M49.556,193.974c0,2.606,1.417,4.926,4.476,4.926c2.123,0,3.412-0.936,4.056-2.77h3.477
			c-0.805,3.638-3.896,5.665-7.533,5.665c-5.216,0-8.146-3.638-8.146-8.755c0-4.733,3.091-8.789,8.049-8.789
			c5.248,0,8.467,4.733,7.854,9.723H49.556z M58.121,191.559c-0.129-2.319-1.707-4.411-4.186-4.411c-2.543,0-4.281,1.932-4.379,4.411
			H58.121z"/>
		<path d="M65.846,193.974c0,2.606,1.417,4.926,4.476,4.926c2.123,0,3.412-0.936,4.055-2.77h3.478
			c-0.805,3.638-3.896,5.665-7.532,5.665c-5.217,0-8.146-3.638-8.146-8.755c0-4.733,3.091-8.789,8.049-8.789
			c5.248,0,8.466,4.733,7.855,9.723H65.846z M74.409,191.559c-0.129-2.319-1.706-4.411-4.185-4.411c-2.543,0-4.281,1.932-4.378,4.411
			H74.409z"/>
		<rect x="79.367" y="178.358" width="3.669" height="22.986"/>
		<path d="M94.883,189.497c-0.032-0.545-0.323-0.966-0.74-1.254c-0.386-0.322-0.902-0.482-1.416-0.482
			c-0.902,0-1.933,0.19-1.933,1.288c0,0.483,0.386,0.708,0.742,0.869c1.061,0.45,3.476,0.578,5.6,1.288
			c2.125,0.676,3.993,1.93,3.993,4.666c0,4.635-4.442,5.893-8.499,5.893c-3.928,0-8.24-1.579-8.338-5.893h6.084
			c0.033,0.578,0.289,1.062,0.773,1.481c0.321,0.29,0.933,0.483,1.707,0.483c0.837,0,2.157-0.323,2.157-1.289
			s-0.547-1.256-3.509-1.769c-4.861-0.839-6.824-2.383-6.824-5.247c0-4.219,4.54-5.314,7.886-5.314c3.605,0,7.952,0.999,8.113,5.279
			H94.883z"/>
		<path d="M107.471,194.424c0.161,1.899,1.255,3.25,3.252,3.25c1.029,0,2.156-0.385,2.671-1.19h5.956
			c-1.289,3.607-4.798,5.281-8.596,5.281c-5.345,0-9.368-3.157-9.368-8.725c0-4.861,3.542-8.822,8.821-8.822
			c6.632,0,9.497,3.703,9.497,10.206H107.471z M113.587,191.108c0-1.546-1.159-2.802-2.801-2.802c-1.899,0-2.992,0.998-3.284,2.802
			H113.587z"/>
		<path d="M120.766,184.636h6.116v2.675h0.063c1.031-1.997,2.384-3.093,4.701-3.093c0.644,0,1.255,0.096,1.866,0.258v5.635
			c-0.643-0.226-1.223-0.418-2.51-0.418c-2.511,0-3.863,1.481-3.863,5.054v6.599h-6.374V184.636z"/>
		<rect x="134.382" y="184.636" width="6.375" height="16.709"/>
		<path d="M147.645,194.424c0.162,1.899,1.255,3.25,3.252,3.25c1.029,0,2.156-0.385,2.671-1.19h5.957
			c-1.287,3.607-4.796,5.281-8.596,5.281c-5.344,0-9.367-3.157-9.367-8.725c0-4.861,3.54-8.822,8.82-8.822
			c6.631,0,9.497,3.703,9.497,10.206H147.645z M153.762,191.108c0-1.546-1.158-2.802-2.802-2.802c-1.898,0-2.993,0.998-3.282,2.802
			H153.762z"/>
		<path d="M170.599,189.497c-0.033-0.545-0.322-0.966-0.741-1.254c-0.386-0.322-0.9-0.482-1.417-0.482
			c-0.901,0-1.932,0.19-1.932,1.288c0,0.483,0.386,0.708,0.741,0.869c1.061,0.45,3.477,0.578,5.601,1.288
			c2.125,0.676,3.992,1.93,3.992,4.666c0,4.635-4.442,5.893-8.498,5.893c-3.928,0-8.242-1.579-8.338-5.893h6.083
			c0.033,0.578,0.29,1.062,0.772,1.481c0.323,0.29,0.935,0.483,1.707,0.483c0.838,0,2.157-0.323,2.157-1.289s-0.547-1.256-3.51-1.769
			c-4.859-0.839-6.824-2.383-6.824-5.247c0-4.219,4.539-5.314,7.888-5.314c3.605,0,7.952,0.999,8.112,5.279H170.599z"/>
		<path d="M124.402,46.611v-16.68c0-6.477-5.25-11.728-11.728-11.728s-11.729,5.25-11.729,11.728V46.61
			c-25.993,4.822-46.532,25.36-51.354,51.353H33.328c-6.478,0-11.728,5.25-11.728,11.729c0,6.476,5.25,11.728,11.728,11.728h16.265
			c5.527,29.794,31.71,52.425,63.083,52.425c35.373,0,64.15-28.779,64.15-64.153C176.825,78.32,154.193,52.138,124.402,46.611
			M112.675,150.388c-22.445,0-40.704-18.257-40.704-40.697c0-22.443,18.259-40.702,40.704-40.702
			c22.438,0,40.694,18.258,40.694,40.702C153.369,132.131,135.112,150.388,112.675,150.388"/>
		<path d="M87.376,109.757c0,13.882,11.294,25.175,25.174,25.175c13.884,0,25.18-11.293,25.18-25.175
			c0-13.883-11.296-25.178-25.18-25.178C98.67,84.579,87.376,95.875,87.376,109.757 M104.993,109.757
			c0-4.169,3.392-7.562,7.558-7.562c4.172,0,7.562,3.393,7.562,7.562c0,4.167-3.391,7.56-7.562,7.56
			C108.385,117.317,104.993,113.925,104.993,109.757"/>
		<path d="M63.7,50.545c0,6.485-5.256,11.747-11.742,11.747c-6.489,0-11.747-5.262-11.747-11.747c0-6.486,5.258-11.745,11.747-11.745
			C58.443,38.8,63.7,44.059,63.7,50.545"/>
	</g>
</svg>
