<svg xmlns="http://www.w3.org/2000/svg" version="1.1" viewBox="0 0 473.935 473.935">
  <circle cx="236.967" cy="236.967" r="236.967" fill="#ef4e23"/>
  <path fill="#e74525" d="M404.521 69.377c92.542 92.549 92.549 242.595 0 335.144-92.542 92.542-242.599 92.546-335.144 0L404.521 69.377z"/>
  <path fill="#dc4127" d="M465.108 300.989l-75.509-75.506-1.051 1.051-103.252-103.246-29.036 29.033-37.392 2.518-.333 35.206-41.59 41.59 40.46 40.46-13.489 13.493-59.869-59.869-33.983 33.979 26.66 26.66-25.257 25.257L271.283 471.43c93.264-13.54 168.875-81.382 193.825-170.441z"/>
  <path fill="#d23d28" d="M465.127 300.918l-75.558-75.55-67.973 67.977-11.693-11.693-32.662 32.666 107.677 107.681c38.181-30.567 66.667-72.688 80.209-121.081z"/>
  <path fill="#fff" d="M252.597 208.627l20.198 9.407 30.103-8.984v-20.894c-1.066-35.551-30.125-64.074-65.942-64.074-35.685 0-64.677 28.31-65.942 63.689v95.442c0 8.644-7.008 15.644-15.648 15.644s-15.641-7.001-15.641-15.644v-40.449h-50.57v40.988c0 36.497 29.583 66.08 66.08 66.08 36.176 0 65.496-29.077 66.001-65.126l.075-94.271c0-8.64 7.008-15.644 15.648-15.644s15.641 7.005 15.641 15.644v18.193h-.003zm81.586 34.133v42.335c0 8.64-7.001 15.644-15.641 15.644s-15.648-7.005-15.648-15.644v-41.523l-30.103 8.984-20.198-9.411v41.193c.322 36.217 29.788 65.489 66.08 65.489 36.497 0 66.08-29.583 66.08-66.08v-40.988l-50.57.001z"/>
</svg>
