<svg xmlns="http://www.w3.org/2000/svg" version="1.1" viewBox="0 0 34 34">
	<rect x="8" y="8" width="16" height="16" fill="#fff"/>
	<path fill="#FA5B35" d="M16.451,2.055c7.861,0,14.113,6.252,14.113,14.113c0,7.86-6.252,14.113-14.113,14.113   S2.338,24.028,2.338,16.167C2.338,8.307,8.59,2.055,16.451,2.055z M23.492,12.617V10.28H9.409v2.337H23.492z M21.155,22.055h2.337   v-7.071H9.409v7.071h2.337v-2.671c0-0.758,0.183-1.184,0.456-1.487c0.303-0.364,0.759-0.577,1.305-0.577   c0.546,0,1.001,0.212,1.305,0.577c0.273,0.303,0.456,0.729,0.456,1.487v2.671h2.367v-2.671c0-0.758,0.182-1.184,0.456-1.487   c0.303-0.364,0.758-0.577,1.305-0.577s1.001,0.212,1.305,0.577c0.273,0.303,0.456,0.729,0.456,1.487V22.055z"/>
</svg>