<svg viewBox="0 0 1200 1200" version="1.1" xmlns="http://www.w3.org/2000/svg">
<circle cx="600" cy="600" r="600" fill="white" />
<path transform="translate(0, 50)" fill="#ec1b2e" opacity="1.00" d="M 593.78 37.70 C 610.11 35.84 626.60 36.74 643.00 36.74 C 651.58 36.50 660.07 37.84 668.61 38.34 C 681.65 39.82 694.78 40.72 707.69 43.16 C 738.27 47.66 768.20 55.91 797.37 66.05 C 806.92 69.79 816.54 73.37 825.98 77.39 C 846.77 86.74 867.17 96.98 886.98 108.29 C 902.02 117.66 916.89 127.36 930.91 138.23 C 944.58 147.99 957.06 159.28 969.50 170.54 C 974.79 175.20 979.45 180.59 985.12 184.80 C 985.39 185.96 985.64 187.12 985.89 188.29 C 986.64 188.15 988.15 187.88 988.90 187.74 C 988.88 189.16 988.88 190.58 988.87 192.01 C 989.73 191.78 991.46 191.31 992.32 191.08 C 988.40 193.52 983.71 193.34 979.36 194.20 C 976.62 194.94 973.90 195.80 971.06 196.04 C 960.51 197.75 950.20 200.62 939.92 203.49 C 931.88 205.38 924.02 207.95 916.34 210.96 C 906.82 214.74 897.13 218.13 887.88 222.56 C 877.08 227.65 866.02 232.29 855.80 238.53 C 847.12 243.85 838.05 248.59 829.88 254.72 C 823.14 259.69 816.08 264.23 809.58 269.53 C 797.34 279.58 784.94 289.52 774.02 301.02 C 754.26 320.02 737.54 341.93 722.77 364.96 C 718.79 371.44 715.27 378.18 711.47 384.76 C 706.58 393.22 702.91 402.29 698.71 411.09 C 693.27 422.61 689.48 434.79 685.27 446.78 C 682.43 455.01 680.80 463.58 678.47 471.95 C 674.80 484.69 673.96 497.99 671.84 511.03 C 670.58 518.32 671.54 525.74 670.88 533.07 C 669.91 541.39 670.03 549.82 670.42 558.18 C 671.81 567.34 670.37 576.68 671.96 585.82 C 673.31 594.35 674.19 602.95 675.62 611.47 C 680.21 634.00 686.99 656.04 695.20 677.50 C 701.63 691.54 707.95 705.66 715.72 719.03 C 722.70 732.86 732.08 745.24 741.17 757.72 C 748.40 766.80 755.94 775.63 763.45 784.48 C 770.44 791.84 777.55 799.11 784.85 806.17 C 800.96 820.72 818.55 833.49 836.38 845.83 C 842.99 849.95 849.76 853.83 856.44 857.84 C 866.91 864.13 878.18 868.90 889.23 874.05 C 897.59 878.05 906.38 880.99 914.99 884.38 C 922.38 887.40 930.03 889.73 937.73 891.83 C 948.55 894.73 959.27 898.12 970.37 899.85 C 974.36 900.35 978.14 901.98 982.20 902.08 C 985.45 902.18 988.61 902.94 991.73 903.85 C 987.67 904.94 987.19 909.78 984.14 912.13 C 977.68 917.71 972.04 924.14 965.72 929.86 C 953.95 939.07 943.19 949.57 930.76 957.93 C 906.65 975.91 881.08 991.92 854.38 1005.74 C 843.90 1010.64 833.53 1015.81 822.87 1020.30 C 808.01 1026.00 793.22 1031.97 777.95 1036.51 C 754.74 1044.48 730.54 1049.00 706.45 1053.38 C 692.26 1056.19 677.79 1056.98 663.46 1058.72 C 657.65 1059.21 651.78 1058.26 645.99 1059.14 C 638.71 1060.26 631.33 1059.63 624.00 1059.81 C 617.55 1059.57 611.08 1060.15 604.65 1059.63 C 598.12 1058.78 591.52 1058.85 585.00 1057.96 C 573.82 1057.91 562.85 1055.53 551.80 1054.20 C 528.55 1050.38 505.33 1045.90 482.81 1038.85 C 457.00 1031.28 432.16 1020.82 407.77 1009.57 C 387.92 999.43 367.98 989.28 349.59 976.63 C 337.09 968.21 324.50 959.86 312.98 950.13 C 299.88 939.25 286.79 928.33 274.63 916.40 C 262.79 904.58 250.69 892.95 240.08 879.98 C 216.47 851.49 195.49 820.75 178.39 787.91 C 164.80 763.05 154.08 736.70 145.28 709.81 C 133.05 674.25 126.02 637.12 121.58 599.84 C 120.85 591.48 120.19 583.13 119.58 574.77 C 119.27 557.87 119.38 540.97 119.50 524.07 C 120.58 503.43 122.88 482.85 126.49 462.50 C 131.00 435.24 137.52 408.29 146.72 382.23 C 153.15 363.33 160.47 344.71 169.06 326.67 C 174.00 316.49 179.49 306.58 184.88 296.62 C 194.08 279.63 204.81 263.53 215.95 247.77 C 243.27 209.19 276.72 175.20 313.56 145.68 C 320.49 139.87 327.76 134.51 335.23 129.43 C 352.07 117.65 369.34 106.44 387.51 96.80 C 410.88 84.74 434.75 73.53 459.69 65.08 C 483.84 56.59 508.60 49.86 533.81 45.37 C 553.64 41.80 573.63 38.70 593.78 37.70 Z" />
</svg>
