<svg xmlns="http://www.w3.org/2000/svg" viewBox="0 0 100 100">
  <circle cx="50" cy="50" r="50" fill="#fff"/>
  <path fill="#e8782b" d="M62.8 47.28H51.76V35.36h-4.32v11.92H36.48v4.24h10.96v12h4.32v-12H62.8v-4.24z"/>
  <path fill="#c62037" d="M40.72 66.8H30.8V56.08h-3.68V66.8h-9.84v3.28h9.84V80.8h3.68V70.08h9.92V66.8z"/>
  <path fill="#5b869a" d="M82 28.56h-9.84v-10.8h-3.68v10.8h-9.92v3.2h9.92v10.72h3.68V31.76H82v-3.2z"/>
  <path fill="#5c6691" d="M58 78.72h-6.72V71.2h-3.2v7.52h-6.64v2.88h6.64v7.44h3.2V81.6H58v-2.88z"/>
  <path fill="#eb9025" d="M40.72 28.56h-10v-10.8H27.2v10.8h-9.92v3.12h9.92v10.8h3.52v-10.8h10v-3.12z"/>
  <path fill="#5c6691" d="M89.6 48h-6.72v-7.44h-3.12V48h-6.72v2.88h6.72v7.44h3.12v-7.44h6.72V48z"/>
  <path fill="#1f467e" d="M82 66.8h-9.84V56.08h-3.68V66.8h-9.92v3.28h9.92V80.8h3.68V70.08H82V66.8z"/>
  <path fill="#7298a4" d="M57.52 17.44h-6.64v-7.28h-2.4v7.28h-6.56v2.24h6.56v7.36h2.4v-7.36h6.64v-2.24zM25.2 48.24h-6.64v-7.12h-2.32v7.12H9.6v2.32h6.64v7.2h2.32v-7.2l6.64-.08v-2.24z"/>
</svg>
