<svg viewBox="0 0 130 130" xmlns="http://www.w3.org/2000/svg">
    <defs>
        <linearGradient x1="0%" y1="50%" x2="100%" y2="50%" id="a">
            <stop stop-color="#0087FF" offset="0%" />
            <stop stop-color="#00CDE9" offset="100%" />
        </linearGradient>
    </defs>
    <rect width="130" height="130" fill="white" rx="35" />
        <path
            d="M65.71 37.74c1.72-.32 3.46-.72 5.15-1.2a58.86 58.86 0 006.58-2.29c1.06-.44 2.12-.92 3.16-1.43a60.24 60.24 0 0017.52-13 55.65 55.65 0 00-9.24-9.23A46.53 46.53 0 0155 25.46a46.54 46.54 0 01-33.95-14.89 55.65 55.65 0 00-9.24 9.23 60.37 60.37 0 0017.52 13c1 .51 2.1 1 3.16 1.43a59.57 59.57 0 006.58 2.29c1.7.48 3.43.88 5.15 1.2.58.11 1.17.21 1.75.3 1.17.18 2.37.33 3.55.44 3.622.34 7.268.34 10.89 0 1.18-.11 2.38-.26 3.55-.44.58-.02 1.17-.17 1.75-.28zM77.54 3.66A55 55 0 0066.45 0a24.24 24.24 0 01-11.6 3 24.26 24.26 0 01-11.52-3 54.21 54.21 0 00-10.94 3.66A33.89 33.89 0 0055 12.35a33.89 33.89 0 0022.54-8.69zm32.08 43a56.26 56.26 0 00-3.4-12.8C79.7 40.54 60.46 65.19 60.46 93.92v1.55a63.42 63.42 0 002 14.43A54.35 54.35 0 0075 106.63a49.58 49.58 0 01-1.66-12.71c.01-22.67 15.44-42.13 36.28-47.3v.04zM86.08 93.92c.011 2.137.215 4.27.61 6.37a55.49 55.49 0 008.76-7.73 26.12 26.12 0 0111.93-20.37 56.44 56.44 0 002.54-12.06 35.72 35.72 0 00-23.84 33.79zm-49.52 0a50 50 0 01-1.65 12.71 54.35 54.35 0 0012.5 3.27 63.41 63.41 0 002-14.43v-1.55c0-28.73-19.25-53.38-45.76-60.1A55.75 55.75 0 00.3 46.62c20.83 5.17 36.26 24.63 36.26 47.3zM0 60.13a56.44 56.44 0 002.54 12.06 26.15 26.15 0 0111.93 20.37 55.49 55.49 0 008.76 7.73c.395-2.1.599-4.233.61-6.37A35.72 35.72 0 000 60.13z"
            fill="url(#a)" transform="translate(10 10)" />
</svg>