<svg xmlns="http://www.w3.org/2000/svg" viewBox="0 0 256 256">
  <circle cx="128" cy="128" r="128" fill="#fff"/>
  <path fill="#ED1C24" d="M128 256C57.44 256 0 198.56 0 128S57.44 0 128 0s128 57.44 128 128-57.44 128-128 128zm0-243.088C64.528 12.912 12.912 64.528 12.912 128c0 63.472 51.616 115.088 115.088 115.088 63.472 0 115.088-51.616 115.088-115.088 0-63.472-51.616-115.088-115.088-115.088zM52.16 197.664c18.72 20.48 45.792 33.216 75.84 33.216 15.36 0 29.872-3.36 42.96-9.36l-71.44-71.248-47.36 47.392zm152.4-.72c16.432-18.24 26.512-42.56 26.512-68.96 0-41.44-24.4-76.96-59.408-93.44L106.72 99.36l97.76 97.6zM99.2 107.04l-54.112 53.92-7.248-7.248L94.768 96.8l66.464-66.4A103.51 103.51 0 0 0 128 24.96C71.072 24.928 24.928 71.072 24.928 128c0 23.168 7.6 44.56 20.688 61.872l53.92-53.92 3.84 3.52 77.28 77.28c1.6-.88 3.04-1.76 4.48-2.832L99.52 128.528 47.744 180.32l-7.248-7.232 59.04-59.04 3.84 3.52 90.24 89.984c1.44-1.056 2.72-2.288 4-3.36L100.16 106.96l-.896.16zM131.712 118l-7.232-7.2 51.072-51.104 7.248 7.36-51.088 51.04zm48.448-70.16l-58.88 58.88-7.248-7.232 58.88-58.88 7.248 7.28z"/>
</svg>
