<svg xmlns="http://www.w3.org/2000/svg" viewBox="0 0 512 512">
  <circle cx="256" cy="256" r="256" fill="#479951"/>
  <path fill="#fff" d="M422.6 213.2c3.7-10.2 8.4-22.3 15.8-29.8h-60.5c-.9 0-1.9-.9-2.8-.9-3.7-5.6-26.1-34.4-115.4-34.4-98.7 0-116.4 35.4-116.4 35.4H80.1c8.4 8.4 14 22.3 16.8 32.6-11.2 15.8-18.6 34.4-18.6 55.9 0 51.2 41 93.1 92.2 93.1 27.9 0 53.1-13 69.8-32.6l20.5 29.8 17.7-30.7c16.8 20.5 42.8 34.4 70.7 34.4 50.3 0 92.2-41.9 92.2-93.1 1.7-23.4-5.7-43.9-18.8-59.7zM172.2 344.4c-41 0-73.5-33.5-73.5-73.5 0-41 33.5-73.5 73.5-73.5 41 0 73.5 33.5 73.5 73.5.1 41-32.5 73.5-73.5 73.5zm-31.6-105.2c-8.4 8.4-13 19.5-13 31.7 0 12.1 4.7 23.3 13 31.7 8.4 8.4 19.5 13 31.7 13 24.2 0 44.7-19.5 44.7-44.7 0-24.2-19.5-44.7-44.7-44.7-12.2 0-23.4 4.7-31.7 13zm7.4 55.9c-6.5-6.5-10.2-14.9-10.2-24.2s3.7-17.7 10.2-24.2c6.5-6.5 14.9-10.2 24.2-10.2 18.6 0 34.4 15.8 34.4 34.4s-15.8 34.4-34.4 34.4c-9.3 0-17.7-3.7-24.2-10.2 0 0 6.5 6.5 0 0zm9.3-24.2c0 8.4 6.5 14.9 14.9 14.9s14.9-6.5 14.9-14.9-6.5-14.9-14.9-14.9-14.9 6.5-14.9 14.9zm191.8 73.5c-41 0-73.5-33.5-73.5-73.5 0-41 33.5-73.5 73.5-73.5 41 0 73.5 33.5 73.5 73.5 1 41-32.5 73.5-73.5 73.5zm-30.7-105.2c-8.4 8.4-13 19.5-13 31.7 0 12.1 4.7 23.3 13 31.7 8.4 8.4 19.5 13 31.7 13 24.2 0 44.7-19.5 44.7-44.7 0-24.2-19.5-44.7-44.7-44.7-12.2 0-23.4 4.7-31.7 13zm6.5 55.9c-6.5-6.5-10.2-14.9-10.2-24.2s3.7-17.7 10.2-24.2c6.5-6.5 14.9-10.2 24.2-10.2 18.6 0 34.4 15.8 34.4 34.4s-15.8 34.4-34.4 34.4c-8.4 0-17.7-3.7-24.2-10.2 0 0 6.5 6.5 0 0zm10.2-24.2c0 8.4 6.5 14.9 14.9 14.9s14.9-6.5 14.9-14.9S358.4 256 350 256s-14.9 6.5-14.9 14.9zm-76.3-113.6c62.4 0 85.6 26.1 85.6 26.1S278.3 172.2 256 256c-22.3-83.8-88.4-71.7-88.4-71.7s23.3-26.1 85.6-26.1h5.6v-.9z"/>
</svg>
