<svg xmlns="http://www.w3.org/2000/svg" viewBox="0 0 270 270">
  <circle cx="135" cy="135" r="130" fill="#fff"/>
  <path fill="#D44054" d="M135.06 0C61 0 .8 60.23.8 134.26S61 268.51 135.06 268.51c74.06 0 134.25-60.22 134.25-134.25S209.09 0 135.06 0zm0 249.66c-46.68 0-88.763-28.12-106.626-71.247-17.863-43.127-7.987-92.767 25.022-125.774 33.01-33.006 82.651-42.877 125.776-25.011 43.126 17.866 71.242 59.952 71.238 106.632-.077 63.706-51.704 115.328-115.41 115.4z"/>
  <path fill="#D44054" d="M135.06 26.39c-59.575 0-107.87 48.295-107.87 107.87s48.295 107.87 107.87 107.87 107.87-48.295 107.87-107.87c-.072-59.545-48.325-107.798-107.87-107.87zm14.73 161.79v-73.25h31.55V90.67h18.47l17.07 23.54-48.27 73.86-18.82.11zm-29.34 0l-18.82-.11-48.26-73.86 17.07-23.54h18.47v24.26h31.54v73.25z"/>
</svg>
