<svg xmlns="http://www.w3.org/2000/svg" width="32" height="32">
  <defs>
    <linearGradient id="a" x1=".4" x2="31.63" y1="15.82" y2="15.82" gradientUnits="userSpaceOnUse">
      <stop stop-color="#B07908"/>
      <stop offset=".11" stop-color="#C79B2E"/>
      <stop offset=".24" stop-color="#DFBD55"/>
      <stop offset=".34" stop-color="#EED36D"/>
      <stop offset=".41" stop-color="#F4DB76"/>
      <stop offset=".52" stop-color="#E9CC65"/>
      <stop offset=".75" stop-color="#CEA539"/>
      <stop offset=".97" stop-color="#B07908"/>
    </linearGradient>
  </defs>
  <path fill="url(#a)" d="M30.71 10.54l.01.04-8.5 11.5c-.48.6-1 .99-1.85.98h-8.36c-1.1 0-1.58-.31-2.04-1.48l-2.53-8.16c-.32-.7-.25-1.52.18-2.17L16.08.2h-.07a15.61 15.61 0 1 0 14.7 10.34z"/>
  <path fill="#11110D" d="M7.44 13.42l2.53 8.16c.46 1.17.93 1.48 2.05 1.48h8.35c.86 0 1.37-.38 1.84-.99l8.51-11.5v-.03C28.55 4.54 22.81.24 16.08.2L7.62 11.25c-.43.65-.5 1.46-.18 2.17zm3.46-2.8h10.35V14h-3.48v5.72h-3.36V14H10.9v-3.36z"/>
  <path fill="#fff" d="M14.4 19.71h3.37V14h3.48v-3.36H10.9V14h3.5v5.72z"/>
</svg>
