<svg xmlns="http://www.w3.org/2000/svg" xmlns:xlink="http://www.w3.org/1999/xlink" viewBox="0 0 423 423.926">
  <rect width="350" height="350" fill="#fff" rx="45"/>
  <defs>
    <path id="a" d="M125.621 319.26c-.627.471-4.762 3.605-4.762 3.605s-4.16-3.135-4.77-3.605c-24.895-.764-50.592-10.186-71.995-22.482l-17.259 11.789.023 24.85c27.43 15.564 58.189 24.594 89.901 25.256l.52-.004s2.397 1.99 3.57 2.955v.008s0-.008.016-.008v.008-.008c1.16-.965 3.579-2.955 3.579-2.955l.518.004c31.717-.662 62.47-9.691 89.901-25.256l.023-24.85-17.259-11.789c-21.404 12.296-47.116 21.722-72.006 22.482"/>
    <path id="d" d="M180.945 211.497c.105-.22.252-.415.416-.582a83.438 83.438 0 0 1 2.758 2.672c3.89 4.009 6.468 8.808 9.658 13.317 3.413 4.793 7.837 8.496 12.114 12.455 3.59 3.332 20.608 15.926 28.918 21.109 1.214-6.631-.371-19.945-.282-26.705.089-6.043-.047-10.211-5.359-13.932-6.891-4.834-14.972-8-22.256-12.17-6.444-3.673-12.367-8.581-18.754-12.412-4.744-2.864-6.585-6.076-7.282-9.882-.917 8.714-.576 17.417.069 26.13"/>
    <path id="g" d="M53.295 195.253c-6.385 3.829-12.299 8.74-18.751 12.413-7.275 4.171-15.355 7.333-22.25 12.172-5.317 3.717-5.454 7.889-5.374 13.93.09 6.76-1.491 20.076-.262 26.705 8.308-5.182 25.305-17.779 28.899-21.109 4.288-3.959 8.711-7.662 12.13-12.455 3.189-4.512 5.757-9.307 9.65-13.317.892-.916 1.83-1.8 2.752-2.671.175.163.323.359.416.582.644-8.713.982-17.417.095-26.125-.713 3.8-2.561 7.012-7.305 9.875"/>
    <path id="j" d="M95.987 244.355c-.901 4.852-13.833 47.531-15.549 52.031 6.557 1.9 6.38.873 10.705-.338.856 12.094 8.22 4.916 9.866 3.281 5.708 10.338 11.051 3.959 13.991-.705 0 3.801 1.635 5.705 5.716 8.645 4.085-2.939 5.751-4.844 5.751-8.645 2.933 4.664 8.268 11.043 13.992.705 1.632 1.635 8.995 8.807 9.865-3.281 4.306 1.211 4.139 2.238 10.708.338-1.734-4.5-14.665-47.18-15.565-52.031-2.199-2.199-5.871-3.643-9.969-3.643-4.918 0-10.448 2.086-14.781 7.459-4.318-5.379-9.844-7.459-14.758-7.459-4.101-.003-7.772 1.444-9.972 3.643"/>
    <path id="m" d="M180.945 188.761c4.467 13.114 45.996 31.142 54.326 36.306 0-8.537-.833-14.07-.744-20.828.09-6.045-.047-10.23-5.359-13.948-6.891-4.817-14.972-7.995-22.256-12.153-6.444-3.679-12.367-8.56-18.754-12.421-4.744-2.866-6.583-6.061-7.282-9.877-.917 8.709-.122 33.089.069 32.921"/>
    <path id="p" d="M180.945 234.617c0 6.064 4.287 10.844 8.874 14.652.145 3.566 2.105 12.514 9.471 15.404 0 5.027 4.232 12.029 11.732 15.588 0 6.387 7.844 12.045 12.027 12.898-2.897 20.322 9.313 26.439 12.227 28.262 0-8.543-.831-43.639-.744-50.389.091-6.047-.152-10.086-5.359-13.965-21.26-15.736-40.586-37.934-48.724-47.521-.905 8.708.305 25.257.496 25.071"/>
    <path id="s" d="M53.295 165.717c-6.385 3.861-12.299 8.745-18.751 12.421-7.287 4.16-15.355 7.336-22.25 12.153-5.317 3.718-5.454 7.903-5.374 13.948.09 6.758-.729 12.296-.729 20.828 8.309-5.164 49.849-23.191 54.316-36.306.178.168.984-24.211.094-32.921-.714 3.816-2.562 7.01-7.306 9.877"/>
    <path id="v" d="M12.299 257.064c-5.295 3.773-5.454 7.916-5.374 13.965.091 6.748-.728 41.846-.728 50.387 2.912-1.822 15.11-7.938 12.201-28.26 4.192-.854 12.034-6.508 12.034-12.898 7.51-3.559 11.724-10.557 11.724-15.588 7.378-2.891 9.338-11.838 9.494-15.406 4.578-3.807 8.866-8.588 8.866-14.65.177.184 1.391-16.363.511-25.07-8.154 9.589-19.366 26.602-48.728 47.52"/>
    <path id="y" d="M62.184 268.529c2.841-1.721 6.351-4.709 7.721-3.684 2.188 1.635 1.266 7.012 1.266 8.986 3.792-7.141 4.937-4.492 6.375-1.051 5.58-27.734 22.136-44.646 34.731-39.771 5.787 2.236 4.858-16.455-4.039-22.826-8.884-6.375-16.62-11.245-31.038-18.789 1.842 14.091-9.984 61.411-15.016 77.135"/>
    <path id="B" d="M133.214 210.18c-8.879 6.377-9.817 25.066-4.024 22.83 12.591-4.875 29.144 12.037 34.708 39.771 1.449-3.441 2.594-6.09 6.394 1.051 0-1.969-.922-7.352 1.255-8.986 1.374-1.027 4.887 1.961 7.718 3.684-5.031-15.725-16.847-63.044-15.005-77.137-14.433 7.544-22.151 12.417-31.046 18.787"/>
    <path id="E" d="M32.892 111.117c-5.406 5.136-21.414 22.852-21.414 30.564 0 7.727.953 44.319-1.69 46.956 7.663.064 46.173-24.164 48.36-26.349 7.562-7.564 10.062-3.665 19.711-3.628 3.451-2.435 7.54-4.151 11.424-6.358 14.16-8.75 7.212-25.888 6.867-39.979-15.932 11.486-31.239 6.852-43.147 2.209-6.386-2.484-11.792-4.972-15.789-4.972-1.71 0-3.164.457-4.322 1.557"/>
    <path id="H" d="M90.021 69.567c-.887 3.537 5.635 9.973 11.121 14.223 4.984 7.759 5.6 8.369 1.496 21.907-4.007 13.167 27.246 9.155 35.961 19.557 9.393 11.416 20.152 20.324 34.581 23.682a5.95 5.95 0 0 1 1.366.322c2.896 7.735 25.255 29.209 57.522 39.658-4.682-5.972-.102-41.334-2.645-48.711-2.555-7.377-19.166-29.865-26.385-29.865-9.005 0-23.727 14.713-41.016 7.826-20.885-8.306-18.098-39.531-41.596-50.521 7.685 2.113 15.412 6.363 13.038 5.04-5.167-9.274-13.512-12.575-21.584-12.575-9.577-.001-18.784 4.641-21.859 9.457"/>
    <path id="K" d="M99.795 70.851c0 2.32 2.129 4.2 4.746 4.2 2.618 0 4.739-1.88 4.739-4.2 0-2.333-2.121-4.208-4.739-4.208-2.616-.003-4.746 1.876-4.746 4.208"/>
  </defs>
  <clipPath id="b">
    <use overflow="visible" xlink:href="#a"/>
  </clipPath>
  <clipPath id="e">
    <use overflow="visible" xlink:href="#d"/>
  </clipPath>
  <clipPath id="h">
    <use overflow="visible" xlink:href="#g"/>
  </clipPath>
  <clipPath id="k">
    <use overflow="visible" xlink:href="#j"/>
  </clipPath>
  <clipPath id="n">
    <use overflow="visible" xlink:href="#m"/>
  </clipPath>
  <clipPath id="q">
    <use overflow="visible" xlink:href="#p"/>
  </clipPath>
  <clipPath id="t">
    <use overflow="visible" xlink:href="#s"/>
  </clipPath>
  <clipPath id="w">
    <use overflow="visible" xlink:href="#v"/>
  </clipPath>
  <clipPath id="z">
    <use overflow="visible" xlink:href="#y"/>
  </clipPath>
  <clipPath id="C">
    <use overflow="visible" xlink:href="#B"/>
  </clipPath>
  <clipPath id="F">
    <use overflow="visible" xlink:href="#E"/>
  </clipPath>
  <clipPath id="I">
    <use overflow="visible" xlink:href="#H"/>
  </clipPath>
  <clipPath id="L">
    <use overflow="visible" xlink:href="#K"/>
  </clipPath>
  <linearGradient id="c" x1="670.023" x2="674.01" y1="-66.659" y2="-66.659" gradientTransform="translate(-31569.828 3472.697) scale(47.1576)" gradientUnits="userSpaceOnUse">
    <stop offset="0" stop-color="#d91a32"/>
    <stop offset=".135" stop-color="#d91d34"/>
    <stop offset=".243" stop-color="#da2739"/>
    <stop offset=".343" stop-color="#dc3842"/>
    <stop offset=".436" stop-color="#df504e"/>
    <stop offset=".517" stop-color="#e26b5c"/>
    <stop offset=".594" stop-color="#df4f4d"/>
    <stop offset=".679" stop-color="#dc3741"/>
    <stop offset=".77" stop-color="#da2739"/>
    <stop offset=".871" stop-color="#d91d34"/>
    <stop offset="1" stop-color="#d91a32"/>
  </linearGradient>
  <linearGradient id="f" x1="614.495" x2="618.483" y1="-283.422" y2="-283.422" gradientTransform="rotate(-67.2 3414.966 1897.128) scale(6.0265)" gradientUnits="userSpaceOnUse">
    <stop offset="0" stop-color="#fff"/>
    <stop offset="1" stop-color="#ac823b"/>
  </linearGradient>
  <linearGradient id="i" x1="804.128" x2="808.116" y1="-303.699" y2="-303.699" gradientTransform="rotate(-112.8 3127.94 799.174) scale(6.0264)" gradientUnits="userSpaceOnUse">
    <stop offset="0" stop-color="#fff"/>
    <stop offset="1" stop-color="#ac823b"/>
  </linearGradient>
  <linearGradient id="l" x1="700.655" x2="704.646" y1="-162.065" y2="-162.065" gradientTransform="rotate(-90 6922.934 4280.361) scale(15.5605)" gradientUnits="userSpaceOnUse">
    <stop offset="0" stop-color="#fff"/>
    <stop offset=".168" stop-color="#f9f9f9"/>
    <stop offset=".382" stop-color="#eaeaea"/>
    <stop offset=".621" stop-color="#cfcfd0"/>
    <stop offset=".877" stop-color="#ababac"/>
    <stop offset="1" stop-color="#979798"/>
  </linearGradient>
  <linearGradient id="o" x1="605.983" x2="609.97" y1="-280.329" y2="-280.329" gradientTransform="rotate(-64.1 3437.555 2013.025) scale(6.0236)" gradientUnits="userSpaceOnUse">
    <stop offset="0" stop-color="#fff"/>
    <stop offset=".168" stop-color="#f9f9f9"/>
    <stop offset=".382" stop-color="#eaeaea"/>
    <stop offset=".621" stop-color="#cfcfd0"/>
    <stop offset=".877" stop-color="#ababac"/>
    <stop offset="1" stop-color="#979798"/>
  </linearGradient>
  <linearGradient id="r" x1="491.926" x2="495.913" y1="-307.543" y2="-307.543" gradientTransform="rotate(-49.3 2937.982 1580.274) scale(4.3806)" gradientUnits="userSpaceOnUse">
    <stop offset="0" stop-color="#fff"/>
    <stop offset=".168" stop-color="#f9f9f9"/>
    <stop offset=".382" stop-color="#eaeaea"/>
    <stop offset=".621" stop-color="#cfcfd0"/>
    <stop offset=".877" stop-color="#ababac"/>
    <stop offset="1" stop-color="#979798"/>
  </linearGradient>
  <linearGradient id="u" x1="819.853" x2="823.84" y1="-296.11" y2="-296.11" gradientTransform="rotate(-115.9 3111.78 743.68) scale(6.0228)" gradientUnits="userSpaceOnUse">
    <stop offset="0" stop-color="#fff"/>
    <stop offset=".168" stop-color="#f9f9f9"/>
    <stop offset=".382" stop-color="#eaeaea"/>
    <stop offset=".621" stop-color="#cfcfd0"/>
    <stop offset=".877" stop-color="#ababac"/>
    <stop offset="1" stop-color="#979798"/>
  </linearGradient>
  <linearGradient id="x" x1="930.917" x2="934.905" y1="-338.838" y2="-338.838" gradientTransform="rotate(-130.7 2457.142 318.278) scale(4.3806)" gradientUnits="userSpaceOnUse">
    <stop offset="0" stop-color="#fff"/>
    <stop offset=".168" stop-color="#f9f9f9"/>
    <stop offset=".382" stop-color="#eaeaea"/>
    <stop offset=".621" stop-color="#cfcfd0"/>
    <stop offset=".877" stop-color="#ababac"/>
    <stop offset="1" stop-color="#979798"/>
  </linearGradient>
  <linearGradient id="A" x1="617.209" x2="621.198" y1="-152.707" y2="-152.707" gradientTransform="rotate(-45.2 6532.523 8422.155) scale(12.5719)" gradientUnits="userSpaceOnUse">
    <stop offset="0" stop-color="#fff"/>
    <stop offset=".279" stop-color="#e5d7c0"/>
    <stop offset=".625" stop-color="#c6aa79"/>
    <stop offset=".875" stop-color="#b38d4c"/>
    <stop offset="1" stop-color="#ac823b"/>
  </linearGradient>
  <linearGradient id="D" x1="776.978" x2="780.965" y1="-154.933" y2="-154.933" gradientTransform="rotate(-130.6 5440.04 1353.855) scale(12.4701)" gradientUnits="userSpaceOnUse">
    <stop offset="0" stop-color="#fff"/>
    <stop offset=".279" stop-color="#e5d7c0"/>
    <stop offset=".625" stop-color="#c6aa79"/>
    <stop offset=".875" stop-color="#b38d4c"/>
    <stop offset="1" stop-color="#ac823b"/>
  </linearGradient>
  <linearGradient id="G" x1="608.019" x2="612.005" y1="-9.083" y2="-9.083" gradientTransform="rotate(35.5 3926.083 -13431.86) scale(14.1311)" gradientUnits="userSpaceOnUse">
    <stop offset="0" stop-color="#fff"/>
    <stop offset=".105" stop-color="#faf8f4"/>
    <stop offset=".289" stop-color="#eee6d7"/>
    <stop offset=".529" stop-color="#dac8a9"/>
    <stop offset=".814" stop-color="#bf9f69"/>
    <stop offset="1" stop-color="#ac823b"/>
  </linearGradient>
  <linearGradient id="J" x1="751.37" x2="755.357" y1="47.726" y2="47.726" gradientTransform="rotate(117.9 4598.675 -2253.78) scale(11.6409)" gradientUnits="userSpaceOnUse">
    <stop offset="0" stop-color="#fff"/>
    <stop offset=".089" stop-color="#f2ece1"/>
    <stop offset=".256" stop-color="#ddccaf"/>
    <stop offset=".42" stop-color="#cbb185"/>
    <stop offset=".579" stop-color="#be9d65"/>
    <stop offset=".732" stop-color="#b48e4e"/>
    <stop offset=".875" stop-color="#ae8540"/>
    <stop offset="1" stop-color="#ac823b"/>
  </linearGradient>
  <linearGradient id="M" x1="872.108" x2="876.094" y1="-603.994" y2="-603.994" gradientTransform="rotate(-102.401 1883.781 125.665) scale(2.6495)" gradientUnits="userSpaceOnUse">
    <stop offset="0" stop-color="#fff"/>
    <stop offset="1" stop-color="#1a1617"/>
  </linearGradient>
  <path fill="#1A1617" d="M251.755 253.824c-.118.074-.191.123-.319.186-21.421 12.977-45.865 21.998-71.444 22.691-1.191.973-4.131 3.199-4.131 3.199s-2.948-2.223-4.148-3.199c-25.553-.695-50.007-9.719-71.427-22.691-.126-.063-.196-.111-.317-.186-.202.139-22.505 13.994-22.505 13.994v29.82c28.646 16.961 60.201 27.189 94.246 27.889 1.127 1.113 4.147 3.428 4.147 3.428s3.021-2.314 4.131-3.428c34.062-.699 65.63-10.928 94.274-27.889v-29.82c.002 0-22.311-13.855-22.507-13.994"/>
  <path fill="url(#c)" d="M26.836 296.777h188.04v64.859H26.836z" clip-path="url(#b)" transform="translate(55 -38)"/>
  <path fill="#FFF" d="M144.012 34.054c-5.644 3.138-5.973 6.954-4.701 9.462.492-.391 2.917-.403 5.655-1.798 1.191-.228 7.516.886 11.705 4.302.467-1.572.705-3.268.705-5.013 0-5.514-2.445-10.384-6.225-13.39-.424.236-.873.475-1.297.733-4.833 2.819-4.252 4.831-5.842 5.704"/>
  <path fill="#AC823B" d="M290.491 154.619c-.169-1.388-.342-2.762-.512-4.139-1.323-11.504-.961-22.768-.7-34.304.233-10.704-1.405-20.638-6.741-30.034-4.708-8.314-13.144-19.195-23.376-20.567-9.384-1.259-15.584 7.051-24.263 9.327-9.573 2.521-15.098 2.302-23.988-4.262-3.704-3.548-16.557-30.453-20.117-35.98-4-6.239-9.224-9.994-16.662-11.715-8.13-1.879-22.698 1.454-25.783 5.407-2.129 2.728-3.297 2.288-3.297 4.212-.145 3.229 6.459 10.05 11.967 13.744-4.144.328 2.175 9.806 1.215 12.162-.938 2.334-.841 14.464-14.641 17.079-10.977 2.804-23.996.219-27.238-.646-8.698-2.276-15.603-10.178-24.981-8.919-10.241 1.379-17.963 11.842-22.68 20.156-5.337 9.396-6.961 19.331-6.719 30.034.257 11.535.598 22.799-.728 34.304-.159 1.38-.328 2.754-.488 4.139-.121-.435 47.912-25.441 49.373-26.872 2.159-2.137 3.128-3.577 5.609-6.069l.198 64.502s7.626-9.953 9.665-7.881c1.223 1.227-3.878 34.994-8.15 50.824 1.024.063 6.779-3.371 7.567-2.975.934.475.517 8.475.884 9.189.548-.926 2.569-4.613 4.194-4.189 1.572.432 1.731 4.699 1.717 5.98 1.371-3.01 2.552-7.121 4.06-10.059 1.46-2.861 4.523-8.293 6.542-11.443 1.593-2.465 8.358-9.645 12.297-10.896 5.111-1.621 18.311-.229 20.624 6.631.016.008.862.008.884 0 3.734-9.344 16.689-9.699 23.264-4.598 3.291 2.537 11.738 13.865 13.21 16.73 1.473 2.867 5.612 10.701 7.004 13.789-.003-1.268-.136-5.701 1.444-6.135 1.643-.422 3.64 3.264 4.2 4.191.362-.717-.051-8.715.872-9.189.806-.398 6.567 3.037 7.586 2.975-4.413-13.902-7.586-41.74-7.702-43.689-.075-1.48-.661-13.354.116-18.02.42 8.248 1.352 10.107 9.081 18.77.133-2.121.712-58.629.203-64.503 2.471 2.492 3.106 4.348 5.61 6.068 7.924 5.431 49.509 26.436 49.38 26.871"/>
  <path fill="url(#f)" d="M153.127 249.191l35.254-83.849 74.472 31.307-35.248 83.851z" clip-path="url(#e)" transform="translate(55 -38)"/>
  <path fill="url(#i)" d="M13.853 280.5l-35.249-83.851 74.473-31.307 35.246 83.853z" clip-path="url(#h)" transform="translate(55 -38)"/>
  <path fill="#FFF" d="M200.466 206.355c-4.828-4.832-16.814-6.031-24.746 3.818-7.914-9.85-19.9-8.65-24.744-3.818-.892 4.848-13.825 47.531-15.54 52.031 6.557 1.9 6.38.873 10.708-.338.849 12.1 8.22 4.916 9.865 3.281 5.708 10.336 11.051 3.969 13.991-.705 0 3.813 1.635 5.701 5.721 8.645 4.085-2.943 5.747-4.832 5.747-8.645 2.929 4.674 8.268 11.041 13.992.705 1.632 1.635 8.995 8.813 9.86-3.281 4.309 1.211 4.14 2.238 10.712.338-1.739-4.499-14.668-47.183-15.566-52.031m35.479-55.595c4.467 13.111 46 31.143 54.326 36.307 0-8.531-.833-14.063-.744-20.826.09-6.045-.047-10.234-5.362-13.944-6.885-4.82-14.971-7.994-22.25-12.157-6.444-3.678-12.369-8.563-18.754-12.421-4.744-2.858-6.588-6.06-7.29-9.877-.912 8.702-.117 33.091.074 32.918m0 45.855c0 6.066 4.284 10.854 8.874 14.654.145 3.563 2.112 12.514 9.471 15.404 0 5.027 4.232 12.029 11.732 15.588 0 6.404 7.848 12.041 12.027 12.898-2.897 20.322 9.313 26.439 12.227 28.262 0-8.539-.831-43.645-.744-50.383.091-6.059-.155-10.092-5.362-13.965-21.26-15.742-40.583-37.938-48.721-47.528-.905 8.709.305 25.252.496 25.07M115.512 150.76c-4.466 13.111-46.004 31.143-54.316 36.307 0-8.531.818-14.063.725-20.826-.082-6.045.059-10.234 5.381-13.944 6.886-4.82 14.954-7.994 22.245-12.157 6.444-3.678 12.362-8.563 18.751-12.421 4.744-2.858 6.587-6.06 7.305-9.877.89 8.702.086 33.091-.091 32.918m0 45.855c0 6.066-4.28 10.854-8.867 14.654-.156 3.563-2.115 12.514-9.5 15.404 0 5.027-4.204 12.029-11.717 15.588 0 6.404-7.844 12.041-12.027 12.898 2.902 20.322-9.298 26.439-12.208 28.262 0-8.539.819-43.645.725-50.383-.081-6.059.156-10.092 5.381-13.965 21.231-15.742 40.568-37.938 48.719-47.528.888 8.709-.329 25.252-.506 25.07"/>
  <path fill="url(#l)" d="M80.438 240.709h80.59v68.959h-80.59z" clip-path="url(#k)" transform="translate(55 -38)"/>
  <path fill="url(#o)" d="M152.758 211.855l37.755-77.752 71.959 34.942-37.755 77.75z" clip-path="url(#n)" transform="translate(55 -38)"/>
  <path fill="url(#r)" d="M124.24 273.848l78.999-91.849 87.338 75.122-79.002 91.844z" clip-path="url(#q)" transform="translate(55 -38)"/>
  <path fill="url(#u)" d="M16.751 246.793l-37.755-77.748 71.952-34.936 37.747 77.746z" clip-path="url(#t)" transform="translate(55 -38)"/>
  <path fill="url(#x)" d="M29.885 348.955l-78.991-91.834 87.318-75.114 78.994 91.841z" clip-path="url(#w)" transform="translate(55 -38)"/>
  <path fill="url(#A)" d="M20.965 232.9l68.965-69.446 69.352 68.874-68.965 69.443z" clip-path="url(#z)" transform="translate(55 -38)"/>
  <path fill="url(#D)" d="M147.056 301.443l-64.4-75.134 72.949-62.524 64.399 75.133z" clip-path="url(#C)" transform="translate(55 -38)"/>
  <path fill="url(#G)" d="M41.37 65.284l99.485 70.965-68.991 96.73-99.49-70.965z" clip-path="url(#F)" transform="translate(55 -38)"/>
  <path fill="url(#J)" d="M285.34 88.313l-84.565 159.71L35.87 160.712 120.432 1z" clip-path="url(#I)" transform="translate(55 -38)"/>
  <path fill="#FFF" d="M100.758 267.273c.821 1.244 1.916 1.467 3.489 1.439.608-.016 1.265-.195 1.864-.033.591.158 1.196 2.135 2.009 2.305.753.154 2.996-.021 3.752.066 1.428.18 2.562 1.709 4.016 1.771 1.192.061 2.209-1.021 2.493-2.182.373-1.479-.21-6.283 1.187-7.436.635.504 2.384 1.9 3.299 2.258.774.295 2.895 1.152 3.544 1.4.341.137-4.034-7.129-4.195-8.586-.511-4.957 3.872-11.445 5.147-14.27.591-1.303 2.02-6.256 2.583-7.65.547-1.404 1.03-4.752-.291-3.855-4.921 3.373-3.605-4.85-5.229-4.52-3.743.762-4.674 6.9-5.563 9.93-.695 2.396-6.073 15.207-7.014 15.482-.896-.506-2.573-.023-3.877 2.199-1.451-1.701-3.048-4.125-5.304-3.934-2.937.271-1.77 4.658-1.497 6.461.18 1.24-1.082 5.803-.925 6.971.07.531.236 1.359.374 1.898l.138.286zm150.407-.148c-.838 1.246-2.894 2.08-4.455 2.035-.588 0-2.098.748-2.536 1.17-.572.564-1.485.451-2.305.615-.751.162-1.424.283-2.185.373-1.412.18-2.589 1.504-4.045 1.574-1.192.055-2.288-1.096-2.559-2.26-.365-1.479-1.207-6.508-2.11-6.105-.819.35-4.202 1.783-6.085 2.484-.347.125 3.83-7.383 4.349-8.746.561-1.498.801-2.379-.191-4.568-.156-.344-3.228-6.234-4.493-9.061-.581-1.311-2.468-6.893-3.011-8.291-.579-1.404-1.051-4.75.257-3.855 4.933 3.369 3.61-4.852 5.25-4.52 3.733.764 4.659 6.898 5.544 9.928.69 2.398 2.099 4.969 2.894 7.311.792 2.348 3.119 5.924 3.119 9.555 0 0 .697-.869 1.507-1.008 1.643-.121 2.555-.33 3.05 1.916 1.323-2.174 3.075-4.215 5.345-4.016 2.938.277 2.053 4.646 1.777 6.449-.176 1.238-.051 1.893.412 3.063 1.658 4.385.471 5.957.471 5.957"/>
  <path fill="url(#M)" d="M100.231 77.04L98.03 67.029l10.811-2.378 2.201 10.011z" clip-path="url(#L)" transform="translate(55 -38)"/>
  <path fill="#1A1617" d="M145.508 37.033c.159 0 .327.015.455.05v-.018c0-.701-.69-1.273-1.553-1.273-.861 0-1.55.572-1.55 1.273 0 .634.565 1.148 1.305 1.248a.619.619 0 0 1-.105-.335c-.002-.519.653-.945 1.448-.945m10.183-3.289c1.323 4.688 8.577 2.23 6.433-2.979 2.861-1.078 4.996-1.156 7.305-1.529-5.969-.93-12.99-1.668-17.338.326-2.125.964-1.523 2.27-1.207 2.812.341-1.148 2.25-1.213 3.61-.753-1.033 8.765 10.184 7.737 9.711.611-.789 5.811-8.251 5.811-8.514 1.512"/>
  <path fill="#1A1617" d="M279.772 137.262v-4.112c0-2.067 0-4.086.028-5.058.011-3.875-.624-9.009-4.315-11.528 1.106 4.342.374 5.106.374 12.421v9.112c0 2.679.354 5.016 1.017 7.058-4.272-2.066-8.839-6.563-8.839-14.484 0-2.653-.644-13.618-3.954-18.167v18.983c0 2.508.324 4.699.9 6.636-10.019-5.074-9.023-22.353-12.273-29.057 0 5.799.125 9.87.125 15.661 0 2.868.426 5.324 1.135 7.449-8.762-5.603-9.782-16.564-10.463-24.772-.861 3.043-2.251 11.033.145 18.582-5.878-4.498-9.167-14.089-8.754-20.946-.864 3.763-1.771 9.421.059 15.085-.323 6.448-.265 57.317-.257 62.87-3.341-2.764-6.771-7.76-6.403-15.346.128-1.25.265-2.422.434-3.542 2.359-15.877 2.842-38.753-3.726-57.053 5.302 28.578-1.309 57.966-2.233 63.886-1.65 10.553 1.937 32.444 9.382 56.711-1.446-1.424-6.402-3.516-8.386-5.51 0 2.197.78 4.557.78 9.354-2.562-4.291-3.528-4.469-6.234-9.211.837 5.59.591 6.082.591 10.92-2.646-5.023-4.07-11.648-10.148-21.143-13.521-21.117-33.028-8.023-33.028-4.338 0-3.686-19.494-16.777-33.014 4.338-6.083 9.494-7.501 16.119-10.165 21.143 0-4.834-.241-5.326.608-10.92-2.712 4.744-3.696 4.92-6.242 9.211 0-4.797.787-7.156.787-9.354-1.979 1.994-6.948 4.082-8.381 5.51 7.441-24.268 11.032-46.16 9.369-56.711-.931-5.92-7.527-35.308-2.219-63.886-6.561 18.297-6.083 41.175-3.727 57.053.157 1.121.304 2.313.414 3.557.382 7.608-3.074 12.607-6.426 15.369 0-5.551.078-56.374-.252-62.907 1.848-5.664.941-11.322.065-15.085.409 6.857-2.875 16.448-8.75 20.946 2.379-7.548.998-15.535.132-18.582-.689 8.207-1.682 19.168-10.46 24.772.713-2.125 1.138-4.582 1.138-7.449 0-5.79.143-9.865.143-15.661-3.274 6.704-2.27 23.986-12.278 29.057.562-1.937.877-4.131.877-6.636V112.5c-3.299 4.547-3.934 15.514-3.934 18.166 0 7.924-4.567 12.419-8.827 14.477.634-2.031 1.022-4.371 1.022-7.05v-9.113c0-7.315-.771-8.078.348-12.42-3.684 2.517-4.326 7.652-4.298 11.528v9.168c0 8.266-4.973 12.833-9.394 14.754.756-.993 1.586-3.685 1.586-7.691v-39.883c0-11.205 13.083-24.091 17.929-29.764 13.414-15.718 19.259-2.946 32.759 1.619 22.454 7.629 34.431-.878 34.431-.878C160.977 67.872 161 60.753 161 56.299c0-3.003-1.153-6.913-3.353-9.422-4.104-4.09-11.375-5.415-12.67-5.158-2.734 1.395-5.163 1.407-5.658 1.796-1.266-2.511-.935-6.327 4.706-9.461 1.587-.877 1.006-2.892 5.834-5.707 14.111-8.242 27.908-5.251 35.969 3.732-2.855-1.034-5.588-1.979-10.39-2.437 6.733 2.346 14.72 7.92 19.884 17.186 2.112 3.693 6.878 13.845 8.562 16.917 3.598 6.563 10.1 20.295 33.034 12.545 13.503-4.558 19.329-17.338 32.752-1.62 4.844 5.671 17.927 18.559 17.927 29.764v39.883c0 4.011.818 6.7 1.574 7.69-4.408-1.914-9.399-6.479-9.399-14.745m.025 31.122V156.98c0-1.881-.073-3.521-.197-5.016.661.258 1.273.469 1.849.688 1.89 1.887 4.058 3.254 6.14 4.288v18.458c0 4.008.819 6.705 1.575 7.689-4.401-1.923-9.355-6.462-9.367-14.703m.161 38.704c0-1.34-.158-12.418-.158-14.58 0-2.373-.132-6.457-.323-9.504.705.264 1.378.518 1.974.727 1.893 1.875 4.058 3.252 6.139 4.293v23.559c0 4.016.819 6.705 1.574 7.695-3.916-1.717-9.206-6.444-9.206-12.19m0 59.787v-8.824h-.007c-.006-5.576-.154-10.408-.154-12.063v-13.146c0-1.129-.038-6.861-.082-14.238.258.104.525.193.747.283 2.111 2.438 4.693 4.096 7.128 5.318v47.16c0 4 .819 6.695 1.574 7.67-3.916-1.699-9.206-6.627-9.206-12.16m-11.925-105.13v-11.52c0-2.043-.058-3.752-.188-5.202.447.172.896.349 1.32.5 2.049 2.198 4.456 3.724 6.761 4.861.033 2.416-.072 4.958-.072 7.5v11.296c0 2.686.355 5.012 1.018 7.053-4.272-2.055-8.839-6.574-8.839-14.488m0 35.517V185.74c0-2.055-.058-6.357-.188-9.639.447.186.896.343 1.32.516 2.049 2.17 4.456 3.705 6.745 4.85.089 3.838-.049 9.146-.049 11.936v11.699-.006.26c0 2.412.299 4.535.801 6.436-3.845-1.769-8.629-6.735-8.629-14.53m0 40.33v-11.518c0-2.006-.058-9.393-.188-15.016 2.316 3.045 5.315 4.836 8.061 6.045-.035 8.52-.051 15.346-.051 16.625v10.914c0 4.018 0 6.346.732 7.318-3.261-1.439-8.554-6.095-8.554-14.368m-11.257-82.604v-10.463c0-2.139.031-3.581-.039-4.78 1.071.407 2.194.773 3.423 1.088 1.267.997 2.613 1.822 3.925 2.507v19.228c0 2.476.325 4.653.881 6.572-4.074-2.194-8.19-6.626-8.19-14.152m0 31.715v-10.438c0-3.975-.116-3.955-.116-5.911 1.113.476 2.147.864 3.077 1.201a25.04 25.04 0 0 0 4.348 2.858v23.675c0 .818.04 1.576.094 2.324-3.786-2.31-7.403-6.66-7.403-13.709m7.307 33.617v17.887c-3.757-2.352-7.308-6.668-7.308-13.646v-10.457c0-3.053-.07-9.893-.105-13.986 2.109 2.779 4.812 4.66 7.413 6.016.01 4.87 0 13.432 0 14.186m-17.156-70.534v-10.498c0-2.69-.054-4.68-.194-6.16.397.198.79.406 1.207.602a20.654 20.654 0 0 0 4.856 4.078c.037.89.037 1.745.037 2.552v15.452c0 2.876.427 5.324 1.144 7.457-3.673-2.363-7.05-6.648-7.05-13.483m0 28.085v-10.494c0-1.181-.014-2.22-.047-3.141.511.279 1.027.539 1.542.793 1.339 1.355 2.823 2.449 4.319 3.34.093 1.262.093 2.556.093 3.716v15.449c0 1.096.08 2.146.201 3.145-3.285-2.482-6.108-6.593-6.108-12.808m5.906 32.051v12.975c-3.203-2.492-5.905-6.57-5.905-12.664v-10.508c0-1.955-.032-5.605-.098-8.445 1.699 2.232 3.76 3.9 5.881 5.145.147 4.427.122 12.2.122 13.497m-15.96-62.813c0-2.392-.179-14.981-.21-23.189 1.362 2.369 3.36 4.662 6.153 6.746.32 2.313.162 5.217.162 7.243v12.711c0 2.375.308 4.457.795 6.32-3.836-2.836-6.9-6.325-6.9-9.831m-.14 7.745c1.262 2.276 3.384 4.701 6.296 6.891 0 1.51-.047 3.03-.047 4.25v10.47c-3.455-2.708-6.109-5.953-6.109-9.203 0-1.454-.074-6.688-.14-12.408m6.248 43.496v7.498c-3.455-2.709-6.109-5.971-6.109-9.209 0-2.266-.18-13.602-.203-21.769 1.234 2.285 3.353 4.739 6.246 6.946.187 4.782.066 14.735.066 16.534m-7.908-30.555c.012.232.032.451.042.655-.042-.167-.052-.395-.042-.655m-.619 78.31c.478.959 1.564 1.652 1.864 2.148.409.658.263 2.334.794 3.504.261.547.518 1.107.791 1.588a8.898 8.898 0 0 0-.9 1.234c-.81-1.824-2.826-2.023-4.326-1.076a7.314 7.314 0 0 0-2.36 2.422c.285-2.076-.104-2.719-.898-3.527-1.188-1.191-.715-3.691-1.674-5.172-.737-1.168-2.113-1.547-2.999-3.346-.875-1.775-.449-2.736-1.336-4.512-1.027-2.002-1.269-2.646-1.339-5.367 1.163 1.488 2.479 2.711 4.265 4.51.659-4.221.702-5.232.702-8.887 1.801 1.525 3.618 3.809 4.212 5.367.344.918.664 3.604.807 4.057.436 1.383 1.076 1.826 1.557 2.887.48 1.063.345 3.18.84 4.17m7.033 8.163c1.885.156.841 8.324 2.235 11.176 1.402 2.895.798 5.287-1.885 5.021-2.718-.252-2.574-8.535-2.583-9.98 0-2.049-1.032 1.076-1.597 2.236a17.59 17.59 0 0 1-.311-1.643c-.207-1.402-.051-2.287.038-3.164.738-1.941 2.184-3.783 4.103-3.646m2.403 3.332c.76-2.459 2.788-5.885 5.146-5.336 1.837.406.069 6.311 1.176 9.199 2.176 5.639-.869 7.539-3.478 6.881-2.928-.736-1.636-8.615-1.38-9.742.091-1.869-.883-.047-1.548.996-.139-.475-.223-.803.084-1.998m-33.005-8.643c.84 3.48 1.733 6.643 3.197 8.105-4.657.871-7.947 0-9.034-4.229-1.405-6.631-8.691-39.545-10.596-46.822 1.129.221 2.075.594 2.765 1.168 1.032.693 2.177 1.691 3.372 2.883 1.901 7.208 9.6 36.004 10.296 38.895m-8.384 13.395c-5.023 1.221-5.463-1.563-6.27-5.861-.03-.129-7.071-46.207-8.064-50.332 1.605-.313 3.182-.426 4.587-.346 1.032 5.07 9.049 44.33 9.548 47.195.59 3.533 3.407 8.556.199 9.344m-19.435-3.272c-.199-1.049-.469-4.225-.814-8.434-.782-14.404-1.982-37.205-2.048-41.516 1.792-1.125 3.922-1.988 6.08-2.572 1.171 8.1 6.594 46.59 7.091 49.463 1.835 10.735-8.737 11.321-10.309 3.059m-7.344 7.82c-2.092-1.252-3.703-3.447-3.703-9.518 0-5.592.848-41.188 1.023-46.939 1.43 1.238 2.412 2.691 2.68 4.324.276-1.633 1.265-3.084 2.693-4.324.157 5.732 1.023 41.348 1.023 46.939-.004 6.071-1.614 8.266-3.716 9.518m-6.513-16.277c-.331 4.223-.619 7.402-.816 8.451-1.587 8.264-12.135 7.682-10.307-3.053.498-2.875 5.924-41.367 7.095-49.463 2.159.584 4.295 1.455 6.071 2.572-.079 4.327-1.255 27.091-2.043 41.493m-13.975 5.867c-.806 4.299-1.256 7.082-6.27 5.861-3.228-.787-.393-5.811.2-9.348.53-3.068 8.396-41.387 9.557-47.195 1.386-.08 2.972.035 4.564.348-.977 4.127-8.035 50.213-8.051 50.334m-17.861.573c1.456-1.463 2.368-4.625 3.206-8.105.69-2.896 8.396-31.688 10.303-38.895 1.191-1.207 2.334-2.189 3.36-2.883.686-.58 1.647-.955 2.769-1.168-1.927 7.277-9.185 40.191-10.596 46.822-1.102 4.229-4.381 5.1-9.042 4.229m-10.679-13.182c-.863 1.799-2.243 2.178-2.987 3.346-.965 1.48-.495 3.98-1.669 5.172-.801.809-1.183 1.455-.885 3.527a7.405 7.405 0 0 0-2.379-2.422c-1.495-.951-3.508-.748-4.318 1.066-.264-.406-.558-.85-.903-1.225.27-.477.539-1.037.789-1.588.532-1.166.383-2.842.784-3.508.312-.498 1.402-1.191 1.885-2.148.478-.988.354-3.107.833-4.174.467-1.059 1.113-1.504 1.55-2.889.128-.449.455-3.135.81-4.055.6-1.559 2.406-3.836 4.221-5.365 0 3.652.048 4.664.674 8.887 1.792-1.797 3.12-3.023 4.263-4.514-.045 2.725-.296 3.365-1.308 5.369-.907 1.785-.463 2.742-1.36 4.521m-12.574 17.201a19.708 19.708 0 0 1-.322 1.643c-.558-1.16-1.592-4.283-1.592-2.234-.018 1.443.14 9.727-2.589 9.979-2.683.266-3.267-2.129-1.866-5.021 1.383-2.852.347-11.02 2.24-11.176 1.896-.137 3.333 1.709 4.081 3.652.101.87.245 1.755.048 3.157m-8.023-2.478c.268 1.131 1.562 9.004-1.376 9.742-2.613.656-5.648-1.242-3.472-6.881 1.102-2.893-.667-8.793 1.167-9.197 2.347-.543 4.404 2.875 5.144 5.35.234.705.183 1.762.095 1.986-.664-1.045-1.634-2.87-1.558-1m8.47-111.495c0 3.506-3.07 6.995-6.908 9.831.508-1.863.797-3.948.797-6.32v-12.711c0-2.023-.161-4.93.158-7.243 2.805-2.084 4.781-4.377 6.169-6.746-.026 8.208-.216 20.803-.216 23.189m-6.142 14.636c2.893-2.178 4.992-4.599 6.257-6.859-.067 5.699-.125 10.922-.125 12.378 0 3.24-2.646 6.483-6.098 9.187v-10.458c0-1.218-.06-2.738-.034-4.248m6.131 34.894c0 3.219-2.646 6.471-6.098 9.184v-7.471c0-1.807-.128-11.775.065-16.553 2.896-2.207 4.991-4.663 6.238-6.936-.043 8.162-.205 19.51-.205 21.776m-10.037-57.35v10.498c0 6.818-3.403 11.115-7.06 13.485.716-2.133 1.146-4.582 1.146-7.458v-15.451c0-.809 0-1.683.027-2.552a20.887 20.887 0 0 0 4.879-4.078c.405-.198.805-.405 1.191-.602-.136 1.478-.183 3.469-.183 6.158m0 60.436v10.508c0 6.09-2.712 10.172-5.914 12.664v-12.975c0-1.297-.016-9.07.143-13.498 2.095-1.244 4.172-2.912 5.858-5.145-.069 2.84-.087 6.491-.087 8.446m-5.809-31.35c1.498-.896 2.972-1.987 4.307-3.341a26.08 26.08 0 0 0 1.522-.792c-.02.918-.02 1.961-.02 3.14v10.494c0 6.211-2.82 10.326-6.089 12.814.112-1.004.175-2.051.175-3.146v-15.448c0-1.165 0-2.464.105-3.721m-4.044 7.891v10.438c0 7.049-3.613 11.398-7.398 13.711.055-.748.079-1.506.079-2.326V179.99c0-.578 0-3.23.011-5.575a25.392 25.392 0 0 0 4.361-2.854c.919-.343 1.955-.727 3.054-1.206-.004 1.953-.107 1.936-.107 5.911m0 37.838v10.457c0 6.979-3.547 11.295-7.32 13.646V220.32c0-.754 0-9.316.013-14.172 2.603-1.371 5.318-3.252 7.413-6.031-.036 4.094-.106 10.934-.106 13.987m-8.196-44.966c.568-1.92.876-4.097.876-6.573v-19.228a24.08 24.08 0 0 0 3.929-2.511 30.06 30.06 0 0 0 3.423-1.084c-.063 1.2-.031 2.644-.031 4.78v10.462c-.001 7.53-4.112 11.962-8.197 14.154m-3.057 16.6v11.523c0 7.797-4.793 12.76-8.641 14.508.53-1.881.837-4.002.837-6.416v-.26c-.016.008-.016.008-.022.008.006-.254.022-.51.022-.781v-10.918c0-2.789-.158-8.098-.086-11.936 2.301-1.145 4.711-2.68 6.75-4.85.421-.171.872-.326 1.319-.512a343.453 343.453 0 0 0-.179 9.634m0 40.336v11.518c0 8.273-5.295 12.93-8.575 14.369.755-.973.771-3.301.771-7.316v-10.916c0-1.279-.034-8.105-.054-16.625 2.715-1.209 5.724-3 8.037-6.045a857.38 857.38 0 0 0-.179 15.015m-7.901-75.691c2.293-1.141 4.723-2.663 6.757-4.861.418-.151.87-.327 1.319-.5a70.215 70.215 0 0 0-.175 5.202v11.52c0 7.914-4.567 12.433-8.827 14.482.635-2.038 1.024-4.366 1.024-7.053v-11.296c-.008-2.536-.145-5.078-.098-7.494m-13.249 32.703c.757-.982 1.585-3.68 1.585-7.689v-18.458c2.083-1.035 4.256-2.402 6.16-4.288.569-.219 1.173-.431 1.835-.688a70.85 70.85 0 0 0-.187 5.016v11.361c.001 8.273-4.972 12.824-9.393 14.746m9.394 9.422c0 2.162-.18 13.24-.18 14.58 0 5.752-5.283 10.479-9.214 12.186.756-.988 1.586-3.682 1.586-7.691v-23.561c2.083-1.039 4.256-2.418 6.16-4.291.592-.215 1.236-.467 1.948-.727-.194 3.047-.3 7.131-.3 9.504m0 40.334v13.146c0 1.654-.152 6.486-.18 12.063v8.824c0 5.525-5.283 10.461-9.214 12.158.756-.969 1.586-3.668 1.586-7.67v-47.158c2.45-1.219 5.011-2.883 7.126-5.32.246-.094.495-.178.771-.281-.069 7.376-.089 13.109-.089 14.238M149.02 44.825l-.016-.026c-1.029.301-6.444 1.239-7.142.555 1.188-.623 1.994-.981 4.281-2.426 1.65.133 3.255 1.157 5.842 2.697-1.443-.583-1.59-1.078-2.965-.8m142.51 144.902c1.118.408 2.107.762 2.866 1.078-3.081-4.691-2.866-12.268-2.866-14.064V158.65c1.118.423 2.107.764 2.866 1.081-3.081-4.694-2.866-12.279-2.866-14.073v-42.123c0-11.658-17.812-39.888-32.882-40.27-10.701-.258-23.235 14.77-38.609 10.882-4.929-1.277-8.854-6.568-12.114-13.105-5.72-11.694-11.219-27.334-25.159-36.387-15.424-10.003-33.186 1.176-35.222 2.949-1.743 1.606-4.523 6.408-6.007 7.167-4.826 2.516-5.606 6.743-5.606 8.342 0 1.612.358 5.504 3.281 7.708-.406-1.902-.515-2.964-.083-3.932 1.927.318 6.16 1.188 8.886.067 1.341 1.336 4.557 3.899 5.938 6.561 1.953 3.672 1.962 4.235 1.962 5.69 0 3.729-1.758 9.078-7.07 12.581-5.612 3.996-18.838 6.232-35.384.554-8.964-3.068-12.652-9.281-20.663-9.08-15.074.382-32.9 28.608-32.9 40.27v42.12c0 1.793.246 9.379-2.861 14.071.778-.315 1.755-.653 2.861-1.079v18.091c0 1.795.246 9.373-2.861 14.064.778-.318 1.755-.666 2.861-1.078v23.191c0 1.779.246 9.367-2.861 14.064.778-.313 1.755-.615 2.861-1.031v46.738c0 1.355.137 5.945-1.105 10.146-.409 1.41.53 3.102 1.998 2.508 6.028-2.395 14.813-7.123 14.813-20.205v-7.398c4.336-1.9 9.532-5.273 11.188-13.471 4.925-2.436 10.368-6.693 11.567-15.236 5.031-2.93 10.042-8.014 10.1-17.813 4.383-3.313 6.982-7.207 7.502-10.225.362-2.041.611-6.879.705-12.492 3.176-2.32 5.448-4.941 6.764-7.352-.521 12.164-2.951 28.527-8.667 51.164 1.011 0 2.364-.217 3.743-.541-.774 4.557-4.646 15.432-7.252 20.361a3.922 3.922 0 0 0-1.138.043c-.857.145-1.479.967-1.9 2.008-1.161-1.799-2.637-4.684-6.057-3.582-3.446 1.139-2.67 5.328-2.096 7.213 1.178 3.707-1.465 4.914-.988 7.975.328 2.119 1.625 3.625 3.179 4.311.397.938 1.155 1.688 2.184 2.105 1.066.402.942-.506.908-1.852.233-.066.467-.133.686-.244.299 1.012.948 1.75 1.79 2.162.377.764 1.067 1.465 2.422 2.363 1.358.635.453-.832.203-2.141a4.958 4.958 0 0 0 1.496-.67c.171.414.424.766.789 1.021.132.105.266.178.39.271.33 1.383 1.297 2.178 2.766 3.004.977.316.598-.795.502-1.836 1.363.021 2.563-.748 3.101-2.955.773-3.162-.893-2.869.931-6.559.392.059 3.16 1.182 3.64 1.291-2.629-1.031-4.14-7.383-4.592-5.52-2.254 4.059-.245 11.66-2.823 11.814-7.367.471-1.897-8.762-1.631-11.063.346-2.947.033-7.254 2.907-6.35 2.565.781 5.838 9.133 7.434 11.635.217.342 3.89 2.521 4.087 1.561-3.401-3.393-5.394-8.691-5.783-10.447-.511-2.383-.321-3.574.408-5.398.685-1.711 4.84-9.057 6.563-12.631.458 1.434.966 2.762 1.183 3.844.567-7.66 9.112-22.184 16.58-30.781-2.753 8.705-8.898 29.979-10.581 35.863-1.375 4.844-4.665 9.895-5.448 10.674 2.854 1.082 8.052 1.916 11.724.465-.534 1.906-.494 3.646 1.129 5.277 1.998 2.002 7.644 3.455 10.371-1.264 2.222 7.842 10.671 7.469 13.993 1.992 1.447 4.545 4.424 5.131 6.133 6.838 1.726-1.709 4.709-2.293 6.142-6.838 3.313 5.477 11.783 5.85 13.988-1.992 2.742 4.715 8.377 3.266 10.383 1.264 1.627-1.631 1.648-3.371 1.132-5.277 3.672 1.457 8.865.617 11.718-.465-.778-.777-4.085-5.828-5.472-10.674-1.658-5.885-7.801-27.137-10.551-35.863 7.471 8.598 16.016 23.121 16.56 30.781.235-1.086.737-2.41 1.188-3.844 1.734 3.59 5.875 10.924 6.567 12.631.735 1.828.941 3.021.412 5.398-.378 1.756-1.961 7.025-5.347 10.414.183.951 3.25-.758 3.454-1.096 1.647-2.609 5.073-11.279 7.634-12.063 2.874-.904 2.562 3.404 2.899 6.352.262 2.299 5.738 11.537-1.631 11.061-2.558-.156-.58-7.756-2.815-11.813-.443-1.865-1.913 4.762-4.555 5.795.477-.109 3.132-1.543 3.507-1.605 1.834 3.695.252 3.436 1.02 6.598.541 2.205 1.741 2.971 3.096 2.953-.103 1.041-.467 2.154.518 1.836 1.463-.826 2.421-1.621 2.753-3.002.14-.096.276-.164.401-.27.369-.258.612-.607.787-1.025.494.328.994.545 1.501.67-.263 1.309-1.158 2.771.195 2.143 1.345-.9 2.046-1.602 2.423-2.365.84-.41 1.494-1.15 1.774-2.162.226.111.457.178.695.248-.025 1.342-.156 2.25.903 1.85a4.057 4.057 0 0 0 2.201-2.098c1.551-.695 2.834-2.201 3.175-4.32.468-3.061-2.164-4.264-.974-7.975.577-1.885 1.34-6.074-2.121-7.211-3.42-1.096-4.888 1.781-6.054 3.582-.415-1.039-1.032-1.865-1.9-2.008a3.535 3.535 0 0 0-1.126-.045c-2.6-4.932-6.503-15.807-7.261-20.361 1.396.324 2.727.541 3.754.541-5.722-22.637-8.153-39-8.671-51.162 1.308 2.4 3.58 5.008 6.721 7.316.104 5.615.352 10.486.715 12.525.528 3.02 3.145 6.934 7.524 10.232.059 9.807 5.075 14.877 10.092 17.805 1.214 8.543 6.638 12.801 11.572 15.236 1.662 8.193 6.846 11.57 11.216 13.471v7.398c0 12.943 8.569 17.703 14.599 20.129 1.528.623 2.803-.559 2.429-1.688-1.507-4.379-1.358-9.453-1.358-10.887v-46.703c1.118.426 2.107.678 2.866.988-3.082-4.699-2.866-12.285-2.866-14.064v-23.186h.002z"/>
  <path fill="#FFF" d="M146.146 42.929c-2.29 1.444-3.096 1.802-4.284 2.425.698.682 6.118-.251 7.136-.555l.021.03c1.375-.282 1.522.214 2.96.791-2.581-1.534-4.18-2.559-5.833-2.691"/>
  <path fill="#D8D8D9" d="M219.623 136.371c0 24.186-19.619 43.797-43.796 43.797-24.196 0-43.814-19.611-43.814-43.797 0-24.188 19.618-43.806 43.814-43.806 24.178-.003 43.796 19.615 43.796 43.806"/>
  <path fill="#009448" d="M210.567 123.945c-32.463-8.672-70.199.031-70.199.031a37.284 37.284 0 0 1 22.504-22.665 37.392 37.392 0 0 1 12.596-2.177c16.207.001 29.989 10.353 35.099 24.811"/>
  <path fill="#1A1617" d="M210.567 148.733c-32.463 8.67-70.199-.035-70.199-.035 3.704 10.521 12.012 18.892 22.504 22.661a37.368 37.368 0 0 0 12.596 2.179c16.207.002 29.989-10.354 35.099-24.805"/>
  <path fill="#D91A32" d="M160.322 135.549c0 21.214 2.423 35.781 2.423 35.781-14.286-5.199-24.5-18.903-24.5-34.987 0-16.135 10.281-29.872 24.626-35.034.001 0-2.549 12.641-2.549 34.24"/>
  <path fill="#1A1617" d="M175.761 93.898c-23.451 0-42.535 19.087-42.535 42.549 0 23.458 19.081 42.546 42.535 42.546 23.465 0 42.556-19.086 42.556-42.546.004-23.463-19.09-42.549-42.556-42.549m0 88.209c-25.173 0-45.652-20.482-45.652-45.664 0-25.18 20.479-45.662 45.652-45.662 25.182 0 45.671 20.482 45.671 45.662.005 25.181-20.485 45.664-45.671 45.664"/>
  <path fill="#1A1617" d="M202.228 175.133c-.021 0-3.767-1.072-4.805-1.413l-1.242-4.771a.179.179 0 0 0-.092-.088c-.049 0-.084.012-.112.052 0 .002-2.126 3.112-2.778 3.957-1.076-.032-4.847-.309-4.861-.309-.035-.015-.072.015-.098.065-.011.022-.004.067.012.099l3.006 3.991c-.375 1.018-1.884 4.701-1.884 4.701 0 .041 0 .084.025.109.033.043.087.043.124.029l4.571-1.924 3.642 2.865c.018.012.049.02.058.02.03 0 .033 0 .057-.008a.098.098 0 0 0 .059-.094s.062-4.033.062-4.658c.923-.502 4.268-2.436 4.268-2.436.035-.013.066-.057.058-.098 0-.04-.036-.076-.07-.089"/>
  <path fill="#FFF" d="M198.396 175.775c.012-.023.026-.037.026-.058 0-.042-.026-.091-.069-.099l-.546-.173-1.646-.542-.25-.973-.346-1.384-.016-.007v-.004a.165.165 0 0 0-.091-.072c-.026-.007-.066.003-.092.037l-1.462 1.898-2.325-.063c-.02 0-.027.012-.045.031-.027.003-.04.012-.059.031v.061c.019.014 0 .038.019.053l1.459 1.944-.458 1.245-.339.896c0 .023.015.045.015.053 0 .027 0 .047.025.074.022.021.066.021.088.012.016 0 .016.006.016.006h.012l.823-.352 1.179-.496 1.965 1.545c.016.012.04.012.075.012h.042c.031-.012.058-.057.058-.092l-.027-2.492 1.937-1.045c.032-.014.032-.046.032-.046"/>
  <path fill="#1A1617" d="M162.668 172.624c-.015-.044-.066-.083-.094-.059 0 0-3.789.282-4.855.303-.655-.847-2.786-3.953-2.786-3.957a.112.112 0 0 0-.1-.053.114.114 0 0 0-.091.088l-1.263 4.773c-1.026.343-4.771 1.409-4.771 1.413a.106.106 0 0 0-.084.092c-.009.039.018.088.048.107 0 0 3.332 1.918 4.272 2.424 0 .629.059 4.662.059 4.662 0 .045.031.068.07.098.012.004.029.016.044.016a.097.097 0 0 0 .066-.031l3.642-2.865 4.577 1.922c.031.02.077.02.102-.018.038-.033.053-.076.032-.121 0 0-1.494-3.688-1.877-4.701l2.994-3.991c.028-.025.054-.066.015-.102"/>
  <path fill="#FFF" d="M158.592 175.627l.829-1.117c.021-.031.013-.052.013-.06 0-.023.008-.036 0-.051-.024-.034-.059-.064-.093-.057l-2.34.057-.717-.95-.723-.948h-.014c-.019-.039-.056-.05-.098-.041-.031.018-.07.041-.086.079l-.615 2.361-1.082.359-1.088.355c-.042.012-.069.059-.077.1 0 .042.012.096.054.107l1.927 1.039-.014 2.49c0 .031.021.066.049.09h.049v.014c.029 0 .047-.014.07-.025l1.22-.963.729-.578 1.469.613.546.227c.03.018.077 0 .098-.016h.018a.137.137 0 0 0 .032-.123l-.456-1.223-.346-.918.646-.821z"/>
  <path fill="#1A1617" d="M148.276 109.117l-4.466-2.307-.382-5.01c0-.042-.023-.079-.07-.099-.035-.007-.077 0-.117.045 0 0-2.539 2.809-3.251 3.661l-4.517-1.03c-.023 0-.074.007-.093.045a.097.097 0 0 0-.028.1s1.475 3.265 1.958 4.25c-.63.862-2.749 4.025-2.749 4.025-.035.031-.035.09 0 .125.017.031.057.041.094.031 0 0 3.796-.654 4.88-.788l3.141 3.734a.135.135 0 0 0 .086.036l.023-.009c.04-.012.079-.04.086-.079 0 0 .631-3.691.842-4.713 1.023-.448 4.535-1.806 4.556-1.818.03-.023.07-.049.07-.096a.137.137 0 0 0-.063-.103m34.353-19.414a.1.1 0 0 0-.101-.067s-3.841-.26-4.907-.307c-.464-.972-2.085-4.138-2.085-4.138l-.026-.045c-.027-.023-.053-.03-.093-.023-.032.007-.066.032-.07.057 0 0-1.601 3.181-2.069 4.16-1.064.035-4.896.292-4.896.292-.044.014-.089.035-.089.081-.025.036 0 .084.032.117 0 0 2.905 2.612 3.684 3.364l-.954 4.849c0 .033.016.087.051.113.019 0 .031.012.051.012.027 0 .032 0 .07-.012 0 0 3.27-1.881 4.226-2.344.957.465 4.233 2.344 4.233 2.344.033.012.089.012.104-.011.035-.025.071-.069.046-.102l-.951-4.849c.782-.752 3.707-3.364 3.707-3.382.037-.018.049-.066.037-.109"/>
  <path fill="#FFF" d="M178.917 90.976c-.015-.041-.037-.072-.103-.072l-2.188-.1-1.073-2.27c-.021-.043-.051-.071-.095-.071-.041 0-.092.029-.099.071l-1.068 2.27-2.205.1c-.05 0-.089.031-.089.072-.023.035 0 .087.007.112l1.652 1.599-.469 2.401c-.014.033 0 .076.04.099.031.029.065.029.116.012l2.105-1.08 2.105 1.08c.027.008.039.018.054.018.016 0 .035-.018.063-.029.033-.028.054-.065.042-.099l-.479-2.401 1.65-1.599c.037-.026.052-.077.034-.113"/>
  <path fill="#1A1617" d="M216.356 112.791s-2.132-3.175-2.754-4.023c.487-.981 1.955-4.245 1.955-4.245.021-.027.017-.085 0-.101a.156.156 0 0 0-.117-.048l-4.511 1.031c-.717-.849-3.269-3.672-3.269-3.672-.015-.032-.063-.04-.109-.032-.042.023-.066.057-.066.099l-.382 5.01-4.455 2.31c-.043.019-.07.055-.057.094 0 .053.019.088.08.092 0 0 3.521 1.383 4.531 1.831.224 1.025.841 4.701.841 4.701.017.048.047.081.086.093.021.003.021.003.032.003a.182.182 0 0 0 .093-.032l3.15-3.74c1.063.137 4.849.794 4.849.806.054 0 .093-.012.112-.056.029-.029.029-.084-.009-.121"/>
  <path fill="#FFF" d="M213.132 110.677l-1.317-1.765 1.112-2.239a.098.098 0 0 0 0-.115c-.033-.036-.084-.036-.114-.036l-2.48.558-1.418-1.678c-.033-.031-.078-.053-.124-.031-.032.016-.07.04-.07.088l-.167 2.303-2.201 1.129c-.039.023-.066.057-.066.104 0 .041.032.08.066.092l2.151.957.474 2.353c0 .04.028.067.07.076h.047a.122.122 0 0 0 .077-.03l1.565-1.869 2.312.278c.026.011.062-.015.095-.048.017-.051.017-.091-.012-.127m-68.579-1.783l-2.188-1.134-.164-2.301c-.012-.044-.035-.085-.081-.087a.083.083 0 0 0-.11.032l-1.429 1.679-2.482-.559c-.032 0-.071 0-.106.031-.032.041-.032.084-.004.121l1.107 2.241-1.326 1.753c-.014.042-.023.084 0 .132.035.03.072.052.122.052l2.286-.28 1.573 1.869c.02.019.054.031.082.031h.031c.028-.013.068-.033.08-.076l.466-2.357 2.148-.951a.098.098 0 0 0 .061-.092.122.122 0 0 0-.066-.104"/>
  <path fill="#1A1617" d="M139.333 149.276s-2.467-2.783-3.185-3.604c.282-1.065 1.33-4.638 1.33-4.646.004-.049 0-.088-.033-.111-.032-.025-.082-.025-.112-.017l-4.501 1.997c-.904-.577-4.032-2.818-4.032-2.818-.033-.036-.082-.036-.128-.006-.023.022-.05.062-.042.099 0 0 .529 3.755.735 4.824l-3.657 2.895a.158.158 0 0 0-.047.11c.016.05.047.088.091.095 0 0 3.5.871 4.564 1.093.273 1.054 1.414 4.657 1.414 4.662.003.045.05.071.105.079.03 0 .082-.023.093-.067 0 0 1.861-3.372 2.427-4.266l4.909-.143c.032 0 .077-.02.092-.067a.115.115 0 0 0-.023-.109"/>
  <path fill="#FFF" d="M136.027 147.849l-1.545-1.818.616-2.295c.007-.038 0-.084-.031-.101-.032-.033-.074-.044-.114-.017l-2.235.989-1.939-1.264a.142.142 0 0 0-.124 0c-.032.032-.055.068-.043.112l.429 2.145-1.983 1.567c-.031.031-.049.079-.031.106.012.049.031.076.086.083l2.457.546.53 2.128a.146.146 0 0 0 .09.082h.019a.1.1 0 0 0 .091-.053l1.216-1.967 2.458-.067c.032-.006.066-.029.07-.067.024-.037.017-.073-.017-.109"/>
  <path fill="#1A1617" d="M225.212 147.906L221.551 145c.217-1.073.739-4.825.739-4.825.012-.033-.011-.076-.05-.098-.039-.031-.086-.031-.134.006 0 0-3.118 2.241-4.021 2.816l-4.502-1.997c-.034-.015-.071-.007-.101.018-.038.028-.057.071-.038.111 0 .006 1.04 3.581 1.319 4.638-.715.837-3.169 3.611-3.169 3.611-.034.03-.034.08-.024.109.024.035.038.067.096.067l4.907.143c.56.897 2.422 4.268 2.422 4.268.017.042.063.065.105.065h.017a.116.116 0 0 0 .077-.079s1.134-3.608 1.417-4.657c1.063-.227 4.564-1.096 4.564-1.096a.095.095 0 0 0 .07-.095c.01-.03 0-.084-.033-.099"/>
  <path fill="#FFF" d="M221.861 147.17l-1.981-1.567.431-2.146c0-.057-.016-.094-.038-.111-.044-.034-.102-.034-.137 0l-1.939 1.261-2.231-.986c-.049-.03-.082-.019-.112.012-.025.023-.032.068-.025.104l.612 2.301-1.554 1.815c-.032.03-.034.067-.023.102.023.045.053.064.101.076l2.446.061 1.207 1.97c.03.032.067.051.092.051h.026a.137.137 0 0 0 .089-.08l.534-2.128 2.457-.546a.128.128 0 0 0 .094-.081c-.011-.028-.025-.074-.049-.108m16.316 153.324c.6 1.824-.656 3.873-2.851 4.543-1.893.568-3.792-.1-4.606-1.486.611.773 1.758 1.133 2.9.785 1.453-.42 2.333-1.807 1.953-3.02-.565-1.848-1.15-3.695-1.71-5.541-.211-.654-.861-.965-1.601-.736a132.989 132.989 0 0 0 2.683-4.484c1.076 3.306 2.157 6.617 3.232 9.939m-75.831 12.744c.735.053 1.386-.404 1.416-1.059.03-.623-.537-1.193-1.268-1.25-.753-.051-1.401.43-1.458 1.055-.053.647.535 1.204 1.31 1.254m-35.919-25.031c-.681-.193-1.386.156-1.559.752-.175.635.242 1.277.931 1.467.654.191 1.339-.15 1.52-.779.163-.598-.244-1.26-.892-1.44m88.546 4.291c-.69.154-1.146.779-1.005 1.414.121.615.79 1.018 1.501.877.664-.156 1.117-.795.988-1.4-.14-.637-.81-1.026-1.484-.891m-47.183 21.039c.773.043 1.389-.432 1.403-1.084.023-.633-.539-1.178-1.302-1.215-.748-.029-1.363.463-1.393 1.096-.032.65.534 1.18 1.292 1.203m-8.725-.555c.74.057 1.391-.383 1.457-1.041.046-.627-.526-1.191-1.253-1.248-.76-.072-1.414.4-1.468 1.023-.07.641.494 1.202 1.264 1.266m-29.75-23.99c-.666-.174-1.357.182-1.522.787-.172.633.252 1.262.935 1.441.667.18 1.335-.172 1.507-.795.156-.597-.261-1.251-.92-1.433m88.621 2.867c-.693.156-1.118.779-.973 1.414.137.611.779 1.018 1.483.842.67-.154 1.118-.787.979-1.402-.163-.627-.834-1.016-1.489-.854m47.686-3.902c-.357-.693-.696-1.393-1.05-2.084-2.792-5.518-5.553-11.037-8.326-16.557 1.577.418 3.178.809 4.804 1.189-.788.658-.703 1.4-.375 2.029 2.453 4.719 4.923 9.445 7.375 14.166-.819.433-1.625.845-2.428 1.257m-65.482 19.732c-.814-6.926-1.65-13.801-2.492-20.709 1.327.92 2.671 1.842 4.015 2.75-.919.361-1.08 1.088-.978 1.773.705 5.287 1.41 10.568 2.121 15.85-.885.122-1.773.231-2.666.336m-54.902-1.08a35330.97 35330.97 0 0 1 3.288-20.605c1.02 1.26 2.051 2.506 3.122 3.752-.999.096-1.37.75-1.466 1.441-.771 5.273-1.535 10.547-2.313 15.826-.876-.14-1.77-.265-2.631-.414"/>
  <path fill="#FFF" d="M230.172 301.705c-.207-.748-.413-1.496-.639-2.246-1.662-5.932-3.339-11.891-5.012-17.834 1.462.715 2.937 1.41 4.431 2.096-.887.496-.934 1.236-.735 1.916 1.503 5.107 3.02 10.225 4.533 15.334-.858.242-1.716.498-2.578.734m-2.653.699c-.981-3.717-1.979-7.449-2.97-11.178a206.666 206.666 0 0 1-2.921 4.076c1.059-.02 1.477.592 1.633 1.238.364 1.436.724 2.873 1.085 4.307a199.222 199.222 0 0 1-11.62 2.555c-.532.094-1.055.199-1.575.287-.814-.482-1.601-.973-2.396-1.461 1.831-1.854 2.959-5.137 2.258-7.906-.428 3.854-2.172 6.559-6.46 8.113a158.694 158.694 0 0 0 5.961 3.734c.889-.158 1.768-.313 2.641-.475a198.312 198.312 0 0 0 14.364-3.29m12.882-3.869c-.249-.74-.516-1.48-.747-2.209-1.999-5.842-3.987-11.699-5.982-17.547 1.491.629 3.019 1.258 4.545 1.842-.845.557-.868 1.313-.638 1.961 1.526 4.301 3.043 8.59 4.577 12.871.86-.311 1.71-.619 2.558-.932a89.175 89.175 0 0 0-.655-1.736 197.89 197.89 0 0 0 2.458-4.666c.398 1.01.806 2.018 1.188 3.027-.266.514-.533 1.023-.807 1.553.117.291.235.584.343.861.403-.154.821-.32 1.241-.479.276.719.569 1.439.845 2.152-2.131.854-4.245 1.65-6.379 2.406-.21.078-.413.143-.623.217-.638.234-1.293.46-1.924.679m6.118-10.414c1.645.592 3.297 1.176 4.977 1.73.544 1.293 1.078 2.576 1.62 3.861a176.87 176.87 0 0 1-3.785 1.525c-.28-.715-.574-1.434-.846-2.152.417-.162.838-.344 1.27-.52a17.412 17.412 0 0 1-.354-.852c-.565-.172-1.121-.379-1.69-.564-.387-1.01-.798-2.018-1.192-3.028m-68.913 22.127c.031 1.932-1.756 3.508-4.022 3.469-1.961-.029-3.567-1.242-3.926-2.807.348.91 1.336 1.607 2.535 1.629 1.5.037 2.718-1.018 2.729-2.291.009-1.932.021-3.863.032-5.787.015-.705-.497-1.184-1.271-1.191a190.337 190.337 0 0 0 3.863-3.463c.024 2.314.032 4.639.047 6.959 2.274-.008 4.556-.064 6.842-.154a212.198 212.198 0 0 1-4.357-7.279c1.003-.031 2.033-.053 3.041-.084.335-.826 1.518-1.787 2.442-1.955.035.924.082 1.846.124 2.768-.42.398-.649.756-.669 1.443-.266 0-.522.014-.79.031.556.904 1.098 1.803 1.662 2.697.083 1.555.135 3.092.241 4.637a193.59 193.59 0 0 1-8.528.227l.005 1.151zm7.96-12.953c.941.07 2.187.92 2.635 1.703 1.005-.064 2.023-.137 3.038-.219a223.827 223.827 0 0 1-3.629 7.676c2.321-.125 4.665-.301 6.994-.523-.425-4.531-.829-9.064-1.266-13.598-.051-.697-.359-1.361-1.348-1.514a182.989 182.989 0 0 0 3.287-3.588 7806.01 7806.01 0 0 1 2.212 20.762c-.767.078-1.523.152-2.305.225-.113.012-.23.027-.358.027-2.901.277-5.79.477-8.691.619-.105-1.543-.157-3.082-.241-4.637.49-.939.966-1.898 1.421-2.855-.254.023-.518.031-.777.047-.089-.67-.383-1.012-.847-1.363-.045-.916-.09-1.838-.125-2.762m-69.119.035c.094-.291.187-.596.288-.883.607-1.932-.668-4.115-2.854-4.854-.154-.053-.311-.119-.476-.178a188.23 188.23 0 0 1-14.356-5.678c.322-.717.64-1.416.945-2.125.277-.619.944-.83 1.644-.518a151.164 151.164 0 0 1-2.095-4.752c-1.292 2.803-2.582 5.607-3.874 8.408a190.264 190.264 0 0 0 17.462 7.039c.833.283 1.304 1.109 1.068 1.822-.1.285-.208.584-.289.877-.276.801-.554 1.619-.829 2.422-.539.219-1.08.436-1.614.654-.318-.529-.612-1.053-.911-1.584.277-.791.56-1.582.835-2.373-.629-.217-1.246-.443-1.878-.66-.217-.084-.433-.152-.658-.25a198.479 198.479 0 0 1-14.142-5.846c-.324.713-.653 1.412-.978 2.127a204.099 204.099 0 0 0 14.313 5.914c-.12.352-.258.715-.401 1.08a211.15 211.15 0 0 0 2.762 4.688c1.671-.643 3.33-1.291 4.965-1.977.116-.379.237-.752.371-1.148 1.856.611 3.725 1.176 5.594 1.723.366.547.817.99 1.402 1.402a7.07 7.07 0 0 1-.642-1.182c1.558.447 3.114.873 4.688 1.279 2.188.568 4.377 1.1 6.577 1.586.171-.76.346-1.523.518-2.275a36.302 36.302 0 0 1-1.285-.295c.054-.291.14-.59.202-.895.512-.273 1.025-.557 1.534-.834.233-1.061.468-2.115.715-3.182-1.52.848-3.066 1.672-4.616 2.502-.14.596-.294 1.193-.428 1.801-.888-.223-1.761-.438-2.622-.67.655-2.531 1.317-5.086 1.974-7.633a246.772 246.772 0 0 1-4.587 2.146c.944.482.999 1.225.815 1.904-.265.98-.529 1.959-.805 2.922a31.866 31.866 0 0 1-1.131-.32s0-.01.004-.018c-.721-.203-1.439-.404-2.158-.615-.022-.918.121-1.846.315-2.768.581-2.83 1.359-6.078-2.219-9.914-1.027.48-2.086.963-3.134 1.436 2.521.766 3.525 3.111 3.937 4.965.369 2.268-.873 3.965-.225 5.885-1.231-.365-2.47-.744-3.717-1.137-.016.004-.004-.018-.004-.018m16.913 7.014c2.19.486 4.391.943 6.594 1.344.095.027.2.051.285.063.777.139 1.568.279 2.334.422.013 0 .027.006.035.006 1.191-6.857 2.356-13.703 3.535-20.568a135.095 135.095 0 0 1-4.158 2.533c.943.414 1.048 1.154.907 1.838-.837 4.471-1.677 8.939-2.512 13.426-.873-.174-1.745-.346-2.618-.521.125-.596.247-1.199.378-1.813a142.83 142.83 0 0 1-3.106-4.215 573.408 573.408 0 0 0-.713 3.18c.348.469.713.934 1.052 1.408-.073.303-.125.607-.192.902a67.049 67.049 0 0 1-1.313-.289c-.159.764-.335 1.528-.508 2.284"/>
  <path fill="#FFF" d="M156.14 303.289c-.654.047-1.166.5-1.233 1.078-.043.402-.098.811-.155 1.217.437.047.894.104 1.338.146-.083.756-.161 1.525-.242 2.291-.28-.029-.577-.061-.861-.096a165.843 165.843 0 0 1-3.158-.379c.149-1.166.28-2.336.435-3.504.221-1.682 1.766-2.924 3.563-3.063.035-.072.375-.133.795-.33-.091.873-.179 1.729-.275 2.598-.071.03-.115.023-.207.042m-.057 2.441c.442.039.892.094 1.332.125.093-.975.191-1.963.3-2.938a5.3 5.3 0 0 1-1.374.34c.095-.869.182-1.727.276-2.598.619-.229 1.386-.725 1.486-1.76.215-2.219.429-4.436.651-6.66.067-.684-.101-1.416-1.034-1.73a297.59 297.59 0 0 0 3.909-2.898c-.523 6.188-1.055 12.328-1.562 18.49 1.405.125 2.831.229 4.242.324.066-1.012.136-2.029.187-3.043.049-.684-.187-1.4-1.212-1.697a169.25 169.25 0 0 0 4.03-3.025c-.132 2.633-.252 5.26-.391 7.908.882.039 1.774.082 2.646.109.046-1.014.079-2.018.121-3.029.016-.703-.205-1.406-1.23-1.684a170.496 170.496 0 0 0 3.949-3.131 1717.64 1717.64 0 0 0-.222 10.225 200.182 200.182 0 0 1-11.849-.613c-1.5-.125-2.996-.273-4.495-.416.081-.767.163-1.543.24-2.299m-66.672-22.093c-.652-.188-1.317.033-1.583.553-.183.34-.353.684-.537 1.043.405.217.807.428 1.218.65-.351.688-.708 1.381-1.051 2.084-1.227-.621-2.438-1.258-3.666-1.893.52-1.064 1.099-2.088 1.65-3.131.8-1.504 2.695-2.119 4.468-1.574.033-.066.412 0 .873-.02-.394.787-.778 1.557-1.176 2.34-.06-.007-.107-.027-.196-.052m-.897 2.246c.404.205.813.408 1.221.615.447-.885.874-1.758 1.314-2.633-.46 0-.954-.051-1.44-.172.399-.783.782-1.553 1.175-2.34.673-.016 1.589-.184 2.043-1.105.986-1.994 1.979-3.998 2.957-5.992.32-.637.404-1.359-.382-2.014 1.606-.406 3.198-.846 4.767-1.293a19656.56 19656.56 0 0 0-8.988 18.832 194.612 194.612 0 0 1-3.726-1.818c.352-.699.707-1.393 1.059-2.08m68.224 2.404a1.164 1.164 0 0 0-1.059-1.279c-.631-.076-1.239.371-1.316.996-.09.646.388 1.211 1.055 1.293.665.078 1.246-.365 1.32-1.01m-.308 2.762c.054-.623-.389-1.197-1.075-1.287-.651-.066-1.27.377-1.344 1.008-.082.635.417 1.23 1.071 1.301.684.083 1.266-.382 1.348-1.022m-64.714-19.945c-.308.564-.043 1.297.565 1.621.633.326 1.361.098 1.657-.477.27-.551.047-1.268-.583-1.588-.594-.31-1.348-.109-1.639.444m1.305-2.459c-.309.578-.036 1.283.557 1.6.614.328 1.339.113 1.624-.469.292-.557.049-1.273-.562-1.586-.588-.294-1.332-.102-1.619.455m166.441 22.304c-1.234.572-2.48 1.121-3.726 1.666-.569-1.262-1.129-2.547-1.689-3.828a65.13 65.13 0 0 0 1.192-2.566 73.8 73.8 0 0 1-2.665-.842c-.059-.141-.136-.289-.187-.436-.95-2.189-1.924-4.391-2.877-6.582-.27-.613-1.025-1.059-2.034-.898a153.923 153.923 0 0 0 2.15-5.002c1.647 3.66 3.302 7.316 4.957 10.982.56.195 1.114.355 1.674.529.451.98.915 1.975 1.363 2.965-.245.541-.493 1.07-.725 1.607.121.268.254.553.383.832.404-.186.813-.373 1.21-.553.317.716.659 1.425.974 2.126m-2.492-8.603c-1.701-3.641-3.407-7.258-5.12-10.898 1.711.561 3.438 1.105 5.187 1.604-.791.688-.946 1.52-.669 2.143 1.133 2.297 2.242 4.592 3.369 6.893-.359.873-.718 1.729-1.096 2.582.893.266 1.796.514 2.72.75.593 1.268 1.213 2.518 1.825 3.766-1.23.613-2.46 1.193-3.72 1.77-.315-.701-.655-1.406-.973-2.119.42-.193.83-.396 1.262-.59a39.247 39.247 0 0 1-.406-.826c-.579-.164-1.144-.305-1.711-.473-.453-.988-.917-1.982-1.364-2.963.226-.553.462-1.083.696-1.639m5.101 11.226c.528.174 1.07.346 1.621.514-1.668.785-3.33 1.563-5.01 2.307.223-.465.454-.916.671-1.377.187.201.442.18.779-.027-.966-.852.179-2.219 1.43-1.813-.117-.031-.277.014-.409.072-.353.172-.522.514-.383.82.136.289.502.396.873.229.321-.147.51-.459.428-.725"/>
</svg>
