<svg xmlns="http://www.w3.org/2000/svg" viewBox="0 0 500 500">
  <path fill="#fff" d="M0 0h500v500H0z"/>
  <path d="M90.27 261.91l20.35-17.32a17 17 0 0 0 5.71-15.9l-9.25-52.1-20.16 17.16a17 17 0 0 0-5.72 15.84zM152.17 303.89l20.15-17.16a17 17 0 0 0 5.73-15.84l-16.24-93.57-20.15 17.17a17 17 0 0 0-5.73 15.83zM207 304.91l20.15-17.16a17 17 0 0 0 5.73-15.84l-16.29-93.85-20.19 17.16a17 17 0 0 0-5.73 15.84z" fill="#e4262e"/>
  <path d="M397.23 142.84l20.16-17.16a17 17 0 0 0 5.72-15.84L406.83 16l-20.16 17.15A17 17 0 0 0 381 49z" fill="#01"/>
  <path d="M320 327l20.15-17.16A17 17 0 0 0 345.9 294l-30.55-176.3-20.15 17.17a17 17 0 0 0-5.73 15.84z" fill="#238e4c"/>
  <path d="M360.44 245.25l20.16-17.16a17 17 0 0 0 5.72-15.84l-27-155.72-20.17 17.16a17 17 0 0 0-5.73 15.83z" fill="#01"/>
  <path d="M265.3 326.42l20.17-17.24a17 17 0 0 0 5.7-15.81l-19.86-114.45-20.15 17.17a17 17 0 0 0-5.72 15.83z" fill="#238e4c"/>
  <path d="M136.45 459.4h-17.68v-15.26h-6.47v37.73h6.47v-16.33h17.68v16.33h6.47v-37.73h-6.47v15.26zM263.12 444.14h6.47v37.73h-6.47zM403.67 454.17c0-3.24 3.88-4.69 6.74-4.69A18.81 18.81 0 0 1 422 453.9v-7.22a22.08 22.08 0 0 0-11.65-3.24c-6.9 0-13.15 4-13.15 11.21-.22 13.64 19.78 8.25 19.68 16.55 0 3.72-4 5.23-7.23 5.23a19.66 19.66 0 0 1-12.13-4.8v7.55a23.34 23.34 0 0 0 12.24 3.34c7 0 13.69-4.1 13.69-11.7-.05-13.42-19.78-8.62-19.78-16.65zM82 448.33a5 5 0 0 0 3.82 1.8h5.8v31.74h6.52v-31.74h9.8v-6H78.53zM317.49 444.14l1.86 2.25a3.11 3.11 0 0 1 .5 3.14L307 481.87h6.63l3.77-9.54h14.53l3.82 9.54h6.8l-15-37.73zm2 22.53l5.16-14 5.22 14zM156.82 465.32h15.09v-5.71h-15.09V450h16.27v-5.88h-26.38l2.47 3a5.06 5.06 0 0 1 1.17 3.24v31.5h22.85V476h-16.38zM196.88 465.32H212v-5.71h-15.12V450h16.27v-5.88h-26.38l2.47 3a5.06 5.06 0 0 1 1.17 3.24v31.5h22.85V476h-16.38zM338.29 448.33a5 5 0 0 0 3.82 1.8h6.23v31.74h6.52v-31.74h10v-6h-30zM304.85 455.62c0-7.33-5.33-11.48-12.93-11.48h-17.07l2.33 2.82a5 5 0 0 1 1.17 3.23v31.68h6.42V467.1h5.88l8.24 14.77h7.35l-8.93-15.6a10.56 10.56 0 0 0 7.54-10.65zm-12.93 5.77h-7.15V450h7.15c3.83 0 6.47 2.05 6.47 5.72s-2.64 5.67-6.47 5.67zM376.66 465.32h15.09v-5.71h-15.09V450h16.27v-5.88h-26.38l2.47 3a5.06 5.06 0 0 1 1.17 3.24v31.5H393V476h-16.34zM237.81 462.89l-12.23-18.75h-6.09v37.73h6.31v-26.65l11.85 18.05 11.91-18.2v26.8h6.3v-37.73h-5.97l-12.08 18.75zM156.87 374.41v36.17h6.41v-44.22l-4.61 4.08a5.29 5.29 0 0 0-1.8 3.97zM149.18 388.06h-6.41v12.1a4.08 4.08 0 0 1-4.08 4.08H93.42a4.08 4.08 0 0 1-4.07-4.08v-12.1h-6.41v12.1a10.49 10.49 0 0 0 10.48 10.48h45.27a10.5 10.5 0 0 0 10.49-10.48zM373 418.3h3.13v-3.47H373a5.14 5.14 0 0 0-5.14 5.13 4.84 4.84 0 0 0 .29 1.67h-6.77v3.48h14.75v-3.48H373a1.67 1.67 0 0 1 0-3.33zM415 374.41v36.33h6.4v-44.38l-4.61 4.08a5.28 5.28 0 0 0-1.79 3.97zM407.88 400.09v-33.72l-4.61 4.07a5.28 5.28 0 0 0-1.79 4v25.68a4.08 4.08 0 0 1-4.08 4.08h-21.27v-27.79l-4.62 4.07a5.28 5.28 0 0 0-1.79 4v19.72h-18.15l3.71 4.49a5.32 5.32 0 0 0 4.08 1.92h38a10.48 10.48 0 0 0 10.52-10.52z" fill="#01"/>
  <path d="M177.09 393.63v19.74a4.08 4.08 0 0 1-4.07 4.08h-16.15l3.72 4.49a5.3 5.3 0 0 0 4.08 1.92H173a10.49 10.49 0 0 0 10.48-10.49v-27.79l-4.61 4.08a5.29 5.29 0 0 0-1.78 3.97zM105 383.53a2.19 2.19 0 0 0 0 3.12l3.65 3.65 3.64-3.65a2.19 2.19 0 0 0 0-3.12l-3.64-3.65zM123.48 390.3l3.65-3.65a2.21 2.21 0 0 0 0-3.12l-3.65-3.65-3.65 3.65a2.21 2.21 0 0 0 0 3.12zM192.3 369.55a5.28 5.28 0 0 0-1.79 4v26.55A10.48 10.48 0 0 0 201 410.58h115.46a12.1 12.1 0 0 0 8.91-3.94 12.08 12.08 0 1 0-3.2-8.17 5.72 5.72 0 0 1-5.71 5.72H201a4.08 4.08 0 0 1-4.08-4.07v-34.64zm142 23.21a5.72 5.72 0 1 1-5.71 5.71 5.71 5.71 0 0 1 5.69-5.71z" fill="#01"/>
</svg>
