<svg xmlns="http://www.w3.org/2000/svg" viewBox="0 0 1024 1024">
  <circle cx="512" cy="512" r="512"/>
  <path fill="#fff" d="M254.875 606c33.625 0 59.75-26 59.75-64.625v-150h36.5v243H315V611.75c-16.375 17-38.875 26.75-64.25 26.75-52.125 0-92-37.875-92-95.125v-152h36.5v150c0 39.25 25.625 64.625 59.625 64.625M378.25 391.375h35.125v88.5c16.5-16.875 39.25-26.5 62.875-26.375 52.125 0 93 41.375 93 92.75 0 51-41 92.375-93 92.375-23.75.125-46.5-9.5-63.25-26.375v22.25h-34.75V391.375zm95.375 216.375c33.375 0 60.75-27.375 60.75-61.5 0-34.375-27.375-61.5-60.75-61.5-33.625 0-61.125 27.125-61.125 61.5.125 34 27.125 61.5 61.125 61.5M674 453.875c51 0 88.5 39.25 88.5 92v11.5h-144c4.875 28.875 28.875 50.375 58.625 50.375 20.5 0 37.875-8.375 51-26L753.5 600.5c-17.75 23.625-44.125 37.875-76.375 37.875C624 638.375 583 598.75 583 546c0-50.125 39.25-92.125 91-92.125m-54.875 75.75h108C721.25 502.5 699.375 484.5 673.25 484.5s-47.875 18-54.125 45.125m237.5-41c-22.875 0-39.625 17.75-39.625 45.125V634.5h-35.125V457.375h34.75v21.875C825.25 465 839.5 456 859 456h12.125v32.625h-14.5z"/>
</svg>
