<svg xmlns="http://www.w3.org/2000/svg" viewBox="0 0 1024 1024">
   <circle cx="512" cy="512" r="512" fill="#00"/>
   <path fill="#fff" d="M 823.25 514.75 C 816.375 186.875 380.375 64.625 212.5 371.875 c 7.5 5.5 17.625 12.75 25.125 17.875 c -12.375 26 -21.125 53.5 -26 81.75 c -3.25 18.25 -4.875 36.75 -4.875 55.25 c 0 170 138.125 308.125 308.5 308.125 s 308.125 -137.875 308.125 -308.125 v -12 h -0.125 z m -540.5 54.875 c -4 33.25 -1.5 43.625 -1.5 47.75 l -7.5 2.625 c -2.875 -5.5 -9.875 -24.875 -13 -50.875 c -8.125 -99.125 59.5 -188.5 162.75 -205.25 c 94.5 -13.875 185 44.75 206.125 126.875 l -7.5 2.625 c -2.375 -2.375 -6.125 -9 -20.5 -23.375 c -114.25 -114.25 -293.5 -62 -318.875 99.625 z m 293.375 55.5 c -15.75 22.625 -41.5 36.125 -69.125 36.125 c -46.375 0 -84.125 -37.5 -84.125 -83.875 v -0.25 c 0.125 -44 34.125 -80.625 78 -83.875 c 27.125 -1.125 52.625 13.625 64.5 37.25 c 13 26.125 8.25 57.625 -12.125 78.625 c 7.875 5.625 15.375 10.75 22.875 16 z m 175.5 3.125 c -44.5 100.875 -136.125 153.75 -233.875 152.375 c -187.625 -9.25 -242.25 -225.75 -116.75 -303.75 l 5.5 5.5 c -2 2.875 -9.5 8.625 -21.125 31.5 c -13.625 27.75 -17.875 55.5 -16.125 72.875 c 9.875 151.25 221.75 182.125 294.5 32.375 c 92.75 -205 -153.5 -413.375 -372 -254.125 l -4.875 -4.875 c 57.5 -90.125 170 -130.375 277.25 -103.5 c 163.75 41.25 252 212.125 187.5 371.625 z" />
</svg>
