<svg xmlns="http://www.w3.org/2000/svg" viewBox="0 0 1024 1024">
  <circle cx="512" cy="512" r="512" fill="#666"/>
  <path fill="#fff" d="M122.188 450.138a17.337 17.337 0 0 0-6.726 1.637A16.975 16.975 0 0 0 106.925 475l38.863 84.538c6.112 12.987 12.987 20.225 24.625 20.225s18.512-7.5 24.587-20.225l34.263-74.663a5 5 0 0 1 4.925-3.15 5.475 5.475 0 0 1 5.375 5.475v72.338a18.275 18.275 0 1 0 36.4 0V500.45A18.137 18.137 0 0 1 295.3 481.6a17.763 17.763 0 0 1 18.45 18.812V559.5a18.137 18.137 0 0 0 18.1 20.263 18.4 18.4 0 0 0 18.275-20.225V500.45a18.137 18.137 0 0 1 19.262-18.85 17.75 17.75 0 0 1 18.55 18.825V559.5a18.262 18.262 0 1 0 36.313 0v-67.213a42.138 42.138 0 0 0-43.825-42 56.25 56.25 0 0 0-38.938 16.588 43.05 43.05 0 0 0-37.4-16.5 61.813 61.813 0 0 0-36.687 16.5 43.975 43.975 0 0 0-32.825-16.5A40.213 40.213 0 0 0 195 477.225l-24.9 58.612-31.863-75.237.375-.138a17.225 17.225 0 0 0-16.462-10.312zm629.512 2.05a9.213 9.213 0 0 0-9.087 9.35h.075v107.337a9.225 9.225 0 1 0 18.275 0v-41.75c0-35.425 19.5-53.287 43.375-56.125a9.075 9.075 0 0 0 8.125-9.35 8.813 8.813 0 0 0-9.088-9.15 50 50 0 0 0-42.425 30v-20.962a9.087 9.087 0 0 0-9.262-9.35zm-230 .262a9.325 9.325 0 0 0-8.537 7.413l-31.15 89.725-30.813-89.5a9.575 9.575 0 0 0-9.362-7.5 9.087 9.087 0 0 0-9.225 8.75 16.4 16.4 0 0 0 1.162 4.912L471 570l.688-.25a10.888 10.888 0 0 0 10.175 8.275 10.263 10.263 0 0 0 10-8.275l30.85-88.225 30.6 88.225a10.263 10.263 0 0 0 10 8.275h.612a10.913 10.913 0 0 0 10-8.275l37.5-103.75a17.35 17.35 0 0 0 1.125-4.912 8.75 8.75 0 0 0-9.05-8.538 8.938 8.938 0 0 0-8.75 7.138l-31.362 89.825-30.875-89.688a9.738 9.738 0 0 0-9.5-7.412h-1.25zm347.3.275a59.763 59.763 0 0 0-57.75 63.225 60.287 60.287 0 0 0 60 63.463l-.263.437a60.912 60.912 0 0 0 45.425-18.413 7.688 7.688 0 1 0-10.15-11.537 49.025 49.025 0 0 1-34.775 14.175 42.25 42.25 0 0 1-42.35-41.25h87.275a8.438 8.438 0 0 0 8.4-8.438c0-32.275-20.25-61.687-55.925-61.687zm-196.25.063c-1.8 0-3.6 0-5.387.2A81.438 81.438 0 0 0 630.55 460a7.5 7.5 0 0 0-4.888 7.588 8.188 8.188 0 0 0 8.025 7.812 8.925 8.925 0 0 0 3.25-.813 62.2 62.2 0 0 1 28.488-5.537c23.6 0 36.55 11.412 36.55 33.437v4.275a129.6 129.6 0 0 0-37.675-5.125c-30.475 0-51.925 13.663-51.925 39.625l-.113-.137c0 25.15 22.925 38.15 45.775 38.15a53.75 53.75 0 0 0 44.338-21.175v11.725a8.438 8.438 0 0 0 8.675 8.537 8.675 8.675 0 0 0 8.75-8.95v-67.725a48.375 48.375 0 0 0-12.95-35.725 53.65 53.65 0 0 0-34.163-13.15zM868.1 467.5c24.387 0 37.062 19.3 38.9 41.463h-77.8a41.737 41.737 0 0 1 38.9-41.463zm-201.013 47.188a128.2 128.2 0 0 1 36.1 5.225v11.85c0 19.475-18.4 33.237-40.987 33.237-16.563 0-30.875-8.912-30.875-24.35 0-15.95 12.8-25.95 35.762-25.95zm0 0"/>
</svg>
