<svg xmlns="http://www.w3.org/2000/svg" viewBox="0 0 60 60">
  <circle cx="30" cy="30" r="30" fill="#fff"/>
  <g fill="#457bbb">
    <path d="M29.472 5.6h-1.208c-7.064 0-12 4.76-12 11.08v12.48h4.104s-.008-6.872-.008-12.496c0-5.872 4.456-10.064 8.928-10.968.184-.032.392-.096.184-.096"/>
    <path d="M33.4 5.992a10.386 10.386 0 0 0-2.048-.24c-.888 0-1.528.16-2.272.408-.536.176-1.056.4-1.808.864-3.328 2.072-4.744 5.968-4.744 9.632v12.52h4.104V16.808c0-.784.344-1.488.896-1.992l1.648 1.984 1.64-1.976a2.72 2.72 0 0 1 .888 1.984V29.16H35.8V16.992c0-7.296-6.92-7.368-9.048-6.448 2.96-3.48 11.2-1.344 11.2 6.472v12.152h4.088l.008-12.304c.008-5.328-3.2-9.6-8.648-10.872"/>
  </g>
  <path d="M14.888 48.136h.496v1.776h-.496v-1.776zm1.488 1.776h.488v-.968l.768.968h.432v-1.776h-.488v.936l-.736-.936h-.464v1.776zm2.688 0h1.44v-.416h-.952v-.28h.848v-.392h-.848v-.272h.944v-.416h-1.432v1.776zm2.368 0h.48v-1.016l.456.696h.008l.456-.704v1.024h.488v-1.776h-.52l-.424.688-.424-.688h-.52v1.776zm3.368-.696l.2-.504.2.504h-.4zm-.784.696h.52l.128-.32h.68l.128.32H26l-.752-1.792h-.48l-.752 1.792zm2.56-.256c.216.2.52.296.832.296.432 0 .72-.216.72-.576v-.008c0-.336-.256-.464-.664-.552-.248-.056-.304-.088-.304-.168v-.008c0-.064.056-.112.176-.112.16 0 .336.064.496.176l.248-.352c-.192-.16-.432-.232-.728-.232-.424 0-.688.24-.688.568v.008c0 .368.288.472.672.56.24.056.296.096.296.168v.008c0 .08-.072.12-.2.12-.2 0-.4-.08-.576-.216l-.28.32zm8.472-.208c0 .168-.104.304-.288.304-.168 0-.288-.136-.288-.312v-.008c0-.168.112-.304.288-.304.168.008.288.144.288.32zM47 48.384v.208c0 .256.048.544-.104.768a.387.387 0 0 1-.312.168v-.904h-.48s0 .376-.008.416c-.016.216-.136.48-.384.48h-.048v-.896h-.48v.432c0 .32-.024.472-.272.472h-2.64v-.856h-.496v.856h-2.928v-.856h-.496v.856h-2.568c-.064 0-.12-.008-.184-.016l-.096-.016v-.056c0-.384-.32-.712-.752-.712-.44 0-.752.32-.752.72v.048l-.096.016c-.064.016-.12.016-.184.016h-2.728v-1.824h-.496v2.208H33.8a.774.774 0 0 0 .328-.064.755.755 0 0 0 .624.304c.264 0 .488-.12.624-.304.088.04.184.056.288.064h10.008c.224.008.352-.112.424-.296v.296h.48a.957.957 0 0 0 .376-.08.888.888 0 0 0 .528-.816v-.632H47z"/>
  <path d="M38.344 47.888h.52v.392h-.52v-.392zm3.072 2.416h.52v.392h-.52v-.392zm.704 0h.52v.392h-.52v-.392zm-29.888-1.272c0-.528.4-.936.936-.936.36 0 .6.152.752.376l-.368.288c-.096-.128-.208-.208-.376-.208-.248 0-.424.208-.424.472v.008c0 .264.176.48.424.48.184 0 .288-.088.4-.216l.368.264a.89.89 0 0 1-.784.4.924.924 0 0 1-.928-.928"/>
  <g>
    <path d="M42.72 31.744l-1.392 2.464-1.4-2.464h-4.752l3.88 6.408-3.88 6.408h4.752l1.4-2.464 1.392 2.464h4.76l-3.88-6.408 3.88-6.408z"/>
    <path d="M29.312 40.744a2.687 2.687 0 0 1-2.68-2.688c0-1.48 1.2-2.688 2.68-2.688 1.48 0 2.68 1.208 2.68 2.688 0 1.48-1.2 2.688-2.68 2.688m0-9.8c-3.904 0-7.072 3.184-7.072 7.104s3.168 7.104 7.072 7.104 7.072-3.184 7.072-7.104-3.168-7.104-7.072-7.104M14.408 40.88L9.6 31.744h4.632l2.344 4.544 2.24-4.544h4.624l-6.968 13.384-2.064-4.248z"/>
  </g>
</svg>
