<svg xmlns="http://www.w3.org/2000/svg" viewBox="0 0 512 512">
    <circle cx="256" cy="256" r="250" fill="white" />
    <path d="M230.43,213.67a30.35,30.35,0,0,0-.22,43.1c15.52,15.56,75.74,32.7,75.74,32.7s-16.63-60-32.15-75.56a31,31,0,0,0-43.37-.22Z" fill="#2f80ed"/>
    <path d="M509,255.63c0,140.17-113.64,253.81-253.81,253.81S1.38,395.8,1.38,255.63,115,1.82,255.19,1.82,509,115.46,509,255.63Zm-38.44,12.69a214.94,214.94,0,0,1-49.95,125.81L390.3,363.82a19,19,0,1,0-26.92,26.91l30.31,30.32a215.76,215.76,0,0,1-277,0L147,390.74a19,19,0,1,0-26.91-26.92L89.77,394.13A214.94,214.94,0,0,1,39.82,268.32H83.87a19,19,0,0,0,0-38.07H40.92A214.85,214.85,0,0,1,89.77,117.14l30.31,30.3A19,19,0,0,0,147,120.54L116.69,90.2A214.79,214.79,0,0,1,236.15,40.71V84.29a19,19,0,1,0,38.07,0V40.72a214.83,214.83,0,0,1,119.47,49.5l-30.31,30.3a19,19,0,1,0,26.9,26.92l30.33-30.3a214.85,214.85,0,0,1,48.85,113.11H426.51a19,19,0,0,0,0,38.07Z" fill="#2f80ed" fill-rule="evenodd"/>
</svg>