<svg xmlns="http://www.w3.org/2000/svg" viewBox="0 0 564 576">
  <ellipse cx="282" cy="288" fill="#E16B5A" rx="282" ry="288"/>
  <path fill="#242424" d="M391.908 133.408C394.08 74.516 341.812 27 280 27c-36.668 0-119.992 26.816-112.66 137.264 7.332 110.444-36.672 134.444-60.004 133.78 7.664 13 25.524 25.276 35.664 28-26 16.336-48.328 20.66-82.996 17.328 21.496 73.336 184 87.336 184 87.336l16.388 1.12c5.844.868 12.336 1.344 19.608 1.344 142 0 209-11.464 170.028-100.752-15.664-35.88-62.692-75.404-58.12-199.012z"/>
  <path fill="#1a" d="M450.028 332.42c-15.664-35.888-62.692-75.412-58.12-199.024C394.08 74.516 341.812 27 280 27c-2.316 0-4.82.108-7.472.336 58.008 4.132 105.448 49.916 103.38 106.072-4.572 123.608 42.456 163.132 58.12 199.024 37.708 86.392-23.792 99.92-156.44 100.716.804.012 1.584.04 2.416.04C422 433.18 489 421.72 450.028 332.42zM71.556 344.208c-3.708-.172-7.54-.44-11.552-.824.096.328.224.652.32.98 3.884.08 7.612.036 11.232-.156z"/>
  <path fill="#FFD7CC" d="M410.156 367.64c-26.08-16.3-94.416-39.116-130.272-39.116-35.856 0-104.02 22.816-130.092 39.116C123.712 383.936 124 419.796 124 458.916V527h312v-68.084c0-39.116.236-74.98-25.844-91.276z"/>
  <path fill="#F2CCC2" d="M410.156 367.64c-26.08-16.3-94.416-39.116-130.272-39.116-1.908 0-3.916.08-6 .204 37.024 2.22 99.584 23.48 124.272 38.916C424.236 383.944 424 419.8 424 458.912v68.084h12v-68.084c0-39.112.236-74.976-25.844-91.272z"/>
  <path fill="#C23527" d="M369.696 387.5c-25.264 35.004-87.736.572-89.54 67.5h-.172c-1.808-66.928-64.344-32.496-89.608-67.5C168 395 164 435.012 164 445.336V527h232v-81.664c0-10.324-3.928-50.336-26.304-57.836z"/>
  <path fill="#FFD7CC" d="M236 267v88c0 8.836 19.7 16 44 16s44-7.164 44-16v-88h-88z"/>
  <path fill="#F2CCC2" d="M312 267v88c0 8.092-16.548 14.764-38 15.836 1.968.092 3.96.164 6 .164 24.3 0 44-7.164 44-16v-88h-12z"/>
  <path fill="#FFE1D9" d="M200 119v99.916c0 20.78 40.392 83.936 80 83.936s80-63.156 80-83.936V119H200z"/>
  <path fill="#F2D6CE" d="M348 119v99.916c0 19.736-36.416 77.628-74 83.428 2 .304 4 .508 6 .508 39.608 0 80-63.156 80-83.936V119h-12z"/>
  <path fill="#FFD464" d="M360 95c-23.436-1.408-64.372-20.844-80-39.728-15.628 18.884-56.564 38.32-80 39.728v27.056c21.536 1.28 46.976 1.932 80 1.932s58.464-.652 80-1.932V95z"/>
  <path fill="#C23527" d="M280 73.292l5.416 16.644h17.5l-14.164 10.292 5.408 16.644L280 106.584l-14.16 10.288 5.412-16.644-14.168-10.292h17.5z"/>
  <path fill="#F5F5F5" d="M228 159a16 12 0 1 0 32 0 16 12 0 1 0-32 0"/>
  <path fill="#242424" d="M236 159a8 8 0 1 0 16 0 8 8 0 1 0-16 0"/>
  <path fill="#F5F5F5" d="M300 159a16 12 0 1 0 32 0 16 12 0 1 0-32 0"/>
  <path fill="#242424" d="M308 159a8 8 0 1 0 16 0 8 8 0 1 0-16 0"/>
</svg>
