<svg xmlns="http://www.w3.org/2000/svg" viewBox="0 0 512 512">
  <circle cx="255.7" cy="256.5" r="168" fill="#2B374C"/>
  <path fill="#F4BF2A" d="M466 256.5c0-42.3-13.2-84-36.8-119.4V85.7c0-1.4-1.4-2.8-2.8-2.8H375c-71.5-49.3-165.9-49.3-237.4 0H86.3c-.7 0-1.4 0-2.1.7-.7.7-.7 1.4-.7 2.1v50.7c-50 72.2-50 167.3 0 239.5v50.7c0 1.4 1.4 2.8 2.8 2.8h51.4c72.2 49.3 166.6 48.6 238.8-.7h50.7c1.4 0 2.8-1.4 2.8-3.5v-50.7c23.5-34 36-75.6 36-118zm-392.2 0c0-100.7 81.2-181.9 181.9-181.9s181.9 81.2 181.9 181.9-81.2 181.9-181.9 181.9S73.8 357.2 73.8 256.5z"/>
  <path fill="#F4BF2A" d="M134.9 157.9h68.7c-1.4 7.6-2.1 15.3-2.1 23.6 2.8 30.5 22.9 115.2 22.9 115.2L257 164.9 290.4 294s20.1-113.9 20.1-121.5c-.7-5.6-3.5-11.1-8.3-14.6h72.9c-9.7 9-16.7 20.1-20.8 33.3-6.2 25-28.5 151.3-28.5 159 .7 8.3 3.5 16 8.3 22.9h-68c1.4-6.2 2.1-12.5 2.1-18.7 0-11.8-10.4-66.6-10.4-66.6s-13.9 56.9-13.9 67.3c0 6.2 1.4 12.5 4.2 18h-68.7s13.2-9.7 13.2-18.7c-1.4-25.7-37.5-159.7-40.3-170.1-2.2-10.4-8.4-20.1-17.4-26.4z"/>
</svg>
