<svg xmlns="http://www.w3.org/2000/svg" viewBox="0 0 46 44.35">
  <path fill="#131f31" d="M23 34.88A16.9 16.9 0 1 0 6.1 18 16.9 16.9 0 0 0 23 34.88z"/>
  <path fill="#00b2e3" d="M12.56 42.55v-.25a.64.64 0 0 0-.07-.24.7.7 0 0 1-.08-.2l-.12-.21a2.19 2.19 0 0 1 0 .48 1 1 0 0 1-.13.35l-.05.15v.08l-.06.07a.42.42 0 0 0 0 .09h-.07c-.07 0-.05.06-.09.07a.34.34 0 0 1-.11.05.34.34 0 0 0-.19.06.5.5 0 0 1-.17.08l-.27.07h-.11v.06a1.28 1.28 0 0 0-.26 0 .75.75 0 0 1-.16 0h-.26a.23.23 0 0 1-.15 0v-.22a.94.94 0 0 1 0-.1v-.24h-.12l-.07.06s-.09-.11 0-.13.05 0 .08 0 .07.08.1 0a.14.14 0 0 1 .07-.05l.05-.07v-.41c0-.09-.07-.15-.07-.22v-1.03c0-.07 0-.08.07-.13a1.92 1.92 0 0 0 0-.24s-.05-.06 0-.12a.21.21 0 0 0 0-.13 5.28 5.28 0 0 1 0-.53.48.48 0 0 1 .17-.31.81.81 0 0 1 .16-.14l.14-.07v-.06l.09-.07s.13-.07.13-.11a3.9 3.9 0 0 0-.4 0c-.11 0-.13.06-.2 0a1.41 1.41 0 0 0-.31 0h-.16v.07h-.05l-.07.09v.08a.75.75 0 0 1 0-.15.77.77 0 0 0 0-.1.38.38 0 0 1-.18 0 .28.28 0 0 0-.17 0l-.1.07h-.44v-.08h-.69a.41.41 0 0 0-.19 0l.13.1.07.06a1 1 0 0 1 .12.13v.07a.17.17 0 0 1 .11.1 1.83 1.83 0 0 1 .08.27v.42a.86.86 0 0 1 0 .17 1 1 0 0 0 .05.27v.87a2.13 2.13 0 0 1 0 .4.69.69 0 0 0 0 .19.25.25 0 0 1 0 .17v.49a3.91 3.91 0 0 1 0 .49 1.81 1.81 0 0 1-.14.33l-.2.27a1.5 1.5 0 0 0-.21.12l-.06.09-.17.07h.32a1.49 1.49 0 0 0 .22 0h.07a1 1 0 0 1 .22 0h.46a4.05 4.05 0 0 0 .62 0h.2s.05-.05.09 0 .08 0 .11 0 .16.08.16 0 0-.13.09-.12h.08a.71.71 0 0 1 .19 0 2.3 2.3 0 0 0 .37 0 .84.84 0 0 1 .26 0s.06-.06.09 0h.56c.07 0 .19.11.24.17s.1-.23.16-.39a2.46 2.46 0 0 0 .12-.53l.05-.23v-.14c0-.14.05-.21.05-.21zm7.58 1.06a1.17 1.17 0 0 0-.2-.19.52.52 0 0 1-.17-.19l-.07-.13v-.11l-.06-.06v-.09l-.06-.14a4.06 4.06 0 0 0-.18-.53 2.59 2.59 0 0 1-.17-.37s-.09-.21-.11-.28a1.36 1.36 0 0 0-.05-.14l-.07-.07h-.14v-.11l.08-.09V41l-.06-.1a1.52 1.52 0 0 1-.18-.3 2.93 2.93 0 0 0-.12-.29l-.06-.19-.12-.38a2 2 0 0 0-.15-.35l-.06-.19s0-.16-.07-.18h-.1v-.1s-.12-.25-.14-.31l-.26.28a1.68 1.68 0 0 1-.16.15 1.14 1.14 0 0 0-.24.14l-.14.13s-.28.15-.33.19l-.09.08-.08.09h-.07a2.4 2.4 0 0 0-.23.2c0 .06-.17.14-.19.24a2.9 2.9 0 0 1 .27-.11h.44a.13.13 0 0 1 .13 0c.08.05.1 0 .17 0a.48.48 0 0 1 .13 0 .19.19 0 0 1 .08.05l.06.12a.58.58 0 0 1-.07.11l-.09.11-.05.05h-.07a.68.68 0 0 0-.14.1l-.09.1a.54.54 0 0 0-.07.13.9.9 0 0 0 0 .12h-.06c-.06 0 0 .13-.09.16a.65.65 0 0 1 0 .17 1 1 0 0 1-.09.2s-.08.1-.07.14a.51.51 0 0 1 0 .09h-.07s-.08.22-.09.26h-.45c-.13 0 0 0 0 0h-.13a.4.4 0 0 0-.16 0l-.19.06s0 .07.1.12l.27.07a.46.46 0 0 0 .17.06c.09 0 0 0 0 0a.19.19 0 0 1 .1 0l-.08.05h.19l-.22.56a1.12 1.12 0 0 1-.15.24l-.12.1a2 2 0 0 1-.39.33l-.15.08a.3.3 0 0 0-.13.12l.02.3a.87.87 0 0 0 .2 0h.21a.9.9 0 0 1 .24 0H16a.55.55 0 0 0 .22 0H17l-.18-.15a1.28 1.28 0 0 1-.18-.12s-.12 0-.13-.12a1.09 1.09 0 0 1 0-.26v-.12a.38.38 0 0 1 0-.18v-.24l.06-.34.1.07h.17a1.31 1.31 0 0 1 .28 0 2.33 2.33 0 0 0 .48 0h.22a.7.7 0 0 0 .14 0h.48a1.08 1.08 0 0 1 0 .16v.6s.05.06-.05.17a1.54 1.54 0 0 0-.17.23l-.13.15h-.07a.56.56 0 0 1 .16 0 .27.27 0 0 0 .2 0h.25a2.55 2.55 0 0 1 .42 0h.24a.76.76 0 0 1 .29 0h1.11a3.58 3.58 0 0 0-.38-.3c.02.15-.17.06-.17.06zm-2.28-1.85h-.65l-.06-.1h-.07v-.07h-.09a2.3 2.3 0 0 1 .2-.45 1.64 1.64 0 0 0 .17-.39.85.85 0 0 1 .11-.21 1.93 1.93 0 0 0 .1-.19s.18.28.22.37a.77.77 0 0 0 .06.14.84.84 0 0 0 .06.18l.08.2.1.19.06.16a1.41 1.41 0 0 1-.29.17zm20.28-2.54c.2-.1.39-.23.59-.34v-.07H38l-.33.05h-.4c-.13 0-.43 0-.65.07s-.3 0-.45 0a1.31 1.31 0 0 0 .27.26.49.49 0 0 1 .2.43c0 .25.11.25.24.42-.12.21-.22-.18-.22.11v2.97c0 .33-.07.61-.42.8l-.3.21a2.26 2.26 0 0 0 .9 0c.31-.14.58.09.87 0h.45c.21 0-.09-.1.13-.08 0 0 .18.1.23.1l-.23-.25a3.08 3.08 0 0 1-.24-.27.58.58 0 0 1-.13-.5 1.87 1.87 0 0 0 0-.58v-1c0-.34-.06-.78 0-1.16s.07-.6.09-.9a.25.25 0 0 1 .13-.27zm-12.31 2.16a2.45 2.45 0 0 0-.35-.26l-.36-.12c-.11 0-.22-.18-.32-.19 0-.2-.13-.12-.21-.1s0-.06 0-.08-.27-.2-.4-.28a1.33 1.33 0 0 0-.46-.23 1 1 0 0 1 .37-.66c.09 0 .23-.07.32-.1s.27 0 .42 0c0 0 .1-.09.09 0a1.8 1.8 0 0 1 .45.09.36.36 0 0 1 .16.11 1.19 1.19 0 0 0 .22.12 1.77 1.77 0 0 1 .34.46 1 1 0 0 1 .19.37c0-.27 0-.56-.07-.83s0-.25-.05-.38 0-.39 0-.58c-.25.27-.64.15-.94.19s-.69-.07-1 0c-.08 0-.13.07-.19.08s-.11 0-.17 0a1.06 1.06 0 0 0-.45.25 1.77 1.77 0 0 0-.58.68 2.69 2.69 0 0 0-.19.38 2.63 2.63 0 0 1-.07.42c0 .05-.08.08-.12.12a.85.85 0 0 0 .34.14c.09 0 .18.1.27.13s.11 0 .17 0c0 .22.24.33.37.43a2.79 2.79 0 0 0 .25.17c.09 0 .16.17.24.19.11 0 .17.11.27.12s.22 0 .21.19c.17 0 .32.19.46.26s.32.28.46.3a1.56 1.56 0 0 1-.5.65 1 1 0 0 1-.48.13h-.17c-.02 0-.08 0 0 .14h-.06c0 .06 0 .22-.05.24v-.35c-.15 0-.35 0-.48-.15l-.48-.47c-.09-.09-.15-.11-.22-.23s0-.1 0-.14-.08 0-.09-.06a1.66 1.66 0 0 1-.12-.51c0 .17-.06.34-.08.5s0 .33 0 .49a5.36 5.36 0 0 1-.2.92c.1-.11.15-.24.29-.27s.28.09.44.13.46.24.69.29a1.34 1.34 0 0 1 .4.07H25a1.62 1.62 0 0 0 .77-.29c.11-.07.16-.19.27-.26a.88.88 0 0 0 .23-.24c.12-.17.28-.28.26-.55.09 0 .17-.25.2-.35s0-.16.07-.23a.43.43 0 0 1 .25-.11 2.86 2.86 0 0 1-.4-.28c-.4-.27-.65-.33-.82-.46zm-3.48-.59zm10.09.59c-.12-.07-.22-.2-.35-.26l-.36-.12h-.13c0-.19-.12-.11-.2-.1s0-.05 0-.07-.47-.35-.59-.43a1.37 1.37 0 0 0-.47-.23 1 1 0 0 1 .38-.66 2.42 2.42 0 0 1 .32-.1h.41c.14 0-.12-.15-.12-.18s.22.09.21.16a1.8 1.8 0 0 1 .45.09.42.42 0 0 1 .16.11c.07.07.13.07.21.12a1.77 1.77 0 0 1 .34.46c.07.11.27.23.3.4 0-.27-.15-.59-.18-.86s0-.25-.05-.38 0-.39 0-.58c-.25.27-.63.15-.93.19s-.69-.07-1 0c-.08 0-.07.14-.13.16s-.16-.1-.22-.1a1.06 1.06 0 0 0-.45.25 1.77 1.77 0 0 0-.58.68 2.64 2.64 0 0 0-.18.38c0 .12 0 .32-.07.42s-.08 0-.12.06a.72.72 0 0 0 .33.2c.09 0 .48.32.56.34s.11 0 .17 0c0 .22 0 .11.08.21a2.79 2.79 0 0 0 .25.17c.08 0 .15.17.24.19s-.14-.3-.13-.32.3.38.4.39.21 0 .21.19c.16 0 .31.19.45.26s.32.28.46.3a1.74 1.74 0 0 1-.5.65 1 1 0 0 1-.48.13h-.17c-.05 0-.15.11-.15 0s-.34 0-.47-.15l-.48-.47c-.09-.09-.17 0-.23-.11s0-.1 0-.14-.05-.15-.07-.18a2 2 0 0 1-.12-.51 4 4 0 0 1-.07.5v.49a4.55 4.55 0 0 1-.19.92c.1-.11.15-.24.29-.27s.28.09.43.13.46.24.69.29a1.51 1.51 0 0 1 .41.09c.2 0 .38-.08.59-.08a1.58 1.58 0 0 0 .76-.29c.11-.07.16-.19.27-.26a.75.75 0 0 0 .23-.24c.12-.17.28-.28.26-.55.09 0 .16-.25.2-.35s0 0 .07-.06.18-.28.24-.28a4.85 4.85 0 0 1-.4-.28c-.37-.13-.58-.19-.78-.32zM29 40.73zm-29 .34zm5.05 1.86a2.2 2.2 0 0 1-.34.28.51.51 0 0 1-.22.11h-.14c-.05 0 0 .07 0 .11h-.76a1.45 1.45 0 0 1-.72-.25c-.12-.07-.2-.22-.31-.28s-.16 0-.23-.06 0-.08-.05-.1c-.22-.28-.49-.45-.59-.85a2.88 2.88 0 0 0-.23-.89 1.24 1.24 0 0 0 .15-.33 1.73 1.73 0 0 1 .19-.28 2 2 0 0 1 .67-.58 2.6 2.6 0 0 1 .68-.31h.13s0-.06.12-.07.27 0 .41 0 0 .07 0 .11.09 0 .14 0a.68.68 0 0 1 .22.12 1.74 1.74 0 0 1 .34.28c.11.12.17.27.27.39s.2.13.28.24c-.06-.36-.16-.73-.2-1.09a2.38 2.38 0 0 0-.19-.55c0-.1-.11-.53-.19-.59-.15.27-.17.49-.43.49s-.49-.08-.74-.07-.44-.05-.68 0a2.63 2.63 0 0 0-.3.09H2.1c-.22 0-.41.28-.62.37 0 .11 0 .23.17.26 0 0-.35-.12-.39-.11s-.08.06-.11.08a1.69 1.69 0 0 0-.38.55.79.79 0 0 1-.14.17.93.93 0 0 0-.15.35c-.09.23-.31.3-.46.48a2.89 2.89 0 0 1 .27.44c0 .12.11.22.15.35a.85.85 0 0 0 .11.35 1.91 1.91 0 0 1 .18.38c.08.18.16.36.25.53a.85.85 0 0 0 .32.33 3.91 3.91 0 0 0 .65.44c.09.25.5.35.69.33s.49 0 .74 0 .29-.06.45-.07h.31a1.51 1.51 0 0 0 .3 0 .82.82 0 0 0 .28-.08c.16 0 .22.09.34.31.08-.06.11-.31.15-.42v-.09a1.6 1.6 0 0 0 .14-.42c0-.37.14-.74.19-1.1-.07.11-.18.14-.27.24s-.11.28-.22.41zm40.68-.15c-.1.12-.16 0-.27.16a1.81 1.81 0 0 1-.34.28.71.71 0 0 1-.21.11h-.14c-.05 0 0 .07 0 .11a.62.62 0 0 0-.19 0H44a1.48 1.48 0 0 1-.71-.25c-.12-.07-.19-.22-.3-.28s-.16 0-.23-.06 0-.08-.05-.1a2.2 2.2 0 0 1-.59-.85 2.81 2.81 0 0 0-.22-.84 1.66 1.66 0 0 0 .15-.33 2.68 2.68 0 0 1 .18-.28 2.23 2.23 0 0 1 .66-.58 2.66 2.66 0 0 1 .69-.31h.12s0-.05.12-.06.48 0 .62 0-.2.06-.2.1.09 0 .15 0a.75.75 0 0 1 .21.12 2.12 2.12 0 0 1 .4.28c.11.13.16.28.27.4s.2.13.27.24c-.06-.36-.16-.73-.2-1.09a2.14 2.14 0 0 0-.18-.54c0-.11-.08-.36-.16-.42-.14.26-.2.31-.46.31s-.48-.08-.73-.06-.43 0-.68 0a1.66 1.66 0 0 0-.29.1 1.4 1.4 0 0 0-.23 0c-.22 0-.41.27-.61.36 0 .11-.18.14-.22.15s-.08.06-.1.08c-.2.14-.21.68-.34.89s0-.55 0-.49a3.63 3.63 0 0 0-.31.66 2.22 2.22 0 0 1-.33.63l-.05.13c.07.08.15.06.19.17s.11.22.15.34a.85.85 0 0 0 .11.35 2.69 2.69 0 0 1 .18.38 5.12 5.12 0 0 0 .25.53.76.76 0 0 0 .31.33 4.22 4.22 0 0 0 .64.43c.09.25.5.35.68.33s.49 0 .74 0 .29-.06.44-.06a1 1 0 0 0 .3 0h.3a1.14 1.14 0 0 0 .25-.06c.17 0 .23.09.34.3.08-.06.11-.31.15-.42a.2.2 0 0 0 0-.08h.05a1.39 1.39 0 0 0 .14-.42c0-.36.14-.73.19-1.09a4.53 4.53 0 0 1-.33.4zM11.41 31.64a18 18 0 0 0 23.37 0h3.9V27a18 18 0 0 0 0-17.94V4.32h-3.9a18 18 0 0 0-23.37 0h-3.9V9a18 18 0 0 0 0 18v4.69zM23.09 2.7A15.28 15.28 0 1 1 7.81 18 15.28 15.28 0 0 1 23.09 2.7z"/>
  <path fill="#00b2e3" d="M13.36 10.82l3.92 16.88a2.89 2.89 0 0 1-1 2.07h6.28a5 5 0 0 1-.44-1.86l1.35-6.16c.4 1.84.77 3.66 1.17 5.51a3.73 3.73 0 0 1-.26 2.51h6.24a3.88 3.88 0 0 1-.7-2.3l2.45-14.9a13.77 13.77 0 0 1 2-3.76h-6c.77.72.24 1.89.17 2.75l-1.97 11.26a.1.1 0 0 1-.05-.12l-3.2-12.61c-1.14 4.17-2 8.43-3.19 12.57l-.05-.08-2.36-11.29.12-2.48h-6a3.6 3.6 0 0 1 1.52 2.01zm26.92-.76h.4V8.59h.54v-.33h-1.48v.33h.54zm1.15 0h.37V8.79l.44 1.27h.3L43 8.78v1.28h.37v-1.8h-.56l-.4 1.24L42 8.26h-.56z"/>
</svg>
