<svg xmlns="http://www.w3.org/2000/svg" viewBox="0 0 500 500">
  <path fill="#011D30" d="M380.9 127.6c133.9 182.3-69.3 385.5-251.6 251.6-2.6-1.9-4.8-4.1-6.7-6.7C-11.3 190.2 191.9-13 374.2 120.9c2.5 1.8 4.8 4.1 6.7 6.7z"/>
  <path fill="#FF9C00" d="M435.5 249.2c0-37-11.2-73.1-32.1-103.6v-44.8c0-1.5-1.2-2.7-2.7-2.7h-44.8c-62.3-42.6-144.5-42.6-206.8 0h-44.7a2.732 2.732 0 0 0-2.7 2.7v44.1c-43.5 62.7-43.5 145.8 0 208.5v44.3c0 1.5 1.2 2.7 2.7 2.7H149c62.7 42.8 145.2 42.5 207.6-.7h44.1c1.5 0 2.7-1.2 2.7-2.7v-44.3c20.8-30.4 32.1-66.5 32.1-103.5zm-341.5 0c0-87.4 70.9-158.3 158.3-158.3s158.3 70.9 158.3 158.3-70.9 158.3-158.3 158.3c-87.4-.1-158.2-70.9-158.3-158.3z"/>
  <path fill="#FF9C00" d="M154.3 169.8h56c-1.3 6.3-1.9 12.7-1.9 19.1 2.4 25.1 18.8 93.6 18.8 93.6l26.5-107.4 27.2 105.3s16.2-92.4 16.2-98.6c-.7-4.6-3-8.9-6.5-11.9h59.2c-7.9 7.3-13.6 16.6-16.7 26.9-5.3 20.4-23.3 122.9-23.3 129.4.3 6.7 2.7 13.1 6.9 18.4h-55.1c1.3-4.9 1.9-9.9 1.8-15 0-9.4-8.7-54.1-8.7-54.1s-11.2 46.3-11.2 54.7c0 5 1.2 10 3.6 14.4h-57.3s10.9-7.7 10.5-15c-1.2-21-30.7-130-32.6-138.4-1.5-8.6-6.3-16.3-13.4-21.4z"/>
</svg>
