<svg xmlns="http://www.w3.org/2000/svg" viewBox="0 0 1024 1024">
  <circle cx="512" cy="512" r="512" fill="#ff4a00"/>
  <path fill="#fff" d="M595 515.138a191.363 191.363 0 0 1-12.287 67.5A191.488 191.488 0 0 1 515.137 595h-.276a191.475 191.475 0 0 1-67.5-12.287A191.45 191.45 0 0 1 435 515.137v-.276a191.663 191.663 0 0 1 12.287-67.5A191.425 191.425 0 0 1 514.862 435h.275a191.35 191.35 0 0 1 67.575 12.3A191.337 191.337 0 0 1 595 514.8v.275zm235.55-53.475h-186.8l132.087-132.075a321.5 321.5 0 0 0-34.587-40.838 321.75 321.75 0 0 0-40.838-34.538L568.337 386.25v-186.8a322.038 322.038 0 0 0-53.162-4.45h-.338a322.038 322.038 0 0 0-53.162 4.45v186.8L329.587 254.162a321.675 321.675 0 0 0-40.837 34.588 321.538 321.538 0 0 0-34.525 40.812l132.025 132.1h-186.8S195 496.75 195 514.889v.225a322.113 322.113 0 0 0 4.45 53.225h186.8L254.162 700.413a321.825 321.825 0 0 0 75.425 75.425L461.662 643.75v186.8a322.163 322.163 0 0 0 53.113 4.45h.462a322.313 322.313 0 0 0 53.1-4.45v-186.8l132.075 132.087a321.675 321.675 0 0 0 40.838-34.587 321.9 321.9 0 0 0 34.55-40.838L643.75 568.337h186.8a322.163 322.163 0 0 0 4.45-53.112v-.463a322.3 322.3 0 0 0-4.45-53.1z"/>
</svg>
