<svg xmlns="http://www.w3.org/2000/svg" viewBox="0 0 1024 1024">
   <circle cx="512" cy="512" r="512" fill="#2d8cff" />
   <path fill="#fff"
      d="M448.375 459.125C433 443.75 412.875 436 392.5 436c-20.125 0-40.5 7.75-55.875 23.125-30.875 30.875-30.875 80.75 0 111.75 30.875 30.875 80.75 30.875 111.75 0 30.875-30.75 30.875-81 0-111.75zm-22.25 89.5c-18.625 18.625-48.625 18.625-67 0-18.625-18.625-18.625-48.625 0-67 18.625-18.625 48.625-18.625 67 0 18.375 18.375 18.375 48.375 0 67z" />
   <path fill="#fff"
      d="M614.375 459.125C599 443.75 578.875 436 558.5 436c-20.125 0-40.5 7.75-55.875 23.125-30.875 30.875-30.875 80.75 0 111.75 30.875 30.875 80.75 30.875 111.75 0 30.75-30.75 30.75-81 0-111.75zM592 548.625c-18.625 18.625-48.625 18.625-67 0-18.625-18.625-18.625-48.625 0-67 18.625-18.625 48.625-18.625 67 0 18.375 18.375 18.375 48.375 0 67zm-397 45l7.875.375h118.5l-.375-7.875c-1-13-10.25-22.5-23.25-23.25l-7.875-.375H218.75l94.875-94.875-.375-7.875c-.625-13-10.25-22.75-23.25-23.25l-7.875-.375h-118.5L164 444c1 12.875 10.5 22.5 23.25 23.25l7.875.375h71.125l-95 94.75.375 7.875C172.5 583.375 182 592.875 195 593.625zm540.875-110.25c2.75 4.75 3.5 9.875 4 15.75l.375 7.875v55.25l.375 7.875c.75 12.875 10.25 22.5 23.25 23.25l7.875.375v-86.875l.375-7.875c.375-5.875 1.125-11.25 4-16 5.5-9.5 15.625-15.625 27.25-15.625s21.875 6.375 27.5 15.75c2.75 4.75 3.5 10.125 3.75 15.75l.375 7.875V562l.375 7.875c.75 13 10.25 22.5 23.25 23.25l7.875.375v-94.75c0-35-28.25-63.25-63.25-63.25-19 0-35.75 8.25-47.375 21.375-11.625-13-28.5-21.375-47.375-21.375-13 0-25.25 4-35.375 10.875-6.125-6.875-20-10.875-27.875-10.875v158l7.875-.375c13.25-.75 22.75-10.25 23.25-23.25l.375-7.875v-55.25l.375-7.875c.375-5.875 1.125-11.25 4-15.75 5.5-9.5 15.625-15.75 27.25-15.75 11.875.25 22.125 6.5 27.5 16z" />

</svg>